M48
;DRILL file {KiCad 4.0.7} date Saturday, October 06, 2018 'PMt' 03:24:19 PM
;FORMAT={-:-/ absolute / inch / decimal}
FMAT,2
INCH,TZ
T1C0.031
T2C0.039
%
G90
G05
M72
T1
X2.45Y-1.975
X2.45Y-2.075
X2.45Y-2.175
X2.45Y-2.275
X2.45Y-2.375
X2.45Y-2.475
X2.45Y-2.575
X2.45Y-2.675
X2.45Y-2.975
X2.45Y-3.075
X2.45Y-3.175
X2.45Y-3.275
X2.75Y-1.975
X2.75Y-2.075
X2.75Y-2.175
X2.75Y-2.275
X2.75Y-2.375
X2.75Y-2.475
X2.75Y-2.575
X2.75Y-2.675
X2.75Y-2.975
X2.75Y-3.075
X2.75Y-3.175
X2.75Y-3.275
T2
X2.325Y-1.575
X2.425Y-1.575
X2.5Y-3.475
X2.5Y-3.65
X2.525Y-1.575
X2.6Y-3.475
X2.6Y-3.65
X2.7Y-3.475
X2.7Y-3.65
X2.75Y-1.575
X2.85Y-1.575
X2.95Y-1.575
X3.175Y-1.575
X3.275Y-1.575
X3.375Y-1.575
X3.4Y-2.975
X3.4Y-3.075
X3.4Y-3.175
X3.4Y-3.275
X3.4Y-3.375
X3.4Y-3.475
X3.4Y-3.575
X3.4Y-3.675
T0
M30
