G04 #@! TF.GenerationSoftware,KiCad,Pcbnew,(5.0.2-5-10.14)*
G04 #@! TF.CreationDate,2019-06-16T13:43:50-04:00*
G04 #@! TF.ProjectId,sequencer,73657175-656e-4636-9572-2e6b69636164,rev?*
G04 #@! TF.SameCoordinates,Original*
G04 #@! TF.FileFunction,Soldermask,Top*
G04 #@! TF.FilePolarity,Negative*
%FSLAX46Y46*%
G04 Gerber Fmt 4.6, Leading zero omitted, Abs format (unit mm)*
G04 Created by KiCad (PCBNEW (5.0.2-5-10.14)) date Sunday, June 16, 2019 at 01:43:50 PM*
%MOMM*%
%LPD*%
G01*
G04 APERTURE LIST*
%ADD10C,0.100000*%
G04 APERTURE END LIST*
D10*
G36*
X120398277Y-156593665D02*
X120435964Y-156605098D01*
X120470703Y-156623666D01*
X120501148Y-156648652D01*
X120526134Y-156679097D01*
X120544702Y-156713836D01*
X120556135Y-156751523D01*
X120560600Y-156796861D01*
X120560600Y-157633539D01*
X120556135Y-157678877D01*
X120544702Y-157716564D01*
X120526134Y-157751303D01*
X120501148Y-157781748D01*
X120470703Y-157806734D01*
X120435964Y-157825302D01*
X120398277Y-157836735D01*
X120352939Y-157841200D01*
X119266261Y-157841200D01*
X119220923Y-157836735D01*
X119183236Y-157825302D01*
X119148497Y-157806734D01*
X119118052Y-157781748D01*
X119093066Y-157751303D01*
X119074498Y-157716564D01*
X119063065Y-157678877D01*
X119058600Y-157633539D01*
X119058600Y-156796861D01*
X119063065Y-156751523D01*
X119074498Y-156713836D01*
X119093066Y-156679097D01*
X119118052Y-156648652D01*
X119148497Y-156623666D01*
X119183236Y-156605098D01*
X119220923Y-156593665D01*
X119266261Y-156589200D01*
X120352939Y-156589200D01*
X120398277Y-156593665D01*
X120398277Y-156593665D01*
G37*
G36*
X95648277Y-156593665D02*
X95685964Y-156605098D01*
X95720703Y-156623666D01*
X95751148Y-156648652D01*
X95776134Y-156679097D01*
X95794702Y-156713836D01*
X95806135Y-156751523D01*
X95810600Y-156796861D01*
X95810600Y-157633539D01*
X95806135Y-157678877D01*
X95794702Y-157716564D01*
X95776134Y-157751303D01*
X95751148Y-157781748D01*
X95720703Y-157806734D01*
X95685964Y-157825302D01*
X95648277Y-157836735D01*
X95602939Y-157841200D01*
X94516261Y-157841200D01*
X94470923Y-157836735D01*
X94433236Y-157825302D01*
X94398497Y-157806734D01*
X94368052Y-157781748D01*
X94343066Y-157751303D01*
X94324498Y-157716564D01*
X94313065Y-157678877D01*
X94308600Y-157633539D01*
X94308600Y-156796861D01*
X94313065Y-156751523D01*
X94324498Y-156713836D01*
X94343066Y-156679097D01*
X94368052Y-156648652D01*
X94398497Y-156623666D01*
X94433236Y-156605098D01*
X94470923Y-156593665D01*
X94516261Y-156589200D01*
X95602939Y-156589200D01*
X95648277Y-156593665D01*
X95648277Y-156593665D01*
G37*
G36*
X95648277Y-154543665D02*
X95685964Y-154555098D01*
X95720703Y-154573666D01*
X95751148Y-154598652D01*
X95776134Y-154629097D01*
X95794702Y-154663836D01*
X95806135Y-154701523D01*
X95810600Y-154746861D01*
X95810600Y-155583539D01*
X95806135Y-155628877D01*
X95794702Y-155666564D01*
X95776134Y-155701303D01*
X95751148Y-155731748D01*
X95720703Y-155756734D01*
X95685964Y-155775302D01*
X95648277Y-155786735D01*
X95602939Y-155791200D01*
X94516261Y-155791200D01*
X94470923Y-155786735D01*
X94433236Y-155775302D01*
X94398497Y-155756734D01*
X94368052Y-155731748D01*
X94343066Y-155701303D01*
X94324498Y-155666564D01*
X94313065Y-155628877D01*
X94308600Y-155583539D01*
X94308600Y-154746861D01*
X94313065Y-154701523D01*
X94324498Y-154663836D01*
X94343066Y-154629097D01*
X94368052Y-154598652D01*
X94398497Y-154573666D01*
X94433236Y-154555098D01*
X94470923Y-154543665D01*
X94516261Y-154539200D01*
X95602939Y-154539200D01*
X95648277Y-154543665D01*
X95648277Y-154543665D01*
G37*
G36*
X120398277Y-154543665D02*
X120435964Y-154555098D01*
X120470703Y-154573666D01*
X120501148Y-154598652D01*
X120526134Y-154629097D01*
X120544702Y-154663836D01*
X120556135Y-154701523D01*
X120560600Y-154746861D01*
X120560600Y-155583539D01*
X120556135Y-155628877D01*
X120544702Y-155666564D01*
X120526134Y-155701303D01*
X120501148Y-155731748D01*
X120470703Y-155756734D01*
X120435964Y-155775302D01*
X120398277Y-155786735D01*
X120352939Y-155791200D01*
X119266261Y-155791200D01*
X119220923Y-155786735D01*
X119183236Y-155775302D01*
X119148497Y-155756734D01*
X119118052Y-155731748D01*
X119093066Y-155701303D01*
X119074498Y-155666564D01*
X119063065Y-155628877D01*
X119058600Y-155583539D01*
X119058600Y-154746861D01*
X119063065Y-154701523D01*
X119074498Y-154663836D01*
X119093066Y-154629097D01*
X119118052Y-154598652D01*
X119148497Y-154573666D01*
X119183236Y-154555098D01*
X119220923Y-154543665D01*
X119266261Y-154539200D01*
X120352939Y-154539200D01*
X120398277Y-154543665D01*
X120398277Y-154543665D01*
G37*
G36*
X112423427Y-153137597D02*
X112537027Y-153160193D01*
X112751045Y-153248842D01*
X112899511Y-153348044D01*
X112943659Y-153377543D01*
X113107457Y-153541341D01*
X113107459Y-153541344D01*
X113236158Y-153733955D01*
X113324807Y-153947973D01*
X113370000Y-154175174D01*
X113370000Y-154406826D01*
X113324807Y-154634027D01*
X113236158Y-154848045D01*
X113108326Y-155039358D01*
X113107457Y-155040659D01*
X112943659Y-155204457D01*
X112943656Y-155204459D01*
X112751045Y-155333158D01*
X112537027Y-155421807D01*
X112423426Y-155444404D01*
X112309827Y-155467000D01*
X112078173Y-155467000D01*
X111964574Y-155444404D01*
X111850973Y-155421807D01*
X111636955Y-155333158D01*
X111444344Y-155204459D01*
X111444341Y-155204457D01*
X111280543Y-155040659D01*
X111279674Y-155039358D01*
X111151842Y-154848045D01*
X111063193Y-154634027D01*
X111018000Y-154406826D01*
X111018000Y-154175174D01*
X111063193Y-153947973D01*
X111151842Y-153733955D01*
X111280541Y-153541344D01*
X111280543Y-153541341D01*
X111444341Y-153377543D01*
X111488489Y-153348044D01*
X111636955Y-153248842D01*
X111850973Y-153160193D01*
X111964573Y-153137597D01*
X112078173Y-153115000D01*
X112309827Y-153115000D01*
X112423427Y-153137597D01*
X112423427Y-153137597D01*
G37*
G36*
X107973427Y-153137597D02*
X108087027Y-153160193D01*
X108301045Y-153248842D01*
X108449511Y-153348044D01*
X108493659Y-153377543D01*
X108657457Y-153541341D01*
X108657459Y-153541344D01*
X108786158Y-153733955D01*
X108874807Y-153947973D01*
X108920000Y-154175174D01*
X108920000Y-154406826D01*
X108874807Y-154634027D01*
X108786158Y-154848045D01*
X108658326Y-155039358D01*
X108657457Y-155040659D01*
X108493659Y-155204457D01*
X108493656Y-155204459D01*
X108301045Y-155333158D01*
X108087027Y-155421807D01*
X107973426Y-155444404D01*
X107859827Y-155467000D01*
X107628173Y-155467000D01*
X107514574Y-155444404D01*
X107400973Y-155421807D01*
X107186955Y-155333158D01*
X106994344Y-155204459D01*
X106994341Y-155204457D01*
X106830543Y-155040659D01*
X106829674Y-155039358D01*
X106701842Y-154848045D01*
X106613193Y-154634027D01*
X106568000Y-154406826D01*
X106568000Y-154175174D01*
X106613193Y-153947973D01*
X106701842Y-153733955D01*
X106830541Y-153541344D01*
X106830543Y-153541341D01*
X106994341Y-153377543D01*
X107038489Y-153348044D01*
X107186955Y-153248842D01*
X107400973Y-153160193D01*
X107514573Y-153137597D01*
X107628173Y-153115000D01*
X107859827Y-153115000D01*
X107973427Y-153137597D01*
X107973427Y-153137597D01*
G37*
G36*
X87531427Y-153137597D02*
X87645027Y-153160193D01*
X87859045Y-153248842D01*
X88007511Y-153348044D01*
X88051659Y-153377543D01*
X88215457Y-153541341D01*
X88215459Y-153541344D01*
X88344158Y-153733955D01*
X88432807Y-153947973D01*
X88478000Y-154175174D01*
X88478000Y-154406826D01*
X88432807Y-154634027D01*
X88344158Y-154848045D01*
X88216326Y-155039358D01*
X88215457Y-155040659D01*
X88051659Y-155204457D01*
X88051656Y-155204459D01*
X87859045Y-155333158D01*
X87645027Y-155421807D01*
X87531426Y-155444404D01*
X87417827Y-155467000D01*
X87186173Y-155467000D01*
X87072574Y-155444404D01*
X86958973Y-155421807D01*
X86744955Y-155333158D01*
X86552344Y-155204459D01*
X86552341Y-155204457D01*
X86388543Y-155040659D01*
X86387674Y-155039358D01*
X86259842Y-154848045D01*
X86171193Y-154634027D01*
X86126000Y-154406826D01*
X86126000Y-154175174D01*
X86171193Y-153947973D01*
X86259842Y-153733955D01*
X86388541Y-153541344D01*
X86388543Y-153541341D01*
X86552341Y-153377543D01*
X86596489Y-153348044D01*
X86744955Y-153248842D01*
X86958973Y-153160193D01*
X87072573Y-153137597D01*
X87186173Y-153115000D01*
X87417827Y-153115000D01*
X87531427Y-153137597D01*
X87531427Y-153137597D01*
G37*
G36*
X83081427Y-153137597D02*
X83195027Y-153160193D01*
X83409045Y-153248842D01*
X83557511Y-153348044D01*
X83601659Y-153377543D01*
X83765457Y-153541341D01*
X83765459Y-153541344D01*
X83894158Y-153733955D01*
X83982807Y-153947973D01*
X84028000Y-154175174D01*
X84028000Y-154406826D01*
X83982807Y-154634027D01*
X83894158Y-154848045D01*
X83766326Y-155039358D01*
X83765457Y-155040659D01*
X83601659Y-155204457D01*
X83601656Y-155204459D01*
X83409045Y-155333158D01*
X83195027Y-155421807D01*
X83081426Y-155444404D01*
X82967827Y-155467000D01*
X82736173Y-155467000D01*
X82622574Y-155444404D01*
X82508973Y-155421807D01*
X82294955Y-155333158D01*
X82102344Y-155204459D01*
X82102341Y-155204457D01*
X81938543Y-155040659D01*
X81937674Y-155039358D01*
X81809842Y-154848045D01*
X81721193Y-154634027D01*
X81676000Y-154406826D01*
X81676000Y-154175174D01*
X81721193Y-153947973D01*
X81809842Y-153733955D01*
X81938541Y-153541344D01*
X81938543Y-153541341D01*
X82102341Y-153377543D01*
X82146489Y-153348044D01*
X82294955Y-153248842D01*
X82508973Y-153160193D01*
X82622573Y-153137597D01*
X82736173Y-153115000D01*
X82967827Y-153115000D01*
X83081427Y-153137597D01*
X83081427Y-153137597D01*
G37*
G36*
X114573427Y-151637597D02*
X114687027Y-151660193D01*
X114901045Y-151748842D01*
X115092358Y-151876674D01*
X115093659Y-151877543D01*
X115257457Y-152041341D01*
X115257459Y-152041344D01*
X115386158Y-152233955D01*
X115474807Y-152447973D01*
X115520000Y-152675174D01*
X115520000Y-152906826D01*
X115474807Y-153134027D01*
X115386158Y-153348045D01*
X115263411Y-153531748D01*
X115257457Y-153540659D01*
X115093659Y-153704457D01*
X115093656Y-153704459D01*
X114901045Y-153833158D01*
X114687027Y-153921807D01*
X114573426Y-153944404D01*
X114459827Y-153967000D01*
X114228173Y-153967000D01*
X114114574Y-153944404D01*
X114000973Y-153921807D01*
X113786955Y-153833158D01*
X113594344Y-153704459D01*
X113594341Y-153704457D01*
X113430543Y-153540659D01*
X113424589Y-153531748D01*
X113301842Y-153348045D01*
X113213193Y-153134027D01*
X113168000Y-152906826D01*
X113168000Y-152675174D01*
X113213193Y-152447973D01*
X113301842Y-152233955D01*
X113430541Y-152041344D01*
X113430543Y-152041341D01*
X113594341Y-151877543D01*
X113595642Y-151876674D01*
X113786955Y-151748842D01*
X114000973Y-151660193D01*
X114114573Y-151637597D01*
X114228173Y-151615000D01*
X114459827Y-151615000D01*
X114573427Y-151637597D01*
X114573427Y-151637597D01*
G37*
G36*
X105673427Y-151637597D02*
X105787027Y-151660193D01*
X106001045Y-151748842D01*
X106192358Y-151876674D01*
X106193659Y-151877543D01*
X106357457Y-152041341D01*
X106357459Y-152041344D01*
X106486158Y-152233955D01*
X106574807Y-152447973D01*
X106620000Y-152675174D01*
X106620000Y-152906826D01*
X106574807Y-153134027D01*
X106486158Y-153348045D01*
X106363411Y-153531748D01*
X106357457Y-153540659D01*
X106193659Y-153704457D01*
X106193656Y-153704459D01*
X106001045Y-153833158D01*
X105787027Y-153921807D01*
X105673426Y-153944404D01*
X105559827Y-153967000D01*
X105328173Y-153967000D01*
X105214574Y-153944404D01*
X105100973Y-153921807D01*
X104886955Y-153833158D01*
X104694344Y-153704459D01*
X104694341Y-153704457D01*
X104530543Y-153540659D01*
X104524589Y-153531748D01*
X104401842Y-153348045D01*
X104313193Y-153134027D01*
X104268000Y-152906826D01*
X104268000Y-152675174D01*
X104313193Y-152447973D01*
X104401842Y-152233955D01*
X104530541Y-152041344D01*
X104530543Y-152041341D01*
X104694341Y-151877543D01*
X104695642Y-151876674D01*
X104886955Y-151748842D01*
X105100973Y-151660193D01*
X105214573Y-151637597D01*
X105328173Y-151615000D01*
X105559827Y-151615000D01*
X105673427Y-151637597D01*
X105673427Y-151637597D01*
G37*
G36*
X89681427Y-151637597D02*
X89795027Y-151660193D01*
X90009045Y-151748842D01*
X90200358Y-151876674D01*
X90201659Y-151877543D01*
X90365457Y-152041341D01*
X90365459Y-152041344D01*
X90494158Y-152233955D01*
X90582807Y-152447973D01*
X90628000Y-152675174D01*
X90628000Y-152906826D01*
X90582807Y-153134027D01*
X90494158Y-153348045D01*
X90371411Y-153531748D01*
X90365457Y-153540659D01*
X90201659Y-153704457D01*
X90201656Y-153704459D01*
X90009045Y-153833158D01*
X89795027Y-153921807D01*
X89681426Y-153944404D01*
X89567827Y-153967000D01*
X89336173Y-153967000D01*
X89222574Y-153944404D01*
X89108973Y-153921807D01*
X88894955Y-153833158D01*
X88702344Y-153704459D01*
X88702341Y-153704457D01*
X88538543Y-153540659D01*
X88532589Y-153531748D01*
X88409842Y-153348045D01*
X88321193Y-153134027D01*
X88276000Y-152906826D01*
X88276000Y-152675174D01*
X88321193Y-152447973D01*
X88409842Y-152233955D01*
X88538541Y-152041344D01*
X88538543Y-152041341D01*
X88702341Y-151877543D01*
X88703642Y-151876674D01*
X88894955Y-151748842D01*
X89108973Y-151660193D01*
X89222573Y-151637597D01*
X89336173Y-151615000D01*
X89567827Y-151615000D01*
X89681427Y-151637597D01*
X89681427Y-151637597D01*
G37*
G36*
X80781427Y-151637597D02*
X80895027Y-151660193D01*
X81109045Y-151748842D01*
X81300358Y-151876674D01*
X81301659Y-151877543D01*
X81465457Y-152041341D01*
X81465459Y-152041344D01*
X81594158Y-152233955D01*
X81682807Y-152447973D01*
X81728000Y-152675174D01*
X81728000Y-152906826D01*
X81682807Y-153134027D01*
X81594158Y-153348045D01*
X81471411Y-153531748D01*
X81465457Y-153540659D01*
X81301659Y-153704457D01*
X81301656Y-153704459D01*
X81109045Y-153833158D01*
X80895027Y-153921807D01*
X80781426Y-153944404D01*
X80667827Y-153967000D01*
X80436173Y-153967000D01*
X80322574Y-153944404D01*
X80208973Y-153921807D01*
X79994955Y-153833158D01*
X79802344Y-153704459D01*
X79802341Y-153704457D01*
X79638543Y-153540659D01*
X79632589Y-153531748D01*
X79509842Y-153348045D01*
X79421193Y-153134027D01*
X79376000Y-152906826D01*
X79376000Y-152675174D01*
X79421193Y-152447973D01*
X79509842Y-152233955D01*
X79638541Y-152041344D01*
X79638543Y-152041341D01*
X79802341Y-151877543D01*
X79803642Y-151876674D01*
X79994955Y-151748842D01*
X80208973Y-151660193D01*
X80322573Y-151637597D01*
X80436173Y-151615000D01*
X80667827Y-151615000D01*
X80781427Y-151637597D01*
X80781427Y-151637597D01*
G37*
G36*
X120398277Y-152343665D02*
X120435964Y-152355098D01*
X120470703Y-152373666D01*
X120501148Y-152398652D01*
X120526134Y-152429097D01*
X120544702Y-152463836D01*
X120556135Y-152501523D01*
X120560600Y-152546861D01*
X120560600Y-153383539D01*
X120556135Y-153428877D01*
X120544702Y-153466564D01*
X120526134Y-153501303D01*
X120501148Y-153531748D01*
X120470703Y-153556734D01*
X120435964Y-153575302D01*
X120398277Y-153586735D01*
X120352939Y-153591200D01*
X119266261Y-153591200D01*
X119220923Y-153586735D01*
X119183236Y-153575302D01*
X119148497Y-153556734D01*
X119118052Y-153531748D01*
X119093066Y-153501303D01*
X119074498Y-153466564D01*
X119063065Y-153428877D01*
X119058600Y-153383539D01*
X119058600Y-152546861D01*
X119063065Y-152501523D01*
X119074498Y-152463836D01*
X119093066Y-152429097D01*
X119118052Y-152398652D01*
X119148497Y-152373666D01*
X119183236Y-152355098D01*
X119220923Y-152343665D01*
X119266261Y-152339200D01*
X120352939Y-152339200D01*
X120398277Y-152343665D01*
X120398277Y-152343665D01*
G37*
G36*
X95524000Y-153070000D02*
X94722000Y-153070000D01*
X94722000Y-152368000D01*
X95524000Y-152368000D01*
X95524000Y-153070000D01*
X95524000Y-153070000D01*
G37*
G36*
X95524000Y-151670000D02*
X94722000Y-151670000D01*
X94722000Y-150968000D01*
X95524000Y-150968000D01*
X95524000Y-151670000D01*
X95524000Y-151670000D01*
G37*
G36*
X120398277Y-150293665D02*
X120435964Y-150305098D01*
X120470703Y-150323666D01*
X120501148Y-150348652D01*
X120526134Y-150379097D01*
X120544702Y-150413836D01*
X120556135Y-150451523D01*
X120560600Y-150496861D01*
X120560600Y-151333539D01*
X120556135Y-151378877D01*
X120544702Y-151416564D01*
X120526134Y-151451303D01*
X120501148Y-151481748D01*
X120470703Y-151506734D01*
X120435964Y-151525302D01*
X120398277Y-151536735D01*
X120352939Y-151541200D01*
X119266261Y-151541200D01*
X119220923Y-151536735D01*
X119183236Y-151525302D01*
X119148497Y-151506734D01*
X119118052Y-151481748D01*
X119093066Y-151451303D01*
X119074498Y-151416564D01*
X119063065Y-151378877D01*
X119058600Y-151333539D01*
X119058600Y-150496861D01*
X119063065Y-150451523D01*
X119074498Y-150413836D01*
X119093066Y-150379097D01*
X119118052Y-150348652D01*
X119148497Y-150323666D01*
X119183236Y-150305098D01*
X119220923Y-150293665D01*
X119266261Y-150289200D01*
X120352939Y-150289200D01*
X120398277Y-150293665D01*
X120398277Y-150293665D01*
G37*
G36*
X106866812Y-149374624D02*
X107030784Y-149442544D01*
X107178354Y-149541147D01*
X107303853Y-149666646D01*
X107402456Y-149814216D01*
X107470376Y-149978188D01*
X107505000Y-150152259D01*
X107505000Y-150329741D01*
X107470376Y-150503812D01*
X107402456Y-150667784D01*
X107303853Y-150815354D01*
X107178354Y-150940853D01*
X107030784Y-151039456D01*
X106866812Y-151107376D01*
X106692741Y-151142000D01*
X106515259Y-151142000D01*
X106341188Y-151107376D01*
X106177216Y-151039456D01*
X106029646Y-150940853D01*
X105904147Y-150815354D01*
X105805544Y-150667784D01*
X105737624Y-150503812D01*
X105703000Y-150329741D01*
X105703000Y-150152259D01*
X105737624Y-149978188D01*
X105805544Y-149814216D01*
X105904147Y-149666646D01*
X106029646Y-149541147D01*
X106177216Y-149442544D01*
X106341188Y-149374624D01*
X106515259Y-149340000D01*
X106692741Y-149340000D01*
X106866812Y-149374624D01*
X106866812Y-149374624D01*
G37*
G36*
X113546812Y-149374624D02*
X113710784Y-149442544D01*
X113858354Y-149541147D01*
X113983853Y-149666646D01*
X114082456Y-149814216D01*
X114150376Y-149978188D01*
X114185000Y-150152259D01*
X114185000Y-150329741D01*
X114150376Y-150503812D01*
X114082456Y-150667784D01*
X113983853Y-150815354D01*
X113858354Y-150940853D01*
X113710784Y-151039456D01*
X113546812Y-151107376D01*
X113372741Y-151142000D01*
X113195259Y-151142000D01*
X113021188Y-151107376D01*
X112857216Y-151039456D01*
X112709646Y-150940853D01*
X112584147Y-150815354D01*
X112485544Y-150667784D01*
X112417624Y-150503812D01*
X112383000Y-150329741D01*
X112383000Y-150152259D01*
X112417624Y-149978188D01*
X112485544Y-149814216D01*
X112584147Y-149666646D01*
X112709646Y-149541147D01*
X112857216Y-149442544D01*
X113021188Y-149374624D01*
X113195259Y-149340000D01*
X113372741Y-149340000D01*
X113546812Y-149374624D01*
X113546812Y-149374624D01*
G37*
G36*
X88654812Y-149374624D02*
X88818784Y-149442544D01*
X88966354Y-149541147D01*
X89091853Y-149666646D01*
X89190456Y-149814216D01*
X89258376Y-149978188D01*
X89293000Y-150152259D01*
X89293000Y-150329741D01*
X89258376Y-150503812D01*
X89190456Y-150667784D01*
X89091853Y-150815354D01*
X88966354Y-150940853D01*
X88818784Y-151039456D01*
X88654812Y-151107376D01*
X88480741Y-151142000D01*
X88303259Y-151142000D01*
X88129188Y-151107376D01*
X87965216Y-151039456D01*
X87817646Y-150940853D01*
X87692147Y-150815354D01*
X87593544Y-150667784D01*
X87525624Y-150503812D01*
X87491000Y-150329741D01*
X87491000Y-150152259D01*
X87525624Y-149978188D01*
X87593544Y-149814216D01*
X87692147Y-149666646D01*
X87817646Y-149541147D01*
X87965216Y-149442544D01*
X88129188Y-149374624D01*
X88303259Y-149340000D01*
X88480741Y-149340000D01*
X88654812Y-149374624D01*
X88654812Y-149374624D01*
G37*
G36*
X81974812Y-149374624D02*
X82138784Y-149442544D01*
X82286354Y-149541147D01*
X82411853Y-149666646D01*
X82510456Y-149814216D01*
X82578376Y-149978188D01*
X82613000Y-150152259D01*
X82613000Y-150329741D01*
X82578376Y-150503812D01*
X82510456Y-150667784D01*
X82411853Y-150815354D01*
X82286354Y-150940853D01*
X82138784Y-151039456D01*
X81974812Y-151107376D01*
X81800741Y-151142000D01*
X81623259Y-151142000D01*
X81449188Y-151107376D01*
X81285216Y-151039456D01*
X81137646Y-150940853D01*
X81012147Y-150815354D01*
X80913544Y-150667784D01*
X80845624Y-150503812D01*
X80811000Y-150329741D01*
X80811000Y-150152259D01*
X80845624Y-149978188D01*
X80913544Y-149814216D01*
X81012147Y-149666646D01*
X81137646Y-149541147D01*
X81285216Y-149442544D01*
X81449188Y-149374624D01*
X81623259Y-149340000D01*
X81800741Y-149340000D01*
X81974812Y-149374624D01*
X81974812Y-149374624D01*
G37*
G36*
X68592000Y-151091200D02*
X66790000Y-151091200D01*
X66790000Y-149289200D01*
X68592000Y-149289200D01*
X68592000Y-151091200D01*
X68592000Y-151091200D01*
G37*
G36*
X65261443Y-149295719D02*
X65327627Y-149302237D01*
X65440853Y-149336584D01*
X65497467Y-149353757D01*
X65636087Y-149427852D01*
X65653991Y-149437422D01*
X65689729Y-149466752D01*
X65791186Y-149550014D01*
X65874448Y-149651471D01*
X65903778Y-149687209D01*
X65903779Y-149687211D01*
X65987443Y-149843733D01*
X65987443Y-149843734D01*
X66038963Y-150013573D01*
X66056359Y-150190200D01*
X66038963Y-150366827D01*
X66004616Y-150480053D01*
X65987443Y-150536667D01*
X65917358Y-150667784D01*
X65903778Y-150693191D01*
X65874448Y-150728929D01*
X65791186Y-150830386D01*
X65689729Y-150913648D01*
X65653991Y-150942978D01*
X65653989Y-150942979D01*
X65497467Y-151026643D01*
X65455227Y-151039456D01*
X65327627Y-151078163D01*
X65261443Y-151084681D01*
X65195260Y-151091200D01*
X65106740Y-151091200D01*
X65040557Y-151084681D01*
X64974373Y-151078163D01*
X64846773Y-151039456D01*
X64804533Y-151026643D01*
X64648011Y-150942979D01*
X64648009Y-150942978D01*
X64612271Y-150913648D01*
X64510814Y-150830386D01*
X64427552Y-150728929D01*
X64398222Y-150693191D01*
X64384642Y-150667784D01*
X64314557Y-150536667D01*
X64297384Y-150480053D01*
X64263037Y-150366827D01*
X64245641Y-150190200D01*
X64263037Y-150013573D01*
X64314557Y-149843734D01*
X64314557Y-149843733D01*
X64398221Y-149687211D01*
X64398222Y-149687209D01*
X64427552Y-149651471D01*
X64510814Y-149550014D01*
X64612271Y-149466752D01*
X64648009Y-149437422D01*
X64665913Y-149427852D01*
X64804533Y-149353757D01*
X64861147Y-149336584D01*
X64974373Y-149302237D01*
X65040557Y-149295719D01*
X65106740Y-149289200D01*
X65195260Y-149289200D01*
X65261443Y-149295719D01*
X65261443Y-149295719D01*
G37*
G36*
X120289000Y-149260000D02*
X119487000Y-149260000D01*
X119487000Y-148558000D01*
X120289000Y-148558000D01*
X120289000Y-149260000D01*
X120289000Y-149260000D01*
G37*
G36*
X67801443Y-146755719D02*
X67867627Y-146762237D01*
X67980853Y-146796584D01*
X68037467Y-146813757D01*
X68176087Y-146887852D01*
X68193991Y-146897422D01*
X68229729Y-146926752D01*
X68331186Y-147010014D01*
X68414448Y-147111471D01*
X68443778Y-147147209D01*
X68443779Y-147147211D01*
X68527443Y-147303733D01*
X68527443Y-147303734D01*
X68578963Y-147473573D01*
X68596359Y-147650200D01*
X68578963Y-147826827D01*
X68568900Y-147860000D01*
X68527443Y-147996667D01*
X68453348Y-148135287D01*
X68443778Y-148153191D01*
X68414448Y-148188929D01*
X68331186Y-148290386D01*
X68229729Y-148373648D01*
X68193991Y-148402978D01*
X68193989Y-148402979D01*
X68037467Y-148486643D01*
X67980853Y-148503816D01*
X67867627Y-148538163D01*
X67801442Y-148544682D01*
X67735260Y-148551200D01*
X67646740Y-148551200D01*
X67580558Y-148544682D01*
X67514373Y-148538163D01*
X67401147Y-148503816D01*
X67344533Y-148486643D01*
X67188011Y-148402979D01*
X67188009Y-148402978D01*
X67152271Y-148373648D01*
X67050814Y-148290386D01*
X66967552Y-148188929D01*
X66938222Y-148153191D01*
X66928652Y-148135287D01*
X66854557Y-147996667D01*
X66813100Y-147860000D01*
X66803037Y-147826827D01*
X66785641Y-147650200D01*
X66803037Y-147473573D01*
X66854557Y-147303734D01*
X66854557Y-147303733D01*
X66938221Y-147147211D01*
X66938222Y-147147209D01*
X66967552Y-147111471D01*
X67050814Y-147010014D01*
X67152271Y-146926752D01*
X67188009Y-146897422D01*
X67205913Y-146887852D01*
X67344533Y-146813757D01*
X67401147Y-146796584D01*
X67514373Y-146762237D01*
X67580557Y-146755719D01*
X67646740Y-146749200D01*
X67735260Y-146749200D01*
X67801443Y-146755719D01*
X67801443Y-146755719D01*
G37*
G36*
X65261443Y-146755719D02*
X65327627Y-146762237D01*
X65440853Y-146796584D01*
X65497467Y-146813757D01*
X65636087Y-146887852D01*
X65653991Y-146897422D01*
X65689729Y-146926752D01*
X65791186Y-147010014D01*
X65874448Y-147111471D01*
X65903778Y-147147209D01*
X65903779Y-147147211D01*
X65987443Y-147303733D01*
X65987443Y-147303734D01*
X66038963Y-147473573D01*
X66056359Y-147650200D01*
X66038963Y-147826827D01*
X66028900Y-147860000D01*
X65987443Y-147996667D01*
X65913348Y-148135287D01*
X65903778Y-148153191D01*
X65874448Y-148188929D01*
X65791186Y-148290386D01*
X65689729Y-148373648D01*
X65653991Y-148402978D01*
X65653989Y-148402979D01*
X65497467Y-148486643D01*
X65440853Y-148503816D01*
X65327627Y-148538163D01*
X65261442Y-148544682D01*
X65195260Y-148551200D01*
X65106740Y-148551200D01*
X65040558Y-148544682D01*
X64974373Y-148538163D01*
X64861147Y-148503816D01*
X64804533Y-148486643D01*
X64648011Y-148402979D01*
X64648009Y-148402978D01*
X64612271Y-148373648D01*
X64510814Y-148290386D01*
X64427552Y-148188929D01*
X64398222Y-148153191D01*
X64388652Y-148135287D01*
X64314557Y-147996667D01*
X64273100Y-147860000D01*
X64263037Y-147826827D01*
X64245641Y-147650200D01*
X64263037Y-147473573D01*
X64314557Y-147303734D01*
X64314557Y-147303733D01*
X64398221Y-147147211D01*
X64398222Y-147147209D01*
X64427552Y-147111471D01*
X64510814Y-147010014D01*
X64612271Y-146926752D01*
X64648009Y-146897422D01*
X64665913Y-146887852D01*
X64804533Y-146813757D01*
X64861147Y-146796584D01*
X64974373Y-146762237D01*
X65040557Y-146755719D01*
X65106740Y-146749200D01*
X65195260Y-146749200D01*
X65261443Y-146755719D01*
X65261443Y-146755719D01*
G37*
G36*
X120289000Y-147860000D02*
X119487000Y-147860000D01*
X119487000Y-147158000D01*
X120289000Y-147158000D01*
X120289000Y-147860000D01*
X120289000Y-147860000D01*
G37*
G36*
X67801442Y-144215718D02*
X67867627Y-144222237D01*
X67980853Y-144256584D01*
X68037467Y-144273757D01*
X68176087Y-144347852D01*
X68193991Y-144357422D01*
X68229729Y-144386752D01*
X68331186Y-144470014D01*
X68414448Y-144571471D01*
X68443778Y-144607209D01*
X68443779Y-144607211D01*
X68527443Y-144763733D01*
X68527443Y-144763734D01*
X68578963Y-144933573D01*
X68596359Y-145110200D01*
X68578963Y-145286827D01*
X68544616Y-145400053D01*
X68527443Y-145456667D01*
X68453348Y-145595287D01*
X68443778Y-145613191D01*
X68414448Y-145648929D01*
X68331186Y-145750386D01*
X68229729Y-145833648D01*
X68193991Y-145862978D01*
X68193989Y-145862979D01*
X68037467Y-145946643D01*
X67980853Y-145963816D01*
X67867627Y-145998163D01*
X67801443Y-146004681D01*
X67735260Y-146011200D01*
X67646740Y-146011200D01*
X67580557Y-146004681D01*
X67514373Y-145998163D01*
X67401147Y-145963816D01*
X67344533Y-145946643D01*
X67188011Y-145862979D01*
X67188009Y-145862978D01*
X67152271Y-145833648D01*
X67050814Y-145750386D01*
X66967552Y-145648929D01*
X66938222Y-145613191D01*
X66928652Y-145595287D01*
X66854557Y-145456667D01*
X66837384Y-145400053D01*
X66803037Y-145286827D01*
X66785641Y-145110200D01*
X66803037Y-144933573D01*
X66854557Y-144763734D01*
X66854557Y-144763733D01*
X66938221Y-144607211D01*
X66938222Y-144607209D01*
X66967552Y-144571471D01*
X67050814Y-144470014D01*
X67152271Y-144386752D01*
X67188009Y-144357422D01*
X67205913Y-144347852D01*
X67344533Y-144273757D01*
X67401147Y-144256584D01*
X67514373Y-144222237D01*
X67580558Y-144215718D01*
X67646740Y-144209200D01*
X67735260Y-144209200D01*
X67801442Y-144215718D01*
X67801442Y-144215718D01*
G37*
G36*
X65261442Y-144215718D02*
X65327627Y-144222237D01*
X65440853Y-144256584D01*
X65497467Y-144273757D01*
X65636087Y-144347852D01*
X65653991Y-144357422D01*
X65689729Y-144386752D01*
X65791186Y-144470014D01*
X65874448Y-144571471D01*
X65903778Y-144607209D01*
X65903779Y-144607211D01*
X65987443Y-144763733D01*
X65987443Y-144763734D01*
X66038963Y-144933573D01*
X66056359Y-145110200D01*
X66038963Y-145286827D01*
X66004616Y-145400053D01*
X65987443Y-145456667D01*
X65913348Y-145595287D01*
X65903778Y-145613191D01*
X65874448Y-145648929D01*
X65791186Y-145750386D01*
X65689729Y-145833648D01*
X65653991Y-145862978D01*
X65653989Y-145862979D01*
X65497467Y-145946643D01*
X65440853Y-145963816D01*
X65327627Y-145998163D01*
X65261443Y-146004681D01*
X65195260Y-146011200D01*
X65106740Y-146011200D01*
X65040557Y-146004681D01*
X64974373Y-145998163D01*
X64861147Y-145963816D01*
X64804533Y-145946643D01*
X64648011Y-145862979D01*
X64648009Y-145862978D01*
X64612271Y-145833648D01*
X64510814Y-145750386D01*
X64427552Y-145648929D01*
X64398222Y-145613191D01*
X64388652Y-145595287D01*
X64314557Y-145456667D01*
X64297384Y-145400053D01*
X64263037Y-145286827D01*
X64245641Y-145110200D01*
X64263037Y-144933573D01*
X64314557Y-144763734D01*
X64314557Y-144763733D01*
X64398221Y-144607211D01*
X64398222Y-144607209D01*
X64427552Y-144571471D01*
X64510814Y-144470014D01*
X64612271Y-144386752D01*
X64648009Y-144357422D01*
X64665913Y-144347852D01*
X64804533Y-144273757D01*
X64861147Y-144256584D01*
X64974373Y-144222237D01*
X65040558Y-144215718D01*
X65106740Y-144209200D01*
X65195260Y-144209200D01*
X65261442Y-144215718D01*
X65261442Y-144215718D01*
G37*
G36*
X109157852Y-141118018D02*
X109157854Y-141118019D01*
X109157855Y-141118019D01*
X109531113Y-141272627D01*
X109822904Y-141467596D01*
X109867039Y-141497086D01*
X110152714Y-141782761D01*
X110152716Y-141782764D01*
X110377173Y-142118687D01*
X110491034Y-142393573D01*
X110531782Y-142491948D01*
X110610600Y-142888193D01*
X110610600Y-143292206D01*
X110531781Y-143688455D01*
X110377173Y-144061713D01*
X110377172Y-144061714D01*
X110152714Y-144397639D01*
X109867039Y-144683314D01*
X109867036Y-144683316D01*
X109531113Y-144907773D01*
X109157855Y-145062381D01*
X109157854Y-145062381D01*
X109157852Y-145062382D01*
X108761607Y-145141200D01*
X108357593Y-145141200D01*
X107961348Y-145062382D01*
X107961346Y-145062381D01*
X107961345Y-145062381D01*
X107588087Y-144907773D01*
X107252164Y-144683316D01*
X107252161Y-144683314D01*
X106966486Y-144397639D01*
X106742028Y-144061714D01*
X106742027Y-144061713D01*
X106587419Y-143688455D01*
X106508600Y-143292206D01*
X106508600Y-142888193D01*
X106587418Y-142491948D01*
X106628166Y-142393573D01*
X106742027Y-142118687D01*
X106966484Y-141782764D01*
X106966486Y-141782761D01*
X107252161Y-141497086D01*
X107296296Y-141467596D01*
X107588087Y-141272627D01*
X107961345Y-141118019D01*
X107961346Y-141118019D01*
X107961348Y-141118018D01*
X108357593Y-141039200D01*
X108761607Y-141039200D01*
X109157852Y-141118018D01*
X109157852Y-141118018D01*
G37*
G36*
X85407852Y-141118018D02*
X85407854Y-141118019D01*
X85407855Y-141118019D01*
X85781113Y-141272627D01*
X86072904Y-141467596D01*
X86117039Y-141497086D01*
X86402714Y-141782761D01*
X86402716Y-141782764D01*
X86627173Y-142118687D01*
X86741034Y-142393573D01*
X86781782Y-142491948D01*
X86860600Y-142888193D01*
X86860600Y-143292206D01*
X86781781Y-143688455D01*
X86627173Y-144061713D01*
X86627172Y-144061714D01*
X86402714Y-144397639D01*
X86117039Y-144683314D01*
X86117036Y-144683316D01*
X85781113Y-144907773D01*
X85407855Y-145062381D01*
X85407854Y-145062381D01*
X85407852Y-145062382D01*
X85011607Y-145141200D01*
X84607593Y-145141200D01*
X84211348Y-145062382D01*
X84211346Y-145062381D01*
X84211345Y-145062381D01*
X83838087Y-144907773D01*
X83502164Y-144683316D01*
X83502161Y-144683314D01*
X83216486Y-144397639D01*
X82992028Y-144061714D01*
X82992027Y-144061713D01*
X82837419Y-143688455D01*
X82758600Y-143292206D01*
X82758600Y-142888193D01*
X82837418Y-142491948D01*
X82878166Y-142393573D01*
X82992027Y-142118687D01*
X83216484Y-141782764D01*
X83216486Y-141782761D01*
X83502161Y-141497086D01*
X83546296Y-141467596D01*
X83838087Y-141272627D01*
X84211345Y-141118019D01*
X84211346Y-141118019D01*
X84211348Y-141118018D01*
X84607593Y-141039200D01*
X85011607Y-141039200D01*
X85407852Y-141118018D01*
X85407852Y-141118018D01*
G37*
G36*
X65261442Y-141675718D02*
X65327627Y-141682237D01*
X65431795Y-141713836D01*
X65497467Y-141733757D01*
X65636087Y-141807852D01*
X65653991Y-141817422D01*
X65689729Y-141846752D01*
X65791186Y-141930014D01*
X65874448Y-142031471D01*
X65903778Y-142067209D01*
X65903779Y-142067211D01*
X65987443Y-142223733D01*
X65987443Y-142223734D01*
X66038963Y-142393573D01*
X66056359Y-142570200D01*
X66038963Y-142746827D01*
X66020790Y-142806734D01*
X65987443Y-142916667D01*
X65913348Y-143055287D01*
X65903778Y-143073191D01*
X65874448Y-143108929D01*
X65791186Y-143210386D01*
X65691487Y-143292206D01*
X65653991Y-143322978D01*
X65653989Y-143322979D01*
X65497467Y-143406643D01*
X65440853Y-143423816D01*
X65327627Y-143458163D01*
X65261443Y-143464681D01*
X65195260Y-143471200D01*
X65106740Y-143471200D01*
X65040557Y-143464681D01*
X64974373Y-143458163D01*
X64861147Y-143423816D01*
X64804533Y-143406643D01*
X64648011Y-143322979D01*
X64648009Y-143322978D01*
X64610513Y-143292206D01*
X64510814Y-143210386D01*
X64427552Y-143108929D01*
X64398222Y-143073191D01*
X64388652Y-143055287D01*
X64314557Y-142916667D01*
X64281210Y-142806734D01*
X64263037Y-142746827D01*
X64245641Y-142570200D01*
X64263037Y-142393573D01*
X64314557Y-142223734D01*
X64314557Y-142223733D01*
X64398221Y-142067211D01*
X64398222Y-142067209D01*
X64427552Y-142031471D01*
X64510814Y-141930014D01*
X64612271Y-141846752D01*
X64648009Y-141817422D01*
X64665913Y-141807852D01*
X64804533Y-141733757D01*
X64870205Y-141713836D01*
X64974373Y-141682237D01*
X65040558Y-141675718D01*
X65106740Y-141669200D01*
X65195260Y-141669200D01*
X65261442Y-141675718D01*
X65261442Y-141675718D01*
G37*
G36*
X67801442Y-141675718D02*
X67867627Y-141682237D01*
X67971795Y-141713836D01*
X68037467Y-141733757D01*
X68176087Y-141807852D01*
X68193991Y-141817422D01*
X68229729Y-141846752D01*
X68331186Y-141930014D01*
X68414448Y-142031471D01*
X68443778Y-142067209D01*
X68443779Y-142067211D01*
X68527443Y-142223733D01*
X68527443Y-142223734D01*
X68578963Y-142393573D01*
X68596359Y-142570200D01*
X68578963Y-142746827D01*
X68560790Y-142806734D01*
X68527443Y-142916667D01*
X68453348Y-143055287D01*
X68443778Y-143073191D01*
X68414448Y-143108929D01*
X68331186Y-143210386D01*
X68231487Y-143292206D01*
X68193991Y-143322978D01*
X68193989Y-143322979D01*
X68037467Y-143406643D01*
X67980853Y-143423816D01*
X67867627Y-143458163D01*
X67801443Y-143464681D01*
X67735260Y-143471200D01*
X67646740Y-143471200D01*
X67580557Y-143464681D01*
X67514373Y-143458163D01*
X67401147Y-143423816D01*
X67344533Y-143406643D01*
X67188011Y-143322979D01*
X67188009Y-143322978D01*
X67150513Y-143292206D01*
X67050814Y-143210386D01*
X66967552Y-143108929D01*
X66938222Y-143073191D01*
X66928652Y-143055287D01*
X66854557Y-142916667D01*
X66821210Y-142806734D01*
X66803037Y-142746827D01*
X66785641Y-142570200D01*
X66803037Y-142393573D01*
X66854557Y-142223734D01*
X66854557Y-142223733D01*
X66938221Y-142067211D01*
X66938222Y-142067209D01*
X66967552Y-142031471D01*
X67050814Y-141930014D01*
X67152271Y-141846752D01*
X67188009Y-141817422D01*
X67205913Y-141807852D01*
X67344533Y-141733757D01*
X67410205Y-141713836D01*
X67514373Y-141682237D01*
X67580558Y-141675718D01*
X67646740Y-141669200D01*
X67735260Y-141669200D01*
X67801442Y-141675718D01*
X67801442Y-141675718D01*
G37*
G36*
X74248677Y-141593665D02*
X74286364Y-141605098D01*
X74321103Y-141623666D01*
X74351548Y-141648652D01*
X74376534Y-141679097D01*
X74395102Y-141713836D01*
X74406535Y-141751523D01*
X74411000Y-141796861D01*
X74411000Y-142633539D01*
X74406535Y-142678877D01*
X74395102Y-142716564D01*
X74376534Y-142751303D01*
X74351548Y-142781748D01*
X74321103Y-142806734D01*
X74286364Y-142825302D01*
X74248677Y-142836735D01*
X74203339Y-142841200D01*
X73116661Y-142841200D01*
X73071323Y-142836735D01*
X73033636Y-142825302D01*
X72998897Y-142806734D01*
X72968452Y-142781748D01*
X72943466Y-142751303D01*
X72924898Y-142716564D01*
X72913465Y-142678877D01*
X72909000Y-142633539D01*
X72909000Y-141796861D01*
X72913465Y-141751523D01*
X72924898Y-141713836D01*
X72943466Y-141679097D01*
X72968452Y-141648652D01*
X72998897Y-141623666D01*
X73033636Y-141605098D01*
X73071323Y-141593665D01*
X73116661Y-141589200D01*
X74203339Y-141589200D01*
X74248677Y-141593665D01*
X74248677Y-141593665D01*
G37*
G36*
X101836996Y-140275746D02*
X102010066Y-140347434D01*
X102165830Y-140451512D01*
X102298288Y-140583970D01*
X102402366Y-140739734D01*
X102474054Y-140912804D01*
X102510600Y-141096533D01*
X102510600Y-141283867D01*
X102474054Y-141467596D01*
X102402366Y-141640666D01*
X102298288Y-141796430D01*
X102165830Y-141928888D01*
X102010066Y-142032966D01*
X101836996Y-142104654D01*
X101653267Y-142141200D01*
X101465933Y-142141200D01*
X101282204Y-142104654D01*
X101109134Y-142032966D01*
X100953370Y-141928888D01*
X100820912Y-141796430D01*
X100716834Y-141640666D01*
X100645146Y-141467596D01*
X100608600Y-141283867D01*
X100608600Y-141096533D01*
X100645146Y-140912804D01*
X100716834Y-140739734D01*
X100820912Y-140583970D01*
X100953370Y-140451512D01*
X101109134Y-140347434D01*
X101282204Y-140275746D01*
X101465933Y-140239200D01*
X101653267Y-140239200D01*
X101836996Y-140275746D01*
X101836996Y-140275746D01*
G37*
G36*
X92086996Y-140275746D02*
X92260066Y-140347434D01*
X92415830Y-140451512D01*
X92548288Y-140583970D01*
X92652366Y-140739734D01*
X92724054Y-140912804D01*
X92760600Y-141096533D01*
X92760600Y-141283867D01*
X92724054Y-141467596D01*
X92652366Y-141640666D01*
X92548288Y-141796430D01*
X92415830Y-141928888D01*
X92260066Y-142032966D01*
X92086996Y-142104654D01*
X91903267Y-142141200D01*
X91715933Y-142141200D01*
X91532204Y-142104654D01*
X91359134Y-142032966D01*
X91203370Y-141928888D01*
X91070912Y-141796430D01*
X90966834Y-141640666D01*
X90895146Y-141467596D01*
X90858600Y-141283867D01*
X90858600Y-141096533D01*
X90895146Y-140912804D01*
X90966834Y-140739734D01*
X91070912Y-140583970D01*
X91203370Y-140451512D01*
X91359134Y-140347434D01*
X91532204Y-140275746D01*
X91715933Y-140239200D01*
X91903267Y-140239200D01*
X92086996Y-140275746D01*
X92086996Y-140275746D01*
G37*
G36*
X67801442Y-139135718D02*
X67867627Y-139142237D01*
X67980853Y-139176584D01*
X68037467Y-139193757D01*
X68176087Y-139267852D01*
X68193991Y-139277422D01*
X68217148Y-139296427D01*
X68331186Y-139390014D01*
X68414448Y-139491471D01*
X68443778Y-139527209D01*
X68443779Y-139527211D01*
X68527443Y-139683733D01*
X68544616Y-139740347D01*
X68578963Y-139853573D01*
X68596359Y-140030200D01*
X68578963Y-140206827D01*
X68558056Y-140275747D01*
X68527443Y-140376667D01*
X68487438Y-140451510D01*
X68443778Y-140533191D01*
X68414448Y-140568929D01*
X68331186Y-140670386D01*
X68246685Y-140739733D01*
X68193991Y-140782978D01*
X68193989Y-140782979D01*
X68037467Y-140866643D01*
X67980853Y-140883816D01*
X67867627Y-140918163D01*
X67801442Y-140924682D01*
X67735260Y-140931200D01*
X67646740Y-140931200D01*
X67580558Y-140924682D01*
X67514373Y-140918163D01*
X67401147Y-140883816D01*
X67344533Y-140866643D01*
X67188011Y-140782979D01*
X67188009Y-140782978D01*
X67135315Y-140739733D01*
X67050814Y-140670386D01*
X66967552Y-140568929D01*
X66938222Y-140533191D01*
X66894562Y-140451510D01*
X66854557Y-140376667D01*
X66823944Y-140275747D01*
X66803037Y-140206827D01*
X66785641Y-140030200D01*
X66803037Y-139853573D01*
X66837384Y-139740347D01*
X66854557Y-139683733D01*
X66938221Y-139527211D01*
X66938222Y-139527209D01*
X66967552Y-139491471D01*
X67050814Y-139390014D01*
X67164852Y-139296427D01*
X67188009Y-139277422D01*
X67205913Y-139267852D01*
X67344533Y-139193757D01*
X67401147Y-139176584D01*
X67514373Y-139142237D01*
X67580558Y-139135718D01*
X67646740Y-139129200D01*
X67735260Y-139129200D01*
X67801442Y-139135718D01*
X67801442Y-139135718D01*
G37*
G36*
X65261442Y-139135718D02*
X65327627Y-139142237D01*
X65440853Y-139176584D01*
X65497467Y-139193757D01*
X65636087Y-139267852D01*
X65653991Y-139277422D01*
X65677148Y-139296427D01*
X65791186Y-139390014D01*
X65874448Y-139491471D01*
X65903778Y-139527209D01*
X65903779Y-139527211D01*
X65987443Y-139683733D01*
X66004616Y-139740347D01*
X66038963Y-139853573D01*
X66056359Y-140030200D01*
X66038963Y-140206827D01*
X66018056Y-140275747D01*
X65987443Y-140376667D01*
X65947438Y-140451510D01*
X65903778Y-140533191D01*
X65874448Y-140568929D01*
X65791186Y-140670386D01*
X65706685Y-140739733D01*
X65653991Y-140782978D01*
X65653989Y-140782979D01*
X65497467Y-140866643D01*
X65440853Y-140883816D01*
X65327627Y-140918163D01*
X65261442Y-140924682D01*
X65195260Y-140931200D01*
X65106740Y-140931200D01*
X65040558Y-140924682D01*
X64974373Y-140918163D01*
X64861147Y-140883816D01*
X64804533Y-140866643D01*
X64648011Y-140782979D01*
X64648009Y-140782978D01*
X64595315Y-140739733D01*
X64510814Y-140670386D01*
X64427552Y-140568929D01*
X64398222Y-140533191D01*
X64354562Y-140451510D01*
X64314557Y-140376667D01*
X64283944Y-140275747D01*
X64263037Y-140206827D01*
X64245641Y-140030200D01*
X64263037Y-139853573D01*
X64297384Y-139740347D01*
X64314557Y-139683733D01*
X64398221Y-139527211D01*
X64398222Y-139527209D01*
X64427552Y-139491471D01*
X64510814Y-139390014D01*
X64624852Y-139296427D01*
X64648009Y-139277422D01*
X64665913Y-139267852D01*
X64804533Y-139193757D01*
X64861147Y-139176584D01*
X64974373Y-139142237D01*
X65040558Y-139135718D01*
X65106740Y-139129200D01*
X65195260Y-139129200D01*
X65261442Y-139135718D01*
X65261442Y-139135718D01*
G37*
G36*
X74248677Y-139543665D02*
X74286364Y-139555098D01*
X74321103Y-139573666D01*
X74351548Y-139598652D01*
X74376534Y-139629097D01*
X74395102Y-139663836D01*
X74406535Y-139701523D01*
X74411000Y-139746861D01*
X74411000Y-140583539D01*
X74406535Y-140628877D01*
X74395102Y-140666564D01*
X74376534Y-140701303D01*
X74351548Y-140731748D01*
X74321103Y-140756734D01*
X74286364Y-140775302D01*
X74248677Y-140786735D01*
X74203339Y-140791200D01*
X73116661Y-140791200D01*
X73071323Y-140786735D01*
X73033636Y-140775302D01*
X72998897Y-140756734D01*
X72968452Y-140731748D01*
X72943466Y-140701303D01*
X72924898Y-140666564D01*
X72913465Y-140628877D01*
X72909000Y-140583539D01*
X72909000Y-139746861D01*
X72913465Y-139701523D01*
X72924898Y-139663836D01*
X72943466Y-139629097D01*
X72968452Y-139598652D01*
X72998897Y-139573666D01*
X73033636Y-139555098D01*
X73071323Y-139543665D01*
X73116661Y-139539200D01*
X74203339Y-139539200D01*
X74248677Y-139543665D01*
X74248677Y-139543665D01*
G37*
G36*
X101836996Y-137775746D02*
X102010066Y-137847434D01*
X102165830Y-137951512D01*
X102298288Y-138083970D01*
X102402366Y-138239734D01*
X102474054Y-138412804D01*
X102510600Y-138596533D01*
X102510600Y-138783867D01*
X102474054Y-138967596D01*
X102402366Y-139140666D01*
X102298288Y-139296430D01*
X102165830Y-139428888D01*
X102010066Y-139532966D01*
X101836996Y-139604654D01*
X101653267Y-139641200D01*
X101465933Y-139641200D01*
X101282204Y-139604654D01*
X101109134Y-139532966D01*
X100953370Y-139428888D01*
X100820912Y-139296430D01*
X100716834Y-139140666D01*
X100645146Y-138967596D01*
X100608600Y-138783867D01*
X100608600Y-138596533D01*
X100645146Y-138412804D01*
X100716834Y-138239734D01*
X100820912Y-138083970D01*
X100953370Y-137951512D01*
X101109134Y-137847434D01*
X101282204Y-137775746D01*
X101465933Y-137739200D01*
X101653267Y-137739200D01*
X101836996Y-137775746D01*
X101836996Y-137775746D01*
G37*
G36*
X92086996Y-137775746D02*
X92260066Y-137847434D01*
X92415830Y-137951512D01*
X92548288Y-138083970D01*
X92652366Y-138239734D01*
X92724054Y-138412804D01*
X92760600Y-138596533D01*
X92760600Y-138783867D01*
X92724054Y-138967596D01*
X92652366Y-139140666D01*
X92548288Y-139296430D01*
X92415830Y-139428888D01*
X92260066Y-139532966D01*
X92086996Y-139604654D01*
X91903267Y-139641200D01*
X91715933Y-139641200D01*
X91532204Y-139604654D01*
X91359134Y-139532966D01*
X91203370Y-139428888D01*
X91070912Y-139296430D01*
X90966834Y-139140666D01*
X90895146Y-138967596D01*
X90858600Y-138783867D01*
X90858600Y-138596533D01*
X90895146Y-138412804D01*
X90966834Y-138239734D01*
X91070912Y-138083970D01*
X91203370Y-137951512D01*
X91359134Y-137847434D01*
X91532204Y-137775746D01*
X91715933Y-137739200D01*
X91903267Y-137739200D01*
X92086996Y-137775746D01*
X92086996Y-137775746D01*
G37*
G36*
X67801443Y-136595719D02*
X67867627Y-136602237D01*
X67980853Y-136636584D01*
X68037467Y-136653757D01*
X68176087Y-136727852D01*
X68193991Y-136737422D01*
X68229729Y-136766752D01*
X68331186Y-136850014D01*
X68414448Y-136951471D01*
X68443778Y-136987209D01*
X68443779Y-136987211D01*
X68527443Y-137143733D01*
X68527443Y-137143734D01*
X68578963Y-137313573D01*
X68596359Y-137490200D01*
X68578963Y-137666827D01*
X68557009Y-137739200D01*
X68527443Y-137836667D01*
X68521687Y-137847435D01*
X68443778Y-137993191D01*
X68414448Y-138028929D01*
X68331186Y-138130386D01*
X68229729Y-138213648D01*
X68193991Y-138242978D01*
X68193989Y-138242979D01*
X68037467Y-138326643D01*
X67980853Y-138343816D01*
X67867627Y-138378163D01*
X67801442Y-138384682D01*
X67735260Y-138391200D01*
X67646740Y-138391200D01*
X67580558Y-138384682D01*
X67514373Y-138378163D01*
X67401147Y-138343816D01*
X67344533Y-138326643D01*
X67188011Y-138242979D01*
X67188009Y-138242978D01*
X67152271Y-138213648D01*
X67050814Y-138130386D01*
X66967552Y-138028929D01*
X66938222Y-137993191D01*
X66860313Y-137847435D01*
X66854557Y-137836667D01*
X66824991Y-137739200D01*
X66803037Y-137666827D01*
X66785641Y-137490200D01*
X66803037Y-137313573D01*
X66854557Y-137143734D01*
X66854557Y-137143733D01*
X66938221Y-136987211D01*
X66938222Y-136987209D01*
X66967552Y-136951471D01*
X67050814Y-136850014D01*
X67152271Y-136766752D01*
X67188009Y-136737422D01*
X67205913Y-136727852D01*
X67344533Y-136653757D01*
X67401147Y-136636584D01*
X67514373Y-136602237D01*
X67580557Y-136595719D01*
X67646740Y-136589200D01*
X67735260Y-136589200D01*
X67801443Y-136595719D01*
X67801443Y-136595719D01*
G37*
G36*
X65261443Y-136595719D02*
X65327627Y-136602237D01*
X65440853Y-136636584D01*
X65497467Y-136653757D01*
X65636087Y-136727852D01*
X65653991Y-136737422D01*
X65689729Y-136766752D01*
X65791186Y-136850014D01*
X65874448Y-136951471D01*
X65903778Y-136987209D01*
X65903779Y-136987211D01*
X65987443Y-137143733D01*
X65987443Y-137143734D01*
X66038963Y-137313573D01*
X66056359Y-137490200D01*
X66038963Y-137666827D01*
X66017009Y-137739200D01*
X65987443Y-137836667D01*
X65981687Y-137847435D01*
X65903778Y-137993191D01*
X65874448Y-138028929D01*
X65791186Y-138130386D01*
X65689729Y-138213648D01*
X65653991Y-138242978D01*
X65653989Y-138242979D01*
X65497467Y-138326643D01*
X65440853Y-138343816D01*
X65327627Y-138378163D01*
X65261442Y-138384682D01*
X65195260Y-138391200D01*
X65106740Y-138391200D01*
X65040558Y-138384682D01*
X64974373Y-138378163D01*
X64861147Y-138343816D01*
X64804533Y-138326643D01*
X64648011Y-138242979D01*
X64648009Y-138242978D01*
X64612271Y-138213648D01*
X64510814Y-138130386D01*
X64427552Y-138028929D01*
X64398222Y-137993191D01*
X64320313Y-137847435D01*
X64314557Y-137836667D01*
X64284991Y-137739200D01*
X64263037Y-137666827D01*
X64245641Y-137490200D01*
X64263037Y-137313573D01*
X64314557Y-137143734D01*
X64314557Y-137143733D01*
X64398221Y-136987211D01*
X64398222Y-136987209D01*
X64427552Y-136951471D01*
X64510814Y-136850014D01*
X64612271Y-136766752D01*
X64648009Y-136737422D01*
X64665913Y-136727852D01*
X64804533Y-136653757D01*
X64861147Y-136636584D01*
X64974373Y-136602237D01*
X65040557Y-136595719D01*
X65106740Y-136589200D01*
X65195260Y-136589200D01*
X65261443Y-136595719D01*
X65261443Y-136595719D01*
G37*
G36*
X101836996Y-135275746D02*
X102010066Y-135347434D01*
X102165830Y-135451512D01*
X102298288Y-135583970D01*
X102402366Y-135739734D01*
X102474054Y-135912804D01*
X102510600Y-136096533D01*
X102510600Y-136283867D01*
X102474054Y-136467596D01*
X102402366Y-136640666D01*
X102298288Y-136796430D01*
X102165830Y-136928888D01*
X102010066Y-137032966D01*
X101836996Y-137104654D01*
X101653267Y-137141200D01*
X101465933Y-137141200D01*
X101282204Y-137104654D01*
X101109134Y-137032966D01*
X100953370Y-136928888D01*
X100820912Y-136796430D01*
X100716834Y-136640666D01*
X100645146Y-136467596D01*
X100608600Y-136283867D01*
X100608600Y-136096533D01*
X100645146Y-135912804D01*
X100716834Y-135739734D01*
X100820912Y-135583970D01*
X100953370Y-135451512D01*
X101109134Y-135347434D01*
X101282204Y-135275746D01*
X101465933Y-135239200D01*
X101653267Y-135239200D01*
X101836996Y-135275746D01*
X101836996Y-135275746D01*
G37*
G36*
X92086996Y-135275746D02*
X92260066Y-135347434D01*
X92415830Y-135451512D01*
X92548288Y-135583970D01*
X92652366Y-135739734D01*
X92724054Y-135912804D01*
X92760600Y-136096533D01*
X92760600Y-136283867D01*
X92724054Y-136467596D01*
X92652366Y-136640666D01*
X92548288Y-136796430D01*
X92415830Y-136928888D01*
X92260066Y-137032966D01*
X92086996Y-137104654D01*
X91903267Y-137141200D01*
X91715933Y-137141200D01*
X91532204Y-137104654D01*
X91359134Y-137032966D01*
X91203370Y-136928888D01*
X91070912Y-136796430D01*
X90966834Y-136640666D01*
X90895146Y-136467596D01*
X90858600Y-136283867D01*
X90858600Y-136096533D01*
X90895146Y-135912804D01*
X90966834Y-135739734D01*
X91070912Y-135583970D01*
X91203370Y-135451512D01*
X91359134Y-135347434D01*
X91532204Y-135275746D01*
X91715933Y-135239200D01*
X91903267Y-135239200D01*
X92086996Y-135275746D01*
X92086996Y-135275746D01*
G37*
G36*
X109157852Y-132318018D02*
X109157854Y-132318019D01*
X109157855Y-132318019D01*
X109531113Y-132472627D01*
X109531114Y-132472628D01*
X109867039Y-132697086D01*
X110152714Y-132982761D01*
X110152716Y-132982764D01*
X110377173Y-133318687D01*
X110531781Y-133691945D01*
X110610600Y-134088194D01*
X110610600Y-134492206D01*
X110531781Y-134888455D01*
X110377173Y-135261713D01*
X110249231Y-135453191D01*
X110152714Y-135597639D01*
X109867039Y-135883314D01*
X109867036Y-135883316D01*
X109531113Y-136107773D01*
X109157855Y-136262381D01*
X109157854Y-136262381D01*
X109157852Y-136262382D01*
X108761607Y-136341200D01*
X108357593Y-136341200D01*
X107961348Y-136262382D01*
X107961346Y-136262381D01*
X107961345Y-136262381D01*
X107588087Y-136107773D01*
X107252164Y-135883316D01*
X107252161Y-135883314D01*
X106966486Y-135597639D01*
X106869969Y-135453191D01*
X106742027Y-135261713D01*
X106587419Y-134888455D01*
X106508600Y-134492206D01*
X106508600Y-134088194D01*
X106587419Y-133691945D01*
X106742027Y-133318687D01*
X106966484Y-132982764D01*
X106966486Y-132982761D01*
X107252161Y-132697086D01*
X107588086Y-132472628D01*
X107588087Y-132472627D01*
X107961345Y-132318019D01*
X107961346Y-132318019D01*
X107961348Y-132318018D01*
X108357593Y-132239200D01*
X108761607Y-132239200D01*
X109157852Y-132318018D01*
X109157852Y-132318018D01*
G37*
G36*
X85407852Y-132318018D02*
X85407854Y-132318019D01*
X85407855Y-132318019D01*
X85781113Y-132472627D01*
X85781114Y-132472628D01*
X86117039Y-132697086D01*
X86402714Y-132982761D01*
X86402716Y-132982764D01*
X86627173Y-133318687D01*
X86781781Y-133691945D01*
X86860600Y-134088194D01*
X86860600Y-134492206D01*
X86781781Y-134888455D01*
X86627173Y-135261713D01*
X86499231Y-135453191D01*
X86402714Y-135597639D01*
X86117039Y-135883314D01*
X86117036Y-135883316D01*
X85781113Y-136107773D01*
X85407855Y-136262381D01*
X85407854Y-136262381D01*
X85407852Y-136262382D01*
X85011607Y-136341200D01*
X84607593Y-136341200D01*
X84211348Y-136262382D01*
X84211346Y-136262381D01*
X84211345Y-136262381D01*
X83838087Y-136107773D01*
X83502164Y-135883316D01*
X83502161Y-135883314D01*
X83216486Y-135597639D01*
X83119969Y-135453191D01*
X82992027Y-135261713D01*
X82837419Y-134888455D01*
X82758600Y-134492206D01*
X82758600Y-134088194D01*
X82837419Y-133691945D01*
X82992027Y-133318687D01*
X83216484Y-132982764D01*
X83216486Y-132982761D01*
X83502161Y-132697086D01*
X83838086Y-132472628D01*
X83838087Y-132472627D01*
X84211345Y-132318019D01*
X84211346Y-132318019D01*
X84211348Y-132318018D01*
X84607593Y-132239200D01*
X85011607Y-132239200D01*
X85407852Y-132318018D01*
X85407852Y-132318018D01*
G37*
G36*
X67801442Y-134055718D02*
X67867627Y-134062237D01*
X67980853Y-134096584D01*
X68037467Y-134113757D01*
X68176087Y-134187852D01*
X68193991Y-134197422D01*
X68229729Y-134226752D01*
X68331186Y-134310014D01*
X68414448Y-134411471D01*
X68443778Y-134447209D01*
X68443779Y-134447211D01*
X68527443Y-134603733D01*
X68527443Y-134603734D01*
X68578963Y-134773573D01*
X68596359Y-134950200D01*
X68578963Y-135126827D01*
X68544875Y-135239200D01*
X68527443Y-135296667D01*
X68453348Y-135435287D01*
X68443778Y-135453191D01*
X68414448Y-135488929D01*
X68331186Y-135590386D01*
X68229729Y-135673648D01*
X68193991Y-135702978D01*
X68193989Y-135702979D01*
X68037467Y-135786643D01*
X67980853Y-135803816D01*
X67867627Y-135838163D01*
X67801442Y-135844682D01*
X67735260Y-135851200D01*
X67646740Y-135851200D01*
X67580558Y-135844682D01*
X67514373Y-135838163D01*
X67401147Y-135803816D01*
X67344533Y-135786643D01*
X67188011Y-135702979D01*
X67188009Y-135702978D01*
X67152271Y-135673648D01*
X67050814Y-135590386D01*
X66967552Y-135488929D01*
X66938222Y-135453191D01*
X66928652Y-135435287D01*
X66854557Y-135296667D01*
X66837125Y-135239200D01*
X66803037Y-135126827D01*
X66785641Y-134950200D01*
X66803037Y-134773573D01*
X66854557Y-134603734D01*
X66854557Y-134603733D01*
X66938221Y-134447211D01*
X66938222Y-134447209D01*
X66967552Y-134411471D01*
X67050814Y-134310014D01*
X67152271Y-134226752D01*
X67188009Y-134197422D01*
X67205913Y-134187852D01*
X67344533Y-134113757D01*
X67401147Y-134096584D01*
X67514373Y-134062237D01*
X67580558Y-134055718D01*
X67646740Y-134049200D01*
X67735260Y-134049200D01*
X67801442Y-134055718D01*
X67801442Y-134055718D01*
G37*
G36*
X65261442Y-134055718D02*
X65327627Y-134062237D01*
X65440853Y-134096584D01*
X65497467Y-134113757D01*
X65636087Y-134187852D01*
X65653991Y-134197422D01*
X65689729Y-134226752D01*
X65791186Y-134310014D01*
X65874448Y-134411471D01*
X65903778Y-134447209D01*
X65903779Y-134447211D01*
X65987443Y-134603733D01*
X65987443Y-134603734D01*
X66038963Y-134773573D01*
X66056359Y-134950200D01*
X66038963Y-135126827D01*
X66004875Y-135239200D01*
X65987443Y-135296667D01*
X65913348Y-135435287D01*
X65903778Y-135453191D01*
X65874448Y-135488929D01*
X65791186Y-135590386D01*
X65689729Y-135673648D01*
X65653991Y-135702978D01*
X65653989Y-135702979D01*
X65497467Y-135786643D01*
X65440853Y-135803816D01*
X65327627Y-135838163D01*
X65261442Y-135844682D01*
X65195260Y-135851200D01*
X65106740Y-135851200D01*
X65040558Y-135844682D01*
X64974373Y-135838163D01*
X64861147Y-135803816D01*
X64804533Y-135786643D01*
X64648011Y-135702979D01*
X64648009Y-135702978D01*
X64612271Y-135673648D01*
X64510814Y-135590386D01*
X64427552Y-135488929D01*
X64398222Y-135453191D01*
X64388652Y-135435287D01*
X64314557Y-135296667D01*
X64297125Y-135239200D01*
X64263037Y-135126827D01*
X64245641Y-134950200D01*
X64263037Y-134773573D01*
X64314557Y-134603734D01*
X64314557Y-134603733D01*
X64398221Y-134447211D01*
X64398222Y-134447209D01*
X64427552Y-134411471D01*
X64510814Y-134310014D01*
X64612271Y-134226752D01*
X64648009Y-134197422D01*
X64665913Y-134187852D01*
X64804533Y-134113757D01*
X64861147Y-134096584D01*
X64974373Y-134062237D01*
X65040558Y-134055718D01*
X65106740Y-134049200D01*
X65195260Y-134049200D01*
X65261442Y-134055718D01*
X65261442Y-134055718D01*
G37*
G36*
X65261442Y-131515718D02*
X65327627Y-131522237D01*
X65440853Y-131556584D01*
X65497467Y-131573757D01*
X65636087Y-131647852D01*
X65653991Y-131657422D01*
X65689729Y-131686752D01*
X65791186Y-131770014D01*
X65874448Y-131871471D01*
X65903778Y-131907209D01*
X65903779Y-131907211D01*
X65987443Y-132063733D01*
X65987443Y-132063734D01*
X66038963Y-132233573D01*
X66056359Y-132410200D01*
X66038963Y-132586827D01*
X66005517Y-132697084D01*
X65987443Y-132756667D01*
X65913348Y-132895287D01*
X65903778Y-132913191D01*
X65874448Y-132948929D01*
X65791186Y-133050386D01*
X65689729Y-133133648D01*
X65653991Y-133162978D01*
X65653989Y-133162979D01*
X65497467Y-133246643D01*
X65440853Y-133263816D01*
X65327627Y-133298163D01*
X65261442Y-133304682D01*
X65195260Y-133311200D01*
X65106740Y-133311200D01*
X65040558Y-133304682D01*
X64974373Y-133298163D01*
X64861147Y-133263816D01*
X64804533Y-133246643D01*
X64648011Y-133162979D01*
X64648009Y-133162978D01*
X64612271Y-133133648D01*
X64510814Y-133050386D01*
X64427552Y-132948929D01*
X64398222Y-132913191D01*
X64388652Y-132895287D01*
X64314557Y-132756667D01*
X64296483Y-132697084D01*
X64263037Y-132586827D01*
X64245641Y-132410200D01*
X64263037Y-132233573D01*
X64314557Y-132063734D01*
X64314557Y-132063733D01*
X64398221Y-131907211D01*
X64398222Y-131907209D01*
X64427552Y-131871471D01*
X64510814Y-131770014D01*
X64612271Y-131686752D01*
X64648009Y-131657422D01*
X64665913Y-131647852D01*
X64804533Y-131573757D01*
X64861147Y-131556584D01*
X64974373Y-131522237D01*
X65040558Y-131515718D01*
X65106740Y-131509200D01*
X65195260Y-131509200D01*
X65261442Y-131515718D01*
X65261442Y-131515718D01*
G37*
G36*
X67801442Y-131515718D02*
X67867627Y-131522237D01*
X67980853Y-131556584D01*
X68037467Y-131573757D01*
X68176087Y-131647852D01*
X68193991Y-131657422D01*
X68229729Y-131686752D01*
X68331186Y-131770014D01*
X68414448Y-131871471D01*
X68443778Y-131907209D01*
X68443779Y-131907211D01*
X68527443Y-132063733D01*
X68527443Y-132063734D01*
X68578963Y-132233573D01*
X68596359Y-132410200D01*
X68578963Y-132586827D01*
X68545517Y-132697084D01*
X68527443Y-132756667D01*
X68453348Y-132895287D01*
X68443778Y-132913191D01*
X68414448Y-132948929D01*
X68331186Y-133050386D01*
X68229729Y-133133648D01*
X68193991Y-133162978D01*
X68193989Y-133162979D01*
X68037467Y-133246643D01*
X67980853Y-133263816D01*
X67867627Y-133298163D01*
X67801442Y-133304682D01*
X67735260Y-133311200D01*
X67646740Y-133311200D01*
X67580558Y-133304682D01*
X67514373Y-133298163D01*
X67401147Y-133263816D01*
X67344533Y-133246643D01*
X67188011Y-133162979D01*
X67188009Y-133162978D01*
X67152271Y-133133648D01*
X67050814Y-133050386D01*
X66967552Y-132948929D01*
X66938222Y-132913191D01*
X66928652Y-132895287D01*
X66854557Y-132756667D01*
X66836483Y-132697084D01*
X66803037Y-132586827D01*
X66785641Y-132410200D01*
X66803037Y-132233573D01*
X66854557Y-132063734D01*
X66854557Y-132063733D01*
X66938221Y-131907211D01*
X66938222Y-131907209D01*
X66967552Y-131871471D01*
X67050814Y-131770014D01*
X67152271Y-131686752D01*
X67188009Y-131657422D01*
X67205913Y-131647852D01*
X67344533Y-131573757D01*
X67401147Y-131556584D01*
X67514373Y-131522237D01*
X67580558Y-131515718D01*
X67646740Y-131509200D01*
X67735260Y-131509200D01*
X67801442Y-131515718D01*
X67801442Y-131515718D01*
G37*
G36*
X92398277Y-127593665D02*
X92435964Y-127605098D01*
X92470703Y-127623666D01*
X92501148Y-127648652D01*
X92526134Y-127679097D01*
X92544702Y-127713836D01*
X92556135Y-127751523D01*
X92560600Y-127796861D01*
X92560600Y-128633539D01*
X92556135Y-128678877D01*
X92544702Y-128716564D01*
X92526134Y-128751303D01*
X92501148Y-128781748D01*
X92470703Y-128806734D01*
X92435964Y-128825302D01*
X92398277Y-128836735D01*
X92352939Y-128841200D01*
X91266261Y-128841200D01*
X91220923Y-128836735D01*
X91183236Y-128825302D01*
X91148497Y-128806734D01*
X91118052Y-128781748D01*
X91093066Y-128751303D01*
X91074498Y-128716564D01*
X91063065Y-128678877D01*
X91058600Y-128633539D01*
X91058600Y-127796861D01*
X91063065Y-127751523D01*
X91074498Y-127713836D01*
X91093066Y-127679097D01*
X91118052Y-127648652D01*
X91148497Y-127623666D01*
X91183236Y-127605098D01*
X91220923Y-127593665D01*
X91266261Y-127589200D01*
X92352939Y-127589200D01*
X92398277Y-127593665D01*
X92398277Y-127593665D01*
G37*
G36*
X89148277Y-127593665D02*
X89185964Y-127605098D01*
X89220703Y-127623666D01*
X89251148Y-127648652D01*
X89276134Y-127679097D01*
X89294702Y-127713836D01*
X89306135Y-127751523D01*
X89310600Y-127796861D01*
X89310600Y-128633539D01*
X89306135Y-128678877D01*
X89294702Y-128716564D01*
X89276134Y-128751303D01*
X89251148Y-128781748D01*
X89220703Y-128806734D01*
X89185964Y-128825302D01*
X89148277Y-128836735D01*
X89102939Y-128841200D01*
X88016261Y-128841200D01*
X87970923Y-128836735D01*
X87933236Y-128825302D01*
X87898497Y-128806734D01*
X87868052Y-128781748D01*
X87843066Y-128751303D01*
X87824498Y-128716564D01*
X87813065Y-128678877D01*
X87808600Y-128633539D01*
X87808600Y-127796861D01*
X87813065Y-127751523D01*
X87824498Y-127713836D01*
X87843066Y-127679097D01*
X87868052Y-127648652D01*
X87898497Y-127623666D01*
X87933236Y-127605098D01*
X87970923Y-127593665D01*
X88016261Y-127589200D01*
X89102939Y-127589200D01*
X89148277Y-127593665D01*
X89148277Y-127593665D01*
G37*
G36*
X77148277Y-127593665D02*
X77185964Y-127605098D01*
X77220703Y-127623666D01*
X77251148Y-127648652D01*
X77276134Y-127679097D01*
X77294702Y-127713836D01*
X77306135Y-127751523D01*
X77310600Y-127796861D01*
X77310600Y-128633539D01*
X77306135Y-128678877D01*
X77294702Y-128716564D01*
X77276134Y-128751303D01*
X77251148Y-128781748D01*
X77220703Y-128806734D01*
X77185964Y-128825302D01*
X77148277Y-128836735D01*
X77102939Y-128841200D01*
X76016261Y-128841200D01*
X75970923Y-128836735D01*
X75933236Y-128825302D01*
X75898497Y-128806734D01*
X75868052Y-128781748D01*
X75843066Y-128751303D01*
X75824498Y-128716564D01*
X75813065Y-128678877D01*
X75808600Y-128633539D01*
X75808600Y-127796861D01*
X75813065Y-127751523D01*
X75824498Y-127713836D01*
X75843066Y-127679097D01*
X75868052Y-127648652D01*
X75898497Y-127623666D01*
X75933236Y-127605098D01*
X75970923Y-127593665D01*
X76016261Y-127589200D01*
X77102939Y-127589200D01*
X77148277Y-127593665D01*
X77148277Y-127593665D01*
G37*
G36*
X86060600Y-128601200D02*
X84458600Y-128601200D01*
X84458600Y-127899200D01*
X86060600Y-127899200D01*
X86060600Y-128601200D01*
X86060600Y-128601200D01*
G37*
G36*
X80660600Y-128601200D02*
X79058600Y-128601200D01*
X79058600Y-127899200D01*
X80660600Y-127899200D01*
X80660600Y-128601200D01*
X80660600Y-128601200D01*
G37*
G36*
X113585600Y-127941200D02*
X112883600Y-127941200D01*
X112883600Y-126339200D01*
X113585600Y-126339200D01*
X113585600Y-127941200D01*
X113585600Y-127941200D01*
G37*
G36*
X114855600Y-127941200D02*
X114153600Y-127941200D01*
X114153600Y-126339200D01*
X114855600Y-126339200D01*
X114855600Y-127941200D01*
X114855600Y-127941200D01*
G37*
G36*
X112315600Y-127941200D02*
X111613600Y-127941200D01*
X111613600Y-126339200D01*
X112315600Y-126339200D01*
X112315600Y-127941200D01*
X112315600Y-127941200D01*
G37*
G36*
X108505600Y-127941200D02*
X107803600Y-127941200D01*
X107803600Y-126339200D01*
X108505600Y-126339200D01*
X108505600Y-127941200D01*
X108505600Y-127941200D01*
G37*
G36*
X111045600Y-127941200D02*
X110343600Y-127941200D01*
X110343600Y-126339200D01*
X111045600Y-126339200D01*
X111045600Y-127941200D01*
X111045600Y-127941200D01*
G37*
G36*
X109775600Y-127941200D02*
X109073600Y-127941200D01*
X109073600Y-126339200D01*
X109775600Y-126339200D01*
X109775600Y-127941200D01*
X109775600Y-127941200D01*
G37*
G36*
X105965600Y-127941200D02*
X105263600Y-127941200D01*
X105263600Y-126339200D01*
X105965600Y-126339200D01*
X105965600Y-127941200D01*
X105965600Y-127941200D01*
G37*
G36*
X107235600Y-127941200D02*
X106533600Y-127941200D01*
X106533600Y-126339200D01*
X107235600Y-126339200D01*
X107235600Y-127941200D01*
X107235600Y-127941200D01*
G37*
G36*
X86060600Y-127331200D02*
X84458600Y-127331200D01*
X84458600Y-126629200D01*
X86060600Y-126629200D01*
X86060600Y-127331200D01*
X86060600Y-127331200D01*
G37*
G36*
X80660600Y-127331200D02*
X79058600Y-127331200D01*
X79058600Y-126629200D01*
X80660600Y-126629200D01*
X80660600Y-127331200D01*
X80660600Y-127331200D01*
G37*
G36*
X77148277Y-125543665D02*
X77185964Y-125555098D01*
X77220703Y-125573666D01*
X77251148Y-125598652D01*
X77276134Y-125629097D01*
X77294702Y-125663836D01*
X77306135Y-125701523D01*
X77310600Y-125746861D01*
X77310600Y-126583539D01*
X77306135Y-126628877D01*
X77294702Y-126666564D01*
X77276134Y-126701303D01*
X77251148Y-126731748D01*
X77220703Y-126756734D01*
X77185964Y-126775302D01*
X77148277Y-126786735D01*
X77102939Y-126791200D01*
X76016261Y-126791200D01*
X75970923Y-126786735D01*
X75933236Y-126775302D01*
X75898497Y-126756734D01*
X75868052Y-126731748D01*
X75843066Y-126701303D01*
X75824498Y-126666564D01*
X75813065Y-126628877D01*
X75808600Y-126583539D01*
X75808600Y-125746861D01*
X75813065Y-125701523D01*
X75824498Y-125663836D01*
X75843066Y-125629097D01*
X75868052Y-125598652D01*
X75898497Y-125573666D01*
X75933236Y-125555098D01*
X75970923Y-125543665D01*
X76016261Y-125539200D01*
X77102939Y-125539200D01*
X77148277Y-125543665D01*
X77148277Y-125543665D01*
G37*
G36*
X92398277Y-125543665D02*
X92435964Y-125555098D01*
X92470703Y-125573666D01*
X92501148Y-125598652D01*
X92526134Y-125629097D01*
X92544702Y-125663836D01*
X92556135Y-125701523D01*
X92560600Y-125746861D01*
X92560600Y-126583539D01*
X92556135Y-126628877D01*
X92544702Y-126666564D01*
X92526134Y-126701303D01*
X92501148Y-126731748D01*
X92470703Y-126756734D01*
X92435964Y-126775302D01*
X92398277Y-126786735D01*
X92352939Y-126791200D01*
X91266261Y-126791200D01*
X91220923Y-126786735D01*
X91183236Y-126775302D01*
X91148497Y-126756734D01*
X91118052Y-126731748D01*
X91093066Y-126701303D01*
X91074498Y-126666564D01*
X91063065Y-126628877D01*
X91058600Y-126583539D01*
X91058600Y-125746861D01*
X91063065Y-125701523D01*
X91074498Y-125663836D01*
X91093066Y-125629097D01*
X91118052Y-125598652D01*
X91148497Y-125573666D01*
X91183236Y-125555098D01*
X91220923Y-125543665D01*
X91266261Y-125539200D01*
X92352939Y-125539200D01*
X92398277Y-125543665D01*
X92398277Y-125543665D01*
G37*
G36*
X89148277Y-125543665D02*
X89185964Y-125555098D01*
X89220703Y-125573666D01*
X89251148Y-125598652D01*
X89276134Y-125629097D01*
X89294702Y-125663836D01*
X89306135Y-125701523D01*
X89310600Y-125746861D01*
X89310600Y-126583539D01*
X89306135Y-126628877D01*
X89294702Y-126666564D01*
X89276134Y-126701303D01*
X89251148Y-126731748D01*
X89220703Y-126756734D01*
X89185964Y-126775302D01*
X89148277Y-126786735D01*
X89102939Y-126791200D01*
X88016261Y-126791200D01*
X87970923Y-126786735D01*
X87933236Y-126775302D01*
X87898497Y-126756734D01*
X87868052Y-126731748D01*
X87843066Y-126701303D01*
X87824498Y-126666564D01*
X87813065Y-126628877D01*
X87808600Y-126583539D01*
X87808600Y-125746861D01*
X87813065Y-125701523D01*
X87824498Y-125663836D01*
X87843066Y-125629097D01*
X87868052Y-125598652D01*
X87898497Y-125573666D01*
X87933236Y-125555098D01*
X87970923Y-125543665D01*
X88016261Y-125539200D01*
X89102939Y-125539200D01*
X89148277Y-125543665D01*
X89148277Y-125543665D01*
G37*
G36*
X86060600Y-126061200D02*
X84458600Y-126061200D01*
X84458600Y-125359200D01*
X86060600Y-125359200D01*
X86060600Y-126061200D01*
X86060600Y-126061200D01*
G37*
G36*
X80660600Y-126061200D02*
X79058600Y-126061200D01*
X79058600Y-125359200D01*
X80660600Y-125359200D01*
X80660600Y-126061200D01*
X80660600Y-126061200D01*
G37*
G36*
X86060600Y-124791200D02*
X84458600Y-124791200D01*
X84458600Y-124089200D01*
X86060600Y-124089200D01*
X86060600Y-124791200D01*
X86060600Y-124791200D01*
G37*
G36*
X80660600Y-124791200D02*
X79058600Y-124791200D01*
X79058600Y-124089200D01*
X80660600Y-124089200D01*
X80660600Y-124791200D01*
X80660600Y-124791200D01*
G37*
G36*
X86060600Y-123521200D02*
X84458600Y-123521200D01*
X84458600Y-122819200D01*
X86060600Y-122819200D01*
X86060600Y-123521200D01*
X86060600Y-123521200D01*
G37*
G36*
X80660600Y-123521200D02*
X79058600Y-123521200D01*
X79058600Y-122819200D01*
X80660600Y-122819200D01*
X80660600Y-123521200D01*
X80660600Y-123521200D01*
G37*
G36*
X89148277Y-122093665D02*
X89185964Y-122105098D01*
X89220703Y-122123666D01*
X89251148Y-122148652D01*
X89276134Y-122179097D01*
X89294702Y-122213836D01*
X89306135Y-122251523D01*
X89310600Y-122296861D01*
X89310600Y-123133539D01*
X89306135Y-123178877D01*
X89294702Y-123216564D01*
X89276134Y-123251303D01*
X89251148Y-123281748D01*
X89220703Y-123306734D01*
X89185964Y-123325302D01*
X89148277Y-123336735D01*
X89102939Y-123341200D01*
X88016261Y-123341200D01*
X87970923Y-123336735D01*
X87933236Y-123325302D01*
X87898497Y-123306734D01*
X87868052Y-123281748D01*
X87843066Y-123251303D01*
X87824498Y-123216564D01*
X87813065Y-123178877D01*
X87808600Y-123133539D01*
X87808600Y-122296861D01*
X87813065Y-122251523D01*
X87824498Y-122213836D01*
X87843066Y-122179097D01*
X87868052Y-122148652D01*
X87898497Y-122123666D01*
X87933236Y-122105098D01*
X87970923Y-122093665D01*
X88016261Y-122089200D01*
X89102939Y-122089200D01*
X89148277Y-122093665D01*
X89148277Y-122093665D01*
G37*
G36*
X77148277Y-122093665D02*
X77185964Y-122105098D01*
X77220703Y-122123666D01*
X77251148Y-122148652D01*
X77276134Y-122179097D01*
X77294702Y-122213836D01*
X77306135Y-122251523D01*
X77310600Y-122296861D01*
X77310600Y-123133539D01*
X77306135Y-123178877D01*
X77294702Y-123216564D01*
X77276134Y-123251303D01*
X77251148Y-123281748D01*
X77220703Y-123306734D01*
X77185964Y-123325302D01*
X77148277Y-123336735D01*
X77102939Y-123341200D01*
X76016261Y-123341200D01*
X75970923Y-123336735D01*
X75933236Y-123325302D01*
X75898497Y-123306734D01*
X75868052Y-123281748D01*
X75843066Y-123251303D01*
X75824498Y-123216564D01*
X75813065Y-123178877D01*
X75808600Y-123133539D01*
X75808600Y-122296861D01*
X75813065Y-122251523D01*
X75824498Y-122213836D01*
X75843066Y-122179097D01*
X75868052Y-122148652D01*
X75898497Y-122123666D01*
X75933236Y-122105098D01*
X75970923Y-122093665D01*
X76016261Y-122089200D01*
X77102939Y-122089200D01*
X77148277Y-122093665D01*
X77148277Y-122093665D01*
G37*
G36*
X109775600Y-122541200D02*
X109073600Y-122541200D01*
X109073600Y-120939200D01*
X109775600Y-120939200D01*
X109775600Y-122541200D01*
X109775600Y-122541200D01*
G37*
G36*
X108505600Y-122541200D02*
X107803600Y-122541200D01*
X107803600Y-120939200D01*
X108505600Y-120939200D01*
X108505600Y-122541200D01*
X108505600Y-122541200D01*
G37*
G36*
X107235600Y-122541200D02*
X106533600Y-122541200D01*
X106533600Y-120939200D01*
X107235600Y-120939200D01*
X107235600Y-122541200D01*
X107235600Y-122541200D01*
G37*
G36*
X105965600Y-122541200D02*
X105263600Y-122541200D01*
X105263600Y-120939200D01*
X105965600Y-120939200D01*
X105965600Y-122541200D01*
X105965600Y-122541200D01*
G37*
G36*
X111045600Y-122541200D02*
X110343600Y-122541200D01*
X110343600Y-120939200D01*
X111045600Y-120939200D01*
X111045600Y-122541200D01*
X111045600Y-122541200D01*
G37*
G36*
X112315600Y-122541200D02*
X111613600Y-122541200D01*
X111613600Y-120939200D01*
X112315600Y-120939200D01*
X112315600Y-122541200D01*
X112315600Y-122541200D01*
G37*
G36*
X113585600Y-122541200D02*
X112883600Y-122541200D01*
X112883600Y-120939200D01*
X113585600Y-120939200D01*
X113585600Y-122541200D01*
X113585600Y-122541200D01*
G37*
G36*
X114855600Y-122541200D02*
X114153600Y-122541200D01*
X114153600Y-120939200D01*
X114855600Y-120939200D01*
X114855600Y-122541200D01*
X114855600Y-122541200D01*
G37*
G36*
X86060600Y-122251200D02*
X84458600Y-122251200D01*
X84458600Y-121549200D01*
X86060600Y-121549200D01*
X86060600Y-122251200D01*
X86060600Y-122251200D01*
G37*
G36*
X80660600Y-122251200D02*
X79058600Y-122251200D01*
X79058600Y-121549200D01*
X80660600Y-121549200D01*
X80660600Y-122251200D01*
X80660600Y-122251200D01*
G37*
G36*
X89148277Y-120043665D02*
X89185964Y-120055098D01*
X89220703Y-120073666D01*
X89251148Y-120098652D01*
X89276134Y-120129097D01*
X89294702Y-120163836D01*
X89306135Y-120201523D01*
X89310600Y-120246861D01*
X89310600Y-121083539D01*
X89306135Y-121128877D01*
X89294702Y-121166564D01*
X89276134Y-121201303D01*
X89251148Y-121231748D01*
X89220703Y-121256734D01*
X89185964Y-121275302D01*
X89148277Y-121286735D01*
X89102939Y-121291200D01*
X88016261Y-121291200D01*
X87970923Y-121286735D01*
X87933236Y-121275302D01*
X87898497Y-121256734D01*
X87868052Y-121231748D01*
X87843066Y-121201303D01*
X87824498Y-121166564D01*
X87813065Y-121128877D01*
X87808600Y-121083539D01*
X87808600Y-120246861D01*
X87813065Y-120201523D01*
X87824498Y-120163836D01*
X87843066Y-120129097D01*
X87868052Y-120098652D01*
X87898497Y-120073666D01*
X87933236Y-120055098D01*
X87970923Y-120043665D01*
X88016261Y-120039200D01*
X89102939Y-120039200D01*
X89148277Y-120043665D01*
X89148277Y-120043665D01*
G37*
G36*
X77148277Y-120043665D02*
X77185964Y-120055098D01*
X77220703Y-120073666D01*
X77251148Y-120098652D01*
X77276134Y-120129097D01*
X77294702Y-120163836D01*
X77306135Y-120201523D01*
X77310600Y-120246861D01*
X77310600Y-121083539D01*
X77306135Y-121128877D01*
X77294702Y-121166564D01*
X77276134Y-121201303D01*
X77251148Y-121231748D01*
X77220703Y-121256734D01*
X77185964Y-121275302D01*
X77148277Y-121286735D01*
X77102939Y-121291200D01*
X76016261Y-121291200D01*
X75970923Y-121286735D01*
X75933236Y-121275302D01*
X75898497Y-121256734D01*
X75868052Y-121231748D01*
X75843066Y-121201303D01*
X75824498Y-121166564D01*
X75813065Y-121128877D01*
X75808600Y-121083539D01*
X75808600Y-120246861D01*
X75813065Y-120201523D01*
X75824498Y-120163836D01*
X75843066Y-120129097D01*
X75868052Y-120098652D01*
X75898497Y-120073666D01*
X75933236Y-120055098D01*
X75970923Y-120043665D01*
X76016261Y-120039200D01*
X77102939Y-120039200D01*
X77148277Y-120043665D01*
X77148277Y-120043665D01*
G37*
G36*
X86060600Y-120981200D02*
X84458600Y-120981200D01*
X84458600Y-120279200D01*
X86060600Y-120279200D01*
X86060600Y-120981200D01*
X86060600Y-120981200D01*
G37*
G36*
X80660600Y-120981200D02*
X79058600Y-120981200D01*
X79058600Y-120279200D01*
X80660600Y-120279200D01*
X80660600Y-120981200D01*
X80660600Y-120981200D01*
G37*
G36*
X94398277Y-113593665D02*
X94435964Y-113605098D01*
X94470703Y-113623666D01*
X94501148Y-113648652D01*
X94526134Y-113679097D01*
X94544702Y-113713836D01*
X94556135Y-113751523D01*
X94560600Y-113796861D01*
X94560600Y-114633539D01*
X94556135Y-114678877D01*
X94544702Y-114716564D01*
X94526134Y-114751303D01*
X94501148Y-114781748D01*
X94470703Y-114806734D01*
X94435964Y-114825302D01*
X94398277Y-114836735D01*
X94352939Y-114841200D01*
X93266261Y-114841200D01*
X93220923Y-114836735D01*
X93183236Y-114825302D01*
X93148497Y-114806734D01*
X93118052Y-114781748D01*
X93093066Y-114751303D01*
X93074498Y-114716564D01*
X93063065Y-114678877D01*
X93058600Y-114633539D01*
X93058600Y-113796861D01*
X93063065Y-113751523D01*
X93074498Y-113713836D01*
X93093066Y-113679097D01*
X93118052Y-113648652D01*
X93148497Y-113623666D01*
X93183236Y-113605098D01*
X93220923Y-113593665D01*
X93266261Y-113589200D01*
X94352939Y-113589200D01*
X94398277Y-113593665D01*
X94398277Y-113593665D01*
G37*
G36*
X109148277Y-113593665D02*
X109185964Y-113605098D01*
X109220703Y-113623666D01*
X109251148Y-113648652D01*
X109276134Y-113679097D01*
X109294702Y-113713836D01*
X109306135Y-113751523D01*
X109310600Y-113796861D01*
X109310600Y-114633539D01*
X109306135Y-114678877D01*
X109294702Y-114716564D01*
X109276134Y-114751303D01*
X109251148Y-114781748D01*
X109220703Y-114806734D01*
X109185964Y-114825302D01*
X109148277Y-114836735D01*
X109102939Y-114841200D01*
X108016261Y-114841200D01*
X107970923Y-114836735D01*
X107933236Y-114825302D01*
X107898497Y-114806734D01*
X107868052Y-114781748D01*
X107843066Y-114751303D01*
X107824498Y-114716564D01*
X107813065Y-114678877D01*
X107808600Y-114633539D01*
X107808600Y-113796861D01*
X107813065Y-113751523D01*
X107824498Y-113713836D01*
X107843066Y-113679097D01*
X107868052Y-113648652D01*
X107898497Y-113623666D01*
X107933236Y-113605098D01*
X107970923Y-113593665D01*
X108016261Y-113589200D01*
X109102939Y-113589200D01*
X109148277Y-113593665D01*
X109148277Y-113593665D01*
G37*
G36*
X123148277Y-113593665D02*
X123185964Y-113605098D01*
X123220703Y-113623666D01*
X123251148Y-113648652D01*
X123276134Y-113679097D01*
X123294702Y-113713836D01*
X123306135Y-113751523D01*
X123310600Y-113796861D01*
X123310600Y-114633539D01*
X123306135Y-114678877D01*
X123294702Y-114716564D01*
X123276134Y-114751303D01*
X123251148Y-114781748D01*
X123220703Y-114806734D01*
X123185964Y-114825302D01*
X123148277Y-114836735D01*
X123102939Y-114841200D01*
X122016261Y-114841200D01*
X121970923Y-114836735D01*
X121933236Y-114825302D01*
X121898497Y-114806734D01*
X121868052Y-114781748D01*
X121843066Y-114751303D01*
X121824498Y-114716564D01*
X121813065Y-114678877D01*
X121808600Y-114633539D01*
X121808600Y-113796861D01*
X121813065Y-113751523D01*
X121824498Y-113713836D01*
X121843066Y-113679097D01*
X121868052Y-113648652D01*
X121898497Y-113623666D01*
X121933236Y-113605098D01*
X121970923Y-113593665D01*
X122016261Y-113589200D01*
X123102939Y-113589200D01*
X123148277Y-113593665D01*
X123148277Y-113593665D01*
G37*
G36*
X80398277Y-113593665D02*
X80435964Y-113605098D01*
X80470703Y-113623666D01*
X80501148Y-113648652D01*
X80526134Y-113679097D01*
X80544702Y-113713836D01*
X80556135Y-113751523D01*
X80560600Y-113796861D01*
X80560600Y-114633539D01*
X80556135Y-114678877D01*
X80544702Y-114716564D01*
X80526134Y-114751303D01*
X80501148Y-114781748D01*
X80470703Y-114806734D01*
X80435964Y-114825302D01*
X80398277Y-114836735D01*
X80352939Y-114841200D01*
X79266261Y-114841200D01*
X79220923Y-114836735D01*
X79183236Y-114825302D01*
X79148497Y-114806734D01*
X79118052Y-114781748D01*
X79093066Y-114751303D01*
X79074498Y-114716564D01*
X79063065Y-114678877D01*
X79058600Y-114633539D01*
X79058600Y-113796861D01*
X79063065Y-113751523D01*
X79074498Y-113713836D01*
X79093066Y-113679097D01*
X79118052Y-113648652D01*
X79148497Y-113623666D01*
X79183236Y-113605098D01*
X79220923Y-113593665D01*
X79266261Y-113589200D01*
X80352939Y-113589200D01*
X80398277Y-113593665D01*
X80398277Y-113593665D01*
G37*
G36*
X69960600Y-114241200D02*
X69158600Y-114241200D01*
X69158600Y-113539200D01*
X69960600Y-113539200D01*
X69960600Y-114241200D01*
X69960600Y-114241200D01*
G37*
G36*
X112710600Y-114241200D02*
X111908600Y-114241200D01*
X111908600Y-113539200D01*
X112710600Y-113539200D01*
X112710600Y-114241200D01*
X112710600Y-114241200D01*
G37*
G36*
X98710600Y-114241200D02*
X97908600Y-114241200D01*
X97908600Y-113539200D01*
X98710600Y-113539200D01*
X98710600Y-114241200D01*
X98710600Y-114241200D01*
G37*
G36*
X83960600Y-114241200D02*
X83158600Y-114241200D01*
X83158600Y-113539200D01*
X83960600Y-113539200D01*
X83960600Y-114241200D01*
X83960600Y-114241200D01*
G37*
G36*
X119626996Y-112275746D02*
X119800066Y-112347434D01*
X119955830Y-112451512D01*
X120088288Y-112583970D01*
X120192366Y-112739734D01*
X120264054Y-112912804D01*
X120300600Y-113096533D01*
X120300600Y-113283867D01*
X120264054Y-113467596D01*
X120192366Y-113640666D01*
X120088288Y-113796430D01*
X119955830Y-113928888D01*
X119800066Y-114032966D01*
X119626996Y-114104654D01*
X119443267Y-114141200D01*
X119255933Y-114141200D01*
X119072204Y-114104654D01*
X118899134Y-114032966D01*
X118743370Y-113928888D01*
X118610912Y-113796430D01*
X118506834Y-113640666D01*
X118435146Y-113467596D01*
X118398600Y-113283867D01*
X118398600Y-113096533D01*
X118435146Y-112912804D01*
X118506834Y-112739734D01*
X118610912Y-112583970D01*
X118743370Y-112451512D01*
X118899134Y-112347434D01*
X119072204Y-112275746D01*
X119255933Y-112239200D01*
X119443267Y-112239200D01*
X119626996Y-112275746D01*
X119626996Y-112275746D01*
G37*
G36*
X75010600Y-114141200D02*
X73108600Y-114141200D01*
X73108600Y-112239200D01*
X75010600Y-112239200D01*
X75010600Y-114141200D01*
X75010600Y-114141200D01*
G37*
G36*
X103760600Y-114141200D02*
X101858600Y-114141200D01*
X101858600Y-112239200D01*
X103760600Y-112239200D01*
X103760600Y-114141200D01*
X103760600Y-114141200D01*
G37*
G36*
X76876996Y-112275746D02*
X77050066Y-112347434D01*
X77205830Y-112451512D01*
X77338288Y-112583970D01*
X77442366Y-112739734D01*
X77514054Y-112912804D01*
X77550600Y-113096533D01*
X77550600Y-113283867D01*
X77514054Y-113467596D01*
X77442366Y-113640666D01*
X77338288Y-113796430D01*
X77205830Y-113928888D01*
X77050066Y-114032966D01*
X76876996Y-114104654D01*
X76693267Y-114141200D01*
X76505933Y-114141200D01*
X76322204Y-114104654D01*
X76149134Y-114032966D01*
X75993370Y-113928888D01*
X75860912Y-113796430D01*
X75756834Y-113640666D01*
X75685146Y-113467596D01*
X75648600Y-113283867D01*
X75648600Y-113096533D01*
X75685146Y-112912804D01*
X75756834Y-112739734D01*
X75860912Y-112583970D01*
X75993370Y-112451512D01*
X76149134Y-112347434D01*
X76322204Y-112275746D01*
X76505933Y-112239200D01*
X76693267Y-112239200D01*
X76876996Y-112275746D01*
X76876996Y-112275746D01*
G37*
G36*
X89010600Y-114141200D02*
X87108600Y-114141200D01*
X87108600Y-112239200D01*
X89010600Y-112239200D01*
X89010600Y-114141200D01*
X89010600Y-114141200D01*
G37*
G36*
X90876996Y-112275746D02*
X91050066Y-112347434D01*
X91205830Y-112451512D01*
X91338288Y-112583970D01*
X91442366Y-112739734D01*
X91514054Y-112912804D01*
X91550600Y-113096533D01*
X91550600Y-113283867D01*
X91514054Y-113467596D01*
X91442366Y-113640666D01*
X91338288Y-113796430D01*
X91205830Y-113928888D01*
X91050066Y-114032966D01*
X90876996Y-114104654D01*
X90693267Y-114141200D01*
X90505933Y-114141200D01*
X90322204Y-114104654D01*
X90149134Y-114032966D01*
X89993370Y-113928888D01*
X89860912Y-113796430D01*
X89756834Y-113640666D01*
X89685146Y-113467596D01*
X89648600Y-113283867D01*
X89648600Y-113096533D01*
X89685146Y-112912804D01*
X89756834Y-112739734D01*
X89860912Y-112583970D01*
X89993370Y-112451512D01*
X90149134Y-112347434D01*
X90322204Y-112275746D01*
X90505933Y-112239200D01*
X90693267Y-112239200D01*
X90876996Y-112275746D01*
X90876996Y-112275746D01*
G37*
G36*
X105626996Y-112275746D02*
X105800066Y-112347434D01*
X105955830Y-112451512D01*
X106088288Y-112583970D01*
X106192366Y-112739734D01*
X106264054Y-112912804D01*
X106300600Y-113096533D01*
X106300600Y-113283867D01*
X106264054Y-113467596D01*
X106192366Y-113640666D01*
X106088288Y-113796430D01*
X105955830Y-113928888D01*
X105800066Y-114032966D01*
X105626996Y-114104654D01*
X105443267Y-114141200D01*
X105255933Y-114141200D01*
X105072204Y-114104654D01*
X104899134Y-114032966D01*
X104743370Y-113928888D01*
X104610912Y-113796430D01*
X104506834Y-113640666D01*
X104435146Y-113467596D01*
X104398600Y-113283867D01*
X104398600Y-113096533D01*
X104435146Y-112912804D01*
X104506834Y-112739734D01*
X104610912Y-112583970D01*
X104743370Y-112451512D01*
X104899134Y-112347434D01*
X105072204Y-112275746D01*
X105255933Y-112239200D01*
X105443267Y-112239200D01*
X105626996Y-112275746D01*
X105626996Y-112275746D01*
G37*
G36*
X117760600Y-114141200D02*
X115858600Y-114141200D01*
X115858600Y-112239200D01*
X117760600Y-112239200D01*
X117760600Y-114141200D01*
X117760600Y-114141200D01*
G37*
G36*
X83960600Y-112841200D02*
X83158600Y-112841200D01*
X83158600Y-112139200D01*
X83960600Y-112139200D01*
X83960600Y-112841200D01*
X83960600Y-112841200D01*
G37*
G36*
X69960600Y-112841200D02*
X69158600Y-112841200D01*
X69158600Y-112139200D01*
X69960600Y-112139200D01*
X69960600Y-112841200D01*
X69960600Y-112841200D01*
G37*
G36*
X112710600Y-112841200D02*
X111908600Y-112841200D01*
X111908600Y-112139200D01*
X112710600Y-112139200D01*
X112710600Y-112841200D01*
X112710600Y-112841200D01*
G37*
G36*
X98710600Y-112841200D02*
X97908600Y-112841200D01*
X97908600Y-112139200D01*
X98710600Y-112139200D01*
X98710600Y-112841200D01*
X98710600Y-112841200D01*
G37*
G36*
X80398277Y-111543665D02*
X80435964Y-111555098D01*
X80470703Y-111573666D01*
X80501148Y-111598652D01*
X80526134Y-111629097D01*
X80544702Y-111663836D01*
X80556135Y-111701523D01*
X80560600Y-111746861D01*
X80560600Y-112583539D01*
X80556135Y-112628877D01*
X80544702Y-112666564D01*
X80526134Y-112701303D01*
X80501148Y-112731748D01*
X80470703Y-112756734D01*
X80435964Y-112775302D01*
X80398277Y-112786735D01*
X80352939Y-112791200D01*
X79266261Y-112791200D01*
X79220923Y-112786735D01*
X79183236Y-112775302D01*
X79148497Y-112756734D01*
X79118052Y-112731748D01*
X79093066Y-112701303D01*
X79074498Y-112666564D01*
X79063065Y-112628877D01*
X79058600Y-112583539D01*
X79058600Y-111746861D01*
X79063065Y-111701523D01*
X79074498Y-111663836D01*
X79093066Y-111629097D01*
X79118052Y-111598652D01*
X79148497Y-111573666D01*
X79183236Y-111555098D01*
X79220923Y-111543665D01*
X79266261Y-111539200D01*
X80352939Y-111539200D01*
X80398277Y-111543665D01*
X80398277Y-111543665D01*
G37*
G36*
X123148277Y-111543665D02*
X123185964Y-111555098D01*
X123220703Y-111573666D01*
X123251148Y-111598652D01*
X123276134Y-111629097D01*
X123294702Y-111663836D01*
X123306135Y-111701523D01*
X123310600Y-111746861D01*
X123310600Y-112583539D01*
X123306135Y-112628877D01*
X123294702Y-112666564D01*
X123276134Y-112701303D01*
X123251148Y-112731748D01*
X123220703Y-112756734D01*
X123185964Y-112775302D01*
X123148277Y-112786735D01*
X123102939Y-112791200D01*
X122016261Y-112791200D01*
X121970923Y-112786735D01*
X121933236Y-112775302D01*
X121898497Y-112756734D01*
X121868052Y-112731748D01*
X121843066Y-112701303D01*
X121824498Y-112666564D01*
X121813065Y-112628877D01*
X121808600Y-112583539D01*
X121808600Y-111746861D01*
X121813065Y-111701523D01*
X121824498Y-111663836D01*
X121843066Y-111629097D01*
X121868052Y-111598652D01*
X121898497Y-111573666D01*
X121933236Y-111555098D01*
X121970923Y-111543665D01*
X122016261Y-111539200D01*
X123102939Y-111539200D01*
X123148277Y-111543665D01*
X123148277Y-111543665D01*
G37*
G36*
X109148277Y-111543665D02*
X109185964Y-111555098D01*
X109220703Y-111573666D01*
X109251148Y-111598652D01*
X109276134Y-111629097D01*
X109294702Y-111663836D01*
X109306135Y-111701523D01*
X109310600Y-111746861D01*
X109310600Y-112583539D01*
X109306135Y-112628877D01*
X109294702Y-112666564D01*
X109276134Y-112701303D01*
X109251148Y-112731748D01*
X109220703Y-112756734D01*
X109185964Y-112775302D01*
X109148277Y-112786735D01*
X109102939Y-112791200D01*
X108016261Y-112791200D01*
X107970923Y-112786735D01*
X107933236Y-112775302D01*
X107898497Y-112756734D01*
X107868052Y-112731748D01*
X107843066Y-112701303D01*
X107824498Y-112666564D01*
X107813065Y-112628877D01*
X107808600Y-112583539D01*
X107808600Y-111746861D01*
X107813065Y-111701523D01*
X107824498Y-111663836D01*
X107843066Y-111629097D01*
X107868052Y-111598652D01*
X107898497Y-111573666D01*
X107933236Y-111555098D01*
X107970923Y-111543665D01*
X108016261Y-111539200D01*
X109102939Y-111539200D01*
X109148277Y-111543665D01*
X109148277Y-111543665D01*
G37*
G36*
X94398277Y-111543665D02*
X94435964Y-111555098D01*
X94470703Y-111573666D01*
X94501148Y-111598652D01*
X94526134Y-111629097D01*
X94544702Y-111663836D01*
X94556135Y-111701523D01*
X94560600Y-111746861D01*
X94560600Y-112583539D01*
X94556135Y-112628877D01*
X94544702Y-112666564D01*
X94526134Y-112701303D01*
X94501148Y-112731748D01*
X94470703Y-112756734D01*
X94435964Y-112775302D01*
X94398277Y-112786735D01*
X94352939Y-112791200D01*
X93266261Y-112791200D01*
X93220923Y-112786735D01*
X93183236Y-112775302D01*
X93148497Y-112756734D01*
X93118052Y-112731748D01*
X93093066Y-112701303D01*
X93074498Y-112666564D01*
X93063065Y-112628877D01*
X93058600Y-112583539D01*
X93058600Y-111746861D01*
X93063065Y-111701523D01*
X93074498Y-111663836D01*
X93093066Y-111629097D01*
X93118052Y-111598652D01*
X93148497Y-111573666D01*
X93183236Y-111555098D01*
X93220923Y-111543665D01*
X93266261Y-111539200D01*
X94352939Y-111539200D01*
X94398277Y-111543665D01*
X94398277Y-111543665D01*
G37*
G36*
X107296742Y-104908442D02*
X107444702Y-104969730D01*
X107577858Y-105058702D01*
X107691098Y-105171942D01*
X107780070Y-105305098D01*
X107841358Y-105453058D01*
X107872600Y-105610125D01*
X107872600Y-105770275D01*
X107841358Y-105927342D01*
X107780070Y-106075302D01*
X107691098Y-106208458D01*
X107577858Y-106321698D01*
X107444702Y-106410670D01*
X107296742Y-106471958D01*
X107139675Y-106503200D01*
X106979525Y-106503200D01*
X106822458Y-106471958D01*
X106674498Y-106410670D01*
X106541342Y-106321698D01*
X106428102Y-106208458D01*
X106339130Y-106075302D01*
X106277842Y-105927342D01*
X106246600Y-105770275D01*
X106246600Y-105610125D01*
X106277842Y-105453058D01*
X106339130Y-105305098D01*
X106428102Y-105171942D01*
X106541342Y-105058702D01*
X106674498Y-104969730D01*
X106822458Y-104908442D01*
X106979525Y-104877200D01*
X107139675Y-104877200D01*
X107296742Y-104908442D01*
X107296742Y-104908442D01*
G37*
G36*
X86546742Y-104908442D02*
X86694702Y-104969730D01*
X86827858Y-105058702D01*
X86941098Y-105171942D01*
X87030070Y-105305098D01*
X87091358Y-105453058D01*
X87122600Y-105610125D01*
X87122600Y-105770275D01*
X87091358Y-105927342D01*
X87030070Y-106075302D01*
X86941098Y-106208458D01*
X86827858Y-106321698D01*
X86694702Y-106410670D01*
X86546742Y-106471958D01*
X86389675Y-106503200D01*
X86229525Y-106503200D01*
X86072458Y-106471958D01*
X85924498Y-106410670D01*
X85791342Y-106321698D01*
X85678102Y-106208458D01*
X85589130Y-106075302D01*
X85527842Y-105927342D01*
X85496600Y-105770275D01*
X85496600Y-105610125D01*
X85527842Y-105453058D01*
X85589130Y-105305098D01*
X85678102Y-105171942D01*
X85791342Y-105058702D01*
X85924498Y-104969730D01*
X86072458Y-104908442D01*
X86229525Y-104877200D01*
X86389675Y-104877200D01*
X86546742Y-104908442D01*
X86546742Y-104908442D01*
G37*
G36*
X115296742Y-104908442D02*
X115444702Y-104969730D01*
X115577858Y-105058702D01*
X115691098Y-105171942D01*
X115780070Y-105305098D01*
X115841358Y-105453058D01*
X115872600Y-105610125D01*
X115872600Y-105770275D01*
X115841358Y-105927342D01*
X115780070Y-106075302D01*
X115691098Y-106208458D01*
X115577858Y-106321698D01*
X115444702Y-106410670D01*
X115296742Y-106471958D01*
X115139675Y-106503200D01*
X114979525Y-106503200D01*
X114822458Y-106471958D01*
X114674498Y-106410670D01*
X114541342Y-106321698D01*
X114428102Y-106208458D01*
X114339130Y-106075302D01*
X114277842Y-105927342D01*
X114246600Y-105770275D01*
X114246600Y-105610125D01*
X114277842Y-105453058D01*
X114339130Y-105305098D01*
X114428102Y-105171942D01*
X114541342Y-105058702D01*
X114674498Y-104969730D01*
X114822458Y-104908442D01*
X114979525Y-104877200D01*
X115139675Y-104877200D01*
X115296742Y-104908442D01*
X115296742Y-104908442D01*
G37*
G36*
X121296742Y-104908442D02*
X121444702Y-104969730D01*
X121577858Y-105058702D01*
X121691098Y-105171942D01*
X121780070Y-105305098D01*
X121841358Y-105453058D01*
X121872600Y-105610125D01*
X121872600Y-105770275D01*
X121841358Y-105927342D01*
X121780070Y-106075302D01*
X121691098Y-106208458D01*
X121577858Y-106321698D01*
X121444702Y-106410670D01*
X121296742Y-106471958D01*
X121139675Y-106503200D01*
X120979525Y-106503200D01*
X120822458Y-106471958D01*
X120674498Y-106410670D01*
X120541342Y-106321698D01*
X120428102Y-106208458D01*
X120339130Y-106075302D01*
X120277842Y-105927342D01*
X120246600Y-105770275D01*
X120246600Y-105610125D01*
X120277842Y-105453058D01*
X120339130Y-105305098D01*
X120428102Y-105171942D01*
X120541342Y-105058702D01*
X120674498Y-104969730D01*
X120822458Y-104908442D01*
X120979525Y-104877200D01*
X121139675Y-104877200D01*
X121296742Y-104908442D01*
X121296742Y-104908442D01*
G37*
G36*
X101296742Y-104908442D02*
X101444702Y-104969730D01*
X101577858Y-105058702D01*
X101691098Y-105171942D01*
X101780070Y-105305098D01*
X101841358Y-105453058D01*
X101872600Y-105610125D01*
X101872600Y-105770275D01*
X101841358Y-105927342D01*
X101780070Y-106075302D01*
X101691098Y-106208458D01*
X101577858Y-106321698D01*
X101444702Y-106410670D01*
X101296742Y-106471958D01*
X101139675Y-106503200D01*
X100979525Y-106503200D01*
X100822458Y-106471958D01*
X100674498Y-106410670D01*
X100541342Y-106321698D01*
X100428102Y-106208458D01*
X100339130Y-106075302D01*
X100277842Y-105927342D01*
X100246600Y-105770275D01*
X100246600Y-105610125D01*
X100277842Y-105453058D01*
X100339130Y-105305098D01*
X100428102Y-105171942D01*
X100541342Y-105058702D01*
X100674498Y-104969730D01*
X100822458Y-104908442D01*
X100979525Y-104877200D01*
X101139675Y-104877200D01*
X101296742Y-104908442D01*
X101296742Y-104908442D01*
G37*
G36*
X92546742Y-104908442D02*
X92694702Y-104969730D01*
X92827858Y-105058702D01*
X92941098Y-105171942D01*
X93030070Y-105305098D01*
X93091358Y-105453058D01*
X93122600Y-105610125D01*
X93122600Y-105770275D01*
X93091358Y-105927342D01*
X93030070Y-106075302D01*
X92941098Y-106208458D01*
X92827858Y-106321698D01*
X92694702Y-106410670D01*
X92546742Y-106471958D01*
X92389675Y-106503200D01*
X92229525Y-106503200D01*
X92072458Y-106471958D01*
X91924498Y-106410670D01*
X91791342Y-106321698D01*
X91678102Y-106208458D01*
X91589130Y-106075302D01*
X91527842Y-105927342D01*
X91496600Y-105770275D01*
X91496600Y-105610125D01*
X91527842Y-105453058D01*
X91589130Y-105305098D01*
X91678102Y-105171942D01*
X91791342Y-105058702D01*
X91924498Y-104969730D01*
X92072458Y-104908442D01*
X92229525Y-104877200D01*
X92389675Y-104877200D01*
X92546742Y-104908442D01*
X92546742Y-104908442D01*
G37*
G36*
X78546742Y-104908442D02*
X78694702Y-104969730D01*
X78827858Y-105058702D01*
X78941098Y-105171942D01*
X79030070Y-105305098D01*
X79091358Y-105453058D01*
X79122600Y-105610125D01*
X79122600Y-105770275D01*
X79091358Y-105927342D01*
X79030070Y-106075302D01*
X78941098Y-106208458D01*
X78827858Y-106321698D01*
X78694702Y-106410670D01*
X78546742Y-106471958D01*
X78389675Y-106503200D01*
X78229525Y-106503200D01*
X78072458Y-106471958D01*
X77924498Y-106410670D01*
X77791342Y-106321698D01*
X77678102Y-106208458D01*
X77589130Y-106075302D01*
X77527842Y-105927342D01*
X77496600Y-105770275D01*
X77496600Y-105610125D01*
X77527842Y-105453058D01*
X77589130Y-105305098D01*
X77678102Y-105171942D01*
X77791342Y-105058702D01*
X77924498Y-104969730D01*
X78072458Y-104908442D01*
X78229525Y-104877200D01*
X78389675Y-104877200D01*
X78546742Y-104908442D01*
X78546742Y-104908442D01*
G37*
G36*
X72546742Y-104908442D02*
X72694702Y-104969730D01*
X72827858Y-105058702D01*
X72941098Y-105171942D01*
X73030070Y-105305098D01*
X73091358Y-105453058D01*
X73122600Y-105610125D01*
X73122600Y-105770275D01*
X73091358Y-105927342D01*
X73030070Y-106075302D01*
X72941098Y-106208458D01*
X72827858Y-106321698D01*
X72694702Y-106410670D01*
X72546742Y-106471958D01*
X72389675Y-106503200D01*
X72229525Y-106503200D01*
X72072458Y-106471958D01*
X71924498Y-106410670D01*
X71791342Y-106321698D01*
X71678102Y-106208458D01*
X71589130Y-106075302D01*
X71527842Y-105927342D01*
X71496600Y-105770275D01*
X71496600Y-105610125D01*
X71527842Y-105453058D01*
X71589130Y-105305098D01*
X71678102Y-105171942D01*
X71791342Y-105058702D01*
X71924498Y-104969730D01*
X72072458Y-104908442D01*
X72229525Y-104877200D01*
X72389675Y-104877200D01*
X72546742Y-104908442D01*
X72546742Y-104908442D01*
G37*
G36*
X78546742Y-99908442D02*
X78694702Y-99969730D01*
X78827858Y-100058702D01*
X78941098Y-100171942D01*
X79030070Y-100305098D01*
X79091358Y-100453058D01*
X79122600Y-100610125D01*
X79122600Y-100770275D01*
X79091358Y-100927342D01*
X79030070Y-101075302D01*
X78941098Y-101208458D01*
X78827858Y-101321698D01*
X78694702Y-101410670D01*
X78546742Y-101471958D01*
X78389675Y-101503200D01*
X78229525Y-101503200D01*
X78072458Y-101471958D01*
X77924498Y-101410670D01*
X77791342Y-101321698D01*
X77678102Y-101208458D01*
X77589130Y-101075302D01*
X77527842Y-100927342D01*
X77496600Y-100770275D01*
X77496600Y-100610125D01*
X77527842Y-100453058D01*
X77589130Y-100305098D01*
X77678102Y-100171942D01*
X77791342Y-100058702D01*
X77924498Y-99969730D01*
X78072458Y-99908442D01*
X78229525Y-99877200D01*
X78389675Y-99877200D01*
X78546742Y-99908442D01*
X78546742Y-99908442D01*
G37*
G36*
X72546742Y-99908442D02*
X72694702Y-99969730D01*
X72827858Y-100058702D01*
X72941098Y-100171942D01*
X73030070Y-100305098D01*
X73091358Y-100453058D01*
X73122600Y-100610125D01*
X73122600Y-100770275D01*
X73091358Y-100927342D01*
X73030070Y-101075302D01*
X72941098Y-101208458D01*
X72827858Y-101321698D01*
X72694702Y-101410670D01*
X72546742Y-101471958D01*
X72389675Y-101503200D01*
X72229525Y-101503200D01*
X72072458Y-101471958D01*
X71924498Y-101410670D01*
X71791342Y-101321698D01*
X71678102Y-101208458D01*
X71589130Y-101075302D01*
X71527842Y-100927342D01*
X71496600Y-100770275D01*
X71496600Y-100610125D01*
X71527842Y-100453058D01*
X71589130Y-100305098D01*
X71678102Y-100171942D01*
X71791342Y-100058702D01*
X71924498Y-99969730D01*
X72072458Y-99908442D01*
X72229525Y-99877200D01*
X72389675Y-99877200D01*
X72546742Y-99908442D01*
X72546742Y-99908442D01*
G37*
G36*
X107296742Y-99908442D02*
X107444702Y-99969730D01*
X107577858Y-100058702D01*
X107691098Y-100171942D01*
X107780070Y-100305098D01*
X107841358Y-100453058D01*
X107872600Y-100610125D01*
X107872600Y-100770275D01*
X107841358Y-100927342D01*
X107780070Y-101075302D01*
X107691098Y-101208458D01*
X107577858Y-101321698D01*
X107444702Y-101410670D01*
X107296742Y-101471958D01*
X107139675Y-101503200D01*
X106979525Y-101503200D01*
X106822458Y-101471958D01*
X106674498Y-101410670D01*
X106541342Y-101321698D01*
X106428102Y-101208458D01*
X106339130Y-101075302D01*
X106277842Y-100927342D01*
X106246600Y-100770275D01*
X106246600Y-100610125D01*
X106277842Y-100453058D01*
X106339130Y-100305098D01*
X106428102Y-100171942D01*
X106541342Y-100058702D01*
X106674498Y-99969730D01*
X106822458Y-99908442D01*
X106979525Y-99877200D01*
X107139675Y-99877200D01*
X107296742Y-99908442D01*
X107296742Y-99908442D01*
G37*
G36*
X115296742Y-99908442D02*
X115444702Y-99969730D01*
X115577858Y-100058702D01*
X115691098Y-100171942D01*
X115780070Y-100305098D01*
X115841358Y-100453058D01*
X115872600Y-100610125D01*
X115872600Y-100770275D01*
X115841358Y-100927342D01*
X115780070Y-101075302D01*
X115691098Y-101208458D01*
X115577858Y-101321698D01*
X115444702Y-101410670D01*
X115296742Y-101471958D01*
X115139675Y-101503200D01*
X114979525Y-101503200D01*
X114822458Y-101471958D01*
X114674498Y-101410670D01*
X114541342Y-101321698D01*
X114428102Y-101208458D01*
X114339130Y-101075302D01*
X114277842Y-100927342D01*
X114246600Y-100770275D01*
X114246600Y-100610125D01*
X114277842Y-100453058D01*
X114339130Y-100305098D01*
X114428102Y-100171942D01*
X114541342Y-100058702D01*
X114674498Y-99969730D01*
X114822458Y-99908442D01*
X114979525Y-99877200D01*
X115139675Y-99877200D01*
X115296742Y-99908442D01*
X115296742Y-99908442D01*
G37*
G36*
X121296742Y-99908442D02*
X121444702Y-99969730D01*
X121577858Y-100058702D01*
X121691098Y-100171942D01*
X121780070Y-100305098D01*
X121841358Y-100453058D01*
X121872600Y-100610125D01*
X121872600Y-100770275D01*
X121841358Y-100927342D01*
X121780070Y-101075302D01*
X121691098Y-101208458D01*
X121577858Y-101321698D01*
X121444702Y-101410670D01*
X121296742Y-101471958D01*
X121139675Y-101503200D01*
X120979525Y-101503200D01*
X120822458Y-101471958D01*
X120674498Y-101410670D01*
X120541342Y-101321698D01*
X120428102Y-101208458D01*
X120339130Y-101075302D01*
X120277842Y-100927342D01*
X120246600Y-100770275D01*
X120246600Y-100610125D01*
X120277842Y-100453058D01*
X120339130Y-100305098D01*
X120428102Y-100171942D01*
X120541342Y-100058702D01*
X120674498Y-99969730D01*
X120822458Y-99908442D01*
X120979525Y-99877200D01*
X121139675Y-99877200D01*
X121296742Y-99908442D01*
X121296742Y-99908442D01*
G37*
G36*
X86546742Y-99908442D02*
X86694702Y-99969730D01*
X86827858Y-100058702D01*
X86941098Y-100171942D01*
X87030070Y-100305098D01*
X87091358Y-100453058D01*
X87122600Y-100610125D01*
X87122600Y-100770275D01*
X87091358Y-100927342D01*
X87030070Y-101075302D01*
X86941098Y-101208458D01*
X86827858Y-101321698D01*
X86694702Y-101410670D01*
X86546742Y-101471958D01*
X86389675Y-101503200D01*
X86229525Y-101503200D01*
X86072458Y-101471958D01*
X85924498Y-101410670D01*
X85791342Y-101321698D01*
X85678102Y-101208458D01*
X85589130Y-101075302D01*
X85527842Y-100927342D01*
X85496600Y-100770275D01*
X85496600Y-100610125D01*
X85527842Y-100453058D01*
X85589130Y-100305098D01*
X85678102Y-100171942D01*
X85791342Y-100058702D01*
X85924498Y-99969730D01*
X86072458Y-99908442D01*
X86229525Y-99877200D01*
X86389675Y-99877200D01*
X86546742Y-99908442D01*
X86546742Y-99908442D01*
G37*
G36*
X92546742Y-99908442D02*
X92694702Y-99969730D01*
X92827858Y-100058702D01*
X92941098Y-100171942D01*
X93030070Y-100305098D01*
X93091358Y-100453058D01*
X93122600Y-100610125D01*
X93122600Y-100770275D01*
X93091358Y-100927342D01*
X93030070Y-101075302D01*
X92941098Y-101208458D01*
X92827858Y-101321698D01*
X92694702Y-101410670D01*
X92546742Y-101471958D01*
X92389675Y-101503200D01*
X92229525Y-101503200D01*
X92072458Y-101471958D01*
X91924498Y-101410670D01*
X91791342Y-101321698D01*
X91678102Y-101208458D01*
X91589130Y-101075302D01*
X91527842Y-100927342D01*
X91496600Y-100770275D01*
X91496600Y-100610125D01*
X91527842Y-100453058D01*
X91589130Y-100305098D01*
X91678102Y-100171942D01*
X91791342Y-100058702D01*
X91924498Y-99969730D01*
X92072458Y-99908442D01*
X92229525Y-99877200D01*
X92389675Y-99877200D01*
X92546742Y-99908442D01*
X92546742Y-99908442D01*
G37*
G36*
X101296742Y-99908442D02*
X101444702Y-99969730D01*
X101577858Y-100058702D01*
X101691098Y-100171942D01*
X101780070Y-100305098D01*
X101841358Y-100453058D01*
X101872600Y-100610125D01*
X101872600Y-100770275D01*
X101841358Y-100927342D01*
X101780070Y-101075302D01*
X101691098Y-101208458D01*
X101577858Y-101321698D01*
X101444702Y-101410670D01*
X101296742Y-101471958D01*
X101139675Y-101503200D01*
X100979525Y-101503200D01*
X100822458Y-101471958D01*
X100674498Y-101410670D01*
X100541342Y-101321698D01*
X100428102Y-101208458D01*
X100339130Y-101075302D01*
X100277842Y-100927342D01*
X100246600Y-100770275D01*
X100246600Y-100610125D01*
X100277842Y-100453058D01*
X100339130Y-100305098D01*
X100428102Y-100171942D01*
X100541342Y-100058702D01*
X100674498Y-99969730D01*
X100822458Y-99908442D01*
X100979525Y-99877200D01*
X101139675Y-99877200D01*
X101296742Y-99908442D01*
X101296742Y-99908442D01*
G37*
G36*
X120616165Y-94429589D02*
X120807434Y-94508815D01*
X120979576Y-94623837D01*
X121125963Y-94770224D01*
X121240985Y-94942366D01*
X121320211Y-95133635D01*
X121360600Y-95336684D01*
X121360600Y-95543716D01*
X121320211Y-95746765D01*
X121240985Y-95938034D01*
X121125963Y-96110176D01*
X120979576Y-96256563D01*
X120807434Y-96371585D01*
X120616165Y-96450811D01*
X120413116Y-96491200D01*
X120206084Y-96491200D01*
X120003035Y-96450811D01*
X119811766Y-96371585D01*
X119639624Y-96256563D01*
X119493237Y-96110176D01*
X119378215Y-95938034D01*
X119298989Y-95746765D01*
X119258600Y-95543716D01*
X119258600Y-95336684D01*
X119298989Y-95133635D01*
X119378215Y-94942366D01*
X119493237Y-94770224D01*
X119639624Y-94623837D01*
X119811766Y-94508815D01*
X120003035Y-94429589D01*
X120206084Y-94389200D01*
X120413116Y-94389200D01*
X120616165Y-94429589D01*
X120616165Y-94429589D01*
G37*
G36*
X77616165Y-94429589D02*
X77807434Y-94508815D01*
X77979576Y-94623837D01*
X78125963Y-94770224D01*
X78240985Y-94942366D01*
X78320211Y-95133635D01*
X78360600Y-95336684D01*
X78360600Y-95543716D01*
X78320211Y-95746765D01*
X78240985Y-95938034D01*
X78125963Y-96110176D01*
X77979576Y-96256563D01*
X77807434Y-96371585D01*
X77616165Y-96450811D01*
X77413116Y-96491200D01*
X77206084Y-96491200D01*
X77003035Y-96450811D01*
X76811766Y-96371585D01*
X76639624Y-96256563D01*
X76493237Y-96110176D01*
X76378215Y-95938034D01*
X76298989Y-95746765D01*
X76258600Y-95543716D01*
X76258600Y-95336684D01*
X76298989Y-95133635D01*
X76378215Y-94942366D01*
X76493237Y-94770224D01*
X76639624Y-94623837D01*
X76811766Y-94508815D01*
X77003035Y-94429589D01*
X77206084Y-94389200D01*
X77413116Y-94389200D01*
X77616165Y-94429589D01*
X77616165Y-94429589D01*
G37*
G36*
X73616165Y-94429589D02*
X73807434Y-94508815D01*
X73979576Y-94623837D01*
X74125963Y-94770224D01*
X74240985Y-94942366D01*
X74320211Y-95133635D01*
X74360600Y-95336684D01*
X74360600Y-95543716D01*
X74320211Y-95746765D01*
X74240985Y-95938034D01*
X74125963Y-96110176D01*
X73979576Y-96256563D01*
X73807434Y-96371585D01*
X73616165Y-96450811D01*
X73413116Y-96491200D01*
X73206084Y-96491200D01*
X73003035Y-96450811D01*
X72811766Y-96371585D01*
X72639624Y-96256563D01*
X72493237Y-96110176D01*
X72378215Y-95938034D01*
X72298989Y-95746765D01*
X72258600Y-95543716D01*
X72258600Y-95336684D01*
X72298989Y-95133635D01*
X72378215Y-94942366D01*
X72493237Y-94770224D01*
X72639624Y-94623837D01*
X72811766Y-94508815D01*
X73003035Y-94429589D01*
X73206084Y-94389200D01*
X73413116Y-94389200D01*
X73616165Y-94429589D01*
X73616165Y-94429589D01*
G37*
G36*
X91616165Y-94429589D02*
X91807434Y-94508815D01*
X91979576Y-94623837D01*
X92125963Y-94770224D01*
X92240985Y-94942366D01*
X92320211Y-95133635D01*
X92360600Y-95336684D01*
X92360600Y-95543716D01*
X92320211Y-95746765D01*
X92240985Y-95938034D01*
X92125963Y-96110176D01*
X91979576Y-96256563D01*
X91807434Y-96371585D01*
X91616165Y-96450811D01*
X91413116Y-96491200D01*
X91206084Y-96491200D01*
X91003035Y-96450811D01*
X90811766Y-96371585D01*
X90639624Y-96256563D01*
X90493237Y-96110176D01*
X90378215Y-95938034D01*
X90298989Y-95746765D01*
X90258600Y-95543716D01*
X90258600Y-95336684D01*
X90298989Y-95133635D01*
X90378215Y-94942366D01*
X90493237Y-94770224D01*
X90639624Y-94623837D01*
X90811766Y-94508815D01*
X91003035Y-94429589D01*
X91206084Y-94389200D01*
X91413116Y-94389200D01*
X91616165Y-94429589D01*
X91616165Y-94429589D01*
G37*
G36*
X87616165Y-94429589D02*
X87807434Y-94508815D01*
X87979576Y-94623837D01*
X88125963Y-94770224D01*
X88240985Y-94942366D01*
X88320211Y-95133635D01*
X88360600Y-95336684D01*
X88360600Y-95543716D01*
X88320211Y-95746765D01*
X88240985Y-95938034D01*
X88125963Y-96110176D01*
X87979576Y-96256563D01*
X87807434Y-96371585D01*
X87616165Y-96450811D01*
X87413116Y-96491200D01*
X87206084Y-96491200D01*
X87003035Y-96450811D01*
X86811766Y-96371585D01*
X86639624Y-96256563D01*
X86493237Y-96110176D01*
X86378215Y-95938034D01*
X86298989Y-95746765D01*
X86258600Y-95543716D01*
X86258600Y-95336684D01*
X86298989Y-95133635D01*
X86378215Y-94942366D01*
X86493237Y-94770224D01*
X86639624Y-94623837D01*
X86811766Y-94508815D01*
X87003035Y-94429589D01*
X87206084Y-94389200D01*
X87413116Y-94389200D01*
X87616165Y-94429589D01*
X87616165Y-94429589D01*
G37*
G36*
X102616165Y-94429589D02*
X102807434Y-94508815D01*
X102979576Y-94623837D01*
X103125963Y-94770224D01*
X103240985Y-94942366D01*
X103320211Y-95133635D01*
X103360600Y-95336684D01*
X103360600Y-95543716D01*
X103320211Y-95746765D01*
X103240985Y-95938034D01*
X103125963Y-96110176D01*
X102979576Y-96256563D01*
X102807434Y-96371585D01*
X102616165Y-96450811D01*
X102413116Y-96491200D01*
X102206084Y-96491200D01*
X102003035Y-96450811D01*
X101811766Y-96371585D01*
X101639624Y-96256563D01*
X101493237Y-96110176D01*
X101378215Y-95938034D01*
X101298989Y-95746765D01*
X101258600Y-95543716D01*
X101258600Y-95336684D01*
X101298989Y-95133635D01*
X101378215Y-94942366D01*
X101493237Y-94770224D01*
X101639624Y-94623837D01*
X101811766Y-94508815D01*
X102003035Y-94429589D01*
X102206084Y-94389200D01*
X102413116Y-94389200D01*
X102616165Y-94429589D01*
X102616165Y-94429589D01*
G37*
G36*
X106616165Y-94429589D02*
X106807434Y-94508815D01*
X106979576Y-94623837D01*
X107125963Y-94770224D01*
X107240985Y-94942366D01*
X107320211Y-95133635D01*
X107360600Y-95336684D01*
X107360600Y-95543716D01*
X107320211Y-95746765D01*
X107240985Y-95938034D01*
X107125963Y-96110176D01*
X106979576Y-96256563D01*
X106807434Y-96371585D01*
X106616165Y-96450811D01*
X106413116Y-96491200D01*
X106206084Y-96491200D01*
X106003035Y-96450811D01*
X105811766Y-96371585D01*
X105639624Y-96256563D01*
X105493237Y-96110176D01*
X105378215Y-95938034D01*
X105298989Y-95746765D01*
X105258600Y-95543716D01*
X105258600Y-95336684D01*
X105298989Y-95133635D01*
X105378215Y-94942366D01*
X105493237Y-94770224D01*
X105639624Y-94623837D01*
X105811766Y-94508815D01*
X106003035Y-94429589D01*
X106206084Y-94389200D01*
X106413116Y-94389200D01*
X106616165Y-94429589D01*
X106616165Y-94429589D01*
G37*
G36*
X116616165Y-94429589D02*
X116807434Y-94508815D01*
X116979576Y-94623837D01*
X117125963Y-94770224D01*
X117240985Y-94942366D01*
X117320211Y-95133635D01*
X117360600Y-95336684D01*
X117360600Y-95543716D01*
X117320211Y-95746765D01*
X117240985Y-95938034D01*
X117125963Y-96110176D01*
X116979576Y-96256563D01*
X116807434Y-96371585D01*
X116616165Y-96450811D01*
X116413116Y-96491200D01*
X116206084Y-96491200D01*
X116003035Y-96450811D01*
X115811766Y-96371585D01*
X115639624Y-96256563D01*
X115493237Y-96110176D01*
X115378215Y-95938034D01*
X115298989Y-95746765D01*
X115258600Y-95543716D01*
X115258600Y-95336684D01*
X115298989Y-95133635D01*
X115378215Y-94942366D01*
X115493237Y-94770224D01*
X115639624Y-94623837D01*
X115811766Y-94508815D01*
X116003035Y-94429589D01*
X116206084Y-94389200D01*
X116413116Y-94389200D01*
X116616165Y-94429589D01*
X116616165Y-94429589D01*
G37*
G36*
X77616165Y-50929589D02*
X77807434Y-51008815D01*
X77979576Y-51123837D01*
X78125963Y-51270224D01*
X78240985Y-51442366D01*
X78320211Y-51633635D01*
X78360600Y-51836684D01*
X78360600Y-52043716D01*
X78320211Y-52246765D01*
X78240985Y-52438034D01*
X78125963Y-52610176D01*
X77979576Y-52756563D01*
X77807434Y-52871585D01*
X77616165Y-52950811D01*
X77413116Y-52991200D01*
X77206084Y-52991200D01*
X77003035Y-52950811D01*
X76811766Y-52871585D01*
X76639624Y-52756563D01*
X76493237Y-52610176D01*
X76378215Y-52438034D01*
X76298989Y-52246765D01*
X76258600Y-52043716D01*
X76258600Y-51836684D01*
X76298989Y-51633635D01*
X76378215Y-51442366D01*
X76493237Y-51270224D01*
X76639624Y-51123837D01*
X76811766Y-51008815D01*
X77003035Y-50929589D01*
X77206084Y-50889200D01*
X77413116Y-50889200D01*
X77616165Y-50929589D01*
X77616165Y-50929589D01*
G37*
G36*
X91616165Y-50929589D02*
X91807434Y-51008815D01*
X91979576Y-51123837D01*
X92125963Y-51270224D01*
X92240985Y-51442366D01*
X92320211Y-51633635D01*
X92360600Y-51836684D01*
X92360600Y-52043716D01*
X92320211Y-52246765D01*
X92240985Y-52438034D01*
X92125963Y-52610176D01*
X91979576Y-52756563D01*
X91807434Y-52871585D01*
X91616165Y-52950811D01*
X91413116Y-52991200D01*
X91206084Y-52991200D01*
X91003035Y-52950811D01*
X90811766Y-52871585D01*
X90639624Y-52756563D01*
X90493237Y-52610176D01*
X90378215Y-52438034D01*
X90298989Y-52246765D01*
X90258600Y-52043716D01*
X90258600Y-51836684D01*
X90298989Y-51633635D01*
X90378215Y-51442366D01*
X90493237Y-51270224D01*
X90639624Y-51123837D01*
X90811766Y-51008815D01*
X91003035Y-50929589D01*
X91206084Y-50889200D01*
X91413116Y-50889200D01*
X91616165Y-50929589D01*
X91616165Y-50929589D01*
G37*
G36*
X106616165Y-50929589D02*
X106807434Y-51008815D01*
X106979576Y-51123837D01*
X107125963Y-51270224D01*
X107240985Y-51442366D01*
X107320211Y-51633635D01*
X107360600Y-51836684D01*
X107360600Y-52043716D01*
X107320211Y-52246765D01*
X107240985Y-52438034D01*
X107125963Y-52610176D01*
X106979576Y-52756563D01*
X106807434Y-52871585D01*
X106616165Y-52950811D01*
X106413116Y-52991200D01*
X106206084Y-52991200D01*
X106003035Y-52950811D01*
X105811766Y-52871585D01*
X105639624Y-52756563D01*
X105493237Y-52610176D01*
X105378215Y-52438034D01*
X105298989Y-52246765D01*
X105258600Y-52043716D01*
X105258600Y-51836684D01*
X105298989Y-51633635D01*
X105378215Y-51442366D01*
X105493237Y-51270224D01*
X105639624Y-51123837D01*
X105811766Y-51008815D01*
X106003035Y-50929589D01*
X106206084Y-50889200D01*
X106413116Y-50889200D01*
X106616165Y-50929589D01*
X106616165Y-50929589D01*
G37*
G36*
X120616165Y-50929589D02*
X120807434Y-51008815D01*
X120979576Y-51123837D01*
X121125963Y-51270224D01*
X121240985Y-51442366D01*
X121320211Y-51633635D01*
X121360600Y-51836684D01*
X121360600Y-52043716D01*
X121320211Y-52246765D01*
X121240985Y-52438034D01*
X121125963Y-52610176D01*
X120979576Y-52756563D01*
X120807434Y-52871585D01*
X120616165Y-52950811D01*
X120413116Y-52991200D01*
X120206084Y-52991200D01*
X120003035Y-52950811D01*
X119811766Y-52871585D01*
X119639624Y-52756563D01*
X119493237Y-52610176D01*
X119378215Y-52438034D01*
X119298989Y-52246765D01*
X119258600Y-52043716D01*
X119258600Y-51836684D01*
X119298989Y-51633635D01*
X119378215Y-51442366D01*
X119493237Y-51270224D01*
X119639624Y-51123837D01*
X119811766Y-51008815D01*
X120003035Y-50929589D01*
X120206084Y-50889200D01*
X120413116Y-50889200D01*
X120616165Y-50929589D01*
X120616165Y-50929589D01*
G37*
M02*
