G04 #@! TF.GenerationSoftware,KiCad,Pcbnew,(5.0.2-5-10.14)*
G04 #@! TF.CreationDate,2019-06-16T13:43:50-04:00*
G04 #@! TF.ProjectId,sequencer,73657175-656e-4636-9572-2e6b69636164,rev?*
G04 #@! TF.SameCoordinates,Original*
G04 #@! TF.FileFunction,Copper,L2,Bot*
G04 #@! TF.FilePolarity,Positive*
%FSLAX46Y46*%
G04 Gerber Fmt 4.6, Leading zero omitted, Abs format (unit mm)*
G04 Created by KiCad (PCBNEW (5.0.2-5-10.14)) date Sunday, June 16, 2019 at 01:43:50 PM*
%MOMM*%
%LPD*%
G01*
G04 APERTURE LIST*
G04 #@! TA.AperFunction,ComponentPad*
%ADD10C,1.800000*%
G04 #@! TD*
G04 #@! TA.AperFunction,ComponentPad*
%ADD11R,1.800000X1.800000*%
G04 #@! TD*
G04 #@! TA.AperFunction,ComponentPad*
%ADD12R,1.700000X1.700000*%
G04 #@! TD*
G04 #@! TA.AperFunction,ComponentPad*
%ADD13O,1.700000X1.700000*%
G04 #@! TD*
G04 #@! TA.AperFunction,ComponentPad*
%ADD14C,2.000000*%
G04 #@! TD*
G04 #@! TA.AperFunction,WasherPad*
%ADD15C,4.000000*%
G04 #@! TD*
G04 #@! TA.AperFunction,ComponentPad*
%ADD16C,1.524000*%
G04 #@! TD*
G04 #@! TA.AperFunction,WasherPad*
%ADD17C,1.700000*%
G04 #@! TD*
G04 #@! TA.AperFunction,ComponentPad*
%ADD18C,2.250000*%
G04 #@! TD*
G04 #@! TA.AperFunction,ViaPad*
%ADD19C,0.800000*%
G04 #@! TD*
G04 #@! TA.AperFunction,Conductor*
%ADD20C,0.250000*%
G04 #@! TD*
G04 #@! TA.AperFunction,Conductor*
%ADD21C,0.500000*%
G04 #@! TD*
G04 #@! TA.AperFunction,Conductor*
%ADD22C,0.254000*%
G04 #@! TD*
G04 APERTURE END LIST*
D10*
G04 #@! TO.P,D7,2*
G04 #@! TO.N,Net-(D7-Pad2)*
X76599600Y-113190200D03*
D11*
G04 #@! TO.P,D7,1*
G04 #@! TO.N,GND*
X74059600Y-113190200D03*
G04 #@! TD*
G04 #@! TO.P,D8,1*
G04 #@! TO.N,GND*
X88059600Y-113190200D03*
D10*
G04 #@! TO.P,D8,2*
G04 #@! TO.N,Net-(D8-Pad2)*
X90599600Y-113190200D03*
G04 #@! TD*
D11*
G04 #@! TO.P,D9,1*
G04 #@! TO.N,GND*
X102809600Y-113190200D03*
D10*
G04 #@! TO.P,D9,2*
G04 #@! TO.N,Net-(D9-Pad2)*
X105349600Y-113190200D03*
G04 #@! TD*
G04 #@! TO.P,D10,2*
G04 #@! TO.N,Net-(D10-Pad2)*
X119349600Y-113190200D03*
D11*
G04 #@! TO.P,D10,1*
G04 #@! TO.N,GND*
X116809600Y-113190200D03*
G04 #@! TD*
D12*
G04 #@! TO.P,J3,1*
G04 #@! TO.N,Net-(J3-Pad1)*
X67691000Y-150190200D03*
D13*
G04 #@! TO.P,J3,2*
G04 #@! TO.N,Net-(J3-Pad2)*
X65151000Y-150190200D03*
G04 #@! TO.P,J3,3*
G04 #@! TO.N,GND*
X67691000Y-147650200D03*
G04 #@! TO.P,J3,4*
X65151000Y-147650200D03*
G04 #@! TO.P,J3,5*
X67691000Y-145110200D03*
G04 #@! TO.P,J3,6*
X65151000Y-145110200D03*
G04 #@! TO.P,J3,7*
X67691000Y-142570200D03*
G04 #@! TO.P,J3,8*
X65151000Y-142570200D03*
G04 #@! TO.P,J3,9*
G04 #@! TO.N,+12V*
X67691000Y-140030200D03*
G04 #@! TO.P,J3,10*
X65151000Y-140030200D03*
G04 #@! TO.P,J3,11*
G04 #@! TO.N,Net-(J3-Pad11)*
X67691000Y-137490200D03*
G04 #@! TO.P,J3,12*
G04 #@! TO.N,Net-(J3-Pad12)*
X65151000Y-137490200D03*
G04 #@! TO.P,J3,13*
G04 #@! TO.N,Net-(J3-Pad13)*
X67691000Y-134950200D03*
G04 #@! TO.P,J3,14*
G04 #@! TO.N,Net-(J3-Pad14)*
X65151000Y-134950200D03*
G04 #@! TO.P,J3,15*
G04 #@! TO.N,Net-(J3-Pad15)*
X67691000Y-132410200D03*
G04 #@! TO.P,J3,16*
G04 #@! TO.N,Net-(J3-Pad16)*
X65151000Y-132410200D03*
G04 #@! TD*
D14*
G04 #@! TO.P,P1,1*
G04 #@! TO.N,Net-(B1-Pad1)*
X77309600Y-95440200D03*
G04 #@! TO.P,P1,2*
X73309600Y-95440200D03*
G04 #@! TO.P,P1,3*
G04 #@! TO.N,Net-(P1-Pad3)*
X77309600Y-51940200D03*
G04 #@! TD*
G04 #@! TO.P,P2,1*
G04 #@! TO.N,Net-(B2-Pad1)*
X91309600Y-95440200D03*
G04 #@! TO.P,P2,2*
X87309600Y-95440200D03*
G04 #@! TO.P,P2,3*
G04 #@! TO.N,Net-(P2-Pad3)*
X91309600Y-51940200D03*
G04 #@! TD*
G04 #@! TO.P,P3,3*
G04 #@! TO.N,Net-(P3-Pad3)*
X106309600Y-51940200D03*
G04 #@! TO.P,P3,2*
G04 #@! TO.N,Net-(B3-Pad1)*
X102309600Y-95440200D03*
G04 #@! TO.P,P3,1*
X106309600Y-95440200D03*
G04 #@! TD*
G04 #@! TO.P,P4,3*
G04 #@! TO.N,Net-(P4-Pad3)*
X120309600Y-51940200D03*
G04 #@! TO.P,P4,2*
G04 #@! TO.N,Net-(B4-Pad1)*
X116309600Y-95440200D03*
G04 #@! TO.P,P4,1*
X120309600Y-95440200D03*
G04 #@! TD*
D10*
G04 #@! TO.P,RV1,3*
G04 #@! TO.N,Net-(R2-Pad1)*
X91809600Y-141190200D03*
G04 #@! TO.P,RV1,2*
X91809600Y-138690200D03*
G04 #@! TO.P,RV1,1*
G04 #@! TO.N,Net-(R1-Pad2)*
X91809600Y-136190200D03*
D15*
G04 #@! TO.P,RV1,*
G04 #@! TO.N,*
X84809600Y-143090200D03*
X84809600Y-134290200D03*
G04 #@! TD*
G04 #@! TO.P,RV2,*
G04 #@! TO.N,*
X108559600Y-143090200D03*
X108559600Y-134290200D03*
D10*
G04 #@! TO.P,RV2,1*
G04 #@! TO.N,GND*
X101559600Y-141190200D03*
G04 #@! TO.P,RV2,2*
G04 #@! TO.N,Net-(D1-Pad2)*
X101559600Y-138690200D03*
G04 #@! TO.P,RV2,3*
G04 #@! TO.N,Net-(RV2-Pad3)*
X101559600Y-136190200D03*
G04 #@! TD*
D16*
G04 #@! TO.P,B1,1*
G04 #@! TO.N,Net-(B1-Pad1)*
X78309600Y-100690200D03*
G04 #@! TO.P,B1,2*
G04 #@! TO.N,Net-(B1-Pad2)*
X72309600Y-100690200D03*
G04 #@! TO.P,B1,3*
G04 #@! TO.N,Net-(B1-Pad3)*
X78309600Y-105690200D03*
G04 #@! TO.P,B1,4*
G04 #@! TO.N,N/C*
X72309600Y-105690200D03*
G04 #@! TD*
G04 #@! TO.P,B2,1*
G04 #@! TO.N,Net-(B2-Pad1)*
X92309600Y-100690200D03*
G04 #@! TO.P,B2,2*
G04 #@! TO.N,Net-(B2-Pad2)*
X86309600Y-100690200D03*
G04 #@! TO.P,B2,3*
G04 #@! TO.N,Net-(B2-Pad3)*
X92309600Y-105690200D03*
G04 #@! TO.P,B2,4*
G04 #@! TO.N,N/C*
X86309600Y-105690200D03*
G04 #@! TD*
G04 #@! TO.P,B3,4*
G04 #@! TO.N,N/C*
X101059600Y-105690200D03*
G04 #@! TO.P,B3,3*
G04 #@! TO.N,Net-(B3-Pad3)*
X107059600Y-105690200D03*
G04 #@! TO.P,B3,2*
G04 #@! TO.N,Net-(B3-Pad2)*
X101059600Y-100690200D03*
G04 #@! TO.P,B3,1*
G04 #@! TO.N,Net-(B3-Pad1)*
X107059600Y-100690200D03*
G04 #@! TD*
G04 #@! TO.P,B4,4*
G04 #@! TO.N,N/C*
X115059600Y-105690200D03*
G04 #@! TO.P,B4,3*
G04 #@! TO.N,Net-(B4-Pad3)*
X121059600Y-105690200D03*
G04 #@! TO.P,B4,2*
G04 #@! TO.N,Net-(B4-Pad2)*
X115059600Y-100690200D03*
G04 #@! TO.P,B4,1*
G04 #@! TO.N,Net-(B4-Pad1)*
X121059600Y-100690200D03*
G04 #@! TD*
D17*
G04 #@! TO.P,J1,*
G04 #@! TO.N,*
X81712000Y-150241000D03*
X88392000Y-150241000D03*
D18*
G04 #@! TO.P,J1,4*
G04 #@! TO.N,Net-(J1-Pad4)*
X82852000Y-154291000D03*
G04 #@! TO.P,J1,3*
G04 #@! TO.N,Net-(J1-Pad3)*
X87302000Y-154291000D03*
G04 #@! TO.P,J1,2*
G04 #@! TO.N,Net-(C4-Pad2)*
X80552000Y-152791000D03*
G04 #@! TO.P,J1,1*
G04 #@! TO.N,GND*
X89452000Y-152791000D03*
G04 #@! TD*
G04 #@! TO.P,J2,1*
G04 #@! TO.N,GND*
X114344000Y-152791000D03*
G04 #@! TO.P,J2,2*
G04 #@! TO.N,Net-(C5-Pad1)*
X105444000Y-152791000D03*
G04 #@! TO.P,J2,3*
G04 #@! TO.N,Net-(J2-Pad3)*
X112194000Y-154291000D03*
G04 #@! TO.P,J2,4*
G04 #@! TO.N,Net-(J2-Pad4)*
X107744000Y-154291000D03*
D17*
G04 #@! TO.P,J2,*
G04 #@! TO.N,*
X113284000Y-150241000D03*
X106604000Y-150241000D03*
G04 #@! TD*
D19*
G04 #@! TO.N,Net-(C2-Pad1)*
X90059600Y-126190200D03*
X90059600Y-122690200D03*
G04 #@! TO.N,Net-(D3-Pad1)*
X110559600Y-116190200D03*
X96809600Y-116190200D03*
X82059600Y-116190200D03*
X68059600Y-116190200D03*
X74809600Y-128190200D03*
G04 #@! TO.N,Net-(RV2-Pad3)*
X82559600Y-121940200D03*
G04 #@! TD*
D20*
G04 #@! TO.N,Net-(C2-Pad1)*
X90059600Y-126190200D02*
X90059600Y-122690200D01*
D21*
G04 #@! TO.N,Net-(D3-Pad1)*
X110559600Y-116190200D02*
X96809600Y-116190200D01*
X96809600Y-116190200D02*
X82059600Y-116190200D01*
X82059600Y-116190200D02*
X68059600Y-116190200D01*
X68059600Y-121440200D02*
X74809600Y-128190200D01*
X68059600Y-116190200D02*
X68059600Y-121440200D01*
D20*
G04 #@! TO.N,Net-(RV2-Pad3)*
X96809600Y-136190200D02*
X101559600Y-136190200D01*
X82559600Y-121940200D02*
X96809600Y-136190200D01*
G04 #@! TD*
D22*
G04 #@! TO.N,GND*
G36*
X75674600Y-52101233D02*
X75737432Y-52417112D01*
X75860682Y-52714663D01*
X76039613Y-52982452D01*
X76267348Y-53210187D01*
X76535137Y-53389118D01*
X76832688Y-53512368D01*
X77148567Y-53575200D01*
X77470633Y-53575200D01*
X77786512Y-53512368D01*
X78084063Y-53389118D01*
X78351852Y-53210187D01*
X78579587Y-52982452D01*
X78758518Y-52714663D01*
X78881768Y-52417112D01*
X78944600Y-52101233D01*
X78944600Y-51850200D01*
X89674600Y-51850200D01*
X89674600Y-52101233D01*
X89737432Y-52417112D01*
X89860682Y-52714663D01*
X90039613Y-52982452D01*
X90267348Y-53210187D01*
X90535137Y-53389118D01*
X90832688Y-53512368D01*
X91148567Y-53575200D01*
X91470633Y-53575200D01*
X91786512Y-53512368D01*
X92084063Y-53389118D01*
X92351852Y-53210187D01*
X92579587Y-52982452D01*
X92758518Y-52714663D01*
X92881768Y-52417112D01*
X92944600Y-52101233D01*
X92944600Y-51850200D01*
X104674600Y-51850200D01*
X104674600Y-52101233D01*
X104737432Y-52417112D01*
X104860682Y-52714663D01*
X105039613Y-52982452D01*
X105267348Y-53210187D01*
X105535137Y-53389118D01*
X105832688Y-53512368D01*
X106148567Y-53575200D01*
X106470633Y-53575200D01*
X106786512Y-53512368D01*
X107084063Y-53389118D01*
X107351852Y-53210187D01*
X107579587Y-52982452D01*
X107758518Y-52714663D01*
X107881768Y-52417112D01*
X107944600Y-52101233D01*
X107944600Y-51850200D01*
X118674600Y-51850200D01*
X118674600Y-52101233D01*
X118737432Y-52417112D01*
X118860682Y-52714663D01*
X119039613Y-52982452D01*
X119267348Y-53210187D01*
X119535137Y-53389118D01*
X119832688Y-53512368D01*
X120148567Y-53575200D01*
X120470633Y-53575200D01*
X120786512Y-53512368D01*
X121084063Y-53389118D01*
X121351852Y-53210187D01*
X121579587Y-52982452D01*
X121758518Y-52714663D01*
X121881768Y-52417112D01*
X121944600Y-52101233D01*
X121944600Y-51850200D01*
X128938816Y-51850200D01*
X128603898Y-51890137D01*
X128166778Y-52032166D01*
X127765570Y-52256394D01*
X127415555Y-52554280D01*
X127130066Y-52914477D01*
X126919976Y-53323267D01*
X126793289Y-53765077D01*
X126754830Y-54223081D01*
X126806062Y-54679832D01*
X126945036Y-55117933D01*
X127166458Y-55520697D01*
X127461893Y-55872783D01*
X127820089Y-56160780D01*
X128227401Y-56373718D01*
X128668317Y-56503486D01*
X129126041Y-56545143D01*
X129583139Y-56497100D01*
X130022199Y-56361188D01*
X130426499Y-56142583D01*
X130780639Y-55849614D01*
X131071130Y-55493437D01*
X131286906Y-55087621D01*
X131419749Y-54647622D01*
X131449601Y-54343171D01*
X131449600Y-156512974D01*
X131406077Y-156168453D01*
X131261000Y-155732335D01*
X131033976Y-155332702D01*
X130733654Y-154984775D01*
X130371472Y-154701808D01*
X129961226Y-154494577D01*
X129518541Y-154370978D01*
X129060281Y-154335716D01*
X128603898Y-154390137D01*
X128166778Y-154532166D01*
X127765570Y-154756394D01*
X127415555Y-155054280D01*
X127130066Y-155414477D01*
X126919976Y-155823267D01*
X126793289Y-156265077D01*
X126754830Y-156723081D01*
X126806062Y-157179832D01*
X126945036Y-157617933D01*
X127166458Y-158020697D01*
X127461893Y-158372783D01*
X127820089Y-158660780D01*
X128227401Y-158873718D01*
X128668317Y-159003486D01*
X128961848Y-159030200D01*
X64468214Y-159030200D01*
X64783139Y-158997100D01*
X65222199Y-158861188D01*
X65626499Y-158642583D01*
X65980639Y-158349614D01*
X66271130Y-157993437D01*
X66486906Y-157587621D01*
X66619749Y-157147622D01*
X66664600Y-156690200D01*
X66663682Y-156624445D01*
X66606077Y-156168453D01*
X66461000Y-155732335D01*
X66233976Y-155332702D01*
X65933654Y-154984775D01*
X65571472Y-154701808D01*
X65161226Y-154494577D01*
X64718541Y-154370978D01*
X64260281Y-154335716D01*
X63803898Y-154390137D01*
X63366778Y-154532166D01*
X62965570Y-154756394D01*
X62615555Y-155054280D01*
X62330066Y-155414477D01*
X62119976Y-155823267D01*
X61993289Y-156265077D01*
X61969600Y-156547187D01*
X61969600Y-152617655D01*
X78792000Y-152617655D01*
X78792000Y-152964345D01*
X78859636Y-153304373D01*
X78992308Y-153624673D01*
X79184919Y-153912935D01*
X79430065Y-154158081D01*
X79718327Y-154350692D01*
X80038627Y-154483364D01*
X80378655Y-154551000D01*
X80725345Y-154551000D01*
X81065373Y-154483364D01*
X81093468Y-154471727D01*
X81159636Y-154804373D01*
X81292308Y-155124673D01*
X81484919Y-155412935D01*
X81730065Y-155658081D01*
X82018327Y-155850692D01*
X82338627Y-155983364D01*
X82678655Y-156051000D01*
X83025345Y-156051000D01*
X83365373Y-155983364D01*
X83685673Y-155850692D01*
X83973935Y-155658081D01*
X84219081Y-155412935D01*
X84411692Y-155124673D01*
X84544364Y-154804373D01*
X84612000Y-154464345D01*
X84612000Y-154117655D01*
X85542000Y-154117655D01*
X85542000Y-154464345D01*
X85609636Y-154804373D01*
X85742308Y-155124673D01*
X85934919Y-155412935D01*
X86180065Y-155658081D01*
X86468327Y-155850692D01*
X86788627Y-155983364D01*
X87128655Y-156051000D01*
X87475345Y-156051000D01*
X87815373Y-155983364D01*
X88135673Y-155850692D01*
X88423935Y-155658081D01*
X88669081Y-155412935D01*
X88861692Y-155124673D01*
X88994364Y-154804373D01*
X89053644Y-154506355D01*
X89163705Y-154535860D01*
X89509650Y-154558576D01*
X89853380Y-154513366D01*
X90181685Y-154401966D01*
X90386079Y-154292714D01*
X90496926Y-154015531D01*
X89452000Y-152970605D01*
X89437858Y-152984748D01*
X89258253Y-152805143D01*
X89272395Y-152791000D01*
X89631605Y-152791000D01*
X90676531Y-153835926D01*
X90953714Y-153725079D01*
X91107089Y-153414160D01*
X91196860Y-153079295D01*
X91219576Y-152733350D01*
X91204359Y-152617655D01*
X103684000Y-152617655D01*
X103684000Y-152964345D01*
X103751636Y-153304373D01*
X103884308Y-153624673D01*
X104076919Y-153912935D01*
X104322065Y-154158081D01*
X104610327Y-154350692D01*
X104930627Y-154483364D01*
X105270655Y-154551000D01*
X105617345Y-154551000D01*
X105957373Y-154483364D01*
X105985468Y-154471727D01*
X106051636Y-154804373D01*
X106184308Y-155124673D01*
X106376919Y-155412935D01*
X106622065Y-155658081D01*
X106910327Y-155850692D01*
X107230627Y-155983364D01*
X107570655Y-156051000D01*
X107917345Y-156051000D01*
X108257373Y-155983364D01*
X108577673Y-155850692D01*
X108865935Y-155658081D01*
X109111081Y-155412935D01*
X109303692Y-155124673D01*
X109436364Y-154804373D01*
X109504000Y-154464345D01*
X109504000Y-154117655D01*
X110434000Y-154117655D01*
X110434000Y-154464345D01*
X110501636Y-154804373D01*
X110634308Y-155124673D01*
X110826919Y-155412935D01*
X111072065Y-155658081D01*
X111360327Y-155850692D01*
X111680627Y-155983364D01*
X112020655Y-156051000D01*
X112367345Y-156051000D01*
X112707373Y-155983364D01*
X113027673Y-155850692D01*
X113315935Y-155658081D01*
X113561081Y-155412935D01*
X113753692Y-155124673D01*
X113886364Y-154804373D01*
X113945644Y-154506355D01*
X114055705Y-154535860D01*
X114401650Y-154558576D01*
X114745380Y-154513366D01*
X115073685Y-154401966D01*
X115278079Y-154292714D01*
X115388926Y-154015531D01*
X114344000Y-152970605D01*
X114329858Y-152984748D01*
X114150253Y-152805143D01*
X114164395Y-152791000D01*
X114523605Y-152791000D01*
X115568531Y-153835926D01*
X115845714Y-153725079D01*
X115999089Y-153414160D01*
X116088860Y-153079295D01*
X116111576Y-152733350D01*
X116066366Y-152389620D01*
X115954966Y-152061315D01*
X115845714Y-151856921D01*
X115568531Y-151746074D01*
X114523605Y-152791000D01*
X114164395Y-152791000D01*
X114150253Y-152776858D01*
X114329858Y-152597253D01*
X114344000Y-152611395D01*
X115388926Y-151566469D01*
X115278079Y-151289286D01*
X114967160Y-151135911D01*
X114632295Y-151046140D01*
X114536232Y-151039832D01*
X114599990Y-150944411D01*
X114711932Y-150674158D01*
X114769000Y-150387260D01*
X114769000Y-150094740D01*
X114711932Y-149807842D01*
X114599990Y-149537589D01*
X114437475Y-149294368D01*
X114230632Y-149087525D01*
X113987411Y-148925010D01*
X113717158Y-148813068D01*
X113430260Y-148756000D01*
X113137740Y-148756000D01*
X112850842Y-148813068D01*
X112580589Y-148925010D01*
X112337368Y-149087525D01*
X112130525Y-149294368D01*
X111968010Y-149537589D01*
X111856068Y-149807842D01*
X111799000Y-150094740D01*
X111799000Y-150387260D01*
X111856068Y-150674158D01*
X111968010Y-150944411D01*
X112130525Y-151187632D01*
X112337368Y-151394475D01*
X112580589Y-151556990D01*
X112850842Y-151668932D01*
X113089870Y-151716478D01*
X113119467Y-151746075D01*
X112842286Y-151856921D01*
X112688911Y-152167840D01*
X112599140Y-152502705D01*
X112594317Y-152576148D01*
X112367345Y-152531000D01*
X112020655Y-152531000D01*
X111680627Y-152598636D01*
X111360327Y-152731308D01*
X111072065Y-152923919D01*
X110826919Y-153169065D01*
X110634308Y-153457327D01*
X110501636Y-153777627D01*
X110434000Y-154117655D01*
X109504000Y-154117655D01*
X109436364Y-153777627D01*
X109303692Y-153457327D01*
X109111081Y-153169065D01*
X108865935Y-152923919D01*
X108577673Y-152731308D01*
X108257373Y-152598636D01*
X107917345Y-152531000D01*
X107570655Y-152531000D01*
X107230627Y-152598636D01*
X107202532Y-152610273D01*
X107136364Y-152277627D01*
X107003692Y-151957327D01*
X106837525Y-151708642D01*
X107037158Y-151668932D01*
X107307411Y-151556990D01*
X107550632Y-151394475D01*
X107757475Y-151187632D01*
X107919990Y-150944411D01*
X108031932Y-150674158D01*
X108089000Y-150387260D01*
X108089000Y-150094740D01*
X108031932Y-149807842D01*
X107919990Y-149537589D01*
X107757475Y-149294368D01*
X107550632Y-149087525D01*
X107307411Y-148925010D01*
X107037158Y-148813068D01*
X106750260Y-148756000D01*
X106457740Y-148756000D01*
X106170842Y-148813068D01*
X105900589Y-148925010D01*
X105657368Y-149087525D01*
X105450525Y-149294368D01*
X105288010Y-149537589D01*
X105176068Y-149807842D01*
X105119000Y-150094740D01*
X105119000Y-150387260D01*
X105176068Y-150674158D01*
X105288010Y-150944411D01*
X105345867Y-151031000D01*
X105270655Y-151031000D01*
X104930627Y-151098636D01*
X104610327Y-151231308D01*
X104322065Y-151423919D01*
X104076919Y-151669065D01*
X103884308Y-151957327D01*
X103751636Y-152277627D01*
X103684000Y-152617655D01*
X91204359Y-152617655D01*
X91174366Y-152389620D01*
X91062966Y-152061315D01*
X90953714Y-151856921D01*
X90676531Y-151746074D01*
X89631605Y-152791000D01*
X89272395Y-152791000D01*
X89258253Y-152776858D01*
X89437858Y-152597253D01*
X89452000Y-152611395D01*
X90496926Y-151566469D01*
X90386079Y-151289286D01*
X90075160Y-151135911D01*
X89740295Y-151046140D01*
X89644232Y-151039832D01*
X89707990Y-150944411D01*
X89819932Y-150674158D01*
X89877000Y-150387260D01*
X89877000Y-150094740D01*
X89819932Y-149807842D01*
X89707990Y-149537589D01*
X89545475Y-149294368D01*
X89338632Y-149087525D01*
X89095411Y-148925010D01*
X88825158Y-148813068D01*
X88538260Y-148756000D01*
X88245740Y-148756000D01*
X87958842Y-148813068D01*
X87688589Y-148925010D01*
X87445368Y-149087525D01*
X87238525Y-149294368D01*
X87076010Y-149537589D01*
X86964068Y-149807842D01*
X86907000Y-150094740D01*
X86907000Y-150387260D01*
X86964068Y-150674158D01*
X87076010Y-150944411D01*
X87238525Y-151187632D01*
X87445368Y-151394475D01*
X87688589Y-151556990D01*
X87958842Y-151668932D01*
X88197870Y-151716478D01*
X88227467Y-151746075D01*
X87950286Y-151856921D01*
X87796911Y-152167840D01*
X87707140Y-152502705D01*
X87702317Y-152576148D01*
X87475345Y-152531000D01*
X87128655Y-152531000D01*
X86788627Y-152598636D01*
X86468327Y-152731308D01*
X86180065Y-152923919D01*
X85934919Y-153169065D01*
X85742308Y-153457327D01*
X85609636Y-153777627D01*
X85542000Y-154117655D01*
X84612000Y-154117655D01*
X84544364Y-153777627D01*
X84411692Y-153457327D01*
X84219081Y-153169065D01*
X83973935Y-152923919D01*
X83685673Y-152731308D01*
X83365373Y-152598636D01*
X83025345Y-152531000D01*
X82678655Y-152531000D01*
X82338627Y-152598636D01*
X82310532Y-152610273D01*
X82244364Y-152277627D01*
X82111692Y-151957327D01*
X81945525Y-151708642D01*
X82145158Y-151668932D01*
X82415411Y-151556990D01*
X82658632Y-151394475D01*
X82865475Y-151187632D01*
X83027990Y-150944411D01*
X83139932Y-150674158D01*
X83197000Y-150387260D01*
X83197000Y-150094740D01*
X83139932Y-149807842D01*
X83027990Y-149537589D01*
X82865475Y-149294368D01*
X82658632Y-149087525D01*
X82415411Y-148925010D01*
X82145158Y-148813068D01*
X81858260Y-148756000D01*
X81565740Y-148756000D01*
X81278842Y-148813068D01*
X81008589Y-148925010D01*
X80765368Y-149087525D01*
X80558525Y-149294368D01*
X80396010Y-149537589D01*
X80284068Y-149807842D01*
X80227000Y-150094740D01*
X80227000Y-150387260D01*
X80284068Y-150674158D01*
X80396010Y-150944411D01*
X80453867Y-151031000D01*
X80378655Y-151031000D01*
X80038627Y-151098636D01*
X79718327Y-151231308D01*
X79430065Y-151423919D01*
X79184919Y-151669065D01*
X78992308Y-151957327D01*
X78859636Y-152277627D01*
X78792000Y-152617655D01*
X61969600Y-152617655D01*
X61969600Y-150190200D01*
X63658815Y-150190200D01*
X63687487Y-150481311D01*
X63772401Y-150761234D01*
X63910294Y-151019214D01*
X64095866Y-151245334D01*
X64321986Y-151430906D01*
X64579966Y-151568799D01*
X64859889Y-151653713D01*
X65078050Y-151675200D01*
X65223950Y-151675200D01*
X65442111Y-151653713D01*
X65722034Y-151568799D01*
X65980014Y-151430906D01*
X66206134Y-151245334D01*
X66230607Y-151215513D01*
X66251498Y-151284380D01*
X66310463Y-151394694D01*
X66389815Y-151491385D01*
X66486506Y-151570737D01*
X66596820Y-151629702D01*
X66716518Y-151666012D01*
X66841000Y-151678272D01*
X68541000Y-151678272D01*
X68665482Y-151666012D01*
X68785180Y-151629702D01*
X68895494Y-151570737D01*
X68992185Y-151491385D01*
X69071537Y-151394694D01*
X69130502Y-151284380D01*
X69166812Y-151164682D01*
X69179072Y-151040200D01*
X69179072Y-149340200D01*
X69166812Y-149215718D01*
X69130502Y-149096020D01*
X69071537Y-148985706D01*
X68992185Y-148889015D01*
X68895494Y-148809663D01*
X68785180Y-148750698D01*
X68704534Y-148726234D01*
X68788588Y-148650469D01*
X68962641Y-148417120D01*
X69087825Y-148154299D01*
X69132476Y-148007090D01*
X69011155Y-147777200D01*
X67818000Y-147777200D01*
X67818000Y-147797200D01*
X67564000Y-147797200D01*
X67564000Y-147777200D01*
X65278000Y-147777200D01*
X65278000Y-147797200D01*
X65024000Y-147797200D01*
X65024000Y-147777200D01*
X63830845Y-147777200D01*
X63709524Y-148007090D01*
X63754175Y-148154299D01*
X63879359Y-148417120D01*
X64053412Y-148650469D01*
X64269645Y-148845378D01*
X64386523Y-148914999D01*
X64321986Y-148949494D01*
X64095866Y-149135066D01*
X63910294Y-149361186D01*
X63772401Y-149619166D01*
X63687487Y-149899089D01*
X63658815Y-150190200D01*
X61969600Y-150190200D01*
X61969600Y-145467090D01*
X63709524Y-145467090D01*
X63754175Y-145614299D01*
X63879359Y-145877120D01*
X64053412Y-146110469D01*
X64269645Y-146305378D01*
X64395255Y-146380200D01*
X64269645Y-146455022D01*
X64053412Y-146649931D01*
X63879359Y-146883280D01*
X63754175Y-147146101D01*
X63709524Y-147293310D01*
X63830845Y-147523200D01*
X65024000Y-147523200D01*
X65024000Y-145237200D01*
X65278000Y-145237200D01*
X65278000Y-147523200D01*
X67564000Y-147523200D01*
X67564000Y-145237200D01*
X67818000Y-145237200D01*
X67818000Y-147523200D01*
X69011155Y-147523200D01*
X69132476Y-147293310D01*
X69087825Y-147146101D01*
X68962641Y-146883280D01*
X68788588Y-146649931D01*
X68572355Y-146455022D01*
X68446745Y-146380200D01*
X68572355Y-146305378D01*
X68788588Y-146110469D01*
X68962641Y-145877120D01*
X69087825Y-145614299D01*
X69132476Y-145467090D01*
X69011155Y-145237200D01*
X67818000Y-145237200D01*
X67564000Y-145237200D01*
X65278000Y-145237200D01*
X65024000Y-145237200D01*
X63830845Y-145237200D01*
X63709524Y-145467090D01*
X61969600Y-145467090D01*
X61969600Y-142927090D01*
X63709524Y-142927090D01*
X63754175Y-143074299D01*
X63879359Y-143337120D01*
X64053412Y-143570469D01*
X64269645Y-143765378D01*
X64395255Y-143840200D01*
X64269645Y-143915022D01*
X64053412Y-144109931D01*
X63879359Y-144343280D01*
X63754175Y-144606101D01*
X63709524Y-144753310D01*
X63830845Y-144983200D01*
X65024000Y-144983200D01*
X65024000Y-142697200D01*
X65278000Y-142697200D01*
X65278000Y-144983200D01*
X67564000Y-144983200D01*
X67564000Y-142697200D01*
X67818000Y-142697200D01*
X67818000Y-144983200D01*
X69011155Y-144983200D01*
X69132476Y-144753310D01*
X69087825Y-144606101D01*
X68962641Y-144343280D01*
X68788588Y-144109931D01*
X68572355Y-143915022D01*
X68446745Y-143840200D01*
X68572355Y-143765378D01*
X68788588Y-143570469D01*
X68962641Y-143337120D01*
X69087825Y-143074299D01*
X69132476Y-142927090D01*
X69081595Y-142830675D01*
X82174600Y-142830675D01*
X82174600Y-143349725D01*
X82275861Y-143858801D01*
X82474493Y-144338341D01*
X82762862Y-144769915D01*
X83129885Y-145136938D01*
X83561459Y-145425307D01*
X84040999Y-145623939D01*
X84550075Y-145725200D01*
X85069125Y-145725200D01*
X85578201Y-145623939D01*
X86057741Y-145425307D01*
X86489315Y-145136938D01*
X86856338Y-144769915D01*
X87144707Y-144338341D01*
X87343339Y-143858801D01*
X87444600Y-143349725D01*
X87444600Y-142830675D01*
X105924600Y-142830675D01*
X105924600Y-143349725D01*
X106025861Y-143858801D01*
X106224493Y-144338341D01*
X106512862Y-144769915D01*
X106879885Y-145136938D01*
X107311459Y-145425307D01*
X107790999Y-145623939D01*
X108300075Y-145725200D01*
X108819125Y-145725200D01*
X109328201Y-145623939D01*
X109807741Y-145425307D01*
X110239315Y-145136938D01*
X110606338Y-144769915D01*
X110894707Y-144338341D01*
X111093339Y-143858801D01*
X111194600Y-143349725D01*
X111194600Y-142830675D01*
X111093339Y-142321599D01*
X110894707Y-141842059D01*
X110606338Y-141410485D01*
X110239315Y-141043462D01*
X109807741Y-140755093D01*
X109328201Y-140556461D01*
X108819125Y-140455200D01*
X108300075Y-140455200D01*
X107790999Y-140556461D01*
X107311459Y-140755093D01*
X106879885Y-141043462D01*
X106512862Y-141410485D01*
X106224493Y-141842059D01*
X106025861Y-142321599D01*
X105924600Y-142830675D01*
X87444600Y-142830675D01*
X87343339Y-142321599D01*
X87144707Y-141842059D01*
X86856338Y-141410485D01*
X86489315Y-141043462D01*
X86057741Y-140755093D01*
X85578201Y-140556461D01*
X85069125Y-140455200D01*
X84550075Y-140455200D01*
X84040999Y-140556461D01*
X83561459Y-140755093D01*
X83129885Y-141043462D01*
X82762862Y-141410485D01*
X82474493Y-141842059D01*
X82275861Y-142321599D01*
X82174600Y-142830675D01*
X69081595Y-142830675D01*
X69011155Y-142697200D01*
X67818000Y-142697200D01*
X67564000Y-142697200D01*
X65278000Y-142697200D01*
X65024000Y-142697200D01*
X63830845Y-142697200D01*
X63709524Y-142927090D01*
X61969600Y-142927090D01*
X61969600Y-132410200D01*
X63658815Y-132410200D01*
X63687487Y-132701311D01*
X63772401Y-132981234D01*
X63910294Y-133239214D01*
X64095866Y-133465334D01*
X64321986Y-133650906D01*
X64376791Y-133680200D01*
X64321986Y-133709494D01*
X64095866Y-133895066D01*
X63910294Y-134121186D01*
X63772401Y-134379166D01*
X63687487Y-134659089D01*
X63658815Y-134950200D01*
X63687487Y-135241311D01*
X63772401Y-135521234D01*
X63910294Y-135779214D01*
X64095866Y-136005334D01*
X64321986Y-136190906D01*
X64376791Y-136220200D01*
X64321986Y-136249494D01*
X64095866Y-136435066D01*
X63910294Y-136661186D01*
X63772401Y-136919166D01*
X63687487Y-137199089D01*
X63658815Y-137490200D01*
X63687487Y-137781311D01*
X63772401Y-138061234D01*
X63910294Y-138319214D01*
X64095866Y-138545334D01*
X64321986Y-138730906D01*
X64376791Y-138760200D01*
X64321986Y-138789494D01*
X64095866Y-138975066D01*
X63910294Y-139201186D01*
X63772401Y-139459166D01*
X63687487Y-139739089D01*
X63658815Y-140030200D01*
X63687487Y-140321311D01*
X63772401Y-140601234D01*
X63910294Y-140859214D01*
X64095866Y-141085334D01*
X64321986Y-141270906D01*
X64386523Y-141305401D01*
X64269645Y-141375022D01*
X64053412Y-141569931D01*
X63879359Y-141803280D01*
X63754175Y-142066101D01*
X63709524Y-142213310D01*
X63830845Y-142443200D01*
X65024000Y-142443200D01*
X65024000Y-142423200D01*
X65278000Y-142423200D01*
X65278000Y-142443200D01*
X67564000Y-142443200D01*
X67564000Y-142423200D01*
X67818000Y-142423200D01*
X67818000Y-142443200D01*
X69011155Y-142443200D01*
X69132476Y-142213310D01*
X69087825Y-142066101D01*
X68962641Y-141803280D01*
X68788588Y-141569931D01*
X68572355Y-141375022D01*
X68455477Y-141305401D01*
X68520014Y-141270906D01*
X68746134Y-141085334D01*
X68931706Y-140859214D01*
X69069599Y-140601234D01*
X69154513Y-140321311D01*
X69183185Y-140030200D01*
X69154513Y-139739089D01*
X69069599Y-139459166D01*
X68931706Y-139201186D01*
X68746134Y-138975066D01*
X68520014Y-138789494D01*
X68465209Y-138760200D01*
X68520014Y-138730906D01*
X68746134Y-138545334D01*
X68931706Y-138319214D01*
X69069599Y-138061234D01*
X69154513Y-137781311D01*
X69183185Y-137490200D01*
X69154513Y-137199089D01*
X69069599Y-136919166D01*
X68931706Y-136661186D01*
X68746134Y-136435066D01*
X68520014Y-136249494D01*
X68465209Y-136220200D01*
X68520014Y-136190906D01*
X68746134Y-136005334D01*
X68931706Y-135779214D01*
X69069599Y-135521234D01*
X69154513Y-135241311D01*
X69183185Y-134950200D01*
X69154513Y-134659089D01*
X69069599Y-134379166D01*
X68931706Y-134121186D01*
X68857426Y-134030675D01*
X82174600Y-134030675D01*
X82174600Y-134549725D01*
X82275861Y-135058801D01*
X82474493Y-135538341D01*
X82762862Y-135969915D01*
X83129885Y-136336938D01*
X83561459Y-136625307D01*
X84040999Y-136823939D01*
X84550075Y-136925200D01*
X85069125Y-136925200D01*
X85578201Y-136823939D01*
X86057741Y-136625307D01*
X86489315Y-136336938D01*
X86787237Y-136039016D01*
X90274600Y-136039016D01*
X90274600Y-136341384D01*
X90333589Y-136637943D01*
X90449301Y-136917295D01*
X90617288Y-137168705D01*
X90831095Y-137382512D01*
X90917431Y-137440200D01*
X90831095Y-137497888D01*
X90617288Y-137711695D01*
X90449301Y-137963105D01*
X90333589Y-138242457D01*
X90274600Y-138539016D01*
X90274600Y-138841384D01*
X90333589Y-139137943D01*
X90449301Y-139417295D01*
X90617288Y-139668705D01*
X90831095Y-139882512D01*
X90917431Y-139940200D01*
X90831095Y-139997888D01*
X90617288Y-140211695D01*
X90449301Y-140463105D01*
X90333589Y-140742457D01*
X90274600Y-141039016D01*
X90274600Y-141341384D01*
X90333589Y-141637943D01*
X90449301Y-141917295D01*
X90617288Y-142168705D01*
X90831095Y-142382512D01*
X91082505Y-142550499D01*
X91361857Y-142666211D01*
X91658416Y-142725200D01*
X91960784Y-142725200D01*
X92257343Y-142666211D01*
X92536695Y-142550499D01*
X92788105Y-142382512D01*
X92916337Y-142254280D01*
X100675125Y-142254280D01*
X100758808Y-142508461D01*
X101031375Y-142639358D01*
X101324242Y-142714565D01*
X101626153Y-142731191D01*
X101925507Y-142688597D01*
X102210799Y-142588422D01*
X102360392Y-142508461D01*
X102444075Y-142254280D01*
X101559600Y-141369805D01*
X100675125Y-142254280D01*
X92916337Y-142254280D01*
X93001912Y-142168705D01*
X93169899Y-141917295D01*
X93285611Y-141637943D01*
X93344600Y-141341384D01*
X93344600Y-141256753D01*
X100018609Y-141256753D01*
X100061203Y-141556107D01*
X100161378Y-141841399D01*
X100241339Y-141990992D01*
X100495520Y-142074675D01*
X101379995Y-141190200D01*
X101739205Y-141190200D01*
X102623680Y-142074675D01*
X102877861Y-141990992D01*
X103008758Y-141718425D01*
X103083965Y-141425558D01*
X103100591Y-141123647D01*
X103057997Y-140824293D01*
X102957822Y-140539001D01*
X102877861Y-140389408D01*
X102623680Y-140305725D01*
X101739205Y-141190200D01*
X101379995Y-141190200D01*
X100495520Y-140305725D01*
X100241339Y-140389408D01*
X100110442Y-140661975D01*
X100035235Y-140954842D01*
X100018609Y-141256753D01*
X93344600Y-141256753D01*
X93344600Y-141039016D01*
X93285611Y-140742457D01*
X93169899Y-140463105D01*
X93001912Y-140211695D01*
X92788105Y-139997888D01*
X92701769Y-139940200D01*
X92788105Y-139882512D01*
X93001912Y-139668705D01*
X93169899Y-139417295D01*
X93285611Y-139137943D01*
X93344600Y-138841384D01*
X93344600Y-138539016D01*
X93285611Y-138242457D01*
X93169899Y-137963105D01*
X93001912Y-137711695D01*
X92788105Y-137497888D01*
X92701769Y-137440200D01*
X92788105Y-137382512D01*
X93001912Y-137168705D01*
X93169899Y-136917295D01*
X93285611Y-136637943D01*
X93344600Y-136341384D01*
X93344600Y-136039016D01*
X93285611Y-135742457D01*
X93169899Y-135463105D01*
X93001912Y-135211695D01*
X92788105Y-134997888D01*
X92536695Y-134829901D01*
X92257343Y-134714189D01*
X91960784Y-134655200D01*
X91658416Y-134655200D01*
X91361857Y-134714189D01*
X91082505Y-134829901D01*
X90831095Y-134997888D01*
X90617288Y-135211695D01*
X90449301Y-135463105D01*
X90333589Y-135742457D01*
X90274600Y-136039016D01*
X86787237Y-136039016D01*
X86856338Y-135969915D01*
X87144707Y-135538341D01*
X87343339Y-135058801D01*
X87444600Y-134549725D01*
X87444600Y-134030675D01*
X87343339Y-133521599D01*
X87144707Y-133042059D01*
X86856338Y-132610485D01*
X86489315Y-132243462D01*
X86057741Y-131955093D01*
X85578201Y-131756461D01*
X85069125Y-131655200D01*
X84550075Y-131655200D01*
X84040999Y-131756461D01*
X83561459Y-131955093D01*
X83129885Y-132243462D01*
X82762862Y-132610485D01*
X82474493Y-133042059D01*
X82275861Y-133521599D01*
X82174600Y-134030675D01*
X68857426Y-134030675D01*
X68746134Y-133895066D01*
X68520014Y-133709494D01*
X68465209Y-133680200D01*
X68520014Y-133650906D01*
X68746134Y-133465334D01*
X68931706Y-133239214D01*
X69069599Y-132981234D01*
X69154513Y-132701311D01*
X69183185Y-132410200D01*
X69154513Y-132119089D01*
X69069599Y-131839166D01*
X68931706Y-131581186D01*
X68746134Y-131355066D01*
X68520014Y-131169494D01*
X68262034Y-131031601D01*
X67982111Y-130946687D01*
X67763950Y-130925200D01*
X67618050Y-130925200D01*
X67399889Y-130946687D01*
X67119966Y-131031601D01*
X66861986Y-131169494D01*
X66635866Y-131355066D01*
X66450294Y-131581186D01*
X66421000Y-131635991D01*
X66391706Y-131581186D01*
X66206134Y-131355066D01*
X65980014Y-131169494D01*
X65722034Y-131031601D01*
X65442111Y-130946687D01*
X65223950Y-130925200D01*
X65078050Y-130925200D01*
X64859889Y-130946687D01*
X64579966Y-131031601D01*
X64321986Y-131169494D01*
X64095866Y-131355066D01*
X63910294Y-131581186D01*
X63772401Y-131839166D01*
X63687487Y-132119089D01*
X63658815Y-132410200D01*
X61969600Y-132410200D01*
X61969600Y-116088261D01*
X67024600Y-116088261D01*
X67024600Y-116292139D01*
X67064374Y-116492098D01*
X67142395Y-116680456D01*
X67174600Y-116728654D01*
X67174601Y-121396721D01*
X67170319Y-121440200D01*
X67187405Y-121613690D01*
X67238012Y-121780513D01*
X67320190Y-121934259D01*
X67403068Y-122035246D01*
X67403071Y-122035249D01*
X67430784Y-122069017D01*
X67464552Y-122096730D01*
X73803065Y-128435244D01*
X73814374Y-128492098D01*
X73892395Y-128680456D01*
X74005663Y-128849974D01*
X74149826Y-128994137D01*
X74319344Y-129107405D01*
X74507702Y-129185426D01*
X74707661Y-129225200D01*
X74911539Y-129225200D01*
X75111498Y-129185426D01*
X75299856Y-129107405D01*
X75469374Y-128994137D01*
X75613537Y-128849974D01*
X75726805Y-128680456D01*
X75804826Y-128492098D01*
X75844600Y-128292139D01*
X75844600Y-128088261D01*
X75804826Y-127888302D01*
X75726805Y-127699944D01*
X75613537Y-127530426D01*
X75469374Y-127386263D01*
X75299856Y-127272995D01*
X75111498Y-127194974D01*
X75054644Y-127183665D01*
X69709240Y-121838261D01*
X81524600Y-121838261D01*
X81524600Y-122042139D01*
X81564374Y-122242098D01*
X81642395Y-122430456D01*
X81755663Y-122599974D01*
X81899826Y-122744137D01*
X82069344Y-122857405D01*
X82257702Y-122935426D01*
X82457661Y-122975200D01*
X82519799Y-122975200D01*
X96245801Y-136701203D01*
X96269599Y-136730201D01*
X96385324Y-136825174D01*
X96517353Y-136895746D01*
X96660614Y-136939203D01*
X96772267Y-136950200D01*
X96772276Y-136950200D01*
X96809599Y-136953876D01*
X96846922Y-136950200D01*
X100221287Y-136950200D01*
X100367288Y-137168705D01*
X100581095Y-137382512D01*
X100667431Y-137440200D01*
X100581095Y-137497888D01*
X100367288Y-137711695D01*
X100199301Y-137963105D01*
X100083589Y-138242457D01*
X100024600Y-138539016D01*
X100024600Y-138841384D01*
X100083589Y-139137943D01*
X100199301Y-139417295D01*
X100367288Y-139668705D01*
X100581095Y-139882512D01*
X100723910Y-139977938D01*
X100675125Y-140126120D01*
X101559600Y-141010595D01*
X102444075Y-140126120D01*
X102395290Y-139977938D01*
X102538105Y-139882512D01*
X102751912Y-139668705D01*
X102919899Y-139417295D01*
X103035611Y-139137943D01*
X103094600Y-138841384D01*
X103094600Y-138539016D01*
X103035611Y-138242457D01*
X102919899Y-137963105D01*
X102751912Y-137711695D01*
X102538105Y-137497888D01*
X102451769Y-137440200D01*
X102538105Y-137382512D01*
X102751912Y-137168705D01*
X102919899Y-136917295D01*
X103035611Y-136637943D01*
X103094600Y-136341384D01*
X103094600Y-136039016D01*
X103035611Y-135742457D01*
X102919899Y-135463105D01*
X102751912Y-135211695D01*
X102538105Y-134997888D01*
X102286695Y-134829901D01*
X102007343Y-134714189D01*
X101710784Y-134655200D01*
X101408416Y-134655200D01*
X101111857Y-134714189D01*
X100832505Y-134829901D01*
X100581095Y-134997888D01*
X100367288Y-135211695D01*
X100221287Y-135430200D01*
X97124402Y-135430200D01*
X95724877Y-134030675D01*
X105924600Y-134030675D01*
X105924600Y-134549725D01*
X106025861Y-135058801D01*
X106224493Y-135538341D01*
X106512862Y-135969915D01*
X106879885Y-136336938D01*
X107311459Y-136625307D01*
X107790999Y-136823939D01*
X108300075Y-136925200D01*
X108819125Y-136925200D01*
X109328201Y-136823939D01*
X109807741Y-136625307D01*
X110239315Y-136336938D01*
X110606338Y-135969915D01*
X110894707Y-135538341D01*
X111093339Y-135058801D01*
X111194600Y-134549725D01*
X111194600Y-134030675D01*
X111093339Y-133521599D01*
X110894707Y-133042059D01*
X110606338Y-132610485D01*
X110239315Y-132243462D01*
X109807741Y-131955093D01*
X109328201Y-131756461D01*
X108819125Y-131655200D01*
X108300075Y-131655200D01*
X107790999Y-131756461D01*
X107311459Y-131955093D01*
X106879885Y-132243462D01*
X106512862Y-132610485D01*
X106224493Y-133042059D01*
X106025861Y-133521599D01*
X105924600Y-134030675D01*
X95724877Y-134030675D01*
X84282463Y-122588261D01*
X89024600Y-122588261D01*
X89024600Y-122792139D01*
X89064374Y-122992098D01*
X89142395Y-123180456D01*
X89255663Y-123349974D01*
X89299601Y-123393912D01*
X89299600Y-125486489D01*
X89255663Y-125530426D01*
X89142395Y-125699944D01*
X89064374Y-125888302D01*
X89024600Y-126088261D01*
X89024600Y-126292139D01*
X89064374Y-126492098D01*
X89142395Y-126680456D01*
X89255663Y-126849974D01*
X89399826Y-126994137D01*
X89569344Y-127107405D01*
X89757702Y-127185426D01*
X89957661Y-127225200D01*
X90161539Y-127225200D01*
X90361498Y-127185426D01*
X90549856Y-127107405D01*
X90719374Y-126994137D01*
X90863537Y-126849974D01*
X90976805Y-126680456D01*
X91054826Y-126492098D01*
X91094600Y-126292139D01*
X91094600Y-126088261D01*
X91054826Y-125888302D01*
X90976805Y-125699944D01*
X90863537Y-125530426D01*
X90819600Y-125486489D01*
X90819600Y-123393911D01*
X90863537Y-123349974D01*
X90976805Y-123180456D01*
X91054826Y-122992098D01*
X91094600Y-122792139D01*
X91094600Y-122588261D01*
X91054826Y-122388302D01*
X90976805Y-122199944D01*
X90863537Y-122030426D01*
X90719374Y-121886263D01*
X90549856Y-121772995D01*
X90361498Y-121694974D01*
X90161539Y-121655200D01*
X89957661Y-121655200D01*
X89757702Y-121694974D01*
X89569344Y-121772995D01*
X89399826Y-121886263D01*
X89255663Y-122030426D01*
X89142395Y-122199944D01*
X89064374Y-122388302D01*
X89024600Y-122588261D01*
X84282463Y-122588261D01*
X83594600Y-121900399D01*
X83594600Y-121838261D01*
X83554826Y-121638302D01*
X83476805Y-121449944D01*
X83363537Y-121280426D01*
X83219374Y-121136263D01*
X83049856Y-121022995D01*
X82861498Y-120944974D01*
X82661539Y-120905200D01*
X82457661Y-120905200D01*
X82257702Y-120944974D01*
X82069344Y-121022995D01*
X81899826Y-121136263D01*
X81755663Y-121280426D01*
X81642395Y-121449944D01*
X81564374Y-121638302D01*
X81524600Y-121838261D01*
X69709240Y-121838261D01*
X68944600Y-121073622D01*
X68944600Y-117075200D01*
X81521146Y-117075200D01*
X81569344Y-117107405D01*
X81757702Y-117185426D01*
X81957661Y-117225200D01*
X82161539Y-117225200D01*
X82361498Y-117185426D01*
X82549856Y-117107405D01*
X82598054Y-117075200D01*
X96271146Y-117075200D01*
X96319344Y-117107405D01*
X96507702Y-117185426D01*
X96707661Y-117225200D01*
X96911539Y-117225200D01*
X97111498Y-117185426D01*
X97299856Y-117107405D01*
X97348054Y-117075200D01*
X110021146Y-117075200D01*
X110069344Y-117107405D01*
X110257702Y-117185426D01*
X110457661Y-117225200D01*
X110661539Y-117225200D01*
X110861498Y-117185426D01*
X111049856Y-117107405D01*
X111219374Y-116994137D01*
X111363537Y-116849974D01*
X111476805Y-116680456D01*
X111554826Y-116492098D01*
X111594600Y-116292139D01*
X111594600Y-116088261D01*
X111554826Y-115888302D01*
X111476805Y-115699944D01*
X111363537Y-115530426D01*
X111219374Y-115386263D01*
X111049856Y-115272995D01*
X110861498Y-115194974D01*
X110661539Y-115155200D01*
X110457661Y-115155200D01*
X110257702Y-115194974D01*
X110069344Y-115272995D01*
X110021146Y-115305200D01*
X97348054Y-115305200D01*
X97299856Y-115272995D01*
X97111498Y-115194974D01*
X96911539Y-115155200D01*
X96707661Y-115155200D01*
X96507702Y-115194974D01*
X96319344Y-115272995D01*
X96271146Y-115305200D01*
X82598054Y-115305200D01*
X82549856Y-115272995D01*
X82361498Y-115194974D01*
X82161539Y-115155200D01*
X81957661Y-115155200D01*
X81757702Y-115194974D01*
X81569344Y-115272995D01*
X81521146Y-115305200D01*
X68598054Y-115305200D01*
X68549856Y-115272995D01*
X68361498Y-115194974D01*
X68161539Y-115155200D01*
X67957661Y-115155200D01*
X67757702Y-115194974D01*
X67569344Y-115272995D01*
X67399826Y-115386263D01*
X67255663Y-115530426D01*
X67142395Y-115699944D01*
X67064374Y-115888302D01*
X67024600Y-116088261D01*
X61969600Y-116088261D01*
X61969600Y-113475950D01*
X72524600Y-113475950D01*
X72524600Y-114152742D01*
X72549003Y-114275423D01*
X72596870Y-114390985D01*
X72666363Y-114494989D01*
X72754811Y-114583437D01*
X72858815Y-114652930D01*
X72974377Y-114700797D01*
X73097058Y-114725200D01*
X73773850Y-114725200D01*
X73932600Y-114566450D01*
X73932600Y-113317200D01*
X72683350Y-113317200D01*
X72524600Y-113475950D01*
X61969600Y-113475950D01*
X61969600Y-112227658D01*
X72524600Y-112227658D01*
X72524600Y-112904450D01*
X72683350Y-113063200D01*
X73932600Y-113063200D01*
X73932600Y-111813950D01*
X74186600Y-111813950D01*
X74186600Y-113063200D01*
X74206600Y-113063200D01*
X74206600Y-113317200D01*
X74186600Y-113317200D01*
X74186600Y-114566450D01*
X74345350Y-114725200D01*
X75022142Y-114725200D01*
X75144823Y-114700797D01*
X75260385Y-114652930D01*
X75364389Y-114583437D01*
X75452837Y-114494989D01*
X75522330Y-114390985D01*
X75553739Y-114315156D01*
X75621095Y-114382512D01*
X75872505Y-114550499D01*
X76151857Y-114666211D01*
X76448416Y-114725200D01*
X76750784Y-114725200D01*
X77047343Y-114666211D01*
X77326695Y-114550499D01*
X77578105Y-114382512D01*
X77791912Y-114168705D01*
X77959899Y-113917295D01*
X78075611Y-113637943D01*
X78107833Y-113475950D01*
X86524600Y-113475950D01*
X86524600Y-114152742D01*
X86549003Y-114275423D01*
X86596870Y-114390985D01*
X86666363Y-114494989D01*
X86754811Y-114583437D01*
X86858815Y-114652930D01*
X86974377Y-114700797D01*
X87097058Y-114725200D01*
X87773850Y-114725200D01*
X87932600Y-114566450D01*
X87932600Y-113317200D01*
X86683350Y-113317200D01*
X86524600Y-113475950D01*
X78107833Y-113475950D01*
X78134600Y-113341384D01*
X78134600Y-113039016D01*
X78075611Y-112742457D01*
X77959899Y-112463105D01*
X77802579Y-112227658D01*
X86524600Y-112227658D01*
X86524600Y-112904450D01*
X86683350Y-113063200D01*
X87932600Y-113063200D01*
X87932600Y-111813950D01*
X88186600Y-111813950D01*
X88186600Y-113063200D01*
X88206600Y-113063200D01*
X88206600Y-113317200D01*
X88186600Y-113317200D01*
X88186600Y-114566450D01*
X88345350Y-114725200D01*
X89022142Y-114725200D01*
X89144823Y-114700797D01*
X89260385Y-114652930D01*
X89364389Y-114583437D01*
X89452837Y-114494989D01*
X89522330Y-114390985D01*
X89553739Y-114315156D01*
X89621095Y-114382512D01*
X89872505Y-114550499D01*
X90151857Y-114666211D01*
X90448416Y-114725200D01*
X90750784Y-114725200D01*
X91047343Y-114666211D01*
X91326695Y-114550499D01*
X91578105Y-114382512D01*
X91791912Y-114168705D01*
X91959899Y-113917295D01*
X92075611Y-113637943D01*
X92107833Y-113475950D01*
X101274600Y-113475950D01*
X101274600Y-114152742D01*
X101299003Y-114275423D01*
X101346870Y-114390985D01*
X101416363Y-114494989D01*
X101504811Y-114583437D01*
X101608815Y-114652930D01*
X101724377Y-114700797D01*
X101847058Y-114725200D01*
X102523850Y-114725200D01*
X102682600Y-114566450D01*
X102682600Y-113317200D01*
X101433350Y-113317200D01*
X101274600Y-113475950D01*
X92107833Y-113475950D01*
X92134600Y-113341384D01*
X92134600Y-113039016D01*
X92075611Y-112742457D01*
X91959899Y-112463105D01*
X91802579Y-112227658D01*
X101274600Y-112227658D01*
X101274600Y-112904450D01*
X101433350Y-113063200D01*
X102682600Y-113063200D01*
X102682600Y-111813950D01*
X102936600Y-111813950D01*
X102936600Y-113063200D01*
X102956600Y-113063200D01*
X102956600Y-113317200D01*
X102936600Y-113317200D01*
X102936600Y-114566450D01*
X103095350Y-114725200D01*
X103772142Y-114725200D01*
X103894823Y-114700797D01*
X104010385Y-114652930D01*
X104114389Y-114583437D01*
X104202837Y-114494989D01*
X104272330Y-114390985D01*
X104303739Y-114315156D01*
X104371095Y-114382512D01*
X104622505Y-114550499D01*
X104901857Y-114666211D01*
X105198416Y-114725200D01*
X105500784Y-114725200D01*
X105797343Y-114666211D01*
X106076695Y-114550499D01*
X106328105Y-114382512D01*
X106541912Y-114168705D01*
X106709899Y-113917295D01*
X106825611Y-113637943D01*
X106857833Y-113475950D01*
X115274600Y-113475950D01*
X115274600Y-114152742D01*
X115299003Y-114275423D01*
X115346870Y-114390985D01*
X115416363Y-114494989D01*
X115504811Y-114583437D01*
X115608815Y-114652930D01*
X115724377Y-114700797D01*
X115847058Y-114725200D01*
X116523850Y-114725200D01*
X116682600Y-114566450D01*
X116682600Y-113317200D01*
X115433350Y-113317200D01*
X115274600Y-113475950D01*
X106857833Y-113475950D01*
X106884600Y-113341384D01*
X106884600Y-113039016D01*
X106825611Y-112742457D01*
X106709899Y-112463105D01*
X106552579Y-112227658D01*
X115274600Y-112227658D01*
X115274600Y-112904450D01*
X115433350Y-113063200D01*
X116682600Y-113063200D01*
X116682600Y-111813950D01*
X116936600Y-111813950D01*
X116936600Y-113063200D01*
X116956600Y-113063200D01*
X116956600Y-113317200D01*
X116936600Y-113317200D01*
X116936600Y-114566450D01*
X117095350Y-114725200D01*
X117772142Y-114725200D01*
X117894823Y-114700797D01*
X118010385Y-114652930D01*
X118114389Y-114583437D01*
X118202837Y-114494989D01*
X118272330Y-114390985D01*
X118303739Y-114315156D01*
X118371095Y-114382512D01*
X118622505Y-114550499D01*
X118901857Y-114666211D01*
X119198416Y-114725200D01*
X119500784Y-114725200D01*
X119797343Y-114666211D01*
X120076695Y-114550499D01*
X120328105Y-114382512D01*
X120541912Y-114168705D01*
X120709899Y-113917295D01*
X120825611Y-113637943D01*
X120884600Y-113341384D01*
X120884600Y-113039016D01*
X120825611Y-112742457D01*
X120709899Y-112463105D01*
X120541912Y-112211695D01*
X120328105Y-111997888D01*
X120076695Y-111829901D01*
X119797343Y-111714189D01*
X119500784Y-111655200D01*
X119198416Y-111655200D01*
X118901857Y-111714189D01*
X118622505Y-111829901D01*
X118371095Y-111997888D01*
X118303739Y-112065244D01*
X118272330Y-111989415D01*
X118202837Y-111885411D01*
X118114389Y-111796963D01*
X118010385Y-111727470D01*
X117894823Y-111679603D01*
X117772142Y-111655200D01*
X117095350Y-111655200D01*
X116936600Y-111813950D01*
X116682600Y-111813950D01*
X116523850Y-111655200D01*
X115847058Y-111655200D01*
X115724377Y-111679603D01*
X115608815Y-111727470D01*
X115504811Y-111796963D01*
X115416363Y-111885411D01*
X115346870Y-111989415D01*
X115299003Y-112104977D01*
X115274600Y-112227658D01*
X106552579Y-112227658D01*
X106541912Y-112211695D01*
X106328105Y-111997888D01*
X106076695Y-111829901D01*
X105797343Y-111714189D01*
X105500784Y-111655200D01*
X105198416Y-111655200D01*
X104901857Y-111714189D01*
X104622505Y-111829901D01*
X104371095Y-111997888D01*
X104303739Y-112065244D01*
X104272330Y-111989415D01*
X104202837Y-111885411D01*
X104114389Y-111796963D01*
X104010385Y-111727470D01*
X103894823Y-111679603D01*
X103772142Y-111655200D01*
X103095350Y-111655200D01*
X102936600Y-111813950D01*
X102682600Y-111813950D01*
X102523850Y-111655200D01*
X101847058Y-111655200D01*
X101724377Y-111679603D01*
X101608815Y-111727470D01*
X101504811Y-111796963D01*
X101416363Y-111885411D01*
X101346870Y-111989415D01*
X101299003Y-112104977D01*
X101274600Y-112227658D01*
X91802579Y-112227658D01*
X91791912Y-112211695D01*
X91578105Y-111997888D01*
X91326695Y-111829901D01*
X91047343Y-111714189D01*
X90750784Y-111655200D01*
X90448416Y-111655200D01*
X90151857Y-111714189D01*
X89872505Y-111829901D01*
X89621095Y-111997888D01*
X89553739Y-112065244D01*
X89522330Y-111989415D01*
X89452837Y-111885411D01*
X89364389Y-111796963D01*
X89260385Y-111727470D01*
X89144823Y-111679603D01*
X89022142Y-111655200D01*
X88345350Y-111655200D01*
X88186600Y-111813950D01*
X87932600Y-111813950D01*
X87773850Y-111655200D01*
X87097058Y-111655200D01*
X86974377Y-111679603D01*
X86858815Y-111727470D01*
X86754811Y-111796963D01*
X86666363Y-111885411D01*
X86596870Y-111989415D01*
X86549003Y-112104977D01*
X86524600Y-112227658D01*
X77802579Y-112227658D01*
X77791912Y-112211695D01*
X77578105Y-111997888D01*
X77326695Y-111829901D01*
X77047343Y-111714189D01*
X76750784Y-111655200D01*
X76448416Y-111655200D01*
X76151857Y-111714189D01*
X75872505Y-111829901D01*
X75621095Y-111997888D01*
X75553739Y-112065244D01*
X75522330Y-111989415D01*
X75452837Y-111885411D01*
X75364389Y-111796963D01*
X75260385Y-111727470D01*
X75144823Y-111679603D01*
X75022142Y-111655200D01*
X74345350Y-111655200D01*
X74186600Y-111813950D01*
X73932600Y-111813950D01*
X73773850Y-111655200D01*
X73097058Y-111655200D01*
X72974377Y-111679603D01*
X72858815Y-111727470D01*
X72754811Y-111796963D01*
X72666363Y-111885411D01*
X72596870Y-111989415D01*
X72549003Y-112104977D01*
X72524600Y-112227658D01*
X61969600Y-112227658D01*
X61969600Y-105552608D01*
X70912600Y-105552608D01*
X70912600Y-105827792D01*
X70966286Y-106097690D01*
X71071595Y-106351927D01*
X71224480Y-106580735D01*
X71419065Y-106775320D01*
X71647873Y-106928205D01*
X71902110Y-107033514D01*
X72172008Y-107087200D01*
X72447192Y-107087200D01*
X72717090Y-107033514D01*
X72971327Y-106928205D01*
X73200135Y-106775320D01*
X73394720Y-106580735D01*
X73547605Y-106351927D01*
X73652914Y-106097690D01*
X73706600Y-105827792D01*
X73706600Y-105552608D01*
X76912600Y-105552608D01*
X76912600Y-105827792D01*
X76966286Y-106097690D01*
X77071595Y-106351927D01*
X77224480Y-106580735D01*
X77419065Y-106775320D01*
X77647873Y-106928205D01*
X77902110Y-107033514D01*
X78172008Y-107087200D01*
X78447192Y-107087200D01*
X78717090Y-107033514D01*
X78971327Y-106928205D01*
X79200135Y-106775320D01*
X79394720Y-106580735D01*
X79547605Y-106351927D01*
X79652914Y-106097690D01*
X79706600Y-105827792D01*
X79706600Y-105552608D01*
X84912600Y-105552608D01*
X84912600Y-105827792D01*
X84966286Y-106097690D01*
X85071595Y-106351927D01*
X85224480Y-106580735D01*
X85419065Y-106775320D01*
X85647873Y-106928205D01*
X85902110Y-107033514D01*
X86172008Y-107087200D01*
X86447192Y-107087200D01*
X86717090Y-107033514D01*
X86971327Y-106928205D01*
X87200135Y-106775320D01*
X87394720Y-106580735D01*
X87547605Y-106351927D01*
X87652914Y-106097690D01*
X87706600Y-105827792D01*
X87706600Y-105552608D01*
X90912600Y-105552608D01*
X90912600Y-105827792D01*
X90966286Y-106097690D01*
X91071595Y-106351927D01*
X91224480Y-106580735D01*
X91419065Y-106775320D01*
X91647873Y-106928205D01*
X91902110Y-107033514D01*
X92172008Y-107087200D01*
X92447192Y-107087200D01*
X92717090Y-107033514D01*
X92971327Y-106928205D01*
X93200135Y-106775320D01*
X93394720Y-106580735D01*
X93547605Y-106351927D01*
X93652914Y-106097690D01*
X93706600Y-105827792D01*
X93706600Y-105552608D01*
X99662600Y-105552608D01*
X99662600Y-105827792D01*
X99716286Y-106097690D01*
X99821595Y-106351927D01*
X99974480Y-106580735D01*
X100169065Y-106775320D01*
X100397873Y-106928205D01*
X100652110Y-107033514D01*
X100922008Y-107087200D01*
X101197192Y-107087200D01*
X101467090Y-107033514D01*
X101721327Y-106928205D01*
X101950135Y-106775320D01*
X102144720Y-106580735D01*
X102297605Y-106351927D01*
X102402914Y-106097690D01*
X102456600Y-105827792D01*
X102456600Y-105552608D01*
X105662600Y-105552608D01*
X105662600Y-105827792D01*
X105716286Y-106097690D01*
X105821595Y-106351927D01*
X105974480Y-106580735D01*
X106169065Y-106775320D01*
X106397873Y-106928205D01*
X106652110Y-107033514D01*
X106922008Y-107087200D01*
X107197192Y-107087200D01*
X107467090Y-107033514D01*
X107721327Y-106928205D01*
X107950135Y-106775320D01*
X108144720Y-106580735D01*
X108297605Y-106351927D01*
X108402914Y-106097690D01*
X108456600Y-105827792D01*
X108456600Y-105552608D01*
X113662600Y-105552608D01*
X113662600Y-105827792D01*
X113716286Y-106097690D01*
X113821595Y-106351927D01*
X113974480Y-106580735D01*
X114169065Y-106775320D01*
X114397873Y-106928205D01*
X114652110Y-107033514D01*
X114922008Y-107087200D01*
X115197192Y-107087200D01*
X115467090Y-107033514D01*
X115721327Y-106928205D01*
X115950135Y-106775320D01*
X116144720Y-106580735D01*
X116297605Y-106351927D01*
X116402914Y-106097690D01*
X116456600Y-105827792D01*
X116456600Y-105552608D01*
X119662600Y-105552608D01*
X119662600Y-105827792D01*
X119716286Y-106097690D01*
X119821595Y-106351927D01*
X119974480Y-106580735D01*
X120169065Y-106775320D01*
X120397873Y-106928205D01*
X120652110Y-107033514D01*
X120922008Y-107087200D01*
X121197192Y-107087200D01*
X121467090Y-107033514D01*
X121721327Y-106928205D01*
X121950135Y-106775320D01*
X122144720Y-106580735D01*
X122297605Y-106351927D01*
X122402914Y-106097690D01*
X122456600Y-105827792D01*
X122456600Y-105552608D01*
X122402914Y-105282710D01*
X122297605Y-105028473D01*
X122144720Y-104799665D01*
X121950135Y-104605080D01*
X121721327Y-104452195D01*
X121467090Y-104346886D01*
X121197192Y-104293200D01*
X120922008Y-104293200D01*
X120652110Y-104346886D01*
X120397873Y-104452195D01*
X120169065Y-104605080D01*
X119974480Y-104799665D01*
X119821595Y-105028473D01*
X119716286Y-105282710D01*
X119662600Y-105552608D01*
X116456600Y-105552608D01*
X116402914Y-105282710D01*
X116297605Y-105028473D01*
X116144720Y-104799665D01*
X115950135Y-104605080D01*
X115721327Y-104452195D01*
X115467090Y-104346886D01*
X115197192Y-104293200D01*
X114922008Y-104293200D01*
X114652110Y-104346886D01*
X114397873Y-104452195D01*
X114169065Y-104605080D01*
X113974480Y-104799665D01*
X113821595Y-105028473D01*
X113716286Y-105282710D01*
X113662600Y-105552608D01*
X108456600Y-105552608D01*
X108402914Y-105282710D01*
X108297605Y-105028473D01*
X108144720Y-104799665D01*
X107950135Y-104605080D01*
X107721327Y-104452195D01*
X107467090Y-104346886D01*
X107197192Y-104293200D01*
X106922008Y-104293200D01*
X106652110Y-104346886D01*
X106397873Y-104452195D01*
X106169065Y-104605080D01*
X105974480Y-104799665D01*
X105821595Y-105028473D01*
X105716286Y-105282710D01*
X105662600Y-105552608D01*
X102456600Y-105552608D01*
X102402914Y-105282710D01*
X102297605Y-105028473D01*
X102144720Y-104799665D01*
X101950135Y-104605080D01*
X101721327Y-104452195D01*
X101467090Y-104346886D01*
X101197192Y-104293200D01*
X100922008Y-104293200D01*
X100652110Y-104346886D01*
X100397873Y-104452195D01*
X100169065Y-104605080D01*
X99974480Y-104799665D01*
X99821595Y-105028473D01*
X99716286Y-105282710D01*
X99662600Y-105552608D01*
X93706600Y-105552608D01*
X93652914Y-105282710D01*
X93547605Y-105028473D01*
X93394720Y-104799665D01*
X93200135Y-104605080D01*
X92971327Y-104452195D01*
X92717090Y-104346886D01*
X92447192Y-104293200D01*
X92172008Y-104293200D01*
X91902110Y-104346886D01*
X91647873Y-104452195D01*
X91419065Y-104605080D01*
X91224480Y-104799665D01*
X91071595Y-105028473D01*
X90966286Y-105282710D01*
X90912600Y-105552608D01*
X87706600Y-105552608D01*
X87652914Y-105282710D01*
X87547605Y-105028473D01*
X87394720Y-104799665D01*
X87200135Y-104605080D01*
X86971327Y-104452195D01*
X86717090Y-104346886D01*
X86447192Y-104293200D01*
X86172008Y-104293200D01*
X85902110Y-104346886D01*
X85647873Y-104452195D01*
X85419065Y-104605080D01*
X85224480Y-104799665D01*
X85071595Y-105028473D01*
X84966286Y-105282710D01*
X84912600Y-105552608D01*
X79706600Y-105552608D01*
X79652914Y-105282710D01*
X79547605Y-105028473D01*
X79394720Y-104799665D01*
X79200135Y-104605080D01*
X78971327Y-104452195D01*
X78717090Y-104346886D01*
X78447192Y-104293200D01*
X78172008Y-104293200D01*
X77902110Y-104346886D01*
X77647873Y-104452195D01*
X77419065Y-104605080D01*
X77224480Y-104799665D01*
X77071595Y-105028473D01*
X76966286Y-105282710D01*
X76912600Y-105552608D01*
X73706600Y-105552608D01*
X73652914Y-105282710D01*
X73547605Y-105028473D01*
X73394720Y-104799665D01*
X73200135Y-104605080D01*
X72971327Y-104452195D01*
X72717090Y-104346886D01*
X72447192Y-104293200D01*
X72172008Y-104293200D01*
X71902110Y-104346886D01*
X71647873Y-104452195D01*
X71419065Y-104605080D01*
X71224480Y-104799665D01*
X71071595Y-105028473D01*
X70966286Y-105282710D01*
X70912600Y-105552608D01*
X61969600Y-105552608D01*
X61969600Y-100552608D01*
X70912600Y-100552608D01*
X70912600Y-100827792D01*
X70966286Y-101097690D01*
X71071595Y-101351927D01*
X71224480Y-101580735D01*
X71419065Y-101775320D01*
X71647873Y-101928205D01*
X71902110Y-102033514D01*
X72172008Y-102087200D01*
X72447192Y-102087200D01*
X72717090Y-102033514D01*
X72971327Y-101928205D01*
X73200135Y-101775320D01*
X73394720Y-101580735D01*
X73547605Y-101351927D01*
X73652914Y-101097690D01*
X73706600Y-100827792D01*
X73706600Y-100552608D01*
X76912600Y-100552608D01*
X76912600Y-100827792D01*
X76966286Y-101097690D01*
X77071595Y-101351927D01*
X77224480Y-101580735D01*
X77419065Y-101775320D01*
X77647873Y-101928205D01*
X77902110Y-102033514D01*
X78172008Y-102087200D01*
X78447192Y-102087200D01*
X78717090Y-102033514D01*
X78971327Y-101928205D01*
X79200135Y-101775320D01*
X79394720Y-101580735D01*
X79547605Y-101351927D01*
X79652914Y-101097690D01*
X79706600Y-100827792D01*
X79706600Y-100552608D01*
X84912600Y-100552608D01*
X84912600Y-100827792D01*
X84966286Y-101097690D01*
X85071595Y-101351927D01*
X85224480Y-101580735D01*
X85419065Y-101775320D01*
X85647873Y-101928205D01*
X85902110Y-102033514D01*
X86172008Y-102087200D01*
X86447192Y-102087200D01*
X86717090Y-102033514D01*
X86971327Y-101928205D01*
X87200135Y-101775320D01*
X87394720Y-101580735D01*
X87547605Y-101351927D01*
X87652914Y-101097690D01*
X87706600Y-100827792D01*
X87706600Y-100552608D01*
X90912600Y-100552608D01*
X90912600Y-100827792D01*
X90966286Y-101097690D01*
X91071595Y-101351927D01*
X91224480Y-101580735D01*
X91419065Y-101775320D01*
X91647873Y-101928205D01*
X91902110Y-102033514D01*
X92172008Y-102087200D01*
X92447192Y-102087200D01*
X92717090Y-102033514D01*
X92971327Y-101928205D01*
X93200135Y-101775320D01*
X93394720Y-101580735D01*
X93547605Y-101351927D01*
X93652914Y-101097690D01*
X93706600Y-100827792D01*
X93706600Y-100552608D01*
X99662600Y-100552608D01*
X99662600Y-100827792D01*
X99716286Y-101097690D01*
X99821595Y-101351927D01*
X99974480Y-101580735D01*
X100169065Y-101775320D01*
X100397873Y-101928205D01*
X100652110Y-102033514D01*
X100922008Y-102087200D01*
X101197192Y-102087200D01*
X101467090Y-102033514D01*
X101721327Y-101928205D01*
X101950135Y-101775320D01*
X102144720Y-101580735D01*
X102297605Y-101351927D01*
X102402914Y-101097690D01*
X102456600Y-100827792D01*
X102456600Y-100552608D01*
X105662600Y-100552608D01*
X105662600Y-100827792D01*
X105716286Y-101097690D01*
X105821595Y-101351927D01*
X105974480Y-101580735D01*
X106169065Y-101775320D01*
X106397873Y-101928205D01*
X106652110Y-102033514D01*
X106922008Y-102087200D01*
X107197192Y-102087200D01*
X107467090Y-102033514D01*
X107721327Y-101928205D01*
X107950135Y-101775320D01*
X108144720Y-101580735D01*
X108297605Y-101351927D01*
X108402914Y-101097690D01*
X108456600Y-100827792D01*
X108456600Y-100552608D01*
X113662600Y-100552608D01*
X113662600Y-100827792D01*
X113716286Y-101097690D01*
X113821595Y-101351927D01*
X113974480Y-101580735D01*
X114169065Y-101775320D01*
X114397873Y-101928205D01*
X114652110Y-102033514D01*
X114922008Y-102087200D01*
X115197192Y-102087200D01*
X115467090Y-102033514D01*
X115721327Y-101928205D01*
X115950135Y-101775320D01*
X116144720Y-101580735D01*
X116297605Y-101351927D01*
X116402914Y-101097690D01*
X116456600Y-100827792D01*
X116456600Y-100552608D01*
X119662600Y-100552608D01*
X119662600Y-100827792D01*
X119716286Y-101097690D01*
X119821595Y-101351927D01*
X119974480Y-101580735D01*
X120169065Y-101775320D01*
X120397873Y-101928205D01*
X120652110Y-102033514D01*
X120922008Y-102087200D01*
X121197192Y-102087200D01*
X121467090Y-102033514D01*
X121721327Y-101928205D01*
X121950135Y-101775320D01*
X122144720Y-101580735D01*
X122297605Y-101351927D01*
X122402914Y-101097690D01*
X122456600Y-100827792D01*
X122456600Y-100552608D01*
X122402914Y-100282710D01*
X122297605Y-100028473D01*
X122144720Y-99799665D01*
X121950135Y-99605080D01*
X121721327Y-99452195D01*
X121467090Y-99346886D01*
X121197192Y-99293200D01*
X120922008Y-99293200D01*
X120652110Y-99346886D01*
X120397873Y-99452195D01*
X120169065Y-99605080D01*
X119974480Y-99799665D01*
X119821595Y-100028473D01*
X119716286Y-100282710D01*
X119662600Y-100552608D01*
X116456600Y-100552608D01*
X116402914Y-100282710D01*
X116297605Y-100028473D01*
X116144720Y-99799665D01*
X115950135Y-99605080D01*
X115721327Y-99452195D01*
X115467090Y-99346886D01*
X115197192Y-99293200D01*
X114922008Y-99293200D01*
X114652110Y-99346886D01*
X114397873Y-99452195D01*
X114169065Y-99605080D01*
X113974480Y-99799665D01*
X113821595Y-100028473D01*
X113716286Y-100282710D01*
X113662600Y-100552608D01*
X108456600Y-100552608D01*
X108402914Y-100282710D01*
X108297605Y-100028473D01*
X108144720Y-99799665D01*
X107950135Y-99605080D01*
X107721327Y-99452195D01*
X107467090Y-99346886D01*
X107197192Y-99293200D01*
X106922008Y-99293200D01*
X106652110Y-99346886D01*
X106397873Y-99452195D01*
X106169065Y-99605080D01*
X105974480Y-99799665D01*
X105821595Y-100028473D01*
X105716286Y-100282710D01*
X105662600Y-100552608D01*
X102456600Y-100552608D01*
X102402914Y-100282710D01*
X102297605Y-100028473D01*
X102144720Y-99799665D01*
X101950135Y-99605080D01*
X101721327Y-99452195D01*
X101467090Y-99346886D01*
X101197192Y-99293200D01*
X100922008Y-99293200D01*
X100652110Y-99346886D01*
X100397873Y-99452195D01*
X100169065Y-99605080D01*
X99974480Y-99799665D01*
X99821595Y-100028473D01*
X99716286Y-100282710D01*
X99662600Y-100552608D01*
X93706600Y-100552608D01*
X93652914Y-100282710D01*
X93547605Y-100028473D01*
X93394720Y-99799665D01*
X93200135Y-99605080D01*
X92971327Y-99452195D01*
X92717090Y-99346886D01*
X92447192Y-99293200D01*
X92172008Y-99293200D01*
X91902110Y-99346886D01*
X91647873Y-99452195D01*
X91419065Y-99605080D01*
X91224480Y-99799665D01*
X91071595Y-100028473D01*
X90966286Y-100282710D01*
X90912600Y-100552608D01*
X87706600Y-100552608D01*
X87652914Y-100282710D01*
X87547605Y-100028473D01*
X87394720Y-99799665D01*
X87200135Y-99605080D01*
X86971327Y-99452195D01*
X86717090Y-99346886D01*
X86447192Y-99293200D01*
X86172008Y-99293200D01*
X85902110Y-99346886D01*
X85647873Y-99452195D01*
X85419065Y-99605080D01*
X85224480Y-99799665D01*
X85071595Y-100028473D01*
X84966286Y-100282710D01*
X84912600Y-100552608D01*
X79706600Y-100552608D01*
X79652914Y-100282710D01*
X79547605Y-100028473D01*
X79394720Y-99799665D01*
X79200135Y-99605080D01*
X78971327Y-99452195D01*
X78717090Y-99346886D01*
X78447192Y-99293200D01*
X78172008Y-99293200D01*
X77902110Y-99346886D01*
X77647873Y-99452195D01*
X77419065Y-99605080D01*
X77224480Y-99799665D01*
X77071595Y-100028473D01*
X76966286Y-100282710D01*
X76912600Y-100552608D01*
X73706600Y-100552608D01*
X73652914Y-100282710D01*
X73547605Y-100028473D01*
X73394720Y-99799665D01*
X73200135Y-99605080D01*
X72971327Y-99452195D01*
X72717090Y-99346886D01*
X72447192Y-99293200D01*
X72172008Y-99293200D01*
X71902110Y-99346886D01*
X71647873Y-99452195D01*
X71419065Y-99605080D01*
X71224480Y-99799665D01*
X71071595Y-100028473D01*
X70966286Y-100282710D01*
X70912600Y-100552608D01*
X61969600Y-100552608D01*
X61969600Y-95279167D01*
X71674600Y-95279167D01*
X71674600Y-95601233D01*
X71737432Y-95917112D01*
X71860682Y-96214663D01*
X72039613Y-96482452D01*
X72267348Y-96710187D01*
X72535137Y-96889118D01*
X72832688Y-97012368D01*
X73148567Y-97075200D01*
X73470633Y-97075200D01*
X73786512Y-97012368D01*
X74084063Y-96889118D01*
X74351852Y-96710187D01*
X74579587Y-96482452D01*
X74758518Y-96214663D01*
X74881768Y-95917112D01*
X74944600Y-95601233D01*
X74944600Y-95279167D01*
X75674600Y-95279167D01*
X75674600Y-95601233D01*
X75737432Y-95917112D01*
X75860682Y-96214663D01*
X76039613Y-96482452D01*
X76267348Y-96710187D01*
X76535137Y-96889118D01*
X76832688Y-97012368D01*
X77148567Y-97075200D01*
X77470633Y-97075200D01*
X77786512Y-97012368D01*
X78084063Y-96889118D01*
X78351852Y-96710187D01*
X78579587Y-96482452D01*
X78758518Y-96214663D01*
X78881768Y-95917112D01*
X78944600Y-95601233D01*
X78944600Y-95279167D01*
X85674600Y-95279167D01*
X85674600Y-95601233D01*
X85737432Y-95917112D01*
X85860682Y-96214663D01*
X86039613Y-96482452D01*
X86267348Y-96710187D01*
X86535137Y-96889118D01*
X86832688Y-97012368D01*
X87148567Y-97075200D01*
X87470633Y-97075200D01*
X87786512Y-97012368D01*
X88084063Y-96889118D01*
X88351852Y-96710187D01*
X88579587Y-96482452D01*
X88758518Y-96214663D01*
X88881768Y-95917112D01*
X88944600Y-95601233D01*
X88944600Y-95279167D01*
X89674600Y-95279167D01*
X89674600Y-95601233D01*
X89737432Y-95917112D01*
X89860682Y-96214663D01*
X90039613Y-96482452D01*
X90267348Y-96710187D01*
X90535137Y-96889118D01*
X90832688Y-97012368D01*
X91148567Y-97075200D01*
X91470633Y-97075200D01*
X91786512Y-97012368D01*
X92084063Y-96889118D01*
X92351852Y-96710187D01*
X92579587Y-96482452D01*
X92758518Y-96214663D01*
X92881768Y-95917112D01*
X92944600Y-95601233D01*
X92944600Y-95279167D01*
X100674600Y-95279167D01*
X100674600Y-95601233D01*
X100737432Y-95917112D01*
X100860682Y-96214663D01*
X101039613Y-96482452D01*
X101267348Y-96710187D01*
X101535137Y-96889118D01*
X101832688Y-97012368D01*
X102148567Y-97075200D01*
X102470633Y-97075200D01*
X102786512Y-97012368D01*
X103084063Y-96889118D01*
X103351852Y-96710187D01*
X103579587Y-96482452D01*
X103758518Y-96214663D01*
X103881768Y-95917112D01*
X103944600Y-95601233D01*
X103944600Y-95279167D01*
X104674600Y-95279167D01*
X104674600Y-95601233D01*
X104737432Y-95917112D01*
X104860682Y-96214663D01*
X105039613Y-96482452D01*
X105267348Y-96710187D01*
X105535137Y-96889118D01*
X105832688Y-97012368D01*
X106148567Y-97075200D01*
X106470633Y-97075200D01*
X106786512Y-97012368D01*
X107084063Y-96889118D01*
X107351852Y-96710187D01*
X107579587Y-96482452D01*
X107758518Y-96214663D01*
X107881768Y-95917112D01*
X107944600Y-95601233D01*
X107944600Y-95279167D01*
X114674600Y-95279167D01*
X114674600Y-95601233D01*
X114737432Y-95917112D01*
X114860682Y-96214663D01*
X115039613Y-96482452D01*
X115267348Y-96710187D01*
X115535137Y-96889118D01*
X115832688Y-97012368D01*
X116148567Y-97075200D01*
X116470633Y-97075200D01*
X116786512Y-97012368D01*
X117084063Y-96889118D01*
X117351852Y-96710187D01*
X117579587Y-96482452D01*
X117758518Y-96214663D01*
X117881768Y-95917112D01*
X117944600Y-95601233D01*
X117944600Y-95279167D01*
X118674600Y-95279167D01*
X118674600Y-95601233D01*
X118737432Y-95917112D01*
X118860682Y-96214663D01*
X119039613Y-96482452D01*
X119267348Y-96710187D01*
X119535137Y-96889118D01*
X119832688Y-97012368D01*
X120148567Y-97075200D01*
X120470633Y-97075200D01*
X120786512Y-97012368D01*
X121084063Y-96889118D01*
X121351852Y-96710187D01*
X121579587Y-96482452D01*
X121758518Y-96214663D01*
X121881768Y-95917112D01*
X121944600Y-95601233D01*
X121944600Y-95279167D01*
X121881768Y-94963288D01*
X121758518Y-94665737D01*
X121579587Y-94397948D01*
X121351852Y-94170213D01*
X121084063Y-93991282D01*
X120786512Y-93868032D01*
X120470633Y-93805200D01*
X120148567Y-93805200D01*
X119832688Y-93868032D01*
X119535137Y-93991282D01*
X119267348Y-94170213D01*
X119039613Y-94397948D01*
X118860682Y-94665737D01*
X118737432Y-94963288D01*
X118674600Y-95279167D01*
X117944600Y-95279167D01*
X117881768Y-94963288D01*
X117758518Y-94665737D01*
X117579587Y-94397948D01*
X117351852Y-94170213D01*
X117084063Y-93991282D01*
X116786512Y-93868032D01*
X116470633Y-93805200D01*
X116148567Y-93805200D01*
X115832688Y-93868032D01*
X115535137Y-93991282D01*
X115267348Y-94170213D01*
X115039613Y-94397948D01*
X114860682Y-94665737D01*
X114737432Y-94963288D01*
X114674600Y-95279167D01*
X107944600Y-95279167D01*
X107881768Y-94963288D01*
X107758518Y-94665737D01*
X107579587Y-94397948D01*
X107351852Y-94170213D01*
X107084063Y-93991282D01*
X106786512Y-93868032D01*
X106470633Y-93805200D01*
X106148567Y-93805200D01*
X105832688Y-93868032D01*
X105535137Y-93991282D01*
X105267348Y-94170213D01*
X105039613Y-94397948D01*
X104860682Y-94665737D01*
X104737432Y-94963288D01*
X104674600Y-95279167D01*
X103944600Y-95279167D01*
X103881768Y-94963288D01*
X103758518Y-94665737D01*
X103579587Y-94397948D01*
X103351852Y-94170213D01*
X103084063Y-93991282D01*
X102786512Y-93868032D01*
X102470633Y-93805200D01*
X102148567Y-93805200D01*
X101832688Y-93868032D01*
X101535137Y-93991282D01*
X101267348Y-94170213D01*
X101039613Y-94397948D01*
X100860682Y-94665737D01*
X100737432Y-94963288D01*
X100674600Y-95279167D01*
X92944600Y-95279167D01*
X92881768Y-94963288D01*
X92758518Y-94665737D01*
X92579587Y-94397948D01*
X92351852Y-94170213D01*
X92084063Y-93991282D01*
X91786512Y-93868032D01*
X91470633Y-93805200D01*
X91148567Y-93805200D01*
X90832688Y-93868032D01*
X90535137Y-93991282D01*
X90267348Y-94170213D01*
X90039613Y-94397948D01*
X89860682Y-94665737D01*
X89737432Y-94963288D01*
X89674600Y-95279167D01*
X88944600Y-95279167D01*
X88881768Y-94963288D01*
X88758518Y-94665737D01*
X88579587Y-94397948D01*
X88351852Y-94170213D01*
X88084063Y-93991282D01*
X87786512Y-93868032D01*
X87470633Y-93805200D01*
X87148567Y-93805200D01*
X86832688Y-93868032D01*
X86535137Y-93991282D01*
X86267348Y-94170213D01*
X86039613Y-94397948D01*
X85860682Y-94665737D01*
X85737432Y-94963288D01*
X85674600Y-95279167D01*
X78944600Y-95279167D01*
X78881768Y-94963288D01*
X78758518Y-94665737D01*
X78579587Y-94397948D01*
X78351852Y-94170213D01*
X78084063Y-93991282D01*
X77786512Y-93868032D01*
X77470633Y-93805200D01*
X77148567Y-93805200D01*
X76832688Y-93868032D01*
X76535137Y-93991282D01*
X76267348Y-94170213D01*
X76039613Y-94397948D01*
X75860682Y-94665737D01*
X75737432Y-94963288D01*
X75674600Y-95279167D01*
X74944600Y-95279167D01*
X74881768Y-94963288D01*
X74758518Y-94665737D01*
X74579587Y-94397948D01*
X74351852Y-94170213D01*
X74084063Y-93991282D01*
X73786512Y-93868032D01*
X73470633Y-93805200D01*
X73148567Y-93805200D01*
X72832688Y-93868032D01*
X72535137Y-93991282D01*
X72267348Y-94170213D01*
X72039613Y-94397948D01*
X71860682Y-94665737D01*
X71737432Y-94963288D01*
X71674600Y-95279167D01*
X61969600Y-95279167D01*
X61969600Y-54354761D01*
X62006062Y-54679832D01*
X62145036Y-55117933D01*
X62366458Y-55520697D01*
X62661893Y-55872783D01*
X63020089Y-56160780D01*
X63427401Y-56373718D01*
X63868317Y-56503486D01*
X64326041Y-56545143D01*
X64783139Y-56497100D01*
X65222199Y-56361188D01*
X65626499Y-56142583D01*
X65980639Y-55849614D01*
X66271130Y-55493437D01*
X66486906Y-55087621D01*
X66619749Y-54647622D01*
X66664600Y-54190200D01*
X66663682Y-54124445D01*
X66606077Y-53668453D01*
X66461000Y-53232335D01*
X66233976Y-52832702D01*
X65933654Y-52484775D01*
X65571472Y-52201808D01*
X65161226Y-51994577D01*
X64718541Y-51870978D01*
X64448513Y-51850200D01*
X75674600Y-51850200D01*
X75674600Y-52101233D01*
X75674600Y-52101233D01*
G37*
X75674600Y-52101233D02*
X75737432Y-52417112D01*
X75860682Y-52714663D01*
X76039613Y-52982452D01*
X76267348Y-53210187D01*
X76535137Y-53389118D01*
X76832688Y-53512368D01*
X77148567Y-53575200D01*
X77470633Y-53575200D01*
X77786512Y-53512368D01*
X78084063Y-53389118D01*
X78351852Y-53210187D01*
X78579587Y-52982452D01*
X78758518Y-52714663D01*
X78881768Y-52417112D01*
X78944600Y-52101233D01*
X78944600Y-51850200D01*
X89674600Y-51850200D01*
X89674600Y-52101233D01*
X89737432Y-52417112D01*
X89860682Y-52714663D01*
X90039613Y-52982452D01*
X90267348Y-53210187D01*
X90535137Y-53389118D01*
X90832688Y-53512368D01*
X91148567Y-53575200D01*
X91470633Y-53575200D01*
X91786512Y-53512368D01*
X92084063Y-53389118D01*
X92351852Y-53210187D01*
X92579587Y-52982452D01*
X92758518Y-52714663D01*
X92881768Y-52417112D01*
X92944600Y-52101233D01*
X92944600Y-51850200D01*
X104674600Y-51850200D01*
X104674600Y-52101233D01*
X104737432Y-52417112D01*
X104860682Y-52714663D01*
X105039613Y-52982452D01*
X105267348Y-53210187D01*
X105535137Y-53389118D01*
X105832688Y-53512368D01*
X106148567Y-53575200D01*
X106470633Y-53575200D01*
X106786512Y-53512368D01*
X107084063Y-53389118D01*
X107351852Y-53210187D01*
X107579587Y-52982452D01*
X107758518Y-52714663D01*
X107881768Y-52417112D01*
X107944600Y-52101233D01*
X107944600Y-51850200D01*
X118674600Y-51850200D01*
X118674600Y-52101233D01*
X118737432Y-52417112D01*
X118860682Y-52714663D01*
X119039613Y-52982452D01*
X119267348Y-53210187D01*
X119535137Y-53389118D01*
X119832688Y-53512368D01*
X120148567Y-53575200D01*
X120470633Y-53575200D01*
X120786512Y-53512368D01*
X121084063Y-53389118D01*
X121351852Y-53210187D01*
X121579587Y-52982452D01*
X121758518Y-52714663D01*
X121881768Y-52417112D01*
X121944600Y-52101233D01*
X121944600Y-51850200D01*
X128938816Y-51850200D01*
X128603898Y-51890137D01*
X128166778Y-52032166D01*
X127765570Y-52256394D01*
X127415555Y-52554280D01*
X127130066Y-52914477D01*
X126919976Y-53323267D01*
X126793289Y-53765077D01*
X126754830Y-54223081D01*
X126806062Y-54679832D01*
X126945036Y-55117933D01*
X127166458Y-55520697D01*
X127461893Y-55872783D01*
X127820089Y-56160780D01*
X128227401Y-56373718D01*
X128668317Y-56503486D01*
X129126041Y-56545143D01*
X129583139Y-56497100D01*
X130022199Y-56361188D01*
X130426499Y-56142583D01*
X130780639Y-55849614D01*
X131071130Y-55493437D01*
X131286906Y-55087621D01*
X131419749Y-54647622D01*
X131449601Y-54343171D01*
X131449600Y-156512974D01*
X131406077Y-156168453D01*
X131261000Y-155732335D01*
X131033976Y-155332702D01*
X130733654Y-154984775D01*
X130371472Y-154701808D01*
X129961226Y-154494577D01*
X129518541Y-154370978D01*
X129060281Y-154335716D01*
X128603898Y-154390137D01*
X128166778Y-154532166D01*
X127765570Y-154756394D01*
X127415555Y-155054280D01*
X127130066Y-155414477D01*
X126919976Y-155823267D01*
X126793289Y-156265077D01*
X126754830Y-156723081D01*
X126806062Y-157179832D01*
X126945036Y-157617933D01*
X127166458Y-158020697D01*
X127461893Y-158372783D01*
X127820089Y-158660780D01*
X128227401Y-158873718D01*
X128668317Y-159003486D01*
X128961848Y-159030200D01*
X64468214Y-159030200D01*
X64783139Y-158997100D01*
X65222199Y-158861188D01*
X65626499Y-158642583D01*
X65980639Y-158349614D01*
X66271130Y-157993437D01*
X66486906Y-157587621D01*
X66619749Y-157147622D01*
X66664600Y-156690200D01*
X66663682Y-156624445D01*
X66606077Y-156168453D01*
X66461000Y-155732335D01*
X66233976Y-155332702D01*
X65933654Y-154984775D01*
X65571472Y-154701808D01*
X65161226Y-154494577D01*
X64718541Y-154370978D01*
X64260281Y-154335716D01*
X63803898Y-154390137D01*
X63366778Y-154532166D01*
X62965570Y-154756394D01*
X62615555Y-155054280D01*
X62330066Y-155414477D01*
X62119976Y-155823267D01*
X61993289Y-156265077D01*
X61969600Y-156547187D01*
X61969600Y-152617655D01*
X78792000Y-152617655D01*
X78792000Y-152964345D01*
X78859636Y-153304373D01*
X78992308Y-153624673D01*
X79184919Y-153912935D01*
X79430065Y-154158081D01*
X79718327Y-154350692D01*
X80038627Y-154483364D01*
X80378655Y-154551000D01*
X80725345Y-154551000D01*
X81065373Y-154483364D01*
X81093468Y-154471727D01*
X81159636Y-154804373D01*
X81292308Y-155124673D01*
X81484919Y-155412935D01*
X81730065Y-155658081D01*
X82018327Y-155850692D01*
X82338627Y-155983364D01*
X82678655Y-156051000D01*
X83025345Y-156051000D01*
X83365373Y-155983364D01*
X83685673Y-155850692D01*
X83973935Y-155658081D01*
X84219081Y-155412935D01*
X84411692Y-155124673D01*
X84544364Y-154804373D01*
X84612000Y-154464345D01*
X84612000Y-154117655D01*
X85542000Y-154117655D01*
X85542000Y-154464345D01*
X85609636Y-154804373D01*
X85742308Y-155124673D01*
X85934919Y-155412935D01*
X86180065Y-155658081D01*
X86468327Y-155850692D01*
X86788627Y-155983364D01*
X87128655Y-156051000D01*
X87475345Y-156051000D01*
X87815373Y-155983364D01*
X88135673Y-155850692D01*
X88423935Y-155658081D01*
X88669081Y-155412935D01*
X88861692Y-155124673D01*
X88994364Y-154804373D01*
X89053644Y-154506355D01*
X89163705Y-154535860D01*
X89509650Y-154558576D01*
X89853380Y-154513366D01*
X90181685Y-154401966D01*
X90386079Y-154292714D01*
X90496926Y-154015531D01*
X89452000Y-152970605D01*
X89437858Y-152984748D01*
X89258253Y-152805143D01*
X89272395Y-152791000D01*
X89631605Y-152791000D01*
X90676531Y-153835926D01*
X90953714Y-153725079D01*
X91107089Y-153414160D01*
X91196860Y-153079295D01*
X91219576Y-152733350D01*
X91204359Y-152617655D01*
X103684000Y-152617655D01*
X103684000Y-152964345D01*
X103751636Y-153304373D01*
X103884308Y-153624673D01*
X104076919Y-153912935D01*
X104322065Y-154158081D01*
X104610327Y-154350692D01*
X104930627Y-154483364D01*
X105270655Y-154551000D01*
X105617345Y-154551000D01*
X105957373Y-154483364D01*
X105985468Y-154471727D01*
X106051636Y-154804373D01*
X106184308Y-155124673D01*
X106376919Y-155412935D01*
X106622065Y-155658081D01*
X106910327Y-155850692D01*
X107230627Y-155983364D01*
X107570655Y-156051000D01*
X107917345Y-156051000D01*
X108257373Y-155983364D01*
X108577673Y-155850692D01*
X108865935Y-155658081D01*
X109111081Y-155412935D01*
X109303692Y-155124673D01*
X109436364Y-154804373D01*
X109504000Y-154464345D01*
X109504000Y-154117655D01*
X110434000Y-154117655D01*
X110434000Y-154464345D01*
X110501636Y-154804373D01*
X110634308Y-155124673D01*
X110826919Y-155412935D01*
X111072065Y-155658081D01*
X111360327Y-155850692D01*
X111680627Y-155983364D01*
X112020655Y-156051000D01*
X112367345Y-156051000D01*
X112707373Y-155983364D01*
X113027673Y-155850692D01*
X113315935Y-155658081D01*
X113561081Y-155412935D01*
X113753692Y-155124673D01*
X113886364Y-154804373D01*
X113945644Y-154506355D01*
X114055705Y-154535860D01*
X114401650Y-154558576D01*
X114745380Y-154513366D01*
X115073685Y-154401966D01*
X115278079Y-154292714D01*
X115388926Y-154015531D01*
X114344000Y-152970605D01*
X114329858Y-152984748D01*
X114150253Y-152805143D01*
X114164395Y-152791000D01*
X114523605Y-152791000D01*
X115568531Y-153835926D01*
X115845714Y-153725079D01*
X115999089Y-153414160D01*
X116088860Y-153079295D01*
X116111576Y-152733350D01*
X116066366Y-152389620D01*
X115954966Y-152061315D01*
X115845714Y-151856921D01*
X115568531Y-151746074D01*
X114523605Y-152791000D01*
X114164395Y-152791000D01*
X114150253Y-152776858D01*
X114329858Y-152597253D01*
X114344000Y-152611395D01*
X115388926Y-151566469D01*
X115278079Y-151289286D01*
X114967160Y-151135911D01*
X114632295Y-151046140D01*
X114536232Y-151039832D01*
X114599990Y-150944411D01*
X114711932Y-150674158D01*
X114769000Y-150387260D01*
X114769000Y-150094740D01*
X114711932Y-149807842D01*
X114599990Y-149537589D01*
X114437475Y-149294368D01*
X114230632Y-149087525D01*
X113987411Y-148925010D01*
X113717158Y-148813068D01*
X113430260Y-148756000D01*
X113137740Y-148756000D01*
X112850842Y-148813068D01*
X112580589Y-148925010D01*
X112337368Y-149087525D01*
X112130525Y-149294368D01*
X111968010Y-149537589D01*
X111856068Y-149807842D01*
X111799000Y-150094740D01*
X111799000Y-150387260D01*
X111856068Y-150674158D01*
X111968010Y-150944411D01*
X112130525Y-151187632D01*
X112337368Y-151394475D01*
X112580589Y-151556990D01*
X112850842Y-151668932D01*
X113089870Y-151716478D01*
X113119467Y-151746075D01*
X112842286Y-151856921D01*
X112688911Y-152167840D01*
X112599140Y-152502705D01*
X112594317Y-152576148D01*
X112367345Y-152531000D01*
X112020655Y-152531000D01*
X111680627Y-152598636D01*
X111360327Y-152731308D01*
X111072065Y-152923919D01*
X110826919Y-153169065D01*
X110634308Y-153457327D01*
X110501636Y-153777627D01*
X110434000Y-154117655D01*
X109504000Y-154117655D01*
X109436364Y-153777627D01*
X109303692Y-153457327D01*
X109111081Y-153169065D01*
X108865935Y-152923919D01*
X108577673Y-152731308D01*
X108257373Y-152598636D01*
X107917345Y-152531000D01*
X107570655Y-152531000D01*
X107230627Y-152598636D01*
X107202532Y-152610273D01*
X107136364Y-152277627D01*
X107003692Y-151957327D01*
X106837525Y-151708642D01*
X107037158Y-151668932D01*
X107307411Y-151556990D01*
X107550632Y-151394475D01*
X107757475Y-151187632D01*
X107919990Y-150944411D01*
X108031932Y-150674158D01*
X108089000Y-150387260D01*
X108089000Y-150094740D01*
X108031932Y-149807842D01*
X107919990Y-149537589D01*
X107757475Y-149294368D01*
X107550632Y-149087525D01*
X107307411Y-148925010D01*
X107037158Y-148813068D01*
X106750260Y-148756000D01*
X106457740Y-148756000D01*
X106170842Y-148813068D01*
X105900589Y-148925010D01*
X105657368Y-149087525D01*
X105450525Y-149294368D01*
X105288010Y-149537589D01*
X105176068Y-149807842D01*
X105119000Y-150094740D01*
X105119000Y-150387260D01*
X105176068Y-150674158D01*
X105288010Y-150944411D01*
X105345867Y-151031000D01*
X105270655Y-151031000D01*
X104930627Y-151098636D01*
X104610327Y-151231308D01*
X104322065Y-151423919D01*
X104076919Y-151669065D01*
X103884308Y-151957327D01*
X103751636Y-152277627D01*
X103684000Y-152617655D01*
X91204359Y-152617655D01*
X91174366Y-152389620D01*
X91062966Y-152061315D01*
X90953714Y-151856921D01*
X90676531Y-151746074D01*
X89631605Y-152791000D01*
X89272395Y-152791000D01*
X89258253Y-152776858D01*
X89437858Y-152597253D01*
X89452000Y-152611395D01*
X90496926Y-151566469D01*
X90386079Y-151289286D01*
X90075160Y-151135911D01*
X89740295Y-151046140D01*
X89644232Y-151039832D01*
X89707990Y-150944411D01*
X89819932Y-150674158D01*
X89877000Y-150387260D01*
X89877000Y-150094740D01*
X89819932Y-149807842D01*
X89707990Y-149537589D01*
X89545475Y-149294368D01*
X89338632Y-149087525D01*
X89095411Y-148925010D01*
X88825158Y-148813068D01*
X88538260Y-148756000D01*
X88245740Y-148756000D01*
X87958842Y-148813068D01*
X87688589Y-148925010D01*
X87445368Y-149087525D01*
X87238525Y-149294368D01*
X87076010Y-149537589D01*
X86964068Y-149807842D01*
X86907000Y-150094740D01*
X86907000Y-150387260D01*
X86964068Y-150674158D01*
X87076010Y-150944411D01*
X87238525Y-151187632D01*
X87445368Y-151394475D01*
X87688589Y-151556990D01*
X87958842Y-151668932D01*
X88197870Y-151716478D01*
X88227467Y-151746075D01*
X87950286Y-151856921D01*
X87796911Y-152167840D01*
X87707140Y-152502705D01*
X87702317Y-152576148D01*
X87475345Y-152531000D01*
X87128655Y-152531000D01*
X86788627Y-152598636D01*
X86468327Y-152731308D01*
X86180065Y-152923919D01*
X85934919Y-153169065D01*
X85742308Y-153457327D01*
X85609636Y-153777627D01*
X85542000Y-154117655D01*
X84612000Y-154117655D01*
X84544364Y-153777627D01*
X84411692Y-153457327D01*
X84219081Y-153169065D01*
X83973935Y-152923919D01*
X83685673Y-152731308D01*
X83365373Y-152598636D01*
X83025345Y-152531000D01*
X82678655Y-152531000D01*
X82338627Y-152598636D01*
X82310532Y-152610273D01*
X82244364Y-152277627D01*
X82111692Y-151957327D01*
X81945525Y-151708642D01*
X82145158Y-151668932D01*
X82415411Y-151556990D01*
X82658632Y-151394475D01*
X82865475Y-151187632D01*
X83027990Y-150944411D01*
X83139932Y-150674158D01*
X83197000Y-150387260D01*
X83197000Y-150094740D01*
X83139932Y-149807842D01*
X83027990Y-149537589D01*
X82865475Y-149294368D01*
X82658632Y-149087525D01*
X82415411Y-148925010D01*
X82145158Y-148813068D01*
X81858260Y-148756000D01*
X81565740Y-148756000D01*
X81278842Y-148813068D01*
X81008589Y-148925010D01*
X80765368Y-149087525D01*
X80558525Y-149294368D01*
X80396010Y-149537589D01*
X80284068Y-149807842D01*
X80227000Y-150094740D01*
X80227000Y-150387260D01*
X80284068Y-150674158D01*
X80396010Y-150944411D01*
X80453867Y-151031000D01*
X80378655Y-151031000D01*
X80038627Y-151098636D01*
X79718327Y-151231308D01*
X79430065Y-151423919D01*
X79184919Y-151669065D01*
X78992308Y-151957327D01*
X78859636Y-152277627D01*
X78792000Y-152617655D01*
X61969600Y-152617655D01*
X61969600Y-150190200D01*
X63658815Y-150190200D01*
X63687487Y-150481311D01*
X63772401Y-150761234D01*
X63910294Y-151019214D01*
X64095866Y-151245334D01*
X64321986Y-151430906D01*
X64579966Y-151568799D01*
X64859889Y-151653713D01*
X65078050Y-151675200D01*
X65223950Y-151675200D01*
X65442111Y-151653713D01*
X65722034Y-151568799D01*
X65980014Y-151430906D01*
X66206134Y-151245334D01*
X66230607Y-151215513D01*
X66251498Y-151284380D01*
X66310463Y-151394694D01*
X66389815Y-151491385D01*
X66486506Y-151570737D01*
X66596820Y-151629702D01*
X66716518Y-151666012D01*
X66841000Y-151678272D01*
X68541000Y-151678272D01*
X68665482Y-151666012D01*
X68785180Y-151629702D01*
X68895494Y-151570737D01*
X68992185Y-151491385D01*
X69071537Y-151394694D01*
X69130502Y-151284380D01*
X69166812Y-151164682D01*
X69179072Y-151040200D01*
X69179072Y-149340200D01*
X69166812Y-149215718D01*
X69130502Y-149096020D01*
X69071537Y-148985706D01*
X68992185Y-148889015D01*
X68895494Y-148809663D01*
X68785180Y-148750698D01*
X68704534Y-148726234D01*
X68788588Y-148650469D01*
X68962641Y-148417120D01*
X69087825Y-148154299D01*
X69132476Y-148007090D01*
X69011155Y-147777200D01*
X67818000Y-147777200D01*
X67818000Y-147797200D01*
X67564000Y-147797200D01*
X67564000Y-147777200D01*
X65278000Y-147777200D01*
X65278000Y-147797200D01*
X65024000Y-147797200D01*
X65024000Y-147777200D01*
X63830845Y-147777200D01*
X63709524Y-148007090D01*
X63754175Y-148154299D01*
X63879359Y-148417120D01*
X64053412Y-148650469D01*
X64269645Y-148845378D01*
X64386523Y-148914999D01*
X64321986Y-148949494D01*
X64095866Y-149135066D01*
X63910294Y-149361186D01*
X63772401Y-149619166D01*
X63687487Y-149899089D01*
X63658815Y-150190200D01*
X61969600Y-150190200D01*
X61969600Y-145467090D01*
X63709524Y-145467090D01*
X63754175Y-145614299D01*
X63879359Y-145877120D01*
X64053412Y-146110469D01*
X64269645Y-146305378D01*
X64395255Y-146380200D01*
X64269645Y-146455022D01*
X64053412Y-146649931D01*
X63879359Y-146883280D01*
X63754175Y-147146101D01*
X63709524Y-147293310D01*
X63830845Y-147523200D01*
X65024000Y-147523200D01*
X65024000Y-145237200D01*
X65278000Y-145237200D01*
X65278000Y-147523200D01*
X67564000Y-147523200D01*
X67564000Y-145237200D01*
X67818000Y-145237200D01*
X67818000Y-147523200D01*
X69011155Y-147523200D01*
X69132476Y-147293310D01*
X69087825Y-147146101D01*
X68962641Y-146883280D01*
X68788588Y-146649931D01*
X68572355Y-146455022D01*
X68446745Y-146380200D01*
X68572355Y-146305378D01*
X68788588Y-146110469D01*
X68962641Y-145877120D01*
X69087825Y-145614299D01*
X69132476Y-145467090D01*
X69011155Y-145237200D01*
X67818000Y-145237200D01*
X67564000Y-145237200D01*
X65278000Y-145237200D01*
X65024000Y-145237200D01*
X63830845Y-145237200D01*
X63709524Y-145467090D01*
X61969600Y-145467090D01*
X61969600Y-142927090D01*
X63709524Y-142927090D01*
X63754175Y-143074299D01*
X63879359Y-143337120D01*
X64053412Y-143570469D01*
X64269645Y-143765378D01*
X64395255Y-143840200D01*
X64269645Y-143915022D01*
X64053412Y-144109931D01*
X63879359Y-144343280D01*
X63754175Y-144606101D01*
X63709524Y-144753310D01*
X63830845Y-144983200D01*
X65024000Y-144983200D01*
X65024000Y-142697200D01*
X65278000Y-142697200D01*
X65278000Y-144983200D01*
X67564000Y-144983200D01*
X67564000Y-142697200D01*
X67818000Y-142697200D01*
X67818000Y-144983200D01*
X69011155Y-144983200D01*
X69132476Y-144753310D01*
X69087825Y-144606101D01*
X68962641Y-144343280D01*
X68788588Y-144109931D01*
X68572355Y-143915022D01*
X68446745Y-143840200D01*
X68572355Y-143765378D01*
X68788588Y-143570469D01*
X68962641Y-143337120D01*
X69087825Y-143074299D01*
X69132476Y-142927090D01*
X69081595Y-142830675D01*
X82174600Y-142830675D01*
X82174600Y-143349725D01*
X82275861Y-143858801D01*
X82474493Y-144338341D01*
X82762862Y-144769915D01*
X83129885Y-145136938D01*
X83561459Y-145425307D01*
X84040999Y-145623939D01*
X84550075Y-145725200D01*
X85069125Y-145725200D01*
X85578201Y-145623939D01*
X86057741Y-145425307D01*
X86489315Y-145136938D01*
X86856338Y-144769915D01*
X87144707Y-144338341D01*
X87343339Y-143858801D01*
X87444600Y-143349725D01*
X87444600Y-142830675D01*
X105924600Y-142830675D01*
X105924600Y-143349725D01*
X106025861Y-143858801D01*
X106224493Y-144338341D01*
X106512862Y-144769915D01*
X106879885Y-145136938D01*
X107311459Y-145425307D01*
X107790999Y-145623939D01*
X108300075Y-145725200D01*
X108819125Y-145725200D01*
X109328201Y-145623939D01*
X109807741Y-145425307D01*
X110239315Y-145136938D01*
X110606338Y-144769915D01*
X110894707Y-144338341D01*
X111093339Y-143858801D01*
X111194600Y-143349725D01*
X111194600Y-142830675D01*
X111093339Y-142321599D01*
X110894707Y-141842059D01*
X110606338Y-141410485D01*
X110239315Y-141043462D01*
X109807741Y-140755093D01*
X109328201Y-140556461D01*
X108819125Y-140455200D01*
X108300075Y-140455200D01*
X107790999Y-140556461D01*
X107311459Y-140755093D01*
X106879885Y-141043462D01*
X106512862Y-141410485D01*
X106224493Y-141842059D01*
X106025861Y-142321599D01*
X105924600Y-142830675D01*
X87444600Y-142830675D01*
X87343339Y-142321599D01*
X87144707Y-141842059D01*
X86856338Y-141410485D01*
X86489315Y-141043462D01*
X86057741Y-140755093D01*
X85578201Y-140556461D01*
X85069125Y-140455200D01*
X84550075Y-140455200D01*
X84040999Y-140556461D01*
X83561459Y-140755093D01*
X83129885Y-141043462D01*
X82762862Y-141410485D01*
X82474493Y-141842059D01*
X82275861Y-142321599D01*
X82174600Y-142830675D01*
X69081595Y-142830675D01*
X69011155Y-142697200D01*
X67818000Y-142697200D01*
X67564000Y-142697200D01*
X65278000Y-142697200D01*
X65024000Y-142697200D01*
X63830845Y-142697200D01*
X63709524Y-142927090D01*
X61969600Y-142927090D01*
X61969600Y-132410200D01*
X63658815Y-132410200D01*
X63687487Y-132701311D01*
X63772401Y-132981234D01*
X63910294Y-133239214D01*
X64095866Y-133465334D01*
X64321986Y-133650906D01*
X64376791Y-133680200D01*
X64321986Y-133709494D01*
X64095866Y-133895066D01*
X63910294Y-134121186D01*
X63772401Y-134379166D01*
X63687487Y-134659089D01*
X63658815Y-134950200D01*
X63687487Y-135241311D01*
X63772401Y-135521234D01*
X63910294Y-135779214D01*
X64095866Y-136005334D01*
X64321986Y-136190906D01*
X64376791Y-136220200D01*
X64321986Y-136249494D01*
X64095866Y-136435066D01*
X63910294Y-136661186D01*
X63772401Y-136919166D01*
X63687487Y-137199089D01*
X63658815Y-137490200D01*
X63687487Y-137781311D01*
X63772401Y-138061234D01*
X63910294Y-138319214D01*
X64095866Y-138545334D01*
X64321986Y-138730906D01*
X64376791Y-138760200D01*
X64321986Y-138789494D01*
X64095866Y-138975066D01*
X63910294Y-139201186D01*
X63772401Y-139459166D01*
X63687487Y-139739089D01*
X63658815Y-140030200D01*
X63687487Y-140321311D01*
X63772401Y-140601234D01*
X63910294Y-140859214D01*
X64095866Y-141085334D01*
X64321986Y-141270906D01*
X64386523Y-141305401D01*
X64269645Y-141375022D01*
X64053412Y-141569931D01*
X63879359Y-141803280D01*
X63754175Y-142066101D01*
X63709524Y-142213310D01*
X63830845Y-142443200D01*
X65024000Y-142443200D01*
X65024000Y-142423200D01*
X65278000Y-142423200D01*
X65278000Y-142443200D01*
X67564000Y-142443200D01*
X67564000Y-142423200D01*
X67818000Y-142423200D01*
X67818000Y-142443200D01*
X69011155Y-142443200D01*
X69132476Y-142213310D01*
X69087825Y-142066101D01*
X68962641Y-141803280D01*
X68788588Y-141569931D01*
X68572355Y-141375022D01*
X68455477Y-141305401D01*
X68520014Y-141270906D01*
X68746134Y-141085334D01*
X68931706Y-140859214D01*
X69069599Y-140601234D01*
X69154513Y-140321311D01*
X69183185Y-140030200D01*
X69154513Y-139739089D01*
X69069599Y-139459166D01*
X68931706Y-139201186D01*
X68746134Y-138975066D01*
X68520014Y-138789494D01*
X68465209Y-138760200D01*
X68520014Y-138730906D01*
X68746134Y-138545334D01*
X68931706Y-138319214D01*
X69069599Y-138061234D01*
X69154513Y-137781311D01*
X69183185Y-137490200D01*
X69154513Y-137199089D01*
X69069599Y-136919166D01*
X68931706Y-136661186D01*
X68746134Y-136435066D01*
X68520014Y-136249494D01*
X68465209Y-136220200D01*
X68520014Y-136190906D01*
X68746134Y-136005334D01*
X68931706Y-135779214D01*
X69069599Y-135521234D01*
X69154513Y-135241311D01*
X69183185Y-134950200D01*
X69154513Y-134659089D01*
X69069599Y-134379166D01*
X68931706Y-134121186D01*
X68857426Y-134030675D01*
X82174600Y-134030675D01*
X82174600Y-134549725D01*
X82275861Y-135058801D01*
X82474493Y-135538341D01*
X82762862Y-135969915D01*
X83129885Y-136336938D01*
X83561459Y-136625307D01*
X84040999Y-136823939D01*
X84550075Y-136925200D01*
X85069125Y-136925200D01*
X85578201Y-136823939D01*
X86057741Y-136625307D01*
X86489315Y-136336938D01*
X86787237Y-136039016D01*
X90274600Y-136039016D01*
X90274600Y-136341384D01*
X90333589Y-136637943D01*
X90449301Y-136917295D01*
X90617288Y-137168705D01*
X90831095Y-137382512D01*
X90917431Y-137440200D01*
X90831095Y-137497888D01*
X90617288Y-137711695D01*
X90449301Y-137963105D01*
X90333589Y-138242457D01*
X90274600Y-138539016D01*
X90274600Y-138841384D01*
X90333589Y-139137943D01*
X90449301Y-139417295D01*
X90617288Y-139668705D01*
X90831095Y-139882512D01*
X90917431Y-139940200D01*
X90831095Y-139997888D01*
X90617288Y-140211695D01*
X90449301Y-140463105D01*
X90333589Y-140742457D01*
X90274600Y-141039016D01*
X90274600Y-141341384D01*
X90333589Y-141637943D01*
X90449301Y-141917295D01*
X90617288Y-142168705D01*
X90831095Y-142382512D01*
X91082505Y-142550499D01*
X91361857Y-142666211D01*
X91658416Y-142725200D01*
X91960784Y-142725200D01*
X92257343Y-142666211D01*
X92536695Y-142550499D01*
X92788105Y-142382512D01*
X92916337Y-142254280D01*
X100675125Y-142254280D01*
X100758808Y-142508461D01*
X101031375Y-142639358D01*
X101324242Y-142714565D01*
X101626153Y-142731191D01*
X101925507Y-142688597D01*
X102210799Y-142588422D01*
X102360392Y-142508461D01*
X102444075Y-142254280D01*
X101559600Y-141369805D01*
X100675125Y-142254280D01*
X92916337Y-142254280D01*
X93001912Y-142168705D01*
X93169899Y-141917295D01*
X93285611Y-141637943D01*
X93344600Y-141341384D01*
X93344600Y-141256753D01*
X100018609Y-141256753D01*
X100061203Y-141556107D01*
X100161378Y-141841399D01*
X100241339Y-141990992D01*
X100495520Y-142074675D01*
X101379995Y-141190200D01*
X101739205Y-141190200D01*
X102623680Y-142074675D01*
X102877861Y-141990992D01*
X103008758Y-141718425D01*
X103083965Y-141425558D01*
X103100591Y-141123647D01*
X103057997Y-140824293D01*
X102957822Y-140539001D01*
X102877861Y-140389408D01*
X102623680Y-140305725D01*
X101739205Y-141190200D01*
X101379995Y-141190200D01*
X100495520Y-140305725D01*
X100241339Y-140389408D01*
X100110442Y-140661975D01*
X100035235Y-140954842D01*
X100018609Y-141256753D01*
X93344600Y-141256753D01*
X93344600Y-141039016D01*
X93285611Y-140742457D01*
X93169899Y-140463105D01*
X93001912Y-140211695D01*
X92788105Y-139997888D01*
X92701769Y-139940200D01*
X92788105Y-139882512D01*
X93001912Y-139668705D01*
X93169899Y-139417295D01*
X93285611Y-139137943D01*
X93344600Y-138841384D01*
X93344600Y-138539016D01*
X93285611Y-138242457D01*
X93169899Y-137963105D01*
X93001912Y-137711695D01*
X92788105Y-137497888D01*
X92701769Y-137440200D01*
X92788105Y-137382512D01*
X93001912Y-137168705D01*
X93169899Y-136917295D01*
X93285611Y-136637943D01*
X93344600Y-136341384D01*
X93344600Y-136039016D01*
X93285611Y-135742457D01*
X93169899Y-135463105D01*
X93001912Y-135211695D01*
X92788105Y-134997888D01*
X92536695Y-134829901D01*
X92257343Y-134714189D01*
X91960784Y-134655200D01*
X91658416Y-134655200D01*
X91361857Y-134714189D01*
X91082505Y-134829901D01*
X90831095Y-134997888D01*
X90617288Y-135211695D01*
X90449301Y-135463105D01*
X90333589Y-135742457D01*
X90274600Y-136039016D01*
X86787237Y-136039016D01*
X86856338Y-135969915D01*
X87144707Y-135538341D01*
X87343339Y-135058801D01*
X87444600Y-134549725D01*
X87444600Y-134030675D01*
X87343339Y-133521599D01*
X87144707Y-133042059D01*
X86856338Y-132610485D01*
X86489315Y-132243462D01*
X86057741Y-131955093D01*
X85578201Y-131756461D01*
X85069125Y-131655200D01*
X84550075Y-131655200D01*
X84040999Y-131756461D01*
X83561459Y-131955093D01*
X83129885Y-132243462D01*
X82762862Y-132610485D01*
X82474493Y-133042059D01*
X82275861Y-133521599D01*
X82174600Y-134030675D01*
X68857426Y-134030675D01*
X68746134Y-133895066D01*
X68520014Y-133709494D01*
X68465209Y-133680200D01*
X68520014Y-133650906D01*
X68746134Y-133465334D01*
X68931706Y-133239214D01*
X69069599Y-132981234D01*
X69154513Y-132701311D01*
X69183185Y-132410200D01*
X69154513Y-132119089D01*
X69069599Y-131839166D01*
X68931706Y-131581186D01*
X68746134Y-131355066D01*
X68520014Y-131169494D01*
X68262034Y-131031601D01*
X67982111Y-130946687D01*
X67763950Y-130925200D01*
X67618050Y-130925200D01*
X67399889Y-130946687D01*
X67119966Y-131031601D01*
X66861986Y-131169494D01*
X66635866Y-131355066D01*
X66450294Y-131581186D01*
X66421000Y-131635991D01*
X66391706Y-131581186D01*
X66206134Y-131355066D01*
X65980014Y-131169494D01*
X65722034Y-131031601D01*
X65442111Y-130946687D01*
X65223950Y-130925200D01*
X65078050Y-130925200D01*
X64859889Y-130946687D01*
X64579966Y-131031601D01*
X64321986Y-131169494D01*
X64095866Y-131355066D01*
X63910294Y-131581186D01*
X63772401Y-131839166D01*
X63687487Y-132119089D01*
X63658815Y-132410200D01*
X61969600Y-132410200D01*
X61969600Y-116088261D01*
X67024600Y-116088261D01*
X67024600Y-116292139D01*
X67064374Y-116492098D01*
X67142395Y-116680456D01*
X67174600Y-116728654D01*
X67174601Y-121396721D01*
X67170319Y-121440200D01*
X67187405Y-121613690D01*
X67238012Y-121780513D01*
X67320190Y-121934259D01*
X67403068Y-122035246D01*
X67403071Y-122035249D01*
X67430784Y-122069017D01*
X67464552Y-122096730D01*
X73803065Y-128435244D01*
X73814374Y-128492098D01*
X73892395Y-128680456D01*
X74005663Y-128849974D01*
X74149826Y-128994137D01*
X74319344Y-129107405D01*
X74507702Y-129185426D01*
X74707661Y-129225200D01*
X74911539Y-129225200D01*
X75111498Y-129185426D01*
X75299856Y-129107405D01*
X75469374Y-128994137D01*
X75613537Y-128849974D01*
X75726805Y-128680456D01*
X75804826Y-128492098D01*
X75844600Y-128292139D01*
X75844600Y-128088261D01*
X75804826Y-127888302D01*
X75726805Y-127699944D01*
X75613537Y-127530426D01*
X75469374Y-127386263D01*
X75299856Y-127272995D01*
X75111498Y-127194974D01*
X75054644Y-127183665D01*
X69709240Y-121838261D01*
X81524600Y-121838261D01*
X81524600Y-122042139D01*
X81564374Y-122242098D01*
X81642395Y-122430456D01*
X81755663Y-122599974D01*
X81899826Y-122744137D01*
X82069344Y-122857405D01*
X82257702Y-122935426D01*
X82457661Y-122975200D01*
X82519799Y-122975200D01*
X96245801Y-136701203D01*
X96269599Y-136730201D01*
X96385324Y-136825174D01*
X96517353Y-136895746D01*
X96660614Y-136939203D01*
X96772267Y-136950200D01*
X96772276Y-136950200D01*
X96809599Y-136953876D01*
X96846922Y-136950200D01*
X100221287Y-136950200D01*
X100367288Y-137168705D01*
X100581095Y-137382512D01*
X100667431Y-137440200D01*
X100581095Y-137497888D01*
X100367288Y-137711695D01*
X100199301Y-137963105D01*
X100083589Y-138242457D01*
X100024600Y-138539016D01*
X100024600Y-138841384D01*
X100083589Y-139137943D01*
X100199301Y-139417295D01*
X100367288Y-139668705D01*
X100581095Y-139882512D01*
X100723910Y-139977938D01*
X100675125Y-140126120D01*
X101559600Y-141010595D01*
X102444075Y-140126120D01*
X102395290Y-139977938D01*
X102538105Y-139882512D01*
X102751912Y-139668705D01*
X102919899Y-139417295D01*
X103035611Y-139137943D01*
X103094600Y-138841384D01*
X103094600Y-138539016D01*
X103035611Y-138242457D01*
X102919899Y-137963105D01*
X102751912Y-137711695D01*
X102538105Y-137497888D01*
X102451769Y-137440200D01*
X102538105Y-137382512D01*
X102751912Y-137168705D01*
X102919899Y-136917295D01*
X103035611Y-136637943D01*
X103094600Y-136341384D01*
X103094600Y-136039016D01*
X103035611Y-135742457D01*
X102919899Y-135463105D01*
X102751912Y-135211695D01*
X102538105Y-134997888D01*
X102286695Y-134829901D01*
X102007343Y-134714189D01*
X101710784Y-134655200D01*
X101408416Y-134655200D01*
X101111857Y-134714189D01*
X100832505Y-134829901D01*
X100581095Y-134997888D01*
X100367288Y-135211695D01*
X100221287Y-135430200D01*
X97124402Y-135430200D01*
X95724877Y-134030675D01*
X105924600Y-134030675D01*
X105924600Y-134549725D01*
X106025861Y-135058801D01*
X106224493Y-135538341D01*
X106512862Y-135969915D01*
X106879885Y-136336938D01*
X107311459Y-136625307D01*
X107790999Y-136823939D01*
X108300075Y-136925200D01*
X108819125Y-136925200D01*
X109328201Y-136823939D01*
X109807741Y-136625307D01*
X110239315Y-136336938D01*
X110606338Y-135969915D01*
X110894707Y-135538341D01*
X111093339Y-135058801D01*
X111194600Y-134549725D01*
X111194600Y-134030675D01*
X111093339Y-133521599D01*
X110894707Y-133042059D01*
X110606338Y-132610485D01*
X110239315Y-132243462D01*
X109807741Y-131955093D01*
X109328201Y-131756461D01*
X108819125Y-131655200D01*
X108300075Y-131655200D01*
X107790999Y-131756461D01*
X107311459Y-131955093D01*
X106879885Y-132243462D01*
X106512862Y-132610485D01*
X106224493Y-133042059D01*
X106025861Y-133521599D01*
X105924600Y-134030675D01*
X95724877Y-134030675D01*
X84282463Y-122588261D01*
X89024600Y-122588261D01*
X89024600Y-122792139D01*
X89064374Y-122992098D01*
X89142395Y-123180456D01*
X89255663Y-123349974D01*
X89299601Y-123393912D01*
X89299600Y-125486489D01*
X89255663Y-125530426D01*
X89142395Y-125699944D01*
X89064374Y-125888302D01*
X89024600Y-126088261D01*
X89024600Y-126292139D01*
X89064374Y-126492098D01*
X89142395Y-126680456D01*
X89255663Y-126849974D01*
X89399826Y-126994137D01*
X89569344Y-127107405D01*
X89757702Y-127185426D01*
X89957661Y-127225200D01*
X90161539Y-127225200D01*
X90361498Y-127185426D01*
X90549856Y-127107405D01*
X90719374Y-126994137D01*
X90863537Y-126849974D01*
X90976805Y-126680456D01*
X91054826Y-126492098D01*
X91094600Y-126292139D01*
X91094600Y-126088261D01*
X91054826Y-125888302D01*
X90976805Y-125699944D01*
X90863537Y-125530426D01*
X90819600Y-125486489D01*
X90819600Y-123393911D01*
X90863537Y-123349974D01*
X90976805Y-123180456D01*
X91054826Y-122992098D01*
X91094600Y-122792139D01*
X91094600Y-122588261D01*
X91054826Y-122388302D01*
X90976805Y-122199944D01*
X90863537Y-122030426D01*
X90719374Y-121886263D01*
X90549856Y-121772995D01*
X90361498Y-121694974D01*
X90161539Y-121655200D01*
X89957661Y-121655200D01*
X89757702Y-121694974D01*
X89569344Y-121772995D01*
X89399826Y-121886263D01*
X89255663Y-122030426D01*
X89142395Y-122199944D01*
X89064374Y-122388302D01*
X89024600Y-122588261D01*
X84282463Y-122588261D01*
X83594600Y-121900399D01*
X83594600Y-121838261D01*
X83554826Y-121638302D01*
X83476805Y-121449944D01*
X83363537Y-121280426D01*
X83219374Y-121136263D01*
X83049856Y-121022995D01*
X82861498Y-120944974D01*
X82661539Y-120905200D01*
X82457661Y-120905200D01*
X82257702Y-120944974D01*
X82069344Y-121022995D01*
X81899826Y-121136263D01*
X81755663Y-121280426D01*
X81642395Y-121449944D01*
X81564374Y-121638302D01*
X81524600Y-121838261D01*
X69709240Y-121838261D01*
X68944600Y-121073622D01*
X68944600Y-117075200D01*
X81521146Y-117075200D01*
X81569344Y-117107405D01*
X81757702Y-117185426D01*
X81957661Y-117225200D01*
X82161539Y-117225200D01*
X82361498Y-117185426D01*
X82549856Y-117107405D01*
X82598054Y-117075200D01*
X96271146Y-117075200D01*
X96319344Y-117107405D01*
X96507702Y-117185426D01*
X96707661Y-117225200D01*
X96911539Y-117225200D01*
X97111498Y-117185426D01*
X97299856Y-117107405D01*
X97348054Y-117075200D01*
X110021146Y-117075200D01*
X110069344Y-117107405D01*
X110257702Y-117185426D01*
X110457661Y-117225200D01*
X110661539Y-117225200D01*
X110861498Y-117185426D01*
X111049856Y-117107405D01*
X111219374Y-116994137D01*
X111363537Y-116849974D01*
X111476805Y-116680456D01*
X111554826Y-116492098D01*
X111594600Y-116292139D01*
X111594600Y-116088261D01*
X111554826Y-115888302D01*
X111476805Y-115699944D01*
X111363537Y-115530426D01*
X111219374Y-115386263D01*
X111049856Y-115272995D01*
X110861498Y-115194974D01*
X110661539Y-115155200D01*
X110457661Y-115155200D01*
X110257702Y-115194974D01*
X110069344Y-115272995D01*
X110021146Y-115305200D01*
X97348054Y-115305200D01*
X97299856Y-115272995D01*
X97111498Y-115194974D01*
X96911539Y-115155200D01*
X96707661Y-115155200D01*
X96507702Y-115194974D01*
X96319344Y-115272995D01*
X96271146Y-115305200D01*
X82598054Y-115305200D01*
X82549856Y-115272995D01*
X82361498Y-115194974D01*
X82161539Y-115155200D01*
X81957661Y-115155200D01*
X81757702Y-115194974D01*
X81569344Y-115272995D01*
X81521146Y-115305200D01*
X68598054Y-115305200D01*
X68549856Y-115272995D01*
X68361498Y-115194974D01*
X68161539Y-115155200D01*
X67957661Y-115155200D01*
X67757702Y-115194974D01*
X67569344Y-115272995D01*
X67399826Y-115386263D01*
X67255663Y-115530426D01*
X67142395Y-115699944D01*
X67064374Y-115888302D01*
X67024600Y-116088261D01*
X61969600Y-116088261D01*
X61969600Y-113475950D01*
X72524600Y-113475950D01*
X72524600Y-114152742D01*
X72549003Y-114275423D01*
X72596870Y-114390985D01*
X72666363Y-114494989D01*
X72754811Y-114583437D01*
X72858815Y-114652930D01*
X72974377Y-114700797D01*
X73097058Y-114725200D01*
X73773850Y-114725200D01*
X73932600Y-114566450D01*
X73932600Y-113317200D01*
X72683350Y-113317200D01*
X72524600Y-113475950D01*
X61969600Y-113475950D01*
X61969600Y-112227658D01*
X72524600Y-112227658D01*
X72524600Y-112904450D01*
X72683350Y-113063200D01*
X73932600Y-113063200D01*
X73932600Y-111813950D01*
X74186600Y-111813950D01*
X74186600Y-113063200D01*
X74206600Y-113063200D01*
X74206600Y-113317200D01*
X74186600Y-113317200D01*
X74186600Y-114566450D01*
X74345350Y-114725200D01*
X75022142Y-114725200D01*
X75144823Y-114700797D01*
X75260385Y-114652930D01*
X75364389Y-114583437D01*
X75452837Y-114494989D01*
X75522330Y-114390985D01*
X75553739Y-114315156D01*
X75621095Y-114382512D01*
X75872505Y-114550499D01*
X76151857Y-114666211D01*
X76448416Y-114725200D01*
X76750784Y-114725200D01*
X77047343Y-114666211D01*
X77326695Y-114550499D01*
X77578105Y-114382512D01*
X77791912Y-114168705D01*
X77959899Y-113917295D01*
X78075611Y-113637943D01*
X78107833Y-113475950D01*
X86524600Y-113475950D01*
X86524600Y-114152742D01*
X86549003Y-114275423D01*
X86596870Y-114390985D01*
X86666363Y-114494989D01*
X86754811Y-114583437D01*
X86858815Y-114652930D01*
X86974377Y-114700797D01*
X87097058Y-114725200D01*
X87773850Y-114725200D01*
X87932600Y-114566450D01*
X87932600Y-113317200D01*
X86683350Y-113317200D01*
X86524600Y-113475950D01*
X78107833Y-113475950D01*
X78134600Y-113341384D01*
X78134600Y-113039016D01*
X78075611Y-112742457D01*
X77959899Y-112463105D01*
X77802579Y-112227658D01*
X86524600Y-112227658D01*
X86524600Y-112904450D01*
X86683350Y-113063200D01*
X87932600Y-113063200D01*
X87932600Y-111813950D01*
X88186600Y-111813950D01*
X88186600Y-113063200D01*
X88206600Y-113063200D01*
X88206600Y-113317200D01*
X88186600Y-113317200D01*
X88186600Y-114566450D01*
X88345350Y-114725200D01*
X89022142Y-114725200D01*
X89144823Y-114700797D01*
X89260385Y-114652930D01*
X89364389Y-114583437D01*
X89452837Y-114494989D01*
X89522330Y-114390985D01*
X89553739Y-114315156D01*
X89621095Y-114382512D01*
X89872505Y-114550499D01*
X90151857Y-114666211D01*
X90448416Y-114725200D01*
X90750784Y-114725200D01*
X91047343Y-114666211D01*
X91326695Y-114550499D01*
X91578105Y-114382512D01*
X91791912Y-114168705D01*
X91959899Y-113917295D01*
X92075611Y-113637943D01*
X92107833Y-113475950D01*
X101274600Y-113475950D01*
X101274600Y-114152742D01*
X101299003Y-114275423D01*
X101346870Y-114390985D01*
X101416363Y-114494989D01*
X101504811Y-114583437D01*
X101608815Y-114652930D01*
X101724377Y-114700797D01*
X101847058Y-114725200D01*
X102523850Y-114725200D01*
X102682600Y-114566450D01*
X102682600Y-113317200D01*
X101433350Y-113317200D01*
X101274600Y-113475950D01*
X92107833Y-113475950D01*
X92134600Y-113341384D01*
X92134600Y-113039016D01*
X92075611Y-112742457D01*
X91959899Y-112463105D01*
X91802579Y-112227658D01*
X101274600Y-112227658D01*
X101274600Y-112904450D01*
X101433350Y-113063200D01*
X102682600Y-113063200D01*
X102682600Y-111813950D01*
X102936600Y-111813950D01*
X102936600Y-113063200D01*
X102956600Y-113063200D01*
X102956600Y-113317200D01*
X102936600Y-113317200D01*
X102936600Y-114566450D01*
X103095350Y-114725200D01*
X103772142Y-114725200D01*
X103894823Y-114700797D01*
X104010385Y-114652930D01*
X104114389Y-114583437D01*
X104202837Y-114494989D01*
X104272330Y-114390985D01*
X104303739Y-114315156D01*
X104371095Y-114382512D01*
X104622505Y-114550499D01*
X104901857Y-114666211D01*
X105198416Y-114725200D01*
X105500784Y-114725200D01*
X105797343Y-114666211D01*
X106076695Y-114550499D01*
X106328105Y-114382512D01*
X106541912Y-114168705D01*
X106709899Y-113917295D01*
X106825611Y-113637943D01*
X106857833Y-113475950D01*
X115274600Y-113475950D01*
X115274600Y-114152742D01*
X115299003Y-114275423D01*
X115346870Y-114390985D01*
X115416363Y-114494989D01*
X115504811Y-114583437D01*
X115608815Y-114652930D01*
X115724377Y-114700797D01*
X115847058Y-114725200D01*
X116523850Y-114725200D01*
X116682600Y-114566450D01*
X116682600Y-113317200D01*
X115433350Y-113317200D01*
X115274600Y-113475950D01*
X106857833Y-113475950D01*
X106884600Y-113341384D01*
X106884600Y-113039016D01*
X106825611Y-112742457D01*
X106709899Y-112463105D01*
X106552579Y-112227658D01*
X115274600Y-112227658D01*
X115274600Y-112904450D01*
X115433350Y-113063200D01*
X116682600Y-113063200D01*
X116682600Y-111813950D01*
X116936600Y-111813950D01*
X116936600Y-113063200D01*
X116956600Y-113063200D01*
X116956600Y-113317200D01*
X116936600Y-113317200D01*
X116936600Y-114566450D01*
X117095350Y-114725200D01*
X117772142Y-114725200D01*
X117894823Y-114700797D01*
X118010385Y-114652930D01*
X118114389Y-114583437D01*
X118202837Y-114494989D01*
X118272330Y-114390985D01*
X118303739Y-114315156D01*
X118371095Y-114382512D01*
X118622505Y-114550499D01*
X118901857Y-114666211D01*
X119198416Y-114725200D01*
X119500784Y-114725200D01*
X119797343Y-114666211D01*
X120076695Y-114550499D01*
X120328105Y-114382512D01*
X120541912Y-114168705D01*
X120709899Y-113917295D01*
X120825611Y-113637943D01*
X120884600Y-113341384D01*
X120884600Y-113039016D01*
X120825611Y-112742457D01*
X120709899Y-112463105D01*
X120541912Y-112211695D01*
X120328105Y-111997888D01*
X120076695Y-111829901D01*
X119797343Y-111714189D01*
X119500784Y-111655200D01*
X119198416Y-111655200D01*
X118901857Y-111714189D01*
X118622505Y-111829901D01*
X118371095Y-111997888D01*
X118303739Y-112065244D01*
X118272330Y-111989415D01*
X118202837Y-111885411D01*
X118114389Y-111796963D01*
X118010385Y-111727470D01*
X117894823Y-111679603D01*
X117772142Y-111655200D01*
X117095350Y-111655200D01*
X116936600Y-111813950D01*
X116682600Y-111813950D01*
X116523850Y-111655200D01*
X115847058Y-111655200D01*
X115724377Y-111679603D01*
X115608815Y-111727470D01*
X115504811Y-111796963D01*
X115416363Y-111885411D01*
X115346870Y-111989415D01*
X115299003Y-112104977D01*
X115274600Y-112227658D01*
X106552579Y-112227658D01*
X106541912Y-112211695D01*
X106328105Y-111997888D01*
X106076695Y-111829901D01*
X105797343Y-111714189D01*
X105500784Y-111655200D01*
X105198416Y-111655200D01*
X104901857Y-111714189D01*
X104622505Y-111829901D01*
X104371095Y-111997888D01*
X104303739Y-112065244D01*
X104272330Y-111989415D01*
X104202837Y-111885411D01*
X104114389Y-111796963D01*
X104010385Y-111727470D01*
X103894823Y-111679603D01*
X103772142Y-111655200D01*
X103095350Y-111655200D01*
X102936600Y-111813950D01*
X102682600Y-111813950D01*
X102523850Y-111655200D01*
X101847058Y-111655200D01*
X101724377Y-111679603D01*
X101608815Y-111727470D01*
X101504811Y-111796963D01*
X101416363Y-111885411D01*
X101346870Y-111989415D01*
X101299003Y-112104977D01*
X101274600Y-112227658D01*
X91802579Y-112227658D01*
X91791912Y-112211695D01*
X91578105Y-111997888D01*
X91326695Y-111829901D01*
X91047343Y-111714189D01*
X90750784Y-111655200D01*
X90448416Y-111655200D01*
X90151857Y-111714189D01*
X89872505Y-111829901D01*
X89621095Y-111997888D01*
X89553739Y-112065244D01*
X89522330Y-111989415D01*
X89452837Y-111885411D01*
X89364389Y-111796963D01*
X89260385Y-111727470D01*
X89144823Y-111679603D01*
X89022142Y-111655200D01*
X88345350Y-111655200D01*
X88186600Y-111813950D01*
X87932600Y-111813950D01*
X87773850Y-111655200D01*
X87097058Y-111655200D01*
X86974377Y-111679603D01*
X86858815Y-111727470D01*
X86754811Y-111796963D01*
X86666363Y-111885411D01*
X86596870Y-111989415D01*
X86549003Y-112104977D01*
X86524600Y-112227658D01*
X77802579Y-112227658D01*
X77791912Y-112211695D01*
X77578105Y-111997888D01*
X77326695Y-111829901D01*
X77047343Y-111714189D01*
X76750784Y-111655200D01*
X76448416Y-111655200D01*
X76151857Y-111714189D01*
X75872505Y-111829901D01*
X75621095Y-111997888D01*
X75553739Y-112065244D01*
X75522330Y-111989415D01*
X75452837Y-111885411D01*
X75364389Y-111796963D01*
X75260385Y-111727470D01*
X75144823Y-111679603D01*
X75022142Y-111655200D01*
X74345350Y-111655200D01*
X74186600Y-111813950D01*
X73932600Y-111813950D01*
X73773850Y-111655200D01*
X73097058Y-111655200D01*
X72974377Y-111679603D01*
X72858815Y-111727470D01*
X72754811Y-111796963D01*
X72666363Y-111885411D01*
X72596870Y-111989415D01*
X72549003Y-112104977D01*
X72524600Y-112227658D01*
X61969600Y-112227658D01*
X61969600Y-105552608D01*
X70912600Y-105552608D01*
X70912600Y-105827792D01*
X70966286Y-106097690D01*
X71071595Y-106351927D01*
X71224480Y-106580735D01*
X71419065Y-106775320D01*
X71647873Y-106928205D01*
X71902110Y-107033514D01*
X72172008Y-107087200D01*
X72447192Y-107087200D01*
X72717090Y-107033514D01*
X72971327Y-106928205D01*
X73200135Y-106775320D01*
X73394720Y-106580735D01*
X73547605Y-106351927D01*
X73652914Y-106097690D01*
X73706600Y-105827792D01*
X73706600Y-105552608D01*
X76912600Y-105552608D01*
X76912600Y-105827792D01*
X76966286Y-106097690D01*
X77071595Y-106351927D01*
X77224480Y-106580735D01*
X77419065Y-106775320D01*
X77647873Y-106928205D01*
X77902110Y-107033514D01*
X78172008Y-107087200D01*
X78447192Y-107087200D01*
X78717090Y-107033514D01*
X78971327Y-106928205D01*
X79200135Y-106775320D01*
X79394720Y-106580735D01*
X79547605Y-106351927D01*
X79652914Y-106097690D01*
X79706600Y-105827792D01*
X79706600Y-105552608D01*
X84912600Y-105552608D01*
X84912600Y-105827792D01*
X84966286Y-106097690D01*
X85071595Y-106351927D01*
X85224480Y-106580735D01*
X85419065Y-106775320D01*
X85647873Y-106928205D01*
X85902110Y-107033514D01*
X86172008Y-107087200D01*
X86447192Y-107087200D01*
X86717090Y-107033514D01*
X86971327Y-106928205D01*
X87200135Y-106775320D01*
X87394720Y-106580735D01*
X87547605Y-106351927D01*
X87652914Y-106097690D01*
X87706600Y-105827792D01*
X87706600Y-105552608D01*
X90912600Y-105552608D01*
X90912600Y-105827792D01*
X90966286Y-106097690D01*
X91071595Y-106351927D01*
X91224480Y-106580735D01*
X91419065Y-106775320D01*
X91647873Y-106928205D01*
X91902110Y-107033514D01*
X92172008Y-107087200D01*
X92447192Y-107087200D01*
X92717090Y-107033514D01*
X92971327Y-106928205D01*
X93200135Y-106775320D01*
X93394720Y-106580735D01*
X93547605Y-106351927D01*
X93652914Y-106097690D01*
X93706600Y-105827792D01*
X93706600Y-105552608D01*
X99662600Y-105552608D01*
X99662600Y-105827792D01*
X99716286Y-106097690D01*
X99821595Y-106351927D01*
X99974480Y-106580735D01*
X100169065Y-106775320D01*
X100397873Y-106928205D01*
X100652110Y-107033514D01*
X100922008Y-107087200D01*
X101197192Y-107087200D01*
X101467090Y-107033514D01*
X101721327Y-106928205D01*
X101950135Y-106775320D01*
X102144720Y-106580735D01*
X102297605Y-106351927D01*
X102402914Y-106097690D01*
X102456600Y-105827792D01*
X102456600Y-105552608D01*
X105662600Y-105552608D01*
X105662600Y-105827792D01*
X105716286Y-106097690D01*
X105821595Y-106351927D01*
X105974480Y-106580735D01*
X106169065Y-106775320D01*
X106397873Y-106928205D01*
X106652110Y-107033514D01*
X106922008Y-107087200D01*
X107197192Y-107087200D01*
X107467090Y-107033514D01*
X107721327Y-106928205D01*
X107950135Y-106775320D01*
X108144720Y-106580735D01*
X108297605Y-106351927D01*
X108402914Y-106097690D01*
X108456600Y-105827792D01*
X108456600Y-105552608D01*
X113662600Y-105552608D01*
X113662600Y-105827792D01*
X113716286Y-106097690D01*
X113821595Y-106351927D01*
X113974480Y-106580735D01*
X114169065Y-106775320D01*
X114397873Y-106928205D01*
X114652110Y-107033514D01*
X114922008Y-107087200D01*
X115197192Y-107087200D01*
X115467090Y-107033514D01*
X115721327Y-106928205D01*
X115950135Y-106775320D01*
X116144720Y-106580735D01*
X116297605Y-106351927D01*
X116402914Y-106097690D01*
X116456600Y-105827792D01*
X116456600Y-105552608D01*
X119662600Y-105552608D01*
X119662600Y-105827792D01*
X119716286Y-106097690D01*
X119821595Y-106351927D01*
X119974480Y-106580735D01*
X120169065Y-106775320D01*
X120397873Y-106928205D01*
X120652110Y-107033514D01*
X120922008Y-107087200D01*
X121197192Y-107087200D01*
X121467090Y-107033514D01*
X121721327Y-106928205D01*
X121950135Y-106775320D01*
X122144720Y-106580735D01*
X122297605Y-106351927D01*
X122402914Y-106097690D01*
X122456600Y-105827792D01*
X122456600Y-105552608D01*
X122402914Y-105282710D01*
X122297605Y-105028473D01*
X122144720Y-104799665D01*
X121950135Y-104605080D01*
X121721327Y-104452195D01*
X121467090Y-104346886D01*
X121197192Y-104293200D01*
X120922008Y-104293200D01*
X120652110Y-104346886D01*
X120397873Y-104452195D01*
X120169065Y-104605080D01*
X119974480Y-104799665D01*
X119821595Y-105028473D01*
X119716286Y-105282710D01*
X119662600Y-105552608D01*
X116456600Y-105552608D01*
X116402914Y-105282710D01*
X116297605Y-105028473D01*
X116144720Y-104799665D01*
X115950135Y-104605080D01*
X115721327Y-104452195D01*
X115467090Y-104346886D01*
X115197192Y-104293200D01*
X114922008Y-104293200D01*
X114652110Y-104346886D01*
X114397873Y-104452195D01*
X114169065Y-104605080D01*
X113974480Y-104799665D01*
X113821595Y-105028473D01*
X113716286Y-105282710D01*
X113662600Y-105552608D01*
X108456600Y-105552608D01*
X108402914Y-105282710D01*
X108297605Y-105028473D01*
X108144720Y-104799665D01*
X107950135Y-104605080D01*
X107721327Y-104452195D01*
X107467090Y-104346886D01*
X107197192Y-104293200D01*
X106922008Y-104293200D01*
X106652110Y-104346886D01*
X106397873Y-104452195D01*
X106169065Y-104605080D01*
X105974480Y-104799665D01*
X105821595Y-105028473D01*
X105716286Y-105282710D01*
X105662600Y-105552608D01*
X102456600Y-105552608D01*
X102402914Y-105282710D01*
X102297605Y-105028473D01*
X102144720Y-104799665D01*
X101950135Y-104605080D01*
X101721327Y-104452195D01*
X101467090Y-104346886D01*
X101197192Y-104293200D01*
X100922008Y-104293200D01*
X100652110Y-104346886D01*
X100397873Y-104452195D01*
X100169065Y-104605080D01*
X99974480Y-104799665D01*
X99821595Y-105028473D01*
X99716286Y-105282710D01*
X99662600Y-105552608D01*
X93706600Y-105552608D01*
X93652914Y-105282710D01*
X93547605Y-105028473D01*
X93394720Y-104799665D01*
X93200135Y-104605080D01*
X92971327Y-104452195D01*
X92717090Y-104346886D01*
X92447192Y-104293200D01*
X92172008Y-104293200D01*
X91902110Y-104346886D01*
X91647873Y-104452195D01*
X91419065Y-104605080D01*
X91224480Y-104799665D01*
X91071595Y-105028473D01*
X90966286Y-105282710D01*
X90912600Y-105552608D01*
X87706600Y-105552608D01*
X87652914Y-105282710D01*
X87547605Y-105028473D01*
X87394720Y-104799665D01*
X87200135Y-104605080D01*
X86971327Y-104452195D01*
X86717090Y-104346886D01*
X86447192Y-104293200D01*
X86172008Y-104293200D01*
X85902110Y-104346886D01*
X85647873Y-104452195D01*
X85419065Y-104605080D01*
X85224480Y-104799665D01*
X85071595Y-105028473D01*
X84966286Y-105282710D01*
X84912600Y-105552608D01*
X79706600Y-105552608D01*
X79652914Y-105282710D01*
X79547605Y-105028473D01*
X79394720Y-104799665D01*
X79200135Y-104605080D01*
X78971327Y-104452195D01*
X78717090Y-104346886D01*
X78447192Y-104293200D01*
X78172008Y-104293200D01*
X77902110Y-104346886D01*
X77647873Y-104452195D01*
X77419065Y-104605080D01*
X77224480Y-104799665D01*
X77071595Y-105028473D01*
X76966286Y-105282710D01*
X76912600Y-105552608D01*
X73706600Y-105552608D01*
X73652914Y-105282710D01*
X73547605Y-105028473D01*
X73394720Y-104799665D01*
X73200135Y-104605080D01*
X72971327Y-104452195D01*
X72717090Y-104346886D01*
X72447192Y-104293200D01*
X72172008Y-104293200D01*
X71902110Y-104346886D01*
X71647873Y-104452195D01*
X71419065Y-104605080D01*
X71224480Y-104799665D01*
X71071595Y-105028473D01*
X70966286Y-105282710D01*
X70912600Y-105552608D01*
X61969600Y-105552608D01*
X61969600Y-100552608D01*
X70912600Y-100552608D01*
X70912600Y-100827792D01*
X70966286Y-101097690D01*
X71071595Y-101351927D01*
X71224480Y-101580735D01*
X71419065Y-101775320D01*
X71647873Y-101928205D01*
X71902110Y-102033514D01*
X72172008Y-102087200D01*
X72447192Y-102087200D01*
X72717090Y-102033514D01*
X72971327Y-101928205D01*
X73200135Y-101775320D01*
X73394720Y-101580735D01*
X73547605Y-101351927D01*
X73652914Y-101097690D01*
X73706600Y-100827792D01*
X73706600Y-100552608D01*
X76912600Y-100552608D01*
X76912600Y-100827792D01*
X76966286Y-101097690D01*
X77071595Y-101351927D01*
X77224480Y-101580735D01*
X77419065Y-101775320D01*
X77647873Y-101928205D01*
X77902110Y-102033514D01*
X78172008Y-102087200D01*
X78447192Y-102087200D01*
X78717090Y-102033514D01*
X78971327Y-101928205D01*
X79200135Y-101775320D01*
X79394720Y-101580735D01*
X79547605Y-101351927D01*
X79652914Y-101097690D01*
X79706600Y-100827792D01*
X79706600Y-100552608D01*
X84912600Y-100552608D01*
X84912600Y-100827792D01*
X84966286Y-101097690D01*
X85071595Y-101351927D01*
X85224480Y-101580735D01*
X85419065Y-101775320D01*
X85647873Y-101928205D01*
X85902110Y-102033514D01*
X86172008Y-102087200D01*
X86447192Y-102087200D01*
X86717090Y-102033514D01*
X86971327Y-101928205D01*
X87200135Y-101775320D01*
X87394720Y-101580735D01*
X87547605Y-101351927D01*
X87652914Y-101097690D01*
X87706600Y-100827792D01*
X87706600Y-100552608D01*
X90912600Y-100552608D01*
X90912600Y-100827792D01*
X90966286Y-101097690D01*
X91071595Y-101351927D01*
X91224480Y-101580735D01*
X91419065Y-101775320D01*
X91647873Y-101928205D01*
X91902110Y-102033514D01*
X92172008Y-102087200D01*
X92447192Y-102087200D01*
X92717090Y-102033514D01*
X92971327Y-101928205D01*
X93200135Y-101775320D01*
X93394720Y-101580735D01*
X93547605Y-101351927D01*
X93652914Y-101097690D01*
X93706600Y-100827792D01*
X93706600Y-100552608D01*
X99662600Y-100552608D01*
X99662600Y-100827792D01*
X99716286Y-101097690D01*
X99821595Y-101351927D01*
X99974480Y-101580735D01*
X100169065Y-101775320D01*
X100397873Y-101928205D01*
X100652110Y-102033514D01*
X100922008Y-102087200D01*
X101197192Y-102087200D01*
X101467090Y-102033514D01*
X101721327Y-101928205D01*
X101950135Y-101775320D01*
X102144720Y-101580735D01*
X102297605Y-101351927D01*
X102402914Y-101097690D01*
X102456600Y-100827792D01*
X102456600Y-100552608D01*
X105662600Y-100552608D01*
X105662600Y-100827792D01*
X105716286Y-101097690D01*
X105821595Y-101351927D01*
X105974480Y-101580735D01*
X106169065Y-101775320D01*
X106397873Y-101928205D01*
X106652110Y-102033514D01*
X106922008Y-102087200D01*
X107197192Y-102087200D01*
X107467090Y-102033514D01*
X107721327Y-101928205D01*
X107950135Y-101775320D01*
X108144720Y-101580735D01*
X108297605Y-101351927D01*
X108402914Y-101097690D01*
X108456600Y-100827792D01*
X108456600Y-100552608D01*
X113662600Y-100552608D01*
X113662600Y-100827792D01*
X113716286Y-101097690D01*
X113821595Y-101351927D01*
X113974480Y-101580735D01*
X114169065Y-101775320D01*
X114397873Y-101928205D01*
X114652110Y-102033514D01*
X114922008Y-102087200D01*
X115197192Y-102087200D01*
X115467090Y-102033514D01*
X115721327Y-101928205D01*
X115950135Y-101775320D01*
X116144720Y-101580735D01*
X116297605Y-101351927D01*
X116402914Y-101097690D01*
X116456600Y-100827792D01*
X116456600Y-100552608D01*
X119662600Y-100552608D01*
X119662600Y-100827792D01*
X119716286Y-101097690D01*
X119821595Y-101351927D01*
X119974480Y-101580735D01*
X120169065Y-101775320D01*
X120397873Y-101928205D01*
X120652110Y-102033514D01*
X120922008Y-102087200D01*
X121197192Y-102087200D01*
X121467090Y-102033514D01*
X121721327Y-101928205D01*
X121950135Y-101775320D01*
X122144720Y-101580735D01*
X122297605Y-101351927D01*
X122402914Y-101097690D01*
X122456600Y-100827792D01*
X122456600Y-100552608D01*
X122402914Y-100282710D01*
X122297605Y-100028473D01*
X122144720Y-99799665D01*
X121950135Y-99605080D01*
X121721327Y-99452195D01*
X121467090Y-99346886D01*
X121197192Y-99293200D01*
X120922008Y-99293200D01*
X120652110Y-99346886D01*
X120397873Y-99452195D01*
X120169065Y-99605080D01*
X119974480Y-99799665D01*
X119821595Y-100028473D01*
X119716286Y-100282710D01*
X119662600Y-100552608D01*
X116456600Y-100552608D01*
X116402914Y-100282710D01*
X116297605Y-100028473D01*
X116144720Y-99799665D01*
X115950135Y-99605080D01*
X115721327Y-99452195D01*
X115467090Y-99346886D01*
X115197192Y-99293200D01*
X114922008Y-99293200D01*
X114652110Y-99346886D01*
X114397873Y-99452195D01*
X114169065Y-99605080D01*
X113974480Y-99799665D01*
X113821595Y-100028473D01*
X113716286Y-100282710D01*
X113662600Y-100552608D01*
X108456600Y-100552608D01*
X108402914Y-100282710D01*
X108297605Y-100028473D01*
X108144720Y-99799665D01*
X107950135Y-99605080D01*
X107721327Y-99452195D01*
X107467090Y-99346886D01*
X107197192Y-99293200D01*
X106922008Y-99293200D01*
X106652110Y-99346886D01*
X106397873Y-99452195D01*
X106169065Y-99605080D01*
X105974480Y-99799665D01*
X105821595Y-100028473D01*
X105716286Y-100282710D01*
X105662600Y-100552608D01*
X102456600Y-100552608D01*
X102402914Y-100282710D01*
X102297605Y-100028473D01*
X102144720Y-99799665D01*
X101950135Y-99605080D01*
X101721327Y-99452195D01*
X101467090Y-99346886D01*
X101197192Y-99293200D01*
X100922008Y-99293200D01*
X100652110Y-99346886D01*
X100397873Y-99452195D01*
X100169065Y-99605080D01*
X99974480Y-99799665D01*
X99821595Y-100028473D01*
X99716286Y-100282710D01*
X99662600Y-100552608D01*
X93706600Y-100552608D01*
X93652914Y-100282710D01*
X93547605Y-100028473D01*
X93394720Y-99799665D01*
X93200135Y-99605080D01*
X92971327Y-99452195D01*
X92717090Y-99346886D01*
X92447192Y-99293200D01*
X92172008Y-99293200D01*
X91902110Y-99346886D01*
X91647873Y-99452195D01*
X91419065Y-99605080D01*
X91224480Y-99799665D01*
X91071595Y-100028473D01*
X90966286Y-100282710D01*
X90912600Y-100552608D01*
X87706600Y-100552608D01*
X87652914Y-100282710D01*
X87547605Y-100028473D01*
X87394720Y-99799665D01*
X87200135Y-99605080D01*
X86971327Y-99452195D01*
X86717090Y-99346886D01*
X86447192Y-99293200D01*
X86172008Y-99293200D01*
X85902110Y-99346886D01*
X85647873Y-99452195D01*
X85419065Y-99605080D01*
X85224480Y-99799665D01*
X85071595Y-100028473D01*
X84966286Y-100282710D01*
X84912600Y-100552608D01*
X79706600Y-100552608D01*
X79652914Y-100282710D01*
X79547605Y-100028473D01*
X79394720Y-99799665D01*
X79200135Y-99605080D01*
X78971327Y-99452195D01*
X78717090Y-99346886D01*
X78447192Y-99293200D01*
X78172008Y-99293200D01*
X77902110Y-99346886D01*
X77647873Y-99452195D01*
X77419065Y-99605080D01*
X77224480Y-99799665D01*
X77071595Y-100028473D01*
X76966286Y-100282710D01*
X76912600Y-100552608D01*
X73706600Y-100552608D01*
X73652914Y-100282710D01*
X73547605Y-100028473D01*
X73394720Y-99799665D01*
X73200135Y-99605080D01*
X72971327Y-99452195D01*
X72717090Y-99346886D01*
X72447192Y-99293200D01*
X72172008Y-99293200D01*
X71902110Y-99346886D01*
X71647873Y-99452195D01*
X71419065Y-99605080D01*
X71224480Y-99799665D01*
X71071595Y-100028473D01*
X70966286Y-100282710D01*
X70912600Y-100552608D01*
X61969600Y-100552608D01*
X61969600Y-95279167D01*
X71674600Y-95279167D01*
X71674600Y-95601233D01*
X71737432Y-95917112D01*
X71860682Y-96214663D01*
X72039613Y-96482452D01*
X72267348Y-96710187D01*
X72535137Y-96889118D01*
X72832688Y-97012368D01*
X73148567Y-97075200D01*
X73470633Y-97075200D01*
X73786512Y-97012368D01*
X74084063Y-96889118D01*
X74351852Y-96710187D01*
X74579587Y-96482452D01*
X74758518Y-96214663D01*
X74881768Y-95917112D01*
X74944600Y-95601233D01*
X74944600Y-95279167D01*
X75674600Y-95279167D01*
X75674600Y-95601233D01*
X75737432Y-95917112D01*
X75860682Y-96214663D01*
X76039613Y-96482452D01*
X76267348Y-96710187D01*
X76535137Y-96889118D01*
X76832688Y-97012368D01*
X77148567Y-97075200D01*
X77470633Y-97075200D01*
X77786512Y-97012368D01*
X78084063Y-96889118D01*
X78351852Y-96710187D01*
X78579587Y-96482452D01*
X78758518Y-96214663D01*
X78881768Y-95917112D01*
X78944600Y-95601233D01*
X78944600Y-95279167D01*
X85674600Y-95279167D01*
X85674600Y-95601233D01*
X85737432Y-95917112D01*
X85860682Y-96214663D01*
X86039613Y-96482452D01*
X86267348Y-96710187D01*
X86535137Y-96889118D01*
X86832688Y-97012368D01*
X87148567Y-97075200D01*
X87470633Y-97075200D01*
X87786512Y-97012368D01*
X88084063Y-96889118D01*
X88351852Y-96710187D01*
X88579587Y-96482452D01*
X88758518Y-96214663D01*
X88881768Y-95917112D01*
X88944600Y-95601233D01*
X88944600Y-95279167D01*
X89674600Y-95279167D01*
X89674600Y-95601233D01*
X89737432Y-95917112D01*
X89860682Y-96214663D01*
X90039613Y-96482452D01*
X90267348Y-96710187D01*
X90535137Y-96889118D01*
X90832688Y-97012368D01*
X91148567Y-97075200D01*
X91470633Y-97075200D01*
X91786512Y-97012368D01*
X92084063Y-96889118D01*
X92351852Y-96710187D01*
X92579587Y-96482452D01*
X92758518Y-96214663D01*
X92881768Y-95917112D01*
X92944600Y-95601233D01*
X92944600Y-95279167D01*
X100674600Y-95279167D01*
X100674600Y-95601233D01*
X100737432Y-95917112D01*
X100860682Y-96214663D01*
X101039613Y-96482452D01*
X101267348Y-96710187D01*
X101535137Y-96889118D01*
X101832688Y-97012368D01*
X102148567Y-97075200D01*
X102470633Y-97075200D01*
X102786512Y-97012368D01*
X103084063Y-96889118D01*
X103351852Y-96710187D01*
X103579587Y-96482452D01*
X103758518Y-96214663D01*
X103881768Y-95917112D01*
X103944600Y-95601233D01*
X103944600Y-95279167D01*
X104674600Y-95279167D01*
X104674600Y-95601233D01*
X104737432Y-95917112D01*
X104860682Y-96214663D01*
X105039613Y-96482452D01*
X105267348Y-96710187D01*
X105535137Y-96889118D01*
X105832688Y-97012368D01*
X106148567Y-97075200D01*
X106470633Y-97075200D01*
X106786512Y-97012368D01*
X107084063Y-96889118D01*
X107351852Y-96710187D01*
X107579587Y-96482452D01*
X107758518Y-96214663D01*
X107881768Y-95917112D01*
X107944600Y-95601233D01*
X107944600Y-95279167D01*
X114674600Y-95279167D01*
X114674600Y-95601233D01*
X114737432Y-95917112D01*
X114860682Y-96214663D01*
X115039613Y-96482452D01*
X115267348Y-96710187D01*
X115535137Y-96889118D01*
X115832688Y-97012368D01*
X116148567Y-97075200D01*
X116470633Y-97075200D01*
X116786512Y-97012368D01*
X117084063Y-96889118D01*
X117351852Y-96710187D01*
X117579587Y-96482452D01*
X117758518Y-96214663D01*
X117881768Y-95917112D01*
X117944600Y-95601233D01*
X117944600Y-95279167D01*
X118674600Y-95279167D01*
X118674600Y-95601233D01*
X118737432Y-95917112D01*
X118860682Y-96214663D01*
X119039613Y-96482452D01*
X119267348Y-96710187D01*
X119535137Y-96889118D01*
X119832688Y-97012368D01*
X120148567Y-97075200D01*
X120470633Y-97075200D01*
X120786512Y-97012368D01*
X121084063Y-96889118D01*
X121351852Y-96710187D01*
X121579587Y-96482452D01*
X121758518Y-96214663D01*
X121881768Y-95917112D01*
X121944600Y-95601233D01*
X121944600Y-95279167D01*
X121881768Y-94963288D01*
X121758518Y-94665737D01*
X121579587Y-94397948D01*
X121351852Y-94170213D01*
X121084063Y-93991282D01*
X120786512Y-93868032D01*
X120470633Y-93805200D01*
X120148567Y-93805200D01*
X119832688Y-93868032D01*
X119535137Y-93991282D01*
X119267348Y-94170213D01*
X119039613Y-94397948D01*
X118860682Y-94665737D01*
X118737432Y-94963288D01*
X118674600Y-95279167D01*
X117944600Y-95279167D01*
X117881768Y-94963288D01*
X117758518Y-94665737D01*
X117579587Y-94397948D01*
X117351852Y-94170213D01*
X117084063Y-93991282D01*
X116786512Y-93868032D01*
X116470633Y-93805200D01*
X116148567Y-93805200D01*
X115832688Y-93868032D01*
X115535137Y-93991282D01*
X115267348Y-94170213D01*
X115039613Y-94397948D01*
X114860682Y-94665737D01*
X114737432Y-94963288D01*
X114674600Y-95279167D01*
X107944600Y-95279167D01*
X107881768Y-94963288D01*
X107758518Y-94665737D01*
X107579587Y-94397948D01*
X107351852Y-94170213D01*
X107084063Y-93991282D01*
X106786512Y-93868032D01*
X106470633Y-93805200D01*
X106148567Y-93805200D01*
X105832688Y-93868032D01*
X105535137Y-93991282D01*
X105267348Y-94170213D01*
X105039613Y-94397948D01*
X104860682Y-94665737D01*
X104737432Y-94963288D01*
X104674600Y-95279167D01*
X103944600Y-95279167D01*
X103881768Y-94963288D01*
X103758518Y-94665737D01*
X103579587Y-94397948D01*
X103351852Y-94170213D01*
X103084063Y-93991282D01*
X102786512Y-93868032D01*
X102470633Y-93805200D01*
X102148567Y-93805200D01*
X101832688Y-93868032D01*
X101535137Y-93991282D01*
X101267348Y-94170213D01*
X101039613Y-94397948D01*
X100860682Y-94665737D01*
X100737432Y-94963288D01*
X100674600Y-95279167D01*
X92944600Y-95279167D01*
X92881768Y-94963288D01*
X92758518Y-94665737D01*
X92579587Y-94397948D01*
X92351852Y-94170213D01*
X92084063Y-93991282D01*
X91786512Y-93868032D01*
X91470633Y-93805200D01*
X91148567Y-93805200D01*
X90832688Y-93868032D01*
X90535137Y-93991282D01*
X90267348Y-94170213D01*
X90039613Y-94397948D01*
X89860682Y-94665737D01*
X89737432Y-94963288D01*
X89674600Y-95279167D01*
X88944600Y-95279167D01*
X88881768Y-94963288D01*
X88758518Y-94665737D01*
X88579587Y-94397948D01*
X88351852Y-94170213D01*
X88084063Y-93991282D01*
X87786512Y-93868032D01*
X87470633Y-93805200D01*
X87148567Y-93805200D01*
X86832688Y-93868032D01*
X86535137Y-93991282D01*
X86267348Y-94170213D01*
X86039613Y-94397948D01*
X85860682Y-94665737D01*
X85737432Y-94963288D01*
X85674600Y-95279167D01*
X78944600Y-95279167D01*
X78881768Y-94963288D01*
X78758518Y-94665737D01*
X78579587Y-94397948D01*
X78351852Y-94170213D01*
X78084063Y-93991282D01*
X77786512Y-93868032D01*
X77470633Y-93805200D01*
X77148567Y-93805200D01*
X76832688Y-93868032D01*
X76535137Y-93991282D01*
X76267348Y-94170213D01*
X76039613Y-94397948D01*
X75860682Y-94665737D01*
X75737432Y-94963288D01*
X75674600Y-95279167D01*
X74944600Y-95279167D01*
X74881768Y-94963288D01*
X74758518Y-94665737D01*
X74579587Y-94397948D01*
X74351852Y-94170213D01*
X74084063Y-93991282D01*
X73786512Y-93868032D01*
X73470633Y-93805200D01*
X73148567Y-93805200D01*
X72832688Y-93868032D01*
X72535137Y-93991282D01*
X72267348Y-94170213D01*
X72039613Y-94397948D01*
X71860682Y-94665737D01*
X71737432Y-94963288D01*
X71674600Y-95279167D01*
X61969600Y-95279167D01*
X61969600Y-54354761D01*
X62006062Y-54679832D01*
X62145036Y-55117933D01*
X62366458Y-55520697D01*
X62661893Y-55872783D01*
X63020089Y-56160780D01*
X63427401Y-56373718D01*
X63868317Y-56503486D01*
X64326041Y-56545143D01*
X64783139Y-56497100D01*
X65222199Y-56361188D01*
X65626499Y-56142583D01*
X65980639Y-55849614D01*
X66271130Y-55493437D01*
X66486906Y-55087621D01*
X66619749Y-54647622D01*
X66664600Y-54190200D01*
X66663682Y-54124445D01*
X66606077Y-53668453D01*
X66461000Y-53232335D01*
X66233976Y-52832702D01*
X65933654Y-52484775D01*
X65571472Y-52201808D01*
X65161226Y-51994577D01*
X64718541Y-51870978D01*
X64448513Y-51850200D01*
X75674600Y-51850200D01*
X75674600Y-52101233D01*
G04 #@! TD*
M02*
