G04 #@! TF.GenerationSoftware,KiCad,Pcbnew,(5.0.2-5-10.14)*
G04 #@! TF.CreationDate,2019-06-16T13:43:50-04:00*
G04 #@! TF.ProjectId,sequencer,73657175-656e-4636-9572-2e6b69636164,rev?*
G04 #@! TF.SameCoordinates,Original*
G04 #@! TF.FileFunction,Paste,Top*
G04 #@! TF.FilePolarity,Positive*
%FSLAX46Y46*%
G04 Gerber Fmt 4.6, Leading zero omitted, Abs format (unit mm)*
G04 Created by KiCad (PCBNEW (5.0.2-5-10.14)) date Sunday, June 16, 2019 at 01:43:50 PM*
%MOMM*%
%LPD*%
G01*
G04 APERTURE LIST*
%ADD10C,0.100000*%
%ADD11C,1.150000*%
%ADD12R,1.500000X0.600000*%
%ADD13R,0.600000X1.500000*%
%ADD14R,0.700000X0.600000*%
G04 APERTURE END LIST*
D10*
G04 #@! TO.C,C1*
G36*
X74134505Y-141641404D02*
X74158773Y-141645004D01*
X74182572Y-141650965D01*
X74205671Y-141659230D01*
X74227850Y-141669720D01*
X74248893Y-141682332D01*
X74268599Y-141696947D01*
X74286777Y-141713423D01*
X74303253Y-141731601D01*
X74317868Y-141751307D01*
X74330480Y-141772350D01*
X74340970Y-141794529D01*
X74349235Y-141817628D01*
X74355196Y-141841427D01*
X74358796Y-141865695D01*
X74360000Y-141890199D01*
X74360000Y-142540201D01*
X74358796Y-142564705D01*
X74355196Y-142588973D01*
X74349235Y-142612772D01*
X74340970Y-142635871D01*
X74330480Y-142658050D01*
X74317868Y-142679093D01*
X74303253Y-142698799D01*
X74286777Y-142716977D01*
X74268599Y-142733453D01*
X74248893Y-142748068D01*
X74227850Y-142760680D01*
X74205671Y-142771170D01*
X74182572Y-142779435D01*
X74158773Y-142785396D01*
X74134505Y-142788996D01*
X74110001Y-142790200D01*
X73209999Y-142790200D01*
X73185495Y-142788996D01*
X73161227Y-142785396D01*
X73137428Y-142779435D01*
X73114329Y-142771170D01*
X73092150Y-142760680D01*
X73071107Y-142748068D01*
X73051401Y-142733453D01*
X73033223Y-142716977D01*
X73016747Y-142698799D01*
X73002132Y-142679093D01*
X72989520Y-142658050D01*
X72979030Y-142635871D01*
X72970765Y-142612772D01*
X72964804Y-142588973D01*
X72961204Y-142564705D01*
X72960000Y-142540201D01*
X72960000Y-141890199D01*
X72961204Y-141865695D01*
X72964804Y-141841427D01*
X72970765Y-141817628D01*
X72979030Y-141794529D01*
X72989520Y-141772350D01*
X73002132Y-141751307D01*
X73016747Y-141731601D01*
X73033223Y-141713423D01*
X73051401Y-141696947D01*
X73071107Y-141682332D01*
X73092150Y-141669720D01*
X73114329Y-141659230D01*
X73137428Y-141650965D01*
X73161227Y-141645004D01*
X73185495Y-141641404D01*
X73209999Y-141640200D01*
X74110001Y-141640200D01*
X74134505Y-141641404D01*
X74134505Y-141641404D01*
G37*
D11*
X73660000Y-142215200D03*
D10*
G36*
X74134505Y-139591404D02*
X74158773Y-139595004D01*
X74182572Y-139600965D01*
X74205671Y-139609230D01*
X74227850Y-139619720D01*
X74248893Y-139632332D01*
X74268599Y-139646947D01*
X74286777Y-139663423D01*
X74303253Y-139681601D01*
X74317868Y-139701307D01*
X74330480Y-139722350D01*
X74340970Y-139744529D01*
X74349235Y-139767628D01*
X74355196Y-139791427D01*
X74358796Y-139815695D01*
X74360000Y-139840199D01*
X74360000Y-140490201D01*
X74358796Y-140514705D01*
X74355196Y-140538973D01*
X74349235Y-140562772D01*
X74340970Y-140585871D01*
X74330480Y-140608050D01*
X74317868Y-140629093D01*
X74303253Y-140648799D01*
X74286777Y-140666977D01*
X74268599Y-140683453D01*
X74248893Y-140698068D01*
X74227850Y-140710680D01*
X74205671Y-140721170D01*
X74182572Y-140729435D01*
X74158773Y-140735396D01*
X74134505Y-140738996D01*
X74110001Y-140740200D01*
X73209999Y-140740200D01*
X73185495Y-140738996D01*
X73161227Y-140735396D01*
X73137428Y-140729435D01*
X73114329Y-140721170D01*
X73092150Y-140710680D01*
X73071107Y-140698068D01*
X73051401Y-140683453D01*
X73033223Y-140666977D01*
X73016747Y-140648799D01*
X73002132Y-140629093D01*
X72989520Y-140608050D01*
X72979030Y-140585871D01*
X72970765Y-140562772D01*
X72964804Y-140538973D01*
X72961204Y-140514705D01*
X72960000Y-140490201D01*
X72960000Y-139840199D01*
X72961204Y-139815695D01*
X72964804Y-139791427D01*
X72970765Y-139767628D01*
X72979030Y-139744529D01*
X72989520Y-139722350D01*
X73002132Y-139701307D01*
X73016747Y-139681601D01*
X73033223Y-139663423D01*
X73051401Y-139646947D01*
X73071107Y-139632332D01*
X73092150Y-139619720D01*
X73114329Y-139609230D01*
X73137428Y-139600965D01*
X73161227Y-139595004D01*
X73185495Y-139591404D01*
X73209999Y-139590200D01*
X74110001Y-139590200D01*
X74134505Y-139591404D01*
X74134505Y-139591404D01*
G37*
D11*
X73660000Y-140165200D03*
G04 #@! TD*
D10*
G04 #@! TO.C,C2*
G36*
X89034105Y-122141404D02*
X89058373Y-122145004D01*
X89082172Y-122150965D01*
X89105271Y-122159230D01*
X89127450Y-122169720D01*
X89148493Y-122182332D01*
X89168199Y-122196947D01*
X89186377Y-122213423D01*
X89202853Y-122231601D01*
X89217468Y-122251307D01*
X89230080Y-122272350D01*
X89240570Y-122294529D01*
X89248835Y-122317628D01*
X89254796Y-122341427D01*
X89258396Y-122365695D01*
X89259600Y-122390199D01*
X89259600Y-123040201D01*
X89258396Y-123064705D01*
X89254796Y-123088973D01*
X89248835Y-123112772D01*
X89240570Y-123135871D01*
X89230080Y-123158050D01*
X89217468Y-123179093D01*
X89202853Y-123198799D01*
X89186377Y-123216977D01*
X89168199Y-123233453D01*
X89148493Y-123248068D01*
X89127450Y-123260680D01*
X89105271Y-123271170D01*
X89082172Y-123279435D01*
X89058373Y-123285396D01*
X89034105Y-123288996D01*
X89009601Y-123290200D01*
X88109599Y-123290200D01*
X88085095Y-123288996D01*
X88060827Y-123285396D01*
X88037028Y-123279435D01*
X88013929Y-123271170D01*
X87991750Y-123260680D01*
X87970707Y-123248068D01*
X87951001Y-123233453D01*
X87932823Y-123216977D01*
X87916347Y-123198799D01*
X87901732Y-123179093D01*
X87889120Y-123158050D01*
X87878630Y-123135871D01*
X87870365Y-123112772D01*
X87864404Y-123088973D01*
X87860804Y-123064705D01*
X87859600Y-123040201D01*
X87859600Y-122390199D01*
X87860804Y-122365695D01*
X87864404Y-122341427D01*
X87870365Y-122317628D01*
X87878630Y-122294529D01*
X87889120Y-122272350D01*
X87901732Y-122251307D01*
X87916347Y-122231601D01*
X87932823Y-122213423D01*
X87951001Y-122196947D01*
X87970707Y-122182332D01*
X87991750Y-122169720D01*
X88013929Y-122159230D01*
X88037028Y-122150965D01*
X88060827Y-122145004D01*
X88085095Y-122141404D01*
X88109599Y-122140200D01*
X89009601Y-122140200D01*
X89034105Y-122141404D01*
X89034105Y-122141404D01*
G37*
D11*
X88559600Y-122715200D03*
D10*
G36*
X89034105Y-120091404D02*
X89058373Y-120095004D01*
X89082172Y-120100965D01*
X89105271Y-120109230D01*
X89127450Y-120119720D01*
X89148493Y-120132332D01*
X89168199Y-120146947D01*
X89186377Y-120163423D01*
X89202853Y-120181601D01*
X89217468Y-120201307D01*
X89230080Y-120222350D01*
X89240570Y-120244529D01*
X89248835Y-120267628D01*
X89254796Y-120291427D01*
X89258396Y-120315695D01*
X89259600Y-120340199D01*
X89259600Y-120990201D01*
X89258396Y-121014705D01*
X89254796Y-121038973D01*
X89248835Y-121062772D01*
X89240570Y-121085871D01*
X89230080Y-121108050D01*
X89217468Y-121129093D01*
X89202853Y-121148799D01*
X89186377Y-121166977D01*
X89168199Y-121183453D01*
X89148493Y-121198068D01*
X89127450Y-121210680D01*
X89105271Y-121221170D01*
X89082172Y-121229435D01*
X89058373Y-121235396D01*
X89034105Y-121238996D01*
X89009601Y-121240200D01*
X88109599Y-121240200D01*
X88085095Y-121238996D01*
X88060827Y-121235396D01*
X88037028Y-121229435D01*
X88013929Y-121221170D01*
X87991750Y-121210680D01*
X87970707Y-121198068D01*
X87951001Y-121183453D01*
X87932823Y-121166977D01*
X87916347Y-121148799D01*
X87901732Y-121129093D01*
X87889120Y-121108050D01*
X87878630Y-121085871D01*
X87870365Y-121062772D01*
X87864404Y-121038973D01*
X87860804Y-121014705D01*
X87859600Y-120990201D01*
X87859600Y-120340199D01*
X87860804Y-120315695D01*
X87864404Y-120291427D01*
X87870365Y-120267628D01*
X87878630Y-120244529D01*
X87889120Y-120222350D01*
X87901732Y-120201307D01*
X87916347Y-120181601D01*
X87932823Y-120163423D01*
X87951001Y-120146947D01*
X87970707Y-120132332D01*
X87991750Y-120119720D01*
X88013929Y-120109230D01*
X88037028Y-120100965D01*
X88060827Y-120095004D01*
X88085095Y-120091404D01*
X88109599Y-120090200D01*
X89009601Y-120090200D01*
X89034105Y-120091404D01*
X89034105Y-120091404D01*
G37*
D11*
X88559600Y-120665200D03*
G04 #@! TD*
D10*
G04 #@! TO.C,C3*
G36*
X77034105Y-122141404D02*
X77058373Y-122145004D01*
X77082172Y-122150965D01*
X77105271Y-122159230D01*
X77127450Y-122169720D01*
X77148493Y-122182332D01*
X77168199Y-122196947D01*
X77186377Y-122213423D01*
X77202853Y-122231601D01*
X77217468Y-122251307D01*
X77230080Y-122272350D01*
X77240570Y-122294529D01*
X77248835Y-122317628D01*
X77254796Y-122341427D01*
X77258396Y-122365695D01*
X77259600Y-122390199D01*
X77259600Y-123040201D01*
X77258396Y-123064705D01*
X77254796Y-123088973D01*
X77248835Y-123112772D01*
X77240570Y-123135871D01*
X77230080Y-123158050D01*
X77217468Y-123179093D01*
X77202853Y-123198799D01*
X77186377Y-123216977D01*
X77168199Y-123233453D01*
X77148493Y-123248068D01*
X77127450Y-123260680D01*
X77105271Y-123271170D01*
X77082172Y-123279435D01*
X77058373Y-123285396D01*
X77034105Y-123288996D01*
X77009601Y-123290200D01*
X76109599Y-123290200D01*
X76085095Y-123288996D01*
X76060827Y-123285396D01*
X76037028Y-123279435D01*
X76013929Y-123271170D01*
X75991750Y-123260680D01*
X75970707Y-123248068D01*
X75951001Y-123233453D01*
X75932823Y-123216977D01*
X75916347Y-123198799D01*
X75901732Y-123179093D01*
X75889120Y-123158050D01*
X75878630Y-123135871D01*
X75870365Y-123112772D01*
X75864404Y-123088973D01*
X75860804Y-123064705D01*
X75859600Y-123040201D01*
X75859600Y-122390199D01*
X75860804Y-122365695D01*
X75864404Y-122341427D01*
X75870365Y-122317628D01*
X75878630Y-122294529D01*
X75889120Y-122272350D01*
X75901732Y-122251307D01*
X75916347Y-122231601D01*
X75932823Y-122213423D01*
X75951001Y-122196947D01*
X75970707Y-122182332D01*
X75991750Y-122169720D01*
X76013929Y-122159230D01*
X76037028Y-122150965D01*
X76060827Y-122145004D01*
X76085095Y-122141404D01*
X76109599Y-122140200D01*
X77009601Y-122140200D01*
X77034105Y-122141404D01*
X77034105Y-122141404D01*
G37*
D11*
X76559600Y-122715200D03*
D10*
G36*
X77034105Y-120091404D02*
X77058373Y-120095004D01*
X77082172Y-120100965D01*
X77105271Y-120109230D01*
X77127450Y-120119720D01*
X77148493Y-120132332D01*
X77168199Y-120146947D01*
X77186377Y-120163423D01*
X77202853Y-120181601D01*
X77217468Y-120201307D01*
X77230080Y-120222350D01*
X77240570Y-120244529D01*
X77248835Y-120267628D01*
X77254796Y-120291427D01*
X77258396Y-120315695D01*
X77259600Y-120340199D01*
X77259600Y-120990201D01*
X77258396Y-121014705D01*
X77254796Y-121038973D01*
X77248835Y-121062772D01*
X77240570Y-121085871D01*
X77230080Y-121108050D01*
X77217468Y-121129093D01*
X77202853Y-121148799D01*
X77186377Y-121166977D01*
X77168199Y-121183453D01*
X77148493Y-121198068D01*
X77127450Y-121210680D01*
X77105271Y-121221170D01*
X77082172Y-121229435D01*
X77058373Y-121235396D01*
X77034105Y-121238996D01*
X77009601Y-121240200D01*
X76109599Y-121240200D01*
X76085095Y-121238996D01*
X76060827Y-121235396D01*
X76037028Y-121229435D01*
X76013929Y-121221170D01*
X75991750Y-121210680D01*
X75970707Y-121198068D01*
X75951001Y-121183453D01*
X75932823Y-121166977D01*
X75916347Y-121148799D01*
X75901732Y-121129093D01*
X75889120Y-121108050D01*
X75878630Y-121085871D01*
X75870365Y-121062772D01*
X75864404Y-121038973D01*
X75860804Y-121014705D01*
X75859600Y-120990201D01*
X75859600Y-120340199D01*
X75860804Y-120315695D01*
X75864404Y-120291427D01*
X75870365Y-120267628D01*
X75878630Y-120244529D01*
X75889120Y-120222350D01*
X75901732Y-120201307D01*
X75916347Y-120181601D01*
X75932823Y-120163423D01*
X75951001Y-120146947D01*
X75970707Y-120132332D01*
X75991750Y-120119720D01*
X76013929Y-120109230D01*
X76037028Y-120100965D01*
X76060827Y-120095004D01*
X76085095Y-120091404D01*
X76109599Y-120090200D01*
X77009601Y-120090200D01*
X77034105Y-120091404D01*
X77034105Y-120091404D01*
G37*
D11*
X76559600Y-120665200D03*
G04 #@! TD*
D10*
G04 #@! TO.C,C4*
G36*
X95534105Y-156641404D02*
X95558373Y-156645004D01*
X95582172Y-156650965D01*
X95605271Y-156659230D01*
X95627450Y-156669720D01*
X95648493Y-156682332D01*
X95668199Y-156696947D01*
X95686377Y-156713423D01*
X95702853Y-156731601D01*
X95717468Y-156751307D01*
X95730080Y-156772350D01*
X95740570Y-156794529D01*
X95748835Y-156817628D01*
X95754796Y-156841427D01*
X95758396Y-156865695D01*
X95759600Y-156890199D01*
X95759600Y-157540201D01*
X95758396Y-157564705D01*
X95754796Y-157588973D01*
X95748835Y-157612772D01*
X95740570Y-157635871D01*
X95730080Y-157658050D01*
X95717468Y-157679093D01*
X95702853Y-157698799D01*
X95686377Y-157716977D01*
X95668199Y-157733453D01*
X95648493Y-157748068D01*
X95627450Y-157760680D01*
X95605271Y-157771170D01*
X95582172Y-157779435D01*
X95558373Y-157785396D01*
X95534105Y-157788996D01*
X95509601Y-157790200D01*
X94609599Y-157790200D01*
X94585095Y-157788996D01*
X94560827Y-157785396D01*
X94537028Y-157779435D01*
X94513929Y-157771170D01*
X94491750Y-157760680D01*
X94470707Y-157748068D01*
X94451001Y-157733453D01*
X94432823Y-157716977D01*
X94416347Y-157698799D01*
X94401732Y-157679093D01*
X94389120Y-157658050D01*
X94378630Y-157635871D01*
X94370365Y-157612772D01*
X94364404Y-157588973D01*
X94360804Y-157564705D01*
X94359600Y-157540201D01*
X94359600Y-156890199D01*
X94360804Y-156865695D01*
X94364404Y-156841427D01*
X94370365Y-156817628D01*
X94378630Y-156794529D01*
X94389120Y-156772350D01*
X94401732Y-156751307D01*
X94416347Y-156731601D01*
X94432823Y-156713423D01*
X94451001Y-156696947D01*
X94470707Y-156682332D01*
X94491750Y-156669720D01*
X94513929Y-156659230D01*
X94537028Y-156650965D01*
X94560827Y-156645004D01*
X94585095Y-156641404D01*
X94609599Y-156640200D01*
X95509601Y-156640200D01*
X95534105Y-156641404D01*
X95534105Y-156641404D01*
G37*
D11*
X95059600Y-157215200D03*
D10*
G36*
X95534105Y-154591404D02*
X95558373Y-154595004D01*
X95582172Y-154600965D01*
X95605271Y-154609230D01*
X95627450Y-154619720D01*
X95648493Y-154632332D01*
X95668199Y-154646947D01*
X95686377Y-154663423D01*
X95702853Y-154681601D01*
X95717468Y-154701307D01*
X95730080Y-154722350D01*
X95740570Y-154744529D01*
X95748835Y-154767628D01*
X95754796Y-154791427D01*
X95758396Y-154815695D01*
X95759600Y-154840199D01*
X95759600Y-155490201D01*
X95758396Y-155514705D01*
X95754796Y-155538973D01*
X95748835Y-155562772D01*
X95740570Y-155585871D01*
X95730080Y-155608050D01*
X95717468Y-155629093D01*
X95702853Y-155648799D01*
X95686377Y-155666977D01*
X95668199Y-155683453D01*
X95648493Y-155698068D01*
X95627450Y-155710680D01*
X95605271Y-155721170D01*
X95582172Y-155729435D01*
X95558373Y-155735396D01*
X95534105Y-155738996D01*
X95509601Y-155740200D01*
X94609599Y-155740200D01*
X94585095Y-155738996D01*
X94560827Y-155735396D01*
X94537028Y-155729435D01*
X94513929Y-155721170D01*
X94491750Y-155710680D01*
X94470707Y-155698068D01*
X94451001Y-155683453D01*
X94432823Y-155666977D01*
X94416347Y-155648799D01*
X94401732Y-155629093D01*
X94389120Y-155608050D01*
X94378630Y-155585871D01*
X94370365Y-155562772D01*
X94364404Y-155538973D01*
X94360804Y-155514705D01*
X94359600Y-155490201D01*
X94359600Y-154840199D01*
X94360804Y-154815695D01*
X94364404Y-154791427D01*
X94370365Y-154767628D01*
X94378630Y-154744529D01*
X94389120Y-154722350D01*
X94401732Y-154701307D01*
X94416347Y-154681601D01*
X94432823Y-154663423D01*
X94451001Y-154646947D01*
X94470707Y-154632332D01*
X94491750Y-154619720D01*
X94513929Y-154609230D01*
X94537028Y-154600965D01*
X94560827Y-154595004D01*
X94585095Y-154591404D01*
X94609599Y-154590200D01*
X95509601Y-154590200D01*
X95534105Y-154591404D01*
X95534105Y-154591404D01*
G37*
D11*
X95059600Y-155165200D03*
G04 #@! TD*
D10*
G04 #@! TO.C,C5*
G36*
X120284105Y-154591404D02*
X120308373Y-154595004D01*
X120332172Y-154600965D01*
X120355271Y-154609230D01*
X120377450Y-154619720D01*
X120398493Y-154632332D01*
X120418199Y-154646947D01*
X120436377Y-154663423D01*
X120452853Y-154681601D01*
X120467468Y-154701307D01*
X120480080Y-154722350D01*
X120490570Y-154744529D01*
X120498835Y-154767628D01*
X120504796Y-154791427D01*
X120508396Y-154815695D01*
X120509600Y-154840199D01*
X120509600Y-155490201D01*
X120508396Y-155514705D01*
X120504796Y-155538973D01*
X120498835Y-155562772D01*
X120490570Y-155585871D01*
X120480080Y-155608050D01*
X120467468Y-155629093D01*
X120452853Y-155648799D01*
X120436377Y-155666977D01*
X120418199Y-155683453D01*
X120398493Y-155698068D01*
X120377450Y-155710680D01*
X120355271Y-155721170D01*
X120332172Y-155729435D01*
X120308373Y-155735396D01*
X120284105Y-155738996D01*
X120259601Y-155740200D01*
X119359599Y-155740200D01*
X119335095Y-155738996D01*
X119310827Y-155735396D01*
X119287028Y-155729435D01*
X119263929Y-155721170D01*
X119241750Y-155710680D01*
X119220707Y-155698068D01*
X119201001Y-155683453D01*
X119182823Y-155666977D01*
X119166347Y-155648799D01*
X119151732Y-155629093D01*
X119139120Y-155608050D01*
X119128630Y-155585871D01*
X119120365Y-155562772D01*
X119114404Y-155538973D01*
X119110804Y-155514705D01*
X119109600Y-155490201D01*
X119109600Y-154840199D01*
X119110804Y-154815695D01*
X119114404Y-154791427D01*
X119120365Y-154767628D01*
X119128630Y-154744529D01*
X119139120Y-154722350D01*
X119151732Y-154701307D01*
X119166347Y-154681601D01*
X119182823Y-154663423D01*
X119201001Y-154646947D01*
X119220707Y-154632332D01*
X119241750Y-154619720D01*
X119263929Y-154609230D01*
X119287028Y-154600965D01*
X119310827Y-154595004D01*
X119335095Y-154591404D01*
X119359599Y-154590200D01*
X120259601Y-154590200D01*
X120284105Y-154591404D01*
X120284105Y-154591404D01*
G37*
D11*
X119809600Y-155165200D03*
D10*
G36*
X120284105Y-156641404D02*
X120308373Y-156645004D01*
X120332172Y-156650965D01*
X120355271Y-156659230D01*
X120377450Y-156669720D01*
X120398493Y-156682332D01*
X120418199Y-156696947D01*
X120436377Y-156713423D01*
X120452853Y-156731601D01*
X120467468Y-156751307D01*
X120480080Y-156772350D01*
X120490570Y-156794529D01*
X120498835Y-156817628D01*
X120504796Y-156841427D01*
X120508396Y-156865695D01*
X120509600Y-156890199D01*
X120509600Y-157540201D01*
X120508396Y-157564705D01*
X120504796Y-157588973D01*
X120498835Y-157612772D01*
X120490570Y-157635871D01*
X120480080Y-157658050D01*
X120467468Y-157679093D01*
X120452853Y-157698799D01*
X120436377Y-157716977D01*
X120418199Y-157733453D01*
X120398493Y-157748068D01*
X120377450Y-157760680D01*
X120355271Y-157771170D01*
X120332172Y-157779435D01*
X120308373Y-157785396D01*
X120284105Y-157788996D01*
X120259601Y-157790200D01*
X119359599Y-157790200D01*
X119335095Y-157788996D01*
X119310827Y-157785396D01*
X119287028Y-157779435D01*
X119263929Y-157771170D01*
X119241750Y-157760680D01*
X119220707Y-157748068D01*
X119201001Y-157733453D01*
X119182823Y-157716977D01*
X119166347Y-157698799D01*
X119151732Y-157679093D01*
X119139120Y-157658050D01*
X119128630Y-157635871D01*
X119120365Y-157612772D01*
X119114404Y-157588973D01*
X119110804Y-157564705D01*
X119109600Y-157540201D01*
X119109600Y-156890199D01*
X119110804Y-156865695D01*
X119114404Y-156841427D01*
X119120365Y-156817628D01*
X119128630Y-156794529D01*
X119139120Y-156772350D01*
X119151732Y-156751307D01*
X119166347Y-156731601D01*
X119182823Y-156713423D01*
X119201001Y-156696947D01*
X119220707Y-156682332D01*
X119241750Y-156669720D01*
X119263929Y-156659230D01*
X119287028Y-156650965D01*
X119310827Y-156645004D01*
X119335095Y-156641404D01*
X119359599Y-156640200D01*
X120259601Y-156640200D01*
X120284105Y-156641404D01*
X120284105Y-156641404D01*
G37*
D11*
X119809600Y-157215200D03*
G04 #@! TD*
D10*
G04 #@! TO.C,R1*
G36*
X92284105Y-125591404D02*
X92308373Y-125595004D01*
X92332172Y-125600965D01*
X92355271Y-125609230D01*
X92377450Y-125619720D01*
X92398493Y-125632332D01*
X92418199Y-125646947D01*
X92436377Y-125663423D01*
X92452853Y-125681601D01*
X92467468Y-125701307D01*
X92480080Y-125722350D01*
X92490570Y-125744529D01*
X92498835Y-125767628D01*
X92504796Y-125791427D01*
X92508396Y-125815695D01*
X92509600Y-125840199D01*
X92509600Y-126490201D01*
X92508396Y-126514705D01*
X92504796Y-126538973D01*
X92498835Y-126562772D01*
X92490570Y-126585871D01*
X92480080Y-126608050D01*
X92467468Y-126629093D01*
X92452853Y-126648799D01*
X92436377Y-126666977D01*
X92418199Y-126683453D01*
X92398493Y-126698068D01*
X92377450Y-126710680D01*
X92355271Y-126721170D01*
X92332172Y-126729435D01*
X92308373Y-126735396D01*
X92284105Y-126738996D01*
X92259601Y-126740200D01*
X91359599Y-126740200D01*
X91335095Y-126738996D01*
X91310827Y-126735396D01*
X91287028Y-126729435D01*
X91263929Y-126721170D01*
X91241750Y-126710680D01*
X91220707Y-126698068D01*
X91201001Y-126683453D01*
X91182823Y-126666977D01*
X91166347Y-126648799D01*
X91151732Y-126629093D01*
X91139120Y-126608050D01*
X91128630Y-126585871D01*
X91120365Y-126562772D01*
X91114404Y-126538973D01*
X91110804Y-126514705D01*
X91109600Y-126490201D01*
X91109600Y-125840199D01*
X91110804Y-125815695D01*
X91114404Y-125791427D01*
X91120365Y-125767628D01*
X91128630Y-125744529D01*
X91139120Y-125722350D01*
X91151732Y-125701307D01*
X91166347Y-125681601D01*
X91182823Y-125663423D01*
X91201001Y-125646947D01*
X91220707Y-125632332D01*
X91241750Y-125619720D01*
X91263929Y-125609230D01*
X91287028Y-125600965D01*
X91310827Y-125595004D01*
X91335095Y-125591404D01*
X91359599Y-125590200D01*
X92259601Y-125590200D01*
X92284105Y-125591404D01*
X92284105Y-125591404D01*
G37*
D11*
X91809600Y-126165200D03*
D10*
G36*
X92284105Y-127641404D02*
X92308373Y-127645004D01*
X92332172Y-127650965D01*
X92355271Y-127659230D01*
X92377450Y-127669720D01*
X92398493Y-127682332D01*
X92418199Y-127696947D01*
X92436377Y-127713423D01*
X92452853Y-127731601D01*
X92467468Y-127751307D01*
X92480080Y-127772350D01*
X92490570Y-127794529D01*
X92498835Y-127817628D01*
X92504796Y-127841427D01*
X92508396Y-127865695D01*
X92509600Y-127890199D01*
X92509600Y-128540201D01*
X92508396Y-128564705D01*
X92504796Y-128588973D01*
X92498835Y-128612772D01*
X92490570Y-128635871D01*
X92480080Y-128658050D01*
X92467468Y-128679093D01*
X92452853Y-128698799D01*
X92436377Y-128716977D01*
X92418199Y-128733453D01*
X92398493Y-128748068D01*
X92377450Y-128760680D01*
X92355271Y-128771170D01*
X92332172Y-128779435D01*
X92308373Y-128785396D01*
X92284105Y-128788996D01*
X92259601Y-128790200D01*
X91359599Y-128790200D01*
X91335095Y-128788996D01*
X91310827Y-128785396D01*
X91287028Y-128779435D01*
X91263929Y-128771170D01*
X91241750Y-128760680D01*
X91220707Y-128748068D01*
X91201001Y-128733453D01*
X91182823Y-128716977D01*
X91166347Y-128698799D01*
X91151732Y-128679093D01*
X91139120Y-128658050D01*
X91128630Y-128635871D01*
X91120365Y-128612772D01*
X91114404Y-128588973D01*
X91110804Y-128564705D01*
X91109600Y-128540201D01*
X91109600Y-127890199D01*
X91110804Y-127865695D01*
X91114404Y-127841427D01*
X91120365Y-127817628D01*
X91128630Y-127794529D01*
X91139120Y-127772350D01*
X91151732Y-127751307D01*
X91166347Y-127731601D01*
X91182823Y-127713423D01*
X91201001Y-127696947D01*
X91220707Y-127682332D01*
X91241750Y-127669720D01*
X91263929Y-127659230D01*
X91287028Y-127650965D01*
X91310827Y-127645004D01*
X91335095Y-127641404D01*
X91359599Y-127640200D01*
X92259601Y-127640200D01*
X92284105Y-127641404D01*
X92284105Y-127641404D01*
G37*
D11*
X91809600Y-128215200D03*
G04 #@! TD*
D10*
G04 #@! TO.C,R2*
G36*
X89034105Y-125591404D02*
X89058373Y-125595004D01*
X89082172Y-125600965D01*
X89105271Y-125609230D01*
X89127450Y-125619720D01*
X89148493Y-125632332D01*
X89168199Y-125646947D01*
X89186377Y-125663423D01*
X89202853Y-125681601D01*
X89217468Y-125701307D01*
X89230080Y-125722350D01*
X89240570Y-125744529D01*
X89248835Y-125767628D01*
X89254796Y-125791427D01*
X89258396Y-125815695D01*
X89259600Y-125840199D01*
X89259600Y-126490201D01*
X89258396Y-126514705D01*
X89254796Y-126538973D01*
X89248835Y-126562772D01*
X89240570Y-126585871D01*
X89230080Y-126608050D01*
X89217468Y-126629093D01*
X89202853Y-126648799D01*
X89186377Y-126666977D01*
X89168199Y-126683453D01*
X89148493Y-126698068D01*
X89127450Y-126710680D01*
X89105271Y-126721170D01*
X89082172Y-126729435D01*
X89058373Y-126735396D01*
X89034105Y-126738996D01*
X89009601Y-126740200D01*
X88109599Y-126740200D01*
X88085095Y-126738996D01*
X88060827Y-126735396D01*
X88037028Y-126729435D01*
X88013929Y-126721170D01*
X87991750Y-126710680D01*
X87970707Y-126698068D01*
X87951001Y-126683453D01*
X87932823Y-126666977D01*
X87916347Y-126648799D01*
X87901732Y-126629093D01*
X87889120Y-126608050D01*
X87878630Y-126585871D01*
X87870365Y-126562772D01*
X87864404Y-126538973D01*
X87860804Y-126514705D01*
X87859600Y-126490201D01*
X87859600Y-125840199D01*
X87860804Y-125815695D01*
X87864404Y-125791427D01*
X87870365Y-125767628D01*
X87878630Y-125744529D01*
X87889120Y-125722350D01*
X87901732Y-125701307D01*
X87916347Y-125681601D01*
X87932823Y-125663423D01*
X87951001Y-125646947D01*
X87970707Y-125632332D01*
X87991750Y-125619720D01*
X88013929Y-125609230D01*
X88037028Y-125600965D01*
X88060827Y-125595004D01*
X88085095Y-125591404D01*
X88109599Y-125590200D01*
X89009601Y-125590200D01*
X89034105Y-125591404D01*
X89034105Y-125591404D01*
G37*
D11*
X88559600Y-126165200D03*
D10*
G36*
X89034105Y-127641404D02*
X89058373Y-127645004D01*
X89082172Y-127650965D01*
X89105271Y-127659230D01*
X89127450Y-127669720D01*
X89148493Y-127682332D01*
X89168199Y-127696947D01*
X89186377Y-127713423D01*
X89202853Y-127731601D01*
X89217468Y-127751307D01*
X89230080Y-127772350D01*
X89240570Y-127794529D01*
X89248835Y-127817628D01*
X89254796Y-127841427D01*
X89258396Y-127865695D01*
X89259600Y-127890199D01*
X89259600Y-128540201D01*
X89258396Y-128564705D01*
X89254796Y-128588973D01*
X89248835Y-128612772D01*
X89240570Y-128635871D01*
X89230080Y-128658050D01*
X89217468Y-128679093D01*
X89202853Y-128698799D01*
X89186377Y-128716977D01*
X89168199Y-128733453D01*
X89148493Y-128748068D01*
X89127450Y-128760680D01*
X89105271Y-128771170D01*
X89082172Y-128779435D01*
X89058373Y-128785396D01*
X89034105Y-128788996D01*
X89009601Y-128790200D01*
X88109599Y-128790200D01*
X88085095Y-128788996D01*
X88060827Y-128785396D01*
X88037028Y-128779435D01*
X88013929Y-128771170D01*
X87991750Y-128760680D01*
X87970707Y-128748068D01*
X87951001Y-128733453D01*
X87932823Y-128716977D01*
X87916347Y-128698799D01*
X87901732Y-128679093D01*
X87889120Y-128658050D01*
X87878630Y-128635871D01*
X87870365Y-128612772D01*
X87864404Y-128588973D01*
X87860804Y-128564705D01*
X87859600Y-128540201D01*
X87859600Y-127890199D01*
X87860804Y-127865695D01*
X87864404Y-127841427D01*
X87870365Y-127817628D01*
X87878630Y-127794529D01*
X87889120Y-127772350D01*
X87901732Y-127751307D01*
X87916347Y-127731601D01*
X87932823Y-127713423D01*
X87951001Y-127696947D01*
X87970707Y-127682332D01*
X87991750Y-127669720D01*
X88013929Y-127659230D01*
X88037028Y-127650965D01*
X88060827Y-127645004D01*
X88085095Y-127641404D01*
X88109599Y-127640200D01*
X89009601Y-127640200D01*
X89034105Y-127641404D01*
X89034105Y-127641404D01*
G37*
D11*
X88559600Y-128215200D03*
G04 #@! TD*
D10*
G04 #@! TO.C,R3*
G36*
X77034105Y-125591404D02*
X77058373Y-125595004D01*
X77082172Y-125600965D01*
X77105271Y-125609230D01*
X77127450Y-125619720D01*
X77148493Y-125632332D01*
X77168199Y-125646947D01*
X77186377Y-125663423D01*
X77202853Y-125681601D01*
X77217468Y-125701307D01*
X77230080Y-125722350D01*
X77240570Y-125744529D01*
X77248835Y-125767628D01*
X77254796Y-125791427D01*
X77258396Y-125815695D01*
X77259600Y-125840199D01*
X77259600Y-126490201D01*
X77258396Y-126514705D01*
X77254796Y-126538973D01*
X77248835Y-126562772D01*
X77240570Y-126585871D01*
X77230080Y-126608050D01*
X77217468Y-126629093D01*
X77202853Y-126648799D01*
X77186377Y-126666977D01*
X77168199Y-126683453D01*
X77148493Y-126698068D01*
X77127450Y-126710680D01*
X77105271Y-126721170D01*
X77082172Y-126729435D01*
X77058373Y-126735396D01*
X77034105Y-126738996D01*
X77009601Y-126740200D01*
X76109599Y-126740200D01*
X76085095Y-126738996D01*
X76060827Y-126735396D01*
X76037028Y-126729435D01*
X76013929Y-126721170D01*
X75991750Y-126710680D01*
X75970707Y-126698068D01*
X75951001Y-126683453D01*
X75932823Y-126666977D01*
X75916347Y-126648799D01*
X75901732Y-126629093D01*
X75889120Y-126608050D01*
X75878630Y-126585871D01*
X75870365Y-126562772D01*
X75864404Y-126538973D01*
X75860804Y-126514705D01*
X75859600Y-126490201D01*
X75859600Y-125840199D01*
X75860804Y-125815695D01*
X75864404Y-125791427D01*
X75870365Y-125767628D01*
X75878630Y-125744529D01*
X75889120Y-125722350D01*
X75901732Y-125701307D01*
X75916347Y-125681601D01*
X75932823Y-125663423D01*
X75951001Y-125646947D01*
X75970707Y-125632332D01*
X75991750Y-125619720D01*
X76013929Y-125609230D01*
X76037028Y-125600965D01*
X76060827Y-125595004D01*
X76085095Y-125591404D01*
X76109599Y-125590200D01*
X77009601Y-125590200D01*
X77034105Y-125591404D01*
X77034105Y-125591404D01*
G37*
D11*
X76559600Y-126165200D03*
D10*
G36*
X77034105Y-127641404D02*
X77058373Y-127645004D01*
X77082172Y-127650965D01*
X77105271Y-127659230D01*
X77127450Y-127669720D01*
X77148493Y-127682332D01*
X77168199Y-127696947D01*
X77186377Y-127713423D01*
X77202853Y-127731601D01*
X77217468Y-127751307D01*
X77230080Y-127772350D01*
X77240570Y-127794529D01*
X77248835Y-127817628D01*
X77254796Y-127841427D01*
X77258396Y-127865695D01*
X77259600Y-127890199D01*
X77259600Y-128540201D01*
X77258396Y-128564705D01*
X77254796Y-128588973D01*
X77248835Y-128612772D01*
X77240570Y-128635871D01*
X77230080Y-128658050D01*
X77217468Y-128679093D01*
X77202853Y-128698799D01*
X77186377Y-128716977D01*
X77168199Y-128733453D01*
X77148493Y-128748068D01*
X77127450Y-128760680D01*
X77105271Y-128771170D01*
X77082172Y-128779435D01*
X77058373Y-128785396D01*
X77034105Y-128788996D01*
X77009601Y-128790200D01*
X76109599Y-128790200D01*
X76085095Y-128788996D01*
X76060827Y-128785396D01*
X76037028Y-128779435D01*
X76013929Y-128771170D01*
X75991750Y-128760680D01*
X75970707Y-128748068D01*
X75951001Y-128733453D01*
X75932823Y-128716977D01*
X75916347Y-128698799D01*
X75901732Y-128679093D01*
X75889120Y-128658050D01*
X75878630Y-128635871D01*
X75870365Y-128612772D01*
X75864404Y-128588973D01*
X75860804Y-128564705D01*
X75859600Y-128540201D01*
X75859600Y-127890199D01*
X75860804Y-127865695D01*
X75864404Y-127841427D01*
X75870365Y-127817628D01*
X75878630Y-127794529D01*
X75889120Y-127772350D01*
X75901732Y-127751307D01*
X75916347Y-127731601D01*
X75932823Y-127713423D01*
X75951001Y-127696947D01*
X75970707Y-127682332D01*
X75991750Y-127669720D01*
X76013929Y-127659230D01*
X76037028Y-127650965D01*
X76060827Y-127645004D01*
X76085095Y-127641404D01*
X76109599Y-127640200D01*
X77009601Y-127640200D01*
X77034105Y-127641404D01*
X77034105Y-127641404D01*
G37*
D11*
X76559600Y-128215200D03*
G04 #@! TD*
D10*
G04 #@! TO.C,R8*
G36*
X120284105Y-152391404D02*
X120308373Y-152395004D01*
X120332172Y-152400965D01*
X120355271Y-152409230D01*
X120377450Y-152419720D01*
X120398493Y-152432332D01*
X120418199Y-152446947D01*
X120436377Y-152463423D01*
X120452853Y-152481601D01*
X120467468Y-152501307D01*
X120480080Y-152522350D01*
X120490570Y-152544529D01*
X120498835Y-152567628D01*
X120504796Y-152591427D01*
X120508396Y-152615695D01*
X120509600Y-152640199D01*
X120509600Y-153290201D01*
X120508396Y-153314705D01*
X120504796Y-153338973D01*
X120498835Y-153362772D01*
X120490570Y-153385871D01*
X120480080Y-153408050D01*
X120467468Y-153429093D01*
X120452853Y-153448799D01*
X120436377Y-153466977D01*
X120418199Y-153483453D01*
X120398493Y-153498068D01*
X120377450Y-153510680D01*
X120355271Y-153521170D01*
X120332172Y-153529435D01*
X120308373Y-153535396D01*
X120284105Y-153538996D01*
X120259601Y-153540200D01*
X119359599Y-153540200D01*
X119335095Y-153538996D01*
X119310827Y-153535396D01*
X119287028Y-153529435D01*
X119263929Y-153521170D01*
X119241750Y-153510680D01*
X119220707Y-153498068D01*
X119201001Y-153483453D01*
X119182823Y-153466977D01*
X119166347Y-153448799D01*
X119151732Y-153429093D01*
X119139120Y-153408050D01*
X119128630Y-153385871D01*
X119120365Y-153362772D01*
X119114404Y-153338973D01*
X119110804Y-153314705D01*
X119109600Y-153290201D01*
X119109600Y-152640199D01*
X119110804Y-152615695D01*
X119114404Y-152591427D01*
X119120365Y-152567628D01*
X119128630Y-152544529D01*
X119139120Y-152522350D01*
X119151732Y-152501307D01*
X119166347Y-152481601D01*
X119182823Y-152463423D01*
X119201001Y-152446947D01*
X119220707Y-152432332D01*
X119241750Y-152419720D01*
X119263929Y-152409230D01*
X119287028Y-152400965D01*
X119310827Y-152395004D01*
X119335095Y-152391404D01*
X119359599Y-152390200D01*
X120259601Y-152390200D01*
X120284105Y-152391404D01*
X120284105Y-152391404D01*
G37*
D11*
X119809600Y-152965200D03*
D10*
G36*
X120284105Y-150341404D02*
X120308373Y-150345004D01*
X120332172Y-150350965D01*
X120355271Y-150359230D01*
X120377450Y-150369720D01*
X120398493Y-150382332D01*
X120418199Y-150396947D01*
X120436377Y-150413423D01*
X120452853Y-150431601D01*
X120467468Y-150451307D01*
X120480080Y-150472350D01*
X120490570Y-150494529D01*
X120498835Y-150517628D01*
X120504796Y-150541427D01*
X120508396Y-150565695D01*
X120509600Y-150590199D01*
X120509600Y-151240201D01*
X120508396Y-151264705D01*
X120504796Y-151288973D01*
X120498835Y-151312772D01*
X120490570Y-151335871D01*
X120480080Y-151358050D01*
X120467468Y-151379093D01*
X120452853Y-151398799D01*
X120436377Y-151416977D01*
X120418199Y-151433453D01*
X120398493Y-151448068D01*
X120377450Y-151460680D01*
X120355271Y-151471170D01*
X120332172Y-151479435D01*
X120308373Y-151485396D01*
X120284105Y-151488996D01*
X120259601Y-151490200D01*
X119359599Y-151490200D01*
X119335095Y-151488996D01*
X119310827Y-151485396D01*
X119287028Y-151479435D01*
X119263929Y-151471170D01*
X119241750Y-151460680D01*
X119220707Y-151448068D01*
X119201001Y-151433453D01*
X119182823Y-151416977D01*
X119166347Y-151398799D01*
X119151732Y-151379093D01*
X119139120Y-151358050D01*
X119128630Y-151335871D01*
X119120365Y-151312772D01*
X119114404Y-151288973D01*
X119110804Y-151264705D01*
X119109600Y-151240201D01*
X119109600Y-150590199D01*
X119110804Y-150565695D01*
X119114404Y-150541427D01*
X119120365Y-150517628D01*
X119128630Y-150494529D01*
X119139120Y-150472350D01*
X119151732Y-150451307D01*
X119166347Y-150431601D01*
X119182823Y-150413423D01*
X119201001Y-150396947D01*
X119220707Y-150382332D01*
X119241750Y-150369720D01*
X119263929Y-150359230D01*
X119287028Y-150350965D01*
X119310827Y-150345004D01*
X119335095Y-150341404D01*
X119359599Y-150340200D01*
X120259601Y-150340200D01*
X120284105Y-150341404D01*
X120284105Y-150341404D01*
G37*
D11*
X119809600Y-150915200D03*
G04 #@! TD*
D10*
G04 #@! TO.C,R9*
G36*
X80284105Y-111591404D02*
X80308373Y-111595004D01*
X80332172Y-111600965D01*
X80355271Y-111609230D01*
X80377450Y-111619720D01*
X80398493Y-111632332D01*
X80418199Y-111646947D01*
X80436377Y-111663423D01*
X80452853Y-111681601D01*
X80467468Y-111701307D01*
X80480080Y-111722350D01*
X80490570Y-111744529D01*
X80498835Y-111767628D01*
X80504796Y-111791427D01*
X80508396Y-111815695D01*
X80509600Y-111840199D01*
X80509600Y-112490201D01*
X80508396Y-112514705D01*
X80504796Y-112538973D01*
X80498835Y-112562772D01*
X80490570Y-112585871D01*
X80480080Y-112608050D01*
X80467468Y-112629093D01*
X80452853Y-112648799D01*
X80436377Y-112666977D01*
X80418199Y-112683453D01*
X80398493Y-112698068D01*
X80377450Y-112710680D01*
X80355271Y-112721170D01*
X80332172Y-112729435D01*
X80308373Y-112735396D01*
X80284105Y-112738996D01*
X80259601Y-112740200D01*
X79359599Y-112740200D01*
X79335095Y-112738996D01*
X79310827Y-112735396D01*
X79287028Y-112729435D01*
X79263929Y-112721170D01*
X79241750Y-112710680D01*
X79220707Y-112698068D01*
X79201001Y-112683453D01*
X79182823Y-112666977D01*
X79166347Y-112648799D01*
X79151732Y-112629093D01*
X79139120Y-112608050D01*
X79128630Y-112585871D01*
X79120365Y-112562772D01*
X79114404Y-112538973D01*
X79110804Y-112514705D01*
X79109600Y-112490201D01*
X79109600Y-111840199D01*
X79110804Y-111815695D01*
X79114404Y-111791427D01*
X79120365Y-111767628D01*
X79128630Y-111744529D01*
X79139120Y-111722350D01*
X79151732Y-111701307D01*
X79166347Y-111681601D01*
X79182823Y-111663423D01*
X79201001Y-111646947D01*
X79220707Y-111632332D01*
X79241750Y-111619720D01*
X79263929Y-111609230D01*
X79287028Y-111600965D01*
X79310827Y-111595004D01*
X79335095Y-111591404D01*
X79359599Y-111590200D01*
X80259601Y-111590200D01*
X80284105Y-111591404D01*
X80284105Y-111591404D01*
G37*
D11*
X79809600Y-112165200D03*
D10*
G36*
X80284105Y-113641404D02*
X80308373Y-113645004D01*
X80332172Y-113650965D01*
X80355271Y-113659230D01*
X80377450Y-113669720D01*
X80398493Y-113682332D01*
X80418199Y-113696947D01*
X80436377Y-113713423D01*
X80452853Y-113731601D01*
X80467468Y-113751307D01*
X80480080Y-113772350D01*
X80490570Y-113794529D01*
X80498835Y-113817628D01*
X80504796Y-113841427D01*
X80508396Y-113865695D01*
X80509600Y-113890199D01*
X80509600Y-114540201D01*
X80508396Y-114564705D01*
X80504796Y-114588973D01*
X80498835Y-114612772D01*
X80490570Y-114635871D01*
X80480080Y-114658050D01*
X80467468Y-114679093D01*
X80452853Y-114698799D01*
X80436377Y-114716977D01*
X80418199Y-114733453D01*
X80398493Y-114748068D01*
X80377450Y-114760680D01*
X80355271Y-114771170D01*
X80332172Y-114779435D01*
X80308373Y-114785396D01*
X80284105Y-114788996D01*
X80259601Y-114790200D01*
X79359599Y-114790200D01*
X79335095Y-114788996D01*
X79310827Y-114785396D01*
X79287028Y-114779435D01*
X79263929Y-114771170D01*
X79241750Y-114760680D01*
X79220707Y-114748068D01*
X79201001Y-114733453D01*
X79182823Y-114716977D01*
X79166347Y-114698799D01*
X79151732Y-114679093D01*
X79139120Y-114658050D01*
X79128630Y-114635871D01*
X79120365Y-114612772D01*
X79114404Y-114588973D01*
X79110804Y-114564705D01*
X79109600Y-114540201D01*
X79109600Y-113890199D01*
X79110804Y-113865695D01*
X79114404Y-113841427D01*
X79120365Y-113817628D01*
X79128630Y-113794529D01*
X79139120Y-113772350D01*
X79151732Y-113751307D01*
X79166347Y-113731601D01*
X79182823Y-113713423D01*
X79201001Y-113696947D01*
X79220707Y-113682332D01*
X79241750Y-113669720D01*
X79263929Y-113659230D01*
X79287028Y-113650965D01*
X79310827Y-113645004D01*
X79335095Y-113641404D01*
X79359599Y-113640200D01*
X80259601Y-113640200D01*
X80284105Y-113641404D01*
X80284105Y-113641404D01*
G37*
D11*
X79809600Y-114215200D03*
G04 #@! TD*
D10*
G04 #@! TO.C,R10*
G36*
X94284105Y-111591404D02*
X94308373Y-111595004D01*
X94332172Y-111600965D01*
X94355271Y-111609230D01*
X94377450Y-111619720D01*
X94398493Y-111632332D01*
X94418199Y-111646947D01*
X94436377Y-111663423D01*
X94452853Y-111681601D01*
X94467468Y-111701307D01*
X94480080Y-111722350D01*
X94490570Y-111744529D01*
X94498835Y-111767628D01*
X94504796Y-111791427D01*
X94508396Y-111815695D01*
X94509600Y-111840199D01*
X94509600Y-112490201D01*
X94508396Y-112514705D01*
X94504796Y-112538973D01*
X94498835Y-112562772D01*
X94490570Y-112585871D01*
X94480080Y-112608050D01*
X94467468Y-112629093D01*
X94452853Y-112648799D01*
X94436377Y-112666977D01*
X94418199Y-112683453D01*
X94398493Y-112698068D01*
X94377450Y-112710680D01*
X94355271Y-112721170D01*
X94332172Y-112729435D01*
X94308373Y-112735396D01*
X94284105Y-112738996D01*
X94259601Y-112740200D01*
X93359599Y-112740200D01*
X93335095Y-112738996D01*
X93310827Y-112735396D01*
X93287028Y-112729435D01*
X93263929Y-112721170D01*
X93241750Y-112710680D01*
X93220707Y-112698068D01*
X93201001Y-112683453D01*
X93182823Y-112666977D01*
X93166347Y-112648799D01*
X93151732Y-112629093D01*
X93139120Y-112608050D01*
X93128630Y-112585871D01*
X93120365Y-112562772D01*
X93114404Y-112538973D01*
X93110804Y-112514705D01*
X93109600Y-112490201D01*
X93109600Y-111840199D01*
X93110804Y-111815695D01*
X93114404Y-111791427D01*
X93120365Y-111767628D01*
X93128630Y-111744529D01*
X93139120Y-111722350D01*
X93151732Y-111701307D01*
X93166347Y-111681601D01*
X93182823Y-111663423D01*
X93201001Y-111646947D01*
X93220707Y-111632332D01*
X93241750Y-111619720D01*
X93263929Y-111609230D01*
X93287028Y-111600965D01*
X93310827Y-111595004D01*
X93335095Y-111591404D01*
X93359599Y-111590200D01*
X94259601Y-111590200D01*
X94284105Y-111591404D01*
X94284105Y-111591404D01*
G37*
D11*
X93809600Y-112165200D03*
D10*
G36*
X94284105Y-113641404D02*
X94308373Y-113645004D01*
X94332172Y-113650965D01*
X94355271Y-113659230D01*
X94377450Y-113669720D01*
X94398493Y-113682332D01*
X94418199Y-113696947D01*
X94436377Y-113713423D01*
X94452853Y-113731601D01*
X94467468Y-113751307D01*
X94480080Y-113772350D01*
X94490570Y-113794529D01*
X94498835Y-113817628D01*
X94504796Y-113841427D01*
X94508396Y-113865695D01*
X94509600Y-113890199D01*
X94509600Y-114540201D01*
X94508396Y-114564705D01*
X94504796Y-114588973D01*
X94498835Y-114612772D01*
X94490570Y-114635871D01*
X94480080Y-114658050D01*
X94467468Y-114679093D01*
X94452853Y-114698799D01*
X94436377Y-114716977D01*
X94418199Y-114733453D01*
X94398493Y-114748068D01*
X94377450Y-114760680D01*
X94355271Y-114771170D01*
X94332172Y-114779435D01*
X94308373Y-114785396D01*
X94284105Y-114788996D01*
X94259601Y-114790200D01*
X93359599Y-114790200D01*
X93335095Y-114788996D01*
X93310827Y-114785396D01*
X93287028Y-114779435D01*
X93263929Y-114771170D01*
X93241750Y-114760680D01*
X93220707Y-114748068D01*
X93201001Y-114733453D01*
X93182823Y-114716977D01*
X93166347Y-114698799D01*
X93151732Y-114679093D01*
X93139120Y-114658050D01*
X93128630Y-114635871D01*
X93120365Y-114612772D01*
X93114404Y-114588973D01*
X93110804Y-114564705D01*
X93109600Y-114540201D01*
X93109600Y-113890199D01*
X93110804Y-113865695D01*
X93114404Y-113841427D01*
X93120365Y-113817628D01*
X93128630Y-113794529D01*
X93139120Y-113772350D01*
X93151732Y-113751307D01*
X93166347Y-113731601D01*
X93182823Y-113713423D01*
X93201001Y-113696947D01*
X93220707Y-113682332D01*
X93241750Y-113669720D01*
X93263929Y-113659230D01*
X93287028Y-113650965D01*
X93310827Y-113645004D01*
X93335095Y-113641404D01*
X93359599Y-113640200D01*
X94259601Y-113640200D01*
X94284105Y-113641404D01*
X94284105Y-113641404D01*
G37*
D11*
X93809600Y-114215200D03*
G04 #@! TD*
D10*
G04 #@! TO.C,R11*
G36*
X109034105Y-113641404D02*
X109058373Y-113645004D01*
X109082172Y-113650965D01*
X109105271Y-113659230D01*
X109127450Y-113669720D01*
X109148493Y-113682332D01*
X109168199Y-113696947D01*
X109186377Y-113713423D01*
X109202853Y-113731601D01*
X109217468Y-113751307D01*
X109230080Y-113772350D01*
X109240570Y-113794529D01*
X109248835Y-113817628D01*
X109254796Y-113841427D01*
X109258396Y-113865695D01*
X109259600Y-113890199D01*
X109259600Y-114540201D01*
X109258396Y-114564705D01*
X109254796Y-114588973D01*
X109248835Y-114612772D01*
X109240570Y-114635871D01*
X109230080Y-114658050D01*
X109217468Y-114679093D01*
X109202853Y-114698799D01*
X109186377Y-114716977D01*
X109168199Y-114733453D01*
X109148493Y-114748068D01*
X109127450Y-114760680D01*
X109105271Y-114771170D01*
X109082172Y-114779435D01*
X109058373Y-114785396D01*
X109034105Y-114788996D01*
X109009601Y-114790200D01*
X108109599Y-114790200D01*
X108085095Y-114788996D01*
X108060827Y-114785396D01*
X108037028Y-114779435D01*
X108013929Y-114771170D01*
X107991750Y-114760680D01*
X107970707Y-114748068D01*
X107951001Y-114733453D01*
X107932823Y-114716977D01*
X107916347Y-114698799D01*
X107901732Y-114679093D01*
X107889120Y-114658050D01*
X107878630Y-114635871D01*
X107870365Y-114612772D01*
X107864404Y-114588973D01*
X107860804Y-114564705D01*
X107859600Y-114540201D01*
X107859600Y-113890199D01*
X107860804Y-113865695D01*
X107864404Y-113841427D01*
X107870365Y-113817628D01*
X107878630Y-113794529D01*
X107889120Y-113772350D01*
X107901732Y-113751307D01*
X107916347Y-113731601D01*
X107932823Y-113713423D01*
X107951001Y-113696947D01*
X107970707Y-113682332D01*
X107991750Y-113669720D01*
X108013929Y-113659230D01*
X108037028Y-113650965D01*
X108060827Y-113645004D01*
X108085095Y-113641404D01*
X108109599Y-113640200D01*
X109009601Y-113640200D01*
X109034105Y-113641404D01*
X109034105Y-113641404D01*
G37*
D11*
X108559600Y-114215200D03*
D10*
G36*
X109034105Y-111591404D02*
X109058373Y-111595004D01*
X109082172Y-111600965D01*
X109105271Y-111609230D01*
X109127450Y-111619720D01*
X109148493Y-111632332D01*
X109168199Y-111646947D01*
X109186377Y-111663423D01*
X109202853Y-111681601D01*
X109217468Y-111701307D01*
X109230080Y-111722350D01*
X109240570Y-111744529D01*
X109248835Y-111767628D01*
X109254796Y-111791427D01*
X109258396Y-111815695D01*
X109259600Y-111840199D01*
X109259600Y-112490201D01*
X109258396Y-112514705D01*
X109254796Y-112538973D01*
X109248835Y-112562772D01*
X109240570Y-112585871D01*
X109230080Y-112608050D01*
X109217468Y-112629093D01*
X109202853Y-112648799D01*
X109186377Y-112666977D01*
X109168199Y-112683453D01*
X109148493Y-112698068D01*
X109127450Y-112710680D01*
X109105271Y-112721170D01*
X109082172Y-112729435D01*
X109058373Y-112735396D01*
X109034105Y-112738996D01*
X109009601Y-112740200D01*
X108109599Y-112740200D01*
X108085095Y-112738996D01*
X108060827Y-112735396D01*
X108037028Y-112729435D01*
X108013929Y-112721170D01*
X107991750Y-112710680D01*
X107970707Y-112698068D01*
X107951001Y-112683453D01*
X107932823Y-112666977D01*
X107916347Y-112648799D01*
X107901732Y-112629093D01*
X107889120Y-112608050D01*
X107878630Y-112585871D01*
X107870365Y-112562772D01*
X107864404Y-112538973D01*
X107860804Y-112514705D01*
X107859600Y-112490201D01*
X107859600Y-111840199D01*
X107860804Y-111815695D01*
X107864404Y-111791427D01*
X107870365Y-111767628D01*
X107878630Y-111744529D01*
X107889120Y-111722350D01*
X107901732Y-111701307D01*
X107916347Y-111681601D01*
X107932823Y-111663423D01*
X107951001Y-111646947D01*
X107970707Y-111632332D01*
X107991750Y-111619720D01*
X108013929Y-111609230D01*
X108037028Y-111600965D01*
X108060827Y-111595004D01*
X108085095Y-111591404D01*
X108109599Y-111590200D01*
X109009601Y-111590200D01*
X109034105Y-111591404D01*
X109034105Y-111591404D01*
G37*
D11*
X108559600Y-112165200D03*
G04 #@! TD*
D10*
G04 #@! TO.C,R12*
G36*
X123034105Y-113641404D02*
X123058373Y-113645004D01*
X123082172Y-113650965D01*
X123105271Y-113659230D01*
X123127450Y-113669720D01*
X123148493Y-113682332D01*
X123168199Y-113696947D01*
X123186377Y-113713423D01*
X123202853Y-113731601D01*
X123217468Y-113751307D01*
X123230080Y-113772350D01*
X123240570Y-113794529D01*
X123248835Y-113817628D01*
X123254796Y-113841427D01*
X123258396Y-113865695D01*
X123259600Y-113890199D01*
X123259600Y-114540201D01*
X123258396Y-114564705D01*
X123254796Y-114588973D01*
X123248835Y-114612772D01*
X123240570Y-114635871D01*
X123230080Y-114658050D01*
X123217468Y-114679093D01*
X123202853Y-114698799D01*
X123186377Y-114716977D01*
X123168199Y-114733453D01*
X123148493Y-114748068D01*
X123127450Y-114760680D01*
X123105271Y-114771170D01*
X123082172Y-114779435D01*
X123058373Y-114785396D01*
X123034105Y-114788996D01*
X123009601Y-114790200D01*
X122109599Y-114790200D01*
X122085095Y-114788996D01*
X122060827Y-114785396D01*
X122037028Y-114779435D01*
X122013929Y-114771170D01*
X121991750Y-114760680D01*
X121970707Y-114748068D01*
X121951001Y-114733453D01*
X121932823Y-114716977D01*
X121916347Y-114698799D01*
X121901732Y-114679093D01*
X121889120Y-114658050D01*
X121878630Y-114635871D01*
X121870365Y-114612772D01*
X121864404Y-114588973D01*
X121860804Y-114564705D01*
X121859600Y-114540201D01*
X121859600Y-113890199D01*
X121860804Y-113865695D01*
X121864404Y-113841427D01*
X121870365Y-113817628D01*
X121878630Y-113794529D01*
X121889120Y-113772350D01*
X121901732Y-113751307D01*
X121916347Y-113731601D01*
X121932823Y-113713423D01*
X121951001Y-113696947D01*
X121970707Y-113682332D01*
X121991750Y-113669720D01*
X122013929Y-113659230D01*
X122037028Y-113650965D01*
X122060827Y-113645004D01*
X122085095Y-113641404D01*
X122109599Y-113640200D01*
X123009601Y-113640200D01*
X123034105Y-113641404D01*
X123034105Y-113641404D01*
G37*
D11*
X122559600Y-114215200D03*
D10*
G36*
X123034105Y-111591404D02*
X123058373Y-111595004D01*
X123082172Y-111600965D01*
X123105271Y-111609230D01*
X123127450Y-111619720D01*
X123148493Y-111632332D01*
X123168199Y-111646947D01*
X123186377Y-111663423D01*
X123202853Y-111681601D01*
X123217468Y-111701307D01*
X123230080Y-111722350D01*
X123240570Y-111744529D01*
X123248835Y-111767628D01*
X123254796Y-111791427D01*
X123258396Y-111815695D01*
X123259600Y-111840199D01*
X123259600Y-112490201D01*
X123258396Y-112514705D01*
X123254796Y-112538973D01*
X123248835Y-112562772D01*
X123240570Y-112585871D01*
X123230080Y-112608050D01*
X123217468Y-112629093D01*
X123202853Y-112648799D01*
X123186377Y-112666977D01*
X123168199Y-112683453D01*
X123148493Y-112698068D01*
X123127450Y-112710680D01*
X123105271Y-112721170D01*
X123082172Y-112729435D01*
X123058373Y-112735396D01*
X123034105Y-112738996D01*
X123009601Y-112740200D01*
X122109599Y-112740200D01*
X122085095Y-112738996D01*
X122060827Y-112735396D01*
X122037028Y-112729435D01*
X122013929Y-112721170D01*
X121991750Y-112710680D01*
X121970707Y-112698068D01*
X121951001Y-112683453D01*
X121932823Y-112666977D01*
X121916347Y-112648799D01*
X121901732Y-112629093D01*
X121889120Y-112608050D01*
X121878630Y-112585871D01*
X121870365Y-112562772D01*
X121864404Y-112538973D01*
X121860804Y-112514705D01*
X121859600Y-112490201D01*
X121859600Y-111840199D01*
X121860804Y-111815695D01*
X121864404Y-111791427D01*
X121870365Y-111767628D01*
X121878630Y-111744529D01*
X121889120Y-111722350D01*
X121901732Y-111701307D01*
X121916347Y-111681601D01*
X121932823Y-111663423D01*
X121951001Y-111646947D01*
X121970707Y-111632332D01*
X121991750Y-111619720D01*
X122013929Y-111609230D01*
X122037028Y-111600965D01*
X122060827Y-111595004D01*
X122085095Y-111591404D01*
X122109599Y-111590200D01*
X123009601Y-111590200D01*
X123034105Y-111591404D01*
X123034105Y-111591404D01*
G37*
D11*
X122559600Y-112165200D03*
G04 #@! TD*
D12*
G04 #@! TO.C,U1*
X85259600Y-128250200D03*
X85259600Y-126980200D03*
X85259600Y-125710200D03*
X85259600Y-124440200D03*
X85259600Y-123170200D03*
X85259600Y-121900200D03*
X85259600Y-120630200D03*
X79859600Y-120630200D03*
X79859600Y-121900200D03*
X79859600Y-123170200D03*
X79859600Y-124440200D03*
X79859600Y-125710200D03*
X79859600Y-126980200D03*
X79859600Y-128250200D03*
G04 #@! TD*
D13*
G04 #@! TO.C,U2*
X114504600Y-121740200D03*
X113234600Y-121740200D03*
X111964600Y-121740200D03*
X110694600Y-121740200D03*
X109424600Y-121740200D03*
X108154600Y-121740200D03*
X106884600Y-121740200D03*
X105614600Y-121740200D03*
X105614600Y-127140200D03*
X106884600Y-127140200D03*
X108154600Y-127140200D03*
X109424600Y-127140200D03*
X110694600Y-127140200D03*
X111964600Y-127140200D03*
X113234600Y-127140200D03*
X114504600Y-127140200D03*
G04 #@! TD*
D14*
G04 #@! TO.C,D1*
X95123000Y-151319000D03*
X95123000Y-152719000D03*
G04 #@! TD*
G04 #@! TO.C,D2*
X119888000Y-148909000D03*
X119888000Y-147509000D03*
G04 #@! TD*
G04 #@! TO.C,D3*
X69559600Y-112490200D03*
X69559600Y-113890200D03*
G04 #@! TD*
G04 #@! TO.C,D4*
X83559600Y-112490200D03*
X83559600Y-113890200D03*
G04 #@! TD*
G04 #@! TO.C,D5*
X98309600Y-113890200D03*
X98309600Y-112490200D03*
G04 #@! TD*
G04 #@! TO.C,D6*
X112309600Y-113890200D03*
X112309600Y-112490200D03*
G04 #@! TD*
M02*
