M48
;DRILL file {KiCad (5.0.2-5-10.14)} date Sunday, June 16, 2019 at 01:43:56 PM
;FORMAT={-:-/ absolute / metric / decimal}
FMAT,2
METRIC,TZ
T1C0.400
T2C0.762
T3C0.900
T4C1.000
T5C1.300
T6C1.500
%
G90
G05
T1
X68.06Y-116.19
X74.81Y-128.19
X82.06Y-116.19
X82.56Y-121.94
X90.06Y-122.69
X90.06Y-126.19
X96.81Y-116.19
X110.56Y-116.19
T2
X115.06Y-100.69
X115.06Y-105.69
X121.06Y-100.69
X121.06Y-105.69
X101.06Y-100.69
X101.06Y-105.69
X107.06Y-100.69
X107.06Y-105.69
X86.31Y-100.69
X86.31Y-105.69
X92.31Y-100.69
X92.31Y-105.69
X72.31Y-100.69
X72.31Y-105.69
X78.31Y-100.69
X78.31Y-105.69
T3
X116.81Y-113.19
X119.35Y-113.19
X74.06Y-113.19
X76.6Y-113.19
X102.81Y-113.19
X105.35Y-113.19
X88.06Y-113.19
X90.6Y-113.19
T4
X91.81Y-136.19
X91.81Y-138.69
X91.81Y-141.19
X65.151Y-132.41
X65.151Y-134.95
X65.151Y-137.49
X65.151Y-140.03
X65.151Y-142.57
X65.151Y-145.11
X65.151Y-147.65
X65.151Y-150.19
X67.691Y-132.41
X67.691Y-134.95
X67.691Y-137.49
X67.691Y-140.03
X67.691Y-142.57
X67.691Y-145.11
X67.691Y-147.65
X67.691Y-150.19
X101.56Y-136.19
X101.56Y-138.69
X101.56Y-141.19
T5
X102.31Y-95.44
X106.31Y-51.94
X106.31Y-95.44
X87.31Y-95.44
X91.31Y-51.94
X91.31Y-95.44
X73.31Y-95.44
X77.31Y-51.94
X77.31Y-95.44
X116.31Y-95.44
X120.31Y-51.94
X120.31Y-95.44
T6
X80.552Y-152.791
X82.852Y-154.291
X87.302Y-154.291
X89.452Y-152.791
X105.444Y-152.791
X107.744Y-154.291
X112.194Y-154.291
X114.344Y-152.791
T0
M30
