G04 #@! TF.GenerationSoftware,KiCad,Pcbnew,(5.0.2-5-10.14)*
G04 #@! TF.CreationDate,2019-06-16T13:43:50-04:00*
G04 #@! TF.ProjectId,sequencer,73657175-656e-4636-9572-2e6b69636164,rev?*
G04 #@! TF.SameCoordinates,Original*
G04 #@! TF.FileFunction,Legend,Bot*
G04 #@! TF.FilePolarity,Positive*
%FSLAX46Y46*%
G04 Gerber Fmt 4.6, Leading zero omitted, Abs format (unit mm)*
G04 Created by KiCad (PCBNEW (5.0.2-5-10.14)) date Sunday, June 16, 2019 at 01:43:50 PM*
%MOMM*%
%LPD*%
G01*
G04 APERTURE LIST*
%ADD10C,0.300000*%
%ADD11C,0.120000*%
%ADD12C,0.150000*%
G04 APERTURE END LIST*
D10*
X127611485Y-122740742D02*
X127397200Y-122812171D01*
X127040057Y-122812171D01*
X126897200Y-122740742D01*
X126825771Y-122669314D01*
X126754342Y-122526457D01*
X126754342Y-122383600D01*
X126825771Y-122240742D01*
X126897200Y-122169314D01*
X127040057Y-122097885D01*
X127325771Y-122026457D01*
X127468628Y-121955028D01*
X127540057Y-121883600D01*
X127611485Y-121740742D01*
X127611485Y-121597885D01*
X127540057Y-121455028D01*
X127468628Y-121383600D01*
X127325771Y-121312171D01*
X126968628Y-121312171D01*
X126754342Y-121383600D01*
X126325771Y-121312171D02*
X125468628Y-121312171D01*
X125897200Y-122812171D02*
X125897200Y-121312171D01*
X124111485Y-122812171D02*
X124611485Y-122097885D01*
X124968628Y-122812171D02*
X124968628Y-121312171D01*
X124397200Y-121312171D01*
X124254342Y-121383600D01*
X124182914Y-121455028D01*
X124111485Y-121597885D01*
X124111485Y-121812171D01*
X124182914Y-121955028D01*
X124254342Y-122026457D01*
X124397200Y-122097885D01*
X124968628Y-122097885D01*
X122397200Y-122740742D02*
X122182914Y-122812171D01*
X121825771Y-122812171D01*
X121682914Y-122740742D01*
X121611485Y-122669314D01*
X121540057Y-122526457D01*
X121540057Y-122383600D01*
X121611485Y-122240742D01*
X121682914Y-122169314D01*
X121825771Y-122097885D01*
X122111485Y-122026457D01*
X122254342Y-121955028D01*
X122325771Y-121883600D01*
X122397200Y-121740742D01*
X122397200Y-121597885D01*
X122325771Y-121455028D01*
X122254342Y-121383600D01*
X122111485Y-121312171D01*
X121754342Y-121312171D01*
X121540057Y-121383600D01*
X120325771Y-122740742D02*
X120468628Y-122812171D01*
X120754342Y-122812171D01*
X120897200Y-122740742D01*
X120968628Y-122597885D01*
X120968628Y-122026457D01*
X120897200Y-121883600D01*
X120754342Y-121812171D01*
X120468628Y-121812171D01*
X120325771Y-121883600D01*
X120254342Y-122026457D01*
X120254342Y-122169314D01*
X120968628Y-122312171D01*
X118968628Y-121812171D02*
X118968628Y-123312171D01*
X118968628Y-122740742D02*
X119111485Y-122812171D01*
X119397200Y-122812171D01*
X119540057Y-122740742D01*
X119611485Y-122669314D01*
X119682914Y-122526457D01*
X119682914Y-122097885D01*
X119611485Y-121955028D01*
X119540057Y-121883600D01*
X119397200Y-121812171D01*
X119111485Y-121812171D01*
X118968628Y-121883600D01*
X117611485Y-121812171D02*
X117611485Y-122812171D01*
X118254342Y-121812171D02*
X118254342Y-122597885D01*
X118182914Y-122740742D01*
X118040057Y-122812171D01*
X117825771Y-122812171D01*
X117682914Y-122740742D01*
X117611485Y-122669314D01*
X116325771Y-122740742D02*
X116468628Y-122812171D01*
X116754342Y-122812171D01*
X116897200Y-122740742D01*
X116968628Y-122597885D01*
X116968628Y-122026457D01*
X116897200Y-121883600D01*
X116754342Y-121812171D01*
X116468628Y-121812171D01*
X116325771Y-121883600D01*
X116254342Y-122026457D01*
X116254342Y-122169314D01*
X116968628Y-122312171D01*
X115611485Y-121812171D02*
X115611485Y-122812171D01*
X115611485Y-121955028D02*
X115540057Y-121883600D01*
X115397200Y-121812171D01*
X115182914Y-121812171D01*
X115040057Y-121883600D01*
X114968628Y-122026457D01*
X114968628Y-122812171D01*
X113611485Y-122740742D02*
X113754342Y-122812171D01*
X114040057Y-122812171D01*
X114182914Y-122740742D01*
X114254342Y-122669314D01*
X114325771Y-122526457D01*
X114325771Y-122097885D01*
X114254342Y-121955028D01*
X114182914Y-121883600D01*
X114040057Y-121812171D01*
X113754342Y-121812171D01*
X113611485Y-121883600D01*
X112397200Y-122740742D02*
X112540057Y-122812171D01*
X112825771Y-122812171D01*
X112968628Y-122740742D01*
X113040057Y-122597885D01*
X113040057Y-122026457D01*
X112968628Y-121883600D01*
X112825771Y-121812171D01*
X112540057Y-121812171D01*
X112397200Y-121883600D01*
X112325771Y-122026457D01*
X112325771Y-122169314D01*
X113040057Y-122312171D01*
X111682914Y-122812171D02*
X111682914Y-121812171D01*
X111682914Y-122097885D02*
X111611485Y-121955028D01*
X111540057Y-121883600D01*
X111397200Y-121812171D01*
X111254342Y-121812171D01*
X127611485Y-125290742D02*
X127397200Y-125362171D01*
X127040057Y-125362171D01*
X126897200Y-125290742D01*
X126825771Y-125219314D01*
X126754342Y-125076457D01*
X126754342Y-124933600D01*
X126825771Y-124790742D01*
X126897200Y-124719314D01*
X127040057Y-124647885D01*
X127325771Y-124576457D01*
X127468628Y-124505028D01*
X127540057Y-124433600D01*
X127611485Y-124290742D01*
X127611485Y-124147885D01*
X127540057Y-124005028D01*
X127468628Y-123933600D01*
X127325771Y-123862171D01*
X126968628Y-123862171D01*
X126754342Y-123933600D01*
X126325771Y-124362171D02*
X125754342Y-124362171D01*
X126111485Y-123862171D02*
X126111485Y-125147885D01*
X126040057Y-125290742D01*
X125897200Y-125362171D01*
X125754342Y-125362171D01*
X124682914Y-125290742D02*
X124825771Y-125362171D01*
X125111485Y-125362171D01*
X125254342Y-125290742D01*
X125325771Y-125147885D01*
X125325771Y-124576457D01*
X125254342Y-124433600D01*
X125111485Y-124362171D01*
X124825771Y-124362171D01*
X124682914Y-124433600D01*
X124611485Y-124576457D01*
X124611485Y-124719314D01*
X125325771Y-124862171D01*
X123968628Y-124362171D02*
X123968628Y-125862171D01*
X123968628Y-124433600D02*
X123825771Y-124362171D01*
X123540057Y-124362171D01*
X123397200Y-124433600D01*
X123325771Y-124505028D01*
X123254342Y-124647885D01*
X123254342Y-125076457D01*
X123325771Y-125219314D01*
X123397200Y-125290742D01*
X123540057Y-125362171D01*
X123825771Y-125362171D01*
X123968628Y-125290742D01*
X122611485Y-125362171D02*
X122611485Y-123862171D01*
X121968628Y-125362171D02*
X121968628Y-124576457D01*
X122040057Y-124433600D01*
X122182914Y-124362171D01*
X122397200Y-124362171D01*
X122540057Y-124433600D01*
X122611485Y-124505028D01*
X120682914Y-125290742D02*
X120825771Y-125362171D01*
X121111485Y-125362171D01*
X121254342Y-125290742D01*
X121325771Y-125147885D01*
X121325771Y-124576457D01*
X121254342Y-124433600D01*
X121111485Y-124362171D01*
X120825771Y-124362171D01*
X120682914Y-124433600D01*
X120611485Y-124576457D01*
X120611485Y-124719314D01*
X121325771Y-124862171D01*
X119968628Y-124362171D02*
X119968628Y-125362171D01*
X119968628Y-124505028D02*
X119897200Y-124433600D01*
X119754342Y-124362171D01*
X119540057Y-124362171D01*
X119397200Y-124433600D01*
X119325771Y-124576457D01*
X119325771Y-125362171D01*
X117468628Y-125362171D02*
X117468628Y-123862171D01*
X117468628Y-124576457D02*
X116611485Y-124576457D01*
X116611485Y-125362171D02*
X116611485Y-123862171D01*
X115254342Y-125362171D02*
X115254342Y-124576457D01*
X115325771Y-124433600D01*
X115468628Y-124362171D01*
X115754342Y-124362171D01*
X115897200Y-124433600D01*
X115254342Y-125290742D02*
X115397200Y-125362171D01*
X115754342Y-125362171D01*
X115897200Y-125290742D01*
X115968628Y-125147885D01*
X115968628Y-125005028D01*
X115897200Y-124862171D01*
X115754342Y-124790742D01*
X115397200Y-124790742D01*
X115254342Y-124719314D01*
X114682914Y-124362171D02*
X114397200Y-125362171D01*
X114111485Y-124647885D01*
X113825771Y-125362171D01*
X113540057Y-124362171D01*
X112397200Y-125290742D02*
X112540057Y-125362171D01*
X112825771Y-125362171D01*
X112968628Y-125290742D01*
X113040057Y-125147885D01*
X113040057Y-124576457D01*
X112968628Y-124433600D01*
X112825771Y-124362171D01*
X112540057Y-124362171D01*
X112397200Y-124433600D01*
X112325771Y-124576457D01*
X112325771Y-124719314D01*
X113040057Y-124862171D01*
X111754342Y-125290742D02*
X111611485Y-125362171D01*
X111325771Y-125362171D01*
X111182914Y-125290742D01*
X111111485Y-125147885D01*
X111111485Y-125076457D01*
X111182914Y-124933600D01*
X111325771Y-124862171D01*
X111540057Y-124862171D01*
X111682914Y-124790742D01*
X111754342Y-124647885D01*
X111754342Y-124576457D01*
X111682914Y-124433600D01*
X111540057Y-124362171D01*
X111325771Y-124362171D01*
X111182914Y-124433600D01*
X126682914Y-127912171D02*
X127182914Y-127197885D01*
X127540057Y-127912171D02*
X127540057Y-126412171D01*
X126968628Y-126412171D01*
X126825771Y-126483600D01*
X126754342Y-126555028D01*
X126682914Y-126697885D01*
X126682914Y-126912171D01*
X126754342Y-127055028D01*
X126825771Y-127126457D01*
X126968628Y-127197885D01*
X127540057Y-127197885D01*
X126040057Y-127126457D02*
X125540057Y-127126457D01*
X125325771Y-127912171D02*
X126040057Y-127912171D01*
X126040057Y-126412171D01*
X125325771Y-126412171D01*
X124897200Y-126412171D02*
X124397200Y-127912171D01*
X123897200Y-126412171D01*
X123111485Y-126412171D02*
X122968628Y-126412171D01*
X122825771Y-126483600D01*
X122754342Y-126555028D01*
X122682914Y-126697885D01*
X122611485Y-126983600D01*
X122611485Y-127340742D01*
X122682914Y-127626457D01*
X122754342Y-127769314D01*
X122825771Y-127840742D01*
X122968628Y-127912171D01*
X123111485Y-127912171D01*
X123254342Y-127840742D01*
X123325771Y-127769314D01*
X123397200Y-127626457D01*
X123468628Y-127340742D01*
X123468628Y-126983600D01*
X123397200Y-126697885D01*
X123325771Y-126555028D01*
X123254342Y-126483600D01*
X123111485Y-126412171D01*
X121682914Y-126412171D02*
X121540057Y-126412171D01*
X121397200Y-126483600D01*
X121325771Y-126555028D01*
X121254342Y-126697885D01*
X121182914Y-126983600D01*
X121182914Y-127340742D01*
X121254342Y-127626457D01*
X121325771Y-127769314D01*
X121397200Y-127840742D01*
X121540057Y-127912171D01*
X121682914Y-127912171D01*
X121825771Y-127840742D01*
X121897200Y-127769314D01*
X121968628Y-127626457D01*
X122040057Y-127340742D01*
X122040057Y-126983600D01*
X121968628Y-126697885D01*
X121897200Y-126555028D01*
X121825771Y-126483600D01*
X121682914Y-126412171D01*
X120254342Y-126412171D02*
X120111485Y-126412171D01*
X119968628Y-126483600D01*
X119897200Y-126555028D01*
X119825771Y-126697885D01*
X119754342Y-126983600D01*
X119754342Y-127340742D01*
X119825771Y-127626457D01*
X119897200Y-127769314D01*
X119968628Y-127840742D01*
X120111485Y-127912171D01*
X120254342Y-127912171D01*
X120397200Y-127840742D01*
X120468628Y-127769314D01*
X120540057Y-127626457D01*
X120611485Y-127340742D01*
X120611485Y-126983600D01*
X120540057Y-126697885D01*
X120468628Y-126555028D01*
X120397200Y-126483600D01*
X120254342Y-126412171D01*
X127111485Y-128962171D02*
X127111485Y-130033600D01*
X127182914Y-130247885D01*
X127325771Y-130390742D01*
X127540057Y-130462171D01*
X127682914Y-130462171D01*
X126397200Y-128962171D02*
X126397200Y-130176457D01*
X126325771Y-130319314D01*
X126254342Y-130390742D01*
X126111485Y-130462171D01*
X125825771Y-130462171D01*
X125682914Y-130390742D01*
X125611485Y-130319314D01*
X125540057Y-130176457D01*
X125540057Y-128962171D01*
X124825771Y-130462171D02*
X124825771Y-128962171D01*
X123968628Y-130462171D01*
X123968628Y-128962171D01*
X123254342Y-129890742D02*
X122111485Y-129890742D01*
X120611485Y-130462171D02*
X121468628Y-130462171D01*
X121040057Y-130462171D02*
X121040057Y-128962171D01*
X121182914Y-129176457D01*
X121325771Y-129319314D01*
X121468628Y-129390742D01*
X119897200Y-130462171D02*
X119611485Y-130462171D01*
X119468628Y-130390742D01*
X119397200Y-130319314D01*
X119254342Y-130105028D01*
X119182914Y-129819314D01*
X119182914Y-129247885D01*
X119254342Y-129105028D01*
X119325771Y-129033600D01*
X119468628Y-128962171D01*
X119754342Y-128962171D01*
X119897200Y-129033600D01*
X119968628Y-129105028D01*
X120040057Y-129247885D01*
X120040057Y-129605028D01*
X119968628Y-129747885D01*
X119897200Y-129819314D01*
X119754342Y-129890742D01*
X119468628Y-129890742D01*
X119325771Y-129819314D01*
X119254342Y-129747885D01*
X119182914Y-129605028D01*
D11*
G04 #@! TO.C,J3*
X63821000Y-151520200D02*
X66421000Y-151520200D01*
X63821000Y-151520200D02*
X63821000Y-131080200D01*
X63821000Y-131080200D02*
X69021000Y-131080200D01*
X69021000Y-148920200D02*
X69021000Y-131080200D01*
X66421000Y-148920200D02*
X69021000Y-148920200D01*
X66421000Y-151520200D02*
X66421000Y-148920200D01*
X69021000Y-151520200D02*
X69021000Y-150190200D01*
X67691000Y-151520200D02*
X69021000Y-151520200D01*
D12*
X66754333Y-152412580D02*
X66754333Y-153126866D01*
X66801952Y-153269723D01*
X66897190Y-153364961D01*
X67040047Y-153412580D01*
X67135285Y-153412580D01*
X66373380Y-152412580D02*
X65754333Y-152412580D01*
X66087666Y-152793533D01*
X65944809Y-152793533D01*
X65849571Y-152841152D01*
X65801952Y-152888771D01*
X65754333Y-152984009D01*
X65754333Y-153222104D01*
X65801952Y-153317342D01*
X65849571Y-153364961D01*
X65944809Y-153412580D01*
X66230523Y-153412580D01*
X66325761Y-153364961D01*
X66373380Y-153317342D01*
G04 #@! TD*
M02*
