G04 #@! TF.GenerationSoftware,KiCad,Pcbnew,(5.0.2-5-10.14)*
G04 #@! TF.CreationDate,2019-06-16T13:43:50-04:00*
G04 #@! TF.ProjectId,sequencer,73657175-656e-4636-9572-2e6b69636164,rev?*
G04 #@! TF.SameCoordinates,Original*
G04 #@! TF.FileFunction,Legend,Top*
G04 #@! TF.FilePolarity,Positive*
%FSLAX46Y46*%
G04 Gerber Fmt 4.6, Leading zero omitted, Abs format (unit mm)*
G04 Created by KiCad (PCBNEW (5.0.2-5-10.14)) date Sunday, June 16, 2019 at 01:43:50 PM*
%MOMM*%
%LPD*%
G01*
G04 APERTURE LIST*
%ADD10C,0.120000*%
%ADD11C,0.150000*%
G04 APERTURE END LIST*
D10*
G04 #@! TO.C,C1*
X72950000Y-140928948D02*
X72950000Y-141451452D01*
X74370000Y-140928948D02*
X74370000Y-141451452D01*
G04 #@! TO.C,C2*
X87849600Y-121951452D02*
X87849600Y-121428948D01*
X89269600Y-121951452D02*
X89269600Y-121428948D01*
G04 #@! TO.C,C3*
X75849600Y-121951452D02*
X75849600Y-121428948D01*
X77269600Y-121951452D02*
X77269600Y-121428948D01*
G04 #@! TO.C,C4*
X94349600Y-155928948D02*
X94349600Y-156451452D01*
X95769600Y-155928948D02*
X95769600Y-156451452D01*
G04 #@! TO.C,C5*
X120519600Y-156451452D02*
X120519600Y-155928948D01*
X119099600Y-156451452D02*
X119099600Y-155928948D01*
G04 #@! TO.C,D7*
X72769600Y-111645200D02*
X72769600Y-114735200D01*
X77829600Y-113190200D02*
G75*
G03X77829600Y-113190200I-2500000J0D01*
G01*
X78319600Y-113189738D02*
G75*
G02X72769600Y-114735030I-2990000J-462D01*
G01*
X78319600Y-113190662D02*
G75*
G03X72769600Y-111645370I-2990000J462D01*
G01*
G04 #@! TO.C,D8*
X92319600Y-113190662D02*
G75*
G03X86769600Y-111645370I-2990000J462D01*
G01*
X92319600Y-113189738D02*
G75*
G02X86769600Y-114735030I-2990000J-462D01*
G01*
X91829600Y-113190200D02*
G75*
G03X91829600Y-113190200I-2500000J0D01*
G01*
X86769600Y-111645200D02*
X86769600Y-114735200D01*
G04 #@! TO.C,D9*
X107069600Y-113190662D02*
G75*
G03X101519600Y-111645370I-2990000J462D01*
G01*
X107069600Y-113189738D02*
G75*
G02X101519600Y-114735030I-2990000J-462D01*
G01*
X106579600Y-113190200D02*
G75*
G03X106579600Y-113190200I-2500000J0D01*
G01*
X101519600Y-111645200D02*
X101519600Y-114735200D01*
G04 #@! TO.C,D10*
X115519600Y-111645200D02*
X115519600Y-114735200D01*
X120579600Y-113190200D02*
G75*
G03X120579600Y-113190200I-2500000J0D01*
G01*
X121069600Y-113189738D02*
G75*
G02X115519600Y-114735030I-2990000J-462D01*
G01*
X121069600Y-113190662D02*
G75*
G03X115519600Y-111645370I-2990000J462D01*
G01*
G04 #@! TO.C,P1*
X70559600Y-96190200D02*
X80059600Y-96190200D01*
X80059600Y-96190200D02*
X80059600Y-51190200D01*
X80059600Y-51190200D02*
X70559600Y-51190200D01*
X70559600Y-51190200D02*
X70559600Y-96190200D01*
G04 #@! TO.C,P2*
X84559600Y-96190200D02*
X94059600Y-96190200D01*
X94059600Y-96190200D02*
X94059600Y-51190200D01*
X94059600Y-51190200D02*
X84559600Y-51190200D01*
X84559600Y-51190200D02*
X84559600Y-96190200D01*
G04 #@! TO.C,P3*
X99559600Y-51190200D02*
X99559600Y-96190200D01*
X109059600Y-51190200D02*
X99559600Y-51190200D01*
X109059600Y-96190200D02*
X109059600Y-51190200D01*
X99559600Y-96190200D02*
X109059600Y-96190200D01*
G04 #@! TO.C,P4*
X113559600Y-51190200D02*
X113559600Y-96190200D01*
X123059600Y-51190200D02*
X113559600Y-51190200D01*
X123059600Y-96190200D02*
X123059600Y-51190200D01*
X113559600Y-96190200D02*
X123059600Y-96190200D01*
G04 #@! TO.C,R1*
X92519600Y-126928948D02*
X92519600Y-127451452D01*
X91099600Y-126928948D02*
X91099600Y-127451452D01*
G04 #@! TO.C,R2*
X89269600Y-127451452D02*
X89269600Y-126928948D01*
X87849600Y-127451452D02*
X87849600Y-126928948D01*
G04 #@! TO.C,R3*
X77269600Y-127451452D02*
X77269600Y-126928948D01*
X75849600Y-127451452D02*
X75849600Y-126928948D01*
G04 #@! TO.C,R8*
X119099600Y-152201452D02*
X119099600Y-151678948D01*
X120519600Y-152201452D02*
X120519600Y-151678948D01*
G04 #@! TO.C,R9*
X80519600Y-112928948D02*
X80519600Y-113451452D01*
X79099600Y-112928948D02*
X79099600Y-113451452D01*
G04 #@! TO.C,R10*
X94519600Y-112928948D02*
X94519600Y-113451452D01*
X93099600Y-112928948D02*
X93099600Y-113451452D01*
G04 #@! TO.C,R11*
X107849600Y-112928948D02*
X107849600Y-113451452D01*
X109269600Y-112928948D02*
X109269600Y-113451452D01*
G04 #@! TO.C,R12*
X121849600Y-112928948D02*
X121849600Y-113451452D01*
X123269600Y-112928948D02*
X123269600Y-113451452D01*
G04 #@! TO.C,RV1*
X90929600Y-143660200D02*
X87064600Y-143660200D01*
X82554600Y-143660200D02*
X78689600Y-143660200D01*
X90929600Y-133720200D02*
X87064600Y-133720200D01*
X82554600Y-133720200D02*
X78689600Y-133720200D01*
X90929600Y-143660200D02*
X90929600Y-142061200D01*
X90929600Y-140319200D02*
X90929600Y-139560200D01*
X90929600Y-137819200D02*
X90929600Y-137060200D01*
X90929600Y-135320200D02*
X90929600Y-133720200D01*
X78689600Y-143660200D02*
X78689600Y-133720200D01*
G04 #@! TO.C,RV2*
X114679600Y-133720200D02*
X114679600Y-143660200D01*
X102439600Y-142060200D02*
X102439600Y-143660200D01*
X102439600Y-139561200D02*
X102439600Y-140320200D01*
X102439600Y-137061200D02*
X102439600Y-137820200D01*
X102439600Y-133720200D02*
X102439600Y-135319200D01*
X110814600Y-143660200D02*
X114679600Y-143660200D01*
X102439600Y-143660200D02*
X106304600Y-143660200D01*
X110814600Y-133720200D02*
X114679600Y-133720200D01*
X102439600Y-133720200D02*
X106304600Y-133720200D01*
D11*
G04 #@! TO.C,U1*
X84634600Y-128890200D02*
X84634600Y-128865200D01*
X80484600Y-128890200D02*
X80484600Y-128775200D01*
X80484600Y-119990200D02*
X80484600Y-120105200D01*
X84634600Y-119990200D02*
X84634600Y-120105200D01*
X84634600Y-128890200D02*
X80484600Y-128890200D01*
X84634600Y-119990200D02*
X80484600Y-119990200D01*
X84634600Y-128865200D02*
X86009600Y-128865200D01*
G04 #@! TO.C,U2*
X115134600Y-122365200D02*
X115109600Y-122365200D01*
X115134600Y-126515200D02*
X115029600Y-126515200D01*
X104984600Y-126515200D02*
X105089600Y-126515200D01*
X104984600Y-122365200D02*
X105089600Y-122365200D01*
X115134600Y-122365200D02*
X115134600Y-126515200D01*
X104984600Y-122365200D02*
X104984600Y-126515200D01*
X115109600Y-122365200D02*
X115109600Y-120990200D01*
D10*
G04 #@! TO.C,B1*
X70309600Y-100690200D02*
X70309600Y-108190200D01*
X70309600Y-108190200D02*
X80309600Y-108190200D01*
X80309600Y-108190200D02*
X80309600Y-98190200D01*
X80309600Y-98190200D02*
X70309600Y-98190200D01*
X70309600Y-98190200D02*
X70309600Y-100690200D01*
X77309600Y-100690200D02*
X73309600Y-100690200D01*
X77309600Y-105690200D02*
X73309600Y-105690200D01*
G04 #@! TO.C,B2*
X84309600Y-100690200D02*
X84309600Y-108190200D01*
X84309600Y-108190200D02*
X94309600Y-108190200D01*
X94309600Y-108190200D02*
X94309600Y-98190200D01*
X94309600Y-98190200D02*
X84309600Y-98190200D01*
X84309600Y-98190200D02*
X84309600Y-100690200D01*
X91309600Y-100690200D02*
X87309600Y-100690200D01*
X91309600Y-105690200D02*
X87309600Y-105690200D01*
G04 #@! TO.C,B3*
X106059600Y-105690200D02*
X102059600Y-105690200D01*
X106059600Y-100690200D02*
X102059600Y-100690200D01*
X99059600Y-98190200D02*
X99059600Y-100690200D01*
X109059600Y-98190200D02*
X99059600Y-98190200D01*
X109059600Y-108190200D02*
X109059600Y-98190200D01*
X99059600Y-108190200D02*
X109059600Y-108190200D01*
X99059600Y-100690200D02*
X99059600Y-108190200D01*
G04 #@! TO.C,B4*
X120059600Y-105690200D02*
X116059600Y-105690200D01*
X120059600Y-100690200D02*
X116059600Y-100690200D01*
X113059600Y-98190200D02*
X113059600Y-100690200D01*
X123059600Y-98190200D02*
X113059600Y-98190200D01*
X123059600Y-108190200D02*
X123059600Y-98190200D01*
X113059600Y-108190200D02*
X123059600Y-108190200D01*
X113059600Y-100690200D02*
X113059600Y-108190200D01*
G04 #@! TO.C,D1*
X94523000Y-153169000D02*
X95723000Y-153169000D01*
X94523000Y-151319000D02*
X94523000Y-153169000D01*
X95723000Y-151319000D02*
X95723000Y-153169000D01*
G04 #@! TO.C,D2*
X120488000Y-147509000D02*
X120488000Y-149359000D01*
X119288000Y-147509000D02*
X119288000Y-149359000D01*
X119288000Y-149359000D02*
X120488000Y-149359000D01*
G04 #@! TO.C,D3*
X68959600Y-114340200D02*
X70159600Y-114340200D01*
X68959600Y-112490200D02*
X68959600Y-114340200D01*
X70159600Y-112490200D02*
X70159600Y-114340200D01*
G04 #@! TO.C,D4*
X82959600Y-114340200D02*
X84159600Y-114340200D01*
X82959600Y-112490200D02*
X82959600Y-114340200D01*
X84159600Y-112490200D02*
X84159600Y-114340200D01*
G04 #@! TO.C,D5*
X98909600Y-112490200D02*
X98909600Y-114340200D01*
X97709600Y-112490200D02*
X97709600Y-114340200D01*
X97709600Y-114340200D02*
X98909600Y-114340200D01*
G04 #@! TO.C,D6*
X112909600Y-112490200D02*
X112909600Y-114340200D01*
X111709600Y-112490200D02*
X111709600Y-114340200D01*
X111709600Y-114340200D02*
X112909600Y-114340200D01*
D11*
G04 #@! TO.C,J1*
X86992000Y-153641000D02*
G75*
G03X86992000Y-153641000I-2700000J0D01*
G01*
X91292000Y-156841000D02*
X91292000Y-148741000D01*
X78992000Y-156841000D02*
X91292000Y-156841000D01*
X78992000Y-148741000D02*
X78992000Y-156841000D01*
X91292000Y-148741000D02*
X78992000Y-148741000D01*
G04 #@! TO.C,J2*
X116184000Y-148741000D02*
X103884000Y-148741000D01*
X103884000Y-148741000D02*
X103884000Y-156841000D01*
X103884000Y-156841000D02*
X116184000Y-156841000D01*
X116184000Y-156841000D02*
X116184000Y-148741000D01*
X111884000Y-153641000D02*
G75*
G03X111884000Y-153641000I-2700000J0D01*
G01*
G04 #@! TO.C,C1*
X75667142Y-141356866D02*
X75714761Y-141404485D01*
X75762380Y-141547342D01*
X75762380Y-141642580D01*
X75714761Y-141785438D01*
X75619523Y-141880676D01*
X75524285Y-141928295D01*
X75333809Y-141975914D01*
X75190952Y-141975914D01*
X75000476Y-141928295D01*
X74905238Y-141880676D01*
X74810000Y-141785438D01*
X74762380Y-141642580D01*
X74762380Y-141547342D01*
X74810000Y-141404485D01*
X74857619Y-141356866D01*
X75762380Y-140404485D02*
X75762380Y-140975914D01*
X75762380Y-140690200D02*
X74762380Y-140690200D01*
X74905238Y-140785438D01*
X75000476Y-140880676D01*
X75048095Y-140975914D01*
G04 #@! TO.C,C2*
X87266742Y-121856866D02*
X87314361Y-121904485D01*
X87361980Y-122047342D01*
X87361980Y-122142580D01*
X87314361Y-122285438D01*
X87219123Y-122380676D01*
X87123885Y-122428295D01*
X86933409Y-122475914D01*
X86790552Y-122475914D01*
X86600076Y-122428295D01*
X86504838Y-122380676D01*
X86409600Y-122285438D01*
X86361980Y-122142580D01*
X86361980Y-122047342D01*
X86409600Y-121904485D01*
X86457219Y-121856866D01*
X86457219Y-121475914D02*
X86409600Y-121428295D01*
X86361980Y-121333057D01*
X86361980Y-121094961D01*
X86409600Y-120999723D01*
X86457219Y-120952104D01*
X86552457Y-120904485D01*
X86647695Y-120904485D01*
X86790552Y-120952104D01*
X87361980Y-121523533D01*
X87361980Y-120904485D01*
G04 #@! TO.C,C3*
X75266742Y-121856866D02*
X75314361Y-121904485D01*
X75361980Y-122047342D01*
X75361980Y-122142580D01*
X75314361Y-122285438D01*
X75219123Y-122380676D01*
X75123885Y-122428295D01*
X74933409Y-122475914D01*
X74790552Y-122475914D01*
X74600076Y-122428295D01*
X74504838Y-122380676D01*
X74409600Y-122285438D01*
X74361980Y-122142580D01*
X74361980Y-122047342D01*
X74409600Y-121904485D01*
X74457219Y-121856866D01*
X74361980Y-121523533D02*
X74361980Y-120904485D01*
X74742933Y-121237819D01*
X74742933Y-121094961D01*
X74790552Y-120999723D01*
X74838171Y-120952104D01*
X74933409Y-120904485D01*
X75171504Y-120904485D01*
X75266742Y-120952104D01*
X75314361Y-120999723D01*
X75361980Y-121094961D01*
X75361980Y-121380676D01*
X75314361Y-121475914D01*
X75266742Y-121523533D01*
G04 #@! TO.C,C4*
X97066742Y-156356866D02*
X97114361Y-156404485D01*
X97161980Y-156547342D01*
X97161980Y-156642580D01*
X97114361Y-156785438D01*
X97019123Y-156880676D01*
X96923885Y-156928295D01*
X96733409Y-156975914D01*
X96590552Y-156975914D01*
X96400076Y-156928295D01*
X96304838Y-156880676D01*
X96209600Y-156785438D01*
X96161980Y-156642580D01*
X96161980Y-156547342D01*
X96209600Y-156404485D01*
X96257219Y-156356866D01*
X96495314Y-155499723D02*
X97161980Y-155499723D01*
X96114361Y-155737819D02*
X96828647Y-155975914D01*
X96828647Y-155356866D01*
G04 #@! TO.C,C5*
X118516742Y-156356866D02*
X118564361Y-156404485D01*
X118611980Y-156547342D01*
X118611980Y-156642580D01*
X118564361Y-156785438D01*
X118469123Y-156880676D01*
X118373885Y-156928295D01*
X118183409Y-156975914D01*
X118040552Y-156975914D01*
X117850076Y-156928295D01*
X117754838Y-156880676D01*
X117659600Y-156785438D01*
X117611980Y-156642580D01*
X117611980Y-156547342D01*
X117659600Y-156404485D01*
X117707219Y-156356866D01*
X117611980Y-155452104D02*
X117611980Y-155928295D01*
X118088171Y-155975914D01*
X118040552Y-155928295D01*
X117992933Y-155833057D01*
X117992933Y-155594961D01*
X118040552Y-155499723D01*
X118088171Y-155452104D01*
X118183409Y-155404485D01*
X118421504Y-155404485D01*
X118516742Y-155452104D01*
X118564361Y-155499723D01*
X118611980Y-155594961D01*
X118611980Y-155833057D01*
X118564361Y-155928295D01*
X118516742Y-155975914D01*
G04 #@! TO.C,D7*
X74591504Y-109682580D02*
X74591504Y-108682580D01*
X74829600Y-108682580D01*
X74972457Y-108730200D01*
X75067695Y-108825438D01*
X75115314Y-108920676D01*
X75162933Y-109111152D01*
X75162933Y-109254009D01*
X75115314Y-109444485D01*
X75067695Y-109539723D01*
X74972457Y-109634961D01*
X74829600Y-109682580D01*
X74591504Y-109682580D01*
X75496266Y-108682580D02*
X76162933Y-108682580D01*
X75734361Y-109682580D01*
G04 #@! TO.C,D8*
X88591504Y-109682580D02*
X88591504Y-108682580D01*
X88829600Y-108682580D01*
X88972457Y-108730200D01*
X89067695Y-108825438D01*
X89115314Y-108920676D01*
X89162933Y-109111152D01*
X89162933Y-109254009D01*
X89115314Y-109444485D01*
X89067695Y-109539723D01*
X88972457Y-109634961D01*
X88829600Y-109682580D01*
X88591504Y-109682580D01*
X89734361Y-109111152D02*
X89639123Y-109063533D01*
X89591504Y-109015914D01*
X89543885Y-108920676D01*
X89543885Y-108873057D01*
X89591504Y-108777819D01*
X89639123Y-108730200D01*
X89734361Y-108682580D01*
X89924838Y-108682580D01*
X90020076Y-108730200D01*
X90067695Y-108777819D01*
X90115314Y-108873057D01*
X90115314Y-108920676D01*
X90067695Y-109015914D01*
X90020076Y-109063533D01*
X89924838Y-109111152D01*
X89734361Y-109111152D01*
X89639123Y-109158771D01*
X89591504Y-109206390D01*
X89543885Y-109301628D01*
X89543885Y-109492104D01*
X89591504Y-109587342D01*
X89639123Y-109634961D01*
X89734361Y-109682580D01*
X89924838Y-109682580D01*
X90020076Y-109634961D01*
X90067695Y-109587342D01*
X90115314Y-109492104D01*
X90115314Y-109301628D01*
X90067695Y-109206390D01*
X90020076Y-109158771D01*
X89924838Y-109111152D01*
G04 #@! TO.C,D9*
X103341504Y-109682580D02*
X103341504Y-108682580D01*
X103579600Y-108682580D01*
X103722457Y-108730200D01*
X103817695Y-108825438D01*
X103865314Y-108920676D01*
X103912933Y-109111152D01*
X103912933Y-109254009D01*
X103865314Y-109444485D01*
X103817695Y-109539723D01*
X103722457Y-109634961D01*
X103579600Y-109682580D01*
X103341504Y-109682580D01*
X104389123Y-109682580D02*
X104579600Y-109682580D01*
X104674838Y-109634961D01*
X104722457Y-109587342D01*
X104817695Y-109444485D01*
X104865314Y-109254009D01*
X104865314Y-108873057D01*
X104817695Y-108777819D01*
X104770076Y-108730200D01*
X104674838Y-108682580D01*
X104484361Y-108682580D01*
X104389123Y-108730200D01*
X104341504Y-108777819D01*
X104293885Y-108873057D01*
X104293885Y-109111152D01*
X104341504Y-109206390D01*
X104389123Y-109254009D01*
X104484361Y-109301628D01*
X104674838Y-109301628D01*
X104770076Y-109254009D01*
X104817695Y-109206390D01*
X104865314Y-109111152D01*
G04 #@! TO.C,D10*
X116865314Y-109682580D02*
X116865314Y-108682580D01*
X117103409Y-108682580D01*
X117246266Y-108730200D01*
X117341504Y-108825438D01*
X117389123Y-108920676D01*
X117436742Y-109111152D01*
X117436742Y-109254009D01*
X117389123Y-109444485D01*
X117341504Y-109539723D01*
X117246266Y-109634961D01*
X117103409Y-109682580D01*
X116865314Y-109682580D01*
X118389123Y-109682580D02*
X117817695Y-109682580D01*
X118103409Y-109682580D02*
X118103409Y-108682580D01*
X118008171Y-108825438D01*
X117912933Y-108920676D01*
X117817695Y-108968295D01*
X119008171Y-108682580D02*
X119103409Y-108682580D01*
X119198647Y-108730200D01*
X119246266Y-108777819D01*
X119293885Y-108873057D01*
X119341504Y-109063533D01*
X119341504Y-109301628D01*
X119293885Y-109492104D01*
X119246266Y-109587342D01*
X119198647Y-109634961D01*
X119103409Y-109682580D01*
X119008171Y-109682580D01*
X118912933Y-109634961D01*
X118865314Y-109587342D01*
X118817695Y-109492104D01*
X118770076Y-109301628D01*
X118770076Y-109063533D01*
X118817695Y-108873057D01*
X118865314Y-108777819D01*
X118912933Y-108730200D01*
X119008171Y-108682580D01*
G04 #@! TO.C,P1*
X70821504Y-99642580D02*
X70821504Y-98642580D01*
X71202457Y-98642580D01*
X71297695Y-98690200D01*
X71345314Y-98737819D01*
X71392933Y-98833057D01*
X71392933Y-98975914D01*
X71345314Y-99071152D01*
X71297695Y-99118771D01*
X71202457Y-99166390D01*
X70821504Y-99166390D01*
X72345314Y-99642580D02*
X71773885Y-99642580D01*
X72059600Y-99642580D02*
X72059600Y-98642580D01*
X71964361Y-98785438D01*
X71869123Y-98880676D01*
X71773885Y-98928295D01*
G04 #@! TO.C,P2*
X84821504Y-99642580D02*
X84821504Y-98642580D01*
X85202457Y-98642580D01*
X85297695Y-98690200D01*
X85345314Y-98737819D01*
X85392933Y-98833057D01*
X85392933Y-98975914D01*
X85345314Y-99071152D01*
X85297695Y-99118771D01*
X85202457Y-99166390D01*
X84821504Y-99166390D01*
X85773885Y-98737819D02*
X85821504Y-98690200D01*
X85916742Y-98642580D01*
X86154838Y-98642580D01*
X86250076Y-98690200D01*
X86297695Y-98737819D01*
X86345314Y-98833057D01*
X86345314Y-98928295D01*
X86297695Y-99071152D01*
X85726266Y-99642580D01*
X86345314Y-99642580D01*
G04 #@! TO.C,P3*
X99571504Y-99642580D02*
X99571504Y-98642580D01*
X99952457Y-98642580D01*
X100047695Y-98690200D01*
X100095314Y-98737819D01*
X100142933Y-98833057D01*
X100142933Y-98975914D01*
X100095314Y-99071152D01*
X100047695Y-99118771D01*
X99952457Y-99166390D01*
X99571504Y-99166390D01*
X100476266Y-98642580D02*
X101095314Y-98642580D01*
X100761980Y-99023533D01*
X100904838Y-99023533D01*
X101000076Y-99071152D01*
X101047695Y-99118771D01*
X101095314Y-99214009D01*
X101095314Y-99452104D01*
X101047695Y-99547342D01*
X101000076Y-99594961D01*
X100904838Y-99642580D01*
X100619123Y-99642580D01*
X100523885Y-99594961D01*
X100476266Y-99547342D01*
G04 #@! TO.C,P4*
X113571504Y-99642580D02*
X113571504Y-98642580D01*
X113952457Y-98642580D01*
X114047695Y-98690200D01*
X114095314Y-98737819D01*
X114142933Y-98833057D01*
X114142933Y-98975914D01*
X114095314Y-99071152D01*
X114047695Y-99118771D01*
X113952457Y-99166390D01*
X113571504Y-99166390D01*
X115000076Y-98975914D02*
X115000076Y-99642580D01*
X114761980Y-98594961D02*
X114523885Y-99309247D01*
X115142933Y-99309247D01*
G04 #@! TO.C,R1*
X93911980Y-127356866D02*
X93435790Y-127690200D01*
X93911980Y-127928295D02*
X92911980Y-127928295D01*
X92911980Y-127547342D01*
X92959600Y-127452104D01*
X93007219Y-127404485D01*
X93102457Y-127356866D01*
X93245314Y-127356866D01*
X93340552Y-127404485D01*
X93388171Y-127452104D01*
X93435790Y-127547342D01*
X93435790Y-127928295D01*
X93911980Y-126404485D02*
X93911980Y-126975914D01*
X93911980Y-126690200D02*
X92911980Y-126690200D01*
X93054838Y-126785438D01*
X93150076Y-126880676D01*
X93197695Y-126975914D01*
G04 #@! TO.C,R2*
X87361980Y-127356866D02*
X86885790Y-127690200D01*
X87361980Y-127928295D02*
X86361980Y-127928295D01*
X86361980Y-127547342D01*
X86409600Y-127452104D01*
X86457219Y-127404485D01*
X86552457Y-127356866D01*
X86695314Y-127356866D01*
X86790552Y-127404485D01*
X86838171Y-127452104D01*
X86885790Y-127547342D01*
X86885790Y-127928295D01*
X86457219Y-126975914D02*
X86409600Y-126928295D01*
X86361980Y-126833057D01*
X86361980Y-126594961D01*
X86409600Y-126499723D01*
X86457219Y-126452104D01*
X86552457Y-126404485D01*
X86647695Y-126404485D01*
X86790552Y-126452104D01*
X87361980Y-127023533D01*
X87361980Y-126404485D01*
G04 #@! TO.C,R3*
X75361980Y-127356866D02*
X74885790Y-127690200D01*
X75361980Y-127928295D02*
X74361980Y-127928295D01*
X74361980Y-127547342D01*
X74409600Y-127452104D01*
X74457219Y-127404485D01*
X74552457Y-127356866D01*
X74695314Y-127356866D01*
X74790552Y-127404485D01*
X74838171Y-127452104D01*
X74885790Y-127547342D01*
X74885790Y-127928295D01*
X74361980Y-127023533D02*
X74361980Y-126404485D01*
X74742933Y-126737819D01*
X74742933Y-126594961D01*
X74790552Y-126499723D01*
X74838171Y-126452104D01*
X74933409Y-126404485D01*
X75171504Y-126404485D01*
X75266742Y-126452104D01*
X75314361Y-126499723D01*
X75361980Y-126594961D01*
X75361980Y-126880676D01*
X75314361Y-126975914D01*
X75266742Y-127023533D01*
G04 #@! TO.C,R8*
X118611980Y-152106866D02*
X118135790Y-152440200D01*
X118611980Y-152678295D02*
X117611980Y-152678295D01*
X117611980Y-152297342D01*
X117659600Y-152202104D01*
X117707219Y-152154485D01*
X117802457Y-152106866D01*
X117945314Y-152106866D01*
X118040552Y-152154485D01*
X118088171Y-152202104D01*
X118135790Y-152297342D01*
X118135790Y-152678295D01*
X118040552Y-151535438D02*
X117992933Y-151630676D01*
X117945314Y-151678295D01*
X117850076Y-151725914D01*
X117802457Y-151725914D01*
X117707219Y-151678295D01*
X117659600Y-151630676D01*
X117611980Y-151535438D01*
X117611980Y-151344961D01*
X117659600Y-151249723D01*
X117707219Y-151202104D01*
X117802457Y-151154485D01*
X117850076Y-151154485D01*
X117945314Y-151202104D01*
X117992933Y-151249723D01*
X118040552Y-151344961D01*
X118040552Y-151535438D01*
X118088171Y-151630676D01*
X118135790Y-151678295D01*
X118231028Y-151725914D01*
X118421504Y-151725914D01*
X118516742Y-151678295D01*
X118564361Y-151630676D01*
X118611980Y-151535438D01*
X118611980Y-151344961D01*
X118564361Y-151249723D01*
X118516742Y-151202104D01*
X118421504Y-151154485D01*
X118231028Y-151154485D01*
X118135790Y-151202104D01*
X118088171Y-151249723D01*
X118040552Y-151344961D01*
G04 #@! TO.C,R9*
X79716333Y-111196380D02*
X79383000Y-110720190D01*
X79144904Y-111196380D02*
X79144904Y-110196380D01*
X79525857Y-110196380D01*
X79621095Y-110244000D01*
X79668714Y-110291619D01*
X79716333Y-110386857D01*
X79716333Y-110529714D01*
X79668714Y-110624952D01*
X79621095Y-110672571D01*
X79525857Y-110720190D01*
X79144904Y-110720190D01*
X80192523Y-111196380D02*
X80383000Y-111196380D01*
X80478238Y-111148761D01*
X80525857Y-111101142D01*
X80621095Y-110958285D01*
X80668714Y-110767809D01*
X80668714Y-110386857D01*
X80621095Y-110291619D01*
X80573476Y-110244000D01*
X80478238Y-110196380D01*
X80287761Y-110196380D01*
X80192523Y-110244000D01*
X80144904Y-110291619D01*
X80097285Y-110386857D01*
X80097285Y-110624952D01*
X80144904Y-110720190D01*
X80192523Y-110767809D01*
X80287761Y-110815428D01*
X80478238Y-110815428D01*
X80573476Y-110767809D01*
X80621095Y-110720190D01*
X80668714Y-110624952D01*
G04 #@! TO.C,R10*
X93464142Y-111069380D02*
X93130809Y-110593190D01*
X92892714Y-111069380D02*
X92892714Y-110069380D01*
X93273666Y-110069380D01*
X93368904Y-110117000D01*
X93416523Y-110164619D01*
X93464142Y-110259857D01*
X93464142Y-110402714D01*
X93416523Y-110497952D01*
X93368904Y-110545571D01*
X93273666Y-110593190D01*
X92892714Y-110593190D01*
X94416523Y-111069380D02*
X93845095Y-111069380D01*
X94130809Y-111069380D02*
X94130809Y-110069380D01*
X94035571Y-110212238D01*
X93940333Y-110307476D01*
X93845095Y-110355095D01*
X95035571Y-110069380D02*
X95130809Y-110069380D01*
X95226047Y-110117000D01*
X95273666Y-110164619D01*
X95321285Y-110259857D01*
X95368904Y-110450333D01*
X95368904Y-110688428D01*
X95321285Y-110878904D01*
X95273666Y-110974142D01*
X95226047Y-111021761D01*
X95130809Y-111069380D01*
X95035571Y-111069380D01*
X94940333Y-111021761D01*
X94892714Y-110974142D01*
X94845095Y-110878904D01*
X94797476Y-110688428D01*
X94797476Y-110450333D01*
X94845095Y-110259857D01*
X94892714Y-110164619D01*
X94940333Y-110117000D01*
X95035571Y-110069380D01*
G04 #@! TO.C,R11*
X108196142Y-111069380D02*
X107862809Y-110593190D01*
X107624714Y-111069380D02*
X107624714Y-110069380D01*
X108005666Y-110069380D01*
X108100904Y-110117000D01*
X108148523Y-110164619D01*
X108196142Y-110259857D01*
X108196142Y-110402714D01*
X108148523Y-110497952D01*
X108100904Y-110545571D01*
X108005666Y-110593190D01*
X107624714Y-110593190D01*
X109148523Y-111069380D02*
X108577095Y-111069380D01*
X108862809Y-111069380D02*
X108862809Y-110069380D01*
X108767571Y-110212238D01*
X108672333Y-110307476D01*
X108577095Y-110355095D01*
X110100904Y-111069380D02*
X109529476Y-111069380D01*
X109815190Y-111069380D02*
X109815190Y-110069380D01*
X109719952Y-110212238D01*
X109624714Y-110307476D01*
X109529476Y-110355095D01*
G04 #@! TO.C,R12*
X122293142Y-111069380D02*
X121959809Y-110593190D01*
X121721714Y-111069380D02*
X121721714Y-110069380D01*
X122102666Y-110069380D01*
X122197904Y-110117000D01*
X122245523Y-110164619D01*
X122293142Y-110259857D01*
X122293142Y-110402714D01*
X122245523Y-110497952D01*
X122197904Y-110545571D01*
X122102666Y-110593190D01*
X121721714Y-110593190D01*
X123245523Y-111069380D02*
X122674095Y-111069380D01*
X122959809Y-111069380D02*
X122959809Y-110069380D01*
X122864571Y-110212238D01*
X122769333Y-110307476D01*
X122674095Y-110355095D01*
X123626476Y-110164619D02*
X123674095Y-110117000D01*
X123769333Y-110069380D01*
X124007428Y-110069380D01*
X124102666Y-110117000D01*
X124150285Y-110164619D01*
X124197904Y-110259857D01*
X124197904Y-110355095D01*
X124150285Y-110497952D01*
X123578857Y-111069380D01*
X124197904Y-111069380D01*
G04 #@! TO.C,RV1*
X85164361Y-146792580D02*
X84831028Y-146316390D01*
X84592933Y-146792580D02*
X84592933Y-145792580D01*
X84973885Y-145792580D01*
X85069123Y-145840200D01*
X85116742Y-145887819D01*
X85164361Y-145983057D01*
X85164361Y-146125914D01*
X85116742Y-146221152D01*
X85069123Y-146268771D01*
X84973885Y-146316390D01*
X84592933Y-146316390D01*
X85450076Y-145792580D02*
X85783409Y-146792580D01*
X86116742Y-145792580D01*
X86973885Y-146792580D02*
X86402457Y-146792580D01*
X86688171Y-146792580D02*
X86688171Y-145792580D01*
X86592933Y-145935438D01*
X86497695Y-146030676D01*
X86402457Y-146078295D01*
G04 #@! TO.C,RV2*
X106338761Y-146629380D02*
X106005428Y-146153190D01*
X105767333Y-146629380D02*
X105767333Y-145629380D01*
X106148285Y-145629380D01*
X106243523Y-145677000D01*
X106291142Y-145724619D01*
X106338761Y-145819857D01*
X106338761Y-145962714D01*
X106291142Y-146057952D01*
X106243523Y-146105571D01*
X106148285Y-146153190D01*
X105767333Y-146153190D01*
X106624476Y-145629380D02*
X106957809Y-146629380D01*
X107291142Y-145629380D01*
X107576857Y-145724619D02*
X107624476Y-145677000D01*
X107719714Y-145629380D01*
X107957809Y-145629380D01*
X108053047Y-145677000D01*
X108100666Y-145724619D01*
X108148285Y-145819857D01*
X108148285Y-145915095D01*
X108100666Y-146057952D01*
X107529238Y-146629380D01*
X108148285Y-146629380D01*
G04 #@! TO.C,U1*
X81797695Y-129267580D02*
X81797695Y-130077104D01*
X81845314Y-130172342D01*
X81892933Y-130219961D01*
X81988171Y-130267580D01*
X82178647Y-130267580D01*
X82273885Y-130219961D01*
X82321504Y-130172342D01*
X82369123Y-130077104D01*
X82369123Y-129267580D01*
X83369123Y-130267580D02*
X82797695Y-130267580D01*
X83083409Y-130267580D02*
X83083409Y-129267580D01*
X82988171Y-129410438D01*
X82892933Y-129505676D01*
X82797695Y-129553295D01*
G04 #@! TO.C,U2*
X115511980Y-125202104D02*
X116321504Y-125202104D01*
X116416742Y-125154485D01*
X116464361Y-125106866D01*
X116511980Y-125011628D01*
X116511980Y-124821152D01*
X116464361Y-124725914D01*
X116416742Y-124678295D01*
X116321504Y-124630676D01*
X115511980Y-124630676D01*
X115607219Y-124202104D02*
X115559600Y-124154485D01*
X115511980Y-124059247D01*
X115511980Y-123821152D01*
X115559600Y-123725914D01*
X115607219Y-123678295D01*
X115702457Y-123630676D01*
X115797695Y-123630676D01*
X115940552Y-123678295D01*
X116511980Y-124249723D01*
X116511980Y-123630676D01*
G04 #@! TO.C,B1*
X71404838Y-93368771D02*
X71547695Y-93416390D01*
X71595314Y-93464009D01*
X71642933Y-93559247D01*
X71642933Y-93702104D01*
X71595314Y-93797342D01*
X71547695Y-93844961D01*
X71452457Y-93892580D01*
X71071504Y-93892580D01*
X71071504Y-92892580D01*
X71404838Y-92892580D01*
X71500076Y-92940200D01*
X71547695Y-92987819D01*
X71595314Y-93083057D01*
X71595314Y-93178295D01*
X71547695Y-93273533D01*
X71500076Y-93321152D01*
X71404838Y-93368771D01*
X71071504Y-93368771D01*
X72595314Y-93892580D02*
X72023885Y-93892580D01*
X72309600Y-93892580D02*
X72309600Y-92892580D01*
X72214361Y-93035438D01*
X72119123Y-93130676D01*
X72023885Y-93178295D01*
G04 #@! TO.C,B2*
X85404838Y-93368771D02*
X85547695Y-93416390D01*
X85595314Y-93464009D01*
X85642933Y-93559247D01*
X85642933Y-93702104D01*
X85595314Y-93797342D01*
X85547695Y-93844961D01*
X85452457Y-93892580D01*
X85071504Y-93892580D01*
X85071504Y-92892580D01*
X85404838Y-92892580D01*
X85500076Y-92940200D01*
X85547695Y-92987819D01*
X85595314Y-93083057D01*
X85595314Y-93178295D01*
X85547695Y-93273533D01*
X85500076Y-93321152D01*
X85404838Y-93368771D01*
X85071504Y-93368771D01*
X86023885Y-92987819D02*
X86071504Y-92940200D01*
X86166742Y-92892580D01*
X86404838Y-92892580D01*
X86500076Y-92940200D01*
X86547695Y-92987819D01*
X86595314Y-93083057D01*
X86595314Y-93178295D01*
X86547695Y-93321152D01*
X85976266Y-93892580D01*
X86595314Y-93892580D01*
G04 #@! TO.C,B3*
X100404838Y-93618771D02*
X100547695Y-93666390D01*
X100595314Y-93714009D01*
X100642933Y-93809247D01*
X100642933Y-93952104D01*
X100595314Y-94047342D01*
X100547695Y-94094961D01*
X100452457Y-94142580D01*
X100071504Y-94142580D01*
X100071504Y-93142580D01*
X100404838Y-93142580D01*
X100500076Y-93190200D01*
X100547695Y-93237819D01*
X100595314Y-93333057D01*
X100595314Y-93428295D01*
X100547695Y-93523533D01*
X100500076Y-93571152D01*
X100404838Y-93618771D01*
X100071504Y-93618771D01*
X100976266Y-93142580D02*
X101595314Y-93142580D01*
X101261980Y-93523533D01*
X101404838Y-93523533D01*
X101500076Y-93571152D01*
X101547695Y-93618771D01*
X101595314Y-93714009D01*
X101595314Y-93952104D01*
X101547695Y-94047342D01*
X101500076Y-94094961D01*
X101404838Y-94142580D01*
X101119123Y-94142580D01*
X101023885Y-94094961D01*
X100976266Y-94047342D01*
G04 #@! TO.C,B4*
X114404838Y-93618771D02*
X114547695Y-93666390D01*
X114595314Y-93714009D01*
X114642933Y-93809247D01*
X114642933Y-93952104D01*
X114595314Y-94047342D01*
X114547695Y-94094961D01*
X114452457Y-94142580D01*
X114071504Y-94142580D01*
X114071504Y-93142580D01*
X114404838Y-93142580D01*
X114500076Y-93190200D01*
X114547695Y-93237819D01*
X114595314Y-93333057D01*
X114595314Y-93428295D01*
X114547695Y-93523533D01*
X114500076Y-93571152D01*
X114404838Y-93618771D01*
X114071504Y-93618771D01*
X115500076Y-93475914D02*
X115500076Y-94142580D01*
X115261980Y-93094961D02*
X115023885Y-93809247D01*
X115642933Y-93809247D01*
G04 #@! TO.C,D1*
X94275380Y-152757095D02*
X93275380Y-152757095D01*
X93275380Y-152519000D01*
X93323000Y-152376142D01*
X93418238Y-152280904D01*
X93513476Y-152233285D01*
X93703952Y-152185666D01*
X93846809Y-152185666D01*
X94037285Y-152233285D01*
X94132523Y-152280904D01*
X94227761Y-152376142D01*
X94275380Y-152519000D01*
X94275380Y-152757095D01*
X94275380Y-151233285D02*
X94275380Y-151804714D01*
X94275380Y-151519000D02*
X93275380Y-151519000D01*
X93418238Y-151614238D01*
X93513476Y-151709476D01*
X93561095Y-151804714D01*
G04 #@! TO.C,D2*
X119040380Y-148947095D02*
X118040380Y-148947095D01*
X118040380Y-148709000D01*
X118088000Y-148566142D01*
X118183238Y-148470904D01*
X118278476Y-148423285D01*
X118468952Y-148375666D01*
X118611809Y-148375666D01*
X118802285Y-148423285D01*
X118897523Y-148470904D01*
X118992761Y-148566142D01*
X119040380Y-148709000D01*
X119040380Y-148947095D01*
X118135619Y-147994714D02*
X118088000Y-147947095D01*
X118040380Y-147851857D01*
X118040380Y-147613761D01*
X118088000Y-147518523D01*
X118135619Y-147470904D01*
X118230857Y-147423285D01*
X118326095Y-147423285D01*
X118468952Y-147470904D01*
X119040380Y-148042333D01*
X119040380Y-147423285D01*
G04 #@! TO.C,D3*
X68711980Y-113928295D02*
X67711980Y-113928295D01*
X67711980Y-113690200D01*
X67759600Y-113547342D01*
X67854838Y-113452104D01*
X67950076Y-113404485D01*
X68140552Y-113356866D01*
X68283409Y-113356866D01*
X68473885Y-113404485D01*
X68569123Y-113452104D01*
X68664361Y-113547342D01*
X68711980Y-113690200D01*
X68711980Y-113928295D01*
X67711980Y-113023533D02*
X67711980Y-112404485D01*
X68092933Y-112737819D01*
X68092933Y-112594961D01*
X68140552Y-112499723D01*
X68188171Y-112452104D01*
X68283409Y-112404485D01*
X68521504Y-112404485D01*
X68616742Y-112452104D01*
X68664361Y-112499723D01*
X68711980Y-112594961D01*
X68711980Y-112880676D01*
X68664361Y-112975914D01*
X68616742Y-113023533D01*
G04 #@! TO.C,D4*
X82711980Y-113928295D02*
X81711980Y-113928295D01*
X81711980Y-113690200D01*
X81759600Y-113547342D01*
X81854838Y-113452104D01*
X81950076Y-113404485D01*
X82140552Y-113356866D01*
X82283409Y-113356866D01*
X82473885Y-113404485D01*
X82569123Y-113452104D01*
X82664361Y-113547342D01*
X82711980Y-113690200D01*
X82711980Y-113928295D01*
X82045314Y-112499723D02*
X82711980Y-112499723D01*
X81664361Y-112737819D02*
X82378647Y-112975914D01*
X82378647Y-112356866D01*
G04 #@! TO.C,D5*
X97461980Y-113928295D02*
X96461980Y-113928295D01*
X96461980Y-113690200D01*
X96509600Y-113547342D01*
X96604838Y-113452104D01*
X96700076Y-113404485D01*
X96890552Y-113356866D01*
X97033409Y-113356866D01*
X97223885Y-113404485D01*
X97319123Y-113452104D01*
X97414361Y-113547342D01*
X97461980Y-113690200D01*
X97461980Y-113928295D01*
X96461980Y-112452104D02*
X96461980Y-112928295D01*
X96938171Y-112975914D01*
X96890552Y-112928295D01*
X96842933Y-112833057D01*
X96842933Y-112594961D01*
X96890552Y-112499723D01*
X96938171Y-112452104D01*
X97033409Y-112404485D01*
X97271504Y-112404485D01*
X97366742Y-112452104D01*
X97414361Y-112499723D01*
X97461980Y-112594961D01*
X97461980Y-112833057D01*
X97414361Y-112928295D01*
X97366742Y-112975914D01*
G04 #@! TO.C,D6*
X111461980Y-113928295D02*
X110461980Y-113928295D01*
X110461980Y-113690200D01*
X110509600Y-113547342D01*
X110604838Y-113452104D01*
X110700076Y-113404485D01*
X110890552Y-113356866D01*
X111033409Y-113356866D01*
X111223885Y-113404485D01*
X111319123Y-113452104D01*
X111414361Y-113547342D01*
X111461980Y-113690200D01*
X111461980Y-113928295D01*
X110461980Y-112499723D02*
X110461980Y-112690200D01*
X110509600Y-112785438D01*
X110557219Y-112833057D01*
X110700076Y-112928295D01*
X110890552Y-112975914D01*
X111271504Y-112975914D01*
X111366742Y-112928295D01*
X111414361Y-112880676D01*
X111461980Y-112785438D01*
X111461980Y-112594961D01*
X111414361Y-112499723D01*
X111366742Y-112452104D01*
X111271504Y-112404485D01*
X111033409Y-112404485D01*
X110938171Y-112452104D01*
X110890552Y-112499723D01*
X110842933Y-112594961D01*
X110842933Y-112785438D01*
X110890552Y-112880676D01*
X110938171Y-112928295D01*
X111033409Y-112975914D01*
G04 #@! TO.C,J1*
X84658666Y-149393380D02*
X84658666Y-150107666D01*
X84611047Y-150250523D01*
X84515809Y-150345761D01*
X84372952Y-150393380D01*
X84277714Y-150393380D01*
X85658666Y-150393380D02*
X85087238Y-150393380D01*
X85372952Y-150393380D02*
X85372952Y-149393380D01*
X85277714Y-149536238D01*
X85182476Y-149631476D01*
X85087238Y-149679095D01*
G04 #@! TO.C,J2*
X109550666Y-149393380D02*
X109550666Y-150107666D01*
X109503047Y-150250523D01*
X109407809Y-150345761D01*
X109264952Y-150393380D01*
X109169714Y-150393380D01*
X109979238Y-149488619D02*
X110026857Y-149441000D01*
X110122095Y-149393380D01*
X110360190Y-149393380D01*
X110455428Y-149441000D01*
X110503047Y-149488619D01*
X110550666Y-149583857D01*
X110550666Y-149679095D01*
X110503047Y-149821952D01*
X109931619Y-150393380D01*
X110550666Y-150393380D01*
G04 #@! TD*
M02*
