0
SECTION
2
HEADER
9
$INSUNITS
70
4
9
$ACADVER
1
AC1014
9
$HANDSEED
5
FFFF
0
ENDSEC
0
SECTION
2
TABLES
0
TABLE
2
VPORT
5
8
100
AcDbSymbolTable
0
ENDTAB
0
TABLE
2
LTYPE
5
5
100
AcDbSymbolTable
0
LTYPE
5
14
100
AcDbSymbolTableRecord
100
AcDbLinetypeTableRecord
2
BYBLOCK
70
0
0
LTYPE
5
15
100
AcDbSymbolTableRecord
100
AcDbLinetypeTableRecord
2
BYLAYER
70
0
0
ENDTAB
0
TABLE
2
LAYER
5
2
100
AcDbSymbolTable
70
2
0
LAYER
5
50
100
AcDbSymbolTableRecord
100
AcDbLayerTableRecord
2
0
70
0
6
CONTINUOUS
0
ENDTAB
0
TABLE
2
STYLE
5
3
100
AcDbSymbolTable
70
1
0
STYLE
5
11
100
AcDbSymbolTableRecord
100
AcDbTextStyleTableRecord
2
STANDARD
70
0
0
ENDTAB
0
TABLE
2
VIEW
5
6
100
AcDbSymbolTable
70
0
0
ENDTAB
0
TABLE
2
UCS
5
7
100
AcDbSymbolTable
70
0
0
ENDTAB
0
TABLE
2
APPID
5
9
100
AcDbSymbolTable
70
2
0
APPID
5
12
100
AcDbSymbolTableRecord
100
AcDbRegAppTableRecord
2
ACAD
70
0
0
ENDTAB
0
TABLE
2
DIMSTYLE
5
A
100
AcDbSymbolTable
70
1
0
ENDTAB
0
TABLE
2
BLOCK_RECORD
5
1
100
AcDbSymbolTable
70
1
0
BLOCK_RECORD
5
1F
100
AcDbSymbolTableRecord
100
AcDbBlockTableRecord
2
*MODEL_SPACE
0
BLOCK_RECORD
5
1B
100
AcDbSymbolTableRecord
100
AcDbBlockTableRecord
2
*PAPER_SPACE
0
ENDTAB
0
ENDSEC
0
SECTION
2
BLOCKS
0
BLOCK
5
20
100
AcDbEntity
100
AcDbBlockBegin
2
*MODEL_SPACE
0
ENDBLK
5
21
100
AcDbEntity
100
AcDbBlockEnd
0
BLOCK
5
1C
100
AcDbEntity
100
AcDbBlockBegin
2
*PAPER_SPACE
0
ENDBLK
5
1D
100
AcDbEntity
100
AcDbBlockEnd
0
ENDSEC
0
SECTION
2
ENTITIES
0
LINE
5
100
100
AcDbEntity
8
0
100
AcDbLine
10
0
20
-118.50000000000001
30
0
11
-70.799999999999997
21
-118.50000000000001
31
0
0
LINE
5
101
100
AcDbEntity
8
0
100
AcDbLine
10
0
20
-10
30
0
11
-70.799999999999997
21
-10
31
0
0
LINE
5
102
100
AcDbEntity
8
0
100
AcDbLine
10
-35.399999999999999
20
-118.50000000000001
30
0
11
-35.399999999999999
21
-10
31
0
0
LWPOLYLINE
5
103
100
AcDbEntity
8
0
100
AcDbPolyline
90
4
70
1
43
0.0
10
-29.000000000000004
20
-113.50000000000001
10
-27
20
-113.50000000000001
10
-27
20
-78.500000000000014
10
-29.000000000000004
20
-78.500000000000014
0
LWPOLYLINE
5
104
100
AcDbEntity
8
0
100
AcDbPolyline
90
4
70
1
43
0.0
10
-32.75
20
-118.50000000000001
10
-23.25
20
-118.50000000000001
10
-23.25
20
-73.500000000000014
10
-32.75
20
-73.500000000000014
0
LINE
5
105
100
AcDbEntity
8
0
100
AcDbLine
10
-28.000000000000004
20
-118.50000000000001
30
0
11
-28.000000000000004
21
-73.500000000000014
31
0
0
LWPOLYLINE
5
106
100
AcDbEntity
8
0
100
AcDbPolyline
90
4
70
1
43
0.0
10
-18.750000000000004
20
-73.500000000000014
10
-18.750000000000004
20
-118.50000000000001
10
-9.25
20
-118.50000000000001
10
-9.25
20
-73.500000000000014
0
LWPOLYLINE
5
107
100
AcDbEntity
8
0
100
AcDbPolyline
90
4
70
1
43
0.0
10
-15.000000000000002
20
-113.50000000000001
10
-13
20
-113.50000000000001
10
-13
20
-78.500000000000014
10
-15.000000000000002
20
-78.500000000000014
0
LINE
5
108
100
AcDbEntity
8
0
100
AcDbLine
10
-14.000000000000002
20
-118.50000000000001
30
0
11
-14.000000000000002
21
-73.500000000000014
31
0
0
LINE
5
109
100
AcDbEntity
8
0
100
AcDbLine
10
0
20
-128.5
30
0
11
0
21
0
31
0
0
CIRCLE
5
110
100
AcDbEntity
8
0
100
AcDbCircle
10
-7.5
20
-125.5
30
0
40
1.600000000000007
0
LWPOLYLINE
5
111
100
AcDbEntity
8
0
100
AcDbPolyline
90
4
70
1
43
0.0
10
-54.719999999999999
20
-4.6000000000000076
42
-0.99999999999999989
10
-54.719999999999999
20
-1.4000000000000046
10
-51.720000000000006
20
-1.4000000000000046
42
-0.99999999999999989
10
-51.720000000000006
20
-4.6000000000000076
0
CIRCLE
5
112
100
AcDbEntity
8
0
100
AcDbCircle
10
-7.5
20
-3.0000000000000009
30
0
40
1.6000000000000003
0
LWPOLYLINE
5
113
100
AcDbEntity
8
0
100
AcDbPolyline
90
4
70
1
43
0.0
10
-54.719999999999999
20
-127.10000000000001
42
-0.99999999999999989
10
-54.719999999999999
20
-123.90000000000001
10
-51.720000000000006
20
-123.90000000000001
42
-0.99999999999999989
10
-51.720000000000006
20
-127.10000000000001
0
LWPOLYLINE
5
114
100
AcDbEntity
8
0
100
AcDbPolyline
90
4
70
1
43
0.0
10
0
20
0
10
0
20
-128.5
10
-70.799999999999997
20
-128.5
10
-70.799999999999997
20
0
0
LINE
5
115
100
AcDbEntity
8
0
100
AcDbLine
10
0
20
-118.50000000000001
30
0
11
-70.799999999999997
21
-118.50000000000001
31
0
0
LINE
5
116
100
AcDbEntity
8
0
100
AcDbLine
10
0
20
-118.50000000000001
30
0
11
-70.799999999999997
21
-118.50000000000001
31
0
0
CIRCLE
5
117
100
AcDbEntity
8
0
100
AcDbCircle
10
-14.000000000000002
20
-56.500000000000014
30
0
40
2.5
0
CIRCLE
5
118
100
AcDbEntity
8
0
100
AcDbCircle
10
-28.000000000000004
20
-56.500000000000014
30
0
40
2.5
0
LINE
5
119
100
AcDbEntity
8
0
100
AcDbLine
10
0
20
-56.500000000000014
30
0
11
-70.799999999999997
21
-56.500000000000014
31
0
0
LINE
5
120
100
AcDbEntity
8
0
100
AcDbLine
10
0
20
-66.500000000000014
30
0
11
-70.799999999999997
21
-66.500000000000014
31
0
0
CIRCLE
5
121
100
AcDbEntity
8
0
100
AcDbCircle
10
-14.000000000000002
20
-66.500000000000014
30
0
40
4.5999999999999996
0
CIRCLE
5
122
100
AcDbEntity
8
0
100
AcDbCircle
10
-28.000000000000004
20
-66.500000000000014
30
0
40
4.5999999999999996
0
LINE
5
123
100
AcDbEntity
8
0
100
AcDbLine
10
0
20
-31
30
0
11
-70.799999999999997
21
-31
31
0
0
LINE
5
124
100
AcDbEntity
8
0
100
AcDbLine
10
0
20
-16
30
0
11
-70.799999999999997
21
-16
31
0
0
CIRCLE
5
125
100
AcDbEntity
8
0
100
AcDbCircle
10
-23.000000000000004
20
-31
30
0
40
3.5000000000000004
0
CIRCLE
5
126
100
AcDbEntity
8
0
100
AcDbCircle
10
-23.000000000000004
20
-16
30
0
40
3.25
0
CIRCLE
5
127
100
AcDbEntity
8
0
100
AcDbCircle
10
-3.0000000000000004
20
-13
30
0
40
1.6000000000000003
0
LINE
5
128
100
AcDbEntity
8
0
100
AcDbLine
10
0
20
-10
30
0
11
-70.799999999999997
21
-10
31
0
0
CIRCLE
5
129
100
AcDbEntity
8
0
100
AcDbCircle
10
-3.0000000000000004
20
-115.5
30
0
40
1.5999999999999968
0
LINE
5
130
100
AcDbEntity
8
0
100
AcDbLine
10
0
20
-118.50000000000001
30
0
11
-70.799999999999997
21
-118.50000000000001
31
0
0
CIRCLE
5
131
100
AcDbEntity
8
0
100
AcDbCircle
10
-67.799999999999997
20
-115.5
30
0
40
1.5999999999999968
0
LWPOLYLINE
5
132
100
AcDbEntity
8
0
100
AcDbPolyline
90
4
70
1
43
0.0
10
-61.550000000000004
20
-118.50000000000001
10
-61.550000000000004
20
-73.500000000000014
10
-52.049999999999997
20
-73.500000000000014
10
-52.049999999999997
20
-118.50000000000001
0
LWPOLYLINE
5
133
100
AcDbEntity
8
0
100
AcDbPolyline
90
4
70
1
43
0.0
10
-57.800000000000004
20
-113.50000000000001
10
-57.800000000000004
20
-78.500000000000014
10
-55.799999999999997
20
-78.500000000000014
10
-55.799999999999997
20
-113.50000000000001
0
LWPOLYLINE
5
134
100
AcDbEntity
8
0
100
AcDbPolyline
90
4
70
1
43
0.0
10
-47.549999999999997
20
-118.50000000000001
10
-47.549999999999997
20
-73.500000000000014
10
-38.049999999999997
20
-73.500000000000014
10
-38.049999999999997
20
-118.50000000000001
0
LWPOLYLINE
5
135
100
AcDbEntity
8
0
100
AcDbPolyline
90
4
70
1
43
0.0
10
-41.799999999999997
20
-78.500000000000014
10
-41.799999999999997
20
-113.50000000000001
10
-43.799999999999997
20
-113.50000000000001
10
-43.799999999999997
20
-78.500000000000014
0
CIRCLE
5
136
100
AcDbEntity
8
0
100
AcDbCircle
10
-56.799999999999997
20
-66.500000000000014
30
0
40
4.5999999999999996
0
CIRCLE
5
137
100
AcDbEntity
8
0
100
AcDbCircle
10
-42.799999999999997
20
-66.500000000000014
30
0
40
4.5999999999999996
0
CIRCLE
5
138
100
AcDbEntity
8
0
100
AcDbCircle
10
-56.799999999999997
20
-56.500000000000014
30
0
40
2.5
0
CIRCLE
5
139
100
AcDbEntity
8
0
100
AcDbCircle
10
-42.799999999999997
20
-56.500000000000014
30
0
40
2.5
0
CIRCLE
5
140
100
AcDbEntity
8
0
100
AcDbCircle
10
-47.799999999999997
20
-31
30
0
40
3.5000000000000004
0
CIRCLE
5
141
100
AcDbEntity
8
0
100
AcDbCircle
10
-47.799999999999997
20
-16
30
0
40
3.25
0
CIRCLE
5
142
100
AcDbEntity
8
0
100
AcDbCircle
10
-67.799999999999997
20
-13.000000000000007
30
0
40
1.6000000000000003
0
LINE
5
143
100
AcDbEntity
8
0
100
AcDbLine
10
0
20
-10
30
0
11
-70.799999999999997
21
-10
31
0
0
ENDSEC
0
SECTION
2
OBJECTS
0
DICTIONARY
5
C
100
AcDbDictionary
3
ACAD_GROUP
350
D
3
ACAD_MLINESTYLE
350
17
0
DICTIONARY
5
D
100
AcDbDictionary
0
DICTIONARY
5
1A
330
C
100
AcDbDictionary
0
DICTIONARY
5
17
100
AcDbDictionary
0
ENDSEC
0
EOF
