G04 #@! TF.GenerationSoftware,KiCad,Pcbnew,(5.0.2-5-10.14)*
G04 #@! TF.CreationDate,2019-06-16T16:00:31-04:00*
G04 #@! TF.ProjectId,panel,70616e65-6c2e-46b6-9963-61645f706362,rev?*
G04 #@! TF.SameCoordinates,Original*
G04 #@! TF.FileFunction,Copper,L2,Bot*
G04 #@! TF.FilePolarity,Positive*
%FSLAX46Y46*%
G04 Gerber Fmt 4.6, Leading zero omitted, Abs format (unit mm)*
G04 Created by KiCad (PCBNEW (5.0.2-5-10.14)) date Sunday, June 16, 2019 at 04:00:31 PM*
%MOMM*%
%LPD*%
G01*
G04 APERTURE LIST*
G04 #@! TA.AperFunction,Conductor*
%ADD10C,0.254000*%
G04 #@! TD*
G04 APERTURE END LIST*
D10*
G04 #@! TO.N,GND*
G36*
X26022265Y-20510261D02*
X25365765Y-20844764D01*
X24844764Y-21365765D01*
X24510261Y-22022265D01*
X24394999Y-22750000D01*
X24510261Y-23477735D01*
X24844764Y-24134235D01*
X25365765Y-24655236D01*
X26022265Y-24989739D01*
X26750000Y-25105001D01*
X27477735Y-24989739D01*
X28134235Y-24655236D01*
X28655236Y-24134235D01*
X28989739Y-23477735D01*
X29105001Y-22750000D01*
X28989739Y-22022265D01*
X28655236Y-21365765D01*
X28134235Y-20844764D01*
X27477735Y-20510261D01*
X27318243Y-20485000D01*
X70470193Y-20485000D01*
X70360593Y-20502359D01*
X70141890Y-20573420D01*
X69695861Y-20800683D01*
X69509821Y-20935849D01*
X69155853Y-21289818D01*
X69155849Y-21289821D01*
X69077562Y-21397573D01*
X69020683Y-21475860D01*
X69020683Y-21475861D01*
X68793420Y-21921890D01*
X68722359Y-22140593D01*
X68644049Y-22635020D01*
X68644049Y-22864980D01*
X68722359Y-23359405D01*
X68722359Y-23359407D01*
X68793420Y-23578110D01*
X69020682Y-24024137D01*
X69020683Y-24024140D01*
X69077562Y-24102427D01*
X69155849Y-24210179D01*
X69155853Y-24210182D01*
X69509820Y-24564150D01*
X69509821Y-24564151D01*
X69695861Y-24699317D01*
X70141890Y-24926580D01*
X70360593Y-24997641D01*
X70840786Y-25073696D01*
X70897612Y-25085000D01*
X74042388Y-25085000D01*
X74099214Y-25073696D01*
X74579407Y-24997641D01*
X74798110Y-24926580D01*
X75244137Y-24699318D01*
X75244140Y-24699317D01*
X75330210Y-24636783D01*
X75430179Y-24564151D01*
X75430182Y-24564147D01*
X75784151Y-24210179D01*
X75919317Y-24024139D01*
X76146580Y-23578110D01*
X76217641Y-23359407D01*
X76217641Y-23359405D01*
X76295951Y-22864980D01*
X76295951Y-22635020D01*
X76217641Y-22140593D01*
X76146580Y-21921890D01*
X75919317Y-21475861D01*
X75784151Y-21289821D01*
X75784150Y-21289820D01*
X75430182Y-20935853D01*
X75430179Y-20935849D01*
X75322427Y-20857562D01*
X75244140Y-20800683D01*
X75244137Y-20800682D01*
X74798110Y-20573420D01*
X74579407Y-20502359D01*
X74469807Y-20485000D01*
X89315000Y-20485000D01*
X89315000Y-32181763D01*
X89289738Y-32022265D01*
X88955235Y-31365766D01*
X88434234Y-30844765D01*
X87777735Y-30510262D01*
X87050000Y-30395000D01*
X86322265Y-30510262D01*
X85665766Y-30844765D01*
X85144765Y-31365766D01*
X84810262Y-32022265D01*
X84695000Y-32750000D01*
X84810262Y-33477735D01*
X85144765Y-34134234D01*
X85665766Y-34655235D01*
X86322265Y-34989738D01*
X87050000Y-35105000D01*
X87777735Y-34989738D01*
X88434234Y-34655235D01*
X88955235Y-34134234D01*
X89289738Y-33477735D01*
X89315000Y-33318237D01*
X89315001Y-134681768D01*
X89289738Y-134522265D01*
X88955235Y-133865766D01*
X88434234Y-133344765D01*
X87777735Y-133010262D01*
X87050000Y-132895000D01*
X86322265Y-133010262D01*
X85665766Y-133344765D01*
X85144765Y-133865766D01*
X84810262Y-134522265D01*
X84695000Y-135250000D01*
X84810262Y-135977735D01*
X85144765Y-136634234D01*
X85665766Y-137155235D01*
X86322265Y-137489738D01*
X87050000Y-137605000D01*
X87777735Y-137489738D01*
X88434234Y-137155235D01*
X88955235Y-136634234D01*
X89289738Y-135977735D01*
X89315001Y-135818231D01*
X89315001Y-143980749D01*
X89172000Y-144123750D01*
X89172000Y-145173000D01*
X89192000Y-145173000D01*
X89192000Y-145427000D01*
X89172000Y-145427000D01*
X89172000Y-146476250D01*
X89315001Y-146619251D01*
X89315001Y-147515000D01*
X74469807Y-147515000D01*
X74579407Y-147497641D01*
X74798110Y-147426580D01*
X75244137Y-147199318D01*
X75244140Y-147199317D01*
X75330210Y-147136783D01*
X75430179Y-147064151D01*
X75430182Y-147064147D01*
X75784151Y-146710179D01*
X75919317Y-146524139D01*
X76146580Y-146078110D01*
X76217641Y-145859407D01*
X76217641Y-145859405D01*
X76260984Y-145585750D01*
X87835000Y-145585750D01*
X87835000Y-146126310D01*
X87931673Y-146359699D01*
X88110302Y-146538327D01*
X88343691Y-146635000D01*
X88759250Y-146635000D01*
X88918000Y-146476250D01*
X88918000Y-145427000D01*
X87993750Y-145427000D01*
X87835000Y-145585750D01*
X76260984Y-145585750D01*
X76295951Y-145364980D01*
X76295951Y-145135020D01*
X76217641Y-144640593D01*
X76163411Y-144473690D01*
X87835000Y-144473690D01*
X87835000Y-145014250D01*
X87993750Y-145173000D01*
X88918000Y-145173000D01*
X88918000Y-144123750D01*
X88759250Y-143965000D01*
X88343691Y-143965000D01*
X88110302Y-144061673D01*
X87931673Y-144240301D01*
X87835000Y-144473690D01*
X76163411Y-144473690D01*
X76146580Y-144421890D01*
X75919317Y-143975861D01*
X75784151Y-143789821D01*
X75784150Y-143789820D01*
X75430182Y-143435853D01*
X75430179Y-143435849D01*
X75322427Y-143357562D01*
X75244140Y-143300683D01*
X75244137Y-143300682D01*
X74798110Y-143073420D01*
X74579407Y-143002359D01*
X74099214Y-142926304D01*
X74042388Y-142915000D01*
X70897612Y-142915000D01*
X70840786Y-142926304D01*
X70360593Y-143002359D01*
X70141890Y-143073420D01*
X69695861Y-143300683D01*
X69509821Y-143435849D01*
X69155853Y-143789818D01*
X69155849Y-143789821D01*
X69077562Y-143897573D01*
X69020683Y-143975860D01*
X69020683Y-143975861D01*
X68793420Y-144421890D01*
X68722359Y-144640593D01*
X68644049Y-145135020D01*
X68644049Y-145364980D01*
X68722359Y-145859405D01*
X68722359Y-145859407D01*
X68793420Y-146078110D01*
X69020682Y-146524137D01*
X69020683Y-146524140D01*
X69060634Y-146579127D01*
X69155849Y-146710179D01*
X69155853Y-146710182D01*
X69509820Y-147064150D01*
X69509821Y-147064151D01*
X69695861Y-147199317D01*
X70141890Y-147426580D01*
X70360593Y-147497641D01*
X70470193Y-147515000D01*
X27318243Y-147515000D01*
X27477735Y-147489739D01*
X28134235Y-147155236D01*
X28655236Y-146634235D01*
X28989739Y-145977735D01*
X29105001Y-145250000D01*
X28989739Y-144522265D01*
X28655236Y-143865765D01*
X28134235Y-143344764D01*
X27477735Y-143010261D01*
X26750000Y-142894999D01*
X26022265Y-143010261D01*
X25365765Y-143344764D01*
X24844764Y-143865765D01*
X24510261Y-144522265D01*
X24394999Y-145250000D01*
X24510261Y-145977735D01*
X24844764Y-146634235D01*
X25365765Y-147155236D01*
X26022265Y-147489739D01*
X26181757Y-147515000D01*
X19985000Y-147515000D01*
X19985000Y-135818237D01*
X20010262Y-135977735D01*
X20344765Y-136634234D01*
X20865766Y-137155235D01*
X21522265Y-137489738D01*
X22250000Y-137605000D01*
X22977735Y-137489738D01*
X23634234Y-137155235D01*
X24155235Y-136634234D01*
X24489738Y-135977735D01*
X24605000Y-135250000D01*
X24489738Y-134522265D01*
X24155235Y-133865766D01*
X23634234Y-133344765D01*
X22977735Y-133010262D01*
X22250000Y-132895000D01*
X21522265Y-133010262D01*
X20865766Y-133344765D01*
X20344765Y-133865766D01*
X20010262Y-134522265D01*
X19985000Y-134681763D01*
X19985000Y-132305919D01*
X38245390Y-132305919D01*
X38357296Y-133191744D01*
X38662674Y-134030764D01*
X39146347Y-134781277D01*
X39784276Y-135405983D01*
X40544754Y-135873832D01*
X41389985Y-136161572D01*
X42277960Y-136254902D01*
X43164545Y-136149184D01*
X44005676Y-135849670D01*
X44759548Y-135371249D01*
X45388692Y-134737697D01*
X45861839Y-133980503D01*
X46155473Y-133137302D01*
X46248727Y-132305919D01*
X63045390Y-132305919D01*
X63157296Y-133191744D01*
X63462674Y-134030764D01*
X63946347Y-134781277D01*
X64584276Y-135405983D01*
X65344754Y-135873832D01*
X66189985Y-136161572D01*
X67077960Y-136254902D01*
X67964545Y-136149184D01*
X68805676Y-135849670D01*
X69559548Y-135371249D01*
X70188692Y-134737697D01*
X70661839Y-133980503D01*
X70955473Y-133137302D01*
X71055000Y-132250000D01*
X71053439Y-132138174D01*
X70929176Y-131253997D01*
X70612113Y-130419323D01*
X70118008Y-129675636D01*
X69471419Y-129059898D01*
X68704483Y-128602712D01*
X67855317Y-128326801D01*
X66966126Y-128245878D01*
X66081103Y-128363966D01*
X65244235Y-128675194D01*
X64497117Y-129164094D01*
X63876880Y-129806369D01*
X63414351Y-130570094D01*
X63132519Y-131417314D01*
X63045390Y-132305919D01*
X46248727Y-132305919D01*
X46255000Y-132250000D01*
X46253439Y-132138174D01*
X46129176Y-131253997D01*
X45812113Y-130419323D01*
X45318008Y-129675636D01*
X44671419Y-129059898D01*
X43904483Y-128602712D01*
X43055317Y-128326801D01*
X42166126Y-128245878D01*
X41281103Y-128363966D01*
X40444235Y-128675194D01*
X39697117Y-129164094D01*
X39076880Y-129806369D01*
X38614351Y-130570094D01*
X38332519Y-131417314D01*
X38245390Y-132305919D01*
X19985000Y-132305919D01*
X19985000Y-116805231D01*
X38018309Y-116805231D01*
X38021518Y-117724300D01*
X38222007Y-118621241D01*
X38610425Y-119454205D01*
X39168649Y-120184331D01*
X39870634Y-120777555D01*
X40683630Y-121206199D01*
X41569706Y-121450265D01*
X42487521Y-121498365D01*
X43394254Y-121348257D01*
X44247601Y-121006942D01*
X45007750Y-120490345D01*
X45639235Y-119822569D01*
X46112593Y-119034769D01*
X46405741Y-118163699D01*
X46505000Y-117250000D01*
X46504896Y-117220295D01*
X46456872Y-116805231D01*
X62818309Y-116805231D01*
X62821518Y-117724300D01*
X63022007Y-118621241D01*
X63410425Y-119454205D01*
X63968649Y-120184331D01*
X64670634Y-120777555D01*
X65483630Y-121206199D01*
X66369706Y-121450265D01*
X67287521Y-121498365D01*
X68194254Y-121348257D01*
X69047601Y-121006942D01*
X69807750Y-120490345D01*
X70439235Y-119822569D01*
X70912593Y-119034769D01*
X71205741Y-118163699D01*
X71305000Y-117250000D01*
X71304896Y-117220295D01*
X71199261Y-116307311D01*
X70900039Y-115438309D01*
X70421192Y-114653832D01*
X69785061Y-113990481D01*
X69021325Y-113479204D01*
X68165615Y-113143855D01*
X67257856Y-113000080D01*
X66340399Y-113054587D01*
X65456049Y-113304833D01*
X64646065Y-113739142D01*
X63948238Y-114337252D01*
X63395126Y-115071258D01*
X63012533Y-115906913D01*
X62818309Y-116805231D01*
X46456872Y-116805231D01*
X46399261Y-116307311D01*
X46100039Y-115438309D01*
X45621192Y-114653832D01*
X44985061Y-113990481D01*
X44221325Y-113479204D01*
X43365615Y-113143855D01*
X42457856Y-113000080D01*
X41540399Y-113054587D01*
X40656049Y-113304833D01*
X39846065Y-113739142D01*
X39148238Y-114337252D01*
X38595126Y-115071258D01*
X38212533Y-115906913D01*
X38018309Y-116805231D01*
X19985000Y-116805231D01*
X19985000Y-81890178D01*
X27896835Y-81890178D01*
X28012020Y-82863367D01*
X28302625Y-83799270D01*
X28758919Y-84666542D01*
X29365620Y-85436139D01*
X30102410Y-86082286D01*
X30944613Y-86583344D01*
X31864024Y-86922533D01*
X32829852Y-87088492D01*
X33809750Y-87075665D01*
X34770902Y-86884480D01*
X35681119Y-86521340D01*
X36509917Y-85998407D01*
X37229541Y-85333194D01*
X37815888Y-84547980D01*
X38249323Y-83669060D01*
X38515330Y-82725871D01*
X38592119Y-81890178D01*
X41896835Y-81890178D01*
X42012020Y-82863367D01*
X42302625Y-83799270D01*
X42758919Y-84666542D01*
X43365620Y-85436139D01*
X44102410Y-86082286D01*
X44944613Y-86583344D01*
X45864024Y-86922533D01*
X46829852Y-87088492D01*
X47809750Y-87075665D01*
X48770902Y-86884480D01*
X49681119Y-86521340D01*
X50509917Y-85998407D01*
X51229541Y-85333194D01*
X51815888Y-84547980D01*
X52249323Y-83669060D01*
X52515330Y-82725871D01*
X52592119Y-81890178D01*
X56696834Y-81890178D01*
X56812019Y-82863367D01*
X57102624Y-83799270D01*
X57558918Y-84666543D01*
X58165620Y-85436139D01*
X58902409Y-86082287D01*
X59744613Y-86583345D01*
X60664024Y-86922534D01*
X61629851Y-87088493D01*
X62609750Y-87075666D01*
X63570902Y-86884481D01*
X64481120Y-86521341D01*
X65309918Y-85998408D01*
X66029541Y-85333195D01*
X66615889Y-84547980D01*
X67049324Y-83669061D01*
X67315331Y-82725871D01*
X67392120Y-81890178D01*
X70696834Y-81890178D01*
X70812019Y-82863367D01*
X71102624Y-83799270D01*
X71558918Y-84666543D01*
X72165620Y-85436139D01*
X72902409Y-86082287D01*
X73744613Y-86583345D01*
X74664024Y-86922534D01*
X75629851Y-87088493D01*
X76609750Y-87075666D01*
X77570902Y-86884481D01*
X78481120Y-86521341D01*
X79309918Y-85998408D01*
X80029541Y-85333195D01*
X80615889Y-84547980D01*
X81049324Y-83669061D01*
X81315331Y-82725871D01*
X81405001Y-81750000D01*
X81397662Y-81469741D01*
X81257042Y-80499900D01*
X80942037Y-79571925D01*
X80463197Y-78716894D01*
X79836558Y-77963442D01*
X79083106Y-77336803D01*
X78228075Y-76857963D01*
X77300100Y-76542958D01*
X76330259Y-76402338D01*
X75351032Y-76440812D01*
X74395214Y-76657091D01*
X73494814Y-77043933D01*
X72679989Y-77588383D01*
X71978025Y-78272205D01*
X71412433Y-79072500D01*
X71002154Y-79962464D01*
X70760928Y-80912293D01*
X70696834Y-81890178D01*
X67392120Y-81890178D01*
X67405001Y-81750000D01*
X67397662Y-81469741D01*
X67257042Y-80499900D01*
X66942037Y-79571925D01*
X66463197Y-78716894D01*
X65836558Y-77963442D01*
X65083106Y-77336803D01*
X64228075Y-76857963D01*
X63300100Y-76542958D01*
X62330259Y-76402338D01*
X61351032Y-76440812D01*
X60395214Y-76657091D01*
X59494814Y-77043933D01*
X58679989Y-77588383D01*
X57978025Y-78272205D01*
X57412433Y-79072500D01*
X57002154Y-79962464D01*
X56760928Y-80912293D01*
X56696834Y-81890178D01*
X52592119Y-81890178D01*
X52605000Y-81750000D01*
X52597661Y-81469741D01*
X52457041Y-80499900D01*
X52142036Y-79571925D01*
X51663196Y-78716895D01*
X51036557Y-77963443D01*
X50283105Y-77336804D01*
X49428075Y-76857964D01*
X48500100Y-76542959D01*
X47530259Y-76402339D01*
X46551032Y-76440813D01*
X45595214Y-76657092D01*
X44694815Y-77043934D01*
X43879989Y-77588383D01*
X43178026Y-78272206D01*
X42612434Y-79072500D01*
X42202155Y-79962464D01*
X41960929Y-80912293D01*
X41896835Y-81890178D01*
X38592119Y-81890178D01*
X38605000Y-81750000D01*
X38597661Y-81469741D01*
X38457041Y-80499900D01*
X38142036Y-79571925D01*
X37663196Y-78716895D01*
X37036557Y-77963443D01*
X36283105Y-77336804D01*
X35428075Y-76857964D01*
X34500100Y-76542959D01*
X33530259Y-76402339D01*
X32551032Y-76440813D01*
X31595214Y-76657092D01*
X30694815Y-77043934D01*
X29879989Y-77588383D01*
X29178026Y-78272206D01*
X28612434Y-79072500D01*
X28202155Y-79962464D01*
X27960929Y-80912293D01*
X27896835Y-81890178D01*
X19985000Y-81890178D01*
X19985000Y-33318237D01*
X20010262Y-33477735D01*
X20344765Y-34134234D01*
X20865766Y-34655235D01*
X21522265Y-34989738D01*
X22250000Y-35105000D01*
X22977735Y-34989738D01*
X23448247Y-34750000D01*
X31500601Y-34750000D01*
X31515000Y-34822388D01*
X31515001Y-69677607D01*
X31500601Y-69750000D01*
X31557646Y-70036783D01*
X31720095Y-70279905D01*
X31963217Y-70442354D01*
X32177612Y-70485000D01*
X32250000Y-70499399D01*
X32322388Y-70485000D01*
X34177612Y-70485000D01*
X34250000Y-70499399D01*
X34322388Y-70485000D01*
X34536783Y-70442354D01*
X34779905Y-70279905D01*
X34942354Y-70036783D01*
X34999399Y-69750000D01*
X34985000Y-69677612D01*
X34985000Y-34822388D01*
X34999399Y-34750000D01*
X45500601Y-34750000D01*
X45515000Y-34822388D01*
X45515001Y-69677607D01*
X45500601Y-69750000D01*
X45557646Y-70036783D01*
X45720095Y-70279905D01*
X45963217Y-70442354D01*
X46177612Y-70485000D01*
X46250000Y-70499399D01*
X46322388Y-70485000D01*
X48177612Y-70485000D01*
X48250000Y-70499399D01*
X48322388Y-70485000D01*
X48536783Y-70442354D01*
X48779905Y-70279905D01*
X48942354Y-70036783D01*
X48999399Y-69750000D01*
X48985000Y-69677612D01*
X48985000Y-34822388D01*
X48999399Y-34750000D01*
X60300601Y-34750000D01*
X60315001Y-34822393D01*
X60315000Y-69677612D01*
X60300601Y-69750000D01*
X60357646Y-70036783D01*
X60520095Y-70279905D01*
X60763217Y-70442354D01*
X61050000Y-70499399D01*
X61122388Y-70485000D01*
X62977612Y-70485000D01*
X63050000Y-70499399D01*
X63122388Y-70485000D01*
X63336783Y-70442354D01*
X63579905Y-70279905D01*
X63742354Y-70036783D01*
X63799399Y-69750000D01*
X63785000Y-69677612D01*
X63785000Y-34822388D01*
X63799399Y-34750000D01*
X74300601Y-34750000D01*
X74315001Y-34822393D01*
X74315000Y-69677612D01*
X74300601Y-69750000D01*
X74357646Y-70036783D01*
X74520095Y-70279905D01*
X74763217Y-70442354D01*
X75050000Y-70499399D01*
X75122388Y-70485000D01*
X76977612Y-70485000D01*
X77050000Y-70499399D01*
X77122388Y-70485000D01*
X77336783Y-70442354D01*
X77579905Y-70279905D01*
X77742354Y-70036783D01*
X77799399Y-69750000D01*
X77785000Y-69677612D01*
X77785000Y-34822388D01*
X77799399Y-34750000D01*
X77742354Y-34463217D01*
X77579905Y-34220095D01*
X77336783Y-34057646D01*
X77122388Y-34015000D01*
X77050000Y-34000601D01*
X76977612Y-34015000D01*
X75122388Y-34015000D01*
X75050000Y-34000601D01*
X74977612Y-34015000D01*
X74763217Y-34057646D01*
X74520095Y-34220095D01*
X74357646Y-34463217D01*
X74300601Y-34750000D01*
X63799399Y-34750000D01*
X63742354Y-34463217D01*
X63579905Y-34220095D01*
X63336783Y-34057646D01*
X63122388Y-34015000D01*
X63050000Y-34000601D01*
X62977612Y-34015000D01*
X61122388Y-34015000D01*
X61050000Y-34000601D01*
X60977612Y-34015000D01*
X60763217Y-34057646D01*
X60520095Y-34220095D01*
X60357646Y-34463217D01*
X60300601Y-34750000D01*
X48999399Y-34750000D01*
X48942354Y-34463217D01*
X48779905Y-34220095D01*
X48536783Y-34057646D01*
X48322388Y-34015000D01*
X48250000Y-34000601D01*
X48177612Y-34015000D01*
X46322388Y-34015000D01*
X46250000Y-34000601D01*
X46177612Y-34015000D01*
X45963217Y-34057646D01*
X45720095Y-34220095D01*
X45557646Y-34463217D01*
X45500601Y-34750000D01*
X34999399Y-34750000D01*
X34942354Y-34463217D01*
X34779905Y-34220095D01*
X34536783Y-34057646D01*
X34322388Y-34015000D01*
X34250000Y-34000601D01*
X34177612Y-34015000D01*
X32322388Y-34015000D01*
X32250000Y-34000601D01*
X32177612Y-34015000D01*
X31963217Y-34057646D01*
X31720095Y-34220095D01*
X31557646Y-34463217D01*
X31500601Y-34750000D01*
X23448247Y-34750000D01*
X23634234Y-34655235D01*
X24155235Y-34134234D01*
X24489738Y-33477735D01*
X24605000Y-32750000D01*
X24489738Y-32022265D01*
X24155235Y-31365766D01*
X23634234Y-30844765D01*
X22977735Y-30510262D01*
X22250000Y-30395000D01*
X21522265Y-30510262D01*
X20865766Y-30844765D01*
X20344765Y-31365766D01*
X20010262Y-32022265D01*
X19985000Y-32181763D01*
X19985000Y-20485000D01*
X26181757Y-20485000D01*
X26022265Y-20510261D01*
X26022265Y-20510261D01*
G37*
X26022265Y-20510261D02*
X25365765Y-20844764D01*
X24844764Y-21365765D01*
X24510261Y-22022265D01*
X24394999Y-22750000D01*
X24510261Y-23477735D01*
X24844764Y-24134235D01*
X25365765Y-24655236D01*
X26022265Y-24989739D01*
X26750000Y-25105001D01*
X27477735Y-24989739D01*
X28134235Y-24655236D01*
X28655236Y-24134235D01*
X28989739Y-23477735D01*
X29105001Y-22750000D01*
X28989739Y-22022265D01*
X28655236Y-21365765D01*
X28134235Y-20844764D01*
X27477735Y-20510261D01*
X27318243Y-20485000D01*
X70470193Y-20485000D01*
X70360593Y-20502359D01*
X70141890Y-20573420D01*
X69695861Y-20800683D01*
X69509821Y-20935849D01*
X69155853Y-21289818D01*
X69155849Y-21289821D01*
X69077562Y-21397573D01*
X69020683Y-21475860D01*
X69020683Y-21475861D01*
X68793420Y-21921890D01*
X68722359Y-22140593D01*
X68644049Y-22635020D01*
X68644049Y-22864980D01*
X68722359Y-23359405D01*
X68722359Y-23359407D01*
X68793420Y-23578110D01*
X69020682Y-24024137D01*
X69020683Y-24024140D01*
X69077562Y-24102427D01*
X69155849Y-24210179D01*
X69155853Y-24210182D01*
X69509820Y-24564150D01*
X69509821Y-24564151D01*
X69695861Y-24699317D01*
X70141890Y-24926580D01*
X70360593Y-24997641D01*
X70840786Y-25073696D01*
X70897612Y-25085000D01*
X74042388Y-25085000D01*
X74099214Y-25073696D01*
X74579407Y-24997641D01*
X74798110Y-24926580D01*
X75244137Y-24699318D01*
X75244140Y-24699317D01*
X75330210Y-24636783D01*
X75430179Y-24564151D01*
X75430182Y-24564147D01*
X75784151Y-24210179D01*
X75919317Y-24024139D01*
X76146580Y-23578110D01*
X76217641Y-23359407D01*
X76217641Y-23359405D01*
X76295951Y-22864980D01*
X76295951Y-22635020D01*
X76217641Y-22140593D01*
X76146580Y-21921890D01*
X75919317Y-21475861D01*
X75784151Y-21289821D01*
X75784150Y-21289820D01*
X75430182Y-20935853D01*
X75430179Y-20935849D01*
X75322427Y-20857562D01*
X75244140Y-20800683D01*
X75244137Y-20800682D01*
X74798110Y-20573420D01*
X74579407Y-20502359D01*
X74469807Y-20485000D01*
X89315000Y-20485000D01*
X89315000Y-32181763D01*
X89289738Y-32022265D01*
X88955235Y-31365766D01*
X88434234Y-30844765D01*
X87777735Y-30510262D01*
X87050000Y-30395000D01*
X86322265Y-30510262D01*
X85665766Y-30844765D01*
X85144765Y-31365766D01*
X84810262Y-32022265D01*
X84695000Y-32750000D01*
X84810262Y-33477735D01*
X85144765Y-34134234D01*
X85665766Y-34655235D01*
X86322265Y-34989738D01*
X87050000Y-35105000D01*
X87777735Y-34989738D01*
X88434234Y-34655235D01*
X88955235Y-34134234D01*
X89289738Y-33477735D01*
X89315000Y-33318237D01*
X89315001Y-134681768D01*
X89289738Y-134522265D01*
X88955235Y-133865766D01*
X88434234Y-133344765D01*
X87777735Y-133010262D01*
X87050000Y-132895000D01*
X86322265Y-133010262D01*
X85665766Y-133344765D01*
X85144765Y-133865766D01*
X84810262Y-134522265D01*
X84695000Y-135250000D01*
X84810262Y-135977735D01*
X85144765Y-136634234D01*
X85665766Y-137155235D01*
X86322265Y-137489738D01*
X87050000Y-137605000D01*
X87777735Y-137489738D01*
X88434234Y-137155235D01*
X88955235Y-136634234D01*
X89289738Y-135977735D01*
X89315001Y-135818231D01*
X89315001Y-143980749D01*
X89172000Y-144123750D01*
X89172000Y-145173000D01*
X89192000Y-145173000D01*
X89192000Y-145427000D01*
X89172000Y-145427000D01*
X89172000Y-146476250D01*
X89315001Y-146619251D01*
X89315001Y-147515000D01*
X74469807Y-147515000D01*
X74579407Y-147497641D01*
X74798110Y-147426580D01*
X75244137Y-147199318D01*
X75244140Y-147199317D01*
X75330210Y-147136783D01*
X75430179Y-147064151D01*
X75430182Y-147064147D01*
X75784151Y-146710179D01*
X75919317Y-146524139D01*
X76146580Y-146078110D01*
X76217641Y-145859407D01*
X76217641Y-145859405D01*
X76260984Y-145585750D01*
X87835000Y-145585750D01*
X87835000Y-146126310D01*
X87931673Y-146359699D01*
X88110302Y-146538327D01*
X88343691Y-146635000D01*
X88759250Y-146635000D01*
X88918000Y-146476250D01*
X88918000Y-145427000D01*
X87993750Y-145427000D01*
X87835000Y-145585750D01*
X76260984Y-145585750D01*
X76295951Y-145364980D01*
X76295951Y-145135020D01*
X76217641Y-144640593D01*
X76163411Y-144473690D01*
X87835000Y-144473690D01*
X87835000Y-145014250D01*
X87993750Y-145173000D01*
X88918000Y-145173000D01*
X88918000Y-144123750D01*
X88759250Y-143965000D01*
X88343691Y-143965000D01*
X88110302Y-144061673D01*
X87931673Y-144240301D01*
X87835000Y-144473690D01*
X76163411Y-144473690D01*
X76146580Y-144421890D01*
X75919317Y-143975861D01*
X75784151Y-143789821D01*
X75784150Y-143789820D01*
X75430182Y-143435853D01*
X75430179Y-143435849D01*
X75322427Y-143357562D01*
X75244140Y-143300683D01*
X75244137Y-143300682D01*
X74798110Y-143073420D01*
X74579407Y-143002359D01*
X74099214Y-142926304D01*
X74042388Y-142915000D01*
X70897612Y-142915000D01*
X70840786Y-142926304D01*
X70360593Y-143002359D01*
X70141890Y-143073420D01*
X69695861Y-143300683D01*
X69509821Y-143435849D01*
X69155853Y-143789818D01*
X69155849Y-143789821D01*
X69077562Y-143897573D01*
X69020683Y-143975860D01*
X69020683Y-143975861D01*
X68793420Y-144421890D01*
X68722359Y-144640593D01*
X68644049Y-145135020D01*
X68644049Y-145364980D01*
X68722359Y-145859405D01*
X68722359Y-145859407D01*
X68793420Y-146078110D01*
X69020682Y-146524137D01*
X69020683Y-146524140D01*
X69060634Y-146579127D01*
X69155849Y-146710179D01*
X69155853Y-146710182D01*
X69509820Y-147064150D01*
X69509821Y-147064151D01*
X69695861Y-147199317D01*
X70141890Y-147426580D01*
X70360593Y-147497641D01*
X70470193Y-147515000D01*
X27318243Y-147515000D01*
X27477735Y-147489739D01*
X28134235Y-147155236D01*
X28655236Y-146634235D01*
X28989739Y-145977735D01*
X29105001Y-145250000D01*
X28989739Y-144522265D01*
X28655236Y-143865765D01*
X28134235Y-143344764D01*
X27477735Y-143010261D01*
X26750000Y-142894999D01*
X26022265Y-143010261D01*
X25365765Y-143344764D01*
X24844764Y-143865765D01*
X24510261Y-144522265D01*
X24394999Y-145250000D01*
X24510261Y-145977735D01*
X24844764Y-146634235D01*
X25365765Y-147155236D01*
X26022265Y-147489739D01*
X26181757Y-147515000D01*
X19985000Y-147515000D01*
X19985000Y-135818237D01*
X20010262Y-135977735D01*
X20344765Y-136634234D01*
X20865766Y-137155235D01*
X21522265Y-137489738D01*
X22250000Y-137605000D01*
X22977735Y-137489738D01*
X23634234Y-137155235D01*
X24155235Y-136634234D01*
X24489738Y-135977735D01*
X24605000Y-135250000D01*
X24489738Y-134522265D01*
X24155235Y-133865766D01*
X23634234Y-133344765D01*
X22977735Y-133010262D01*
X22250000Y-132895000D01*
X21522265Y-133010262D01*
X20865766Y-133344765D01*
X20344765Y-133865766D01*
X20010262Y-134522265D01*
X19985000Y-134681763D01*
X19985000Y-132305919D01*
X38245390Y-132305919D01*
X38357296Y-133191744D01*
X38662674Y-134030764D01*
X39146347Y-134781277D01*
X39784276Y-135405983D01*
X40544754Y-135873832D01*
X41389985Y-136161572D01*
X42277960Y-136254902D01*
X43164545Y-136149184D01*
X44005676Y-135849670D01*
X44759548Y-135371249D01*
X45388692Y-134737697D01*
X45861839Y-133980503D01*
X46155473Y-133137302D01*
X46248727Y-132305919D01*
X63045390Y-132305919D01*
X63157296Y-133191744D01*
X63462674Y-134030764D01*
X63946347Y-134781277D01*
X64584276Y-135405983D01*
X65344754Y-135873832D01*
X66189985Y-136161572D01*
X67077960Y-136254902D01*
X67964545Y-136149184D01*
X68805676Y-135849670D01*
X69559548Y-135371249D01*
X70188692Y-134737697D01*
X70661839Y-133980503D01*
X70955473Y-133137302D01*
X71055000Y-132250000D01*
X71053439Y-132138174D01*
X70929176Y-131253997D01*
X70612113Y-130419323D01*
X70118008Y-129675636D01*
X69471419Y-129059898D01*
X68704483Y-128602712D01*
X67855317Y-128326801D01*
X66966126Y-128245878D01*
X66081103Y-128363966D01*
X65244235Y-128675194D01*
X64497117Y-129164094D01*
X63876880Y-129806369D01*
X63414351Y-130570094D01*
X63132519Y-131417314D01*
X63045390Y-132305919D01*
X46248727Y-132305919D01*
X46255000Y-132250000D01*
X46253439Y-132138174D01*
X46129176Y-131253997D01*
X45812113Y-130419323D01*
X45318008Y-129675636D01*
X44671419Y-129059898D01*
X43904483Y-128602712D01*
X43055317Y-128326801D01*
X42166126Y-128245878D01*
X41281103Y-128363966D01*
X40444235Y-128675194D01*
X39697117Y-129164094D01*
X39076880Y-129806369D01*
X38614351Y-130570094D01*
X38332519Y-131417314D01*
X38245390Y-132305919D01*
X19985000Y-132305919D01*
X19985000Y-116805231D01*
X38018309Y-116805231D01*
X38021518Y-117724300D01*
X38222007Y-118621241D01*
X38610425Y-119454205D01*
X39168649Y-120184331D01*
X39870634Y-120777555D01*
X40683630Y-121206199D01*
X41569706Y-121450265D01*
X42487521Y-121498365D01*
X43394254Y-121348257D01*
X44247601Y-121006942D01*
X45007750Y-120490345D01*
X45639235Y-119822569D01*
X46112593Y-119034769D01*
X46405741Y-118163699D01*
X46505000Y-117250000D01*
X46504896Y-117220295D01*
X46456872Y-116805231D01*
X62818309Y-116805231D01*
X62821518Y-117724300D01*
X63022007Y-118621241D01*
X63410425Y-119454205D01*
X63968649Y-120184331D01*
X64670634Y-120777555D01*
X65483630Y-121206199D01*
X66369706Y-121450265D01*
X67287521Y-121498365D01*
X68194254Y-121348257D01*
X69047601Y-121006942D01*
X69807750Y-120490345D01*
X70439235Y-119822569D01*
X70912593Y-119034769D01*
X71205741Y-118163699D01*
X71305000Y-117250000D01*
X71304896Y-117220295D01*
X71199261Y-116307311D01*
X70900039Y-115438309D01*
X70421192Y-114653832D01*
X69785061Y-113990481D01*
X69021325Y-113479204D01*
X68165615Y-113143855D01*
X67257856Y-113000080D01*
X66340399Y-113054587D01*
X65456049Y-113304833D01*
X64646065Y-113739142D01*
X63948238Y-114337252D01*
X63395126Y-115071258D01*
X63012533Y-115906913D01*
X62818309Y-116805231D01*
X46456872Y-116805231D01*
X46399261Y-116307311D01*
X46100039Y-115438309D01*
X45621192Y-114653832D01*
X44985061Y-113990481D01*
X44221325Y-113479204D01*
X43365615Y-113143855D01*
X42457856Y-113000080D01*
X41540399Y-113054587D01*
X40656049Y-113304833D01*
X39846065Y-113739142D01*
X39148238Y-114337252D01*
X38595126Y-115071258D01*
X38212533Y-115906913D01*
X38018309Y-116805231D01*
X19985000Y-116805231D01*
X19985000Y-81890178D01*
X27896835Y-81890178D01*
X28012020Y-82863367D01*
X28302625Y-83799270D01*
X28758919Y-84666542D01*
X29365620Y-85436139D01*
X30102410Y-86082286D01*
X30944613Y-86583344D01*
X31864024Y-86922533D01*
X32829852Y-87088492D01*
X33809750Y-87075665D01*
X34770902Y-86884480D01*
X35681119Y-86521340D01*
X36509917Y-85998407D01*
X37229541Y-85333194D01*
X37815888Y-84547980D01*
X38249323Y-83669060D01*
X38515330Y-82725871D01*
X38592119Y-81890178D01*
X41896835Y-81890178D01*
X42012020Y-82863367D01*
X42302625Y-83799270D01*
X42758919Y-84666542D01*
X43365620Y-85436139D01*
X44102410Y-86082286D01*
X44944613Y-86583344D01*
X45864024Y-86922533D01*
X46829852Y-87088492D01*
X47809750Y-87075665D01*
X48770902Y-86884480D01*
X49681119Y-86521340D01*
X50509917Y-85998407D01*
X51229541Y-85333194D01*
X51815888Y-84547980D01*
X52249323Y-83669060D01*
X52515330Y-82725871D01*
X52592119Y-81890178D01*
X56696834Y-81890178D01*
X56812019Y-82863367D01*
X57102624Y-83799270D01*
X57558918Y-84666543D01*
X58165620Y-85436139D01*
X58902409Y-86082287D01*
X59744613Y-86583345D01*
X60664024Y-86922534D01*
X61629851Y-87088493D01*
X62609750Y-87075666D01*
X63570902Y-86884481D01*
X64481120Y-86521341D01*
X65309918Y-85998408D01*
X66029541Y-85333195D01*
X66615889Y-84547980D01*
X67049324Y-83669061D01*
X67315331Y-82725871D01*
X67392120Y-81890178D01*
X70696834Y-81890178D01*
X70812019Y-82863367D01*
X71102624Y-83799270D01*
X71558918Y-84666543D01*
X72165620Y-85436139D01*
X72902409Y-86082287D01*
X73744613Y-86583345D01*
X74664024Y-86922534D01*
X75629851Y-87088493D01*
X76609750Y-87075666D01*
X77570902Y-86884481D01*
X78481120Y-86521341D01*
X79309918Y-85998408D01*
X80029541Y-85333195D01*
X80615889Y-84547980D01*
X81049324Y-83669061D01*
X81315331Y-82725871D01*
X81405001Y-81750000D01*
X81397662Y-81469741D01*
X81257042Y-80499900D01*
X80942037Y-79571925D01*
X80463197Y-78716894D01*
X79836558Y-77963442D01*
X79083106Y-77336803D01*
X78228075Y-76857963D01*
X77300100Y-76542958D01*
X76330259Y-76402338D01*
X75351032Y-76440812D01*
X74395214Y-76657091D01*
X73494814Y-77043933D01*
X72679989Y-77588383D01*
X71978025Y-78272205D01*
X71412433Y-79072500D01*
X71002154Y-79962464D01*
X70760928Y-80912293D01*
X70696834Y-81890178D01*
X67392120Y-81890178D01*
X67405001Y-81750000D01*
X67397662Y-81469741D01*
X67257042Y-80499900D01*
X66942037Y-79571925D01*
X66463197Y-78716894D01*
X65836558Y-77963442D01*
X65083106Y-77336803D01*
X64228075Y-76857963D01*
X63300100Y-76542958D01*
X62330259Y-76402338D01*
X61351032Y-76440812D01*
X60395214Y-76657091D01*
X59494814Y-77043933D01*
X58679989Y-77588383D01*
X57978025Y-78272205D01*
X57412433Y-79072500D01*
X57002154Y-79962464D01*
X56760928Y-80912293D01*
X56696834Y-81890178D01*
X52592119Y-81890178D01*
X52605000Y-81750000D01*
X52597661Y-81469741D01*
X52457041Y-80499900D01*
X52142036Y-79571925D01*
X51663196Y-78716895D01*
X51036557Y-77963443D01*
X50283105Y-77336804D01*
X49428075Y-76857964D01*
X48500100Y-76542959D01*
X47530259Y-76402339D01*
X46551032Y-76440813D01*
X45595214Y-76657092D01*
X44694815Y-77043934D01*
X43879989Y-77588383D01*
X43178026Y-78272206D01*
X42612434Y-79072500D01*
X42202155Y-79962464D01*
X41960929Y-80912293D01*
X41896835Y-81890178D01*
X38592119Y-81890178D01*
X38605000Y-81750000D01*
X38597661Y-81469741D01*
X38457041Y-80499900D01*
X38142036Y-79571925D01*
X37663196Y-78716895D01*
X37036557Y-77963443D01*
X36283105Y-77336804D01*
X35428075Y-76857964D01*
X34500100Y-76542959D01*
X33530259Y-76402339D01*
X32551032Y-76440813D01*
X31595214Y-76657092D01*
X30694815Y-77043934D01*
X29879989Y-77588383D01*
X29178026Y-78272206D01*
X28612434Y-79072500D01*
X28202155Y-79962464D01*
X27960929Y-80912293D01*
X27896835Y-81890178D01*
X19985000Y-81890178D01*
X19985000Y-33318237D01*
X20010262Y-33477735D01*
X20344765Y-34134234D01*
X20865766Y-34655235D01*
X21522265Y-34989738D01*
X22250000Y-35105000D01*
X22977735Y-34989738D01*
X23448247Y-34750000D01*
X31500601Y-34750000D01*
X31515000Y-34822388D01*
X31515001Y-69677607D01*
X31500601Y-69750000D01*
X31557646Y-70036783D01*
X31720095Y-70279905D01*
X31963217Y-70442354D01*
X32177612Y-70485000D01*
X32250000Y-70499399D01*
X32322388Y-70485000D01*
X34177612Y-70485000D01*
X34250000Y-70499399D01*
X34322388Y-70485000D01*
X34536783Y-70442354D01*
X34779905Y-70279905D01*
X34942354Y-70036783D01*
X34999399Y-69750000D01*
X34985000Y-69677612D01*
X34985000Y-34822388D01*
X34999399Y-34750000D01*
X45500601Y-34750000D01*
X45515000Y-34822388D01*
X45515001Y-69677607D01*
X45500601Y-69750000D01*
X45557646Y-70036783D01*
X45720095Y-70279905D01*
X45963217Y-70442354D01*
X46177612Y-70485000D01*
X46250000Y-70499399D01*
X46322388Y-70485000D01*
X48177612Y-70485000D01*
X48250000Y-70499399D01*
X48322388Y-70485000D01*
X48536783Y-70442354D01*
X48779905Y-70279905D01*
X48942354Y-70036783D01*
X48999399Y-69750000D01*
X48985000Y-69677612D01*
X48985000Y-34822388D01*
X48999399Y-34750000D01*
X60300601Y-34750000D01*
X60315001Y-34822393D01*
X60315000Y-69677612D01*
X60300601Y-69750000D01*
X60357646Y-70036783D01*
X60520095Y-70279905D01*
X60763217Y-70442354D01*
X61050000Y-70499399D01*
X61122388Y-70485000D01*
X62977612Y-70485000D01*
X63050000Y-70499399D01*
X63122388Y-70485000D01*
X63336783Y-70442354D01*
X63579905Y-70279905D01*
X63742354Y-70036783D01*
X63799399Y-69750000D01*
X63785000Y-69677612D01*
X63785000Y-34822388D01*
X63799399Y-34750000D01*
X74300601Y-34750000D01*
X74315001Y-34822393D01*
X74315000Y-69677612D01*
X74300601Y-69750000D01*
X74357646Y-70036783D01*
X74520095Y-70279905D01*
X74763217Y-70442354D01*
X75050000Y-70499399D01*
X75122388Y-70485000D01*
X76977612Y-70485000D01*
X77050000Y-70499399D01*
X77122388Y-70485000D01*
X77336783Y-70442354D01*
X77579905Y-70279905D01*
X77742354Y-70036783D01*
X77799399Y-69750000D01*
X77785000Y-69677612D01*
X77785000Y-34822388D01*
X77799399Y-34750000D01*
X77742354Y-34463217D01*
X77579905Y-34220095D01*
X77336783Y-34057646D01*
X77122388Y-34015000D01*
X77050000Y-34000601D01*
X76977612Y-34015000D01*
X75122388Y-34015000D01*
X75050000Y-34000601D01*
X74977612Y-34015000D01*
X74763217Y-34057646D01*
X74520095Y-34220095D01*
X74357646Y-34463217D01*
X74300601Y-34750000D01*
X63799399Y-34750000D01*
X63742354Y-34463217D01*
X63579905Y-34220095D01*
X63336783Y-34057646D01*
X63122388Y-34015000D01*
X63050000Y-34000601D01*
X62977612Y-34015000D01*
X61122388Y-34015000D01*
X61050000Y-34000601D01*
X60977612Y-34015000D01*
X60763217Y-34057646D01*
X60520095Y-34220095D01*
X60357646Y-34463217D01*
X60300601Y-34750000D01*
X48999399Y-34750000D01*
X48942354Y-34463217D01*
X48779905Y-34220095D01*
X48536783Y-34057646D01*
X48322388Y-34015000D01*
X48250000Y-34000601D01*
X48177612Y-34015000D01*
X46322388Y-34015000D01*
X46250000Y-34000601D01*
X46177612Y-34015000D01*
X45963217Y-34057646D01*
X45720095Y-34220095D01*
X45557646Y-34463217D01*
X45500601Y-34750000D01*
X34999399Y-34750000D01*
X34942354Y-34463217D01*
X34779905Y-34220095D01*
X34536783Y-34057646D01*
X34322388Y-34015000D01*
X34250000Y-34000601D01*
X34177612Y-34015000D01*
X32322388Y-34015000D01*
X32250000Y-34000601D01*
X32177612Y-34015000D01*
X31963217Y-34057646D01*
X31720095Y-34220095D01*
X31557646Y-34463217D01*
X31500601Y-34750000D01*
X23448247Y-34750000D01*
X23634234Y-34655235D01*
X24155235Y-34134234D01*
X24489738Y-33477735D01*
X24605000Y-32750000D01*
X24489738Y-32022265D01*
X24155235Y-31365766D01*
X23634234Y-30844765D01*
X22977735Y-30510262D01*
X22250000Y-30395000D01*
X21522265Y-30510262D01*
X20865766Y-30844765D01*
X20344765Y-31365766D01*
X20010262Y-32022265D01*
X19985000Y-32181763D01*
X19985000Y-20485000D01*
X26181757Y-20485000D01*
X26022265Y-20510261D01*
G04 #@! TD*
M02*
