G04 #@! TF.GenerationSoftware,KiCad,Pcbnew,(5.0.2-5-10.14)*
G04 #@! TF.CreationDate,2019-06-16T16:00:31-04:00*
G04 #@! TF.ProjectId,panel,70616e65-6c2e-46b6-9963-61645f706362,rev?*
G04 #@! TF.SameCoordinates,Original*
G04 #@! TF.FileFunction,Profile,NP*
%FSLAX46Y46*%
G04 Gerber Fmt 4.6, Leading zero omitted, Abs format (unit mm)*
G04 Created by KiCad (PCBNEW (5.0.2-5-10.14)) date Sunday, June 16, 2019 at 04:00:31 PM*
%MOMM*%
%LPD*%
G01*
G04 APERTURE LIST*
%ADD10C,0.200000*%
G04 APERTURE END LIST*
D10*
X19250000Y-19750000D02*
X90050000Y-19750000D01*
X48250000Y-69750000D02*
X48250000Y-34750000D01*
X73970000Y-24350000D02*
X70970000Y-24350000D01*
X46250000Y-34750000D02*
X46250000Y-69750000D01*
X70550000Y-117250000D02*
G75*
G03X70550000Y-117250000I-3500000J0D01*
G01*
X88650000Y-32750000D02*
G75*
G03X88650000Y-32750000I-1600000J0D01*
G01*
X70970000Y-24350000D02*
G75*
G02X70970000Y-21150000I0J1600000D01*
G01*
X34250000Y-34750000D02*
X32250000Y-34750000D01*
X77050000Y-34750000D02*
X77050000Y-69750000D01*
X70970000Y-21150000D02*
X73970000Y-21150000D01*
X73970000Y-146850000D02*
X70970000Y-146850000D01*
X66650001Y-81750000D02*
G75*
G03X66650001Y-81750000I-4600001J0D01*
G01*
X32250000Y-34750000D02*
X32250000Y-69750000D01*
X23850000Y-32750000D02*
G75*
G03X23850000Y-32750000I-1600000J0D01*
G01*
X32250000Y-69750000D02*
X34250000Y-69750000D01*
X80650001Y-81750000D02*
G75*
G03X80650001Y-81750000I-4600001J0D01*
G01*
X63050000Y-34750000D02*
X63050000Y-69750000D01*
X75050000Y-34750000D02*
X77050000Y-34750000D01*
X61050000Y-69750000D02*
X61050000Y-34750000D01*
X46250000Y-69750000D02*
X48250000Y-69750000D01*
X37850000Y-81750000D02*
G75*
G03X37850000Y-81750000I-4600000J0D01*
G01*
X90050000Y-19750000D02*
X90050000Y-148250000D01*
X88650000Y-135250000D02*
G75*
G03X88650000Y-135250000I-1600000J0D01*
G01*
X19250000Y-148250000D02*
X19250000Y-19750000D01*
X61050000Y-34750000D02*
X63050000Y-34750000D01*
X34250000Y-69750000D02*
X34250000Y-34750000D01*
X28350001Y-22750000D02*
G75*
G03X28350001Y-22750000I-1600001J0D01*
G01*
X51850000Y-81750000D02*
G75*
G03X51850000Y-81750000I-4600000J0D01*
G01*
X90050000Y-148250000D02*
X19250000Y-148250000D01*
X63050000Y-69750000D02*
X61050000Y-69750000D01*
X23850000Y-135250000D02*
G75*
G03X23850000Y-135250000I-1600000J0D01*
G01*
X70300000Y-132250000D02*
G75*
G03X70300000Y-132250000I-3250000J0D01*
G01*
X73970000Y-21150000D02*
G75*
G02X73970000Y-24350000I0J-1600000D01*
G01*
X45500000Y-132250000D02*
G75*
G03X45500000Y-132250000I-3250000J0D01*
G01*
X73970000Y-143650000D02*
G75*
G02X73970000Y-146850000I0J-1600000D01*
G01*
X70970000Y-146850000D02*
G75*
G02X70970000Y-143650000I0J1600000D01*
G01*
X77050000Y-69750000D02*
X75050000Y-69750000D01*
X48250000Y-34750000D02*
X46250000Y-34750000D01*
X70970000Y-143650000D02*
X73970000Y-143650000D01*
X45750000Y-117250000D02*
G75*
G03X45750000Y-117250000I-3500000J0D01*
G01*
X28350001Y-145250000D02*
G75*
G03X28350001Y-145250000I-1600001J0D01*
G01*
X75050000Y-69750000D02*
X75050000Y-34750000D01*
M02*
