G04 #@! TF.GenerationSoftware,KiCad,Pcbnew,(5.0.2-5-10.14)*
G04 #@! TF.CreationDate,2019-06-16T16:00:31-04:00*
G04 #@! TF.ProjectId,panel,70616e65-6c2e-46b6-9963-61645f706362,rev?*
G04 #@! TF.SameCoordinates,Original*
G04 #@! TF.FileFunction,Copper,L1,Top*
G04 #@! TF.FilePolarity,Positive*
%FSLAX46Y46*%
G04 Gerber Fmt 4.6, Leading zero omitted, Abs format (unit mm)*
G04 Created by KiCad (PCBNEW (5.0.2-5-10.14)) date Sunday, June 16, 2019 at 04:00:31 PM*
%MOMM*%
%LPD*%
G01*
G04 APERTURE LIST*
G04 #@! TA.AperFunction,Conductor*
%ADD10C,0.254000*%
G04 #@! TD*
G04 APERTURE END LIST*
D10*
G04 #@! TO.N,GND*
G36*
X89723001Y-147923000D02*
X19577000Y-147923000D01*
X19577000Y-145277184D01*
X24803189Y-145277184D01*
X24845546Y-145654804D01*
X24960443Y-146017005D01*
X25143503Y-146349991D01*
X25387755Y-146641079D01*
X25683894Y-146879181D01*
X26020641Y-147055228D01*
X26385168Y-147162514D01*
X26763593Y-147196954D01*
X27141499Y-147157234D01*
X27504493Y-147044868D01*
X27838749Y-146864137D01*
X28131535Y-146621924D01*
X28371698Y-146327454D01*
X28550092Y-145991944D01*
X28659921Y-145628174D01*
X28697001Y-145250000D01*
X28696744Y-145231534D01*
X69044385Y-145231534D01*
X69044592Y-145261171D01*
X69044385Y-145290807D01*
X69044830Y-145295351D01*
X69077471Y-145605907D01*
X69083436Y-145634966D01*
X69088984Y-145664050D01*
X69090303Y-145668417D01*
X69090304Y-145668423D01*
X69090306Y-145668429D01*
X69182643Y-145966721D01*
X69194128Y-145994043D01*
X69205230Y-146021522D01*
X69207374Y-146025554D01*
X69355895Y-146300238D01*
X69372460Y-146324796D01*
X69388696Y-146349608D01*
X69391582Y-146353147D01*
X69590627Y-146593751D01*
X69611680Y-146614658D01*
X69632394Y-146635809D01*
X69635912Y-146638720D01*
X69877901Y-146836081D01*
X69902568Y-146852469D01*
X69927040Y-146869226D01*
X69931056Y-146871398D01*
X70206769Y-147017998D01*
X70234192Y-147029301D01*
X70261412Y-147040967D01*
X70265774Y-147042318D01*
X70564712Y-147132572D01*
X70593795Y-147138330D01*
X70622774Y-147144490D01*
X70627315Y-147144967D01*
X70938090Y-147175439D01*
X70938091Y-147175439D01*
X70953939Y-147177000D01*
X73986061Y-147177000D01*
X73987200Y-147176888D01*
X73994623Y-147176836D01*
X74009399Y-147175283D01*
X74024248Y-147175283D01*
X74028789Y-147174806D01*
X74339109Y-147139998D01*
X74368081Y-147133840D01*
X74397172Y-147128080D01*
X74401533Y-147126730D01*
X74699182Y-147032310D01*
X74726415Y-147020638D01*
X74753824Y-147009341D01*
X74757841Y-147007169D01*
X75031480Y-146856734D01*
X75055910Y-146840006D01*
X75080621Y-146823589D01*
X75084139Y-146820678D01*
X75323348Y-146619957D01*
X75344083Y-146598783D01*
X75365113Y-146577899D01*
X75367999Y-146574361D01*
X75563666Y-146331001D01*
X75579892Y-146306205D01*
X75596468Y-146281630D01*
X75598612Y-146277599D01*
X75743283Y-146000869D01*
X75754392Y-145973373D01*
X75765870Y-145946068D01*
X75767190Y-145941697D01*
X75855356Y-145642136D01*
X75860909Y-145613024D01*
X75866869Y-145583991D01*
X75867314Y-145579446D01*
X75895615Y-145268467D01*
X75895408Y-145238830D01*
X75895615Y-145209193D01*
X75895170Y-145204649D01*
X75862529Y-144894094D01*
X75856567Y-144865048D01*
X75851016Y-144835950D01*
X75849696Y-144831579D01*
X75757357Y-144533279D01*
X75745879Y-144505974D01*
X75734770Y-144478478D01*
X75732626Y-144474446D01*
X75584105Y-144199762D01*
X75567546Y-144175212D01*
X75551304Y-144150392D01*
X75548418Y-144146854D01*
X75349373Y-143906249D01*
X75328339Y-143885362D01*
X75307607Y-143864191D01*
X75304088Y-143861280D01*
X75062099Y-143663919D01*
X75037424Y-143647525D01*
X75012961Y-143630775D01*
X75008944Y-143628603D01*
X74733231Y-143482002D01*
X74705798Y-143470695D01*
X74678587Y-143459033D01*
X74674225Y-143457682D01*
X74375288Y-143367428D01*
X74346211Y-143361671D01*
X74317226Y-143355510D01*
X74312685Y-143355033D01*
X74001910Y-143324561D01*
X74001909Y-143324561D01*
X73986061Y-143323000D01*
X70953939Y-143323000D01*
X70952800Y-143323112D01*
X70945378Y-143323164D01*
X70930602Y-143324717D01*
X70915752Y-143324717D01*
X70911211Y-143325194D01*
X70600891Y-143360002D01*
X70571912Y-143366162D01*
X70542829Y-143371920D01*
X70538467Y-143373270D01*
X70240819Y-143467689D01*
X70213578Y-143479365D01*
X70186176Y-143490659D01*
X70182159Y-143492831D01*
X69908519Y-143643266D01*
X69884039Y-143660028D01*
X69859380Y-143676411D01*
X69855861Y-143679322D01*
X69616652Y-143880043D01*
X69595917Y-143901217D01*
X69574887Y-143922101D01*
X69572001Y-143925640D01*
X69376334Y-144168999D01*
X69360115Y-144193785D01*
X69343532Y-144218369D01*
X69341389Y-144222401D01*
X69196717Y-144499131D01*
X69185608Y-144526627D01*
X69174130Y-144553932D01*
X69172810Y-144558303D01*
X69084644Y-144857864D01*
X69079091Y-144886976D01*
X69073131Y-144916009D01*
X69072686Y-144920554D01*
X69044385Y-145231534D01*
X28696744Y-145231534D01*
X28696242Y-145195637D01*
X28648617Y-144818645D01*
X28528674Y-144458083D01*
X28340982Y-144127686D01*
X28092690Y-143840037D01*
X27793255Y-143606093D01*
X27454083Y-143434765D01*
X27088093Y-143332578D01*
X26709225Y-143303426D01*
X26331910Y-143348418D01*
X25970520Y-143465841D01*
X25638820Y-143651222D01*
X25349445Y-143897499D01*
X25113416Y-144195294D01*
X24939724Y-144533261D01*
X24834985Y-144898529D01*
X24803189Y-145277184D01*
X19577000Y-145277184D01*
X19577000Y-135277184D01*
X20303190Y-135277184D01*
X20345547Y-135654804D01*
X20460443Y-136017005D01*
X20643504Y-136349991D01*
X20887755Y-136641078D01*
X21183894Y-136879180D01*
X21520641Y-137055227D01*
X21885169Y-137162513D01*
X22263593Y-137196953D01*
X22641499Y-137157233D01*
X23004493Y-137044868D01*
X23338749Y-136864136D01*
X23631534Y-136621923D01*
X23871698Y-136327453D01*
X24050091Y-135991944D01*
X24159920Y-135628174D01*
X24197000Y-135250000D01*
X24196241Y-135195637D01*
X24148616Y-134818645D01*
X24028673Y-134458084D01*
X23840981Y-134127686D01*
X23592689Y-133840037D01*
X23293255Y-133606094D01*
X22954083Y-133434766D01*
X22588093Y-133332579D01*
X22209225Y-133303427D01*
X21831910Y-133348419D01*
X21470520Y-133465842D01*
X21138821Y-133651222D01*
X20849445Y-133897500D01*
X20613417Y-134195294D01*
X20439725Y-134533261D01*
X20334986Y-134898529D01*
X20303190Y-135277184D01*
X19577000Y-135277184D01*
X19577000Y-132300222D01*
X38653351Y-132300222D01*
X38731603Y-132997858D01*
X38943870Y-133667009D01*
X39282067Y-134282186D01*
X39733311Y-134819958D01*
X40280415Y-135259841D01*
X40902540Y-135585080D01*
X41575989Y-135783287D01*
X42275112Y-135846912D01*
X42973277Y-135773532D01*
X43643894Y-135565942D01*
X44261417Y-135232048D01*
X44802326Y-134784569D01*
X45246018Y-134240549D01*
X45575592Y-133620710D01*
X45778496Y-132948661D01*
X45842075Y-132300222D01*
X63453351Y-132300222D01*
X63531603Y-132997858D01*
X63743870Y-133667009D01*
X64082067Y-134282186D01*
X64533311Y-134819958D01*
X65080415Y-135259841D01*
X65702540Y-135585080D01*
X66375989Y-135783287D01*
X67075112Y-135846912D01*
X67773277Y-135773532D01*
X68443894Y-135565942D01*
X68977939Y-135277184D01*
X85103190Y-135277184D01*
X85145547Y-135654804D01*
X85260443Y-136017005D01*
X85443504Y-136349991D01*
X85687755Y-136641078D01*
X85983894Y-136879180D01*
X86320641Y-137055227D01*
X86685169Y-137162513D01*
X87063593Y-137196953D01*
X87441499Y-137157233D01*
X87804493Y-137044868D01*
X88138749Y-136864136D01*
X88431534Y-136621923D01*
X88671698Y-136327453D01*
X88850091Y-135991944D01*
X88959920Y-135628174D01*
X88997000Y-135250000D01*
X88996241Y-135195637D01*
X88948616Y-134818645D01*
X88828673Y-134458084D01*
X88640981Y-134127686D01*
X88392689Y-133840037D01*
X88093255Y-133606094D01*
X87754083Y-133434766D01*
X87388093Y-133332579D01*
X87009225Y-133303427D01*
X86631910Y-133348419D01*
X86270520Y-133465842D01*
X85938821Y-133651222D01*
X85649445Y-133897500D01*
X85413417Y-134195294D01*
X85239725Y-134533261D01*
X85134986Y-134898529D01*
X85103190Y-135277184D01*
X68977939Y-135277184D01*
X69061417Y-135232048D01*
X69602326Y-134784569D01*
X70046018Y-134240549D01*
X70375592Y-133620710D01*
X70578496Y-132948661D01*
X70647000Y-132250000D01*
X70645598Y-132149566D01*
X70557612Y-131453090D01*
X70336023Y-130786968D01*
X69989270Y-130176573D01*
X69530561Y-129645154D01*
X68977369Y-129212952D01*
X68350764Y-128896431D01*
X67674612Y-128707647D01*
X66974670Y-128653789D01*
X66277597Y-128736910D01*
X65609945Y-128953843D01*
X64997143Y-129296326D01*
X64462535Y-129751314D01*
X64026482Y-130301476D01*
X63705594Y-130925856D01*
X63512093Y-131600673D01*
X63453351Y-132300222D01*
X45842075Y-132300222D01*
X45847000Y-132250000D01*
X45845598Y-132149566D01*
X45757612Y-131453090D01*
X45536023Y-130786968D01*
X45189270Y-130176573D01*
X44730561Y-129645154D01*
X44177369Y-129212952D01*
X43550764Y-128896431D01*
X42874612Y-128707647D01*
X42174670Y-128653789D01*
X41477597Y-128736910D01*
X40809945Y-128953843D01*
X40197143Y-129296326D01*
X39662535Y-129751314D01*
X39226482Y-130301476D01*
X38905594Y-130925856D01*
X38712093Y-131600673D01*
X38653351Y-132300222D01*
X19577000Y-132300222D01*
X19577000Y-117303713D01*
X38403375Y-117303713D01*
X38487066Y-118049836D01*
X38714086Y-118765495D01*
X39075788Y-119423428D01*
X39558395Y-119998576D01*
X40143524Y-120469032D01*
X40808888Y-120816876D01*
X41529144Y-121028859D01*
X42276857Y-121096906D01*
X43023547Y-121018426D01*
X43740772Y-120796408D01*
X44401215Y-120439308D01*
X44979719Y-119960728D01*
X45454248Y-119378897D01*
X45806729Y-118715978D01*
X46023734Y-117997220D01*
X46091733Y-117303713D01*
X63203375Y-117303713D01*
X63287066Y-118049836D01*
X63514086Y-118765495D01*
X63875788Y-119423428D01*
X64358395Y-119998576D01*
X64943524Y-120469032D01*
X65608888Y-120816876D01*
X66329144Y-121028859D01*
X67076857Y-121096906D01*
X67823547Y-121018426D01*
X68540772Y-120796408D01*
X69201215Y-120439308D01*
X69779719Y-119960728D01*
X70254248Y-119378897D01*
X70606729Y-118715978D01*
X70823734Y-117997220D01*
X70897000Y-117250000D01*
X70895500Y-117142585D01*
X70801400Y-116397703D01*
X70564409Y-115685284D01*
X70193556Y-115032465D01*
X69702966Y-114464111D01*
X69111326Y-114001870D01*
X68441170Y-113663350D01*
X67718025Y-113461445D01*
X66969435Y-113403844D01*
X66223913Y-113492742D01*
X65509857Y-113724753D01*
X64854465Y-114091039D01*
X64282700Y-114577649D01*
X63816340Y-115166049D01*
X63473150Y-115833825D01*
X63266201Y-116555543D01*
X63203375Y-117303713D01*
X46091733Y-117303713D01*
X46097000Y-117250000D01*
X46095500Y-117142585D01*
X46001400Y-116397703D01*
X45764409Y-115685284D01*
X45393556Y-115032465D01*
X44902966Y-114464111D01*
X44311326Y-114001870D01*
X43641170Y-113663350D01*
X42918025Y-113461445D01*
X42169435Y-113403844D01*
X41423913Y-113492742D01*
X40709857Y-113724753D01*
X40054465Y-114091039D01*
X39482700Y-114577649D01*
X39016340Y-115166049D01*
X38673150Y-115833825D01*
X38466201Y-116555543D01*
X38403375Y-117303713D01*
X19577000Y-117303713D01*
X19577000Y-91803325D01*
X30483176Y-91803325D01*
X30483196Y-91817045D01*
X30493196Y-91997045D01*
X30493698Y-92003295D01*
X30513698Y-92193295D01*
X30515819Y-92206610D01*
X30575819Y-92486610D01*
X30577886Y-92494890D01*
X30637886Y-92704890D01*
X30644111Y-92721950D01*
X30774111Y-93011950D01*
X30781098Y-93025341D01*
X30931098Y-93275341D01*
X30937291Y-93284698D01*
X31097291Y-93504698D01*
X31108034Y-93517586D01*
X31308034Y-93727586D01*
X31315853Y-93735123D01*
X31575853Y-93965123D01*
X31590401Y-93976231D01*
X31880401Y-94166231D01*
X31898138Y-94175928D01*
X32278138Y-94345928D01*
X32294165Y-94351839D01*
X32634165Y-94451839D01*
X32650193Y-94455446D01*
X32840193Y-94485446D01*
X32848502Y-94486478D01*
X33178502Y-94516478D01*
X33194700Y-94516913D01*
X33464700Y-94506913D01*
X33479025Y-94505567D01*
X33809025Y-94455567D01*
X33823416Y-94452525D01*
X34153416Y-94362525D01*
X34168559Y-94357350D01*
X34458559Y-94237350D01*
X34472053Y-94230808D01*
X34722053Y-94090808D01*
X34733088Y-94083861D01*
X35003088Y-93893861D01*
X35017872Y-93881693D01*
X35257872Y-93651693D01*
X35266950Y-93642035D01*
X35486950Y-93382035D01*
X35497984Y-93366847D01*
X35627984Y-93156847D01*
X35631493Y-93150814D01*
X35811493Y-92820814D01*
X35821715Y-92796256D01*
X35961715Y-92326256D01*
X35965523Y-92309311D01*
X36005523Y-92049311D01*
X36006899Y-92035076D01*
X36016169Y-91803325D01*
X44483176Y-91803325D01*
X44483196Y-91817045D01*
X44493196Y-91997045D01*
X44493698Y-92003295D01*
X44513698Y-92193295D01*
X44515819Y-92206610D01*
X44575819Y-92486610D01*
X44577886Y-92494890D01*
X44637886Y-92704890D01*
X44644111Y-92721950D01*
X44774111Y-93011950D01*
X44781098Y-93025341D01*
X44931098Y-93275341D01*
X44937291Y-93284698D01*
X45097291Y-93504698D01*
X45108034Y-93517586D01*
X45308034Y-93727586D01*
X45315853Y-93735123D01*
X45575853Y-93965123D01*
X45590401Y-93976231D01*
X45880401Y-94166231D01*
X45898138Y-94175928D01*
X46278138Y-94345928D01*
X46294165Y-94351839D01*
X46634165Y-94451839D01*
X46650193Y-94455446D01*
X46840193Y-94485446D01*
X46848502Y-94486478D01*
X47178502Y-94516478D01*
X47194700Y-94516913D01*
X47464700Y-94506913D01*
X47479025Y-94505567D01*
X47809025Y-94455567D01*
X47823416Y-94452525D01*
X48153416Y-94362525D01*
X48168559Y-94357350D01*
X48458559Y-94237350D01*
X48472053Y-94230808D01*
X48722053Y-94090808D01*
X48733088Y-94083861D01*
X49003088Y-93893861D01*
X49017872Y-93881693D01*
X49257872Y-93651693D01*
X49266950Y-93642035D01*
X49486950Y-93382035D01*
X49497984Y-93366847D01*
X49627984Y-93156847D01*
X49631493Y-93150814D01*
X49811493Y-92820814D01*
X49821715Y-92796256D01*
X49961715Y-92326256D01*
X49965523Y-92309311D01*
X50005523Y-92049311D01*
X50006899Y-92035076D01*
X50016663Y-91790954D01*
X59286721Y-91790954D01*
X59286741Y-91804674D01*
X59296741Y-91984674D01*
X59297243Y-91990924D01*
X59317243Y-92180924D01*
X59319364Y-92194239D01*
X59379364Y-92474239D01*
X59381431Y-92482519D01*
X59441431Y-92692519D01*
X59447656Y-92709579D01*
X59577656Y-92999579D01*
X59584643Y-93012970D01*
X59734643Y-93262970D01*
X59740836Y-93272327D01*
X59900836Y-93492327D01*
X59911579Y-93505215D01*
X60111579Y-93715215D01*
X60119398Y-93722752D01*
X60379398Y-93952752D01*
X60393946Y-93963860D01*
X60683946Y-94153860D01*
X60701683Y-94163557D01*
X61081683Y-94333557D01*
X61097710Y-94339468D01*
X61437710Y-94439468D01*
X61453738Y-94443075D01*
X61643738Y-94473075D01*
X61652047Y-94474107D01*
X61982047Y-94504107D01*
X61998245Y-94504542D01*
X62268245Y-94494542D01*
X62282570Y-94493196D01*
X62612570Y-94443196D01*
X62626961Y-94440154D01*
X62956961Y-94350154D01*
X62972104Y-94344979D01*
X63262104Y-94224979D01*
X63275598Y-94218437D01*
X63525598Y-94078437D01*
X63536633Y-94071490D01*
X63806633Y-93881490D01*
X63821417Y-93869322D01*
X64061417Y-93639322D01*
X64070495Y-93629664D01*
X64290495Y-93369664D01*
X64301529Y-93354476D01*
X64431529Y-93144476D01*
X64435038Y-93138443D01*
X64615038Y-92808443D01*
X64625260Y-92783885D01*
X64765260Y-92313885D01*
X64769068Y-92296940D01*
X64809068Y-92036940D01*
X64810444Y-92022705D01*
X64819219Y-91803325D01*
X73283176Y-91803325D01*
X73283196Y-91817045D01*
X73293196Y-91997045D01*
X73293698Y-92003295D01*
X73313698Y-92193295D01*
X73315819Y-92206610D01*
X73375819Y-92486610D01*
X73377886Y-92494890D01*
X73437886Y-92704890D01*
X73444111Y-92721950D01*
X73574111Y-93011950D01*
X73581098Y-93025341D01*
X73731098Y-93275341D01*
X73737291Y-93284698D01*
X73897291Y-93504698D01*
X73908034Y-93517586D01*
X74108034Y-93727586D01*
X74115853Y-93735123D01*
X74375853Y-93965123D01*
X74390401Y-93976231D01*
X74680401Y-94166231D01*
X74698138Y-94175928D01*
X75078138Y-94345928D01*
X75094165Y-94351839D01*
X75434165Y-94451839D01*
X75450193Y-94455446D01*
X75640193Y-94485446D01*
X75648502Y-94486478D01*
X75978502Y-94516478D01*
X75994700Y-94516913D01*
X76264700Y-94506913D01*
X76279025Y-94505567D01*
X76609025Y-94455567D01*
X76623416Y-94452525D01*
X76953416Y-94362525D01*
X76968559Y-94357350D01*
X77258559Y-94237350D01*
X77272053Y-94230808D01*
X77522053Y-94090808D01*
X77533088Y-94083861D01*
X77803088Y-93893861D01*
X77817872Y-93881693D01*
X78057872Y-93651693D01*
X78066950Y-93642035D01*
X78286950Y-93382035D01*
X78297984Y-93366847D01*
X78427984Y-93156847D01*
X78431493Y-93150814D01*
X78611493Y-92820814D01*
X78621715Y-92796256D01*
X78761715Y-92326256D01*
X78765523Y-92309311D01*
X78805523Y-92049311D01*
X78806899Y-92035076D01*
X78816899Y-91785076D01*
X78816899Y-91774924D01*
X78806899Y-91524924D01*
X78806077Y-91514718D01*
X78766077Y-91184718D01*
X78762296Y-91165757D01*
X78692296Y-90915757D01*
X78688680Y-90904789D01*
X78608680Y-90694789D01*
X78604571Y-90685205D01*
X78494571Y-90455205D01*
X78489700Y-90446008D01*
X78349700Y-90206008D01*
X78340248Y-90192030D01*
X78200248Y-90012030D01*
X78195577Y-90006370D01*
X78055577Y-89846370D01*
X78049803Y-89840197D01*
X77859803Y-89650197D01*
X77849336Y-89640830D01*
X77699336Y-89520830D01*
X77691949Y-89515347D01*
X77531949Y-89405347D01*
X77518592Y-89397323D01*
X77268592Y-89267323D01*
X77258086Y-89262456D01*
X77038086Y-89172456D01*
X77031722Y-89170049D01*
X76801722Y-89090049D01*
X76789416Y-89086454D01*
X76579416Y-89036454D01*
X76565752Y-89033981D01*
X76325752Y-89003981D01*
X76318448Y-89003281D01*
X76168448Y-88993281D01*
X76160000Y-88993000D01*
X76050000Y-88993000D01*
X76043658Y-88993158D01*
X75843658Y-89003158D01*
X75831388Y-89004371D01*
X75561388Y-89044371D01*
X75553837Y-89045724D01*
X75363837Y-89085724D01*
X75353921Y-89088233D01*
X75083921Y-89168233D01*
X75069504Y-89173470D01*
X74769504Y-89303470D01*
X74752690Y-89312304D01*
X74592690Y-89412304D01*
X74589553Y-89414330D01*
X74439553Y-89514330D01*
X74433800Y-89518400D01*
X74313800Y-89608400D01*
X74304183Y-89616381D01*
X74184183Y-89726381D01*
X74183139Y-89727349D01*
X74023139Y-89877349D01*
X74016381Y-89884183D01*
X73906381Y-90004183D01*
X73899337Y-90012567D01*
X73799337Y-90142567D01*
X73791633Y-90153776D01*
X73681633Y-90333776D01*
X73678721Y-90338796D01*
X73568721Y-90538796D01*
X73563648Y-90549096D01*
X73423648Y-90869096D01*
X73417475Y-90886584D01*
X73357475Y-91106584D01*
X73354978Y-91117675D01*
X73304978Y-91397675D01*
X73303158Y-91413658D01*
X73293158Y-91613658D01*
X73283176Y-91803325D01*
X64819219Y-91803325D01*
X64820444Y-91772705D01*
X64820444Y-91762553D01*
X64810444Y-91512553D01*
X64809622Y-91502347D01*
X64769622Y-91172347D01*
X64765841Y-91153386D01*
X64695841Y-90903386D01*
X64692225Y-90892418D01*
X64612225Y-90682418D01*
X64608116Y-90672834D01*
X64498116Y-90442834D01*
X64493245Y-90433637D01*
X64353245Y-90193637D01*
X64343793Y-90179659D01*
X64203793Y-89999659D01*
X64199122Y-89993999D01*
X64059122Y-89833999D01*
X64053348Y-89827826D01*
X63863348Y-89637826D01*
X63852881Y-89628459D01*
X63702881Y-89508459D01*
X63695494Y-89502976D01*
X63535494Y-89392976D01*
X63522137Y-89384952D01*
X63272137Y-89254952D01*
X63261631Y-89250085D01*
X63041631Y-89160085D01*
X63035267Y-89157678D01*
X62805267Y-89077678D01*
X62792961Y-89074083D01*
X62582961Y-89024083D01*
X62569297Y-89021610D01*
X62329297Y-88991610D01*
X62321993Y-88990910D01*
X62171993Y-88980910D01*
X62163545Y-88980629D01*
X62053545Y-88980629D01*
X62047203Y-88980787D01*
X61847203Y-88990787D01*
X61834933Y-88992000D01*
X61564933Y-89032000D01*
X61557382Y-89033353D01*
X61367382Y-89073353D01*
X61357466Y-89075862D01*
X61087466Y-89155862D01*
X61073049Y-89161099D01*
X60773049Y-89291099D01*
X60756235Y-89299933D01*
X60596235Y-89399933D01*
X60593098Y-89401959D01*
X60443098Y-89501959D01*
X60437345Y-89506029D01*
X60317345Y-89596029D01*
X60307728Y-89604010D01*
X60187728Y-89714010D01*
X60186684Y-89714978D01*
X60026684Y-89864978D01*
X60019926Y-89871812D01*
X59909926Y-89991812D01*
X59902882Y-90000196D01*
X59802882Y-90130196D01*
X59795178Y-90141405D01*
X59685178Y-90321405D01*
X59682266Y-90326425D01*
X59572266Y-90526425D01*
X59567193Y-90536725D01*
X59427193Y-90856725D01*
X59421020Y-90874213D01*
X59361020Y-91094213D01*
X59358523Y-91105304D01*
X59308523Y-91385304D01*
X59306703Y-91401287D01*
X59296703Y-91601287D01*
X59286721Y-91790954D01*
X50016663Y-91790954D01*
X50016899Y-91785076D01*
X50016899Y-91774924D01*
X50006899Y-91524924D01*
X50006077Y-91514718D01*
X49966077Y-91184718D01*
X49962296Y-91165757D01*
X49892296Y-90915757D01*
X49888680Y-90904789D01*
X49808680Y-90694789D01*
X49804571Y-90685205D01*
X49694571Y-90455205D01*
X49689700Y-90446008D01*
X49549700Y-90206008D01*
X49540248Y-90192030D01*
X49400248Y-90012030D01*
X49395577Y-90006370D01*
X49255577Y-89846370D01*
X49249803Y-89840197D01*
X49059803Y-89650197D01*
X49049336Y-89640830D01*
X48899336Y-89520830D01*
X48891949Y-89515347D01*
X48731949Y-89405347D01*
X48718592Y-89397323D01*
X48468592Y-89267323D01*
X48458086Y-89262456D01*
X48238086Y-89172456D01*
X48231722Y-89170049D01*
X48001722Y-89090049D01*
X47989416Y-89086454D01*
X47779416Y-89036454D01*
X47765752Y-89033981D01*
X47525752Y-89003981D01*
X47518448Y-89003281D01*
X47368448Y-88993281D01*
X47360000Y-88993000D01*
X47250000Y-88993000D01*
X47243658Y-88993158D01*
X47043658Y-89003158D01*
X47031388Y-89004371D01*
X46761388Y-89044371D01*
X46753837Y-89045724D01*
X46563837Y-89085724D01*
X46553921Y-89088233D01*
X46283921Y-89168233D01*
X46269504Y-89173470D01*
X45969504Y-89303470D01*
X45952690Y-89312304D01*
X45792690Y-89412304D01*
X45789553Y-89414330D01*
X45639553Y-89514330D01*
X45633800Y-89518400D01*
X45513800Y-89608400D01*
X45504183Y-89616381D01*
X45384183Y-89726381D01*
X45383139Y-89727349D01*
X45223139Y-89877349D01*
X45216381Y-89884183D01*
X45106381Y-90004183D01*
X45099337Y-90012567D01*
X44999337Y-90142567D01*
X44991633Y-90153776D01*
X44881633Y-90333776D01*
X44878721Y-90338796D01*
X44768721Y-90538796D01*
X44763648Y-90549096D01*
X44623648Y-90869096D01*
X44617475Y-90886584D01*
X44557475Y-91106584D01*
X44554978Y-91117675D01*
X44504978Y-91397675D01*
X44503158Y-91413658D01*
X44493158Y-91613658D01*
X44483176Y-91803325D01*
X36016169Y-91803325D01*
X36016899Y-91785076D01*
X36016899Y-91774924D01*
X36006899Y-91524924D01*
X36006077Y-91514718D01*
X35966077Y-91184718D01*
X35962296Y-91165757D01*
X35892296Y-90915757D01*
X35888680Y-90904789D01*
X35808680Y-90694789D01*
X35804571Y-90685205D01*
X35694571Y-90455205D01*
X35689700Y-90446008D01*
X35549700Y-90206008D01*
X35540248Y-90192030D01*
X35400248Y-90012030D01*
X35395577Y-90006370D01*
X35255577Y-89846370D01*
X35249803Y-89840197D01*
X35059803Y-89650197D01*
X35049336Y-89640830D01*
X34899336Y-89520830D01*
X34891949Y-89515347D01*
X34731949Y-89405347D01*
X34718592Y-89397323D01*
X34468592Y-89267323D01*
X34458086Y-89262456D01*
X34238086Y-89172456D01*
X34231722Y-89170049D01*
X34001722Y-89090049D01*
X33989416Y-89086454D01*
X33779416Y-89036454D01*
X33765752Y-89033981D01*
X33525752Y-89003981D01*
X33518448Y-89003281D01*
X33368448Y-88993281D01*
X33360000Y-88993000D01*
X33250000Y-88993000D01*
X33243658Y-88993158D01*
X33043658Y-89003158D01*
X33031388Y-89004371D01*
X32761388Y-89044371D01*
X32753837Y-89045724D01*
X32563837Y-89085724D01*
X32553921Y-89088233D01*
X32283921Y-89168233D01*
X32269504Y-89173470D01*
X31969504Y-89303470D01*
X31952690Y-89312304D01*
X31792690Y-89412304D01*
X31789553Y-89414330D01*
X31639553Y-89514330D01*
X31633800Y-89518400D01*
X31513800Y-89608400D01*
X31504183Y-89616381D01*
X31384183Y-89726381D01*
X31383139Y-89727349D01*
X31223139Y-89877349D01*
X31216381Y-89884183D01*
X31106381Y-90004183D01*
X31099337Y-90012567D01*
X30999337Y-90142567D01*
X30991633Y-90153776D01*
X30881633Y-90333776D01*
X30878721Y-90338796D01*
X30768721Y-90538796D01*
X30763648Y-90549096D01*
X30623648Y-90869096D01*
X30617475Y-90886584D01*
X30557475Y-91106584D01*
X30554978Y-91117675D01*
X30504978Y-91397675D01*
X30503158Y-91413658D01*
X30493158Y-91613658D01*
X30483176Y-91803325D01*
X19577000Y-91803325D01*
X19577000Y-81879497D01*
X28304695Y-81879497D01*
X28411104Y-82778539D01*
X28679568Y-83643135D01*
X29101097Y-84444329D01*
X29661573Y-85155290D01*
X30342226Y-85752207D01*
X31120262Y-86215089D01*
X31969622Y-86528435D01*
X32861863Y-86681750D01*
X33767102Y-86669900D01*
X34655024Y-86493281D01*
X35495891Y-86157809D01*
X36261543Y-85674719D01*
X36926337Y-85060189D01*
X37468011Y-84334800D01*
X37868422Y-83522846D01*
X38114162Y-82651519D01*
X38185100Y-81879497D01*
X42304695Y-81879497D01*
X42411104Y-82778539D01*
X42679568Y-83643135D01*
X43101097Y-84444329D01*
X43661573Y-85155290D01*
X44342226Y-85752207D01*
X45120262Y-86215089D01*
X45969622Y-86528435D01*
X46861863Y-86681750D01*
X47767102Y-86669900D01*
X48655024Y-86493281D01*
X49495891Y-86157809D01*
X50261543Y-85674719D01*
X50926337Y-85060189D01*
X51468011Y-84334800D01*
X51868422Y-83522846D01*
X52114162Y-82651519D01*
X52185100Y-81879497D01*
X57104694Y-81879497D01*
X57211103Y-82778539D01*
X57479567Y-83643135D01*
X57901096Y-84444330D01*
X58461572Y-85155291D01*
X59142226Y-85752208D01*
X59920261Y-86215090D01*
X60769622Y-86528436D01*
X61661863Y-86681751D01*
X62567102Y-86669901D01*
X63455024Y-86493282D01*
X64295891Y-86157810D01*
X65061543Y-85674720D01*
X65726338Y-85060190D01*
X66268012Y-84334801D01*
X66668423Y-83522847D01*
X66914163Y-82651519D01*
X66985101Y-81879497D01*
X71104694Y-81879497D01*
X71211103Y-82778539D01*
X71479567Y-83643135D01*
X71901096Y-84444330D01*
X72461572Y-85155291D01*
X73142226Y-85752208D01*
X73920261Y-86215090D01*
X74769622Y-86528436D01*
X75661863Y-86681751D01*
X76567102Y-86669901D01*
X77455024Y-86493282D01*
X78295891Y-86157810D01*
X79061543Y-85674720D01*
X79726338Y-85060190D01*
X80268012Y-84334801D01*
X80668423Y-83522847D01*
X80914163Y-82651519D01*
X80997001Y-81750000D01*
X80990221Y-81491094D01*
X80860315Y-80595146D01*
X80569310Y-79737873D01*
X80126953Y-78947988D01*
X79548058Y-78251942D01*
X78852012Y-77673047D01*
X78062127Y-77230690D01*
X77204854Y-76939685D01*
X76308906Y-76809779D01*
X75404287Y-76845321D01*
X74521293Y-77045122D01*
X73689495Y-77402491D01*
X72936751Y-77905458D01*
X72288271Y-78537180D01*
X71765771Y-79276500D01*
X71386752Y-80098657D01*
X71163905Y-80976119D01*
X71104694Y-81879497D01*
X66985101Y-81879497D01*
X66997001Y-81750000D01*
X66990221Y-81491094D01*
X66860315Y-80595146D01*
X66569310Y-79737873D01*
X66126953Y-78947988D01*
X65548058Y-78251942D01*
X64852012Y-77673047D01*
X64062127Y-77230690D01*
X63204854Y-76939685D01*
X62308906Y-76809779D01*
X61404287Y-76845321D01*
X60521293Y-77045122D01*
X59689495Y-77402491D01*
X58936751Y-77905458D01*
X58288271Y-78537180D01*
X57765771Y-79276500D01*
X57386752Y-80098657D01*
X57163905Y-80976119D01*
X57104694Y-81879497D01*
X52185100Y-81879497D01*
X52197000Y-81750000D01*
X52190220Y-81491094D01*
X52060314Y-80595146D01*
X51769309Y-79737874D01*
X51326952Y-78947988D01*
X50748057Y-78251943D01*
X50052012Y-77673048D01*
X49262126Y-77230691D01*
X48404854Y-76939686D01*
X47508906Y-76809780D01*
X46604287Y-76845322D01*
X45721293Y-77045123D01*
X44889496Y-77402492D01*
X44136752Y-77905459D01*
X43488272Y-78537181D01*
X42965772Y-79276500D01*
X42586753Y-80098657D01*
X42363906Y-80976119D01*
X42304695Y-81879497D01*
X38185100Y-81879497D01*
X38197000Y-81750000D01*
X38190220Y-81491094D01*
X38060314Y-80595146D01*
X37769309Y-79737874D01*
X37326952Y-78947988D01*
X36748057Y-78251943D01*
X36052012Y-77673048D01*
X35262126Y-77230691D01*
X34404854Y-76939686D01*
X33508906Y-76809780D01*
X32604287Y-76845322D01*
X31721293Y-77045123D01*
X30889496Y-77402492D01*
X30136752Y-77905459D01*
X29488272Y-78537181D01*
X28965772Y-79276500D01*
X28586753Y-80098657D01*
X28363906Y-80976119D01*
X28304695Y-81879497D01*
X19577000Y-81879497D01*
X19577000Y-34750000D01*
X31921418Y-34750000D01*
X31923000Y-34766061D01*
X31923001Y-69733929D01*
X31921418Y-69750000D01*
X31927732Y-69814103D01*
X31946430Y-69875743D01*
X31976794Y-69932550D01*
X32017657Y-69982343D01*
X32067450Y-70023206D01*
X32124257Y-70053570D01*
X32185897Y-70072268D01*
X32233939Y-70077000D01*
X32250000Y-70078582D01*
X32266061Y-70077000D01*
X34233939Y-70077000D01*
X34250000Y-70078582D01*
X34266061Y-70077000D01*
X34314103Y-70072268D01*
X34375743Y-70053570D01*
X34432550Y-70023206D01*
X34482343Y-69982343D01*
X34523206Y-69932550D01*
X34553570Y-69875743D01*
X34572268Y-69814103D01*
X34578582Y-69750000D01*
X34577000Y-69733939D01*
X34577000Y-34766061D01*
X34578582Y-34750000D01*
X45921418Y-34750000D01*
X45923000Y-34766061D01*
X45923001Y-69733929D01*
X45921418Y-69750000D01*
X45927732Y-69814103D01*
X45946430Y-69875743D01*
X45976794Y-69932550D01*
X46017657Y-69982343D01*
X46067450Y-70023206D01*
X46124257Y-70053570D01*
X46185897Y-70072268D01*
X46233939Y-70077000D01*
X46250000Y-70078582D01*
X46266061Y-70077000D01*
X48233939Y-70077000D01*
X48250000Y-70078582D01*
X48266061Y-70077000D01*
X48314103Y-70072268D01*
X48375743Y-70053570D01*
X48432550Y-70023206D01*
X48482343Y-69982343D01*
X48523206Y-69932550D01*
X48553570Y-69875743D01*
X48572268Y-69814103D01*
X48578582Y-69750000D01*
X48577000Y-69733939D01*
X48577000Y-34766061D01*
X48578582Y-34750000D01*
X60721418Y-34750000D01*
X60723001Y-34766071D01*
X60723000Y-69733939D01*
X60721418Y-69750000D01*
X60727732Y-69814103D01*
X60746430Y-69875743D01*
X60776794Y-69932550D01*
X60817657Y-69982343D01*
X60867450Y-70023206D01*
X60924257Y-70053570D01*
X60985897Y-70072268D01*
X61050000Y-70078582D01*
X61066061Y-70077000D01*
X63033939Y-70077000D01*
X63050000Y-70078582D01*
X63066061Y-70077000D01*
X63114103Y-70072268D01*
X63175743Y-70053570D01*
X63232550Y-70023206D01*
X63282343Y-69982343D01*
X63323206Y-69932550D01*
X63353570Y-69875743D01*
X63372268Y-69814103D01*
X63378582Y-69750000D01*
X63377000Y-69733939D01*
X63377000Y-34766061D01*
X63378582Y-34750000D01*
X74721418Y-34750000D01*
X74723001Y-34766071D01*
X74723000Y-69733939D01*
X74721418Y-69750000D01*
X74727732Y-69814103D01*
X74746430Y-69875743D01*
X74776794Y-69932550D01*
X74817657Y-69982343D01*
X74867450Y-70023206D01*
X74924257Y-70053570D01*
X74985897Y-70072268D01*
X75050000Y-70078582D01*
X75066061Y-70077000D01*
X77033939Y-70077000D01*
X77050000Y-70078582D01*
X77066061Y-70077000D01*
X77114103Y-70072268D01*
X77175743Y-70053570D01*
X77232550Y-70023206D01*
X77282343Y-69982343D01*
X77323206Y-69932550D01*
X77353570Y-69875743D01*
X77372268Y-69814103D01*
X77378582Y-69750000D01*
X77377000Y-69733939D01*
X77377000Y-34766061D01*
X77378582Y-34750000D01*
X77372268Y-34685897D01*
X77353570Y-34624257D01*
X77323206Y-34567450D01*
X77282343Y-34517657D01*
X77232550Y-34476794D01*
X77175743Y-34446430D01*
X77114103Y-34427732D01*
X77066061Y-34423000D01*
X77050000Y-34421418D01*
X77033939Y-34423000D01*
X75066061Y-34423000D01*
X75050000Y-34421418D01*
X75033939Y-34423000D01*
X74985897Y-34427732D01*
X74924257Y-34446430D01*
X74867450Y-34476794D01*
X74817657Y-34517657D01*
X74776794Y-34567450D01*
X74746430Y-34624257D01*
X74727732Y-34685897D01*
X74721418Y-34750000D01*
X63378582Y-34750000D01*
X63372268Y-34685897D01*
X63353570Y-34624257D01*
X63323206Y-34567450D01*
X63282343Y-34517657D01*
X63232550Y-34476794D01*
X63175743Y-34446430D01*
X63114103Y-34427732D01*
X63066061Y-34423000D01*
X63050000Y-34421418D01*
X63033939Y-34423000D01*
X61066061Y-34423000D01*
X61050000Y-34421418D01*
X61033939Y-34423000D01*
X60985897Y-34427732D01*
X60924257Y-34446430D01*
X60867450Y-34476794D01*
X60817657Y-34517657D01*
X60776794Y-34567450D01*
X60746430Y-34624257D01*
X60727732Y-34685897D01*
X60721418Y-34750000D01*
X48578582Y-34750000D01*
X48572268Y-34685897D01*
X48553570Y-34624257D01*
X48523206Y-34567450D01*
X48482343Y-34517657D01*
X48432550Y-34476794D01*
X48375743Y-34446430D01*
X48314103Y-34427732D01*
X48266061Y-34423000D01*
X48250000Y-34421418D01*
X48233939Y-34423000D01*
X46266061Y-34423000D01*
X46250000Y-34421418D01*
X46233939Y-34423000D01*
X46185897Y-34427732D01*
X46124257Y-34446430D01*
X46067450Y-34476794D01*
X46017657Y-34517657D01*
X45976794Y-34567450D01*
X45946430Y-34624257D01*
X45927732Y-34685897D01*
X45921418Y-34750000D01*
X34578582Y-34750000D01*
X34572268Y-34685897D01*
X34553570Y-34624257D01*
X34523206Y-34567450D01*
X34482343Y-34517657D01*
X34432550Y-34476794D01*
X34375743Y-34446430D01*
X34314103Y-34427732D01*
X34266061Y-34423000D01*
X34250000Y-34421418D01*
X34233939Y-34423000D01*
X32266061Y-34423000D01*
X32250000Y-34421418D01*
X32233939Y-34423000D01*
X32185897Y-34427732D01*
X32124257Y-34446430D01*
X32067450Y-34476794D01*
X32017657Y-34517657D01*
X31976794Y-34567450D01*
X31946430Y-34624257D01*
X31927732Y-34685897D01*
X31921418Y-34750000D01*
X19577000Y-34750000D01*
X19577000Y-32777184D01*
X20303190Y-32777184D01*
X20345547Y-33154804D01*
X20460443Y-33517005D01*
X20643504Y-33849991D01*
X20887755Y-34141078D01*
X21183894Y-34379180D01*
X21520641Y-34555227D01*
X21885169Y-34662513D01*
X22263593Y-34696953D01*
X22641499Y-34657233D01*
X23004493Y-34544868D01*
X23338749Y-34364136D01*
X23631534Y-34121923D01*
X23871698Y-33827453D01*
X24050091Y-33491944D01*
X24159920Y-33128174D01*
X24194334Y-32777184D01*
X85103190Y-32777184D01*
X85145547Y-33154804D01*
X85260443Y-33517005D01*
X85443504Y-33849991D01*
X85687755Y-34141078D01*
X85983894Y-34379180D01*
X86320641Y-34555227D01*
X86685169Y-34662513D01*
X87063593Y-34696953D01*
X87441499Y-34657233D01*
X87804493Y-34544868D01*
X88138749Y-34364136D01*
X88431534Y-34121923D01*
X88671698Y-33827453D01*
X88850091Y-33491944D01*
X88959920Y-33128174D01*
X88997000Y-32750000D01*
X88996241Y-32695637D01*
X88948616Y-32318645D01*
X88828673Y-31958084D01*
X88640981Y-31627686D01*
X88392689Y-31340037D01*
X88093255Y-31106094D01*
X87754083Y-30934766D01*
X87388093Y-30832579D01*
X87009225Y-30803427D01*
X86631910Y-30848419D01*
X86270520Y-30965842D01*
X85938821Y-31151222D01*
X85649445Y-31397500D01*
X85413417Y-31695294D01*
X85239725Y-32033261D01*
X85134986Y-32398529D01*
X85103190Y-32777184D01*
X24194334Y-32777184D01*
X24197000Y-32750000D01*
X24196241Y-32695637D01*
X24148616Y-32318645D01*
X24028673Y-31958084D01*
X23840981Y-31627686D01*
X23592689Y-31340037D01*
X23293255Y-31106094D01*
X22954083Y-30934766D01*
X22588093Y-30832579D01*
X22209225Y-30803427D01*
X21831910Y-30848419D01*
X21470520Y-30965842D01*
X21138821Y-31151222D01*
X20849445Y-31397500D01*
X20613417Y-31695294D01*
X20439725Y-32033261D01*
X20334986Y-32398529D01*
X20303190Y-32777184D01*
X19577000Y-32777184D01*
X19577000Y-22777184D01*
X24803189Y-22777184D01*
X24845546Y-23154804D01*
X24960443Y-23517005D01*
X25143503Y-23849991D01*
X25387755Y-24141079D01*
X25683894Y-24379181D01*
X26020641Y-24555228D01*
X26385168Y-24662514D01*
X26763593Y-24696954D01*
X27141499Y-24657234D01*
X27504493Y-24544868D01*
X27838749Y-24364137D01*
X28131535Y-24121924D01*
X28371698Y-23827454D01*
X28550092Y-23491944D01*
X28659921Y-23128174D01*
X28697001Y-22750000D01*
X28696744Y-22731534D01*
X69044385Y-22731534D01*
X69044592Y-22761171D01*
X69044385Y-22790807D01*
X69044830Y-22795351D01*
X69077471Y-23105907D01*
X69083436Y-23134966D01*
X69088984Y-23164050D01*
X69090303Y-23168417D01*
X69090304Y-23168423D01*
X69090306Y-23168429D01*
X69182643Y-23466721D01*
X69194128Y-23494043D01*
X69205230Y-23521522D01*
X69207374Y-23525554D01*
X69355895Y-23800238D01*
X69372460Y-23824796D01*
X69388696Y-23849608D01*
X69391582Y-23853147D01*
X69590627Y-24093751D01*
X69611680Y-24114658D01*
X69632394Y-24135809D01*
X69635912Y-24138720D01*
X69877901Y-24336081D01*
X69902568Y-24352469D01*
X69927040Y-24369226D01*
X69931056Y-24371398D01*
X70206769Y-24517998D01*
X70234192Y-24529301D01*
X70261412Y-24540967D01*
X70265774Y-24542318D01*
X70564712Y-24632572D01*
X70593795Y-24638330D01*
X70622774Y-24644490D01*
X70627315Y-24644967D01*
X70938090Y-24675439D01*
X70938091Y-24675439D01*
X70953939Y-24677000D01*
X73986061Y-24677000D01*
X73987200Y-24676888D01*
X73994623Y-24676836D01*
X74009399Y-24675283D01*
X74024248Y-24675283D01*
X74028789Y-24674806D01*
X74339109Y-24639998D01*
X74368081Y-24633840D01*
X74397172Y-24628080D01*
X74401533Y-24626730D01*
X74699182Y-24532310D01*
X74726415Y-24520638D01*
X74753824Y-24509341D01*
X74757841Y-24507169D01*
X75031480Y-24356734D01*
X75055910Y-24340006D01*
X75080621Y-24323589D01*
X75084139Y-24320678D01*
X75323348Y-24119957D01*
X75344083Y-24098783D01*
X75365113Y-24077899D01*
X75367999Y-24074361D01*
X75563666Y-23831001D01*
X75579892Y-23806205D01*
X75596468Y-23781630D01*
X75598612Y-23777599D01*
X75743283Y-23500869D01*
X75754392Y-23473373D01*
X75765870Y-23446068D01*
X75767190Y-23441697D01*
X75855356Y-23142136D01*
X75860909Y-23113024D01*
X75866869Y-23083991D01*
X75867314Y-23079446D01*
X75895615Y-22768467D01*
X75895408Y-22738830D01*
X75895615Y-22709193D01*
X75895170Y-22704649D01*
X75862529Y-22394094D01*
X75856567Y-22365048D01*
X75851016Y-22335950D01*
X75849696Y-22331579D01*
X75757357Y-22033279D01*
X75745879Y-22005974D01*
X75734770Y-21978478D01*
X75732626Y-21974446D01*
X75584105Y-21699762D01*
X75567546Y-21675212D01*
X75551304Y-21650392D01*
X75548418Y-21646854D01*
X75349373Y-21406249D01*
X75328339Y-21385362D01*
X75307607Y-21364191D01*
X75304088Y-21361280D01*
X75062099Y-21163919D01*
X75037424Y-21147525D01*
X75012961Y-21130775D01*
X75008944Y-21128603D01*
X74733231Y-20982002D01*
X74705798Y-20970695D01*
X74678587Y-20959033D01*
X74674225Y-20957682D01*
X74375288Y-20867428D01*
X74346211Y-20861671D01*
X74317226Y-20855510D01*
X74312685Y-20855033D01*
X74001910Y-20824561D01*
X74001909Y-20824561D01*
X73986061Y-20823000D01*
X70953939Y-20823000D01*
X70952800Y-20823112D01*
X70945378Y-20823164D01*
X70930602Y-20824717D01*
X70915752Y-20824717D01*
X70911211Y-20825194D01*
X70600891Y-20860002D01*
X70571912Y-20866162D01*
X70542829Y-20871920D01*
X70538467Y-20873270D01*
X70240819Y-20967689D01*
X70213578Y-20979365D01*
X70186176Y-20990659D01*
X70182159Y-20992831D01*
X69908519Y-21143266D01*
X69884039Y-21160028D01*
X69859380Y-21176411D01*
X69855861Y-21179322D01*
X69616652Y-21380043D01*
X69595917Y-21401217D01*
X69574887Y-21422101D01*
X69572001Y-21425640D01*
X69376334Y-21668999D01*
X69360115Y-21693785D01*
X69343532Y-21718369D01*
X69341389Y-21722401D01*
X69196717Y-21999131D01*
X69185608Y-22026627D01*
X69174130Y-22053932D01*
X69172810Y-22058303D01*
X69084644Y-22357864D01*
X69079091Y-22386976D01*
X69073131Y-22416009D01*
X69072686Y-22420554D01*
X69044385Y-22731534D01*
X28696744Y-22731534D01*
X28696242Y-22695637D01*
X28648617Y-22318645D01*
X28528674Y-21958083D01*
X28340982Y-21627686D01*
X28092690Y-21340037D01*
X27793255Y-21106093D01*
X27454083Y-20934765D01*
X27088093Y-20832578D01*
X26709225Y-20803426D01*
X26331910Y-20848418D01*
X25970520Y-20965841D01*
X25638820Y-21151222D01*
X25349445Y-21397499D01*
X25113416Y-21695294D01*
X24939724Y-22033261D01*
X24834985Y-22398529D01*
X24803189Y-22777184D01*
X19577000Y-22777184D01*
X19577000Y-20077000D01*
X89723000Y-20077000D01*
X89723001Y-147923000D01*
X89723001Y-147923000D01*
G37*
X89723001Y-147923000D02*
X19577000Y-147923000D01*
X19577000Y-145277184D01*
X24803189Y-145277184D01*
X24845546Y-145654804D01*
X24960443Y-146017005D01*
X25143503Y-146349991D01*
X25387755Y-146641079D01*
X25683894Y-146879181D01*
X26020641Y-147055228D01*
X26385168Y-147162514D01*
X26763593Y-147196954D01*
X27141499Y-147157234D01*
X27504493Y-147044868D01*
X27838749Y-146864137D01*
X28131535Y-146621924D01*
X28371698Y-146327454D01*
X28550092Y-145991944D01*
X28659921Y-145628174D01*
X28697001Y-145250000D01*
X28696744Y-145231534D01*
X69044385Y-145231534D01*
X69044592Y-145261171D01*
X69044385Y-145290807D01*
X69044830Y-145295351D01*
X69077471Y-145605907D01*
X69083436Y-145634966D01*
X69088984Y-145664050D01*
X69090303Y-145668417D01*
X69090304Y-145668423D01*
X69090306Y-145668429D01*
X69182643Y-145966721D01*
X69194128Y-145994043D01*
X69205230Y-146021522D01*
X69207374Y-146025554D01*
X69355895Y-146300238D01*
X69372460Y-146324796D01*
X69388696Y-146349608D01*
X69391582Y-146353147D01*
X69590627Y-146593751D01*
X69611680Y-146614658D01*
X69632394Y-146635809D01*
X69635912Y-146638720D01*
X69877901Y-146836081D01*
X69902568Y-146852469D01*
X69927040Y-146869226D01*
X69931056Y-146871398D01*
X70206769Y-147017998D01*
X70234192Y-147029301D01*
X70261412Y-147040967D01*
X70265774Y-147042318D01*
X70564712Y-147132572D01*
X70593795Y-147138330D01*
X70622774Y-147144490D01*
X70627315Y-147144967D01*
X70938090Y-147175439D01*
X70938091Y-147175439D01*
X70953939Y-147177000D01*
X73986061Y-147177000D01*
X73987200Y-147176888D01*
X73994623Y-147176836D01*
X74009399Y-147175283D01*
X74024248Y-147175283D01*
X74028789Y-147174806D01*
X74339109Y-147139998D01*
X74368081Y-147133840D01*
X74397172Y-147128080D01*
X74401533Y-147126730D01*
X74699182Y-147032310D01*
X74726415Y-147020638D01*
X74753824Y-147009341D01*
X74757841Y-147007169D01*
X75031480Y-146856734D01*
X75055910Y-146840006D01*
X75080621Y-146823589D01*
X75084139Y-146820678D01*
X75323348Y-146619957D01*
X75344083Y-146598783D01*
X75365113Y-146577899D01*
X75367999Y-146574361D01*
X75563666Y-146331001D01*
X75579892Y-146306205D01*
X75596468Y-146281630D01*
X75598612Y-146277599D01*
X75743283Y-146000869D01*
X75754392Y-145973373D01*
X75765870Y-145946068D01*
X75767190Y-145941697D01*
X75855356Y-145642136D01*
X75860909Y-145613024D01*
X75866869Y-145583991D01*
X75867314Y-145579446D01*
X75895615Y-145268467D01*
X75895408Y-145238830D01*
X75895615Y-145209193D01*
X75895170Y-145204649D01*
X75862529Y-144894094D01*
X75856567Y-144865048D01*
X75851016Y-144835950D01*
X75849696Y-144831579D01*
X75757357Y-144533279D01*
X75745879Y-144505974D01*
X75734770Y-144478478D01*
X75732626Y-144474446D01*
X75584105Y-144199762D01*
X75567546Y-144175212D01*
X75551304Y-144150392D01*
X75548418Y-144146854D01*
X75349373Y-143906249D01*
X75328339Y-143885362D01*
X75307607Y-143864191D01*
X75304088Y-143861280D01*
X75062099Y-143663919D01*
X75037424Y-143647525D01*
X75012961Y-143630775D01*
X75008944Y-143628603D01*
X74733231Y-143482002D01*
X74705798Y-143470695D01*
X74678587Y-143459033D01*
X74674225Y-143457682D01*
X74375288Y-143367428D01*
X74346211Y-143361671D01*
X74317226Y-143355510D01*
X74312685Y-143355033D01*
X74001910Y-143324561D01*
X74001909Y-143324561D01*
X73986061Y-143323000D01*
X70953939Y-143323000D01*
X70952800Y-143323112D01*
X70945378Y-143323164D01*
X70930602Y-143324717D01*
X70915752Y-143324717D01*
X70911211Y-143325194D01*
X70600891Y-143360002D01*
X70571912Y-143366162D01*
X70542829Y-143371920D01*
X70538467Y-143373270D01*
X70240819Y-143467689D01*
X70213578Y-143479365D01*
X70186176Y-143490659D01*
X70182159Y-143492831D01*
X69908519Y-143643266D01*
X69884039Y-143660028D01*
X69859380Y-143676411D01*
X69855861Y-143679322D01*
X69616652Y-143880043D01*
X69595917Y-143901217D01*
X69574887Y-143922101D01*
X69572001Y-143925640D01*
X69376334Y-144168999D01*
X69360115Y-144193785D01*
X69343532Y-144218369D01*
X69341389Y-144222401D01*
X69196717Y-144499131D01*
X69185608Y-144526627D01*
X69174130Y-144553932D01*
X69172810Y-144558303D01*
X69084644Y-144857864D01*
X69079091Y-144886976D01*
X69073131Y-144916009D01*
X69072686Y-144920554D01*
X69044385Y-145231534D01*
X28696744Y-145231534D01*
X28696242Y-145195637D01*
X28648617Y-144818645D01*
X28528674Y-144458083D01*
X28340982Y-144127686D01*
X28092690Y-143840037D01*
X27793255Y-143606093D01*
X27454083Y-143434765D01*
X27088093Y-143332578D01*
X26709225Y-143303426D01*
X26331910Y-143348418D01*
X25970520Y-143465841D01*
X25638820Y-143651222D01*
X25349445Y-143897499D01*
X25113416Y-144195294D01*
X24939724Y-144533261D01*
X24834985Y-144898529D01*
X24803189Y-145277184D01*
X19577000Y-145277184D01*
X19577000Y-135277184D01*
X20303190Y-135277184D01*
X20345547Y-135654804D01*
X20460443Y-136017005D01*
X20643504Y-136349991D01*
X20887755Y-136641078D01*
X21183894Y-136879180D01*
X21520641Y-137055227D01*
X21885169Y-137162513D01*
X22263593Y-137196953D01*
X22641499Y-137157233D01*
X23004493Y-137044868D01*
X23338749Y-136864136D01*
X23631534Y-136621923D01*
X23871698Y-136327453D01*
X24050091Y-135991944D01*
X24159920Y-135628174D01*
X24197000Y-135250000D01*
X24196241Y-135195637D01*
X24148616Y-134818645D01*
X24028673Y-134458084D01*
X23840981Y-134127686D01*
X23592689Y-133840037D01*
X23293255Y-133606094D01*
X22954083Y-133434766D01*
X22588093Y-133332579D01*
X22209225Y-133303427D01*
X21831910Y-133348419D01*
X21470520Y-133465842D01*
X21138821Y-133651222D01*
X20849445Y-133897500D01*
X20613417Y-134195294D01*
X20439725Y-134533261D01*
X20334986Y-134898529D01*
X20303190Y-135277184D01*
X19577000Y-135277184D01*
X19577000Y-132300222D01*
X38653351Y-132300222D01*
X38731603Y-132997858D01*
X38943870Y-133667009D01*
X39282067Y-134282186D01*
X39733311Y-134819958D01*
X40280415Y-135259841D01*
X40902540Y-135585080D01*
X41575989Y-135783287D01*
X42275112Y-135846912D01*
X42973277Y-135773532D01*
X43643894Y-135565942D01*
X44261417Y-135232048D01*
X44802326Y-134784569D01*
X45246018Y-134240549D01*
X45575592Y-133620710D01*
X45778496Y-132948661D01*
X45842075Y-132300222D01*
X63453351Y-132300222D01*
X63531603Y-132997858D01*
X63743870Y-133667009D01*
X64082067Y-134282186D01*
X64533311Y-134819958D01*
X65080415Y-135259841D01*
X65702540Y-135585080D01*
X66375989Y-135783287D01*
X67075112Y-135846912D01*
X67773277Y-135773532D01*
X68443894Y-135565942D01*
X68977939Y-135277184D01*
X85103190Y-135277184D01*
X85145547Y-135654804D01*
X85260443Y-136017005D01*
X85443504Y-136349991D01*
X85687755Y-136641078D01*
X85983894Y-136879180D01*
X86320641Y-137055227D01*
X86685169Y-137162513D01*
X87063593Y-137196953D01*
X87441499Y-137157233D01*
X87804493Y-137044868D01*
X88138749Y-136864136D01*
X88431534Y-136621923D01*
X88671698Y-136327453D01*
X88850091Y-135991944D01*
X88959920Y-135628174D01*
X88997000Y-135250000D01*
X88996241Y-135195637D01*
X88948616Y-134818645D01*
X88828673Y-134458084D01*
X88640981Y-134127686D01*
X88392689Y-133840037D01*
X88093255Y-133606094D01*
X87754083Y-133434766D01*
X87388093Y-133332579D01*
X87009225Y-133303427D01*
X86631910Y-133348419D01*
X86270520Y-133465842D01*
X85938821Y-133651222D01*
X85649445Y-133897500D01*
X85413417Y-134195294D01*
X85239725Y-134533261D01*
X85134986Y-134898529D01*
X85103190Y-135277184D01*
X68977939Y-135277184D01*
X69061417Y-135232048D01*
X69602326Y-134784569D01*
X70046018Y-134240549D01*
X70375592Y-133620710D01*
X70578496Y-132948661D01*
X70647000Y-132250000D01*
X70645598Y-132149566D01*
X70557612Y-131453090D01*
X70336023Y-130786968D01*
X69989270Y-130176573D01*
X69530561Y-129645154D01*
X68977369Y-129212952D01*
X68350764Y-128896431D01*
X67674612Y-128707647D01*
X66974670Y-128653789D01*
X66277597Y-128736910D01*
X65609945Y-128953843D01*
X64997143Y-129296326D01*
X64462535Y-129751314D01*
X64026482Y-130301476D01*
X63705594Y-130925856D01*
X63512093Y-131600673D01*
X63453351Y-132300222D01*
X45842075Y-132300222D01*
X45847000Y-132250000D01*
X45845598Y-132149566D01*
X45757612Y-131453090D01*
X45536023Y-130786968D01*
X45189270Y-130176573D01*
X44730561Y-129645154D01*
X44177369Y-129212952D01*
X43550764Y-128896431D01*
X42874612Y-128707647D01*
X42174670Y-128653789D01*
X41477597Y-128736910D01*
X40809945Y-128953843D01*
X40197143Y-129296326D01*
X39662535Y-129751314D01*
X39226482Y-130301476D01*
X38905594Y-130925856D01*
X38712093Y-131600673D01*
X38653351Y-132300222D01*
X19577000Y-132300222D01*
X19577000Y-117303713D01*
X38403375Y-117303713D01*
X38487066Y-118049836D01*
X38714086Y-118765495D01*
X39075788Y-119423428D01*
X39558395Y-119998576D01*
X40143524Y-120469032D01*
X40808888Y-120816876D01*
X41529144Y-121028859D01*
X42276857Y-121096906D01*
X43023547Y-121018426D01*
X43740772Y-120796408D01*
X44401215Y-120439308D01*
X44979719Y-119960728D01*
X45454248Y-119378897D01*
X45806729Y-118715978D01*
X46023734Y-117997220D01*
X46091733Y-117303713D01*
X63203375Y-117303713D01*
X63287066Y-118049836D01*
X63514086Y-118765495D01*
X63875788Y-119423428D01*
X64358395Y-119998576D01*
X64943524Y-120469032D01*
X65608888Y-120816876D01*
X66329144Y-121028859D01*
X67076857Y-121096906D01*
X67823547Y-121018426D01*
X68540772Y-120796408D01*
X69201215Y-120439308D01*
X69779719Y-119960728D01*
X70254248Y-119378897D01*
X70606729Y-118715978D01*
X70823734Y-117997220D01*
X70897000Y-117250000D01*
X70895500Y-117142585D01*
X70801400Y-116397703D01*
X70564409Y-115685284D01*
X70193556Y-115032465D01*
X69702966Y-114464111D01*
X69111326Y-114001870D01*
X68441170Y-113663350D01*
X67718025Y-113461445D01*
X66969435Y-113403844D01*
X66223913Y-113492742D01*
X65509857Y-113724753D01*
X64854465Y-114091039D01*
X64282700Y-114577649D01*
X63816340Y-115166049D01*
X63473150Y-115833825D01*
X63266201Y-116555543D01*
X63203375Y-117303713D01*
X46091733Y-117303713D01*
X46097000Y-117250000D01*
X46095500Y-117142585D01*
X46001400Y-116397703D01*
X45764409Y-115685284D01*
X45393556Y-115032465D01*
X44902966Y-114464111D01*
X44311326Y-114001870D01*
X43641170Y-113663350D01*
X42918025Y-113461445D01*
X42169435Y-113403844D01*
X41423913Y-113492742D01*
X40709857Y-113724753D01*
X40054465Y-114091039D01*
X39482700Y-114577649D01*
X39016340Y-115166049D01*
X38673150Y-115833825D01*
X38466201Y-116555543D01*
X38403375Y-117303713D01*
X19577000Y-117303713D01*
X19577000Y-91803325D01*
X30483176Y-91803325D01*
X30483196Y-91817045D01*
X30493196Y-91997045D01*
X30493698Y-92003295D01*
X30513698Y-92193295D01*
X30515819Y-92206610D01*
X30575819Y-92486610D01*
X30577886Y-92494890D01*
X30637886Y-92704890D01*
X30644111Y-92721950D01*
X30774111Y-93011950D01*
X30781098Y-93025341D01*
X30931098Y-93275341D01*
X30937291Y-93284698D01*
X31097291Y-93504698D01*
X31108034Y-93517586D01*
X31308034Y-93727586D01*
X31315853Y-93735123D01*
X31575853Y-93965123D01*
X31590401Y-93976231D01*
X31880401Y-94166231D01*
X31898138Y-94175928D01*
X32278138Y-94345928D01*
X32294165Y-94351839D01*
X32634165Y-94451839D01*
X32650193Y-94455446D01*
X32840193Y-94485446D01*
X32848502Y-94486478D01*
X33178502Y-94516478D01*
X33194700Y-94516913D01*
X33464700Y-94506913D01*
X33479025Y-94505567D01*
X33809025Y-94455567D01*
X33823416Y-94452525D01*
X34153416Y-94362525D01*
X34168559Y-94357350D01*
X34458559Y-94237350D01*
X34472053Y-94230808D01*
X34722053Y-94090808D01*
X34733088Y-94083861D01*
X35003088Y-93893861D01*
X35017872Y-93881693D01*
X35257872Y-93651693D01*
X35266950Y-93642035D01*
X35486950Y-93382035D01*
X35497984Y-93366847D01*
X35627984Y-93156847D01*
X35631493Y-93150814D01*
X35811493Y-92820814D01*
X35821715Y-92796256D01*
X35961715Y-92326256D01*
X35965523Y-92309311D01*
X36005523Y-92049311D01*
X36006899Y-92035076D01*
X36016169Y-91803325D01*
X44483176Y-91803325D01*
X44483196Y-91817045D01*
X44493196Y-91997045D01*
X44493698Y-92003295D01*
X44513698Y-92193295D01*
X44515819Y-92206610D01*
X44575819Y-92486610D01*
X44577886Y-92494890D01*
X44637886Y-92704890D01*
X44644111Y-92721950D01*
X44774111Y-93011950D01*
X44781098Y-93025341D01*
X44931098Y-93275341D01*
X44937291Y-93284698D01*
X45097291Y-93504698D01*
X45108034Y-93517586D01*
X45308034Y-93727586D01*
X45315853Y-93735123D01*
X45575853Y-93965123D01*
X45590401Y-93976231D01*
X45880401Y-94166231D01*
X45898138Y-94175928D01*
X46278138Y-94345928D01*
X46294165Y-94351839D01*
X46634165Y-94451839D01*
X46650193Y-94455446D01*
X46840193Y-94485446D01*
X46848502Y-94486478D01*
X47178502Y-94516478D01*
X47194700Y-94516913D01*
X47464700Y-94506913D01*
X47479025Y-94505567D01*
X47809025Y-94455567D01*
X47823416Y-94452525D01*
X48153416Y-94362525D01*
X48168559Y-94357350D01*
X48458559Y-94237350D01*
X48472053Y-94230808D01*
X48722053Y-94090808D01*
X48733088Y-94083861D01*
X49003088Y-93893861D01*
X49017872Y-93881693D01*
X49257872Y-93651693D01*
X49266950Y-93642035D01*
X49486950Y-93382035D01*
X49497984Y-93366847D01*
X49627984Y-93156847D01*
X49631493Y-93150814D01*
X49811493Y-92820814D01*
X49821715Y-92796256D01*
X49961715Y-92326256D01*
X49965523Y-92309311D01*
X50005523Y-92049311D01*
X50006899Y-92035076D01*
X50016663Y-91790954D01*
X59286721Y-91790954D01*
X59286741Y-91804674D01*
X59296741Y-91984674D01*
X59297243Y-91990924D01*
X59317243Y-92180924D01*
X59319364Y-92194239D01*
X59379364Y-92474239D01*
X59381431Y-92482519D01*
X59441431Y-92692519D01*
X59447656Y-92709579D01*
X59577656Y-92999579D01*
X59584643Y-93012970D01*
X59734643Y-93262970D01*
X59740836Y-93272327D01*
X59900836Y-93492327D01*
X59911579Y-93505215D01*
X60111579Y-93715215D01*
X60119398Y-93722752D01*
X60379398Y-93952752D01*
X60393946Y-93963860D01*
X60683946Y-94153860D01*
X60701683Y-94163557D01*
X61081683Y-94333557D01*
X61097710Y-94339468D01*
X61437710Y-94439468D01*
X61453738Y-94443075D01*
X61643738Y-94473075D01*
X61652047Y-94474107D01*
X61982047Y-94504107D01*
X61998245Y-94504542D01*
X62268245Y-94494542D01*
X62282570Y-94493196D01*
X62612570Y-94443196D01*
X62626961Y-94440154D01*
X62956961Y-94350154D01*
X62972104Y-94344979D01*
X63262104Y-94224979D01*
X63275598Y-94218437D01*
X63525598Y-94078437D01*
X63536633Y-94071490D01*
X63806633Y-93881490D01*
X63821417Y-93869322D01*
X64061417Y-93639322D01*
X64070495Y-93629664D01*
X64290495Y-93369664D01*
X64301529Y-93354476D01*
X64431529Y-93144476D01*
X64435038Y-93138443D01*
X64615038Y-92808443D01*
X64625260Y-92783885D01*
X64765260Y-92313885D01*
X64769068Y-92296940D01*
X64809068Y-92036940D01*
X64810444Y-92022705D01*
X64819219Y-91803325D01*
X73283176Y-91803325D01*
X73283196Y-91817045D01*
X73293196Y-91997045D01*
X73293698Y-92003295D01*
X73313698Y-92193295D01*
X73315819Y-92206610D01*
X73375819Y-92486610D01*
X73377886Y-92494890D01*
X73437886Y-92704890D01*
X73444111Y-92721950D01*
X73574111Y-93011950D01*
X73581098Y-93025341D01*
X73731098Y-93275341D01*
X73737291Y-93284698D01*
X73897291Y-93504698D01*
X73908034Y-93517586D01*
X74108034Y-93727586D01*
X74115853Y-93735123D01*
X74375853Y-93965123D01*
X74390401Y-93976231D01*
X74680401Y-94166231D01*
X74698138Y-94175928D01*
X75078138Y-94345928D01*
X75094165Y-94351839D01*
X75434165Y-94451839D01*
X75450193Y-94455446D01*
X75640193Y-94485446D01*
X75648502Y-94486478D01*
X75978502Y-94516478D01*
X75994700Y-94516913D01*
X76264700Y-94506913D01*
X76279025Y-94505567D01*
X76609025Y-94455567D01*
X76623416Y-94452525D01*
X76953416Y-94362525D01*
X76968559Y-94357350D01*
X77258559Y-94237350D01*
X77272053Y-94230808D01*
X77522053Y-94090808D01*
X77533088Y-94083861D01*
X77803088Y-93893861D01*
X77817872Y-93881693D01*
X78057872Y-93651693D01*
X78066950Y-93642035D01*
X78286950Y-93382035D01*
X78297984Y-93366847D01*
X78427984Y-93156847D01*
X78431493Y-93150814D01*
X78611493Y-92820814D01*
X78621715Y-92796256D01*
X78761715Y-92326256D01*
X78765523Y-92309311D01*
X78805523Y-92049311D01*
X78806899Y-92035076D01*
X78816899Y-91785076D01*
X78816899Y-91774924D01*
X78806899Y-91524924D01*
X78806077Y-91514718D01*
X78766077Y-91184718D01*
X78762296Y-91165757D01*
X78692296Y-90915757D01*
X78688680Y-90904789D01*
X78608680Y-90694789D01*
X78604571Y-90685205D01*
X78494571Y-90455205D01*
X78489700Y-90446008D01*
X78349700Y-90206008D01*
X78340248Y-90192030D01*
X78200248Y-90012030D01*
X78195577Y-90006370D01*
X78055577Y-89846370D01*
X78049803Y-89840197D01*
X77859803Y-89650197D01*
X77849336Y-89640830D01*
X77699336Y-89520830D01*
X77691949Y-89515347D01*
X77531949Y-89405347D01*
X77518592Y-89397323D01*
X77268592Y-89267323D01*
X77258086Y-89262456D01*
X77038086Y-89172456D01*
X77031722Y-89170049D01*
X76801722Y-89090049D01*
X76789416Y-89086454D01*
X76579416Y-89036454D01*
X76565752Y-89033981D01*
X76325752Y-89003981D01*
X76318448Y-89003281D01*
X76168448Y-88993281D01*
X76160000Y-88993000D01*
X76050000Y-88993000D01*
X76043658Y-88993158D01*
X75843658Y-89003158D01*
X75831388Y-89004371D01*
X75561388Y-89044371D01*
X75553837Y-89045724D01*
X75363837Y-89085724D01*
X75353921Y-89088233D01*
X75083921Y-89168233D01*
X75069504Y-89173470D01*
X74769504Y-89303470D01*
X74752690Y-89312304D01*
X74592690Y-89412304D01*
X74589553Y-89414330D01*
X74439553Y-89514330D01*
X74433800Y-89518400D01*
X74313800Y-89608400D01*
X74304183Y-89616381D01*
X74184183Y-89726381D01*
X74183139Y-89727349D01*
X74023139Y-89877349D01*
X74016381Y-89884183D01*
X73906381Y-90004183D01*
X73899337Y-90012567D01*
X73799337Y-90142567D01*
X73791633Y-90153776D01*
X73681633Y-90333776D01*
X73678721Y-90338796D01*
X73568721Y-90538796D01*
X73563648Y-90549096D01*
X73423648Y-90869096D01*
X73417475Y-90886584D01*
X73357475Y-91106584D01*
X73354978Y-91117675D01*
X73304978Y-91397675D01*
X73303158Y-91413658D01*
X73293158Y-91613658D01*
X73283176Y-91803325D01*
X64819219Y-91803325D01*
X64820444Y-91772705D01*
X64820444Y-91762553D01*
X64810444Y-91512553D01*
X64809622Y-91502347D01*
X64769622Y-91172347D01*
X64765841Y-91153386D01*
X64695841Y-90903386D01*
X64692225Y-90892418D01*
X64612225Y-90682418D01*
X64608116Y-90672834D01*
X64498116Y-90442834D01*
X64493245Y-90433637D01*
X64353245Y-90193637D01*
X64343793Y-90179659D01*
X64203793Y-89999659D01*
X64199122Y-89993999D01*
X64059122Y-89833999D01*
X64053348Y-89827826D01*
X63863348Y-89637826D01*
X63852881Y-89628459D01*
X63702881Y-89508459D01*
X63695494Y-89502976D01*
X63535494Y-89392976D01*
X63522137Y-89384952D01*
X63272137Y-89254952D01*
X63261631Y-89250085D01*
X63041631Y-89160085D01*
X63035267Y-89157678D01*
X62805267Y-89077678D01*
X62792961Y-89074083D01*
X62582961Y-89024083D01*
X62569297Y-89021610D01*
X62329297Y-88991610D01*
X62321993Y-88990910D01*
X62171993Y-88980910D01*
X62163545Y-88980629D01*
X62053545Y-88980629D01*
X62047203Y-88980787D01*
X61847203Y-88990787D01*
X61834933Y-88992000D01*
X61564933Y-89032000D01*
X61557382Y-89033353D01*
X61367382Y-89073353D01*
X61357466Y-89075862D01*
X61087466Y-89155862D01*
X61073049Y-89161099D01*
X60773049Y-89291099D01*
X60756235Y-89299933D01*
X60596235Y-89399933D01*
X60593098Y-89401959D01*
X60443098Y-89501959D01*
X60437345Y-89506029D01*
X60317345Y-89596029D01*
X60307728Y-89604010D01*
X60187728Y-89714010D01*
X60186684Y-89714978D01*
X60026684Y-89864978D01*
X60019926Y-89871812D01*
X59909926Y-89991812D01*
X59902882Y-90000196D01*
X59802882Y-90130196D01*
X59795178Y-90141405D01*
X59685178Y-90321405D01*
X59682266Y-90326425D01*
X59572266Y-90526425D01*
X59567193Y-90536725D01*
X59427193Y-90856725D01*
X59421020Y-90874213D01*
X59361020Y-91094213D01*
X59358523Y-91105304D01*
X59308523Y-91385304D01*
X59306703Y-91401287D01*
X59296703Y-91601287D01*
X59286721Y-91790954D01*
X50016663Y-91790954D01*
X50016899Y-91785076D01*
X50016899Y-91774924D01*
X50006899Y-91524924D01*
X50006077Y-91514718D01*
X49966077Y-91184718D01*
X49962296Y-91165757D01*
X49892296Y-90915757D01*
X49888680Y-90904789D01*
X49808680Y-90694789D01*
X49804571Y-90685205D01*
X49694571Y-90455205D01*
X49689700Y-90446008D01*
X49549700Y-90206008D01*
X49540248Y-90192030D01*
X49400248Y-90012030D01*
X49395577Y-90006370D01*
X49255577Y-89846370D01*
X49249803Y-89840197D01*
X49059803Y-89650197D01*
X49049336Y-89640830D01*
X48899336Y-89520830D01*
X48891949Y-89515347D01*
X48731949Y-89405347D01*
X48718592Y-89397323D01*
X48468592Y-89267323D01*
X48458086Y-89262456D01*
X48238086Y-89172456D01*
X48231722Y-89170049D01*
X48001722Y-89090049D01*
X47989416Y-89086454D01*
X47779416Y-89036454D01*
X47765752Y-89033981D01*
X47525752Y-89003981D01*
X47518448Y-89003281D01*
X47368448Y-88993281D01*
X47360000Y-88993000D01*
X47250000Y-88993000D01*
X47243658Y-88993158D01*
X47043658Y-89003158D01*
X47031388Y-89004371D01*
X46761388Y-89044371D01*
X46753837Y-89045724D01*
X46563837Y-89085724D01*
X46553921Y-89088233D01*
X46283921Y-89168233D01*
X46269504Y-89173470D01*
X45969504Y-89303470D01*
X45952690Y-89312304D01*
X45792690Y-89412304D01*
X45789553Y-89414330D01*
X45639553Y-89514330D01*
X45633800Y-89518400D01*
X45513800Y-89608400D01*
X45504183Y-89616381D01*
X45384183Y-89726381D01*
X45383139Y-89727349D01*
X45223139Y-89877349D01*
X45216381Y-89884183D01*
X45106381Y-90004183D01*
X45099337Y-90012567D01*
X44999337Y-90142567D01*
X44991633Y-90153776D01*
X44881633Y-90333776D01*
X44878721Y-90338796D01*
X44768721Y-90538796D01*
X44763648Y-90549096D01*
X44623648Y-90869096D01*
X44617475Y-90886584D01*
X44557475Y-91106584D01*
X44554978Y-91117675D01*
X44504978Y-91397675D01*
X44503158Y-91413658D01*
X44493158Y-91613658D01*
X44483176Y-91803325D01*
X36016169Y-91803325D01*
X36016899Y-91785076D01*
X36016899Y-91774924D01*
X36006899Y-91524924D01*
X36006077Y-91514718D01*
X35966077Y-91184718D01*
X35962296Y-91165757D01*
X35892296Y-90915757D01*
X35888680Y-90904789D01*
X35808680Y-90694789D01*
X35804571Y-90685205D01*
X35694571Y-90455205D01*
X35689700Y-90446008D01*
X35549700Y-90206008D01*
X35540248Y-90192030D01*
X35400248Y-90012030D01*
X35395577Y-90006370D01*
X35255577Y-89846370D01*
X35249803Y-89840197D01*
X35059803Y-89650197D01*
X35049336Y-89640830D01*
X34899336Y-89520830D01*
X34891949Y-89515347D01*
X34731949Y-89405347D01*
X34718592Y-89397323D01*
X34468592Y-89267323D01*
X34458086Y-89262456D01*
X34238086Y-89172456D01*
X34231722Y-89170049D01*
X34001722Y-89090049D01*
X33989416Y-89086454D01*
X33779416Y-89036454D01*
X33765752Y-89033981D01*
X33525752Y-89003981D01*
X33518448Y-89003281D01*
X33368448Y-88993281D01*
X33360000Y-88993000D01*
X33250000Y-88993000D01*
X33243658Y-88993158D01*
X33043658Y-89003158D01*
X33031388Y-89004371D01*
X32761388Y-89044371D01*
X32753837Y-89045724D01*
X32563837Y-89085724D01*
X32553921Y-89088233D01*
X32283921Y-89168233D01*
X32269504Y-89173470D01*
X31969504Y-89303470D01*
X31952690Y-89312304D01*
X31792690Y-89412304D01*
X31789553Y-89414330D01*
X31639553Y-89514330D01*
X31633800Y-89518400D01*
X31513800Y-89608400D01*
X31504183Y-89616381D01*
X31384183Y-89726381D01*
X31383139Y-89727349D01*
X31223139Y-89877349D01*
X31216381Y-89884183D01*
X31106381Y-90004183D01*
X31099337Y-90012567D01*
X30999337Y-90142567D01*
X30991633Y-90153776D01*
X30881633Y-90333776D01*
X30878721Y-90338796D01*
X30768721Y-90538796D01*
X30763648Y-90549096D01*
X30623648Y-90869096D01*
X30617475Y-90886584D01*
X30557475Y-91106584D01*
X30554978Y-91117675D01*
X30504978Y-91397675D01*
X30503158Y-91413658D01*
X30493158Y-91613658D01*
X30483176Y-91803325D01*
X19577000Y-91803325D01*
X19577000Y-81879497D01*
X28304695Y-81879497D01*
X28411104Y-82778539D01*
X28679568Y-83643135D01*
X29101097Y-84444329D01*
X29661573Y-85155290D01*
X30342226Y-85752207D01*
X31120262Y-86215089D01*
X31969622Y-86528435D01*
X32861863Y-86681750D01*
X33767102Y-86669900D01*
X34655024Y-86493281D01*
X35495891Y-86157809D01*
X36261543Y-85674719D01*
X36926337Y-85060189D01*
X37468011Y-84334800D01*
X37868422Y-83522846D01*
X38114162Y-82651519D01*
X38185100Y-81879497D01*
X42304695Y-81879497D01*
X42411104Y-82778539D01*
X42679568Y-83643135D01*
X43101097Y-84444329D01*
X43661573Y-85155290D01*
X44342226Y-85752207D01*
X45120262Y-86215089D01*
X45969622Y-86528435D01*
X46861863Y-86681750D01*
X47767102Y-86669900D01*
X48655024Y-86493281D01*
X49495891Y-86157809D01*
X50261543Y-85674719D01*
X50926337Y-85060189D01*
X51468011Y-84334800D01*
X51868422Y-83522846D01*
X52114162Y-82651519D01*
X52185100Y-81879497D01*
X57104694Y-81879497D01*
X57211103Y-82778539D01*
X57479567Y-83643135D01*
X57901096Y-84444330D01*
X58461572Y-85155291D01*
X59142226Y-85752208D01*
X59920261Y-86215090D01*
X60769622Y-86528436D01*
X61661863Y-86681751D01*
X62567102Y-86669901D01*
X63455024Y-86493282D01*
X64295891Y-86157810D01*
X65061543Y-85674720D01*
X65726338Y-85060190D01*
X66268012Y-84334801D01*
X66668423Y-83522847D01*
X66914163Y-82651519D01*
X66985101Y-81879497D01*
X71104694Y-81879497D01*
X71211103Y-82778539D01*
X71479567Y-83643135D01*
X71901096Y-84444330D01*
X72461572Y-85155291D01*
X73142226Y-85752208D01*
X73920261Y-86215090D01*
X74769622Y-86528436D01*
X75661863Y-86681751D01*
X76567102Y-86669901D01*
X77455024Y-86493282D01*
X78295891Y-86157810D01*
X79061543Y-85674720D01*
X79726338Y-85060190D01*
X80268012Y-84334801D01*
X80668423Y-83522847D01*
X80914163Y-82651519D01*
X80997001Y-81750000D01*
X80990221Y-81491094D01*
X80860315Y-80595146D01*
X80569310Y-79737873D01*
X80126953Y-78947988D01*
X79548058Y-78251942D01*
X78852012Y-77673047D01*
X78062127Y-77230690D01*
X77204854Y-76939685D01*
X76308906Y-76809779D01*
X75404287Y-76845321D01*
X74521293Y-77045122D01*
X73689495Y-77402491D01*
X72936751Y-77905458D01*
X72288271Y-78537180D01*
X71765771Y-79276500D01*
X71386752Y-80098657D01*
X71163905Y-80976119D01*
X71104694Y-81879497D01*
X66985101Y-81879497D01*
X66997001Y-81750000D01*
X66990221Y-81491094D01*
X66860315Y-80595146D01*
X66569310Y-79737873D01*
X66126953Y-78947988D01*
X65548058Y-78251942D01*
X64852012Y-77673047D01*
X64062127Y-77230690D01*
X63204854Y-76939685D01*
X62308906Y-76809779D01*
X61404287Y-76845321D01*
X60521293Y-77045122D01*
X59689495Y-77402491D01*
X58936751Y-77905458D01*
X58288271Y-78537180D01*
X57765771Y-79276500D01*
X57386752Y-80098657D01*
X57163905Y-80976119D01*
X57104694Y-81879497D01*
X52185100Y-81879497D01*
X52197000Y-81750000D01*
X52190220Y-81491094D01*
X52060314Y-80595146D01*
X51769309Y-79737874D01*
X51326952Y-78947988D01*
X50748057Y-78251943D01*
X50052012Y-77673048D01*
X49262126Y-77230691D01*
X48404854Y-76939686D01*
X47508906Y-76809780D01*
X46604287Y-76845322D01*
X45721293Y-77045123D01*
X44889496Y-77402492D01*
X44136752Y-77905459D01*
X43488272Y-78537181D01*
X42965772Y-79276500D01*
X42586753Y-80098657D01*
X42363906Y-80976119D01*
X42304695Y-81879497D01*
X38185100Y-81879497D01*
X38197000Y-81750000D01*
X38190220Y-81491094D01*
X38060314Y-80595146D01*
X37769309Y-79737874D01*
X37326952Y-78947988D01*
X36748057Y-78251943D01*
X36052012Y-77673048D01*
X35262126Y-77230691D01*
X34404854Y-76939686D01*
X33508906Y-76809780D01*
X32604287Y-76845322D01*
X31721293Y-77045123D01*
X30889496Y-77402492D01*
X30136752Y-77905459D01*
X29488272Y-78537181D01*
X28965772Y-79276500D01*
X28586753Y-80098657D01*
X28363906Y-80976119D01*
X28304695Y-81879497D01*
X19577000Y-81879497D01*
X19577000Y-34750000D01*
X31921418Y-34750000D01*
X31923000Y-34766061D01*
X31923001Y-69733929D01*
X31921418Y-69750000D01*
X31927732Y-69814103D01*
X31946430Y-69875743D01*
X31976794Y-69932550D01*
X32017657Y-69982343D01*
X32067450Y-70023206D01*
X32124257Y-70053570D01*
X32185897Y-70072268D01*
X32233939Y-70077000D01*
X32250000Y-70078582D01*
X32266061Y-70077000D01*
X34233939Y-70077000D01*
X34250000Y-70078582D01*
X34266061Y-70077000D01*
X34314103Y-70072268D01*
X34375743Y-70053570D01*
X34432550Y-70023206D01*
X34482343Y-69982343D01*
X34523206Y-69932550D01*
X34553570Y-69875743D01*
X34572268Y-69814103D01*
X34578582Y-69750000D01*
X34577000Y-69733939D01*
X34577000Y-34766061D01*
X34578582Y-34750000D01*
X45921418Y-34750000D01*
X45923000Y-34766061D01*
X45923001Y-69733929D01*
X45921418Y-69750000D01*
X45927732Y-69814103D01*
X45946430Y-69875743D01*
X45976794Y-69932550D01*
X46017657Y-69982343D01*
X46067450Y-70023206D01*
X46124257Y-70053570D01*
X46185897Y-70072268D01*
X46233939Y-70077000D01*
X46250000Y-70078582D01*
X46266061Y-70077000D01*
X48233939Y-70077000D01*
X48250000Y-70078582D01*
X48266061Y-70077000D01*
X48314103Y-70072268D01*
X48375743Y-70053570D01*
X48432550Y-70023206D01*
X48482343Y-69982343D01*
X48523206Y-69932550D01*
X48553570Y-69875743D01*
X48572268Y-69814103D01*
X48578582Y-69750000D01*
X48577000Y-69733939D01*
X48577000Y-34766061D01*
X48578582Y-34750000D01*
X60721418Y-34750000D01*
X60723001Y-34766071D01*
X60723000Y-69733939D01*
X60721418Y-69750000D01*
X60727732Y-69814103D01*
X60746430Y-69875743D01*
X60776794Y-69932550D01*
X60817657Y-69982343D01*
X60867450Y-70023206D01*
X60924257Y-70053570D01*
X60985897Y-70072268D01*
X61050000Y-70078582D01*
X61066061Y-70077000D01*
X63033939Y-70077000D01*
X63050000Y-70078582D01*
X63066061Y-70077000D01*
X63114103Y-70072268D01*
X63175743Y-70053570D01*
X63232550Y-70023206D01*
X63282343Y-69982343D01*
X63323206Y-69932550D01*
X63353570Y-69875743D01*
X63372268Y-69814103D01*
X63378582Y-69750000D01*
X63377000Y-69733939D01*
X63377000Y-34766061D01*
X63378582Y-34750000D01*
X74721418Y-34750000D01*
X74723001Y-34766071D01*
X74723000Y-69733939D01*
X74721418Y-69750000D01*
X74727732Y-69814103D01*
X74746430Y-69875743D01*
X74776794Y-69932550D01*
X74817657Y-69982343D01*
X74867450Y-70023206D01*
X74924257Y-70053570D01*
X74985897Y-70072268D01*
X75050000Y-70078582D01*
X75066061Y-70077000D01*
X77033939Y-70077000D01*
X77050000Y-70078582D01*
X77066061Y-70077000D01*
X77114103Y-70072268D01*
X77175743Y-70053570D01*
X77232550Y-70023206D01*
X77282343Y-69982343D01*
X77323206Y-69932550D01*
X77353570Y-69875743D01*
X77372268Y-69814103D01*
X77378582Y-69750000D01*
X77377000Y-69733939D01*
X77377000Y-34766061D01*
X77378582Y-34750000D01*
X77372268Y-34685897D01*
X77353570Y-34624257D01*
X77323206Y-34567450D01*
X77282343Y-34517657D01*
X77232550Y-34476794D01*
X77175743Y-34446430D01*
X77114103Y-34427732D01*
X77066061Y-34423000D01*
X77050000Y-34421418D01*
X77033939Y-34423000D01*
X75066061Y-34423000D01*
X75050000Y-34421418D01*
X75033939Y-34423000D01*
X74985897Y-34427732D01*
X74924257Y-34446430D01*
X74867450Y-34476794D01*
X74817657Y-34517657D01*
X74776794Y-34567450D01*
X74746430Y-34624257D01*
X74727732Y-34685897D01*
X74721418Y-34750000D01*
X63378582Y-34750000D01*
X63372268Y-34685897D01*
X63353570Y-34624257D01*
X63323206Y-34567450D01*
X63282343Y-34517657D01*
X63232550Y-34476794D01*
X63175743Y-34446430D01*
X63114103Y-34427732D01*
X63066061Y-34423000D01*
X63050000Y-34421418D01*
X63033939Y-34423000D01*
X61066061Y-34423000D01*
X61050000Y-34421418D01*
X61033939Y-34423000D01*
X60985897Y-34427732D01*
X60924257Y-34446430D01*
X60867450Y-34476794D01*
X60817657Y-34517657D01*
X60776794Y-34567450D01*
X60746430Y-34624257D01*
X60727732Y-34685897D01*
X60721418Y-34750000D01*
X48578582Y-34750000D01*
X48572268Y-34685897D01*
X48553570Y-34624257D01*
X48523206Y-34567450D01*
X48482343Y-34517657D01*
X48432550Y-34476794D01*
X48375743Y-34446430D01*
X48314103Y-34427732D01*
X48266061Y-34423000D01*
X48250000Y-34421418D01*
X48233939Y-34423000D01*
X46266061Y-34423000D01*
X46250000Y-34421418D01*
X46233939Y-34423000D01*
X46185897Y-34427732D01*
X46124257Y-34446430D01*
X46067450Y-34476794D01*
X46017657Y-34517657D01*
X45976794Y-34567450D01*
X45946430Y-34624257D01*
X45927732Y-34685897D01*
X45921418Y-34750000D01*
X34578582Y-34750000D01*
X34572268Y-34685897D01*
X34553570Y-34624257D01*
X34523206Y-34567450D01*
X34482343Y-34517657D01*
X34432550Y-34476794D01*
X34375743Y-34446430D01*
X34314103Y-34427732D01*
X34266061Y-34423000D01*
X34250000Y-34421418D01*
X34233939Y-34423000D01*
X32266061Y-34423000D01*
X32250000Y-34421418D01*
X32233939Y-34423000D01*
X32185897Y-34427732D01*
X32124257Y-34446430D01*
X32067450Y-34476794D01*
X32017657Y-34517657D01*
X31976794Y-34567450D01*
X31946430Y-34624257D01*
X31927732Y-34685897D01*
X31921418Y-34750000D01*
X19577000Y-34750000D01*
X19577000Y-32777184D01*
X20303190Y-32777184D01*
X20345547Y-33154804D01*
X20460443Y-33517005D01*
X20643504Y-33849991D01*
X20887755Y-34141078D01*
X21183894Y-34379180D01*
X21520641Y-34555227D01*
X21885169Y-34662513D01*
X22263593Y-34696953D01*
X22641499Y-34657233D01*
X23004493Y-34544868D01*
X23338749Y-34364136D01*
X23631534Y-34121923D01*
X23871698Y-33827453D01*
X24050091Y-33491944D01*
X24159920Y-33128174D01*
X24194334Y-32777184D01*
X85103190Y-32777184D01*
X85145547Y-33154804D01*
X85260443Y-33517005D01*
X85443504Y-33849991D01*
X85687755Y-34141078D01*
X85983894Y-34379180D01*
X86320641Y-34555227D01*
X86685169Y-34662513D01*
X87063593Y-34696953D01*
X87441499Y-34657233D01*
X87804493Y-34544868D01*
X88138749Y-34364136D01*
X88431534Y-34121923D01*
X88671698Y-33827453D01*
X88850091Y-33491944D01*
X88959920Y-33128174D01*
X88997000Y-32750000D01*
X88996241Y-32695637D01*
X88948616Y-32318645D01*
X88828673Y-31958084D01*
X88640981Y-31627686D01*
X88392689Y-31340037D01*
X88093255Y-31106094D01*
X87754083Y-30934766D01*
X87388093Y-30832579D01*
X87009225Y-30803427D01*
X86631910Y-30848419D01*
X86270520Y-30965842D01*
X85938821Y-31151222D01*
X85649445Y-31397500D01*
X85413417Y-31695294D01*
X85239725Y-32033261D01*
X85134986Y-32398529D01*
X85103190Y-32777184D01*
X24194334Y-32777184D01*
X24197000Y-32750000D01*
X24196241Y-32695637D01*
X24148616Y-32318645D01*
X24028673Y-31958084D01*
X23840981Y-31627686D01*
X23592689Y-31340037D01*
X23293255Y-31106094D01*
X22954083Y-30934766D01*
X22588093Y-30832579D01*
X22209225Y-30803427D01*
X21831910Y-30848419D01*
X21470520Y-30965842D01*
X21138821Y-31151222D01*
X20849445Y-31397500D01*
X20613417Y-31695294D01*
X20439725Y-32033261D01*
X20334986Y-32398529D01*
X20303190Y-32777184D01*
X19577000Y-32777184D01*
X19577000Y-22777184D01*
X24803189Y-22777184D01*
X24845546Y-23154804D01*
X24960443Y-23517005D01*
X25143503Y-23849991D01*
X25387755Y-24141079D01*
X25683894Y-24379181D01*
X26020641Y-24555228D01*
X26385168Y-24662514D01*
X26763593Y-24696954D01*
X27141499Y-24657234D01*
X27504493Y-24544868D01*
X27838749Y-24364137D01*
X28131535Y-24121924D01*
X28371698Y-23827454D01*
X28550092Y-23491944D01*
X28659921Y-23128174D01*
X28697001Y-22750000D01*
X28696744Y-22731534D01*
X69044385Y-22731534D01*
X69044592Y-22761171D01*
X69044385Y-22790807D01*
X69044830Y-22795351D01*
X69077471Y-23105907D01*
X69083436Y-23134966D01*
X69088984Y-23164050D01*
X69090303Y-23168417D01*
X69090304Y-23168423D01*
X69090306Y-23168429D01*
X69182643Y-23466721D01*
X69194128Y-23494043D01*
X69205230Y-23521522D01*
X69207374Y-23525554D01*
X69355895Y-23800238D01*
X69372460Y-23824796D01*
X69388696Y-23849608D01*
X69391582Y-23853147D01*
X69590627Y-24093751D01*
X69611680Y-24114658D01*
X69632394Y-24135809D01*
X69635912Y-24138720D01*
X69877901Y-24336081D01*
X69902568Y-24352469D01*
X69927040Y-24369226D01*
X69931056Y-24371398D01*
X70206769Y-24517998D01*
X70234192Y-24529301D01*
X70261412Y-24540967D01*
X70265774Y-24542318D01*
X70564712Y-24632572D01*
X70593795Y-24638330D01*
X70622774Y-24644490D01*
X70627315Y-24644967D01*
X70938090Y-24675439D01*
X70938091Y-24675439D01*
X70953939Y-24677000D01*
X73986061Y-24677000D01*
X73987200Y-24676888D01*
X73994623Y-24676836D01*
X74009399Y-24675283D01*
X74024248Y-24675283D01*
X74028789Y-24674806D01*
X74339109Y-24639998D01*
X74368081Y-24633840D01*
X74397172Y-24628080D01*
X74401533Y-24626730D01*
X74699182Y-24532310D01*
X74726415Y-24520638D01*
X74753824Y-24509341D01*
X74757841Y-24507169D01*
X75031480Y-24356734D01*
X75055910Y-24340006D01*
X75080621Y-24323589D01*
X75084139Y-24320678D01*
X75323348Y-24119957D01*
X75344083Y-24098783D01*
X75365113Y-24077899D01*
X75367999Y-24074361D01*
X75563666Y-23831001D01*
X75579892Y-23806205D01*
X75596468Y-23781630D01*
X75598612Y-23777599D01*
X75743283Y-23500869D01*
X75754392Y-23473373D01*
X75765870Y-23446068D01*
X75767190Y-23441697D01*
X75855356Y-23142136D01*
X75860909Y-23113024D01*
X75866869Y-23083991D01*
X75867314Y-23079446D01*
X75895615Y-22768467D01*
X75895408Y-22738830D01*
X75895615Y-22709193D01*
X75895170Y-22704649D01*
X75862529Y-22394094D01*
X75856567Y-22365048D01*
X75851016Y-22335950D01*
X75849696Y-22331579D01*
X75757357Y-22033279D01*
X75745879Y-22005974D01*
X75734770Y-21978478D01*
X75732626Y-21974446D01*
X75584105Y-21699762D01*
X75567546Y-21675212D01*
X75551304Y-21650392D01*
X75548418Y-21646854D01*
X75349373Y-21406249D01*
X75328339Y-21385362D01*
X75307607Y-21364191D01*
X75304088Y-21361280D01*
X75062099Y-21163919D01*
X75037424Y-21147525D01*
X75012961Y-21130775D01*
X75008944Y-21128603D01*
X74733231Y-20982002D01*
X74705798Y-20970695D01*
X74678587Y-20959033D01*
X74674225Y-20957682D01*
X74375288Y-20867428D01*
X74346211Y-20861671D01*
X74317226Y-20855510D01*
X74312685Y-20855033D01*
X74001910Y-20824561D01*
X74001909Y-20824561D01*
X73986061Y-20823000D01*
X70953939Y-20823000D01*
X70952800Y-20823112D01*
X70945378Y-20823164D01*
X70930602Y-20824717D01*
X70915752Y-20824717D01*
X70911211Y-20825194D01*
X70600891Y-20860002D01*
X70571912Y-20866162D01*
X70542829Y-20871920D01*
X70538467Y-20873270D01*
X70240819Y-20967689D01*
X70213578Y-20979365D01*
X70186176Y-20990659D01*
X70182159Y-20992831D01*
X69908519Y-21143266D01*
X69884039Y-21160028D01*
X69859380Y-21176411D01*
X69855861Y-21179322D01*
X69616652Y-21380043D01*
X69595917Y-21401217D01*
X69574887Y-21422101D01*
X69572001Y-21425640D01*
X69376334Y-21668999D01*
X69360115Y-21693785D01*
X69343532Y-21718369D01*
X69341389Y-21722401D01*
X69196717Y-21999131D01*
X69185608Y-22026627D01*
X69174130Y-22053932D01*
X69172810Y-22058303D01*
X69084644Y-22357864D01*
X69079091Y-22386976D01*
X69073131Y-22416009D01*
X69072686Y-22420554D01*
X69044385Y-22731534D01*
X28696744Y-22731534D01*
X28696242Y-22695637D01*
X28648617Y-22318645D01*
X28528674Y-21958083D01*
X28340982Y-21627686D01*
X28092690Y-21340037D01*
X27793255Y-21106093D01*
X27454083Y-20934765D01*
X27088093Y-20832578D01*
X26709225Y-20803426D01*
X26331910Y-20848418D01*
X25970520Y-20965841D01*
X25638820Y-21151222D01*
X25349445Y-21397499D01*
X25113416Y-21695294D01*
X24939724Y-22033261D01*
X24834985Y-22398529D01*
X24803189Y-22777184D01*
X19577000Y-22777184D01*
X19577000Y-20077000D01*
X89723000Y-20077000D01*
X89723001Y-147923000D01*
G04 #@! TD*
M02*
