G04 #@! TF.GenerationSoftware,KiCad,Pcbnew,(5.0.2-5-10.14)*
G04 #@! TF.CreationDate,2019-06-16T16:00:31-04:00*
G04 #@! TF.ProjectId,panel,70616e65-6c2e-46b6-9963-61645f706362,rev?*
G04 #@! TF.SameCoordinates,Original*
G04 #@! TF.FileFunction,Soldermask,Bot*
G04 #@! TF.FilePolarity,Negative*
%FSLAX46Y46*%
G04 Gerber Fmt 4.6, Leading zero omitted, Abs format (unit mm)*
G04 Created by KiCad (PCBNEW (5.0.2-5-10.14)) date Sunday, June 16, 2019 at 04:00:31 PM*
%MOMM*%
%LPD*%
G01*
G04 APERTURE LIST*
%ADD10C,0.010000*%
G04 APERTURE END LIST*
D10*
G04 #@! TO.C,G\002A\002A\002A*
G36*
X53704500Y-88069631D02*
X53705193Y-88172176D01*
X53707415Y-88252974D01*
X53711383Y-88315647D01*
X53717314Y-88363815D01*
X53724033Y-88395954D01*
X53765770Y-88506824D01*
X53829893Y-88608944D01*
X53914311Y-88700353D01*
X54016936Y-88779092D01*
X54135678Y-88843203D01*
X54244090Y-88883629D01*
X54272749Y-88892056D01*
X54299903Y-88898882D01*
X54328707Y-88904336D01*
X54362314Y-88908646D01*
X54403880Y-88912039D01*
X54456559Y-88914743D01*
X54523506Y-88916984D01*
X54607874Y-88918992D01*
X54712819Y-88920993D01*
X54777650Y-88922126D01*
X55209450Y-88929550D01*
X55281893Y-88965123D01*
X55326650Y-88990773D01*
X55366552Y-89019844D01*
X55386668Y-89039123D01*
X55398183Y-89053515D01*
X55406577Y-89067929D01*
X55412344Y-89086422D01*
X55415976Y-89113052D01*
X55417967Y-89151879D01*
X55418810Y-89206961D01*
X55418998Y-89282355D01*
X55419000Y-89305174D01*
X55419000Y-89532800D01*
X55914300Y-89532800D01*
X55914300Y-89287818D01*
X55912616Y-89164929D01*
X55906683Y-89063158D01*
X55895182Y-88978394D01*
X55876794Y-88906525D01*
X55850198Y-88843438D01*
X55814075Y-88785022D01*
X55767106Y-88727164D01*
X55717787Y-88675472D01*
X55614862Y-88588141D01*
X55499292Y-88519917D01*
X55367047Y-88468455D01*
X55355293Y-88464893D01*
X55327707Y-88457170D01*
X55300170Y-88450888D01*
X55269556Y-88445835D01*
X55232736Y-88441797D01*
X55186585Y-88438563D01*
X55127973Y-88435920D01*
X55053776Y-88433655D01*
X54960864Y-88431557D01*
X54846111Y-88429411D01*
X54828450Y-88429101D01*
X54396650Y-88421550D01*
X54323930Y-88385839D01*
X54283076Y-88365129D01*
X54252341Y-88345975D01*
X54230285Y-88324501D01*
X54215468Y-88296830D01*
X54206451Y-88259083D01*
X54201794Y-88207384D01*
X54200057Y-88137854D01*
X54199800Y-88051537D01*
X54199800Y-87818300D01*
X53704500Y-87818300D01*
X53704500Y-88069631D01*
X53704500Y-88069631D01*
G37*
X53704500Y-88069631D02*
X53705193Y-88172176D01*
X53707415Y-88252974D01*
X53711383Y-88315647D01*
X53717314Y-88363815D01*
X53724033Y-88395954D01*
X53765770Y-88506824D01*
X53829893Y-88608944D01*
X53914311Y-88700353D01*
X54016936Y-88779092D01*
X54135678Y-88843203D01*
X54244090Y-88883629D01*
X54272749Y-88892056D01*
X54299903Y-88898882D01*
X54328707Y-88904336D01*
X54362314Y-88908646D01*
X54403880Y-88912039D01*
X54456559Y-88914743D01*
X54523506Y-88916984D01*
X54607874Y-88918992D01*
X54712819Y-88920993D01*
X54777650Y-88922126D01*
X55209450Y-88929550D01*
X55281893Y-88965123D01*
X55326650Y-88990773D01*
X55366552Y-89019844D01*
X55386668Y-89039123D01*
X55398183Y-89053515D01*
X55406577Y-89067929D01*
X55412344Y-89086422D01*
X55415976Y-89113052D01*
X55417967Y-89151879D01*
X55418810Y-89206961D01*
X55418998Y-89282355D01*
X55419000Y-89305174D01*
X55419000Y-89532800D01*
X55914300Y-89532800D01*
X55914300Y-89287818D01*
X55912616Y-89164929D01*
X55906683Y-89063158D01*
X55895182Y-88978394D01*
X55876794Y-88906525D01*
X55850198Y-88843438D01*
X55814075Y-88785022D01*
X55767106Y-88727164D01*
X55717787Y-88675472D01*
X55614862Y-88588141D01*
X55499292Y-88519917D01*
X55367047Y-88468455D01*
X55355293Y-88464893D01*
X55327707Y-88457170D01*
X55300170Y-88450888D01*
X55269556Y-88445835D01*
X55232736Y-88441797D01*
X55186585Y-88438563D01*
X55127973Y-88435920D01*
X55053776Y-88433655D01*
X54960864Y-88431557D01*
X54846111Y-88429411D01*
X54828450Y-88429101D01*
X54396650Y-88421550D01*
X54323930Y-88385839D01*
X54283076Y-88365129D01*
X54252341Y-88345975D01*
X54230285Y-88324501D01*
X54215468Y-88296830D01*
X54206451Y-88259083D01*
X54201794Y-88207384D01*
X54200057Y-88137854D01*
X54199800Y-88051537D01*
X54199800Y-87818300D01*
X53704500Y-87818300D01*
X53704500Y-88069631D01*
G36*
X55696478Y-89710855D02*
X55655529Y-89710878D01*
X55508313Y-89710984D01*
X55384299Y-89711215D01*
X55281289Y-89711649D01*
X55197085Y-89712358D01*
X55129488Y-89713419D01*
X55076301Y-89714907D01*
X55035326Y-89716896D01*
X55004365Y-89719463D01*
X54981220Y-89722681D01*
X54963692Y-89726626D01*
X54949583Y-89731373D01*
X54940359Y-89735307D01*
X54905935Y-89755323D01*
X54873143Y-89784761D01*
X54839673Y-89826753D01*
X54803216Y-89884429D01*
X54761463Y-89960921D01*
X54733781Y-90015400D01*
X54697935Y-90086695D01*
X54655776Y-90169633D01*
X54612831Y-90253386D01*
X54578238Y-90320200D01*
X54538451Y-90396580D01*
X54493552Y-90482804D01*
X54449416Y-90567590D01*
X54416237Y-90631350D01*
X54380371Y-90699974D01*
X54342434Y-90772034D01*
X54307110Y-90838663D01*
X54280658Y-90888071D01*
X54224364Y-90992393D01*
X53262757Y-90996021D01*
X52301150Y-90999650D01*
X52218600Y-91029088D01*
X52161417Y-91053374D01*
X52100378Y-91085188D01*
X52062627Y-91108463D01*
X52024801Y-91133312D01*
X51995119Y-91151196D01*
X51979782Y-91158387D01*
X51979546Y-91158400D01*
X51966209Y-91166959D01*
X51942258Y-91188526D01*
X51913737Y-91216931D01*
X51886688Y-91246007D01*
X51867155Y-91269583D01*
X51861348Y-91279050D01*
X51852221Y-91295469D01*
X51832935Y-91326022D01*
X51809006Y-91362097D01*
X51777689Y-91414026D01*
X51747929Y-91472605D01*
X51732806Y-91508147D01*
X51726992Y-91523947D01*
X51722019Y-91539523D01*
X51717812Y-91556906D01*
X51714299Y-91578132D01*
X51711406Y-91605234D01*
X51709059Y-91640244D01*
X51707186Y-91685198D01*
X51705711Y-91742128D01*
X51704563Y-91813068D01*
X51703668Y-91900052D01*
X51702952Y-92005113D01*
X51702341Y-92130285D01*
X51701763Y-92277601D01*
X51701400Y-92377600D01*
X51698550Y-93171350D01*
X51726800Y-93228500D01*
X51750827Y-93267591D01*
X51782463Y-93296550D01*
X51824003Y-93320575D01*
X51892955Y-93355500D01*
X52566953Y-93355570D01*
X52724397Y-93355838D01*
X52865397Y-93356589D01*
X52988594Y-93357799D01*
X53092633Y-93359444D01*
X53176155Y-93361499D01*
X53237804Y-93363940D01*
X53276223Y-93366742D01*
X53287531Y-93368579D01*
X53326872Y-93387362D01*
X53365505Y-93417890D01*
X53373256Y-93426100D01*
X53398876Y-93460698D01*
X53410222Y-93495211D01*
X53412400Y-93532992D01*
X53409972Y-93570763D01*
X53403792Y-93597048D01*
X53399493Y-93603278D01*
X53391485Y-93617427D01*
X53392844Y-93621380D01*
X53389482Y-93636462D01*
X53377176Y-93650620D01*
X53364004Y-93661928D01*
X53351098Y-93671548D01*
X53336385Y-93679636D01*
X53317792Y-93686349D01*
X53293245Y-93691842D01*
X53260671Y-93696271D01*
X53217995Y-93699791D01*
X53163145Y-93702558D01*
X53094047Y-93704729D01*
X53008628Y-93706458D01*
X52904814Y-93707901D01*
X52780531Y-93709215D01*
X52633706Y-93710555D01*
X52571937Y-93711100D01*
X52418541Y-93712476D01*
X52288499Y-93713740D01*
X52179767Y-93714979D01*
X52090301Y-93716283D01*
X52018055Y-93717738D01*
X51960985Y-93719433D01*
X51917047Y-93721457D01*
X51884195Y-93723898D01*
X51860385Y-93726844D01*
X51843573Y-93730382D01*
X51831713Y-93734602D01*
X51822762Y-93739592D01*
X51817023Y-93743671D01*
X51786907Y-93770262D01*
X51753563Y-93805431D01*
X51743086Y-93817857D01*
X51704250Y-93865821D01*
X51701024Y-94305985D01*
X51700198Y-94423308D01*
X51699716Y-94518011D01*
X51699722Y-94592872D01*
X51700361Y-94650670D01*
X51701778Y-94694185D01*
X51704116Y-94726193D01*
X51707521Y-94749476D01*
X51712136Y-94766811D01*
X51718108Y-94780976D01*
X51725579Y-94794752D01*
X51726532Y-94796421D01*
X51755028Y-94834578D01*
X51793467Y-94872308D01*
X51810220Y-94885321D01*
X51865174Y-94923950D01*
X53073762Y-94930300D01*
X53281650Y-94931386D01*
X53465641Y-94932388D01*
X53627237Y-94933395D01*
X53767941Y-94934495D01*
X53889253Y-94935775D01*
X53992677Y-94937324D01*
X54079714Y-94939230D01*
X54151867Y-94941582D01*
X54210639Y-94944467D01*
X54257530Y-94947974D01*
X54294044Y-94952190D01*
X54321682Y-94957205D01*
X54341947Y-94963107D01*
X54356341Y-94969982D01*
X54366366Y-94977921D01*
X54373524Y-94987010D01*
X54379317Y-94997338D01*
X54384336Y-95007246D01*
X54395337Y-95043967D01*
X54401454Y-95096035D01*
X54402449Y-95153824D01*
X54398085Y-95207709D01*
X54390168Y-95242729D01*
X54377335Y-95279550D01*
X53142393Y-95279550D01*
X52966755Y-95279649D01*
X52797858Y-95279939D01*
X52637494Y-95280404D01*
X52487451Y-95281032D01*
X52349522Y-95281808D01*
X52225495Y-95282719D01*
X52117163Y-95283750D01*
X52026314Y-95284888D01*
X51954741Y-95286118D01*
X51904232Y-95287428D01*
X51876579Y-95288802D01*
X51872205Y-95289397D01*
X51834050Y-95308298D01*
X51790849Y-95341670D01*
X51750553Y-95382164D01*
X51721115Y-95422427D01*
X51715009Y-95434717D01*
X51710458Y-95458503D01*
X51706545Y-95504426D01*
X51703269Y-95569231D01*
X51700629Y-95649663D01*
X51698627Y-95742468D01*
X51697262Y-95844390D01*
X51696533Y-95952174D01*
X51696440Y-96062567D01*
X51696983Y-96172311D01*
X51698162Y-96278154D01*
X51699976Y-96376839D01*
X51702426Y-96465112D01*
X51705511Y-96539718D01*
X51709231Y-96597402D01*
X51713585Y-96634909D01*
X51715090Y-96642032D01*
X51732280Y-96708300D01*
X51292308Y-96708300D01*
X51163551Y-96708450D01*
X51057128Y-96709174D01*
X50969974Y-96710878D01*
X50899025Y-96713967D01*
X50841214Y-96718848D01*
X50793478Y-96725928D01*
X50752750Y-96735613D01*
X50715966Y-96748310D01*
X50680060Y-96764425D01*
X50641968Y-96784364D01*
X50617857Y-96797734D01*
X50567748Y-96828759D01*
X50517302Y-96865009D01*
X50471054Y-96902600D01*
X50433540Y-96937648D01*
X50409297Y-96966267D01*
X50402500Y-96982193D01*
X50394495Y-97000235D01*
X50374696Y-97026493D01*
X50369204Y-97032618D01*
X50333407Y-97086520D01*
X50305432Y-97159302D01*
X50285846Y-97245502D01*
X50275219Y-97339659D01*
X50274118Y-97436310D01*
X50283112Y-97529993D01*
X50302769Y-97615247D01*
X50307202Y-97628480D01*
X50347556Y-97718577D01*
X50402070Y-97805156D01*
X50466119Y-97882449D01*
X50535075Y-97944686D01*
X50587746Y-97978279D01*
X50615342Y-97994035D01*
X50631268Y-98006012D01*
X50631542Y-98006356D01*
X50646170Y-98014856D01*
X50678013Y-98028466D01*
X50720195Y-98044247D01*
X50720442Y-98044334D01*
X50802550Y-98073265D01*
X54777650Y-98075367D01*
X55148631Y-98075525D01*
X55505432Y-98075602D01*
X55847436Y-98075598D01*
X56174024Y-98075516D01*
X56484578Y-98075356D01*
X56778480Y-98075120D01*
X57055111Y-98074810D01*
X57313854Y-98074427D01*
X57554089Y-98073973D01*
X57775200Y-98073449D01*
X57976567Y-98072856D01*
X58157572Y-98072197D01*
X58317597Y-98071472D01*
X58456024Y-98070683D01*
X58572235Y-98069832D01*
X58665611Y-98068920D01*
X58735534Y-98067948D01*
X58781385Y-98066918D01*
X58802548Y-98065832D01*
X58803550Y-98065665D01*
X58846512Y-98054066D01*
X58892533Y-98039171D01*
X58934278Y-98023658D01*
X58964411Y-98010208D01*
X58975000Y-98003054D01*
X58989672Y-97992765D01*
X59018206Y-97977544D01*
X59027001Y-97973317D01*
X59056553Y-97954938D01*
X59093570Y-97925711D01*
X59132968Y-97890514D01*
X59169665Y-97854225D01*
X59198577Y-97821721D01*
X59214621Y-97797880D01*
X59216300Y-97791665D01*
X59224037Y-97776425D01*
X59229000Y-97775100D01*
X59240493Y-97764914D01*
X59241700Y-97757408D01*
X59251918Y-97737665D01*
X59260143Y-97732640D01*
X59271967Y-97717998D01*
X59287874Y-97684886D01*
X59305148Y-97639307D01*
X59312295Y-97617447D01*
X59327156Y-97566995D01*
X59336548Y-97524964D01*
X59341381Y-97483105D01*
X59342566Y-97433169D01*
X59341014Y-97366906D01*
X59340764Y-97359641D01*
X59337541Y-97289996D01*
X59332692Y-97238362D01*
X59324930Y-97197354D01*
X59312965Y-97159585D01*
X59300590Y-97129241D01*
X59277823Y-97082274D01*
X59253275Y-97040234D01*
X59234628Y-97015071D01*
X59213926Y-96989315D01*
X59203802Y-96969987D01*
X59203600Y-96968249D01*
X59192617Y-96944030D01*
X59162534Y-96912633D01*
X59117651Y-96876757D01*
X59062267Y-96839102D01*
X59000682Y-96802370D01*
X58937196Y-96769262D01*
X58876110Y-96742477D01*
X58821721Y-96724716D01*
X58812450Y-96722574D01*
X58778258Y-96718285D01*
X58720421Y-96714695D01*
X58640685Y-96711853D01*
X58540798Y-96709809D01*
X58422506Y-96708613D01*
X58312617Y-96708300D01*
X58196366Y-96708234D01*
X58103073Y-96707952D01*
X58030297Y-96707327D01*
X57975597Y-96706229D01*
X57936530Y-96704530D01*
X57910655Y-96702104D01*
X57895531Y-96698821D01*
X57888717Y-96694554D01*
X57887770Y-96689175D01*
X57888716Y-96686075D01*
X57892577Y-96674552D01*
X57896118Y-96660002D01*
X57899351Y-96641364D01*
X57902289Y-96617582D01*
X57904943Y-96587597D01*
X57907324Y-96550350D01*
X57909444Y-96504783D01*
X57911316Y-96449839D01*
X57912950Y-96384458D01*
X57914359Y-96307583D01*
X57915554Y-96218155D01*
X57916548Y-96115117D01*
X57917352Y-95997409D01*
X57917977Y-95863974D01*
X57918436Y-95713754D01*
X57918740Y-95545689D01*
X57918901Y-95358723D01*
X57918931Y-95151796D01*
X57918841Y-94923850D01*
X57918644Y-94673828D01*
X57918350Y-94400671D01*
X57917973Y-94103320D01*
X57917914Y-94059637D01*
X57914550Y-91583850D01*
X57880370Y-91498590D01*
X57853944Y-91441907D01*
X57820568Y-91382576D01*
X57794645Y-91343557D01*
X57768705Y-91306973D01*
X57750191Y-91278056D01*
X57743101Y-91263051D01*
X57743100Y-91263033D01*
X57734548Y-91248383D01*
X57713723Y-91224674D01*
X57687874Y-91199099D01*
X57664250Y-91178851D01*
X57650450Y-91171100D01*
X57636067Y-91164278D01*
X57608022Y-91146627D01*
X57581205Y-91128170D01*
X57465094Y-91059433D01*
X57343889Y-91015270D01*
X57215671Y-90995053D01*
X57169281Y-90993520D01*
X57127097Y-90992077D01*
X57103536Y-90986596D01*
X57091886Y-90974850D01*
X57088707Y-90966819D01*
X57079770Y-90946204D01*
X57061170Y-90908275D01*
X57035423Y-90858007D01*
X57005043Y-90800378D01*
X56997255Y-90785844D01*
X56957426Y-90711156D01*
X56913142Y-90627166D01*
X56870240Y-90544990D01*
X56839439Y-90485300D01*
X56803484Y-90415558D01*
X56760862Y-90333642D01*
X56716905Y-90249762D01*
X56676956Y-90174150D01*
X56640252Y-90104626D01*
X56602691Y-90032735D01*
X56568363Y-89966346D01*
X56541356Y-89913328D01*
X56538283Y-89907204D01*
X56518388Y-89867025D01*
X56500617Y-89832718D01*
X56482892Y-89803822D01*
X56463134Y-89779874D01*
X56439265Y-89760413D01*
X56409207Y-89744975D01*
X56370880Y-89733098D01*
X56322206Y-89724321D01*
X56261106Y-89718181D01*
X56185503Y-89714215D01*
X56093317Y-89711962D01*
X55982470Y-89710959D01*
X55850883Y-89710744D01*
X55696478Y-89710855D01*
X55696478Y-89710855D01*
G37*
X55696478Y-89710855D02*
X55655529Y-89710878D01*
X55508313Y-89710984D01*
X55384299Y-89711215D01*
X55281289Y-89711649D01*
X55197085Y-89712358D01*
X55129488Y-89713419D01*
X55076301Y-89714907D01*
X55035326Y-89716896D01*
X55004365Y-89719463D01*
X54981220Y-89722681D01*
X54963692Y-89726626D01*
X54949583Y-89731373D01*
X54940359Y-89735307D01*
X54905935Y-89755323D01*
X54873143Y-89784761D01*
X54839673Y-89826753D01*
X54803216Y-89884429D01*
X54761463Y-89960921D01*
X54733781Y-90015400D01*
X54697935Y-90086695D01*
X54655776Y-90169633D01*
X54612831Y-90253386D01*
X54578238Y-90320200D01*
X54538451Y-90396580D01*
X54493552Y-90482804D01*
X54449416Y-90567590D01*
X54416237Y-90631350D01*
X54380371Y-90699974D01*
X54342434Y-90772034D01*
X54307110Y-90838663D01*
X54280658Y-90888071D01*
X54224364Y-90992393D01*
X53262757Y-90996021D01*
X52301150Y-90999650D01*
X52218600Y-91029088D01*
X52161417Y-91053374D01*
X52100378Y-91085188D01*
X52062627Y-91108463D01*
X52024801Y-91133312D01*
X51995119Y-91151196D01*
X51979782Y-91158387D01*
X51979546Y-91158400D01*
X51966209Y-91166959D01*
X51942258Y-91188526D01*
X51913737Y-91216931D01*
X51886688Y-91246007D01*
X51867155Y-91269583D01*
X51861348Y-91279050D01*
X51852221Y-91295469D01*
X51832935Y-91326022D01*
X51809006Y-91362097D01*
X51777689Y-91414026D01*
X51747929Y-91472605D01*
X51732806Y-91508147D01*
X51726992Y-91523947D01*
X51722019Y-91539523D01*
X51717812Y-91556906D01*
X51714299Y-91578132D01*
X51711406Y-91605234D01*
X51709059Y-91640244D01*
X51707186Y-91685198D01*
X51705711Y-91742128D01*
X51704563Y-91813068D01*
X51703668Y-91900052D01*
X51702952Y-92005113D01*
X51702341Y-92130285D01*
X51701763Y-92277601D01*
X51701400Y-92377600D01*
X51698550Y-93171350D01*
X51726800Y-93228500D01*
X51750827Y-93267591D01*
X51782463Y-93296550D01*
X51824003Y-93320575D01*
X51892955Y-93355500D01*
X52566953Y-93355570D01*
X52724397Y-93355838D01*
X52865397Y-93356589D01*
X52988594Y-93357799D01*
X53092633Y-93359444D01*
X53176155Y-93361499D01*
X53237804Y-93363940D01*
X53276223Y-93366742D01*
X53287531Y-93368579D01*
X53326872Y-93387362D01*
X53365505Y-93417890D01*
X53373256Y-93426100D01*
X53398876Y-93460698D01*
X53410222Y-93495211D01*
X53412400Y-93532992D01*
X53409972Y-93570763D01*
X53403792Y-93597048D01*
X53399493Y-93603278D01*
X53391485Y-93617427D01*
X53392844Y-93621380D01*
X53389482Y-93636462D01*
X53377176Y-93650620D01*
X53364004Y-93661928D01*
X53351098Y-93671548D01*
X53336385Y-93679636D01*
X53317792Y-93686349D01*
X53293245Y-93691842D01*
X53260671Y-93696271D01*
X53217995Y-93699791D01*
X53163145Y-93702558D01*
X53094047Y-93704729D01*
X53008628Y-93706458D01*
X52904814Y-93707901D01*
X52780531Y-93709215D01*
X52633706Y-93710555D01*
X52571937Y-93711100D01*
X52418541Y-93712476D01*
X52288499Y-93713740D01*
X52179767Y-93714979D01*
X52090301Y-93716283D01*
X52018055Y-93717738D01*
X51960985Y-93719433D01*
X51917047Y-93721457D01*
X51884195Y-93723898D01*
X51860385Y-93726844D01*
X51843573Y-93730382D01*
X51831713Y-93734602D01*
X51822762Y-93739592D01*
X51817023Y-93743671D01*
X51786907Y-93770262D01*
X51753563Y-93805431D01*
X51743086Y-93817857D01*
X51704250Y-93865821D01*
X51701024Y-94305985D01*
X51700198Y-94423308D01*
X51699716Y-94518011D01*
X51699722Y-94592872D01*
X51700361Y-94650670D01*
X51701778Y-94694185D01*
X51704116Y-94726193D01*
X51707521Y-94749476D01*
X51712136Y-94766811D01*
X51718108Y-94780976D01*
X51725579Y-94794752D01*
X51726532Y-94796421D01*
X51755028Y-94834578D01*
X51793467Y-94872308D01*
X51810220Y-94885321D01*
X51865174Y-94923950D01*
X53073762Y-94930300D01*
X53281650Y-94931386D01*
X53465641Y-94932388D01*
X53627237Y-94933395D01*
X53767941Y-94934495D01*
X53889253Y-94935775D01*
X53992677Y-94937324D01*
X54079714Y-94939230D01*
X54151867Y-94941582D01*
X54210639Y-94944467D01*
X54257530Y-94947974D01*
X54294044Y-94952190D01*
X54321682Y-94957205D01*
X54341947Y-94963107D01*
X54356341Y-94969982D01*
X54366366Y-94977921D01*
X54373524Y-94987010D01*
X54379317Y-94997338D01*
X54384336Y-95007246D01*
X54395337Y-95043967D01*
X54401454Y-95096035D01*
X54402449Y-95153824D01*
X54398085Y-95207709D01*
X54390168Y-95242729D01*
X54377335Y-95279550D01*
X53142393Y-95279550D01*
X52966755Y-95279649D01*
X52797858Y-95279939D01*
X52637494Y-95280404D01*
X52487451Y-95281032D01*
X52349522Y-95281808D01*
X52225495Y-95282719D01*
X52117163Y-95283750D01*
X52026314Y-95284888D01*
X51954741Y-95286118D01*
X51904232Y-95287428D01*
X51876579Y-95288802D01*
X51872205Y-95289397D01*
X51834050Y-95308298D01*
X51790849Y-95341670D01*
X51750553Y-95382164D01*
X51721115Y-95422427D01*
X51715009Y-95434717D01*
X51710458Y-95458503D01*
X51706545Y-95504426D01*
X51703269Y-95569231D01*
X51700629Y-95649663D01*
X51698627Y-95742468D01*
X51697262Y-95844390D01*
X51696533Y-95952174D01*
X51696440Y-96062567D01*
X51696983Y-96172311D01*
X51698162Y-96278154D01*
X51699976Y-96376839D01*
X51702426Y-96465112D01*
X51705511Y-96539718D01*
X51709231Y-96597402D01*
X51713585Y-96634909D01*
X51715090Y-96642032D01*
X51732280Y-96708300D01*
X51292308Y-96708300D01*
X51163551Y-96708450D01*
X51057128Y-96709174D01*
X50969974Y-96710878D01*
X50899025Y-96713967D01*
X50841214Y-96718848D01*
X50793478Y-96725928D01*
X50752750Y-96735613D01*
X50715966Y-96748310D01*
X50680060Y-96764425D01*
X50641968Y-96784364D01*
X50617857Y-96797734D01*
X50567748Y-96828759D01*
X50517302Y-96865009D01*
X50471054Y-96902600D01*
X50433540Y-96937648D01*
X50409297Y-96966267D01*
X50402500Y-96982193D01*
X50394495Y-97000235D01*
X50374696Y-97026493D01*
X50369204Y-97032618D01*
X50333407Y-97086520D01*
X50305432Y-97159302D01*
X50285846Y-97245502D01*
X50275219Y-97339659D01*
X50274118Y-97436310D01*
X50283112Y-97529993D01*
X50302769Y-97615247D01*
X50307202Y-97628480D01*
X50347556Y-97718577D01*
X50402070Y-97805156D01*
X50466119Y-97882449D01*
X50535075Y-97944686D01*
X50587746Y-97978279D01*
X50615342Y-97994035D01*
X50631268Y-98006012D01*
X50631542Y-98006356D01*
X50646170Y-98014856D01*
X50678013Y-98028466D01*
X50720195Y-98044247D01*
X50720442Y-98044334D01*
X50802550Y-98073265D01*
X54777650Y-98075367D01*
X55148631Y-98075525D01*
X55505432Y-98075602D01*
X55847436Y-98075598D01*
X56174024Y-98075516D01*
X56484578Y-98075356D01*
X56778480Y-98075120D01*
X57055111Y-98074810D01*
X57313854Y-98074427D01*
X57554089Y-98073973D01*
X57775200Y-98073449D01*
X57976567Y-98072856D01*
X58157572Y-98072197D01*
X58317597Y-98071472D01*
X58456024Y-98070683D01*
X58572235Y-98069832D01*
X58665611Y-98068920D01*
X58735534Y-98067948D01*
X58781385Y-98066918D01*
X58802548Y-98065832D01*
X58803550Y-98065665D01*
X58846512Y-98054066D01*
X58892533Y-98039171D01*
X58934278Y-98023658D01*
X58964411Y-98010208D01*
X58975000Y-98003054D01*
X58989672Y-97992765D01*
X59018206Y-97977544D01*
X59027001Y-97973317D01*
X59056553Y-97954938D01*
X59093570Y-97925711D01*
X59132968Y-97890514D01*
X59169665Y-97854225D01*
X59198577Y-97821721D01*
X59214621Y-97797880D01*
X59216300Y-97791665D01*
X59224037Y-97776425D01*
X59229000Y-97775100D01*
X59240493Y-97764914D01*
X59241700Y-97757408D01*
X59251918Y-97737665D01*
X59260143Y-97732640D01*
X59271967Y-97717998D01*
X59287874Y-97684886D01*
X59305148Y-97639307D01*
X59312295Y-97617447D01*
X59327156Y-97566995D01*
X59336548Y-97524964D01*
X59341381Y-97483105D01*
X59342566Y-97433169D01*
X59341014Y-97366906D01*
X59340764Y-97359641D01*
X59337541Y-97289996D01*
X59332692Y-97238362D01*
X59324930Y-97197354D01*
X59312965Y-97159585D01*
X59300590Y-97129241D01*
X59277823Y-97082274D01*
X59253275Y-97040234D01*
X59234628Y-97015071D01*
X59213926Y-96989315D01*
X59203802Y-96969987D01*
X59203600Y-96968249D01*
X59192617Y-96944030D01*
X59162534Y-96912633D01*
X59117651Y-96876757D01*
X59062267Y-96839102D01*
X59000682Y-96802370D01*
X58937196Y-96769262D01*
X58876110Y-96742477D01*
X58821721Y-96724716D01*
X58812450Y-96722574D01*
X58778258Y-96718285D01*
X58720421Y-96714695D01*
X58640685Y-96711853D01*
X58540798Y-96709809D01*
X58422506Y-96708613D01*
X58312617Y-96708300D01*
X58196366Y-96708234D01*
X58103073Y-96707952D01*
X58030297Y-96707327D01*
X57975597Y-96706229D01*
X57936530Y-96704530D01*
X57910655Y-96702104D01*
X57895531Y-96698821D01*
X57888717Y-96694554D01*
X57887770Y-96689175D01*
X57888716Y-96686075D01*
X57892577Y-96674552D01*
X57896118Y-96660002D01*
X57899351Y-96641364D01*
X57902289Y-96617582D01*
X57904943Y-96587597D01*
X57907324Y-96550350D01*
X57909444Y-96504783D01*
X57911316Y-96449839D01*
X57912950Y-96384458D01*
X57914359Y-96307583D01*
X57915554Y-96218155D01*
X57916548Y-96115117D01*
X57917352Y-95997409D01*
X57917977Y-95863974D01*
X57918436Y-95713754D01*
X57918740Y-95545689D01*
X57918901Y-95358723D01*
X57918931Y-95151796D01*
X57918841Y-94923850D01*
X57918644Y-94673828D01*
X57918350Y-94400671D01*
X57917973Y-94103320D01*
X57917914Y-94059637D01*
X57914550Y-91583850D01*
X57880370Y-91498590D01*
X57853944Y-91441907D01*
X57820568Y-91382576D01*
X57794645Y-91343557D01*
X57768705Y-91306973D01*
X57750191Y-91278056D01*
X57743101Y-91263051D01*
X57743100Y-91263033D01*
X57734548Y-91248383D01*
X57713723Y-91224674D01*
X57687874Y-91199099D01*
X57664250Y-91178851D01*
X57650450Y-91171100D01*
X57636067Y-91164278D01*
X57608022Y-91146627D01*
X57581205Y-91128170D01*
X57465094Y-91059433D01*
X57343889Y-91015270D01*
X57215671Y-90995053D01*
X57169281Y-90993520D01*
X57127097Y-90992077D01*
X57103536Y-90986596D01*
X57091886Y-90974850D01*
X57088707Y-90966819D01*
X57079770Y-90946204D01*
X57061170Y-90908275D01*
X57035423Y-90858007D01*
X57005043Y-90800378D01*
X56997255Y-90785844D01*
X56957426Y-90711156D01*
X56913142Y-90627166D01*
X56870240Y-90544990D01*
X56839439Y-90485300D01*
X56803484Y-90415558D01*
X56760862Y-90333642D01*
X56716905Y-90249762D01*
X56676956Y-90174150D01*
X56640252Y-90104626D01*
X56602691Y-90032735D01*
X56568363Y-89966346D01*
X56541356Y-89913328D01*
X56538283Y-89907204D01*
X56518388Y-89867025D01*
X56500617Y-89832718D01*
X56482892Y-89803822D01*
X56463134Y-89779874D01*
X56439265Y-89760413D01*
X56409207Y-89744975D01*
X56370880Y-89733098D01*
X56322206Y-89724321D01*
X56261106Y-89718181D01*
X56185503Y-89714215D01*
X56093317Y-89711962D01*
X55982470Y-89710959D01*
X55850883Y-89710744D01*
X55696478Y-89710855D01*
G36*
X52675800Y-98461844D02*
X52628080Y-98497656D01*
X52593458Y-98546336D01*
X52587955Y-98557094D01*
X52564957Y-98616288D01*
X52557033Y-98673826D01*
X52564640Y-98735392D01*
X52588236Y-98806675D01*
X52612381Y-98860950D01*
X52636239Y-98909962D01*
X52656587Y-98949830D01*
X52670689Y-98975294D01*
X52675167Y-98981600D01*
X52683552Y-98994714D01*
X52700829Y-99026326D01*
X52724719Y-99072122D01*
X52752943Y-99127786D01*
X52762379Y-99146700D01*
X52792048Y-99205659D01*
X52818648Y-99257156D01*
X52839714Y-99296516D01*
X52852781Y-99319065D01*
X52854695Y-99321759D01*
X52865029Y-99338471D01*
X52884352Y-99373373D01*
X52910243Y-99421963D01*
X52940283Y-99479739D01*
X52952932Y-99504442D01*
X52993079Y-99582817D01*
X53038758Y-99671398D01*
X53084201Y-99759031D01*
X53121790Y-99831033D01*
X53218745Y-100016572D01*
X53322853Y-100217086D01*
X53430056Y-100424757D01*
X53452045Y-100467500D01*
X53489693Y-100539823D01*
X53531071Y-100617847D01*
X53571042Y-100691959D01*
X53603105Y-100750120D01*
X53619331Y-100780539D01*
X53632840Y-100807237D01*
X53645298Y-100830454D01*
X53658373Y-100850430D01*
X53673730Y-100867404D01*
X53693037Y-100881613D01*
X53717960Y-100893299D01*
X53750165Y-100902700D01*
X53791319Y-100910054D01*
X53843088Y-100915602D01*
X53907140Y-100919583D01*
X53985140Y-100922235D01*
X54078755Y-100923798D01*
X54189652Y-100924511D01*
X54319497Y-100924612D01*
X54469956Y-100924342D01*
X54642698Y-100923940D01*
X54812437Y-100923668D01*
X55014536Y-100923358D01*
X55192329Y-100922848D01*
X55346911Y-100922120D01*
X55479374Y-100921159D01*
X55590813Y-100919947D01*
X55682322Y-100918470D01*
X55754994Y-100916710D01*
X55809923Y-100914651D01*
X55848203Y-100912277D01*
X55870927Y-100909572D01*
X55877527Y-100907793D01*
X55910403Y-100890120D01*
X55931797Y-100875274D01*
X55949487Y-100853601D01*
X55977667Y-100809550D01*
X56016001Y-100743718D01*
X56064150Y-100656703D01*
X56121776Y-100549103D01*
X56188543Y-100421517D01*
X56194328Y-100410350D01*
X56235518Y-100330836D01*
X56279542Y-100245932D01*
X56322280Y-100163576D01*
X56359612Y-100091710D01*
X56375532Y-100061100D01*
X56413746Y-99987640D01*
X56456765Y-99904898D01*
X56498492Y-99824603D01*
X56524074Y-99775350D01*
X56557700Y-99710651D01*
X56598380Y-99632469D01*
X56641416Y-99549833D01*
X56682104Y-99471775D01*
X56689367Y-99457850D01*
X56729318Y-99380938D01*
X56772699Y-99296872D01*
X56814715Y-99214980D01*
X56850568Y-99144589D01*
X56855926Y-99134000D01*
X56884811Y-99077613D01*
X56910536Y-99028819D01*
X56930485Y-98992483D01*
X56942042Y-98973467D01*
X56942715Y-98972611D01*
X56954431Y-98951829D01*
X56955700Y-98945094D01*
X56963792Y-98929459D01*
X56965225Y-98928683D01*
X56974954Y-98915939D01*
X56991909Y-98886159D01*
X57012692Y-98845377D01*
X57016025Y-98838484D01*
X57048738Y-98750638D01*
X57058174Y-98670354D01*
X57044423Y-98595229D01*
X57026326Y-98553950D01*
X57005648Y-98519193D01*
X56983013Y-98493676D01*
X56951195Y-98470952D01*
X56904900Y-98445570D01*
X56896421Y-98443369D01*
X56879197Y-98441362D01*
X56852205Y-98439542D01*
X56814418Y-98437900D01*
X56764811Y-98436429D01*
X56702361Y-98435120D01*
X56626042Y-98433965D01*
X56534828Y-98432957D01*
X56427695Y-98432088D01*
X56303617Y-98431348D01*
X56161570Y-98430731D01*
X56000529Y-98430229D01*
X55819468Y-98429833D01*
X55617363Y-98429535D01*
X55393188Y-98429327D01*
X55145919Y-98429202D01*
X54874531Y-98429152D01*
X54803050Y-98429150D01*
X52732950Y-98429150D01*
X52675800Y-98461844D01*
X52675800Y-98461844D01*
G37*
X52675800Y-98461844D02*
X52628080Y-98497656D01*
X52593458Y-98546336D01*
X52587955Y-98557094D01*
X52564957Y-98616288D01*
X52557033Y-98673826D01*
X52564640Y-98735392D01*
X52588236Y-98806675D01*
X52612381Y-98860950D01*
X52636239Y-98909962D01*
X52656587Y-98949830D01*
X52670689Y-98975294D01*
X52675167Y-98981600D01*
X52683552Y-98994714D01*
X52700829Y-99026326D01*
X52724719Y-99072122D01*
X52752943Y-99127786D01*
X52762379Y-99146700D01*
X52792048Y-99205659D01*
X52818648Y-99257156D01*
X52839714Y-99296516D01*
X52852781Y-99319065D01*
X52854695Y-99321759D01*
X52865029Y-99338471D01*
X52884352Y-99373373D01*
X52910243Y-99421963D01*
X52940283Y-99479739D01*
X52952932Y-99504442D01*
X52993079Y-99582817D01*
X53038758Y-99671398D01*
X53084201Y-99759031D01*
X53121790Y-99831033D01*
X53218745Y-100016572D01*
X53322853Y-100217086D01*
X53430056Y-100424757D01*
X53452045Y-100467500D01*
X53489693Y-100539823D01*
X53531071Y-100617847D01*
X53571042Y-100691959D01*
X53603105Y-100750120D01*
X53619331Y-100780539D01*
X53632840Y-100807237D01*
X53645298Y-100830454D01*
X53658373Y-100850430D01*
X53673730Y-100867404D01*
X53693037Y-100881613D01*
X53717960Y-100893299D01*
X53750165Y-100902700D01*
X53791319Y-100910054D01*
X53843088Y-100915602D01*
X53907140Y-100919583D01*
X53985140Y-100922235D01*
X54078755Y-100923798D01*
X54189652Y-100924511D01*
X54319497Y-100924612D01*
X54469956Y-100924342D01*
X54642698Y-100923940D01*
X54812437Y-100923668D01*
X55014536Y-100923358D01*
X55192329Y-100922848D01*
X55346911Y-100922120D01*
X55479374Y-100921159D01*
X55590813Y-100919947D01*
X55682322Y-100918470D01*
X55754994Y-100916710D01*
X55809923Y-100914651D01*
X55848203Y-100912277D01*
X55870927Y-100909572D01*
X55877527Y-100907793D01*
X55910403Y-100890120D01*
X55931797Y-100875274D01*
X55949487Y-100853601D01*
X55977667Y-100809550D01*
X56016001Y-100743718D01*
X56064150Y-100656703D01*
X56121776Y-100549103D01*
X56188543Y-100421517D01*
X56194328Y-100410350D01*
X56235518Y-100330836D01*
X56279542Y-100245932D01*
X56322280Y-100163576D01*
X56359612Y-100091710D01*
X56375532Y-100061100D01*
X56413746Y-99987640D01*
X56456765Y-99904898D01*
X56498492Y-99824603D01*
X56524074Y-99775350D01*
X56557700Y-99710651D01*
X56598380Y-99632469D01*
X56641416Y-99549833D01*
X56682104Y-99471775D01*
X56689367Y-99457850D01*
X56729318Y-99380938D01*
X56772699Y-99296872D01*
X56814715Y-99214980D01*
X56850568Y-99144589D01*
X56855926Y-99134000D01*
X56884811Y-99077613D01*
X56910536Y-99028819D01*
X56930485Y-98992483D01*
X56942042Y-98973467D01*
X56942715Y-98972611D01*
X56954431Y-98951829D01*
X56955700Y-98945094D01*
X56963792Y-98929459D01*
X56965225Y-98928683D01*
X56974954Y-98915939D01*
X56991909Y-98886159D01*
X57012692Y-98845377D01*
X57016025Y-98838484D01*
X57048738Y-98750638D01*
X57058174Y-98670354D01*
X57044423Y-98595229D01*
X57026326Y-98553950D01*
X57005648Y-98519193D01*
X56983013Y-98493676D01*
X56951195Y-98470952D01*
X56904900Y-98445570D01*
X56896421Y-98443369D01*
X56879197Y-98441362D01*
X56852205Y-98439542D01*
X56814418Y-98437900D01*
X56764811Y-98436429D01*
X56702361Y-98435120D01*
X56626042Y-98433965D01*
X56534828Y-98432957D01*
X56427695Y-98432088D01*
X56303617Y-98431348D01*
X56161570Y-98430731D01*
X56000529Y-98430229D01*
X55819468Y-98429833D01*
X55617363Y-98429535D01*
X55393188Y-98429327D01*
X55145919Y-98429202D01*
X54874531Y-98429152D01*
X54803050Y-98429150D01*
X52732950Y-98429150D01*
X52675800Y-98461844D01*
G36*
X44869287Y-99104945D02*
X44866906Y-99116329D01*
X44878783Y-99138412D01*
X44905686Y-99172583D01*
X44948384Y-99220233D01*
X45007645Y-99282751D01*
X45084238Y-99361527D01*
X45091060Y-99368495D01*
X45310470Y-99592498D01*
X45599060Y-99767202D01*
X45693082Y-99824118D01*
X45801726Y-99889880D01*
X45917880Y-99960186D01*
X46034437Y-100030733D01*
X46144285Y-100097216D01*
X46208325Y-100135973D01*
X46289443Y-100185488D01*
X46363019Y-100231214D01*
X46426360Y-100271410D01*
X46476771Y-100304339D01*
X46511560Y-100328261D01*
X46528033Y-100341436D01*
X46529000Y-100343031D01*
X46522785Y-100358906D01*
X46506082Y-100390942D01*
X46481801Y-100433723D01*
X46465413Y-100461294D01*
X46438723Y-100508256D01*
X46419024Y-100548329D01*
X46408923Y-100575893D01*
X46408487Y-100583927D01*
X46420611Y-100594465D01*
X46451937Y-100616345D01*
X46499853Y-100647893D01*
X46561752Y-100687434D01*
X46635022Y-100733295D01*
X46717055Y-100783800D01*
X46773700Y-100818242D01*
X46837715Y-100856973D01*
X46904834Y-100897576D01*
X46976178Y-100940727D01*
X47052870Y-100987106D01*
X47136032Y-101037390D01*
X47226786Y-101092258D01*
X47326253Y-101152388D01*
X47435557Y-101218458D01*
X47555818Y-101291145D01*
X47688159Y-101371129D01*
X47833702Y-101459088D01*
X47993569Y-101555698D01*
X48168882Y-101661640D01*
X48360762Y-101777590D01*
X48570333Y-101904227D01*
X48798716Y-102042230D01*
X49047032Y-102192276D01*
X49208700Y-102289963D01*
X49365296Y-102384585D01*
X49528065Y-102482938D01*
X49693893Y-102583140D01*
X49859667Y-102683309D01*
X50022271Y-102781563D01*
X50178594Y-102876022D01*
X50325520Y-102964804D01*
X50459937Y-103046026D01*
X50578730Y-103117809D01*
X50675550Y-103176314D01*
X50788280Y-103244450D01*
X50899085Y-103311453D01*
X51005133Y-103375608D01*
X51103588Y-103435199D01*
X51191615Y-103488510D01*
X51266381Y-103533824D01*
X51325050Y-103569425D01*
X51364552Y-103593454D01*
X51417763Y-103625733D01*
X51462592Y-103652606D01*
X51494905Y-103671618D01*
X51510566Y-103680314D01*
X51511350Y-103680600D01*
X51523115Y-103673763D01*
X51535139Y-103664725D01*
X51546418Y-103650237D01*
X51568960Y-103616704D01*
X51601017Y-103566892D01*
X51640839Y-103503568D01*
X51686676Y-103429500D01*
X51736781Y-103347456D01*
X51761896Y-103305950D01*
X51826063Y-103199752D01*
X51878345Y-103113290D01*
X51919767Y-103044419D01*
X51951353Y-102991001D01*
X51974125Y-102950892D01*
X51989107Y-102921951D01*
X51997324Y-102902037D01*
X51999798Y-102889008D01*
X51997554Y-102880723D01*
X51991615Y-102875040D01*
X51983004Y-102869818D01*
X51973415Y-102863435D01*
X51953841Y-102850161D01*
X51915474Y-102825682D01*
X51861307Y-102791852D01*
X51794334Y-102750522D01*
X51717547Y-102703546D01*
X51633940Y-102652778D01*
X51598765Y-102631526D01*
X51544633Y-102598854D01*
X51470493Y-102554084D01*
X51378070Y-102498259D01*
X51269093Y-102432422D01*
X51145287Y-102357618D01*
X51008380Y-102274889D01*
X50860099Y-102185279D01*
X50702171Y-102089833D01*
X50536323Y-101989593D01*
X50364280Y-101885603D01*
X50187771Y-101778907D01*
X50008523Y-101670548D01*
X49856400Y-101578582D01*
X49535867Y-101384803D01*
X49231749Y-101200959D01*
X48944490Y-101027317D01*
X48674533Y-100864145D01*
X48422322Y-100711712D01*
X48188301Y-100570285D01*
X47972914Y-100440133D01*
X47776603Y-100321523D01*
X47599813Y-100214724D01*
X47442987Y-100120004D01*
X47306568Y-100037631D01*
X47191000Y-99967872D01*
X47097812Y-99911651D01*
X47032403Y-99873150D01*
X46974206Y-99840692D01*
X46926881Y-99816180D01*
X46894086Y-99801517D01*
X46879952Y-99798339D01*
X46865706Y-99811803D01*
X46842784Y-99842036D01*
X46815058Y-99883725D01*
X46800375Y-99907585D01*
X46772243Y-99952734D01*
X46747676Y-99988916D01*
X46730290Y-100010956D01*
X46725283Y-100015110D01*
X46712132Y-100009712D01*
X46679290Y-99992271D01*
X46628761Y-99963953D01*
X46562549Y-99925923D01*
X46482658Y-99879348D01*
X46391093Y-99825394D01*
X46289857Y-99765225D01*
X46180955Y-99700009D01*
X46106306Y-99655041D01*
X45972122Y-99574156D01*
X45857591Y-99505468D01*
X45760731Y-99447870D01*
X45679558Y-99400256D01*
X45612088Y-99361520D01*
X45556338Y-99330555D01*
X45510324Y-99306254D01*
X45472064Y-99287513D01*
X45439572Y-99273223D01*
X45410866Y-99262280D01*
X45389608Y-99255287D01*
X45336065Y-99238715D01*
X45288504Y-99223862D01*
X45254523Y-99213108D01*
X45246300Y-99210442D01*
X45218799Y-99201804D01*
X45175651Y-99188714D01*
X45125597Y-99173818D01*
X45119300Y-99171964D01*
X45061151Y-99154535D01*
X45001356Y-99136088D01*
X44954296Y-99121081D01*
X44913750Y-99108710D01*
X44885158Y-99102868D01*
X44869287Y-99104945D01*
X44869287Y-99104945D01*
G37*
X44869287Y-99104945D02*
X44866906Y-99116329D01*
X44878783Y-99138412D01*
X44905686Y-99172583D01*
X44948384Y-99220233D01*
X45007645Y-99282751D01*
X45084238Y-99361527D01*
X45091060Y-99368495D01*
X45310470Y-99592498D01*
X45599060Y-99767202D01*
X45693082Y-99824118D01*
X45801726Y-99889880D01*
X45917880Y-99960186D01*
X46034437Y-100030733D01*
X46144285Y-100097216D01*
X46208325Y-100135973D01*
X46289443Y-100185488D01*
X46363019Y-100231214D01*
X46426360Y-100271410D01*
X46476771Y-100304339D01*
X46511560Y-100328261D01*
X46528033Y-100341436D01*
X46529000Y-100343031D01*
X46522785Y-100358906D01*
X46506082Y-100390942D01*
X46481801Y-100433723D01*
X46465413Y-100461294D01*
X46438723Y-100508256D01*
X46419024Y-100548329D01*
X46408923Y-100575893D01*
X46408487Y-100583927D01*
X46420611Y-100594465D01*
X46451937Y-100616345D01*
X46499853Y-100647893D01*
X46561752Y-100687434D01*
X46635022Y-100733295D01*
X46717055Y-100783800D01*
X46773700Y-100818242D01*
X46837715Y-100856973D01*
X46904834Y-100897576D01*
X46976178Y-100940727D01*
X47052870Y-100987106D01*
X47136032Y-101037390D01*
X47226786Y-101092258D01*
X47326253Y-101152388D01*
X47435557Y-101218458D01*
X47555818Y-101291145D01*
X47688159Y-101371129D01*
X47833702Y-101459088D01*
X47993569Y-101555698D01*
X48168882Y-101661640D01*
X48360762Y-101777590D01*
X48570333Y-101904227D01*
X48798716Y-102042230D01*
X49047032Y-102192276D01*
X49208700Y-102289963D01*
X49365296Y-102384585D01*
X49528065Y-102482938D01*
X49693893Y-102583140D01*
X49859667Y-102683309D01*
X50022271Y-102781563D01*
X50178594Y-102876022D01*
X50325520Y-102964804D01*
X50459937Y-103046026D01*
X50578730Y-103117809D01*
X50675550Y-103176314D01*
X50788280Y-103244450D01*
X50899085Y-103311453D01*
X51005133Y-103375608D01*
X51103588Y-103435199D01*
X51191615Y-103488510D01*
X51266381Y-103533824D01*
X51325050Y-103569425D01*
X51364552Y-103593454D01*
X51417763Y-103625733D01*
X51462592Y-103652606D01*
X51494905Y-103671618D01*
X51510566Y-103680314D01*
X51511350Y-103680600D01*
X51523115Y-103673763D01*
X51535139Y-103664725D01*
X51546418Y-103650237D01*
X51568960Y-103616704D01*
X51601017Y-103566892D01*
X51640839Y-103503568D01*
X51686676Y-103429500D01*
X51736781Y-103347456D01*
X51761896Y-103305950D01*
X51826063Y-103199752D01*
X51878345Y-103113290D01*
X51919767Y-103044419D01*
X51951353Y-102991001D01*
X51974125Y-102950892D01*
X51989107Y-102921951D01*
X51997324Y-102902037D01*
X51999798Y-102889008D01*
X51997554Y-102880723D01*
X51991615Y-102875040D01*
X51983004Y-102869818D01*
X51973415Y-102863435D01*
X51953841Y-102850161D01*
X51915474Y-102825682D01*
X51861307Y-102791852D01*
X51794334Y-102750522D01*
X51717547Y-102703546D01*
X51633940Y-102652778D01*
X51598765Y-102631526D01*
X51544633Y-102598854D01*
X51470493Y-102554084D01*
X51378070Y-102498259D01*
X51269093Y-102432422D01*
X51145287Y-102357618D01*
X51008380Y-102274889D01*
X50860099Y-102185279D01*
X50702171Y-102089833D01*
X50536323Y-101989593D01*
X50364280Y-101885603D01*
X50187771Y-101778907D01*
X50008523Y-101670548D01*
X49856400Y-101578582D01*
X49535867Y-101384803D01*
X49231749Y-101200959D01*
X48944490Y-101027317D01*
X48674533Y-100864145D01*
X48422322Y-100711712D01*
X48188301Y-100570285D01*
X47972914Y-100440133D01*
X47776603Y-100321523D01*
X47599813Y-100214724D01*
X47442987Y-100120004D01*
X47306568Y-100037631D01*
X47191000Y-99967872D01*
X47097812Y-99911651D01*
X47032403Y-99873150D01*
X46974206Y-99840692D01*
X46926881Y-99816180D01*
X46894086Y-99801517D01*
X46879952Y-99798339D01*
X46865706Y-99811803D01*
X46842784Y-99842036D01*
X46815058Y-99883725D01*
X46800375Y-99907585D01*
X46772243Y-99952734D01*
X46747676Y-99988916D01*
X46730290Y-100010956D01*
X46725283Y-100015110D01*
X46712132Y-100009712D01*
X46679290Y-99992271D01*
X46628761Y-99963953D01*
X46562549Y-99925923D01*
X46482658Y-99879348D01*
X46391093Y-99825394D01*
X46289857Y-99765225D01*
X46180955Y-99700009D01*
X46106306Y-99655041D01*
X45972122Y-99574156D01*
X45857591Y-99505468D01*
X45760731Y-99447870D01*
X45679558Y-99400256D01*
X45612088Y-99361520D01*
X45556338Y-99330555D01*
X45510324Y-99306254D01*
X45472064Y-99287513D01*
X45439572Y-99273223D01*
X45410866Y-99262280D01*
X45389608Y-99255287D01*
X45336065Y-99238715D01*
X45288504Y-99223862D01*
X45254523Y-99213108D01*
X45246300Y-99210442D01*
X45218799Y-99201804D01*
X45175651Y-99188714D01*
X45125597Y-99173818D01*
X45119300Y-99171964D01*
X45061151Y-99154535D01*
X45001356Y-99136088D01*
X44954296Y-99121081D01*
X44913750Y-99108710D01*
X44885158Y-99102868D01*
X44869287Y-99104945D01*
G36*
X64467081Y-98898987D02*
X64432848Y-98917178D01*
X64380185Y-98946271D01*
X64310817Y-98985259D01*
X64226466Y-99033138D01*
X64128855Y-99088905D01*
X64019708Y-99151555D01*
X63900747Y-99220083D01*
X63773696Y-99293485D01*
X63640277Y-99370757D01*
X63502214Y-99450894D01*
X63361230Y-99532892D01*
X63219048Y-99615747D01*
X63077390Y-99698454D01*
X62937981Y-99780009D01*
X62802543Y-99859407D01*
X62672799Y-99935644D01*
X62550472Y-100007716D01*
X62437286Y-100074619D01*
X62334963Y-100135347D01*
X62245226Y-100188898D01*
X62169799Y-100234265D01*
X62110405Y-100270445D01*
X62068766Y-100296434D01*
X62046606Y-100311227D01*
X62044097Y-100313253D01*
X62004951Y-100358811D01*
X61963677Y-100422301D01*
X61924002Y-100496938D01*
X61889649Y-100575938D01*
X61871639Y-100627373D01*
X61855523Y-100675750D01*
X61840961Y-100713580D01*
X61830211Y-100735231D01*
X61827182Y-100738204D01*
X61816750Y-100728916D01*
X61797347Y-100702028D01*
X61772190Y-100662221D01*
X61755628Y-100634010D01*
X61719955Y-100572819D01*
X61693373Y-100531328D01*
X61673109Y-100506778D01*
X61656391Y-100496410D01*
X61640445Y-100497466D01*
X61625920Y-100504972D01*
X61593401Y-100524931D01*
X61543398Y-100554844D01*
X61478260Y-100593355D01*
X61400338Y-100639107D01*
X61311979Y-100690743D01*
X61215535Y-100746907D01*
X61113355Y-100806242D01*
X61007788Y-100867392D01*
X60901183Y-100929000D01*
X60795890Y-100989709D01*
X60694259Y-101048164D01*
X60598639Y-101103006D01*
X60511380Y-101152880D01*
X60434831Y-101196429D01*
X60371342Y-101232297D01*
X60323262Y-101259126D01*
X60292940Y-101275561D01*
X60283139Y-101280288D01*
X60262618Y-101289461D01*
X60223631Y-101309857D01*
X60169453Y-101339566D01*
X60103358Y-101376678D01*
X60028622Y-101419284D01*
X59948519Y-101465473D01*
X59866324Y-101513335D01*
X59785312Y-101560961D01*
X59708758Y-101606440D01*
X59639937Y-101647862D01*
X59582124Y-101683317D01*
X59538593Y-101710895D01*
X59512620Y-101728687D01*
X59508400Y-101732140D01*
X59483457Y-101751343D01*
X59443121Y-101778344D01*
X59394232Y-101808663D01*
X59368700Y-101823675D01*
X59319154Y-101852328D01*
X59251281Y-101891707D01*
X59168680Y-101939713D01*
X59074951Y-101994251D01*
X58973691Y-102053223D01*
X58868501Y-102114531D01*
X58762979Y-102176079D01*
X58660724Y-102235770D01*
X58565336Y-102291505D01*
X58480412Y-102341189D01*
X58447950Y-102360204D01*
X58399508Y-102388562D01*
X58332184Y-102427925D01*
X58248260Y-102476963D01*
X58150016Y-102534345D01*
X58039730Y-102598742D01*
X57919684Y-102668823D01*
X57792157Y-102743258D01*
X57659429Y-102820717D01*
X57523781Y-102899869D01*
X57387492Y-102979384D01*
X57252842Y-103057932D01*
X57122111Y-103134184D01*
X56997580Y-103206807D01*
X56881528Y-103274473D01*
X56776235Y-103335851D01*
X56683982Y-103389611D01*
X56607048Y-103434423D01*
X56547713Y-103468956D01*
X56511200Y-103490172D01*
X56444698Y-103528815D01*
X56366365Y-103574430D01*
X56278918Y-103625426D01*
X56185077Y-103680211D01*
X56087561Y-103737194D01*
X55989088Y-103794782D01*
X55892378Y-103851385D01*
X55800148Y-103905411D01*
X55715119Y-103955268D01*
X55640008Y-103999366D01*
X55577534Y-104036111D01*
X55530416Y-104063914D01*
X55501373Y-104081182D01*
X55495200Y-104084922D01*
X55455217Y-104105000D01*
X55418522Y-104110936D01*
X55379535Y-104101649D01*
X55332676Y-104076060D01*
X55288150Y-104044888D01*
X55240221Y-104010279D01*
X55179272Y-103967413D01*
X55113496Y-103922003D01*
X55057050Y-103883753D01*
X54990643Y-103838714D01*
X54913318Y-103785439D01*
X54834715Y-103730610D01*
X54764950Y-103681250D01*
X54693633Y-103630739D01*
X54613110Y-103574411D01*
X54533413Y-103519246D01*
X54466500Y-103473531D01*
X54396841Y-103426096D01*
X54316598Y-103370993D01*
X54235931Y-103315221D01*
X54168050Y-103267918D01*
X54099432Y-103219947D01*
X54024536Y-103167758D01*
X53952313Y-103117578D01*
X53891709Y-103075633D01*
X53890495Y-103074796D01*
X53838246Y-103038175D01*
X53791080Y-103004077D01*
X53754501Y-102976545D01*
X53735184Y-102960725D01*
X53717042Y-102941989D01*
X53711502Y-102924854D01*
X53717142Y-102899212D01*
X53723814Y-102879753D01*
X53741144Y-102796577D01*
X53733629Y-102716724D01*
X53718233Y-102673217D01*
X53708810Y-102655013D01*
X53696400Y-102638018D01*
X53678104Y-102620078D01*
X53651024Y-102599037D01*
X53612262Y-102572739D01*
X53558919Y-102539029D01*
X53488096Y-102495751D01*
X53442772Y-102468373D01*
X53360551Y-102419108D01*
X53296737Y-102381762D01*
X53248198Y-102354793D01*
X53211802Y-102336660D01*
X53184418Y-102325820D01*
X53162912Y-102320731D01*
X53144153Y-102319850D01*
X53141381Y-102319986D01*
X53070032Y-102333423D01*
X53004167Y-102366685D01*
X52957305Y-102403859D01*
X52905805Y-102450386D01*
X52820180Y-102398743D01*
X52769175Y-102370156D01*
X52729400Y-102354169D01*
X52692095Y-102347714D01*
X52672797Y-102347100D01*
X52599764Y-102357128D01*
X52541794Y-102386910D01*
X52521387Y-102406124D01*
X52517639Y-102410447D01*
X52513323Y-102415915D01*
X52507692Y-102423750D01*
X52499998Y-102435174D01*
X52489494Y-102451409D01*
X52475434Y-102473678D01*
X52457069Y-102503204D01*
X52433654Y-102541208D01*
X52404441Y-102588912D01*
X52368683Y-102647540D01*
X52325633Y-102718313D01*
X52274543Y-102802454D01*
X52214667Y-102901184D01*
X52145257Y-103015727D01*
X52065567Y-103147305D01*
X51974850Y-103297139D01*
X51872357Y-103466453D01*
X51776390Y-103625000D01*
X51688527Y-103770244D01*
X51612954Y-103895437D01*
X51548751Y-104002218D01*
X51494998Y-104092232D01*
X51450774Y-104167119D01*
X51415160Y-104228521D01*
X51387236Y-104278082D01*
X51366081Y-104317443D01*
X51350775Y-104348246D01*
X51340399Y-104372132D01*
X51334033Y-104390746D01*
X51330755Y-104405727D01*
X51329647Y-104418719D01*
X51329600Y-104422430D01*
X51337019Y-104486889D01*
X51361248Y-104540075D01*
X51405247Y-104586501D01*
X51462805Y-104625424D01*
X51513768Y-104657069D01*
X51543857Y-104681514D01*
X51555468Y-104701743D01*
X51550997Y-104720739D01*
X51545470Y-104728386D01*
X51533458Y-104757751D01*
X51528141Y-104802767D01*
X51529255Y-104854657D01*
X51536536Y-104904643D01*
X51549721Y-104943950D01*
X51552082Y-104948199D01*
X51572668Y-104970362D01*
X51611704Y-105001769D01*
X51665112Y-105039930D01*
X51728813Y-105082357D01*
X51798731Y-105126559D01*
X51870787Y-105170049D01*
X51940903Y-105210335D01*
X52005001Y-105244930D01*
X52059004Y-105271343D01*
X52098834Y-105287086D01*
X52112320Y-105290197D01*
X52182718Y-105287882D01*
X52246621Y-105262357D01*
X52302461Y-105217144D01*
X52333196Y-105189211D01*
X52359482Y-105170906D01*
X52371000Y-105166763D01*
X52387728Y-105172476D01*
X52422955Y-105188477D01*
X52472878Y-105212904D01*
X52533693Y-105243891D01*
X52601596Y-105279575D01*
X52605950Y-105281899D01*
X52681512Y-105322106D01*
X52757065Y-105362050D01*
X52826782Y-105398669D01*
X52884835Y-105428899D01*
X52920275Y-105447091D01*
X52964605Y-105471302D01*
X52998571Y-105493165D01*
X53016915Y-105509154D01*
X53018700Y-105513117D01*
X53008076Y-105522842D01*
X52977768Y-105543755D01*
X52930123Y-105574404D01*
X52867487Y-105613335D01*
X52792209Y-105659095D01*
X52706633Y-105710231D01*
X52613108Y-105765290D01*
X52583725Y-105782429D01*
X52482317Y-105841485D01*
X52382901Y-105899441D01*
X52288757Y-105954378D01*
X52203168Y-106004380D01*
X52129415Y-106047529D01*
X52070781Y-106081908D01*
X52030547Y-106105600D01*
X52028100Y-106107048D01*
X51995492Y-106126250D01*
X51943318Y-106156839D01*
X51873962Y-106197424D01*
X51789810Y-106246613D01*
X51693247Y-106303016D01*
X51586659Y-106365242D01*
X51472431Y-106431899D01*
X51352949Y-106501597D01*
X51230597Y-106572944D01*
X51107760Y-106644550D01*
X50986825Y-106715022D01*
X50870176Y-106782971D01*
X50760199Y-106847004D01*
X50659279Y-106905731D01*
X50569801Y-106957762D01*
X50494151Y-107001703D01*
X50472350Y-107014353D01*
X50402844Y-107054739D01*
X50318762Y-107103704D01*
X50227437Y-107156970D01*
X50136201Y-107210263D01*
X50059600Y-107255080D01*
X49969947Y-107307568D01*
X49868995Y-107366641D01*
X49765527Y-107427162D01*
X49668328Y-107483994D01*
X49602400Y-107522522D01*
X49516181Y-107572897D01*
X49416825Y-107630952D01*
X49313124Y-107691549D01*
X49213868Y-107749552D01*
X49145200Y-107789682D01*
X49056938Y-107841206D01*
X48958693Y-107898458D01*
X48858823Y-107956573D01*
X48765687Y-108010687D01*
X48700442Y-108048523D01*
X48515777Y-108155564D01*
X48351884Y-108250749D01*
X48207494Y-108334840D01*
X48081336Y-108408601D01*
X47972138Y-108472795D01*
X47878631Y-108528184D01*
X47799544Y-108575533D01*
X47733606Y-108615604D01*
X47679547Y-108649161D01*
X47636096Y-108676966D01*
X47601983Y-108699782D01*
X47575936Y-108718373D01*
X47556686Y-108733501D01*
X47549418Y-108739819D01*
X47479172Y-108818398D01*
X47417531Y-108918295D01*
X47366384Y-109036332D01*
X47357102Y-109063283D01*
X47340447Y-109120255D01*
X47330317Y-109174270D01*
X47325245Y-109235523D01*
X47323862Y-109294000D01*
X47328188Y-109405579D01*
X47344630Y-109499122D01*
X47375325Y-109579951D01*
X47422412Y-109653386D01*
X47488028Y-109724749D01*
X47502201Y-109737995D01*
X47599933Y-109811259D01*
X47714029Y-109868614D01*
X47839771Y-109908318D01*
X47972442Y-109928628D01*
X48024655Y-109930911D01*
X48059661Y-109931327D01*
X48091126Y-109931065D01*
X48120817Y-109929288D01*
X48150499Y-109925158D01*
X48181939Y-109917838D01*
X48216903Y-109906491D01*
X48257158Y-109890279D01*
X48304470Y-109868365D01*
X48360604Y-109839913D01*
X48427327Y-109804083D01*
X48506406Y-109760041D01*
X48599606Y-109706947D01*
X48708693Y-109643964D01*
X48835435Y-109570256D01*
X48981597Y-109484985D01*
X49052052Y-109443857D01*
X49472301Y-109198565D01*
X49871150Y-108965788D01*
X50249126Y-108745219D01*
X50606759Y-108536553D01*
X50944574Y-108339485D01*
X51263100Y-108153708D01*
X51562864Y-107978916D01*
X51844393Y-107814804D01*
X52108215Y-107661065D01*
X52354858Y-107517395D01*
X52584849Y-107383486D01*
X52798715Y-107259033D01*
X52996984Y-107143731D01*
X53180183Y-107037273D01*
X53348840Y-106939354D01*
X53503483Y-106849668D01*
X53644638Y-106767908D01*
X53772834Y-106693769D01*
X53888598Y-106626946D01*
X53992457Y-106567131D01*
X54084939Y-106514020D01*
X54166572Y-106467307D01*
X54237882Y-106426685D01*
X54299397Y-106391850D01*
X54351646Y-106362494D01*
X54395154Y-106338312D01*
X54430451Y-106318998D01*
X54458062Y-106304247D01*
X54478517Y-106293753D01*
X54492342Y-106287209D01*
X54500064Y-106284310D01*
X54501449Y-106284100D01*
X54522654Y-106289934D01*
X54562070Y-106306192D01*
X54615678Y-106331006D01*
X54679462Y-106362507D01*
X54749403Y-106398827D01*
X54757837Y-106403323D01*
X54835192Y-106444462D01*
X54913207Y-106485573D01*
X54985985Y-106523574D01*
X55047627Y-106555383D01*
X55088800Y-106576218D01*
X55140747Y-106602597D01*
X55207195Y-106637147D01*
X55280389Y-106675797D01*
X55352577Y-106714473D01*
X55368200Y-106722933D01*
X55431661Y-106756282D01*
X55491020Y-106785495D01*
X55541038Y-106808136D01*
X55576477Y-106821766D01*
X55586041Y-106824270D01*
X55639347Y-106822932D01*
X55692501Y-106803900D01*
X55735192Y-106771438D01*
X55745262Y-106758451D01*
X55765967Y-106736429D01*
X55784031Y-106728600D01*
X55801022Y-106734526D01*
X55836070Y-106750950D01*
X55885140Y-106775837D01*
X55944198Y-106807151D01*
X55995296Y-106835116D01*
X56065666Y-106873877D01*
X56135137Y-106911671D01*
X56197809Y-106945319D01*
X56247779Y-106971644D01*
X56269281Y-106982638D01*
X56304734Y-107001069D01*
X56357739Y-107029518D01*
X56423740Y-107065497D01*
X56498182Y-107106517D01*
X56576511Y-107150089D01*
X56605831Y-107166508D01*
X56685526Y-107210972D01*
X56764058Y-107254331D01*
X56836602Y-107293956D01*
X56898335Y-107327218D01*
X56944434Y-107351486D01*
X56955700Y-107357227D01*
X56994063Y-107377104D01*
X57050133Y-107406967D01*
X57119450Y-107444398D01*
X57197553Y-107486983D01*
X57279983Y-107532304D01*
X57330350Y-107560188D01*
X57416770Y-107608004D01*
X57504827Y-107656444D01*
X57589227Y-107702617D01*
X57664678Y-107743630D01*
X57725887Y-107776592D01*
X57749450Y-107789127D01*
X57810444Y-107821744D01*
X57885791Y-107862618D01*
X57967734Y-107907508D01*
X58048513Y-107952173D01*
X58086000Y-107973073D01*
X58166322Y-108017632D01*
X58254607Y-108065998D01*
X58342077Y-108113398D01*
X58419954Y-108155060D01*
X58447950Y-108169836D01*
X58521432Y-108208922D01*
X58607394Y-108255462D01*
X58696298Y-108304249D01*
X58778605Y-108350072D01*
X58797200Y-108360550D01*
X58876336Y-108404803D01*
X58964475Y-108453333D01*
X59052079Y-108500931D01*
X59129610Y-108542389D01*
X59146450Y-108551263D01*
X59217604Y-108589051D01*
X59302071Y-108634604D01*
X59391078Y-108683150D01*
X59475847Y-108729917D01*
X59508400Y-108748064D01*
X59588348Y-108792421D01*
X59681917Y-108843732D01*
X59780232Y-108897167D01*
X59874415Y-108947891D01*
X59927500Y-108976210D01*
X60006897Y-109018664D01*
X60088765Y-109062963D01*
X60166581Y-109105540D01*
X60233820Y-109142830D01*
X60276750Y-109167113D01*
X60340753Y-109203204D01*
X60417088Y-109245262D01*
X60495485Y-109287673D01*
X60556150Y-109319846D01*
X60611255Y-109349036D01*
X60683263Y-109387671D01*
X60766869Y-109432874D01*
X60856763Y-109481771D01*
X60947638Y-109531486D01*
X61000650Y-109560635D01*
X61133660Y-109633723D01*
X61256990Y-109701083D01*
X61369041Y-109761863D01*
X61468210Y-109815210D01*
X61552899Y-109860271D01*
X61621504Y-109896193D01*
X61672426Y-109922124D01*
X61704064Y-109937209D01*
X61714438Y-109940894D01*
X61733376Y-109935781D01*
X61749950Y-109929510D01*
X61762850Y-109916107D01*
X61786626Y-109883559D01*
X61819529Y-109834762D01*
X61859810Y-109772611D01*
X61905721Y-109700000D01*
X61955512Y-109619827D01*
X62007435Y-109534985D01*
X62059741Y-109448370D01*
X62110680Y-109362878D01*
X62158505Y-109281404D01*
X62201465Y-109206842D01*
X62237813Y-109142090D01*
X62265800Y-109090041D01*
X62283675Y-109053591D01*
X62289700Y-109035934D01*
X62283066Y-109004113D01*
X62272157Y-108986171D01*
X62258622Y-108976069D01*
X62225786Y-108953129D01*
X62175489Y-108918590D01*
X62109572Y-108873689D01*
X62029878Y-108819665D01*
X61938247Y-108757755D01*
X61836521Y-108689199D01*
X61726541Y-108615233D01*
X61610148Y-108537097D01*
X61489184Y-108456028D01*
X61365490Y-108373264D01*
X61240907Y-108290044D01*
X61117277Y-108207605D01*
X60996440Y-108127186D01*
X60880238Y-108050025D01*
X60860140Y-108036700D01*
X60714429Y-107940100D01*
X60587640Y-107856010D01*
X60477513Y-107782925D01*
X60381789Y-107719335D01*
X60298208Y-107663736D01*
X60224510Y-107614619D01*
X60158436Y-107570477D01*
X60097726Y-107529804D01*
X60040120Y-107491092D01*
X59983359Y-107452835D01*
X59925182Y-107413525D01*
X59888942Y-107389000D01*
X59751517Y-107296255D01*
X59595646Y-107191599D01*
X59424193Y-107076943D01*
X59240022Y-106954198D01*
X59045995Y-106825277D01*
X58844976Y-106692090D01*
X58842573Y-106690500D01*
X58777703Y-106647520D01*
X58697821Y-106594493D01*
X58605165Y-106532911D01*
X58501973Y-106464269D01*
X58390484Y-106390057D01*
X58272936Y-106311770D01*
X58151568Y-106230900D01*
X58028617Y-106148940D01*
X57906323Y-106067383D01*
X57786923Y-105987720D01*
X57672657Y-105911447D01*
X57565761Y-105840054D01*
X57468476Y-105775035D01*
X57383038Y-105717883D01*
X57311687Y-105670090D01*
X57256661Y-105633150D01*
X57220198Y-105608554D01*
X57216360Y-105605948D01*
X57168061Y-105573232D01*
X57104577Y-105530403D01*
X57031844Y-105481458D01*
X56955799Y-105430393D01*
X56892510Y-105387983D01*
X56821535Y-105339496D01*
X56762999Y-105297522D01*
X56719237Y-105263852D01*
X56692589Y-105240274D01*
X56685160Y-105229233D01*
X56689670Y-105205994D01*
X56697906Y-105170043D01*
X56701039Y-105157241D01*
X56707903Y-105112902D01*
X56701536Y-105073419D01*
X56693765Y-105051940D01*
X56682236Y-105019778D01*
X56677375Y-104999185D01*
X56677886Y-104995982D01*
X56689899Y-104988441D01*
X56720150Y-104970318D01*
X56764927Y-104943812D01*
X56820518Y-104911124D01*
X56866800Y-104884034D01*
X57223544Y-104675628D01*
X57558822Y-104479788D01*
X57873091Y-104296247D01*
X58166806Y-104124739D01*
X58440424Y-103964999D01*
X58694399Y-103816761D01*
X58929187Y-103679759D01*
X59145245Y-103553728D01*
X59343028Y-103438401D01*
X59522991Y-103333513D01*
X59685591Y-103238798D01*
X59831284Y-103153990D01*
X59960524Y-103078824D01*
X60073768Y-103013033D01*
X60171471Y-102956353D01*
X60254090Y-102908516D01*
X60257700Y-102906428D01*
X60342704Y-102857160D01*
X60441852Y-102799502D01*
X60547406Y-102737966D01*
X60651631Y-102677063D01*
X60746791Y-102621303D01*
X60759350Y-102613928D01*
X60870650Y-102548597D01*
X60991911Y-102477492D01*
X61120354Y-102402237D01*
X61253200Y-102324458D01*
X61387671Y-102245778D01*
X61520986Y-102167821D01*
X61650367Y-102092213D01*
X61773035Y-102020578D01*
X61886210Y-101954540D01*
X61987113Y-101895723D01*
X62072965Y-101845751D01*
X62140987Y-101806250D01*
X62165875Y-101791839D01*
X62227478Y-101755415D01*
X62280534Y-101722506D01*
X62321443Y-101695471D01*
X62346605Y-101676668D01*
X62352984Y-101669239D01*
X62346772Y-101651197D01*
X62330949Y-101619465D01*
X62315100Y-101591450D01*
X62294704Y-101555167D01*
X61899896Y-101555167D01*
X61888051Y-101564475D01*
X61856646Y-101584967D01*
X61808152Y-101615189D01*
X61745043Y-101653687D01*
X61669791Y-101699007D01*
X61584869Y-101749697D01*
X61492750Y-101804303D01*
X61395906Y-101861370D01*
X61296809Y-101919446D01*
X61197933Y-101977077D01*
X61101749Y-102032810D01*
X61010731Y-102085190D01*
X60927352Y-102132764D01*
X60854083Y-102174080D01*
X60793397Y-102207682D01*
X60753000Y-102229385D01*
X60691020Y-102262911D01*
X60617770Y-102304060D01*
X60543523Y-102346997D01*
X60492650Y-102377294D01*
X60437912Y-102409062D01*
X60389136Y-102434827D01*
X60351293Y-102452138D01*
X60329356Y-102458541D01*
X60328111Y-102458472D01*
X60315058Y-102449286D01*
X60293957Y-102423463D01*
X60263987Y-102379766D01*
X60224328Y-102316953D01*
X60174156Y-102233785D01*
X60133340Y-102164499D01*
X60081480Y-102075373D01*
X60041569Y-102005514D01*
X60012392Y-101952469D01*
X59992733Y-101913785D01*
X59981378Y-101887006D01*
X59977110Y-101869679D01*
X59978715Y-101859350D01*
X59980826Y-101856531D01*
X59987098Y-101851214D01*
X59998338Y-101843199D01*
X60015872Y-101831699D01*
X60041028Y-101815927D01*
X60075132Y-101795096D01*
X60119511Y-101768418D01*
X60175494Y-101735105D01*
X60244406Y-101694372D01*
X60327574Y-101645430D01*
X60426326Y-101587492D01*
X60541989Y-101519770D01*
X60675890Y-101441478D01*
X60829356Y-101351829D01*
X60967122Y-101271394D01*
X61112991Y-101186595D01*
X61237556Y-101114946D01*
X61341137Y-101056271D01*
X61424054Y-101010394D01*
X61486626Y-100977139D01*
X61529175Y-100956331D01*
X61552020Y-100947794D01*
X61556139Y-100948058D01*
X61569358Y-100965891D01*
X61592015Y-101001374D01*
X61622120Y-101050992D01*
X61657684Y-101111230D01*
X61696715Y-101178574D01*
X61737224Y-101249508D01*
X61777220Y-101320517D01*
X61814713Y-101388088D01*
X61847714Y-101448704D01*
X61874231Y-101498851D01*
X61892275Y-101535014D01*
X61899856Y-101553678D01*
X61899896Y-101555167D01*
X62294704Y-101555167D01*
X62289216Y-101545406D01*
X62278702Y-101516976D01*
X62284651Y-101502766D01*
X62308154Y-101499382D01*
X62343675Y-101502597D01*
X62423328Y-101505119D01*
X62510340Y-101495456D01*
X62600435Y-101475359D01*
X62689336Y-101446578D01*
X62772763Y-101410860D01*
X62846439Y-101369957D01*
X62906086Y-101325618D01*
X62947426Y-101279591D01*
X62962477Y-101249531D01*
X62980154Y-101214528D01*
X63003536Y-101188694D01*
X63004980Y-101187705D01*
X63022353Y-101170605D01*
X63050085Y-101136781D01*
X63084655Y-101090784D01*
X63122544Y-101037165D01*
X63131014Y-101024740D01*
X63171646Y-100964951D01*
X63211637Y-100906483D01*
X63246599Y-100855731D01*
X63272141Y-100819086D01*
X63273792Y-100816750D01*
X63297453Y-100782894D01*
X63331347Y-100733841D01*
X63371462Y-100675423D01*
X63413785Y-100613473D01*
X63426701Y-100594500D01*
X63467253Y-100535004D01*
X63518144Y-100460537D01*
X63575301Y-100377045D01*
X63634654Y-100290475D01*
X63692132Y-100206772D01*
X63704969Y-100188100D01*
X63760261Y-100107642D01*
X63817328Y-100024510D01*
X63872398Y-99944208D01*
X63921695Y-99872240D01*
X63961447Y-99814108D01*
X63970566Y-99800750D01*
X64015814Y-99734547D01*
X64065187Y-99662516D01*
X64112186Y-99594127D01*
X64144851Y-99546750D01*
X64184906Y-99488668D01*
X64232789Y-99419063D01*
X64282001Y-99347385D01*
X64319436Y-99292750D01*
X64357748Y-99236775D01*
X64393326Y-99184812D01*
X64422431Y-99142322D01*
X64441323Y-99114764D01*
X64442555Y-99112969D01*
X64467827Y-99077797D01*
X64498765Y-99036849D01*
X64510187Y-99022242D01*
X64533400Y-98989510D01*
X64547884Y-98962502D01*
X64550300Y-98953165D01*
X64539737Y-98927931D01*
X64514812Y-98904912D01*
X64485677Y-98892985D01*
X64481163Y-98892699D01*
X64467081Y-98898987D01*
X64467081Y-98898987D01*
G37*
X64467081Y-98898987D02*
X64432848Y-98917178D01*
X64380185Y-98946271D01*
X64310817Y-98985259D01*
X64226466Y-99033138D01*
X64128855Y-99088905D01*
X64019708Y-99151555D01*
X63900747Y-99220083D01*
X63773696Y-99293485D01*
X63640277Y-99370757D01*
X63502214Y-99450894D01*
X63361230Y-99532892D01*
X63219048Y-99615747D01*
X63077390Y-99698454D01*
X62937981Y-99780009D01*
X62802543Y-99859407D01*
X62672799Y-99935644D01*
X62550472Y-100007716D01*
X62437286Y-100074619D01*
X62334963Y-100135347D01*
X62245226Y-100188898D01*
X62169799Y-100234265D01*
X62110405Y-100270445D01*
X62068766Y-100296434D01*
X62046606Y-100311227D01*
X62044097Y-100313253D01*
X62004951Y-100358811D01*
X61963677Y-100422301D01*
X61924002Y-100496938D01*
X61889649Y-100575938D01*
X61871639Y-100627373D01*
X61855523Y-100675750D01*
X61840961Y-100713580D01*
X61830211Y-100735231D01*
X61827182Y-100738204D01*
X61816750Y-100728916D01*
X61797347Y-100702028D01*
X61772190Y-100662221D01*
X61755628Y-100634010D01*
X61719955Y-100572819D01*
X61693373Y-100531328D01*
X61673109Y-100506778D01*
X61656391Y-100496410D01*
X61640445Y-100497466D01*
X61625920Y-100504972D01*
X61593401Y-100524931D01*
X61543398Y-100554844D01*
X61478260Y-100593355D01*
X61400338Y-100639107D01*
X61311979Y-100690743D01*
X61215535Y-100746907D01*
X61113355Y-100806242D01*
X61007788Y-100867392D01*
X60901183Y-100929000D01*
X60795890Y-100989709D01*
X60694259Y-101048164D01*
X60598639Y-101103006D01*
X60511380Y-101152880D01*
X60434831Y-101196429D01*
X60371342Y-101232297D01*
X60323262Y-101259126D01*
X60292940Y-101275561D01*
X60283139Y-101280288D01*
X60262618Y-101289461D01*
X60223631Y-101309857D01*
X60169453Y-101339566D01*
X60103358Y-101376678D01*
X60028622Y-101419284D01*
X59948519Y-101465473D01*
X59866324Y-101513335D01*
X59785312Y-101560961D01*
X59708758Y-101606440D01*
X59639937Y-101647862D01*
X59582124Y-101683317D01*
X59538593Y-101710895D01*
X59512620Y-101728687D01*
X59508400Y-101732140D01*
X59483457Y-101751343D01*
X59443121Y-101778344D01*
X59394232Y-101808663D01*
X59368700Y-101823675D01*
X59319154Y-101852328D01*
X59251281Y-101891707D01*
X59168680Y-101939713D01*
X59074951Y-101994251D01*
X58973691Y-102053223D01*
X58868501Y-102114531D01*
X58762979Y-102176079D01*
X58660724Y-102235770D01*
X58565336Y-102291505D01*
X58480412Y-102341189D01*
X58447950Y-102360204D01*
X58399508Y-102388562D01*
X58332184Y-102427925D01*
X58248260Y-102476963D01*
X58150016Y-102534345D01*
X58039730Y-102598742D01*
X57919684Y-102668823D01*
X57792157Y-102743258D01*
X57659429Y-102820717D01*
X57523781Y-102899869D01*
X57387492Y-102979384D01*
X57252842Y-103057932D01*
X57122111Y-103134184D01*
X56997580Y-103206807D01*
X56881528Y-103274473D01*
X56776235Y-103335851D01*
X56683982Y-103389611D01*
X56607048Y-103434423D01*
X56547713Y-103468956D01*
X56511200Y-103490172D01*
X56444698Y-103528815D01*
X56366365Y-103574430D01*
X56278918Y-103625426D01*
X56185077Y-103680211D01*
X56087561Y-103737194D01*
X55989088Y-103794782D01*
X55892378Y-103851385D01*
X55800148Y-103905411D01*
X55715119Y-103955268D01*
X55640008Y-103999366D01*
X55577534Y-104036111D01*
X55530416Y-104063914D01*
X55501373Y-104081182D01*
X55495200Y-104084922D01*
X55455217Y-104105000D01*
X55418522Y-104110936D01*
X55379535Y-104101649D01*
X55332676Y-104076060D01*
X55288150Y-104044888D01*
X55240221Y-104010279D01*
X55179272Y-103967413D01*
X55113496Y-103922003D01*
X55057050Y-103883753D01*
X54990643Y-103838714D01*
X54913318Y-103785439D01*
X54834715Y-103730610D01*
X54764950Y-103681250D01*
X54693633Y-103630739D01*
X54613110Y-103574411D01*
X54533413Y-103519246D01*
X54466500Y-103473531D01*
X54396841Y-103426096D01*
X54316598Y-103370993D01*
X54235931Y-103315221D01*
X54168050Y-103267918D01*
X54099432Y-103219947D01*
X54024536Y-103167758D01*
X53952313Y-103117578D01*
X53891709Y-103075633D01*
X53890495Y-103074796D01*
X53838246Y-103038175D01*
X53791080Y-103004077D01*
X53754501Y-102976545D01*
X53735184Y-102960725D01*
X53717042Y-102941989D01*
X53711502Y-102924854D01*
X53717142Y-102899212D01*
X53723814Y-102879753D01*
X53741144Y-102796577D01*
X53733629Y-102716724D01*
X53718233Y-102673217D01*
X53708810Y-102655013D01*
X53696400Y-102638018D01*
X53678104Y-102620078D01*
X53651024Y-102599037D01*
X53612262Y-102572739D01*
X53558919Y-102539029D01*
X53488096Y-102495751D01*
X53442772Y-102468373D01*
X53360551Y-102419108D01*
X53296737Y-102381762D01*
X53248198Y-102354793D01*
X53211802Y-102336660D01*
X53184418Y-102325820D01*
X53162912Y-102320731D01*
X53144153Y-102319850D01*
X53141381Y-102319986D01*
X53070032Y-102333423D01*
X53004167Y-102366685D01*
X52957305Y-102403859D01*
X52905805Y-102450386D01*
X52820180Y-102398743D01*
X52769175Y-102370156D01*
X52729400Y-102354169D01*
X52692095Y-102347714D01*
X52672797Y-102347100D01*
X52599764Y-102357128D01*
X52541794Y-102386910D01*
X52521387Y-102406124D01*
X52517639Y-102410447D01*
X52513323Y-102415915D01*
X52507692Y-102423750D01*
X52499998Y-102435174D01*
X52489494Y-102451409D01*
X52475434Y-102473678D01*
X52457069Y-102503204D01*
X52433654Y-102541208D01*
X52404441Y-102588912D01*
X52368683Y-102647540D01*
X52325633Y-102718313D01*
X52274543Y-102802454D01*
X52214667Y-102901184D01*
X52145257Y-103015727D01*
X52065567Y-103147305D01*
X51974850Y-103297139D01*
X51872357Y-103466453D01*
X51776390Y-103625000D01*
X51688527Y-103770244D01*
X51612954Y-103895437D01*
X51548751Y-104002218D01*
X51494998Y-104092232D01*
X51450774Y-104167119D01*
X51415160Y-104228521D01*
X51387236Y-104278082D01*
X51366081Y-104317443D01*
X51350775Y-104348246D01*
X51340399Y-104372132D01*
X51334033Y-104390746D01*
X51330755Y-104405727D01*
X51329647Y-104418719D01*
X51329600Y-104422430D01*
X51337019Y-104486889D01*
X51361248Y-104540075D01*
X51405247Y-104586501D01*
X51462805Y-104625424D01*
X51513768Y-104657069D01*
X51543857Y-104681514D01*
X51555468Y-104701743D01*
X51550997Y-104720739D01*
X51545470Y-104728386D01*
X51533458Y-104757751D01*
X51528141Y-104802767D01*
X51529255Y-104854657D01*
X51536536Y-104904643D01*
X51549721Y-104943950D01*
X51552082Y-104948199D01*
X51572668Y-104970362D01*
X51611704Y-105001769D01*
X51665112Y-105039930D01*
X51728813Y-105082357D01*
X51798731Y-105126559D01*
X51870787Y-105170049D01*
X51940903Y-105210335D01*
X52005001Y-105244930D01*
X52059004Y-105271343D01*
X52098834Y-105287086D01*
X52112320Y-105290197D01*
X52182718Y-105287882D01*
X52246621Y-105262357D01*
X52302461Y-105217144D01*
X52333196Y-105189211D01*
X52359482Y-105170906D01*
X52371000Y-105166763D01*
X52387728Y-105172476D01*
X52422955Y-105188477D01*
X52472878Y-105212904D01*
X52533693Y-105243891D01*
X52601596Y-105279575D01*
X52605950Y-105281899D01*
X52681512Y-105322106D01*
X52757065Y-105362050D01*
X52826782Y-105398669D01*
X52884835Y-105428899D01*
X52920275Y-105447091D01*
X52964605Y-105471302D01*
X52998571Y-105493165D01*
X53016915Y-105509154D01*
X53018700Y-105513117D01*
X53008076Y-105522842D01*
X52977768Y-105543755D01*
X52930123Y-105574404D01*
X52867487Y-105613335D01*
X52792209Y-105659095D01*
X52706633Y-105710231D01*
X52613108Y-105765290D01*
X52583725Y-105782429D01*
X52482317Y-105841485D01*
X52382901Y-105899441D01*
X52288757Y-105954378D01*
X52203168Y-106004380D01*
X52129415Y-106047529D01*
X52070781Y-106081908D01*
X52030547Y-106105600D01*
X52028100Y-106107048D01*
X51995492Y-106126250D01*
X51943318Y-106156839D01*
X51873962Y-106197424D01*
X51789810Y-106246613D01*
X51693247Y-106303016D01*
X51586659Y-106365242D01*
X51472431Y-106431899D01*
X51352949Y-106501597D01*
X51230597Y-106572944D01*
X51107760Y-106644550D01*
X50986825Y-106715022D01*
X50870176Y-106782971D01*
X50760199Y-106847004D01*
X50659279Y-106905731D01*
X50569801Y-106957762D01*
X50494151Y-107001703D01*
X50472350Y-107014353D01*
X50402844Y-107054739D01*
X50318762Y-107103704D01*
X50227437Y-107156970D01*
X50136201Y-107210263D01*
X50059600Y-107255080D01*
X49969947Y-107307568D01*
X49868995Y-107366641D01*
X49765527Y-107427162D01*
X49668328Y-107483994D01*
X49602400Y-107522522D01*
X49516181Y-107572897D01*
X49416825Y-107630952D01*
X49313124Y-107691549D01*
X49213868Y-107749552D01*
X49145200Y-107789682D01*
X49056938Y-107841206D01*
X48958693Y-107898458D01*
X48858823Y-107956573D01*
X48765687Y-108010687D01*
X48700442Y-108048523D01*
X48515777Y-108155564D01*
X48351884Y-108250749D01*
X48207494Y-108334840D01*
X48081336Y-108408601D01*
X47972138Y-108472795D01*
X47878631Y-108528184D01*
X47799544Y-108575533D01*
X47733606Y-108615604D01*
X47679547Y-108649161D01*
X47636096Y-108676966D01*
X47601983Y-108699782D01*
X47575936Y-108718373D01*
X47556686Y-108733501D01*
X47549418Y-108739819D01*
X47479172Y-108818398D01*
X47417531Y-108918295D01*
X47366384Y-109036332D01*
X47357102Y-109063283D01*
X47340447Y-109120255D01*
X47330317Y-109174270D01*
X47325245Y-109235523D01*
X47323862Y-109294000D01*
X47328188Y-109405579D01*
X47344630Y-109499122D01*
X47375325Y-109579951D01*
X47422412Y-109653386D01*
X47488028Y-109724749D01*
X47502201Y-109737995D01*
X47599933Y-109811259D01*
X47714029Y-109868614D01*
X47839771Y-109908318D01*
X47972442Y-109928628D01*
X48024655Y-109930911D01*
X48059661Y-109931327D01*
X48091126Y-109931065D01*
X48120817Y-109929288D01*
X48150499Y-109925158D01*
X48181939Y-109917838D01*
X48216903Y-109906491D01*
X48257158Y-109890279D01*
X48304470Y-109868365D01*
X48360604Y-109839913D01*
X48427327Y-109804083D01*
X48506406Y-109760041D01*
X48599606Y-109706947D01*
X48708693Y-109643964D01*
X48835435Y-109570256D01*
X48981597Y-109484985D01*
X49052052Y-109443857D01*
X49472301Y-109198565D01*
X49871150Y-108965788D01*
X50249126Y-108745219D01*
X50606759Y-108536553D01*
X50944574Y-108339485D01*
X51263100Y-108153708D01*
X51562864Y-107978916D01*
X51844393Y-107814804D01*
X52108215Y-107661065D01*
X52354858Y-107517395D01*
X52584849Y-107383486D01*
X52798715Y-107259033D01*
X52996984Y-107143731D01*
X53180183Y-107037273D01*
X53348840Y-106939354D01*
X53503483Y-106849668D01*
X53644638Y-106767908D01*
X53772834Y-106693769D01*
X53888598Y-106626946D01*
X53992457Y-106567131D01*
X54084939Y-106514020D01*
X54166572Y-106467307D01*
X54237882Y-106426685D01*
X54299397Y-106391850D01*
X54351646Y-106362494D01*
X54395154Y-106338312D01*
X54430451Y-106318998D01*
X54458062Y-106304247D01*
X54478517Y-106293753D01*
X54492342Y-106287209D01*
X54500064Y-106284310D01*
X54501449Y-106284100D01*
X54522654Y-106289934D01*
X54562070Y-106306192D01*
X54615678Y-106331006D01*
X54679462Y-106362507D01*
X54749403Y-106398827D01*
X54757837Y-106403323D01*
X54835192Y-106444462D01*
X54913207Y-106485573D01*
X54985985Y-106523574D01*
X55047627Y-106555383D01*
X55088800Y-106576218D01*
X55140747Y-106602597D01*
X55207195Y-106637147D01*
X55280389Y-106675797D01*
X55352577Y-106714473D01*
X55368200Y-106722933D01*
X55431661Y-106756282D01*
X55491020Y-106785495D01*
X55541038Y-106808136D01*
X55576477Y-106821766D01*
X55586041Y-106824270D01*
X55639347Y-106822932D01*
X55692501Y-106803900D01*
X55735192Y-106771438D01*
X55745262Y-106758451D01*
X55765967Y-106736429D01*
X55784031Y-106728600D01*
X55801022Y-106734526D01*
X55836070Y-106750950D01*
X55885140Y-106775837D01*
X55944198Y-106807151D01*
X55995296Y-106835116D01*
X56065666Y-106873877D01*
X56135137Y-106911671D01*
X56197809Y-106945319D01*
X56247779Y-106971644D01*
X56269281Y-106982638D01*
X56304734Y-107001069D01*
X56357739Y-107029518D01*
X56423740Y-107065497D01*
X56498182Y-107106517D01*
X56576511Y-107150089D01*
X56605831Y-107166508D01*
X56685526Y-107210972D01*
X56764058Y-107254331D01*
X56836602Y-107293956D01*
X56898335Y-107327218D01*
X56944434Y-107351486D01*
X56955700Y-107357227D01*
X56994063Y-107377104D01*
X57050133Y-107406967D01*
X57119450Y-107444398D01*
X57197553Y-107486983D01*
X57279983Y-107532304D01*
X57330350Y-107560188D01*
X57416770Y-107608004D01*
X57504827Y-107656444D01*
X57589227Y-107702617D01*
X57664678Y-107743630D01*
X57725887Y-107776592D01*
X57749450Y-107789127D01*
X57810444Y-107821744D01*
X57885791Y-107862618D01*
X57967734Y-107907508D01*
X58048513Y-107952173D01*
X58086000Y-107973073D01*
X58166322Y-108017632D01*
X58254607Y-108065998D01*
X58342077Y-108113398D01*
X58419954Y-108155060D01*
X58447950Y-108169836D01*
X58521432Y-108208922D01*
X58607394Y-108255462D01*
X58696298Y-108304249D01*
X58778605Y-108350072D01*
X58797200Y-108360550D01*
X58876336Y-108404803D01*
X58964475Y-108453333D01*
X59052079Y-108500931D01*
X59129610Y-108542389D01*
X59146450Y-108551263D01*
X59217604Y-108589051D01*
X59302071Y-108634604D01*
X59391078Y-108683150D01*
X59475847Y-108729917D01*
X59508400Y-108748064D01*
X59588348Y-108792421D01*
X59681917Y-108843732D01*
X59780232Y-108897167D01*
X59874415Y-108947891D01*
X59927500Y-108976210D01*
X60006897Y-109018664D01*
X60088765Y-109062963D01*
X60166581Y-109105540D01*
X60233820Y-109142830D01*
X60276750Y-109167113D01*
X60340753Y-109203204D01*
X60417088Y-109245262D01*
X60495485Y-109287673D01*
X60556150Y-109319846D01*
X60611255Y-109349036D01*
X60683263Y-109387671D01*
X60766869Y-109432874D01*
X60856763Y-109481771D01*
X60947638Y-109531486D01*
X61000650Y-109560635D01*
X61133660Y-109633723D01*
X61256990Y-109701083D01*
X61369041Y-109761863D01*
X61468210Y-109815210D01*
X61552899Y-109860271D01*
X61621504Y-109896193D01*
X61672426Y-109922124D01*
X61704064Y-109937209D01*
X61714438Y-109940894D01*
X61733376Y-109935781D01*
X61749950Y-109929510D01*
X61762850Y-109916107D01*
X61786626Y-109883559D01*
X61819529Y-109834762D01*
X61859810Y-109772611D01*
X61905721Y-109700000D01*
X61955512Y-109619827D01*
X62007435Y-109534985D01*
X62059741Y-109448370D01*
X62110680Y-109362878D01*
X62158505Y-109281404D01*
X62201465Y-109206842D01*
X62237813Y-109142090D01*
X62265800Y-109090041D01*
X62283675Y-109053591D01*
X62289700Y-109035934D01*
X62283066Y-109004113D01*
X62272157Y-108986171D01*
X62258622Y-108976069D01*
X62225786Y-108953129D01*
X62175489Y-108918590D01*
X62109572Y-108873689D01*
X62029878Y-108819665D01*
X61938247Y-108757755D01*
X61836521Y-108689199D01*
X61726541Y-108615233D01*
X61610148Y-108537097D01*
X61489184Y-108456028D01*
X61365490Y-108373264D01*
X61240907Y-108290044D01*
X61117277Y-108207605D01*
X60996440Y-108127186D01*
X60880238Y-108050025D01*
X60860140Y-108036700D01*
X60714429Y-107940100D01*
X60587640Y-107856010D01*
X60477513Y-107782925D01*
X60381789Y-107719335D01*
X60298208Y-107663736D01*
X60224510Y-107614619D01*
X60158436Y-107570477D01*
X60097726Y-107529804D01*
X60040120Y-107491092D01*
X59983359Y-107452835D01*
X59925182Y-107413525D01*
X59888942Y-107389000D01*
X59751517Y-107296255D01*
X59595646Y-107191599D01*
X59424193Y-107076943D01*
X59240022Y-106954198D01*
X59045995Y-106825277D01*
X58844976Y-106692090D01*
X58842573Y-106690500D01*
X58777703Y-106647520D01*
X58697821Y-106594493D01*
X58605165Y-106532911D01*
X58501973Y-106464269D01*
X58390484Y-106390057D01*
X58272936Y-106311770D01*
X58151568Y-106230900D01*
X58028617Y-106148940D01*
X57906323Y-106067383D01*
X57786923Y-105987720D01*
X57672657Y-105911447D01*
X57565761Y-105840054D01*
X57468476Y-105775035D01*
X57383038Y-105717883D01*
X57311687Y-105670090D01*
X57256661Y-105633150D01*
X57220198Y-105608554D01*
X57216360Y-105605948D01*
X57168061Y-105573232D01*
X57104577Y-105530403D01*
X57031844Y-105481458D01*
X56955799Y-105430393D01*
X56892510Y-105387983D01*
X56821535Y-105339496D01*
X56762999Y-105297522D01*
X56719237Y-105263852D01*
X56692589Y-105240274D01*
X56685160Y-105229233D01*
X56689670Y-105205994D01*
X56697906Y-105170043D01*
X56701039Y-105157241D01*
X56707903Y-105112902D01*
X56701536Y-105073419D01*
X56693765Y-105051940D01*
X56682236Y-105019778D01*
X56677375Y-104999185D01*
X56677886Y-104995982D01*
X56689899Y-104988441D01*
X56720150Y-104970318D01*
X56764927Y-104943812D01*
X56820518Y-104911124D01*
X56866800Y-104884034D01*
X57223544Y-104675628D01*
X57558822Y-104479788D01*
X57873091Y-104296247D01*
X58166806Y-104124739D01*
X58440424Y-103964999D01*
X58694399Y-103816761D01*
X58929187Y-103679759D01*
X59145245Y-103553728D01*
X59343028Y-103438401D01*
X59522991Y-103333513D01*
X59685591Y-103238798D01*
X59831284Y-103153990D01*
X59960524Y-103078824D01*
X60073768Y-103013033D01*
X60171471Y-102956353D01*
X60254090Y-102908516D01*
X60257700Y-102906428D01*
X60342704Y-102857160D01*
X60441852Y-102799502D01*
X60547406Y-102737966D01*
X60651631Y-102677063D01*
X60746791Y-102621303D01*
X60759350Y-102613928D01*
X60870650Y-102548597D01*
X60991911Y-102477492D01*
X61120354Y-102402237D01*
X61253200Y-102324458D01*
X61387671Y-102245778D01*
X61520986Y-102167821D01*
X61650367Y-102092213D01*
X61773035Y-102020578D01*
X61886210Y-101954540D01*
X61987113Y-101895723D01*
X62072965Y-101845751D01*
X62140987Y-101806250D01*
X62165875Y-101791839D01*
X62227478Y-101755415D01*
X62280534Y-101722506D01*
X62321443Y-101695471D01*
X62346605Y-101676668D01*
X62352984Y-101669239D01*
X62346772Y-101651197D01*
X62330949Y-101619465D01*
X62315100Y-101591450D01*
X62294704Y-101555167D01*
X61899896Y-101555167D01*
X61888051Y-101564475D01*
X61856646Y-101584967D01*
X61808152Y-101615189D01*
X61745043Y-101653687D01*
X61669791Y-101699007D01*
X61584869Y-101749697D01*
X61492750Y-101804303D01*
X61395906Y-101861370D01*
X61296809Y-101919446D01*
X61197933Y-101977077D01*
X61101749Y-102032810D01*
X61010731Y-102085190D01*
X60927352Y-102132764D01*
X60854083Y-102174080D01*
X60793397Y-102207682D01*
X60753000Y-102229385D01*
X60691020Y-102262911D01*
X60617770Y-102304060D01*
X60543523Y-102346997D01*
X60492650Y-102377294D01*
X60437912Y-102409062D01*
X60389136Y-102434827D01*
X60351293Y-102452138D01*
X60329356Y-102458541D01*
X60328111Y-102458472D01*
X60315058Y-102449286D01*
X60293957Y-102423463D01*
X60263987Y-102379766D01*
X60224328Y-102316953D01*
X60174156Y-102233785D01*
X60133340Y-102164499D01*
X60081480Y-102075373D01*
X60041569Y-102005514D01*
X60012392Y-101952469D01*
X59992733Y-101913785D01*
X59981378Y-101887006D01*
X59977110Y-101869679D01*
X59978715Y-101859350D01*
X59980826Y-101856531D01*
X59987098Y-101851214D01*
X59998338Y-101843199D01*
X60015872Y-101831699D01*
X60041028Y-101815927D01*
X60075132Y-101795096D01*
X60119511Y-101768418D01*
X60175494Y-101735105D01*
X60244406Y-101694372D01*
X60327574Y-101645430D01*
X60426326Y-101587492D01*
X60541989Y-101519770D01*
X60675890Y-101441478D01*
X60829356Y-101351829D01*
X60967122Y-101271394D01*
X61112991Y-101186595D01*
X61237556Y-101114946D01*
X61341137Y-101056271D01*
X61424054Y-101010394D01*
X61486626Y-100977139D01*
X61529175Y-100956331D01*
X61552020Y-100947794D01*
X61556139Y-100948058D01*
X61569358Y-100965891D01*
X61592015Y-101001374D01*
X61622120Y-101050992D01*
X61657684Y-101111230D01*
X61696715Y-101178574D01*
X61737224Y-101249508D01*
X61777220Y-101320517D01*
X61814713Y-101388088D01*
X61847714Y-101448704D01*
X61874231Y-101498851D01*
X61892275Y-101535014D01*
X61899856Y-101553678D01*
X61899896Y-101555167D01*
X62294704Y-101555167D01*
X62289216Y-101545406D01*
X62278702Y-101516976D01*
X62284651Y-101502766D01*
X62308154Y-101499382D01*
X62343675Y-101502597D01*
X62423328Y-101505119D01*
X62510340Y-101495456D01*
X62600435Y-101475359D01*
X62689336Y-101446578D01*
X62772763Y-101410860D01*
X62846439Y-101369957D01*
X62906086Y-101325618D01*
X62947426Y-101279591D01*
X62962477Y-101249531D01*
X62980154Y-101214528D01*
X63003536Y-101188694D01*
X63004980Y-101187705D01*
X63022353Y-101170605D01*
X63050085Y-101136781D01*
X63084655Y-101090784D01*
X63122544Y-101037165D01*
X63131014Y-101024740D01*
X63171646Y-100964951D01*
X63211637Y-100906483D01*
X63246599Y-100855731D01*
X63272141Y-100819086D01*
X63273792Y-100816750D01*
X63297453Y-100782894D01*
X63331347Y-100733841D01*
X63371462Y-100675423D01*
X63413785Y-100613473D01*
X63426701Y-100594500D01*
X63467253Y-100535004D01*
X63518144Y-100460537D01*
X63575301Y-100377045D01*
X63634654Y-100290475D01*
X63692132Y-100206772D01*
X63704969Y-100188100D01*
X63760261Y-100107642D01*
X63817328Y-100024510D01*
X63872398Y-99944208D01*
X63921695Y-99872240D01*
X63961447Y-99814108D01*
X63970566Y-99800750D01*
X64015814Y-99734547D01*
X64065187Y-99662516D01*
X64112186Y-99594127D01*
X64144851Y-99546750D01*
X64184906Y-99488668D01*
X64232789Y-99419063D01*
X64282001Y-99347385D01*
X64319436Y-99292750D01*
X64357748Y-99236775D01*
X64393326Y-99184812D01*
X64422431Y-99142322D01*
X64441323Y-99114764D01*
X64442555Y-99112969D01*
X64467827Y-99077797D01*
X64498765Y-99036849D01*
X64510187Y-99022242D01*
X64533400Y-98989510D01*
X64547884Y-98962502D01*
X64550300Y-98953165D01*
X64539737Y-98927931D01*
X64514812Y-98904912D01*
X64485677Y-98892985D01*
X64481163Y-98892699D01*
X64467081Y-98898987D01*
M02*
