G04 #@! TF.GenerationSoftware,KiCad,Pcbnew,(5.0.2-5-10.14)*
G04 #@! TF.CreationDate,2019-06-16T16:00:31-04:00*
G04 #@! TF.ProjectId,panel,70616e65-6c2e-46b6-9963-61645f706362,rev?*
G04 #@! TF.SameCoordinates,Original*
G04 #@! TF.FileFunction,Soldermask,Top*
G04 #@! TF.FilePolarity,Negative*
%FSLAX46Y46*%
G04 Gerber Fmt 4.6, Leading zero omitted, Abs format (unit mm)*
G04 Created by KiCad (PCBNEW (5.0.2-5-10.14)) date Sunday, June 16, 2019 at 04:00:31 PM*
%MOMM*%
%LPD*%
G01*
G04 APERTURE LIST*
%ADD10C,0.300000*%
%ADD11C,0.250000*%
%ADD12C,2.000000*%
%ADD13C,1.000000*%
%ADD14C,3.000000*%
%ADD15C,0.200000*%
%ADD16C,0.010000*%
G04 APERTURE END LIST*
D10*
X76601428Y-97707142D02*
X76601428Y-99707142D01*
X75887142Y-96564285D02*
X75172857Y-98707142D01*
X77030000Y-98707142D01*
X61160000Y-96837142D02*
X63017142Y-96837142D01*
X62017142Y-97980000D01*
X62445714Y-97980000D01*
X62731428Y-98122857D01*
X62874285Y-98265714D01*
X63017142Y-98551428D01*
X63017142Y-99265714D01*
X62874285Y-99551428D01*
X62731428Y-99694285D01*
X62445714Y-99837142D01*
X61588571Y-99837142D01*
X61302857Y-99694285D01*
X61160000Y-99551428D01*
X46522857Y-97262857D02*
X46665714Y-97120000D01*
X46951428Y-96977142D01*
X47665714Y-96977142D01*
X47951428Y-97120000D01*
X48094285Y-97262857D01*
X48237142Y-97548571D01*
X48237142Y-97834285D01*
X48094285Y-98262857D01*
X46380000Y-99977142D01*
X48237142Y-99977142D01*
X34137142Y-99667142D02*
X32422857Y-99667142D01*
X33280000Y-99667142D02*
X33280000Y-96667142D01*
X32994285Y-97095714D01*
X32708571Y-97381428D01*
X32422857Y-97524285D01*
X41911428Y-140215714D02*
X41840000Y-140287142D01*
X41625714Y-140358571D01*
X41482857Y-140358571D01*
X41268571Y-140287142D01*
X41125714Y-140144285D01*
X41054285Y-140001428D01*
X40982857Y-139715714D01*
X40982857Y-139501428D01*
X41054285Y-139215714D01*
X41125714Y-139072857D01*
X41268571Y-138930000D01*
X41482857Y-138858571D01*
X41625714Y-138858571D01*
X41840000Y-138930000D01*
X41911428Y-139001428D01*
X42340000Y-138858571D02*
X42840000Y-140358571D01*
X43340000Y-138858571D01*
X65550000Y-138988571D02*
X65835714Y-138988571D01*
X65978571Y-139060000D01*
X66121428Y-139202857D01*
X66192857Y-139488571D01*
X66192857Y-139988571D01*
X66121428Y-140274285D01*
X65978571Y-140417142D01*
X65835714Y-140488571D01*
X65550000Y-140488571D01*
X65407142Y-140417142D01*
X65264285Y-140274285D01*
X65192857Y-139988571D01*
X65192857Y-139488571D01*
X65264285Y-139202857D01*
X65407142Y-139060000D01*
X65550000Y-138988571D01*
X66835714Y-138988571D02*
X66835714Y-140202857D01*
X66907142Y-140345714D01*
X66978571Y-140417142D01*
X67121428Y-140488571D01*
X67407142Y-140488571D01*
X67550000Y-140417142D01*
X67621428Y-140345714D01*
X67692857Y-140202857D01*
X67692857Y-138988571D01*
X68192857Y-138988571D02*
X69050000Y-138988571D01*
X68621428Y-140488571D02*
X68621428Y-138988571D01*
X77307142Y-116408571D02*
X77807142Y-117908571D01*
X78307142Y-116408571D01*
X79092857Y-116408571D02*
X79378571Y-116408571D01*
X79521428Y-116480000D01*
X79664285Y-116622857D01*
X79735714Y-116908571D01*
X79735714Y-117408571D01*
X79664285Y-117694285D01*
X79521428Y-117837142D01*
X79378571Y-117908571D01*
X79092857Y-117908571D01*
X78950000Y-117837142D01*
X78807142Y-117694285D01*
X78735714Y-117408571D01*
X78735714Y-116908571D01*
X78807142Y-116622857D01*
X78950000Y-116480000D01*
X79092857Y-116408571D01*
X81092857Y-117908571D02*
X80378571Y-117908571D01*
X80378571Y-116408571D01*
X27914285Y-116548571D02*
X28771428Y-116548571D01*
X28342857Y-118048571D02*
X28342857Y-116548571D01*
X29271428Y-118048571D02*
X29271428Y-116548571D01*
X29771428Y-117620000D01*
X30271428Y-116548571D01*
X30271428Y-118048571D01*
X30985714Y-118048571D02*
X30985714Y-116548571D01*
X31557142Y-116548571D01*
X31700000Y-116620000D01*
X31771428Y-116691428D01*
X31842857Y-116834285D01*
X31842857Y-117048571D01*
X31771428Y-117191428D01*
X31700000Y-117262857D01*
X31557142Y-117334285D01*
X30985714Y-117334285D01*
D11*
X43700476Y-28739523D02*
X43986190Y-28834761D01*
X44462380Y-28834761D01*
X44652857Y-28739523D01*
X44748095Y-28644285D01*
X44843333Y-28453809D01*
X44843333Y-28263333D01*
X44748095Y-28072857D01*
X44652857Y-27977619D01*
X44462380Y-27882380D01*
X44081428Y-27787142D01*
X43890952Y-27691904D01*
X43795714Y-27596666D01*
X43700476Y-27406190D01*
X43700476Y-27215714D01*
X43795714Y-27025238D01*
X43890952Y-26930000D01*
X44081428Y-26834761D01*
X44557619Y-26834761D01*
X44843333Y-26930000D01*
X45414761Y-26834761D02*
X46557619Y-26834761D01*
X45986190Y-28834761D02*
X45986190Y-26834761D01*
X48367142Y-28834761D02*
X47700476Y-27882380D01*
X47224285Y-28834761D02*
X47224285Y-26834761D01*
X47986190Y-26834761D01*
X48176666Y-26930000D01*
X48271904Y-27025238D01*
X48367142Y-27215714D01*
X48367142Y-27501428D01*
X48271904Y-27691904D01*
X48176666Y-27787142D01*
X47986190Y-27882380D01*
X47224285Y-27882380D01*
X50652857Y-28739523D02*
X50938571Y-28834761D01*
X51414761Y-28834761D01*
X51605238Y-28739523D01*
X51700476Y-28644285D01*
X51795714Y-28453809D01*
X51795714Y-28263333D01*
X51700476Y-28072857D01*
X51605238Y-27977619D01*
X51414761Y-27882380D01*
X51033809Y-27787142D01*
X50843333Y-27691904D01*
X50748095Y-27596666D01*
X50652857Y-27406190D01*
X50652857Y-27215714D01*
X50748095Y-27025238D01*
X50843333Y-26930000D01*
X51033809Y-26834761D01*
X51509999Y-26834761D01*
X51795714Y-26930000D01*
X53414761Y-28739523D02*
X53224285Y-28834761D01*
X52843333Y-28834761D01*
X52652857Y-28739523D01*
X52557619Y-28549047D01*
X52557619Y-27787142D01*
X52652857Y-27596666D01*
X52843333Y-27501428D01*
X53224285Y-27501428D01*
X53414761Y-27596666D01*
X53510000Y-27787142D01*
X53510000Y-27977619D01*
X52557619Y-28168095D01*
X55224285Y-27501428D02*
X55224285Y-29501428D01*
X55224285Y-28739523D02*
X55033809Y-28834761D01*
X54652857Y-28834761D01*
X54462380Y-28739523D01*
X54367142Y-28644285D01*
X54271904Y-28453809D01*
X54271904Y-27882380D01*
X54367142Y-27691904D01*
X54462380Y-27596666D01*
X54652857Y-27501428D01*
X55033809Y-27501428D01*
X55224285Y-27596666D01*
X57033809Y-27501428D02*
X57033809Y-28834761D01*
X56176666Y-27501428D02*
X56176666Y-28549047D01*
X56271904Y-28739523D01*
X56462380Y-28834761D01*
X56748095Y-28834761D01*
X56938571Y-28739523D01*
X57033809Y-28644285D01*
X58748095Y-28739523D02*
X58557619Y-28834761D01*
X58176666Y-28834761D01*
X57986190Y-28739523D01*
X57890952Y-28549047D01*
X57890952Y-27787142D01*
X57986190Y-27596666D01*
X58176666Y-27501428D01*
X58557619Y-27501428D01*
X58748095Y-27596666D01*
X58843333Y-27787142D01*
X58843333Y-27977619D01*
X57890952Y-28168095D01*
X59700476Y-27501428D02*
X59700476Y-28834761D01*
X59700476Y-27691904D02*
X59795714Y-27596666D01*
X59986190Y-27501428D01*
X60271904Y-27501428D01*
X60462380Y-27596666D01*
X60557619Y-27787142D01*
X60557619Y-28834761D01*
X62367142Y-28739523D02*
X62176666Y-28834761D01*
X61795714Y-28834761D01*
X61605238Y-28739523D01*
X61510000Y-28644285D01*
X61414761Y-28453809D01*
X61414761Y-27882380D01*
X61510000Y-27691904D01*
X61605238Y-27596666D01*
X61795714Y-27501428D01*
X62176666Y-27501428D01*
X62367142Y-27596666D01*
X63986190Y-28739523D02*
X63795714Y-28834761D01*
X63414761Y-28834761D01*
X63224285Y-28739523D01*
X63129047Y-28549047D01*
X63129047Y-27787142D01*
X63224285Y-27596666D01*
X63414761Y-27501428D01*
X63795714Y-27501428D01*
X63986190Y-27596666D01*
X64081428Y-27787142D01*
X64081428Y-27977619D01*
X63129047Y-28168095D01*
X64938571Y-28834761D02*
X64938571Y-27501428D01*
X64938571Y-27882380D02*
X65033809Y-27691904D01*
X65129047Y-27596666D01*
X65319523Y-27501428D01*
X65509999Y-27501428D01*
D12*
X49400000Y-70900000D02*
X49400000Y-33600000D01*
X49400000Y-33600000D02*
X45100000Y-33600000D01*
X49400000Y-70900000D02*
X45100000Y-70900000D01*
X45100000Y-70900000D02*
X45100000Y-33600000D01*
X35400000Y-70900000D02*
X31100000Y-70900000D01*
X35400000Y-70900000D02*
X35400000Y-33600000D01*
X35400000Y-33600000D02*
X31100000Y-33600000D01*
X31100000Y-70900000D02*
X31100000Y-33600000D01*
X78200000Y-70900000D02*
X78200000Y-33600000D01*
X73900000Y-70900000D02*
X73900000Y-33600000D01*
X78200000Y-33600000D02*
X73900000Y-33600000D01*
X78200000Y-70900000D02*
X73900000Y-70900000D01*
X64200000Y-70900000D02*
X64200000Y-33600000D01*
X59900000Y-70900000D02*
X59900000Y-33600000D01*
X64200000Y-70900000D02*
X59900000Y-70900000D01*
X64200000Y-33600000D02*
X59900000Y-33600000D01*
D13*
X46250000Y-132250000D02*
G75*
G03X46250000Y-132250000I-4000000J0D01*
G01*
X71050000Y-132250000D02*
G75*
G03X71050000Y-132250000I-4000000J0D01*
G01*
D12*
X71550000Y-117250000D02*
G75*
G03X71550000Y-117250000I-4500000J0D01*
G01*
X46750000Y-117250000D02*
G75*
G03X46750000Y-117250000I-4500000J0D01*
G01*
D13*
X81300000Y-81750000D02*
G75*
G03X81300000Y-81750000I-5250000J0D01*
G01*
X67300000Y-81750000D02*
G75*
G03X67300000Y-81750000I-5250000J0D01*
G01*
X52500000Y-81750000D02*
G75*
G03X52500000Y-81750000I-5250000J0D01*
G01*
X38500000Y-81750000D02*
G75*
G03X38500000Y-81750000I-5250000J0D01*
G01*
D14*
X77050000Y-91750000D02*
G75*
G03X77050000Y-91750000I-1000000J0D01*
G01*
X63050000Y-91750000D02*
G75*
G03X63050000Y-91750000I-1000000J0D01*
G01*
X48250000Y-91750000D02*
G75*
G03X48250000Y-91750000I-1000000J0D01*
G01*
X34250000Y-91750000D02*
G75*
G03X34250000Y-91750000I-1000000J0D01*
G01*
D15*
X35750000Y-91750000D02*
G75*
G03X35750000Y-91750000I-2500000J0D01*
G01*
X64550000Y-91750000D02*
G75*
G03X64550000Y-91750000I-2500000J0D01*
G01*
X78550000Y-91750000D02*
G75*
G03X78550000Y-91750000I-2500000J0D01*
G01*
X49750000Y-91750000D02*
G75*
G03X49750000Y-91750000I-2500000J0D01*
G01*
D16*
G04 #@! TO.C,G\002A\002A\002A*
G36*
X55161364Y-118860437D02*
X55160460Y-118907260D01*
X55159451Y-118943370D01*
X55158146Y-118970751D01*
X55156359Y-118991391D01*
X55153900Y-119007275D01*
X55150580Y-119020389D01*
X55146212Y-119032719D01*
X55144633Y-119036650D01*
X55114465Y-119093905D01*
X55073851Y-119144652D01*
X55023657Y-119188156D01*
X54964750Y-119223681D01*
X54897995Y-119250493D01*
X54889654Y-119253044D01*
X54875829Y-119256900D01*
X54862008Y-119260037D01*
X54846628Y-119262562D01*
X54828124Y-119264582D01*
X54804932Y-119266202D01*
X54775489Y-119267530D01*
X54738229Y-119268670D01*
X54691588Y-119269731D01*
X54634003Y-119270817D01*
X54626175Y-119270956D01*
X54410275Y-119274775D01*
X54374053Y-119292561D01*
X54351675Y-119305386D01*
X54331724Y-119319922D01*
X54321666Y-119329561D01*
X54315908Y-119336757D01*
X54311711Y-119343964D01*
X54308828Y-119353211D01*
X54307012Y-119366526D01*
X54306016Y-119385939D01*
X54305595Y-119413480D01*
X54305501Y-119451177D01*
X54305500Y-119462587D01*
X54305500Y-119576400D01*
X54057850Y-119576400D01*
X54057850Y-119453909D01*
X54058692Y-119392464D01*
X54061658Y-119341579D01*
X54067409Y-119299197D01*
X54076603Y-119263262D01*
X54089901Y-119231719D01*
X54107962Y-119202511D01*
X54131447Y-119173582D01*
X54156106Y-119147736D01*
X54207747Y-119103943D01*
X54265707Y-119069795D01*
X54331959Y-119044147D01*
X54337353Y-119042523D01*
X54351185Y-119038679D01*
X54365046Y-119035550D01*
X54380500Y-119033030D01*
X54399112Y-119031012D01*
X54422446Y-119029391D01*
X54452065Y-119028060D01*
X54489534Y-119026912D01*
X54536416Y-119025842D01*
X54594276Y-119024744D01*
X54600775Y-119024627D01*
X54816675Y-119020775D01*
X54853035Y-119002919D01*
X54873462Y-118992564D01*
X54888829Y-118982987D01*
X54899857Y-118972250D01*
X54907266Y-118958415D01*
X54911774Y-118939541D01*
X54914103Y-118913692D01*
X54914971Y-118878927D01*
X54915100Y-118835768D01*
X54915100Y-118719150D01*
X55163806Y-118719150D01*
X55161364Y-118860437D01*
X55161364Y-118860437D01*
G37*
X55161364Y-118860437D02*
X55160460Y-118907260D01*
X55159451Y-118943370D01*
X55158146Y-118970751D01*
X55156359Y-118991391D01*
X55153900Y-119007275D01*
X55150580Y-119020389D01*
X55146212Y-119032719D01*
X55144633Y-119036650D01*
X55114465Y-119093905D01*
X55073851Y-119144652D01*
X55023657Y-119188156D01*
X54964750Y-119223681D01*
X54897995Y-119250493D01*
X54889654Y-119253044D01*
X54875829Y-119256900D01*
X54862008Y-119260037D01*
X54846628Y-119262562D01*
X54828124Y-119264582D01*
X54804932Y-119266202D01*
X54775489Y-119267530D01*
X54738229Y-119268670D01*
X54691588Y-119269731D01*
X54634003Y-119270817D01*
X54626175Y-119270956D01*
X54410275Y-119274775D01*
X54374053Y-119292561D01*
X54351675Y-119305386D01*
X54331724Y-119319922D01*
X54321666Y-119329561D01*
X54315908Y-119336757D01*
X54311711Y-119343964D01*
X54308828Y-119353211D01*
X54307012Y-119366526D01*
X54306016Y-119385939D01*
X54305595Y-119413480D01*
X54305501Y-119451177D01*
X54305500Y-119462587D01*
X54305500Y-119576400D01*
X54057850Y-119576400D01*
X54057850Y-119453909D01*
X54058692Y-119392464D01*
X54061658Y-119341579D01*
X54067409Y-119299197D01*
X54076603Y-119263262D01*
X54089901Y-119231719D01*
X54107962Y-119202511D01*
X54131447Y-119173582D01*
X54156106Y-119147736D01*
X54207747Y-119103943D01*
X54265707Y-119069795D01*
X54331959Y-119044147D01*
X54337353Y-119042523D01*
X54351185Y-119038679D01*
X54365046Y-119035550D01*
X54380500Y-119033030D01*
X54399112Y-119031012D01*
X54422446Y-119029391D01*
X54452065Y-119028060D01*
X54489534Y-119026912D01*
X54536416Y-119025842D01*
X54594276Y-119024744D01*
X54600775Y-119024627D01*
X54816675Y-119020775D01*
X54853035Y-119002919D01*
X54873462Y-118992564D01*
X54888829Y-118982987D01*
X54899857Y-118972250D01*
X54907266Y-118958415D01*
X54911774Y-118939541D01*
X54914103Y-118913692D01*
X54914971Y-118878927D01*
X54915100Y-118835768D01*
X54915100Y-118719150D01*
X55163806Y-118719150D01*
X55161364Y-118860437D01*
G36*
X54166761Y-119665427D02*
X54187235Y-119665439D01*
X54260843Y-119665492D01*
X54322850Y-119665607D01*
X54374355Y-119665824D01*
X54416457Y-119666179D01*
X54450256Y-119666709D01*
X54476849Y-119667453D01*
X54497337Y-119668448D01*
X54512817Y-119669731D01*
X54524390Y-119671340D01*
X54533154Y-119673313D01*
X54540208Y-119675686D01*
X54544820Y-119677653D01*
X54562032Y-119687661D01*
X54578428Y-119702380D01*
X54595163Y-119723376D01*
X54613392Y-119752214D01*
X54634268Y-119790460D01*
X54648109Y-119817700D01*
X54666032Y-119853347D01*
X54687112Y-119894816D01*
X54708584Y-119936693D01*
X54725881Y-119970100D01*
X54745774Y-120008290D01*
X54768224Y-120051402D01*
X54790292Y-120093795D01*
X54806881Y-120125675D01*
X54824814Y-120159987D01*
X54843783Y-120196017D01*
X54861445Y-120229331D01*
X54874671Y-120254035D01*
X54902818Y-120306196D01*
X55383621Y-120308010D01*
X55864425Y-120309825D01*
X55905700Y-120324544D01*
X55934291Y-120336687D01*
X55964811Y-120352594D01*
X55983686Y-120364231D01*
X56002599Y-120376656D01*
X56017440Y-120385598D01*
X56025109Y-120389193D01*
X56025227Y-120389200D01*
X56031895Y-120393479D01*
X56043871Y-120404263D01*
X56058131Y-120418465D01*
X56071656Y-120433003D01*
X56081422Y-120444791D01*
X56084326Y-120449525D01*
X56088889Y-120457734D01*
X56098532Y-120473011D01*
X56110497Y-120491048D01*
X56126155Y-120517013D01*
X56141035Y-120546302D01*
X56148597Y-120564073D01*
X56151504Y-120571973D01*
X56153990Y-120579761D01*
X56156094Y-120588453D01*
X56157850Y-120599066D01*
X56159297Y-120612617D01*
X56160470Y-120630122D01*
X56161407Y-120652599D01*
X56162144Y-120681064D01*
X56162718Y-120716534D01*
X56163166Y-120760026D01*
X56163524Y-120812556D01*
X56163829Y-120875142D01*
X56164118Y-120948800D01*
X56164300Y-120998800D01*
X56165725Y-121395675D01*
X56151600Y-121424109D01*
X56139082Y-121444118D01*
X56122281Y-121459148D01*
X56103412Y-121470146D01*
X56069349Y-121487750D01*
X55731937Y-121487785D01*
X55653151Y-121487918D01*
X55582594Y-121488294D01*
X55520943Y-121488898D01*
X55468875Y-121489720D01*
X55427067Y-121490746D01*
X55396196Y-121491965D01*
X55376940Y-121493365D01*
X55371234Y-121494289D01*
X55351564Y-121503681D01*
X55332247Y-121518945D01*
X55328372Y-121523050D01*
X55315562Y-121540349D01*
X55309889Y-121557605D01*
X55308800Y-121576496D01*
X55310014Y-121595381D01*
X55313104Y-121608524D01*
X55315253Y-121611639D01*
X55319257Y-121618713D01*
X55318578Y-121620690D01*
X55320259Y-121628231D01*
X55326412Y-121635310D01*
X55332998Y-121640964D01*
X55339451Y-121645774D01*
X55346807Y-121649818D01*
X55356104Y-121653174D01*
X55368377Y-121655921D01*
X55384664Y-121658135D01*
X55406002Y-121659895D01*
X55433427Y-121661279D01*
X55467976Y-121662364D01*
X55510686Y-121663229D01*
X55562593Y-121663950D01*
X55624734Y-121664607D01*
X55698147Y-121665277D01*
X55729031Y-121665550D01*
X55805729Y-121666238D01*
X55870750Y-121666870D01*
X55925116Y-121667489D01*
X55969849Y-121668141D01*
X56005972Y-121668869D01*
X56034507Y-121669716D01*
X56056476Y-121670728D01*
X56072902Y-121671949D01*
X56084807Y-121673422D01*
X56093213Y-121675191D01*
X56099143Y-121677301D01*
X56103619Y-121679796D01*
X56106488Y-121681835D01*
X56121546Y-121695131D01*
X56138218Y-121712715D01*
X56143457Y-121718928D01*
X56162875Y-121742910D01*
X56164488Y-121962992D01*
X56164901Y-122021654D01*
X56165142Y-122069005D01*
X56165139Y-122106436D01*
X56164819Y-122135335D01*
X56164111Y-122157092D01*
X56162942Y-122173096D01*
X56161239Y-122184738D01*
X56158932Y-122193405D01*
X56155946Y-122200488D01*
X56152210Y-122207376D01*
X56151734Y-122208210D01*
X56137486Y-122227289D01*
X56118266Y-122246154D01*
X56109890Y-122252660D01*
X56082413Y-122271975D01*
X55478119Y-122275150D01*
X55376318Y-122275699D01*
X55286444Y-122276222D01*
X55207722Y-122276737D01*
X55139379Y-122277262D01*
X55080641Y-122277812D01*
X55030735Y-122278406D01*
X54988886Y-122279061D01*
X54954322Y-122279793D01*
X54926267Y-122280620D01*
X54903949Y-122281560D01*
X54886594Y-122282629D01*
X54873429Y-122283845D01*
X54863678Y-122285225D01*
X54856570Y-122286786D01*
X54851330Y-122288545D01*
X54849972Y-122289130D01*
X54831298Y-122301291D01*
X54820018Y-122316003D01*
X54819809Y-122316531D01*
X54815769Y-122335385D01*
X54813869Y-122361658D01*
X54814104Y-122390252D01*
X54816469Y-122416069D01*
X54819916Y-122431364D01*
X54826332Y-122449775D01*
X55443803Y-122449775D01*
X55531622Y-122449824D01*
X55616071Y-122449969D01*
X55696253Y-122450202D01*
X55771274Y-122450516D01*
X55840239Y-122450904D01*
X55902252Y-122451359D01*
X55956418Y-122451875D01*
X56001843Y-122452444D01*
X56037629Y-122453059D01*
X56062884Y-122453714D01*
X56076710Y-122454401D01*
X56078897Y-122454698D01*
X56097975Y-122464149D01*
X56119575Y-122480835D01*
X56139723Y-122501082D01*
X56154442Y-122521213D01*
X56157495Y-122527358D01*
X56159771Y-122539251D01*
X56161727Y-122562213D01*
X56163365Y-122594615D01*
X56164685Y-122634831D01*
X56165686Y-122681234D01*
X56166369Y-122732195D01*
X56166733Y-122786087D01*
X56166780Y-122841283D01*
X56166508Y-122896155D01*
X56165919Y-122949077D01*
X56165012Y-122998419D01*
X56163787Y-123042556D01*
X56162244Y-123079859D01*
X56160384Y-123108701D01*
X56158207Y-123127454D01*
X56157455Y-123131016D01*
X56148860Y-123164150D01*
X56368846Y-123164150D01*
X56433418Y-123164239D01*
X56486783Y-123164627D01*
X56530430Y-123165493D01*
X56565851Y-123167017D01*
X56594537Y-123169378D01*
X56617979Y-123172756D01*
X56637667Y-123177330D01*
X56655094Y-123183280D01*
X56671750Y-123190786D01*
X56689127Y-123200027D01*
X56695213Y-123203454D01*
X56716344Y-123215445D01*
X56734598Y-123225801D01*
X56744943Y-123231668D01*
X56763140Y-123244965D01*
X56783433Y-123264079D01*
X56801381Y-123284484D01*
X56811454Y-123299425D01*
X56822295Y-123316550D01*
X56832675Y-123329125D01*
X56840643Y-123340853D01*
X56850475Y-123360585D01*
X56860154Y-123384235D01*
X56860912Y-123386316D01*
X56868333Y-123408675D01*
X56873125Y-123428962D01*
X56875823Y-123451123D01*
X56876962Y-123479104D01*
X56877116Y-123505840D01*
X56874375Y-123562504D01*
X56865768Y-123610752D01*
X56850383Y-123653863D01*
X56827309Y-123695114D01*
X56822466Y-123702308D01*
X56806965Y-123722501D01*
X56788125Y-123743690D01*
X56768331Y-123763579D01*
X56749969Y-123779868D01*
X56735425Y-123790259D01*
X56728535Y-123792800D01*
X56718705Y-123796804D01*
X56707112Y-123805640D01*
X56693885Y-123814505D01*
X56673333Y-123824658D01*
X56653527Y-123832556D01*
X56613725Y-123846632D01*
X54626175Y-123847781D01*
X54430478Y-123847885D01*
X54247121Y-123847963D01*
X54075743Y-123848012D01*
X53915984Y-123848033D01*
X53767483Y-123848024D01*
X53629881Y-123847983D01*
X53502816Y-123847909D01*
X53385928Y-123847802D01*
X53278857Y-123847660D01*
X53181242Y-123847481D01*
X53092724Y-123847265D01*
X53012941Y-123847011D01*
X52941533Y-123846716D01*
X52878140Y-123846380D01*
X52822402Y-123846002D01*
X52773957Y-123845580D01*
X52732447Y-123845113D01*
X52697509Y-123844601D01*
X52668784Y-123844041D01*
X52645912Y-123843432D01*
X52628532Y-123842774D01*
X52616284Y-123842065D01*
X52608807Y-123841304D01*
X52606875Y-123840937D01*
X52545661Y-123819309D01*
X52488480Y-123786946D01*
X52440187Y-123747245D01*
X52423929Y-123730131D01*
X52412061Y-123715590D01*
X52406907Y-123706502D01*
X52406850Y-123705952D01*
X52403029Y-123698249D01*
X52400500Y-123697550D01*
X52394753Y-123692457D01*
X52394150Y-123688704D01*
X52389041Y-123678832D01*
X52384928Y-123676320D01*
X52379016Y-123668999D01*
X52371063Y-123652443D01*
X52362426Y-123629653D01*
X52358852Y-123618723D01*
X52351405Y-123593412D01*
X52346697Y-123572262D01*
X52344266Y-123551131D01*
X52343649Y-123525878D01*
X52344385Y-123492363D01*
X52344468Y-123489820D01*
X52345919Y-123455814D01*
X52348095Y-123430854D01*
X52351659Y-123411288D01*
X52357279Y-123393462D01*
X52365620Y-123373723D01*
X52365630Y-123373700D01*
X52377247Y-123350328D01*
X52389342Y-123329582D01*
X52398761Y-123316614D01*
X52408654Y-123303956D01*
X52413171Y-123294573D01*
X52413200Y-123294124D01*
X52417730Y-123286138D01*
X52429401Y-123273083D01*
X52445328Y-123257692D01*
X52462631Y-123242697D01*
X52478425Y-123230828D01*
X52483050Y-123227926D01*
X52532954Y-123200825D01*
X52575262Y-123181820D01*
X52608775Y-123171352D01*
X52626133Y-123169147D01*
X52655427Y-123167316D01*
X52695895Y-123165881D01*
X52746779Y-123164862D01*
X52807317Y-123164283D01*
X52858691Y-123164150D01*
X52916817Y-123164117D01*
X52963463Y-123163976D01*
X52999851Y-123163663D01*
X53027201Y-123163114D01*
X53046735Y-123162265D01*
X53059672Y-123161052D01*
X53067234Y-123159410D01*
X53070641Y-123157277D01*
X53071115Y-123154587D01*
X53070642Y-123153037D01*
X53068711Y-123147276D01*
X53066941Y-123140001D01*
X53065324Y-123130682D01*
X53063855Y-123118791D01*
X53062528Y-123103798D01*
X53061338Y-123085175D01*
X53060278Y-123062391D01*
X53059342Y-123034919D01*
X53058525Y-123002229D01*
X53057820Y-122963791D01*
X53057223Y-122919077D01*
X53056726Y-122867558D01*
X53056324Y-122808704D01*
X53056011Y-122741987D01*
X53055782Y-122666877D01*
X53055630Y-122582844D01*
X53055549Y-122489361D01*
X53055534Y-122385898D01*
X53055579Y-122271925D01*
X53055678Y-122146914D01*
X53055825Y-122010335D01*
X53056013Y-121861660D01*
X53056043Y-121839818D01*
X53057725Y-120601925D01*
X53074815Y-120559295D01*
X53088028Y-120530953D01*
X53104716Y-120501288D01*
X53117677Y-120481778D01*
X53130647Y-120463486D01*
X53139904Y-120449028D01*
X53143449Y-120441525D01*
X53143450Y-120441516D01*
X53147726Y-120434191D01*
X53158138Y-120422337D01*
X53171063Y-120409549D01*
X53182875Y-120399425D01*
X53189775Y-120395550D01*
X53196966Y-120392139D01*
X53210989Y-120383313D01*
X53224397Y-120374085D01*
X53282453Y-120339716D01*
X53343055Y-120317635D01*
X53407164Y-120307526D01*
X53430359Y-120306760D01*
X53451451Y-120306038D01*
X53463232Y-120303298D01*
X53469057Y-120297425D01*
X53470646Y-120293409D01*
X53475124Y-120283109D01*
X53484450Y-120264159D01*
X53497363Y-120239044D01*
X53512605Y-120210248D01*
X53516547Y-120202922D01*
X53536496Y-120165609D01*
X53558626Y-120123648D01*
X53580027Y-120082584D01*
X53595409Y-120052650D01*
X53613298Y-120017790D01*
X53634542Y-119976846D01*
X53656482Y-119934917D01*
X53676459Y-119897106D01*
X53676476Y-119897075D01*
X53694843Y-119862318D01*
X53713635Y-119826377D01*
X53730807Y-119793185D01*
X53744316Y-119766676D01*
X53745858Y-119763602D01*
X53755806Y-119743512D01*
X53764691Y-119726359D01*
X53773554Y-119711911D01*
X53783433Y-119699937D01*
X53795367Y-119690206D01*
X53810396Y-119682487D01*
X53829560Y-119676549D01*
X53853897Y-119672160D01*
X53884447Y-119669090D01*
X53922248Y-119667107D01*
X53968341Y-119665981D01*
X54023765Y-119665479D01*
X54089558Y-119665372D01*
X54166761Y-119665427D01*
X54166761Y-119665427D01*
G37*
X54166761Y-119665427D02*
X54187235Y-119665439D01*
X54260843Y-119665492D01*
X54322850Y-119665607D01*
X54374355Y-119665824D01*
X54416457Y-119666179D01*
X54450256Y-119666709D01*
X54476849Y-119667453D01*
X54497337Y-119668448D01*
X54512817Y-119669731D01*
X54524390Y-119671340D01*
X54533154Y-119673313D01*
X54540208Y-119675686D01*
X54544820Y-119677653D01*
X54562032Y-119687661D01*
X54578428Y-119702380D01*
X54595163Y-119723376D01*
X54613392Y-119752214D01*
X54634268Y-119790460D01*
X54648109Y-119817700D01*
X54666032Y-119853347D01*
X54687112Y-119894816D01*
X54708584Y-119936693D01*
X54725881Y-119970100D01*
X54745774Y-120008290D01*
X54768224Y-120051402D01*
X54790292Y-120093795D01*
X54806881Y-120125675D01*
X54824814Y-120159987D01*
X54843783Y-120196017D01*
X54861445Y-120229331D01*
X54874671Y-120254035D01*
X54902818Y-120306196D01*
X55383621Y-120308010D01*
X55864425Y-120309825D01*
X55905700Y-120324544D01*
X55934291Y-120336687D01*
X55964811Y-120352594D01*
X55983686Y-120364231D01*
X56002599Y-120376656D01*
X56017440Y-120385598D01*
X56025109Y-120389193D01*
X56025227Y-120389200D01*
X56031895Y-120393479D01*
X56043871Y-120404263D01*
X56058131Y-120418465D01*
X56071656Y-120433003D01*
X56081422Y-120444791D01*
X56084326Y-120449525D01*
X56088889Y-120457734D01*
X56098532Y-120473011D01*
X56110497Y-120491048D01*
X56126155Y-120517013D01*
X56141035Y-120546302D01*
X56148597Y-120564073D01*
X56151504Y-120571973D01*
X56153990Y-120579761D01*
X56156094Y-120588453D01*
X56157850Y-120599066D01*
X56159297Y-120612617D01*
X56160470Y-120630122D01*
X56161407Y-120652599D01*
X56162144Y-120681064D01*
X56162718Y-120716534D01*
X56163166Y-120760026D01*
X56163524Y-120812556D01*
X56163829Y-120875142D01*
X56164118Y-120948800D01*
X56164300Y-120998800D01*
X56165725Y-121395675D01*
X56151600Y-121424109D01*
X56139082Y-121444118D01*
X56122281Y-121459148D01*
X56103412Y-121470146D01*
X56069349Y-121487750D01*
X55731937Y-121487785D01*
X55653151Y-121487918D01*
X55582594Y-121488294D01*
X55520943Y-121488898D01*
X55468875Y-121489720D01*
X55427067Y-121490746D01*
X55396196Y-121491965D01*
X55376940Y-121493365D01*
X55371234Y-121494289D01*
X55351564Y-121503681D01*
X55332247Y-121518945D01*
X55328372Y-121523050D01*
X55315562Y-121540349D01*
X55309889Y-121557605D01*
X55308800Y-121576496D01*
X55310014Y-121595381D01*
X55313104Y-121608524D01*
X55315253Y-121611639D01*
X55319257Y-121618713D01*
X55318578Y-121620690D01*
X55320259Y-121628231D01*
X55326412Y-121635310D01*
X55332998Y-121640964D01*
X55339451Y-121645774D01*
X55346807Y-121649818D01*
X55356104Y-121653174D01*
X55368377Y-121655921D01*
X55384664Y-121658135D01*
X55406002Y-121659895D01*
X55433427Y-121661279D01*
X55467976Y-121662364D01*
X55510686Y-121663229D01*
X55562593Y-121663950D01*
X55624734Y-121664607D01*
X55698147Y-121665277D01*
X55729031Y-121665550D01*
X55805729Y-121666238D01*
X55870750Y-121666870D01*
X55925116Y-121667489D01*
X55969849Y-121668141D01*
X56005972Y-121668869D01*
X56034507Y-121669716D01*
X56056476Y-121670728D01*
X56072902Y-121671949D01*
X56084807Y-121673422D01*
X56093213Y-121675191D01*
X56099143Y-121677301D01*
X56103619Y-121679796D01*
X56106488Y-121681835D01*
X56121546Y-121695131D01*
X56138218Y-121712715D01*
X56143457Y-121718928D01*
X56162875Y-121742910D01*
X56164488Y-121962992D01*
X56164901Y-122021654D01*
X56165142Y-122069005D01*
X56165139Y-122106436D01*
X56164819Y-122135335D01*
X56164111Y-122157092D01*
X56162942Y-122173096D01*
X56161239Y-122184738D01*
X56158932Y-122193405D01*
X56155946Y-122200488D01*
X56152210Y-122207376D01*
X56151734Y-122208210D01*
X56137486Y-122227289D01*
X56118266Y-122246154D01*
X56109890Y-122252660D01*
X56082413Y-122271975D01*
X55478119Y-122275150D01*
X55376318Y-122275699D01*
X55286444Y-122276222D01*
X55207722Y-122276737D01*
X55139379Y-122277262D01*
X55080641Y-122277812D01*
X55030735Y-122278406D01*
X54988886Y-122279061D01*
X54954322Y-122279793D01*
X54926267Y-122280620D01*
X54903949Y-122281560D01*
X54886594Y-122282629D01*
X54873429Y-122283845D01*
X54863678Y-122285225D01*
X54856570Y-122286786D01*
X54851330Y-122288545D01*
X54849972Y-122289130D01*
X54831298Y-122301291D01*
X54820018Y-122316003D01*
X54819809Y-122316531D01*
X54815769Y-122335385D01*
X54813869Y-122361658D01*
X54814104Y-122390252D01*
X54816469Y-122416069D01*
X54819916Y-122431364D01*
X54826332Y-122449775D01*
X55443803Y-122449775D01*
X55531622Y-122449824D01*
X55616071Y-122449969D01*
X55696253Y-122450202D01*
X55771274Y-122450516D01*
X55840239Y-122450904D01*
X55902252Y-122451359D01*
X55956418Y-122451875D01*
X56001843Y-122452444D01*
X56037629Y-122453059D01*
X56062884Y-122453714D01*
X56076710Y-122454401D01*
X56078897Y-122454698D01*
X56097975Y-122464149D01*
X56119575Y-122480835D01*
X56139723Y-122501082D01*
X56154442Y-122521213D01*
X56157495Y-122527358D01*
X56159771Y-122539251D01*
X56161727Y-122562213D01*
X56163365Y-122594615D01*
X56164685Y-122634831D01*
X56165686Y-122681234D01*
X56166369Y-122732195D01*
X56166733Y-122786087D01*
X56166780Y-122841283D01*
X56166508Y-122896155D01*
X56165919Y-122949077D01*
X56165012Y-122998419D01*
X56163787Y-123042556D01*
X56162244Y-123079859D01*
X56160384Y-123108701D01*
X56158207Y-123127454D01*
X56157455Y-123131016D01*
X56148860Y-123164150D01*
X56368846Y-123164150D01*
X56433418Y-123164239D01*
X56486783Y-123164627D01*
X56530430Y-123165493D01*
X56565851Y-123167017D01*
X56594537Y-123169378D01*
X56617979Y-123172756D01*
X56637667Y-123177330D01*
X56655094Y-123183280D01*
X56671750Y-123190786D01*
X56689127Y-123200027D01*
X56695213Y-123203454D01*
X56716344Y-123215445D01*
X56734598Y-123225801D01*
X56744943Y-123231668D01*
X56763140Y-123244965D01*
X56783433Y-123264079D01*
X56801381Y-123284484D01*
X56811454Y-123299425D01*
X56822295Y-123316550D01*
X56832675Y-123329125D01*
X56840643Y-123340853D01*
X56850475Y-123360585D01*
X56860154Y-123384235D01*
X56860912Y-123386316D01*
X56868333Y-123408675D01*
X56873125Y-123428962D01*
X56875823Y-123451123D01*
X56876962Y-123479104D01*
X56877116Y-123505840D01*
X56874375Y-123562504D01*
X56865768Y-123610752D01*
X56850383Y-123653863D01*
X56827309Y-123695114D01*
X56822466Y-123702308D01*
X56806965Y-123722501D01*
X56788125Y-123743690D01*
X56768331Y-123763579D01*
X56749969Y-123779868D01*
X56735425Y-123790259D01*
X56728535Y-123792800D01*
X56718705Y-123796804D01*
X56707112Y-123805640D01*
X56693885Y-123814505D01*
X56673333Y-123824658D01*
X56653527Y-123832556D01*
X56613725Y-123846632D01*
X54626175Y-123847781D01*
X54430478Y-123847885D01*
X54247121Y-123847963D01*
X54075743Y-123848012D01*
X53915984Y-123848033D01*
X53767483Y-123848024D01*
X53629881Y-123847983D01*
X53502816Y-123847909D01*
X53385928Y-123847802D01*
X53278857Y-123847660D01*
X53181242Y-123847481D01*
X53092724Y-123847265D01*
X53012941Y-123847011D01*
X52941533Y-123846716D01*
X52878140Y-123846380D01*
X52822402Y-123846002D01*
X52773957Y-123845580D01*
X52732447Y-123845113D01*
X52697509Y-123844601D01*
X52668784Y-123844041D01*
X52645912Y-123843432D01*
X52628532Y-123842774D01*
X52616284Y-123842065D01*
X52608807Y-123841304D01*
X52606875Y-123840937D01*
X52545661Y-123819309D01*
X52488480Y-123786946D01*
X52440187Y-123747245D01*
X52423929Y-123730131D01*
X52412061Y-123715590D01*
X52406907Y-123706502D01*
X52406850Y-123705952D01*
X52403029Y-123698249D01*
X52400500Y-123697550D01*
X52394753Y-123692457D01*
X52394150Y-123688704D01*
X52389041Y-123678832D01*
X52384928Y-123676320D01*
X52379016Y-123668999D01*
X52371063Y-123652443D01*
X52362426Y-123629653D01*
X52358852Y-123618723D01*
X52351405Y-123593412D01*
X52346697Y-123572262D01*
X52344266Y-123551131D01*
X52343649Y-123525878D01*
X52344385Y-123492363D01*
X52344468Y-123489820D01*
X52345919Y-123455814D01*
X52348095Y-123430854D01*
X52351659Y-123411288D01*
X52357279Y-123393462D01*
X52365620Y-123373723D01*
X52365630Y-123373700D01*
X52377247Y-123350328D01*
X52389342Y-123329582D01*
X52398761Y-123316614D01*
X52408654Y-123303956D01*
X52413171Y-123294573D01*
X52413200Y-123294124D01*
X52417730Y-123286138D01*
X52429401Y-123273083D01*
X52445328Y-123257692D01*
X52462631Y-123242697D01*
X52478425Y-123230828D01*
X52483050Y-123227926D01*
X52532954Y-123200825D01*
X52575262Y-123181820D01*
X52608775Y-123171352D01*
X52626133Y-123169147D01*
X52655427Y-123167316D01*
X52695895Y-123165881D01*
X52746779Y-123164862D01*
X52807317Y-123164283D01*
X52858691Y-123164150D01*
X52916817Y-123164117D01*
X52963463Y-123163976D01*
X52999851Y-123163663D01*
X53027201Y-123163114D01*
X53046735Y-123162265D01*
X53059672Y-123161052D01*
X53067234Y-123159410D01*
X53070641Y-123157277D01*
X53071115Y-123154587D01*
X53070642Y-123153037D01*
X53068711Y-123147276D01*
X53066941Y-123140001D01*
X53065324Y-123130682D01*
X53063855Y-123118791D01*
X53062528Y-123103798D01*
X53061338Y-123085175D01*
X53060278Y-123062391D01*
X53059342Y-123034919D01*
X53058525Y-123002229D01*
X53057820Y-122963791D01*
X53057223Y-122919077D01*
X53056726Y-122867558D01*
X53056324Y-122808704D01*
X53056011Y-122741987D01*
X53055782Y-122666877D01*
X53055630Y-122582844D01*
X53055549Y-122489361D01*
X53055534Y-122385898D01*
X53055579Y-122271925D01*
X53055678Y-122146914D01*
X53055825Y-122010335D01*
X53056013Y-121861660D01*
X53056043Y-121839818D01*
X53057725Y-120601925D01*
X53074815Y-120559295D01*
X53088028Y-120530953D01*
X53104716Y-120501288D01*
X53117677Y-120481778D01*
X53130647Y-120463486D01*
X53139904Y-120449028D01*
X53143449Y-120441525D01*
X53143450Y-120441516D01*
X53147726Y-120434191D01*
X53158138Y-120422337D01*
X53171063Y-120409549D01*
X53182875Y-120399425D01*
X53189775Y-120395550D01*
X53196966Y-120392139D01*
X53210989Y-120383313D01*
X53224397Y-120374085D01*
X53282453Y-120339716D01*
X53343055Y-120317635D01*
X53407164Y-120307526D01*
X53430359Y-120306760D01*
X53451451Y-120306038D01*
X53463232Y-120303298D01*
X53469057Y-120297425D01*
X53470646Y-120293409D01*
X53475124Y-120283109D01*
X53484450Y-120264159D01*
X53497363Y-120239044D01*
X53512605Y-120210248D01*
X53516547Y-120202922D01*
X53536496Y-120165609D01*
X53558626Y-120123648D01*
X53580027Y-120082584D01*
X53595409Y-120052650D01*
X53613298Y-120017790D01*
X53634542Y-119976846D01*
X53656482Y-119934917D01*
X53676459Y-119897106D01*
X53676476Y-119897075D01*
X53694843Y-119862318D01*
X53713635Y-119826377D01*
X53730807Y-119793185D01*
X53744316Y-119766676D01*
X53745858Y-119763602D01*
X53755806Y-119743512D01*
X53764691Y-119726359D01*
X53773554Y-119711911D01*
X53783433Y-119699937D01*
X53795367Y-119690206D01*
X53810396Y-119682487D01*
X53829560Y-119676549D01*
X53853897Y-119672160D01*
X53884447Y-119669090D01*
X53922248Y-119667107D01*
X53968341Y-119665981D01*
X54023765Y-119665479D01*
X54089558Y-119665372D01*
X54166761Y-119665427D01*
G36*
X55677100Y-124040922D02*
X55700960Y-124058828D01*
X55718271Y-124083168D01*
X55721022Y-124088547D01*
X55732521Y-124118144D01*
X55736483Y-124146913D01*
X55732680Y-124177696D01*
X55720882Y-124213337D01*
X55708809Y-124240475D01*
X55696844Y-124264987D01*
X55686580Y-124284923D01*
X55679400Y-124297653D01*
X55677068Y-124300800D01*
X55672773Y-124307373D01*
X55664097Y-124323217D01*
X55652182Y-124346166D01*
X55638169Y-124374055D01*
X55633585Y-124383350D01*
X55618828Y-124412953D01*
X55605490Y-124438890D01*
X55594821Y-124458787D01*
X55588072Y-124470268D01*
X55587073Y-124471631D01*
X55581568Y-124480341D01*
X55571673Y-124498081D01*
X55558653Y-124522509D01*
X55543772Y-124551284D01*
X55539074Y-124560531D01*
X55519666Y-124598658D01*
X55497177Y-124642461D01*
X55474468Y-124686387D01*
X55455347Y-124723075D01*
X55392566Y-124843304D01*
X55329665Y-124964589D01*
X55288855Y-125043750D01*
X55270036Y-125079910D01*
X55249361Y-125118919D01*
X55229396Y-125155974D01*
X55213385Y-125185060D01*
X55205288Y-125200269D01*
X55198547Y-125213618D01*
X55192329Y-125225226D01*
X55185801Y-125235214D01*
X55178131Y-125243701D01*
X55168484Y-125250806D01*
X55156028Y-125256649D01*
X55139930Y-125261349D01*
X55119356Y-125265026D01*
X55093473Y-125267801D01*
X55061448Y-125269791D01*
X55022449Y-125271117D01*
X54975641Y-125271898D01*
X54920192Y-125272255D01*
X54855268Y-125272306D01*
X54780037Y-125272171D01*
X54693665Y-125271970D01*
X54608781Y-125271834D01*
X54507732Y-125271679D01*
X54418835Y-125271424D01*
X54341544Y-125271060D01*
X54275313Y-125270579D01*
X54219593Y-125269973D01*
X54173839Y-125269235D01*
X54137503Y-125268355D01*
X54110038Y-125267325D01*
X54090898Y-125266138D01*
X54079536Y-125264786D01*
X54076236Y-125263896D01*
X54059798Y-125255060D01*
X54049101Y-125247637D01*
X54040238Y-125236757D01*
X54026049Y-125214501D01*
X54006602Y-125180989D01*
X53981966Y-125136344D01*
X53952209Y-125080686D01*
X53917938Y-125015175D01*
X53897314Y-124975428D01*
X53875278Y-124932986D01*
X53853891Y-124891816D01*
X53835213Y-124855885D01*
X53827235Y-124840550D01*
X53808127Y-124803820D01*
X53786616Y-124762449D01*
X53765750Y-124722301D01*
X53752957Y-124697675D01*
X53736145Y-124665312D01*
X53715819Y-124626205D01*
X53694329Y-124584873D01*
X53674026Y-124545836D01*
X53670430Y-124538925D01*
X53650483Y-124500451D01*
X53628798Y-124458400D01*
X53607775Y-124417440D01*
X53589816Y-124382242D01*
X53587156Y-124377000D01*
X53572673Y-124348815D01*
X53559776Y-124324424D01*
X53549776Y-124306255D01*
X53543983Y-124296739D01*
X53543642Y-124296305D01*
X53537784Y-124285914D01*
X53537150Y-124282547D01*
X53533104Y-124274729D01*
X53532387Y-124274341D01*
X53527523Y-124267969D01*
X53519045Y-124253079D01*
X53508654Y-124232688D01*
X53506987Y-124229242D01*
X53490631Y-124185319D01*
X53485913Y-124145177D01*
X53492788Y-124107614D01*
X53501837Y-124086975D01*
X53512176Y-124069596D01*
X53523493Y-124056838D01*
X53539402Y-124045476D01*
X53562550Y-124032785D01*
X53566789Y-124031684D01*
X53575401Y-124030681D01*
X53588897Y-124029771D01*
X53607791Y-124028950D01*
X53632594Y-124028214D01*
X53663819Y-124027560D01*
X53701979Y-124026982D01*
X53747586Y-124026478D01*
X53801152Y-124026044D01*
X53863191Y-124025674D01*
X53934215Y-124025365D01*
X54014735Y-124025114D01*
X54105266Y-124024916D01*
X54206318Y-124024767D01*
X54318406Y-124024663D01*
X54442040Y-124024601D01*
X54577734Y-124024576D01*
X54613475Y-124024575D01*
X55648525Y-124024575D01*
X55677100Y-124040922D01*
X55677100Y-124040922D01*
G37*
X55677100Y-124040922D02*
X55700960Y-124058828D01*
X55718271Y-124083168D01*
X55721022Y-124088547D01*
X55732521Y-124118144D01*
X55736483Y-124146913D01*
X55732680Y-124177696D01*
X55720882Y-124213337D01*
X55708809Y-124240475D01*
X55696844Y-124264987D01*
X55686580Y-124284923D01*
X55679400Y-124297653D01*
X55677068Y-124300800D01*
X55672773Y-124307373D01*
X55664097Y-124323217D01*
X55652182Y-124346166D01*
X55638169Y-124374055D01*
X55633585Y-124383350D01*
X55618828Y-124412953D01*
X55605490Y-124438890D01*
X55594821Y-124458787D01*
X55588072Y-124470268D01*
X55587073Y-124471631D01*
X55581568Y-124480341D01*
X55571673Y-124498081D01*
X55558653Y-124522509D01*
X55543772Y-124551284D01*
X55539074Y-124560531D01*
X55519666Y-124598658D01*
X55497177Y-124642461D01*
X55474468Y-124686387D01*
X55455347Y-124723075D01*
X55392566Y-124843304D01*
X55329665Y-124964589D01*
X55288855Y-125043750D01*
X55270036Y-125079910D01*
X55249361Y-125118919D01*
X55229396Y-125155974D01*
X55213385Y-125185060D01*
X55205288Y-125200269D01*
X55198547Y-125213618D01*
X55192329Y-125225226D01*
X55185801Y-125235214D01*
X55178131Y-125243701D01*
X55168484Y-125250806D01*
X55156028Y-125256649D01*
X55139930Y-125261349D01*
X55119356Y-125265026D01*
X55093473Y-125267801D01*
X55061448Y-125269791D01*
X55022449Y-125271117D01*
X54975641Y-125271898D01*
X54920192Y-125272255D01*
X54855268Y-125272306D01*
X54780037Y-125272171D01*
X54693665Y-125271970D01*
X54608781Y-125271834D01*
X54507732Y-125271679D01*
X54418835Y-125271424D01*
X54341544Y-125271060D01*
X54275313Y-125270579D01*
X54219593Y-125269973D01*
X54173839Y-125269235D01*
X54137503Y-125268355D01*
X54110038Y-125267325D01*
X54090898Y-125266138D01*
X54079536Y-125264786D01*
X54076236Y-125263896D01*
X54059798Y-125255060D01*
X54049101Y-125247637D01*
X54040238Y-125236757D01*
X54026049Y-125214501D01*
X54006602Y-125180989D01*
X53981966Y-125136344D01*
X53952209Y-125080686D01*
X53917938Y-125015175D01*
X53897314Y-124975428D01*
X53875278Y-124932986D01*
X53853891Y-124891816D01*
X53835213Y-124855885D01*
X53827235Y-124840550D01*
X53808127Y-124803820D01*
X53786616Y-124762449D01*
X53765750Y-124722301D01*
X53752957Y-124697675D01*
X53736145Y-124665312D01*
X53715819Y-124626205D01*
X53694329Y-124584873D01*
X53674026Y-124545836D01*
X53670430Y-124538925D01*
X53650483Y-124500451D01*
X53628798Y-124458400D01*
X53607775Y-124417440D01*
X53589816Y-124382242D01*
X53587156Y-124377000D01*
X53572673Y-124348815D01*
X53559776Y-124324424D01*
X53549776Y-124306255D01*
X53543983Y-124296739D01*
X53543642Y-124296305D01*
X53537784Y-124285914D01*
X53537150Y-124282547D01*
X53533104Y-124274729D01*
X53532387Y-124274341D01*
X53527523Y-124267969D01*
X53519045Y-124253079D01*
X53508654Y-124232688D01*
X53506987Y-124229242D01*
X53490631Y-124185319D01*
X53485913Y-124145177D01*
X53492788Y-124107614D01*
X53501837Y-124086975D01*
X53512176Y-124069596D01*
X53523493Y-124056838D01*
X53539402Y-124045476D01*
X53562550Y-124032785D01*
X53566789Y-124031684D01*
X53575401Y-124030681D01*
X53588897Y-124029771D01*
X53607791Y-124028950D01*
X53632594Y-124028214D01*
X53663819Y-124027560D01*
X53701979Y-124026982D01*
X53747586Y-124026478D01*
X53801152Y-124026044D01*
X53863191Y-124025674D01*
X53934215Y-124025365D01*
X54014735Y-124025114D01*
X54105266Y-124024916D01*
X54206318Y-124024767D01*
X54318406Y-124024663D01*
X54442040Y-124024601D01*
X54577734Y-124024576D01*
X54613475Y-124024575D01*
X55648525Y-124024575D01*
X55677100Y-124040922D01*
G36*
X59579188Y-124366206D02*
X59581575Y-124369703D01*
X59581228Y-124373273D01*
X59576369Y-124380137D01*
X59563803Y-124394667D01*
X59544772Y-124415519D01*
X59520519Y-124441347D01*
X59492284Y-124470808D01*
X59469782Y-124493928D01*
X59360389Y-124605611D01*
X59069732Y-124781020D01*
X59014095Y-124814601D01*
X58961423Y-124846402D01*
X58912778Y-124875780D01*
X58869221Y-124902095D01*
X58831815Y-124924704D01*
X58801621Y-124942967D01*
X58779701Y-124956240D01*
X58767117Y-124963882D01*
X58764787Y-124965311D01*
X58754052Y-124974703D01*
X58750500Y-124982148D01*
X58753668Y-124990969D01*
X58762086Y-125007354D01*
X58774121Y-125028192D01*
X58777910Y-125034389D01*
X58794379Y-125061518D01*
X58804706Y-125080188D01*
X58809801Y-125092502D01*
X58810575Y-125100562D01*
X58808649Y-125105431D01*
X58802144Y-125110598D01*
X58786456Y-125121162D01*
X58763313Y-125136014D01*
X58734443Y-125154050D01*
X58701572Y-125174164D01*
X58696525Y-125177218D01*
X58654855Y-125202410D01*
X58606551Y-125231632D01*
X58555837Y-125262327D01*
X58506935Y-125291938D01*
X58471100Y-125313650D01*
X58439665Y-125332689D01*
X58397942Y-125357938D01*
X58346515Y-125389046D01*
X58285966Y-125425658D01*
X58216880Y-125467423D01*
X58139841Y-125513988D01*
X58055433Y-125565000D01*
X57964239Y-125620106D01*
X57866844Y-125678954D01*
X57763830Y-125741190D01*
X57655783Y-125806462D01*
X57543285Y-125874418D01*
X57426921Y-125944703D01*
X57307275Y-126016967D01*
X57184930Y-126090855D01*
X57060470Y-126166016D01*
X56934480Y-126242096D01*
X56886775Y-126270901D01*
X56807931Y-126318517D01*
X56731822Y-126364498D01*
X56659193Y-126408394D01*
X56590787Y-126449754D01*
X56527351Y-126488127D01*
X56469629Y-126523061D01*
X56418367Y-126554106D01*
X56374310Y-126580810D01*
X56338202Y-126602723D01*
X56310790Y-126619393D01*
X56292817Y-126630369D01*
X56285248Y-126635058D01*
X56269654Y-126644999D01*
X56260953Y-126649119D01*
X56255183Y-126648189D01*
X56248381Y-126642976D01*
X56247630Y-126642362D01*
X56242133Y-126635199D01*
X56230945Y-126618455D01*
X56214894Y-126593447D01*
X56194811Y-126561492D01*
X56171525Y-126523909D01*
X56145864Y-126482013D01*
X56124941Y-126447530D01*
X56091504Y-126391818D01*
X56064666Y-126346228D01*
X56044128Y-126310219D01*
X56029594Y-126283248D01*
X56020766Y-126264773D01*
X56017348Y-126254250D01*
X56017620Y-126251725D01*
X56018388Y-126250601D01*
X56019570Y-126249276D01*
X56021572Y-126247503D01*
X56024805Y-126245032D01*
X56029675Y-126241616D01*
X56036593Y-126237004D01*
X56045966Y-126230949D01*
X56058204Y-126223201D01*
X56073714Y-126213512D01*
X56092905Y-126201634D01*
X56116187Y-126187316D01*
X56143967Y-126170311D01*
X56176654Y-126150370D01*
X56214657Y-126127244D01*
X56258384Y-126100684D01*
X56308244Y-126070442D01*
X56364646Y-126036269D01*
X56427997Y-125997915D01*
X56498708Y-125955133D01*
X56577186Y-125907674D01*
X56663839Y-125855288D01*
X56759077Y-125797727D01*
X56863308Y-125734743D01*
X56976941Y-125666086D01*
X57100384Y-125591507D01*
X57234046Y-125510759D01*
X57318575Y-125459694D01*
X57448926Y-125380946D01*
X57568930Y-125308448D01*
X57679107Y-125241883D01*
X57779981Y-125180937D01*
X57872075Y-125125292D01*
X57955910Y-125074633D01*
X58032011Y-125028644D01*
X58100898Y-124987009D01*
X58163096Y-124949412D01*
X58219126Y-124915537D01*
X58269511Y-124885068D01*
X58314774Y-124857690D01*
X58355438Y-124833085D01*
X58392024Y-124810939D01*
X58425057Y-124790935D01*
X58455057Y-124772758D01*
X58482549Y-124756091D01*
X58508054Y-124740619D01*
X58513658Y-124737218D01*
X58537032Y-124723902D01*
X58557002Y-124714119D01*
X58570731Y-124709181D01*
X58574641Y-124709022D01*
X58581616Y-124715742D01*
X58592846Y-124730880D01*
X58606416Y-124751756D01*
X58613310Y-124763216D01*
X58627260Y-124785878D01*
X58639713Y-124804085D01*
X58648788Y-124815172D01*
X58651435Y-124817200D01*
X58655350Y-124816513D01*
X58663844Y-124812846D01*
X58677468Y-124805876D01*
X58696775Y-124795279D01*
X58722315Y-124780729D01*
X58754639Y-124761903D01*
X58794298Y-124738477D01*
X58841844Y-124710127D01*
X58897828Y-124676527D01*
X58962801Y-124637355D01*
X59037315Y-124592285D01*
X59121920Y-124540993D01*
X59151329Y-124523143D01*
X59183004Y-124503949D01*
X59209397Y-124488282D01*
X59232427Y-124475348D01*
X59254011Y-124464355D01*
X59276070Y-124454509D01*
X59300521Y-124445018D01*
X59329284Y-124435089D01*
X59364278Y-124423930D01*
X59407421Y-124410746D01*
X59460633Y-124394746D01*
X59465847Y-124393181D01*
X59506882Y-124381022D01*
X59537280Y-124372496D01*
X59558495Y-124367352D01*
X59571979Y-124365339D01*
X59579188Y-124366206D01*
X59579188Y-124366206D01*
G37*
X59579188Y-124366206D02*
X59581575Y-124369703D01*
X59581228Y-124373273D01*
X59576369Y-124380137D01*
X59563803Y-124394667D01*
X59544772Y-124415519D01*
X59520519Y-124441347D01*
X59492284Y-124470808D01*
X59469782Y-124493928D01*
X59360389Y-124605611D01*
X59069732Y-124781020D01*
X59014095Y-124814601D01*
X58961423Y-124846402D01*
X58912778Y-124875780D01*
X58869221Y-124902095D01*
X58831815Y-124924704D01*
X58801621Y-124942967D01*
X58779701Y-124956240D01*
X58767117Y-124963882D01*
X58764787Y-124965311D01*
X58754052Y-124974703D01*
X58750500Y-124982148D01*
X58753668Y-124990969D01*
X58762086Y-125007354D01*
X58774121Y-125028192D01*
X58777910Y-125034389D01*
X58794379Y-125061518D01*
X58804706Y-125080188D01*
X58809801Y-125092502D01*
X58810575Y-125100562D01*
X58808649Y-125105431D01*
X58802144Y-125110598D01*
X58786456Y-125121162D01*
X58763313Y-125136014D01*
X58734443Y-125154050D01*
X58701572Y-125174164D01*
X58696525Y-125177218D01*
X58654855Y-125202410D01*
X58606551Y-125231632D01*
X58555837Y-125262327D01*
X58506935Y-125291938D01*
X58471100Y-125313650D01*
X58439665Y-125332689D01*
X58397942Y-125357938D01*
X58346515Y-125389046D01*
X58285966Y-125425658D01*
X58216880Y-125467423D01*
X58139841Y-125513988D01*
X58055433Y-125565000D01*
X57964239Y-125620106D01*
X57866844Y-125678954D01*
X57763830Y-125741190D01*
X57655783Y-125806462D01*
X57543285Y-125874418D01*
X57426921Y-125944703D01*
X57307275Y-126016967D01*
X57184930Y-126090855D01*
X57060470Y-126166016D01*
X56934480Y-126242096D01*
X56886775Y-126270901D01*
X56807931Y-126318517D01*
X56731822Y-126364498D01*
X56659193Y-126408394D01*
X56590787Y-126449754D01*
X56527351Y-126488127D01*
X56469629Y-126523061D01*
X56418367Y-126554106D01*
X56374310Y-126580810D01*
X56338202Y-126602723D01*
X56310790Y-126619393D01*
X56292817Y-126630369D01*
X56285248Y-126635058D01*
X56269654Y-126644999D01*
X56260953Y-126649119D01*
X56255183Y-126648189D01*
X56248381Y-126642976D01*
X56247630Y-126642362D01*
X56242133Y-126635199D01*
X56230945Y-126618455D01*
X56214894Y-126593447D01*
X56194811Y-126561492D01*
X56171525Y-126523909D01*
X56145864Y-126482013D01*
X56124941Y-126447530D01*
X56091504Y-126391818D01*
X56064666Y-126346228D01*
X56044128Y-126310219D01*
X56029594Y-126283248D01*
X56020766Y-126264773D01*
X56017348Y-126254250D01*
X56017620Y-126251725D01*
X56018388Y-126250601D01*
X56019570Y-126249276D01*
X56021572Y-126247503D01*
X56024805Y-126245032D01*
X56029675Y-126241616D01*
X56036593Y-126237004D01*
X56045966Y-126230949D01*
X56058204Y-126223201D01*
X56073714Y-126213512D01*
X56092905Y-126201634D01*
X56116187Y-126187316D01*
X56143967Y-126170311D01*
X56176654Y-126150370D01*
X56214657Y-126127244D01*
X56258384Y-126100684D01*
X56308244Y-126070442D01*
X56364646Y-126036269D01*
X56427997Y-125997915D01*
X56498708Y-125955133D01*
X56577186Y-125907674D01*
X56663839Y-125855288D01*
X56759077Y-125797727D01*
X56863308Y-125734743D01*
X56976941Y-125666086D01*
X57100384Y-125591507D01*
X57234046Y-125510759D01*
X57318575Y-125459694D01*
X57448926Y-125380946D01*
X57568930Y-125308448D01*
X57679107Y-125241883D01*
X57779981Y-125180937D01*
X57872075Y-125125292D01*
X57955910Y-125074633D01*
X58032011Y-125028644D01*
X58100898Y-124987009D01*
X58163096Y-124949412D01*
X58219126Y-124915537D01*
X58269511Y-124885068D01*
X58314774Y-124857690D01*
X58355438Y-124833085D01*
X58392024Y-124810939D01*
X58425057Y-124790935D01*
X58455057Y-124772758D01*
X58482549Y-124756091D01*
X58508054Y-124740619D01*
X58513658Y-124737218D01*
X58537032Y-124723902D01*
X58557002Y-124714119D01*
X58570731Y-124709181D01*
X58574641Y-124709022D01*
X58581616Y-124715742D01*
X58592846Y-124730880D01*
X58606416Y-124751756D01*
X58613310Y-124763216D01*
X58627260Y-124785878D01*
X58639713Y-124804085D01*
X58648788Y-124815172D01*
X58651435Y-124817200D01*
X58655350Y-124816513D01*
X58663844Y-124812846D01*
X58677468Y-124805876D01*
X58696775Y-124795279D01*
X58722315Y-124780729D01*
X58754639Y-124761903D01*
X58794298Y-124738477D01*
X58841844Y-124710127D01*
X58897828Y-124676527D01*
X58962801Y-124637355D01*
X59037315Y-124592285D01*
X59121920Y-124540993D01*
X59151329Y-124523143D01*
X59183004Y-124503949D01*
X59209397Y-124488282D01*
X59232427Y-124475348D01*
X59254011Y-124464355D01*
X59276070Y-124454509D01*
X59300521Y-124445018D01*
X59329284Y-124435089D01*
X59364278Y-124423930D01*
X59407421Y-124410746D01*
X59460633Y-124394746D01*
X59465847Y-124393181D01*
X59506882Y-124381022D01*
X59537280Y-124372496D01*
X59558495Y-124367352D01*
X59571979Y-124365339D01*
X59579188Y-124366206D01*
G36*
X49781824Y-124259466D02*
X49799246Y-124268386D01*
X49825306Y-124282466D01*
X49858853Y-124301064D01*
X49898733Y-124323535D01*
X49943795Y-124349237D01*
X49992888Y-124377527D01*
X50034042Y-124401445D01*
X50087714Y-124432746D01*
X50150299Y-124469230D01*
X50219732Y-124509694D01*
X50293947Y-124552935D01*
X50370880Y-124597750D01*
X50448466Y-124642937D01*
X50524639Y-124687291D01*
X50597335Y-124729612D01*
X50628850Y-124747954D01*
X50706688Y-124793376D01*
X50774014Y-124832936D01*
X50831393Y-124866979D01*
X50879391Y-124895855D01*
X50918573Y-124919910D01*
X50949505Y-124939492D01*
X50972751Y-124954949D01*
X50988878Y-124966628D01*
X50998451Y-124974878D01*
X50999132Y-124975595D01*
X51028808Y-125014404D01*
X51055190Y-125061830D01*
X51076112Y-125113840D01*
X51080006Y-125126300D01*
X51087289Y-125149616D01*
X51093845Y-125168188D01*
X51098454Y-125178612D01*
X51099036Y-125179420D01*
X51104080Y-125176766D01*
X51113398Y-125165043D01*
X51125365Y-125146433D01*
X51131550Y-125135739D01*
X51145811Y-125111179D01*
X51159585Y-125089014D01*
X51170484Y-125073043D01*
X51172926Y-125069919D01*
X51182925Y-125059065D01*
X51190796Y-125057083D01*
X51202379Y-125062954D01*
X51204676Y-125064374D01*
X51224257Y-125076285D01*
X51252212Y-125092958D01*
X51287359Y-125113712D01*
X51328517Y-125137865D01*
X51374507Y-125164735D01*
X51424146Y-125193638D01*
X51476254Y-125223895D01*
X51529650Y-125254822D01*
X51583154Y-125285737D01*
X51635584Y-125315959D01*
X51685760Y-125344805D01*
X51732500Y-125371593D01*
X51774623Y-125395642D01*
X51810950Y-125416269D01*
X51840299Y-125432792D01*
X51861488Y-125444530D01*
X51873338Y-125450800D01*
X51875138Y-125451604D01*
X51887146Y-125457093D01*
X51908290Y-125468166D01*
X51936890Y-125483844D01*
X51971269Y-125503147D01*
X52009747Y-125525096D01*
X52050646Y-125548710D01*
X52092288Y-125573010D01*
X52132995Y-125597016D01*
X52171088Y-125619750D01*
X52204888Y-125640230D01*
X52232717Y-125657478D01*
X52252896Y-125670513D01*
X52263748Y-125678356D01*
X52263975Y-125678557D01*
X52280857Y-125691773D01*
X52302717Y-125706354D01*
X52314775Y-125713492D01*
X52323346Y-125718309D01*
X52333528Y-125724095D01*
X52346180Y-125731348D01*
X52362157Y-125740566D01*
X52382319Y-125752249D01*
X52407523Y-125766896D01*
X52438626Y-125785005D01*
X52476485Y-125807076D01*
X52521959Y-125833606D01*
X52575905Y-125865096D01*
X52639181Y-125902043D01*
X52705300Y-125940657D01*
X52767332Y-125976881D01*
X52836748Y-126017405D01*
X52911788Y-126061202D01*
X52990692Y-126107247D01*
X53071700Y-126154511D01*
X53153050Y-126201968D01*
X53232984Y-126248592D01*
X53309741Y-126293355D01*
X53381560Y-126335231D01*
X53446681Y-126373193D01*
X53503345Y-126406213D01*
X53524450Y-126418508D01*
X53557929Y-126438020D01*
X53600718Y-126462974D01*
X53651160Y-126492404D01*
X53707601Y-126525344D01*
X53768386Y-126560827D01*
X53831857Y-126597887D01*
X53896362Y-126635558D01*
X53960243Y-126672873D01*
X53981408Y-126685239D01*
X54054062Y-126727513D01*
X54118491Y-126764640D01*
X54174310Y-126796406D01*
X54221134Y-126822598D01*
X54258578Y-126843001D01*
X54286257Y-126857404D01*
X54303785Y-126865592D01*
X54310296Y-126867521D01*
X54320643Y-126863502D01*
X54338891Y-126853306D01*
X54362747Y-126838330D01*
X54389918Y-126819970D01*
X54399437Y-126813252D01*
X54428238Y-126792775D01*
X54458363Y-126771519D01*
X54491141Y-126748560D01*
X54527904Y-126722976D01*
X54569980Y-126693842D01*
X54618701Y-126660235D01*
X54675396Y-126621232D01*
X54734125Y-126580899D01*
X54772118Y-126554763D01*
X54812500Y-126526885D01*
X54851795Y-126499668D01*
X54886527Y-126475521D01*
X54906353Y-126461670D01*
X54938043Y-126439524D01*
X54976003Y-126413090D01*
X55016045Y-126385281D01*
X55053977Y-126359009D01*
X55064026Y-126352066D01*
X55093512Y-126331311D01*
X55119437Y-126312320D01*
X55139911Y-126296537D01*
X55153041Y-126285407D01*
X55156826Y-126281203D01*
X55158434Y-126265305D01*
X55153140Y-126247853D01*
X55144571Y-126211675D01*
X55147064Y-126173528D01*
X55155883Y-126146608D01*
X55160634Y-126137438D01*
X55166892Y-126128886D01*
X55176121Y-126119863D01*
X55189783Y-126109277D01*
X55209343Y-126096037D01*
X55236263Y-126079053D01*
X55272006Y-126057233D01*
X55291672Y-126045356D01*
X55332733Y-126020774D01*
X55364646Y-126002159D01*
X55389018Y-125988718D01*
X55407452Y-125979659D01*
X55421554Y-125974190D01*
X55432928Y-125971518D01*
X55442584Y-125970850D01*
X55472799Y-125975407D01*
X55503136Y-125987527D01*
X55528626Y-126004880D01*
X55538950Y-126016038D01*
X55549325Y-126028186D01*
X55557201Y-126034207D01*
X55557991Y-126034350D01*
X55565715Y-126031270D01*
X55581173Y-126023119D01*
X55601309Y-126011526D01*
X55605609Y-126008950D01*
X55631048Y-125994743D01*
X55651006Y-125986876D01*
X55669951Y-125983792D01*
X55678601Y-125983550D01*
X55715105Y-125988560D01*
X55744075Y-126003435D01*
X55754295Y-126013062D01*
X55756873Y-126016336D01*
X55760919Y-126022152D01*
X55766812Y-126031134D01*
X55774934Y-126043903D01*
X55785665Y-126061083D01*
X55799386Y-126083296D01*
X55816477Y-126111165D01*
X55837319Y-126145314D01*
X55862293Y-126186364D01*
X55891778Y-126234939D01*
X55926157Y-126291662D01*
X55965809Y-126357155D01*
X56011115Y-126432041D01*
X56062455Y-126516944D01*
X56083573Y-126551875D01*
X56110884Y-126597003D01*
X56142594Y-126649321D01*
X56176489Y-126705180D01*
X56210352Y-126760927D01*
X56241968Y-126812914D01*
X56255079Y-126834450D01*
X56282309Y-126879320D01*
X56303579Y-126914905D01*
X56319649Y-126942694D01*
X56331276Y-126964181D01*
X56339217Y-126980857D01*
X56344232Y-126994215D01*
X56347078Y-127005744D01*
X56348513Y-127016939D01*
X56348648Y-127018600D01*
X56347177Y-127049329D01*
X56336731Y-127075335D01*
X56316027Y-127098780D01*
X56289657Y-127118150D01*
X56264499Y-127134291D01*
X56248368Y-127145392D01*
X56239702Y-127153425D01*
X56236936Y-127160361D01*
X56238509Y-127168170D01*
X56242411Y-127177740D01*
X56250386Y-127208887D01*
X56250785Y-127241889D01*
X56243879Y-127271929D01*
X56236304Y-127286583D01*
X56226029Y-127296782D01*
X56206662Y-127311806D01*
X56180250Y-127330385D01*
X56148844Y-127351250D01*
X56114492Y-127373130D01*
X56079244Y-127394756D01*
X56045148Y-127414859D01*
X56014254Y-127432168D01*
X55988611Y-127445413D01*
X55970267Y-127453326D01*
X55964792Y-127454834D01*
X55931421Y-127455690D01*
X55900740Y-127445630D01*
X55870494Y-127423877D01*
X55867803Y-127421401D01*
X55850944Y-127406868D01*
X55836711Y-127396781D01*
X55828841Y-127393473D01*
X55820052Y-127396381D01*
X55802572Y-127404144D01*
X55778892Y-127415598D01*
X55751504Y-127429577D01*
X55750125Y-127430299D01*
X55690268Y-127461721D01*
X55640777Y-127487852D01*
X55600731Y-127509215D01*
X55569205Y-127526335D01*
X55545276Y-127539736D01*
X55528021Y-127549943D01*
X55516517Y-127557479D01*
X55509840Y-127562869D01*
X55507068Y-127566638D01*
X55506910Y-127568413D01*
X55512527Y-127572516D01*
X55528592Y-127582684D01*
X55554573Y-127598601D01*
X55589936Y-127619955D01*
X55634147Y-127646432D01*
X55686672Y-127677718D01*
X55746978Y-127713499D01*
X55814532Y-127753461D01*
X55888799Y-127797292D01*
X55969246Y-127844676D01*
X56055340Y-127895300D01*
X56146546Y-127948850D01*
X56242332Y-128005013D01*
X56342164Y-128063476D01*
X56445508Y-128123923D01*
X56551830Y-128186041D01*
X56660597Y-128249517D01*
X56771276Y-128314037D01*
X56883333Y-128379287D01*
X56996233Y-128444954D01*
X57109025Y-128510479D01*
X57146131Y-128532045D01*
X57190333Y-128557770D01*
X57237763Y-128585401D01*
X57284556Y-128612687D01*
X57321750Y-128634398D01*
X57398683Y-128679336D01*
X57466006Y-128718664D01*
X57525076Y-128753174D01*
X57577251Y-128783661D01*
X57623888Y-128810917D01*
X57666345Y-128835735D01*
X57705978Y-128858909D01*
X57744145Y-128881233D01*
X57778950Y-128901594D01*
X57824138Y-128928007D01*
X57875318Y-128957880D01*
X57927986Y-128988586D01*
X57977639Y-129017500D01*
X58010725Y-129036740D01*
X58048416Y-129058648D01*
X58085448Y-129080188D01*
X58119286Y-129099885D01*
X58147396Y-129116262D01*
X58167243Y-129127845D01*
X58168300Y-129128463D01*
X58222209Y-129165536D01*
X58265915Y-129208330D01*
X58300750Y-129258524D01*
X58328045Y-129317799D01*
X58335587Y-129339525D01*
X58343761Y-129367582D01*
X58348856Y-129393545D01*
X58351554Y-129422272D01*
X58352539Y-129458621D01*
X58352552Y-129460175D01*
X58350298Y-129515476D01*
X58341912Y-129561807D01*
X58326332Y-129601840D01*
X58302496Y-129638250D01*
X58269342Y-129673709D01*
X58266729Y-129676147D01*
X58217681Y-129713559D01*
X58160401Y-129743384D01*
X58097799Y-129764127D01*
X58093223Y-129765217D01*
X58051580Y-129772138D01*
X58006706Y-129774974D01*
X57961997Y-129773888D01*
X57920848Y-129769048D01*
X57886657Y-129760620D01*
X57871807Y-129754391D01*
X57867103Y-129751821D01*
X57858326Y-129746851D01*
X57844877Y-129739134D01*
X57826160Y-129728324D01*
X57801577Y-129714071D01*
X57770533Y-129696030D01*
X57732429Y-129673852D01*
X57686669Y-129647191D01*
X57632656Y-129615698D01*
X57569792Y-129579027D01*
X57497481Y-129536830D01*
X57415125Y-129488759D01*
X57366200Y-129460198D01*
X57328922Y-129438436D01*
X57283738Y-129412061D01*
X57233711Y-129382860D01*
X57181904Y-129352621D01*
X57131379Y-129323132D01*
X57099500Y-129304526D01*
X57049365Y-129275257D01*
X56991962Y-129241732D01*
X56930987Y-129206108D01*
X56870131Y-129170544D01*
X56813089Y-129137197D01*
X56778825Y-129117159D01*
X56702948Y-129072795D01*
X56618928Y-129023702D01*
X56529075Y-128971227D01*
X56435703Y-128916721D01*
X56341125Y-128861534D01*
X56247652Y-128807013D01*
X56157599Y-128754509D01*
X56073277Y-128705372D01*
X55996999Y-128660950D01*
X55978725Y-128650313D01*
X55947266Y-128631998D01*
X55905975Y-128607947D01*
X55855987Y-128578823D01*
X55798440Y-128545290D01*
X55734472Y-128508010D01*
X55665219Y-128467645D01*
X55591819Y-128424859D01*
X55515410Y-128380314D01*
X55437127Y-128334674D01*
X55358108Y-128288600D01*
X55294123Y-128251289D01*
X55197609Y-128195116D01*
X55110219Y-128144477D01*
X55032153Y-128099486D01*
X54963611Y-128060254D01*
X54904792Y-128026895D01*
X54855895Y-127999521D01*
X54817120Y-127978244D01*
X54788668Y-127963178D01*
X54770736Y-127954435D01*
X54763898Y-127952058D01*
X54752769Y-127955000D01*
X54732807Y-127963137D01*
X54706252Y-127975444D01*
X54675344Y-127990896D01*
X54651575Y-128003436D01*
X54612312Y-128024423D01*
X54569574Y-128046956D01*
X54527716Y-128068758D01*
X54491093Y-128087552D01*
X54480125Y-128093095D01*
X54442254Y-128112432D01*
X54399237Y-128134883D01*
X54356996Y-128157332D01*
X54328625Y-128172715D01*
X54285599Y-128195424D01*
X54251198Y-128211082D01*
X54223646Y-128219921D01*
X54201161Y-128222169D01*
X54181966Y-128218059D01*
X54164280Y-128207818D01*
X54150437Y-128195770D01*
X54135680Y-128183116D01*
X54123356Y-128175403D01*
X54119400Y-128174300D01*
X54110399Y-128177325D01*
X54093265Y-128185482D01*
X54070770Y-128197392D01*
X54053998Y-128206832D01*
X54030001Y-128220367D01*
X53997720Y-128238160D01*
X53960132Y-128258594D01*
X53920210Y-128280050D01*
X53883225Y-128299700D01*
X53843134Y-128321014D01*
X53801932Y-128343183D01*
X53762790Y-128364483D01*
X53728879Y-128383189D01*
X53705425Y-128396397D01*
X53678638Y-128411483D01*
X53643869Y-128430692D01*
X53604379Y-128452242D01*
X53563429Y-128474351D01*
X53530800Y-128491782D01*
X53490783Y-128513172D01*
X53449224Y-128535623D01*
X53409476Y-128557306D01*
X53374898Y-128576391D01*
X53353000Y-128588681D01*
X53325403Y-128604122D01*
X53289814Y-128623685D01*
X53249489Y-128645598D01*
X53207688Y-128668091D01*
X53172025Y-128687085D01*
X53131950Y-128708451D01*
X53090765Y-128730662D01*
X53051635Y-128751993D01*
X53017728Y-128770717D01*
X52994225Y-128783955D01*
X52967433Y-128799032D01*
X52932658Y-128818228D01*
X52893161Y-128839760D01*
X52852205Y-128861848D01*
X52819600Y-128879245D01*
X52776067Y-128902521D01*
X52727678Y-128928692D01*
X52678875Y-128955340D01*
X52634099Y-128980042D01*
X52610050Y-128993463D01*
X52569915Y-129015798D01*
X52525801Y-129040015D01*
X52482089Y-129063729D01*
X52443159Y-129084555D01*
X52429075Y-129091979D01*
X52392326Y-129111491D01*
X52349335Y-129134726D01*
X52304875Y-129159083D01*
X52263717Y-129181959D01*
X52254450Y-129187172D01*
X52215701Y-129208830D01*
X52173251Y-129232221D01*
X52131574Y-129254902D01*
X52095143Y-129274425D01*
X52086175Y-129279160D01*
X52055000Y-129295732D01*
X52016327Y-129316582D01*
X51973729Y-129339766D01*
X51930780Y-129363343D01*
X51898850Y-129381023D01*
X51854965Y-129405267D01*
X51805563Y-129432282D01*
X51755211Y-129459586D01*
X51708476Y-129484699D01*
X51682950Y-129498277D01*
X51643961Y-129519067D01*
X51603463Y-129540940D01*
X51564942Y-129561996D01*
X51531882Y-129580335D01*
X51514675Y-129590068D01*
X51480199Y-129609529D01*
X51441047Y-129631199D01*
X51403506Y-129651614D01*
X51387675Y-129660071D01*
X51356705Y-129676563D01*
X51319296Y-129696610D01*
X51280159Y-129717681D01*
X51244003Y-129737248D01*
X51243939Y-129737283D01*
X51215248Y-129752746D01*
X51190765Y-129765722D01*
X51172530Y-129775147D01*
X51162585Y-129779955D01*
X51161389Y-129780348D01*
X51154378Y-129778013D01*
X51143200Y-129773957D01*
X51137031Y-129769330D01*
X51127695Y-129758478D01*
X51114702Y-129740664D01*
X51097563Y-129715149D01*
X51075787Y-129681196D01*
X51048887Y-129638065D01*
X51016372Y-129585018D01*
X50998737Y-129555999D01*
X50964591Y-129499466D01*
X50936684Y-129452661D01*
X50914503Y-129414551D01*
X50897536Y-129384107D01*
X50885272Y-129360297D01*
X50877198Y-129342090D01*
X50872802Y-129328456D01*
X50871573Y-129318364D01*
X50872999Y-129310783D01*
X50875009Y-129306864D01*
X50880581Y-129302790D01*
X50896037Y-129292123D01*
X50920698Y-129275317D01*
X50953884Y-129252829D01*
X50994916Y-129225114D01*
X51043113Y-129192626D01*
X51097795Y-129155820D01*
X51158283Y-129115153D01*
X51223896Y-129071078D01*
X51293956Y-129024051D01*
X51367781Y-128974528D01*
X51444693Y-128922963D01*
X51524010Y-128869812D01*
X51605054Y-128815529D01*
X51687145Y-128760570D01*
X51769602Y-128705390D01*
X51851746Y-128650445D01*
X51932896Y-128596188D01*
X52012374Y-128543076D01*
X52089499Y-128491563D01*
X52163591Y-128442105D01*
X52233970Y-128395157D01*
X52299957Y-128351174D01*
X52360871Y-128310611D01*
X52416033Y-128273923D01*
X52464763Y-128241566D01*
X52506381Y-128213994D01*
X52540206Y-128191663D01*
X52565561Y-128175027D01*
X52570895Y-128171552D01*
X52593166Y-128156924D01*
X52623626Y-128136699D01*
X52659965Y-128112424D01*
X52699871Y-128085644D01*
X52741031Y-128057908D01*
X52766107Y-128040950D01*
X52865946Y-127973592D01*
X52976150Y-127899745D01*
X53096832Y-127819332D01*
X53228106Y-127732278D01*
X53289479Y-127691700D01*
X53363108Y-127642919D01*
X53430242Y-127598157D01*
X53490363Y-127557767D01*
X53542956Y-127522106D01*
X53587504Y-127491527D01*
X53623491Y-127466384D01*
X53650402Y-127447033D01*
X53667719Y-127433828D01*
X53674926Y-127427124D01*
X53675058Y-127426858D01*
X53674458Y-127414873D01*
X53672103Y-127410631D01*
X53663494Y-127390810D01*
X53661746Y-127365144D01*
X53667117Y-127338634D01*
X53668242Y-127335657D01*
X53673939Y-127319603D01*
X53676243Y-127309270D01*
X53675949Y-127307683D01*
X53673954Y-127306350D01*
X53668550Y-127303044D01*
X53659337Y-127297531D01*
X53645919Y-127289578D01*
X53627894Y-127278953D01*
X53604866Y-127265423D01*
X53576436Y-127248756D01*
X53542205Y-127228717D01*
X53501774Y-127205074D01*
X53454744Y-127177596D01*
X53400718Y-127146047D01*
X53339297Y-127110197D01*
X53270081Y-127069812D01*
X53192673Y-127024659D01*
X53106673Y-126974505D01*
X53011683Y-126919118D01*
X52907305Y-126858264D01*
X52793140Y-126791712D01*
X52668789Y-126719227D01*
X52537025Y-126642426D01*
X52445536Y-126589095D01*
X52351996Y-126534557D01*
X52257590Y-126479503D01*
X52163505Y-126424626D01*
X52070926Y-126370617D01*
X51981040Y-126318169D01*
X51895033Y-126267974D01*
X51814090Y-126220724D01*
X51739398Y-126177111D01*
X51672143Y-126137828D01*
X51613510Y-126103566D01*
X51565475Y-126075478D01*
X51499179Y-126036705D01*
X51429535Y-125995990D01*
X51358532Y-125954496D01*
X51288161Y-125913384D01*
X51220410Y-125873818D01*
X51157271Y-125836958D01*
X51100733Y-125803969D01*
X51052785Y-125776011D01*
X51044775Y-125771342D01*
X50998622Y-125744323D01*
X50956033Y-125719146D01*
X50918236Y-125696555D01*
X50886459Y-125677296D01*
X50861929Y-125662113D01*
X50845875Y-125651750D01*
X50839524Y-125646952D01*
X50839481Y-125646865D01*
X50841318Y-125638540D01*
X50848198Y-125622989D01*
X50856944Y-125606609D01*
X50867309Y-125587686D01*
X51066264Y-125587686D01*
X51066561Y-125588841D01*
X51072901Y-125593759D01*
X51088959Y-125604248D01*
X51113444Y-125619548D01*
X51145065Y-125638897D01*
X51182531Y-125661532D01*
X51224551Y-125686694D01*
X51269835Y-125713621D01*
X51317092Y-125741550D01*
X51365032Y-125769722D01*
X51412363Y-125797373D01*
X51457794Y-125823744D01*
X51500036Y-125848072D01*
X51537796Y-125869597D01*
X51569785Y-125887556D01*
X51594711Y-125901189D01*
X51606750Y-125907488D01*
X51629123Y-125919316D01*
X51659149Y-125935884D01*
X51693603Y-125955379D01*
X51729260Y-125975986D01*
X51746450Y-125986091D01*
X51777710Y-126004216D01*
X51805771Y-126019795D01*
X51828575Y-126031741D01*
X51844068Y-126038965D01*
X51849547Y-126040632D01*
X51859447Y-126035671D01*
X51871292Y-126023117D01*
X51875616Y-126016887D01*
X51883222Y-126004415D01*
X51896025Y-125982936D01*
X51912856Y-125954435D01*
X51932544Y-125920895D01*
X51953920Y-125884298D01*
X51962156Y-125870151D01*
X51985243Y-125830351D01*
X52002555Y-125800046D01*
X52014741Y-125777776D01*
X52022452Y-125762078D01*
X52026337Y-125751495D01*
X52027045Y-125744564D01*
X52025227Y-125739825D01*
X52021812Y-125736081D01*
X52013687Y-125730353D01*
X51995910Y-125719078D01*
X51969825Y-125703069D01*
X51936775Y-125683135D01*
X51898102Y-125660087D01*
X51855149Y-125634737D01*
X51816300Y-125611998D01*
X51767713Y-125583648D01*
X51719549Y-125555515D01*
X51673680Y-125528693D01*
X51631981Y-125504279D01*
X51596323Y-125483369D01*
X51568580Y-125467060D01*
X51555950Y-125459607D01*
X51486195Y-125418440D01*
X51426611Y-125383531D01*
X51376532Y-125354513D01*
X51335292Y-125331021D01*
X51302225Y-125312690D01*
X51276665Y-125299152D01*
X51257947Y-125290044D01*
X51245403Y-125284999D01*
X51238370Y-125283651D01*
X51236666Y-125284293D01*
X51231723Y-125291448D01*
X51221338Y-125308066D01*
X51206432Y-125332618D01*
X51187924Y-125363575D01*
X51166736Y-125399409D01*
X51145625Y-125435441D01*
X51116377Y-125486206D01*
X51093940Y-125526573D01*
X51078192Y-125556782D01*
X51069008Y-125577073D01*
X51066264Y-125587686D01*
X50867309Y-125587686D01*
X50869780Y-125583175D01*
X50875307Y-125568709D01*
X50872982Y-125561437D01*
X50862266Y-125559581D01*
X50843162Y-125561298D01*
X50803187Y-125562524D01*
X50759379Y-125557586D01*
X50713966Y-125547374D01*
X50669177Y-125532777D01*
X50627239Y-125514686D01*
X50590382Y-125493989D01*
X50560834Y-125471576D01*
X50540824Y-125448336D01*
X50535841Y-125438643D01*
X50524555Y-125418409D01*
X50509805Y-125400587D01*
X50508456Y-125399350D01*
X50498116Y-125388084D01*
X50482813Y-125368789D01*
X50464529Y-125344071D01*
X50445244Y-125316535D01*
X50443267Y-125313625D01*
X50402381Y-125253396D01*
X50359247Y-125190157D01*
X50316471Y-125127714D01*
X50276659Y-125069874D01*
X50256394Y-125040575D01*
X50236313Y-125011491D01*
X50212366Y-124976637D01*
X50187806Y-124940756D01*
X50169274Y-124913575D01*
X50146697Y-124880454D01*
X50122050Y-124844418D01*
X50098582Y-124810211D01*
X50082305Y-124786575D01*
X50063469Y-124759233D01*
X50040250Y-124725432D01*
X50015414Y-124689208D01*
X49991732Y-124654595D01*
X49988626Y-124650050D01*
X49966717Y-124618017D01*
X49944597Y-124585752D01*
X49924531Y-124556555D01*
X49908786Y-124533726D01*
X49905790Y-124529400D01*
X49887889Y-124503493D01*
X49866972Y-124473092D01*
X49847168Y-124444198D01*
X49844640Y-124440500D01*
X49817049Y-124400213D01*
X49795564Y-124369118D01*
X49779219Y-124345859D01*
X49767049Y-124329078D01*
X49758089Y-124317418D01*
X49751732Y-124309915D01*
X49742845Y-124296825D01*
X49739850Y-124287087D01*
X49745139Y-124274101D01*
X49757629Y-124262378D01*
X49772246Y-124256457D01*
X49774192Y-124256349D01*
X49781824Y-124259466D01*
X49781824Y-124259466D01*
G37*
X49781824Y-124259466D02*
X49799246Y-124268386D01*
X49825306Y-124282466D01*
X49858853Y-124301064D01*
X49898733Y-124323535D01*
X49943795Y-124349237D01*
X49992888Y-124377527D01*
X50034042Y-124401445D01*
X50087714Y-124432746D01*
X50150299Y-124469230D01*
X50219732Y-124509694D01*
X50293947Y-124552935D01*
X50370880Y-124597750D01*
X50448466Y-124642937D01*
X50524639Y-124687291D01*
X50597335Y-124729612D01*
X50628850Y-124747954D01*
X50706688Y-124793376D01*
X50774014Y-124832936D01*
X50831393Y-124866979D01*
X50879391Y-124895855D01*
X50918573Y-124919910D01*
X50949505Y-124939492D01*
X50972751Y-124954949D01*
X50988878Y-124966628D01*
X50998451Y-124974878D01*
X50999132Y-124975595D01*
X51028808Y-125014404D01*
X51055190Y-125061830D01*
X51076112Y-125113840D01*
X51080006Y-125126300D01*
X51087289Y-125149616D01*
X51093845Y-125168188D01*
X51098454Y-125178612D01*
X51099036Y-125179420D01*
X51104080Y-125176766D01*
X51113398Y-125165043D01*
X51125365Y-125146433D01*
X51131550Y-125135739D01*
X51145811Y-125111179D01*
X51159585Y-125089014D01*
X51170484Y-125073043D01*
X51172926Y-125069919D01*
X51182925Y-125059065D01*
X51190796Y-125057083D01*
X51202379Y-125062954D01*
X51204676Y-125064374D01*
X51224257Y-125076285D01*
X51252212Y-125092958D01*
X51287359Y-125113712D01*
X51328517Y-125137865D01*
X51374507Y-125164735D01*
X51424146Y-125193638D01*
X51476254Y-125223895D01*
X51529650Y-125254822D01*
X51583154Y-125285737D01*
X51635584Y-125315959D01*
X51685760Y-125344805D01*
X51732500Y-125371593D01*
X51774623Y-125395642D01*
X51810950Y-125416269D01*
X51840299Y-125432792D01*
X51861488Y-125444530D01*
X51873338Y-125450800D01*
X51875138Y-125451604D01*
X51887146Y-125457093D01*
X51908290Y-125468166D01*
X51936890Y-125483844D01*
X51971269Y-125503147D01*
X52009747Y-125525096D01*
X52050646Y-125548710D01*
X52092288Y-125573010D01*
X52132995Y-125597016D01*
X52171088Y-125619750D01*
X52204888Y-125640230D01*
X52232717Y-125657478D01*
X52252896Y-125670513D01*
X52263748Y-125678356D01*
X52263975Y-125678557D01*
X52280857Y-125691773D01*
X52302717Y-125706354D01*
X52314775Y-125713492D01*
X52323346Y-125718309D01*
X52333528Y-125724095D01*
X52346180Y-125731348D01*
X52362157Y-125740566D01*
X52382319Y-125752249D01*
X52407523Y-125766896D01*
X52438626Y-125785005D01*
X52476485Y-125807076D01*
X52521959Y-125833606D01*
X52575905Y-125865096D01*
X52639181Y-125902043D01*
X52705300Y-125940657D01*
X52767332Y-125976881D01*
X52836748Y-126017405D01*
X52911788Y-126061202D01*
X52990692Y-126107247D01*
X53071700Y-126154511D01*
X53153050Y-126201968D01*
X53232984Y-126248592D01*
X53309741Y-126293355D01*
X53381560Y-126335231D01*
X53446681Y-126373193D01*
X53503345Y-126406213D01*
X53524450Y-126418508D01*
X53557929Y-126438020D01*
X53600718Y-126462974D01*
X53651160Y-126492404D01*
X53707601Y-126525344D01*
X53768386Y-126560827D01*
X53831857Y-126597887D01*
X53896362Y-126635558D01*
X53960243Y-126672873D01*
X53981408Y-126685239D01*
X54054062Y-126727513D01*
X54118491Y-126764640D01*
X54174310Y-126796406D01*
X54221134Y-126822598D01*
X54258578Y-126843001D01*
X54286257Y-126857404D01*
X54303785Y-126865592D01*
X54310296Y-126867521D01*
X54320643Y-126863502D01*
X54338891Y-126853306D01*
X54362747Y-126838330D01*
X54389918Y-126819970D01*
X54399437Y-126813252D01*
X54428238Y-126792775D01*
X54458363Y-126771519D01*
X54491141Y-126748560D01*
X54527904Y-126722976D01*
X54569980Y-126693842D01*
X54618701Y-126660235D01*
X54675396Y-126621232D01*
X54734125Y-126580899D01*
X54772118Y-126554763D01*
X54812500Y-126526885D01*
X54851795Y-126499668D01*
X54886527Y-126475521D01*
X54906353Y-126461670D01*
X54938043Y-126439524D01*
X54976003Y-126413090D01*
X55016045Y-126385281D01*
X55053977Y-126359009D01*
X55064026Y-126352066D01*
X55093512Y-126331311D01*
X55119437Y-126312320D01*
X55139911Y-126296537D01*
X55153041Y-126285407D01*
X55156826Y-126281203D01*
X55158434Y-126265305D01*
X55153140Y-126247853D01*
X55144571Y-126211675D01*
X55147064Y-126173528D01*
X55155883Y-126146608D01*
X55160634Y-126137438D01*
X55166892Y-126128886D01*
X55176121Y-126119863D01*
X55189783Y-126109277D01*
X55209343Y-126096037D01*
X55236263Y-126079053D01*
X55272006Y-126057233D01*
X55291672Y-126045356D01*
X55332733Y-126020774D01*
X55364646Y-126002159D01*
X55389018Y-125988718D01*
X55407452Y-125979659D01*
X55421554Y-125974190D01*
X55432928Y-125971518D01*
X55442584Y-125970850D01*
X55472799Y-125975407D01*
X55503136Y-125987527D01*
X55528626Y-126004880D01*
X55538950Y-126016038D01*
X55549325Y-126028186D01*
X55557201Y-126034207D01*
X55557991Y-126034350D01*
X55565715Y-126031270D01*
X55581173Y-126023119D01*
X55601309Y-126011526D01*
X55605609Y-126008950D01*
X55631048Y-125994743D01*
X55651006Y-125986876D01*
X55669951Y-125983792D01*
X55678601Y-125983550D01*
X55715105Y-125988560D01*
X55744075Y-126003435D01*
X55754295Y-126013062D01*
X55756873Y-126016336D01*
X55760919Y-126022152D01*
X55766812Y-126031134D01*
X55774934Y-126043903D01*
X55785665Y-126061083D01*
X55799386Y-126083296D01*
X55816477Y-126111165D01*
X55837319Y-126145314D01*
X55862293Y-126186364D01*
X55891778Y-126234939D01*
X55926157Y-126291662D01*
X55965809Y-126357155D01*
X56011115Y-126432041D01*
X56062455Y-126516944D01*
X56083573Y-126551875D01*
X56110884Y-126597003D01*
X56142594Y-126649321D01*
X56176489Y-126705180D01*
X56210352Y-126760927D01*
X56241968Y-126812914D01*
X56255079Y-126834450D01*
X56282309Y-126879320D01*
X56303579Y-126914905D01*
X56319649Y-126942694D01*
X56331276Y-126964181D01*
X56339217Y-126980857D01*
X56344232Y-126994215D01*
X56347078Y-127005744D01*
X56348513Y-127016939D01*
X56348648Y-127018600D01*
X56347177Y-127049329D01*
X56336731Y-127075335D01*
X56316027Y-127098780D01*
X56289657Y-127118150D01*
X56264499Y-127134291D01*
X56248368Y-127145392D01*
X56239702Y-127153425D01*
X56236936Y-127160361D01*
X56238509Y-127168170D01*
X56242411Y-127177740D01*
X56250386Y-127208887D01*
X56250785Y-127241889D01*
X56243879Y-127271929D01*
X56236304Y-127286583D01*
X56226029Y-127296782D01*
X56206662Y-127311806D01*
X56180250Y-127330385D01*
X56148844Y-127351250D01*
X56114492Y-127373130D01*
X56079244Y-127394756D01*
X56045148Y-127414859D01*
X56014254Y-127432168D01*
X55988611Y-127445413D01*
X55970267Y-127453326D01*
X55964792Y-127454834D01*
X55931421Y-127455690D01*
X55900740Y-127445630D01*
X55870494Y-127423877D01*
X55867803Y-127421401D01*
X55850944Y-127406868D01*
X55836711Y-127396781D01*
X55828841Y-127393473D01*
X55820052Y-127396381D01*
X55802572Y-127404144D01*
X55778892Y-127415598D01*
X55751504Y-127429577D01*
X55750125Y-127430299D01*
X55690268Y-127461721D01*
X55640777Y-127487852D01*
X55600731Y-127509215D01*
X55569205Y-127526335D01*
X55545276Y-127539736D01*
X55528021Y-127549943D01*
X55516517Y-127557479D01*
X55509840Y-127562869D01*
X55507068Y-127566638D01*
X55506910Y-127568413D01*
X55512527Y-127572516D01*
X55528592Y-127582684D01*
X55554573Y-127598601D01*
X55589936Y-127619955D01*
X55634147Y-127646432D01*
X55686672Y-127677718D01*
X55746978Y-127713499D01*
X55814532Y-127753461D01*
X55888799Y-127797292D01*
X55969246Y-127844676D01*
X56055340Y-127895300D01*
X56146546Y-127948850D01*
X56242332Y-128005013D01*
X56342164Y-128063476D01*
X56445508Y-128123923D01*
X56551830Y-128186041D01*
X56660597Y-128249517D01*
X56771276Y-128314037D01*
X56883333Y-128379287D01*
X56996233Y-128444954D01*
X57109025Y-128510479D01*
X57146131Y-128532045D01*
X57190333Y-128557770D01*
X57237763Y-128585401D01*
X57284556Y-128612687D01*
X57321750Y-128634398D01*
X57398683Y-128679336D01*
X57466006Y-128718664D01*
X57525076Y-128753174D01*
X57577251Y-128783661D01*
X57623888Y-128810917D01*
X57666345Y-128835735D01*
X57705978Y-128858909D01*
X57744145Y-128881233D01*
X57778950Y-128901594D01*
X57824138Y-128928007D01*
X57875318Y-128957880D01*
X57927986Y-128988586D01*
X57977639Y-129017500D01*
X58010725Y-129036740D01*
X58048416Y-129058648D01*
X58085448Y-129080188D01*
X58119286Y-129099885D01*
X58147396Y-129116262D01*
X58167243Y-129127845D01*
X58168300Y-129128463D01*
X58222209Y-129165536D01*
X58265915Y-129208330D01*
X58300750Y-129258524D01*
X58328045Y-129317799D01*
X58335587Y-129339525D01*
X58343761Y-129367582D01*
X58348856Y-129393545D01*
X58351554Y-129422272D01*
X58352539Y-129458621D01*
X58352552Y-129460175D01*
X58350298Y-129515476D01*
X58341912Y-129561807D01*
X58326332Y-129601840D01*
X58302496Y-129638250D01*
X58269342Y-129673709D01*
X58266729Y-129676147D01*
X58217681Y-129713559D01*
X58160401Y-129743384D01*
X58097799Y-129764127D01*
X58093223Y-129765217D01*
X58051580Y-129772138D01*
X58006706Y-129774974D01*
X57961997Y-129773888D01*
X57920848Y-129769048D01*
X57886657Y-129760620D01*
X57871807Y-129754391D01*
X57867103Y-129751821D01*
X57858326Y-129746851D01*
X57844877Y-129739134D01*
X57826160Y-129728324D01*
X57801577Y-129714071D01*
X57770533Y-129696030D01*
X57732429Y-129673852D01*
X57686669Y-129647191D01*
X57632656Y-129615698D01*
X57569792Y-129579027D01*
X57497481Y-129536830D01*
X57415125Y-129488759D01*
X57366200Y-129460198D01*
X57328922Y-129438436D01*
X57283738Y-129412061D01*
X57233711Y-129382860D01*
X57181904Y-129352621D01*
X57131379Y-129323132D01*
X57099500Y-129304526D01*
X57049365Y-129275257D01*
X56991962Y-129241732D01*
X56930987Y-129206108D01*
X56870131Y-129170544D01*
X56813089Y-129137197D01*
X56778825Y-129117159D01*
X56702948Y-129072795D01*
X56618928Y-129023702D01*
X56529075Y-128971227D01*
X56435703Y-128916721D01*
X56341125Y-128861534D01*
X56247652Y-128807013D01*
X56157599Y-128754509D01*
X56073277Y-128705372D01*
X55996999Y-128660950D01*
X55978725Y-128650313D01*
X55947266Y-128631998D01*
X55905975Y-128607947D01*
X55855987Y-128578823D01*
X55798440Y-128545290D01*
X55734472Y-128508010D01*
X55665219Y-128467645D01*
X55591819Y-128424859D01*
X55515410Y-128380314D01*
X55437127Y-128334674D01*
X55358108Y-128288600D01*
X55294123Y-128251289D01*
X55197609Y-128195116D01*
X55110219Y-128144477D01*
X55032153Y-128099486D01*
X54963611Y-128060254D01*
X54904792Y-128026895D01*
X54855895Y-127999521D01*
X54817120Y-127978244D01*
X54788668Y-127963178D01*
X54770736Y-127954435D01*
X54763898Y-127952058D01*
X54752769Y-127955000D01*
X54732807Y-127963137D01*
X54706252Y-127975444D01*
X54675344Y-127990896D01*
X54651575Y-128003436D01*
X54612312Y-128024423D01*
X54569574Y-128046956D01*
X54527716Y-128068758D01*
X54491093Y-128087552D01*
X54480125Y-128093095D01*
X54442254Y-128112432D01*
X54399237Y-128134883D01*
X54356996Y-128157332D01*
X54328625Y-128172715D01*
X54285599Y-128195424D01*
X54251198Y-128211082D01*
X54223646Y-128219921D01*
X54201161Y-128222169D01*
X54181966Y-128218059D01*
X54164280Y-128207818D01*
X54150437Y-128195770D01*
X54135680Y-128183116D01*
X54123356Y-128175403D01*
X54119400Y-128174300D01*
X54110399Y-128177325D01*
X54093265Y-128185482D01*
X54070770Y-128197392D01*
X54053998Y-128206832D01*
X54030001Y-128220367D01*
X53997720Y-128238160D01*
X53960132Y-128258594D01*
X53920210Y-128280050D01*
X53883225Y-128299700D01*
X53843134Y-128321014D01*
X53801932Y-128343183D01*
X53762790Y-128364483D01*
X53728879Y-128383189D01*
X53705425Y-128396397D01*
X53678638Y-128411483D01*
X53643869Y-128430692D01*
X53604379Y-128452242D01*
X53563429Y-128474351D01*
X53530800Y-128491782D01*
X53490783Y-128513172D01*
X53449224Y-128535623D01*
X53409476Y-128557306D01*
X53374898Y-128576391D01*
X53353000Y-128588681D01*
X53325403Y-128604122D01*
X53289814Y-128623685D01*
X53249489Y-128645598D01*
X53207688Y-128668091D01*
X53172025Y-128687085D01*
X53131950Y-128708451D01*
X53090765Y-128730662D01*
X53051635Y-128751993D01*
X53017728Y-128770717D01*
X52994225Y-128783955D01*
X52967433Y-128799032D01*
X52932658Y-128818228D01*
X52893161Y-128839760D01*
X52852205Y-128861848D01*
X52819600Y-128879245D01*
X52776067Y-128902521D01*
X52727678Y-128928692D01*
X52678875Y-128955340D01*
X52634099Y-128980042D01*
X52610050Y-128993463D01*
X52569915Y-129015798D01*
X52525801Y-129040015D01*
X52482089Y-129063729D01*
X52443159Y-129084555D01*
X52429075Y-129091979D01*
X52392326Y-129111491D01*
X52349335Y-129134726D01*
X52304875Y-129159083D01*
X52263717Y-129181959D01*
X52254450Y-129187172D01*
X52215701Y-129208830D01*
X52173251Y-129232221D01*
X52131574Y-129254902D01*
X52095143Y-129274425D01*
X52086175Y-129279160D01*
X52055000Y-129295732D01*
X52016327Y-129316582D01*
X51973729Y-129339766D01*
X51930780Y-129363343D01*
X51898850Y-129381023D01*
X51854965Y-129405267D01*
X51805563Y-129432282D01*
X51755211Y-129459586D01*
X51708476Y-129484699D01*
X51682950Y-129498277D01*
X51643961Y-129519067D01*
X51603463Y-129540940D01*
X51564942Y-129561996D01*
X51531882Y-129580335D01*
X51514675Y-129590068D01*
X51480199Y-129609529D01*
X51441047Y-129631199D01*
X51403506Y-129651614D01*
X51387675Y-129660071D01*
X51356705Y-129676563D01*
X51319296Y-129696610D01*
X51280159Y-129717681D01*
X51244003Y-129737248D01*
X51243939Y-129737283D01*
X51215248Y-129752746D01*
X51190765Y-129765722D01*
X51172530Y-129775147D01*
X51162585Y-129779955D01*
X51161389Y-129780348D01*
X51154378Y-129778013D01*
X51143200Y-129773957D01*
X51137031Y-129769330D01*
X51127695Y-129758478D01*
X51114702Y-129740664D01*
X51097563Y-129715149D01*
X51075787Y-129681196D01*
X51048887Y-129638065D01*
X51016372Y-129585018D01*
X50998737Y-129555999D01*
X50964591Y-129499466D01*
X50936684Y-129452661D01*
X50914503Y-129414551D01*
X50897536Y-129384107D01*
X50885272Y-129360297D01*
X50877198Y-129342090D01*
X50872802Y-129328456D01*
X50871573Y-129318364D01*
X50872999Y-129310783D01*
X50875009Y-129306864D01*
X50880581Y-129302790D01*
X50896037Y-129292123D01*
X50920698Y-129275317D01*
X50953884Y-129252829D01*
X50994916Y-129225114D01*
X51043113Y-129192626D01*
X51097795Y-129155820D01*
X51158283Y-129115153D01*
X51223896Y-129071078D01*
X51293956Y-129024051D01*
X51367781Y-128974528D01*
X51444693Y-128922963D01*
X51524010Y-128869812D01*
X51605054Y-128815529D01*
X51687145Y-128760570D01*
X51769602Y-128705390D01*
X51851746Y-128650445D01*
X51932896Y-128596188D01*
X52012374Y-128543076D01*
X52089499Y-128491563D01*
X52163591Y-128442105D01*
X52233970Y-128395157D01*
X52299957Y-128351174D01*
X52360871Y-128310611D01*
X52416033Y-128273923D01*
X52464763Y-128241566D01*
X52506381Y-128213994D01*
X52540206Y-128191663D01*
X52565561Y-128175027D01*
X52570895Y-128171552D01*
X52593166Y-128156924D01*
X52623626Y-128136699D01*
X52659965Y-128112424D01*
X52699871Y-128085644D01*
X52741031Y-128057908D01*
X52766107Y-128040950D01*
X52865946Y-127973592D01*
X52976150Y-127899745D01*
X53096832Y-127819332D01*
X53228106Y-127732278D01*
X53289479Y-127691700D01*
X53363108Y-127642919D01*
X53430242Y-127598157D01*
X53490363Y-127557767D01*
X53542956Y-127522106D01*
X53587504Y-127491527D01*
X53623491Y-127466384D01*
X53650402Y-127447033D01*
X53667719Y-127433828D01*
X53674926Y-127427124D01*
X53675058Y-127426858D01*
X53674458Y-127414873D01*
X53672103Y-127410631D01*
X53663494Y-127390810D01*
X53661746Y-127365144D01*
X53667117Y-127338634D01*
X53668242Y-127335657D01*
X53673939Y-127319603D01*
X53676243Y-127309270D01*
X53675949Y-127307683D01*
X53673954Y-127306350D01*
X53668550Y-127303044D01*
X53659337Y-127297531D01*
X53645919Y-127289578D01*
X53627894Y-127278953D01*
X53604866Y-127265423D01*
X53576436Y-127248756D01*
X53542205Y-127228717D01*
X53501774Y-127205074D01*
X53454744Y-127177596D01*
X53400718Y-127146047D01*
X53339297Y-127110197D01*
X53270081Y-127069812D01*
X53192673Y-127024659D01*
X53106673Y-126974505D01*
X53011683Y-126919118D01*
X52907305Y-126858264D01*
X52793140Y-126791712D01*
X52668789Y-126719227D01*
X52537025Y-126642426D01*
X52445536Y-126589095D01*
X52351996Y-126534557D01*
X52257590Y-126479503D01*
X52163505Y-126424626D01*
X52070926Y-126370617D01*
X51981040Y-126318169D01*
X51895033Y-126267974D01*
X51814090Y-126220724D01*
X51739398Y-126177111D01*
X51672143Y-126137828D01*
X51613510Y-126103566D01*
X51565475Y-126075478D01*
X51499179Y-126036705D01*
X51429535Y-125995990D01*
X51358532Y-125954496D01*
X51288161Y-125913384D01*
X51220410Y-125873818D01*
X51157271Y-125836958D01*
X51100733Y-125803969D01*
X51052785Y-125776011D01*
X51044775Y-125771342D01*
X50998622Y-125744323D01*
X50956033Y-125719146D01*
X50918236Y-125696555D01*
X50886459Y-125677296D01*
X50861929Y-125662113D01*
X50845875Y-125651750D01*
X50839524Y-125646952D01*
X50839481Y-125646865D01*
X50841318Y-125638540D01*
X50848198Y-125622989D01*
X50856944Y-125606609D01*
X50867309Y-125587686D01*
X51066264Y-125587686D01*
X51066561Y-125588841D01*
X51072901Y-125593759D01*
X51088959Y-125604248D01*
X51113444Y-125619548D01*
X51145065Y-125638897D01*
X51182531Y-125661532D01*
X51224551Y-125686694D01*
X51269835Y-125713621D01*
X51317092Y-125741550D01*
X51365032Y-125769722D01*
X51412363Y-125797373D01*
X51457794Y-125823744D01*
X51500036Y-125848072D01*
X51537796Y-125869597D01*
X51569785Y-125887556D01*
X51594711Y-125901189D01*
X51606750Y-125907488D01*
X51629123Y-125919316D01*
X51659149Y-125935884D01*
X51693603Y-125955379D01*
X51729260Y-125975986D01*
X51746450Y-125986091D01*
X51777710Y-126004216D01*
X51805771Y-126019795D01*
X51828575Y-126031741D01*
X51844068Y-126038965D01*
X51849547Y-126040632D01*
X51859447Y-126035671D01*
X51871292Y-126023117D01*
X51875616Y-126016887D01*
X51883222Y-126004415D01*
X51896025Y-125982936D01*
X51912856Y-125954435D01*
X51932544Y-125920895D01*
X51953920Y-125884298D01*
X51962156Y-125870151D01*
X51985243Y-125830351D01*
X52002555Y-125800046D01*
X52014741Y-125777776D01*
X52022452Y-125762078D01*
X52026337Y-125751495D01*
X52027045Y-125744564D01*
X52025227Y-125739825D01*
X52021812Y-125736081D01*
X52013687Y-125730353D01*
X51995910Y-125719078D01*
X51969825Y-125703069D01*
X51936775Y-125683135D01*
X51898102Y-125660087D01*
X51855149Y-125634737D01*
X51816300Y-125611998D01*
X51767713Y-125583648D01*
X51719549Y-125555515D01*
X51673680Y-125528693D01*
X51631981Y-125504279D01*
X51596323Y-125483369D01*
X51568580Y-125467060D01*
X51555950Y-125459607D01*
X51486195Y-125418440D01*
X51426611Y-125383531D01*
X51376532Y-125354513D01*
X51335292Y-125331021D01*
X51302225Y-125312690D01*
X51276665Y-125299152D01*
X51257947Y-125290044D01*
X51245403Y-125284999D01*
X51238370Y-125283651D01*
X51236666Y-125284293D01*
X51231723Y-125291448D01*
X51221338Y-125308066D01*
X51206432Y-125332618D01*
X51187924Y-125363575D01*
X51166736Y-125399409D01*
X51145625Y-125435441D01*
X51116377Y-125486206D01*
X51093940Y-125526573D01*
X51078192Y-125556782D01*
X51069008Y-125577073D01*
X51066264Y-125587686D01*
X50867309Y-125587686D01*
X50869780Y-125583175D01*
X50875307Y-125568709D01*
X50872982Y-125561437D01*
X50862266Y-125559581D01*
X50843162Y-125561298D01*
X50803187Y-125562524D01*
X50759379Y-125557586D01*
X50713966Y-125547374D01*
X50669177Y-125532777D01*
X50627239Y-125514686D01*
X50590382Y-125493989D01*
X50560834Y-125471576D01*
X50540824Y-125448336D01*
X50535841Y-125438643D01*
X50524555Y-125418409D01*
X50509805Y-125400587D01*
X50508456Y-125399350D01*
X50498116Y-125388084D01*
X50482813Y-125368789D01*
X50464529Y-125344071D01*
X50445244Y-125316535D01*
X50443267Y-125313625D01*
X50402381Y-125253396D01*
X50359247Y-125190157D01*
X50316471Y-125127714D01*
X50276659Y-125069874D01*
X50256394Y-125040575D01*
X50236313Y-125011491D01*
X50212366Y-124976637D01*
X50187806Y-124940756D01*
X50169274Y-124913575D01*
X50146697Y-124880454D01*
X50122050Y-124844418D01*
X50098582Y-124810211D01*
X50082305Y-124786575D01*
X50063469Y-124759233D01*
X50040250Y-124725432D01*
X50015414Y-124689208D01*
X49991732Y-124654595D01*
X49988626Y-124650050D01*
X49966717Y-124618017D01*
X49944597Y-124585752D01*
X49924531Y-124556555D01*
X49908786Y-124533726D01*
X49905790Y-124529400D01*
X49887889Y-124503493D01*
X49866972Y-124473092D01*
X49847168Y-124444198D01*
X49844640Y-124440500D01*
X49817049Y-124400213D01*
X49795564Y-124369118D01*
X49779219Y-124345859D01*
X49767049Y-124329078D01*
X49758089Y-124317418D01*
X49751732Y-124309915D01*
X49742845Y-124296825D01*
X49739850Y-124287087D01*
X49745139Y-124274101D01*
X49757629Y-124262378D01*
X49772246Y-124256457D01*
X49774192Y-124256349D01*
X49781824Y-124259466D01*
M02*
