G04 #@! TF.GenerationSoftware,KiCad,Pcbnew,(5.0.2-5-10.14)*
G04 #@! TF.CreationDate,2019-06-16T16:00:31-04:00*
G04 #@! TF.ProjectId,panel,70616e65-6c2e-46b6-9963-61645f706362,rev?*
G04 #@! TF.SameCoordinates,Original*
G04 #@! TF.FileFunction,Legend,Bot*
G04 #@! TF.FilePolarity,Positive*
%FSLAX46Y46*%
G04 Gerber Fmt 4.6, Leading zero omitted, Abs format (unit mm)*
G04 Created by KiCad (PCBNEW (5.0.2-5-10.14)) date Sunday, June 16, 2019 at 04:00:31 PM*
%MOMM*%
%LPD*%
G01*
G04 APERTURE LIST*
%ADD10C,0.300000*%
G04 APERTURE END LIST*
D10*
X62507142Y-138652142D02*
X62292857Y-138723571D01*
X61935714Y-138723571D01*
X61792857Y-138652142D01*
X61721428Y-138580714D01*
X61650000Y-138437857D01*
X61650000Y-138295000D01*
X61721428Y-138152142D01*
X61792857Y-138080714D01*
X61935714Y-138009285D01*
X62221428Y-137937857D01*
X62364285Y-137866428D01*
X62435714Y-137795000D01*
X62507142Y-137652142D01*
X62507142Y-137509285D01*
X62435714Y-137366428D01*
X62364285Y-137295000D01*
X62221428Y-137223571D01*
X61864285Y-137223571D01*
X61650000Y-137295000D01*
X61221428Y-137223571D02*
X60364285Y-137223571D01*
X60792857Y-138723571D02*
X60792857Y-137223571D01*
X59007142Y-138723571D02*
X59507142Y-138009285D01*
X59864285Y-138723571D02*
X59864285Y-137223571D01*
X59292857Y-137223571D01*
X59150000Y-137295000D01*
X59078571Y-137366428D01*
X59007142Y-137509285D01*
X59007142Y-137723571D01*
X59078571Y-137866428D01*
X59150000Y-137937857D01*
X59292857Y-138009285D01*
X59864285Y-138009285D01*
X57292857Y-138652142D02*
X57078571Y-138723571D01*
X56721428Y-138723571D01*
X56578571Y-138652142D01*
X56507142Y-138580714D01*
X56435714Y-138437857D01*
X56435714Y-138295000D01*
X56507142Y-138152142D01*
X56578571Y-138080714D01*
X56721428Y-138009285D01*
X57007142Y-137937857D01*
X57150000Y-137866428D01*
X57221428Y-137795000D01*
X57292857Y-137652142D01*
X57292857Y-137509285D01*
X57221428Y-137366428D01*
X57150000Y-137295000D01*
X57007142Y-137223571D01*
X56650000Y-137223571D01*
X56435714Y-137295000D01*
X55221428Y-138652142D02*
X55364285Y-138723571D01*
X55650000Y-138723571D01*
X55792857Y-138652142D01*
X55864285Y-138509285D01*
X55864285Y-137937857D01*
X55792857Y-137795000D01*
X55650000Y-137723571D01*
X55364285Y-137723571D01*
X55221428Y-137795000D01*
X55150000Y-137937857D01*
X55150000Y-138080714D01*
X55864285Y-138223571D01*
X53864285Y-137723571D02*
X53864285Y-139223571D01*
X53864285Y-138652142D02*
X54007142Y-138723571D01*
X54292857Y-138723571D01*
X54435714Y-138652142D01*
X54507142Y-138580714D01*
X54578571Y-138437857D01*
X54578571Y-138009285D01*
X54507142Y-137866428D01*
X54435714Y-137795000D01*
X54292857Y-137723571D01*
X54007142Y-137723571D01*
X53864285Y-137795000D01*
X52507142Y-137723571D02*
X52507142Y-138723571D01*
X53150000Y-137723571D02*
X53150000Y-138509285D01*
X53078571Y-138652142D01*
X52935714Y-138723571D01*
X52721428Y-138723571D01*
X52578571Y-138652142D01*
X52507142Y-138580714D01*
X51221428Y-138652142D02*
X51364285Y-138723571D01*
X51650000Y-138723571D01*
X51792857Y-138652142D01*
X51864285Y-138509285D01*
X51864285Y-137937857D01*
X51792857Y-137795000D01*
X51650000Y-137723571D01*
X51364285Y-137723571D01*
X51221428Y-137795000D01*
X51150000Y-137937857D01*
X51150000Y-138080714D01*
X51864285Y-138223571D01*
X50507142Y-137723571D02*
X50507142Y-138723571D01*
X50507142Y-137866428D02*
X50435714Y-137795000D01*
X50292857Y-137723571D01*
X50078571Y-137723571D01*
X49935714Y-137795000D01*
X49864285Y-137937857D01*
X49864285Y-138723571D01*
X48507142Y-138652142D02*
X48650000Y-138723571D01*
X48935714Y-138723571D01*
X49078571Y-138652142D01*
X49150000Y-138580714D01*
X49221428Y-138437857D01*
X49221428Y-138009285D01*
X49150000Y-137866428D01*
X49078571Y-137795000D01*
X48935714Y-137723571D01*
X48650000Y-137723571D01*
X48507142Y-137795000D01*
X47292857Y-138652142D02*
X47435714Y-138723571D01*
X47721428Y-138723571D01*
X47864285Y-138652142D01*
X47935714Y-138509285D01*
X47935714Y-137937857D01*
X47864285Y-137795000D01*
X47721428Y-137723571D01*
X47435714Y-137723571D01*
X47292857Y-137795000D01*
X47221428Y-137937857D01*
X47221428Y-138080714D01*
X47935714Y-138223571D01*
X46578571Y-138723571D02*
X46578571Y-137723571D01*
X46578571Y-138009285D02*
X46507142Y-137866428D01*
X46435714Y-137795000D01*
X46292857Y-137723571D01*
X46150000Y-137723571D01*
X62650000Y-141202142D02*
X62435714Y-141273571D01*
X62078571Y-141273571D01*
X61935714Y-141202142D01*
X61864285Y-141130714D01*
X61792857Y-140987857D01*
X61792857Y-140845000D01*
X61864285Y-140702142D01*
X61935714Y-140630714D01*
X62078571Y-140559285D01*
X62364285Y-140487857D01*
X62507142Y-140416428D01*
X62578571Y-140345000D01*
X62650000Y-140202142D01*
X62650000Y-140059285D01*
X62578571Y-139916428D01*
X62507142Y-139845000D01*
X62364285Y-139773571D01*
X62007142Y-139773571D01*
X61792857Y-139845000D01*
X61364285Y-140273571D02*
X60792857Y-140273571D01*
X61150000Y-139773571D02*
X61150000Y-141059285D01*
X61078571Y-141202142D01*
X60935714Y-141273571D01*
X60792857Y-141273571D01*
X59721428Y-141202142D02*
X59864285Y-141273571D01*
X60150000Y-141273571D01*
X60292857Y-141202142D01*
X60364285Y-141059285D01*
X60364285Y-140487857D01*
X60292857Y-140345000D01*
X60150000Y-140273571D01*
X59864285Y-140273571D01*
X59721428Y-140345000D01*
X59650000Y-140487857D01*
X59650000Y-140630714D01*
X60364285Y-140773571D01*
X59007142Y-140273571D02*
X59007142Y-141773571D01*
X59007142Y-140345000D02*
X58864285Y-140273571D01*
X58578571Y-140273571D01*
X58435714Y-140345000D01*
X58364285Y-140416428D01*
X58292857Y-140559285D01*
X58292857Y-140987857D01*
X58364285Y-141130714D01*
X58435714Y-141202142D01*
X58578571Y-141273571D01*
X58864285Y-141273571D01*
X59007142Y-141202142D01*
X57650000Y-141273571D02*
X57650000Y-139773571D01*
X57007142Y-141273571D02*
X57007142Y-140487857D01*
X57078571Y-140345000D01*
X57221428Y-140273571D01*
X57435714Y-140273571D01*
X57578571Y-140345000D01*
X57650000Y-140416428D01*
X55721428Y-141202142D02*
X55864285Y-141273571D01*
X56150000Y-141273571D01*
X56292857Y-141202142D01*
X56364285Y-141059285D01*
X56364285Y-140487857D01*
X56292857Y-140345000D01*
X56150000Y-140273571D01*
X55864285Y-140273571D01*
X55721428Y-140345000D01*
X55650000Y-140487857D01*
X55650000Y-140630714D01*
X56364285Y-140773571D01*
X55007142Y-140273571D02*
X55007142Y-141273571D01*
X55007142Y-140416428D02*
X54935714Y-140345000D01*
X54792857Y-140273571D01*
X54578571Y-140273571D01*
X54435714Y-140345000D01*
X54364285Y-140487857D01*
X54364285Y-141273571D01*
X52507142Y-141273571D02*
X52507142Y-139773571D01*
X52507142Y-140487857D02*
X51650000Y-140487857D01*
X51650000Y-141273571D02*
X51650000Y-139773571D01*
X50292857Y-141273571D02*
X50292857Y-140487857D01*
X50364285Y-140345000D01*
X50507142Y-140273571D01*
X50792857Y-140273571D01*
X50935714Y-140345000D01*
X50292857Y-141202142D02*
X50435714Y-141273571D01*
X50792857Y-141273571D01*
X50935714Y-141202142D01*
X51007142Y-141059285D01*
X51007142Y-140916428D01*
X50935714Y-140773571D01*
X50792857Y-140702142D01*
X50435714Y-140702142D01*
X50292857Y-140630714D01*
X49721428Y-140273571D02*
X49435714Y-141273571D01*
X49150000Y-140559285D01*
X48864285Y-141273571D01*
X48578571Y-140273571D01*
X47435714Y-141202142D02*
X47578571Y-141273571D01*
X47864285Y-141273571D01*
X48007142Y-141202142D01*
X48078571Y-141059285D01*
X48078571Y-140487857D01*
X48007142Y-140345000D01*
X47864285Y-140273571D01*
X47578571Y-140273571D01*
X47435714Y-140345000D01*
X47364285Y-140487857D01*
X47364285Y-140630714D01*
X48078571Y-140773571D01*
X46792857Y-141202142D02*
X46650000Y-141273571D01*
X46364285Y-141273571D01*
X46221428Y-141202142D01*
X46150000Y-141059285D01*
X46150000Y-140987857D01*
X46221428Y-140845000D01*
X46364285Y-140773571D01*
X46578571Y-140773571D01*
X46721428Y-140702142D01*
X46792857Y-140559285D01*
X46792857Y-140487857D01*
X46721428Y-140345000D01*
X46578571Y-140273571D01*
X46364285Y-140273571D01*
X46221428Y-140345000D01*
X57400000Y-143823571D02*
X57900000Y-143109285D01*
X58257142Y-143823571D02*
X58257142Y-142323571D01*
X57685714Y-142323571D01*
X57542857Y-142395000D01*
X57471428Y-142466428D01*
X57400000Y-142609285D01*
X57400000Y-142823571D01*
X57471428Y-142966428D01*
X57542857Y-143037857D01*
X57685714Y-143109285D01*
X58257142Y-143109285D01*
X56757142Y-143037857D02*
X56257142Y-143037857D01*
X56042857Y-143823571D02*
X56757142Y-143823571D01*
X56757142Y-142323571D01*
X56042857Y-142323571D01*
X55614285Y-142323571D02*
X55114285Y-143823571D01*
X54614285Y-142323571D01*
X53828571Y-142323571D02*
X53685714Y-142323571D01*
X53542857Y-142395000D01*
X53471428Y-142466428D01*
X53400000Y-142609285D01*
X53328571Y-142895000D01*
X53328571Y-143252142D01*
X53400000Y-143537857D01*
X53471428Y-143680714D01*
X53542857Y-143752142D01*
X53685714Y-143823571D01*
X53828571Y-143823571D01*
X53971428Y-143752142D01*
X54042857Y-143680714D01*
X54114285Y-143537857D01*
X54185714Y-143252142D01*
X54185714Y-142895000D01*
X54114285Y-142609285D01*
X54042857Y-142466428D01*
X53971428Y-142395000D01*
X53828571Y-142323571D01*
X52400000Y-142323571D02*
X52257142Y-142323571D01*
X52114285Y-142395000D01*
X52042857Y-142466428D01*
X51971428Y-142609285D01*
X51900000Y-142895000D01*
X51900000Y-143252142D01*
X51971428Y-143537857D01*
X52042857Y-143680714D01*
X52114285Y-143752142D01*
X52257142Y-143823571D01*
X52400000Y-143823571D01*
X52542857Y-143752142D01*
X52614285Y-143680714D01*
X52685714Y-143537857D01*
X52757142Y-143252142D01*
X52757142Y-142895000D01*
X52685714Y-142609285D01*
X52614285Y-142466428D01*
X52542857Y-142395000D01*
X52400000Y-142323571D01*
X50971428Y-142323571D02*
X50828571Y-142323571D01*
X50685714Y-142395000D01*
X50614285Y-142466428D01*
X50542857Y-142609285D01*
X50471428Y-142895000D01*
X50471428Y-143252142D01*
X50542857Y-143537857D01*
X50614285Y-143680714D01*
X50685714Y-143752142D01*
X50828571Y-143823571D01*
X50971428Y-143823571D01*
X51114285Y-143752142D01*
X51185714Y-143680714D01*
X51257142Y-143537857D01*
X51328571Y-143252142D01*
X51328571Y-142895000D01*
X51257142Y-142609285D01*
X51185714Y-142466428D01*
X51114285Y-142395000D01*
X50971428Y-142323571D01*
X58114285Y-144873571D02*
X58114285Y-145945000D01*
X58185714Y-146159285D01*
X58328571Y-146302142D01*
X58542857Y-146373571D01*
X58685714Y-146373571D01*
X57400000Y-144873571D02*
X57400000Y-146087857D01*
X57328571Y-146230714D01*
X57257142Y-146302142D01*
X57114285Y-146373571D01*
X56828571Y-146373571D01*
X56685714Y-146302142D01*
X56614285Y-146230714D01*
X56542857Y-146087857D01*
X56542857Y-144873571D01*
X55828571Y-146373571D02*
X55828571Y-144873571D01*
X54971428Y-146373571D01*
X54971428Y-144873571D01*
X54257142Y-145802142D02*
X53114285Y-145802142D01*
X51614285Y-146373571D02*
X52471428Y-146373571D01*
X52042857Y-146373571D02*
X52042857Y-144873571D01*
X52185714Y-145087857D01*
X52328571Y-145230714D01*
X52471428Y-145302142D01*
X50900000Y-146373571D02*
X50614285Y-146373571D01*
X50471428Y-146302142D01*
X50400000Y-146230714D01*
X50257142Y-146016428D01*
X50185714Y-145730714D01*
X50185714Y-145159285D01*
X50257142Y-145016428D01*
X50328571Y-144945000D01*
X50471428Y-144873571D01*
X50757142Y-144873571D01*
X50900000Y-144945000D01*
X50971428Y-145016428D01*
X51042857Y-145159285D01*
X51042857Y-145516428D01*
X50971428Y-145659285D01*
X50900000Y-145730714D01*
X50757142Y-145802142D01*
X50471428Y-145802142D01*
X50328571Y-145730714D01*
X50257142Y-145659285D01*
X50185714Y-145516428D01*
M02*
