G04 #@! TF.FileFunction,Copper,L2,Bot,Signal*
%FSLAX46Y46*%
G04 Gerber Fmt 4.6, Leading zero omitted, Abs format (unit mm)*
G04 Created by KiCad (PCBNEW 4.0.5) date Monday, October 01, 2018 'PMt' 09:05:40 PM*
%MOMM*%
%LPD*%
G01*
G04 APERTURE LIST*
%ADD10C,0.100000*%
%ADD11C,0.300000*%
%ADD12R,1.500000X1.250000*%
%ADD13R,1.250000X1.500000*%
%ADD14R,1.700000X1.700000*%
%ADD15O,1.700000X1.700000*%
%ADD16R,3.500000X3.500000*%
%ADD17C,1.600000*%
%ADD18O,1.600000X1.600000*%
%ADD19R,2.400000X1.600000*%
%ADD20O,2.400000X1.600000*%
%ADD21C,0.508000*%
%ADD22C,0.254000*%
G04 APERTURE END LIST*
D10*
D11*
X193779286Y-136269999D02*
X193707857Y-136341428D01*
X193636429Y-136555714D01*
X193636429Y-136698571D01*
X193707857Y-136912856D01*
X193850714Y-137055714D01*
X193993571Y-137127142D01*
X194279286Y-137198571D01*
X194493571Y-137198571D01*
X194779286Y-137127142D01*
X194922143Y-137055714D01*
X195065000Y-136912856D01*
X195136429Y-136698571D01*
X195136429Y-136555714D01*
X195065000Y-136341428D01*
X194993571Y-136269999D01*
X194422143Y-135627142D02*
X194422143Y-135127142D01*
X193636429Y-134912856D02*
X193636429Y-135627142D01*
X195136429Y-135627142D01*
X195136429Y-134912856D01*
X193636429Y-134269999D02*
X195136429Y-134269999D01*
X194065000Y-133769999D01*
X195136429Y-133269999D01*
X193636429Y-133269999D01*
X195136429Y-132698570D02*
X195136429Y-131769999D01*
X194565000Y-132269999D01*
X194565000Y-132055713D01*
X194493571Y-131912856D01*
X194422143Y-131841427D01*
X194279286Y-131769999D01*
X193922143Y-131769999D01*
X193779286Y-131841427D01*
X193707857Y-131912856D01*
X193636429Y-132055713D01*
X193636429Y-132484285D01*
X193707857Y-132627142D01*
X193779286Y-132698570D01*
X195136429Y-131269999D02*
X195136429Y-130341428D01*
X194565000Y-130841428D01*
X194565000Y-130627142D01*
X194493571Y-130484285D01*
X194422143Y-130412856D01*
X194279286Y-130341428D01*
X193922143Y-130341428D01*
X193779286Y-130412856D01*
X193707857Y-130484285D01*
X193636429Y-130627142D01*
X193636429Y-131055714D01*
X193707857Y-131198571D01*
X193779286Y-131269999D01*
X194636429Y-129055714D02*
X193636429Y-129055714D01*
X195207857Y-129412857D02*
X194136429Y-129770000D01*
X194136429Y-128841428D01*
X195136429Y-127984286D02*
X195136429Y-127841429D01*
X195065000Y-127698572D01*
X194993571Y-127627143D01*
X194850714Y-127555714D01*
X194565000Y-127484286D01*
X194207857Y-127484286D01*
X193922143Y-127555714D01*
X193779286Y-127627143D01*
X193707857Y-127698572D01*
X193636429Y-127841429D01*
X193636429Y-127984286D01*
X193707857Y-128127143D01*
X193779286Y-128198572D01*
X193922143Y-128270000D01*
X194207857Y-128341429D01*
X194565000Y-128341429D01*
X194850714Y-128270000D01*
X194993571Y-128198572D01*
X195065000Y-128127143D01*
X195136429Y-127984286D01*
X193707857Y-125770001D02*
X193636429Y-125555715D01*
X193636429Y-125198572D01*
X193707857Y-125055715D01*
X193779286Y-124984286D01*
X193922143Y-124912858D01*
X194065000Y-124912858D01*
X194207857Y-124984286D01*
X194279286Y-125055715D01*
X194350714Y-125198572D01*
X194422143Y-125484286D01*
X194493571Y-125627144D01*
X194565000Y-125698572D01*
X194707857Y-125770001D01*
X194850714Y-125770001D01*
X194993571Y-125698572D01*
X195065000Y-125627144D01*
X195136429Y-125484286D01*
X195136429Y-125127144D01*
X195065000Y-124912858D01*
X194350714Y-123984287D02*
X193636429Y-123984287D01*
X195136429Y-124484287D02*
X194350714Y-123984287D01*
X195136429Y-123484287D01*
X193636429Y-122984287D02*
X195136429Y-122984287D01*
X193636429Y-122127144D01*
X195136429Y-122127144D01*
X195136429Y-121627144D02*
X195136429Y-120770001D01*
X193636429Y-121198572D02*
X195136429Y-121198572D01*
X193636429Y-120270001D02*
X195136429Y-120270001D01*
X194422143Y-120270001D02*
X194422143Y-119412858D01*
X193636429Y-119412858D02*
X195136429Y-119412858D01*
X191157857Y-137198572D02*
X191086429Y-136984286D01*
X191086429Y-136627143D01*
X191157857Y-136484286D01*
X191229286Y-136412857D01*
X191372143Y-136341429D01*
X191515000Y-136341429D01*
X191657857Y-136412857D01*
X191729286Y-136484286D01*
X191800714Y-136627143D01*
X191872143Y-136912857D01*
X191943571Y-137055715D01*
X192015000Y-137127143D01*
X192157857Y-137198572D01*
X192300714Y-137198572D01*
X192443571Y-137127143D01*
X192515000Y-137055715D01*
X192586429Y-136912857D01*
X192586429Y-136555715D01*
X192515000Y-136341429D01*
X192586429Y-135912858D02*
X192586429Y-135055715D01*
X191086429Y-135484286D02*
X192586429Y-135484286D01*
X191872143Y-134555715D02*
X191872143Y-134055715D01*
X191086429Y-133841429D02*
X191086429Y-134555715D01*
X192586429Y-134555715D01*
X192586429Y-133841429D01*
X191086429Y-133198572D02*
X192586429Y-133198572D01*
X192586429Y-132627144D01*
X192515000Y-132484286D01*
X192443571Y-132412858D01*
X192300714Y-132341429D01*
X192086429Y-132341429D01*
X191943571Y-132412858D01*
X191872143Y-132484286D01*
X191800714Y-132627144D01*
X191800714Y-133198572D01*
X191086429Y-131698572D02*
X192586429Y-131698572D01*
X191872143Y-131698572D02*
X191872143Y-130841429D01*
X191086429Y-130841429D02*
X192586429Y-130841429D01*
X191872143Y-130127143D02*
X191872143Y-129627143D01*
X191086429Y-129412857D02*
X191086429Y-130127143D01*
X192586429Y-130127143D01*
X192586429Y-129412857D01*
X191086429Y-128770000D02*
X192586429Y-128770000D01*
X191086429Y-127912857D01*
X192586429Y-127912857D01*
X191086429Y-126055714D02*
X192586429Y-126055714D01*
X191872143Y-126055714D02*
X191872143Y-125198571D01*
X191086429Y-125198571D02*
X192586429Y-125198571D01*
X191515000Y-124555714D02*
X191515000Y-123841428D01*
X191086429Y-124698571D02*
X192586429Y-124198571D01*
X191086429Y-123698571D01*
X192586429Y-123341428D02*
X191086429Y-122984285D01*
X192157857Y-122698571D01*
X191086429Y-122412857D01*
X192586429Y-122055714D01*
X191872143Y-121484285D02*
X191872143Y-120984285D01*
X191086429Y-120769999D02*
X191086429Y-121484285D01*
X192586429Y-121484285D01*
X192586429Y-120769999D01*
X191157857Y-120198571D02*
X191086429Y-119984285D01*
X191086429Y-119627142D01*
X191157857Y-119484285D01*
X191229286Y-119412856D01*
X191372143Y-119341428D01*
X191515000Y-119341428D01*
X191657857Y-119412856D01*
X191729286Y-119484285D01*
X191800714Y-119627142D01*
X191872143Y-119912856D01*
X191943571Y-120055714D01*
X192015000Y-120127142D01*
X192157857Y-120198571D01*
X192300714Y-120198571D01*
X192443571Y-120127142D01*
X192515000Y-120055714D01*
X192586429Y-119912856D01*
X192586429Y-119555714D01*
X192515000Y-119341428D01*
D12*
X215880000Y-118745000D03*
X213380000Y-118745000D03*
D13*
X230505000Y-90150000D03*
X230505000Y-87650000D03*
D14*
X226695000Y-86360000D03*
D15*
X224155000Y-86360000D03*
X221615000Y-86360000D03*
D14*
X207645000Y-139700000D03*
D15*
X205105000Y-139700000D03*
X202565000Y-139700000D03*
D16*
X222885000Y-125095000D03*
X228885000Y-125095000D03*
X225885000Y-120395000D03*
X222885000Y-139700000D03*
X228885000Y-139700000D03*
X225885000Y-135000000D03*
D17*
X194310000Y-105410000D03*
D18*
X194310000Y-115570000D03*
D17*
X194310000Y-91440000D03*
D18*
X194310000Y-101600000D03*
D17*
X193040000Y-88265000D03*
D18*
X203200000Y-88265000D03*
D17*
X221615000Y-101600000D03*
D18*
X221615000Y-91440000D03*
D17*
X215900000Y-115570000D03*
D18*
X215900000Y-105410000D03*
D17*
X215900000Y-91440000D03*
D18*
X215900000Y-101600000D03*
D17*
X221615000Y-105410000D03*
D18*
X221615000Y-115570000D03*
D17*
X227330000Y-115570000D03*
D18*
X227330000Y-105410000D03*
D17*
X227330000Y-91440000D03*
D18*
X227330000Y-101600000D03*
D14*
X210820000Y-86360000D03*
D15*
X213360000Y-86360000D03*
X215900000Y-86360000D03*
D14*
X202565000Y-133985000D03*
D15*
X205105000Y-133985000D03*
X207645000Y-133985000D03*
D14*
X198755000Y-83820000D03*
D15*
X196215000Y-83820000D03*
X193675000Y-83820000D03*
D19*
X201295000Y-127635000D03*
D20*
X208915000Y-120015000D03*
X201295000Y-125095000D03*
X208915000Y-122555000D03*
X201295000Y-122555000D03*
X208915000Y-125095000D03*
X201295000Y-120015000D03*
X208915000Y-127635000D03*
D19*
X201295000Y-93345000D03*
D20*
X208915000Y-111125000D03*
X201295000Y-95885000D03*
X208915000Y-108585000D03*
X201295000Y-98425000D03*
X208915000Y-106045000D03*
X201295000Y-100965000D03*
X208915000Y-103505000D03*
X201295000Y-103505000D03*
X208915000Y-100965000D03*
X201295000Y-106045000D03*
X208915000Y-98425000D03*
X201295000Y-108585000D03*
X208915000Y-95885000D03*
X201295000Y-111125000D03*
X208915000Y-93345000D03*
D21*
X226695000Y-86360000D02*
X229215000Y-86360000D01*
X229215000Y-86360000D02*
X230505000Y-87650000D01*
X228885000Y-125095000D02*
X228885000Y-117125000D01*
X228885000Y-117125000D02*
X227330000Y-115570000D01*
X215900000Y-115570000D02*
X217170000Y-115570000D01*
X224790000Y-113030000D02*
X227330000Y-115570000D01*
X219710000Y-113030000D02*
X224790000Y-113030000D01*
X217170000Y-115570000D02*
X219710000Y-113030000D01*
X215880000Y-118745000D02*
X215880000Y-115590000D01*
X215880000Y-115590000D02*
X215900000Y-115570000D01*
X212090000Y-113665000D02*
X213380000Y-114955000D01*
X213380000Y-118745000D02*
X213380000Y-114955000D01*
X212090000Y-108585000D02*
X212090000Y-113665000D01*
X211455000Y-107950000D02*
X209550000Y-106045000D01*
X211455000Y-107950000D02*
X212090000Y-108585000D01*
X208915000Y-106045000D02*
X209550000Y-106045000D01*
X227330000Y-91440000D02*
X229215000Y-91440000D01*
X229215000Y-91440000D02*
X230505000Y-90150000D01*
X221615000Y-91440000D02*
X221615000Y-86360000D01*
X202565000Y-139700000D02*
X202565000Y-139065000D01*
X202565000Y-139065000D02*
X205105000Y-136525000D01*
X205105000Y-136525000D02*
X205105000Y-133985000D01*
X208915000Y-93345000D02*
X208915000Y-88265000D01*
X208915000Y-88265000D02*
X210820000Y-86360000D01*
X210820000Y-86360000D02*
X210820000Y-85090000D01*
X233045000Y-118745000D02*
X233045000Y-127000000D01*
X226695000Y-128905000D02*
X222885000Y-125095000D01*
X231140000Y-128905000D02*
X226695000Y-128905000D01*
X233045000Y-127000000D02*
X231140000Y-128905000D01*
X227330000Y-95250000D02*
X227330000Y-98425000D01*
X227330000Y-98425000D02*
X233045000Y-104140000D01*
X233045000Y-104140000D02*
X233045000Y-118745000D01*
X229870000Y-92710000D02*
X227330000Y-95250000D01*
X231140000Y-92710000D02*
X229870000Y-92710000D01*
X232410000Y-91440000D02*
X231140000Y-92710000D01*
X232410000Y-85090000D02*
X232410000Y-91440000D01*
X231140000Y-83820000D02*
X232410000Y-85090000D01*
X212090000Y-83820000D02*
X231140000Y-83820000D01*
X210820000Y-85090000D02*
X212090000Y-83820000D01*
X208915000Y-127635000D02*
X220345000Y-127635000D01*
X220345000Y-127635000D02*
X222885000Y-125095000D01*
X221615000Y-115570000D02*
X220980000Y-115570000D01*
X220980000Y-115570000D02*
X219075000Y-117475000D01*
X219075000Y-117475000D02*
X219075000Y-121285000D01*
X219075000Y-121285000D02*
X222885000Y-125095000D01*
X211455000Y-86995000D02*
X210820000Y-86360000D01*
X220980000Y-127000000D02*
X222885000Y-125095000D01*
X208280000Y-143510000D02*
X210820000Y-140970000D01*
X212090000Y-135255000D02*
X221615000Y-135255000D01*
X210820000Y-136525000D02*
X212090000Y-135255000D01*
X210820000Y-140970000D02*
X210820000Y-136525000D01*
X198755000Y-120015000D02*
X198755000Y-141605000D01*
X200660000Y-143510000D02*
X208280000Y-143510000D01*
X198755000Y-141605000D02*
X200660000Y-143510000D01*
X201295000Y-120015000D02*
X198755000Y-120015000D01*
X198755000Y-120015000D02*
X195580000Y-116840000D01*
X225630000Y-135255000D02*
X221615000Y-135255000D01*
X225630000Y-135255000D02*
X225885000Y-135000000D01*
X195580000Y-116840000D02*
X194310000Y-115570000D01*
X190500000Y-85090000D02*
X190500000Y-97790000D01*
X194310000Y-101600000D02*
X190500000Y-97790000D01*
X191770000Y-83820000D02*
X196215000Y-83820000D01*
X190500000Y-85090000D02*
X191770000Y-83820000D01*
X196215000Y-83820000D02*
X193675000Y-83820000D01*
X194310000Y-105410000D02*
X194310000Y-101600000D01*
X194310000Y-101600000D02*
X197485000Y-98425000D01*
X197485000Y-98425000D02*
X201295000Y-98425000D01*
X201295000Y-95885000D02*
X198755000Y-95885000D01*
X198755000Y-95885000D02*
X194310000Y-91440000D01*
X193040000Y-88265000D02*
X196850000Y-88265000D01*
X198755000Y-86360000D02*
X198755000Y-83820000D01*
X196850000Y-88265000D02*
X198755000Y-86360000D01*
X201295000Y-93345000D02*
X201295000Y-90170000D01*
X201295000Y-90170000D02*
X203200000Y-88265000D01*
X215900000Y-101600000D02*
X215900000Y-98425000D01*
X213360000Y-95885000D02*
X208915000Y-95885000D01*
X215900000Y-98425000D02*
X213360000Y-95885000D01*
X215265000Y-100965000D02*
X215900000Y-101600000D01*
X215900000Y-101600000D02*
X221615000Y-101600000D01*
X221615000Y-101600000D02*
X227330000Y-101600000D01*
X215900000Y-105410000D02*
X213360000Y-102870000D01*
X212090000Y-98425000D02*
X208915000Y-98425000D01*
X213360000Y-99695000D02*
X212090000Y-98425000D01*
X213360000Y-102870000D02*
X213360000Y-99695000D01*
X215900000Y-91440000D02*
X213360000Y-88900000D01*
X213360000Y-88900000D02*
X213360000Y-86360000D01*
X208915000Y-100965000D02*
X210185000Y-100965000D01*
X219075000Y-107950000D02*
X221615000Y-105410000D01*
X215265000Y-107950000D02*
X219075000Y-107950000D01*
X212090000Y-104775000D02*
X215265000Y-107950000D01*
X212090000Y-102870000D02*
X212090000Y-104775000D01*
X210185000Y-100965000D02*
X212090000Y-102870000D01*
X227330000Y-105410000D02*
X221615000Y-105410000D01*
X202565000Y-133985000D02*
X202565000Y-128905000D01*
X202565000Y-128905000D02*
X201295000Y-127635000D01*
X201295000Y-125095000D02*
X201295000Y-127635000D01*
X208915000Y-122555000D02*
X208915000Y-125095000D01*
X208915000Y-125095000D02*
X207010000Y-125095000D01*
X205740000Y-126365000D02*
X205740000Y-130810000D01*
X207010000Y-125095000D02*
X205740000Y-126365000D01*
X205740000Y-130810000D02*
X207645000Y-132715000D01*
X207645000Y-132715000D02*
X207645000Y-133985000D01*
X201295000Y-122555000D02*
X203200000Y-122555000D01*
X204470000Y-111760000D02*
X203835000Y-111125000D01*
X203835000Y-111125000D02*
X201295000Y-111125000D01*
X204470000Y-121285000D02*
X204470000Y-111760000D01*
X203200000Y-122555000D02*
X204470000Y-121285000D01*
X206375000Y-109855000D02*
X207645000Y-108585000D01*
X208915000Y-120015000D02*
X208915000Y-118110000D01*
X208915000Y-118110000D02*
X206375000Y-115570000D01*
X206375000Y-115570000D02*
X206375000Y-109855000D01*
X207645000Y-108585000D02*
X208915000Y-108585000D01*
D22*
G36*
X235764000Y-144959000D02*
X189051000Y-144959000D01*
X189051000Y-141605000D01*
X190044000Y-141605000D01*
X190223720Y-142508516D01*
X190735521Y-143274479D01*
X191501484Y-143786280D01*
X192405000Y-143966000D01*
X193308516Y-143786280D01*
X194074479Y-143274479D01*
X194586280Y-142508516D01*
X194766000Y-141605000D01*
X194586280Y-140701484D01*
X194074479Y-139935521D01*
X193308516Y-139423720D01*
X192405000Y-139244000D01*
X191501484Y-139423720D01*
X190735521Y-139935521D01*
X190223720Y-140701484D01*
X190044000Y-141605000D01*
X189051000Y-141605000D01*
X189051000Y-118674714D01*
X190034000Y-118674714D01*
X190034000Y-137865286D01*
X195896000Y-137865286D01*
X195896000Y-118674714D01*
X190034000Y-118674714D01*
X189051000Y-118674714D01*
X189051000Y-115546863D01*
X193129000Y-115546863D01*
X193129000Y-115593137D01*
X193218898Y-116045086D01*
X193474907Y-116428230D01*
X193858051Y-116684239D01*
X194310000Y-116774137D01*
X194565324Y-116723350D01*
X198120000Y-120278026D01*
X198120000Y-141605000D01*
X198168336Y-141848004D01*
X198305987Y-142054013D01*
X200210987Y-143959013D01*
X200416996Y-144096664D01*
X200660000Y-144145000D01*
X208280000Y-144145000D01*
X208523004Y-144096664D01*
X208729013Y-143959013D01*
X211083025Y-141605000D01*
X213539000Y-141605000D01*
X213718720Y-142508516D01*
X214230521Y-143274479D01*
X214996484Y-143786280D01*
X215900000Y-143966000D01*
X216803516Y-143786280D01*
X217569479Y-143274479D01*
X218081280Y-142508516D01*
X218261000Y-141605000D01*
X218081280Y-140701484D01*
X217603042Y-139985750D01*
X220500000Y-139985750D01*
X220500000Y-141576310D01*
X220596673Y-141809699D01*
X220775302Y-141988327D01*
X221008691Y-142085000D01*
X222599250Y-142085000D01*
X222758000Y-141926250D01*
X222758000Y-139827000D01*
X223012000Y-139827000D01*
X223012000Y-141926250D01*
X223170750Y-142085000D01*
X224761309Y-142085000D01*
X224994698Y-141988327D01*
X225173327Y-141809699D01*
X225270000Y-141576310D01*
X225270000Y-139985750D01*
X225111250Y-139827000D01*
X223012000Y-139827000D01*
X222758000Y-139827000D01*
X220658750Y-139827000D01*
X220500000Y-139985750D01*
X217603042Y-139985750D01*
X217569479Y-139935521D01*
X216803516Y-139423720D01*
X215900000Y-139244000D01*
X214996484Y-139423720D01*
X214230521Y-139935521D01*
X213718720Y-140701484D01*
X213539000Y-141605000D01*
X211083025Y-141605000D01*
X211269010Y-141419015D01*
X211269013Y-141419013D01*
X211351528Y-141295520D01*
X211406664Y-141213005D01*
X211455000Y-140970000D01*
X211455000Y-137823690D01*
X220500000Y-137823690D01*
X220500000Y-139414250D01*
X220658750Y-139573000D01*
X222758000Y-139573000D01*
X222758000Y-137473750D01*
X223012000Y-137473750D01*
X223012000Y-139573000D01*
X225111250Y-139573000D01*
X225270000Y-139414250D01*
X225270000Y-137950000D01*
X226746536Y-137950000D01*
X226746536Y-141450000D01*
X226773103Y-141591190D01*
X226856546Y-141720865D01*
X226983866Y-141807859D01*
X227135000Y-141838464D01*
X230635000Y-141838464D01*
X230776190Y-141811897D01*
X230905865Y-141728454D01*
X230992859Y-141601134D01*
X231023464Y-141450000D01*
X231023464Y-137950000D01*
X230996897Y-137808810D01*
X230913454Y-137679135D01*
X230786134Y-137592141D01*
X230635000Y-137561536D01*
X227135000Y-137561536D01*
X226993810Y-137588103D01*
X226864135Y-137671546D01*
X226777141Y-137798866D01*
X226746536Y-137950000D01*
X225270000Y-137950000D01*
X225270000Y-137823690D01*
X225173327Y-137590301D01*
X224994698Y-137411673D01*
X224761309Y-137315000D01*
X223170750Y-137315000D01*
X223012000Y-137473750D01*
X222758000Y-137473750D01*
X222599250Y-137315000D01*
X221008691Y-137315000D01*
X220775302Y-137411673D01*
X220596673Y-137590301D01*
X220500000Y-137823690D01*
X211455000Y-137823690D01*
X211455000Y-136788026D01*
X212353026Y-135890000D01*
X223746536Y-135890000D01*
X223746536Y-136750000D01*
X223773103Y-136891190D01*
X223856546Y-137020865D01*
X223983866Y-137107859D01*
X224135000Y-137138464D01*
X227635000Y-137138464D01*
X227776190Y-137111897D01*
X227905865Y-137028454D01*
X227992859Y-136901134D01*
X228023464Y-136750000D01*
X228023464Y-133250000D01*
X227996897Y-133108810D01*
X227913454Y-132979135D01*
X227786134Y-132892141D01*
X227635000Y-132861536D01*
X224135000Y-132861536D01*
X223993810Y-132888103D01*
X223864135Y-132971546D01*
X223777141Y-133098866D01*
X223746536Y-133250000D01*
X223746536Y-134620000D01*
X212090000Y-134620000D01*
X211846996Y-134668336D01*
X211640987Y-134805987D01*
X210370987Y-136075987D01*
X210233336Y-136281996D01*
X210185000Y-136525000D01*
X210185000Y-140706975D01*
X208016974Y-142875000D01*
X200923026Y-142875000D01*
X199390000Y-141341974D01*
X199390000Y-139675883D01*
X201334000Y-139675883D01*
X201334000Y-139724117D01*
X201427704Y-140195200D01*
X201694552Y-140594565D01*
X202093917Y-140861413D01*
X202565000Y-140955117D01*
X203036083Y-140861413D01*
X203435448Y-140594565D01*
X203702296Y-140195200D01*
X203796000Y-139724117D01*
X203796000Y-139675883D01*
X203874000Y-139675883D01*
X203874000Y-139724117D01*
X203967704Y-140195200D01*
X204234552Y-140594565D01*
X204633917Y-140861413D01*
X205105000Y-140955117D01*
X205576083Y-140861413D01*
X205975448Y-140594565D01*
X206160000Y-140318364D01*
X206160000Y-140676309D01*
X206256673Y-140909698D01*
X206435301Y-141088327D01*
X206668690Y-141185000D01*
X207359250Y-141185000D01*
X207518000Y-141026250D01*
X207518000Y-139827000D01*
X207772000Y-139827000D01*
X207772000Y-141026250D01*
X207930750Y-141185000D01*
X208621310Y-141185000D01*
X208854699Y-141088327D01*
X209033327Y-140909698D01*
X209130000Y-140676309D01*
X209130000Y-139985750D01*
X208971250Y-139827000D01*
X207772000Y-139827000D01*
X207518000Y-139827000D01*
X207498000Y-139827000D01*
X207498000Y-139573000D01*
X207518000Y-139573000D01*
X207518000Y-138373750D01*
X207772000Y-138373750D01*
X207772000Y-139573000D01*
X208971250Y-139573000D01*
X209130000Y-139414250D01*
X209130000Y-138723691D01*
X209033327Y-138490302D01*
X208854699Y-138311673D01*
X208621310Y-138215000D01*
X207930750Y-138215000D01*
X207772000Y-138373750D01*
X207518000Y-138373750D01*
X207359250Y-138215000D01*
X206668690Y-138215000D01*
X206435301Y-138311673D01*
X206256673Y-138490302D01*
X206160000Y-138723691D01*
X206160000Y-139081636D01*
X205975448Y-138805435D01*
X205576083Y-138538587D01*
X205105000Y-138444883D01*
X204633917Y-138538587D01*
X204234552Y-138805435D01*
X203967704Y-139204800D01*
X203874000Y-139675883D01*
X203796000Y-139675883D01*
X203702296Y-139204800D01*
X203550461Y-138977564D01*
X205554010Y-136974015D01*
X205554013Y-136974013D01*
X205636528Y-136850520D01*
X205691664Y-136768005D01*
X205740000Y-136525000D01*
X205740000Y-135036887D01*
X205975448Y-134879565D01*
X206242296Y-134480200D01*
X206336000Y-134009117D01*
X206336000Y-133960883D01*
X206242296Y-133489800D01*
X205975448Y-133090435D01*
X205576083Y-132823587D01*
X205105000Y-132729883D01*
X204633917Y-132823587D01*
X204234552Y-133090435D01*
X203967704Y-133489800D01*
X203874000Y-133960883D01*
X203874000Y-134009117D01*
X203967704Y-134480200D01*
X204234552Y-134879565D01*
X204470000Y-135036887D01*
X204470000Y-136261975D01*
X202218086Y-138513888D01*
X202093917Y-138538587D01*
X201694552Y-138805435D01*
X201427704Y-139204800D01*
X201334000Y-139675883D01*
X199390000Y-139675883D01*
X199390000Y-125095000D01*
X199683026Y-125095000D01*
X199772924Y-125546949D01*
X200028933Y-125930093D01*
X200412077Y-126186102D01*
X200660000Y-126235417D01*
X200660000Y-126446536D01*
X200095000Y-126446536D01*
X199953810Y-126473103D01*
X199824135Y-126556546D01*
X199737141Y-126683866D01*
X199706536Y-126835000D01*
X199706536Y-128435000D01*
X199733103Y-128576190D01*
X199816546Y-128705865D01*
X199943866Y-128792859D01*
X200095000Y-128823464D01*
X201585438Y-128823464D01*
X201930000Y-129168026D01*
X201930000Y-132746536D01*
X201715000Y-132746536D01*
X201573810Y-132773103D01*
X201444135Y-132856546D01*
X201357141Y-132983866D01*
X201326536Y-133135000D01*
X201326536Y-134835000D01*
X201353103Y-134976190D01*
X201436546Y-135105865D01*
X201563866Y-135192859D01*
X201715000Y-135223464D01*
X203415000Y-135223464D01*
X203556190Y-135196897D01*
X203685865Y-135113454D01*
X203772859Y-134986134D01*
X203803464Y-134835000D01*
X203803464Y-133135000D01*
X203776897Y-132993810D01*
X203693454Y-132864135D01*
X203566134Y-132777141D01*
X203415000Y-132746536D01*
X203200000Y-132746536D01*
X203200000Y-128905000D01*
X203151664Y-128661996D01*
X203014013Y-128455987D01*
X202883464Y-128325438D01*
X202883464Y-126835000D01*
X202856897Y-126693810D01*
X202773454Y-126564135D01*
X202646134Y-126477141D01*
X202495000Y-126446536D01*
X201930000Y-126446536D01*
X201930000Y-126365000D01*
X205105000Y-126365000D01*
X205105000Y-130810000D01*
X205153336Y-131053004D01*
X205290987Y-131259013D01*
X206983077Y-132951103D01*
X206774552Y-133090435D01*
X206507704Y-133489800D01*
X206414000Y-133960883D01*
X206414000Y-134009117D01*
X206507704Y-134480200D01*
X206774552Y-134879565D01*
X207173917Y-135146413D01*
X207645000Y-135240117D01*
X208116083Y-135146413D01*
X208515448Y-134879565D01*
X208782296Y-134480200D01*
X208876000Y-134009117D01*
X208876000Y-133960883D01*
X208782296Y-133489800D01*
X208515448Y-133090435D01*
X208280000Y-132933113D01*
X208280000Y-132715000D01*
X208231664Y-132471996D01*
X208094013Y-132265987D01*
X206375000Y-130546974D01*
X206375000Y-126628026D01*
X207273026Y-125730000D01*
X207515235Y-125730000D01*
X207648933Y-125930093D01*
X208032077Y-126186102D01*
X208484026Y-126276000D01*
X209345974Y-126276000D01*
X209797923Y-126186102D01*
X210181067Y-125930093D01*
X210437076Y-125546949D01*
X210526974Y-125095000D01*
X210437076Y-124643051D01*
X210181067Y-124259907D01*
X209797923Y-124003898D01*
X209550000Y-123954583D01*
X209550000Y-123695417D01*
X209797923Y-123646102D01*
X210181067Y-123390093D01*
X210437076Y-123006949D01*
X210526974Y-122555000D01*
X210437076Y-122103051D01*
X210181067Y-121719907D01*
X209797923Y-121463898D01*
X209345974Y-121374000D01*
X208484026Y-121374000D01*
X208032077Y-121463898D01*
X207648933Y-121719907D01*
X207392924Y-122103051D01*
X207303026Y-122555000D01*
X207392924Y-123006949D01*
X207648933Y-123390093D01*
X208032077Y-123646102D01*
X208280000Y-123695417D01*
X208280000Y-123954583D01*
X208032077Y-124003898D01*
X207648933Y-124259907D01*
X207515235Y-124460000D01*
X207010000Y-124460000D01*
X206766996Y-124508336D01*
X206560987Y-124645987D01*
X205290987Y-125915987D01*
X205153336Y-126121996D01*
X205105000Y-126365000D01*
X201930000Y-126365000D01*
X201930000Y-126235417D01*
X202177923Y-126186102D01*
X202561067Y-125930093D01*
X202817076Y-125546949D01*
X202906974Y-125095000D01*
X202817076Y-124643051D01*
X202561067Y-124259907D01*
X202177923Y-124003898D01*
X201725974Y-123914000D01*
X200864026Y-123914000D01*
X200412077Y-124003898D01*
X200028933Y-124259907D01*
X199772924Y-124643051D01*
X199683026Y-125095000D01*
X199390000Y-125095000D01*
X199390000Y-120650000D01*
X199895235Y-120650000D01*
X200028933Y-120850093D01*
X200412077Y-121106102D01*
X200864026Y-121196000D01*
X201725974Y-121196000D01*
X202177923Y-121106102D01*
X202561067Y-120850093D01*
X202817076Y-120466949D01*
X202906974Y-120015000D01*
X202817076Y-119563051D01*
X202561067Y-119179907D01*
X202177923Y-118923898D01*
X201725974Y-118834000D01*
X200864026Y-118834000D01*
X200412077Y-118923898D01*
X200028933Y-119179907D01*
X199895235Y-119380000D01*
X199018026Y-119380000D01*
X195447890Y-115809864D01*
X195491000Y-115593137D01*
X195491000Y-115546863D01*
X195401102Y-115094914D01*
X195145093Y-114711770D01*
X194761949Y-114455761D01*
X194310000Y-114365863D01*
X193858051Y-114455761D01*
X193474907Y-114711770D01*
X193218898Y-115094914D01*
X193129000Y-115546863D01*
X189051000Y-115546863D01*
X189051000Y-111125000D01*
X199683026Y-111125000D01*
X199772924Y-111576949D01*
X200028933Y-111960093D01*
X200412077Y-112216102D01*
X200864026Y-112306000D01*
X201725974Y-112306000D01*
X202177923Y-112216102D01*
X202561067Y-111960093D01*
X202694765Y-111760000D01*
X203571974Y-111760000D01*
X203835000Y-112023026D01*
X203835000Y-121021974D01*
X202936974Y-121920000D01*
X202694765Y-121920000D01*
X202561067Y-121719907D01*
X202177923Y-121463898D01*
X201725974Y-121374000D01*
X200864026Y-121374000D01*
X200412077Y-121463898D01*
X200028933Y-121719907D01*
X199772924Y-122103051D01*
X199683026Y-122555000D01*
X199772924Y-123006949D01*
X200028933Y-123390093D01*
X200412077Y-123646102D01*
X200864026Y-123736000D01*
X201725974Y-123736000D01*
X202177923Y-123646102D01*
X202561067Y-123390093D01*
X202694765Y-123190000D01*
X203200000Y-123190000D01*
X203443004Y-123141664D01*
X203649013Y-123004013D01*
X204919013Y-121734013D01*
X205056664Y-121528004D01*
X205105000Y-121285000D01*
X205105000Y-111760005D01*
X205105001Y-111760000D01*
X205056664Y-111516996D01*
X204919013Y-111310987D01*
X204284013Y-110675987D01*
X204078004Y-110538336D01*
X203835000Y-110490000D01*
X202694765Y-110490000D01*
X202561067Y-110289907D01*
X202177923Y-110033898D01*
X201725974Y-109944000D01*
X200864026Y-109944000D01*
X200412077Y-110033898D01*
X200028933Y-110289907D01*
X199772924Y-110673051D01*
X199683026Y-111125000D01*
X189051000Y-111125000D01*
X189051000Y-109855000D01*
X205740000Y-109855000D01*
X205740000Y-115570000D01*
X205788336Y-115813004D01*
X205925987Y-116019013D01*
X208280000Y-118373025D01*
X208280000Y-118874583D01*
X208032077Y-118923898D01*
X207648933Y-119179907D01*
X207392924Y-119563051D01*
X207303026Y-120015000D01*
X207392924Y-120466949D01*
X207648933Y-120850093D01*
X208032077Y-121106102D01*
X208484026Y-121196000D01*
X209345974Y-121196000D01*
X209797923Y-121106102D01*
X210181067Y-120850093D01*
X210437076Y-120466949D01*
X210526974Y-120015000D01*
X210437076Y-119563051D01*
X210181067Y-119179907D01*
X209797923Y-118923898D01*
X209550000Y-118874583D01*
X209550000Y-118110000D01*
X209501664Y-117866995D01*
X209431602Y-117762141D01*
X209364013Y-117660987D01*
X209364010Y-117660985D01*
X207010000Y-115306974D01*
X207010000Y-111125000D01*
X207303026Y-111125000D01*
X207392924Y-111576949D01*
X207648933Y-111960093D01*
X208032077Y-112216102D01*
X208484026Y-112306000D01*
X209345974Y-112306000D01*
X209797923Y-112216102D01*
X210181067Y-111960093D01*
X210437076Y-111576949D01*
X210526974Y-111125000D01*
X210437076Y-110673051D01*
X210181067Y-110289907D01*
X209797923Y-110033898D01*
X209345974Y-109944000D01*
X208484026Y-109944000D01*
X208032077Y-110033898D01*
X207648933Y-110289907D01*
X207392924Y-110673051D01*
X207303026Y-111125000D01*
X207010000Y-111125000D01*
X207010000Y-110118026D01*
X207684301Y-109443725D01*
X208032077Y-109676102D01*
X208484026Y-109766000D01*
X209345974Y-109766000D01*
X209797923Y-109676102D01*
X210181067Y-109420093D01*
X210437076Y-109036949D01*
X210526974Y-108585000D01*
X210437076Y-108133051D01*
X210181067Y-107749907D01*
X209797923Y-107493898D01*
X209345974Y-107404000D01*
X208484026Y-107404000D01*
X208032077Y-107493898D01*
X207648933Y-107749907D01*
X207495345Y-107979768D01*
X207401996Y-107998336D01*
X207195987Y-108135987D01*
X205925987Y-109405987D01*
X205788336Y-109611996D01*
X205740000Y-109855000D01*
X189051000Y-109855000D01*
X189051000Y-108585000D01*
X199683026Y-108585000D01*
X199772924Y-109036949D01*
X200028933Y-109420093D01*
X200412077Y-109676102D01*
X200864026Y-109766000D01*
X201725974Y-109766000D01*
X202177923Y-109676102D01*
X202561067Y-109420093D01*
X202817076Y-109036949D01*
X202906974Y-108585000D01*
X202817076Y-108133051D01*
X202561067Y-107749907D01*
X202177923Y-107493898D01*
X201725974Y-107404000D01*
X200864026Y-107404000D01*
X200412077Y-107493898D01*
X200028933Y-107749907D01*
X199772924Y-108133051D01*
X199683026Y-108585000D01*
X189051000Y-108585000D01*
X189051000Y-85090000D01*
X189865000Y-85090000D01*
X189865000Y-97790000D01*
X189913336Y-98033004D01*
X190050987Y-98239013D01*
X193172110Y-101360136D01*
X193129000Y-101576863D01*
X193129000Y-101623137D01*
X193218898Y-102075086D01*
X193474907Y-102458230D01*
X193675000Y-102591928D01*
X193675000Y-104394533D01*
X193641891Y-104408213D01*
X193309381Y-104740144D01*
X193129206Y-105174054D01*
X193128796Y-105643885D01*
X193308213Y-106078109D01*
X193640144Y-106410619D01*
X194074054Y-106590794D01*
X194543885Y-106591204D01*
X194978109Y-106411787D01*
X195310619Y-106079856D01*
X195325092Y-106045000D01*
X199683026Y-106045000D01*
X199772924Y-106496949D01*
X200028933Y-106880093D01*
X200412077Y-107136102D01*
X200864026Y-107226000D01*
X201725974Y-107226000D01*
X202177923Y-107136102D01*
X202561067Y-106880093D01*
X202817076Y-106496949D01*
X202906974Y-106045000D01*
X202817076Y-105593051D01*
X202561067Y-105209907D01*
X202177923Y-104953898D01*
X201725974Y-104864000D01*
X200864026Y-104864000D01*
X200412077Y-104953898D01*
X200028933Y-105209907D01*
X199772924Y-105593051D01*
X199683026Y-106045000D01*
X195325092Y-106045000D01*
X195490794Y-105645946D01*
X195491204Y-105176115D01*
X195311787Y-104741891D01*
X194979856Y-104409381D01*
X194945000Y-104394908D01*
X194945000Y-103505000D01*
X199683026Y-103505000D01*
X199772924Y-103956949D01*
X200028933Y-104340093D01*
X200412077Y-104596102D01*
X200864026Y-104686000D01*
X201725974Y-104686000D01*
X202177923Y-104596102D01*
X202561067Y-104340093D01*
X202817076Y-103956949D01*
X202837546Y-103854039D01*
X207123096Y-103854039D01*
X207140633Y-103936819D01*
X207410500Y-104429896D01*
X207848517Y-104782166D01*
X208272228Y-104906129D01*
X208032077Y-104953898D01*
X207648933Y-105209907D01*
X207392924Y-105593051D01*
X207303026Y-106045000D01*
X207392924Y-106496949D01*
X207648933Y-106880093D01*
X208032077Y-107136102D01*
X208484026Y-107226000D01*
X209345974Y-107226000D01*
X209752176Y-107145202D01*
X211455000Y-108848026D01*
X211455000Y-113665000D01*
X211503336Y-113908004D01*
X211640987Y-114114013D01*
X212745000Y-115218025D01*
X212745000Y-117731536D01*
X212630000Y-117731536D01*
X212488810Y-117758103D01*
X212359135Y-117841546D01*
X212272141Y-117968866D01*
X212241536Y-118120000D01*
X212241536Y-119370000D01*
X212268103Y-119511190D01*
X212351546Y-119640865D01*
X212478866Y-119727859D01*
X212630000Y-119758464D01*
X214130000Y-119758464D01*
X214271190Y-119731897D01*
X214400865Y-119648454D01*
X214487859Y-119521134D01*
X214495000Y-119485870D01*
X214495000Y-119496310D01*
X214591673Y-119729699D01*
X214770302Y-119908327D01*
X215003691Y-120005000D01*
X215594250Y-120005000D01*
X215753000Y-119846250D01*
X215753000Y-118872000D01*
X216007000Y-118872000D01*
X216007000Y-119846250D01*
X216165750Y-120005000D01*
X216756309Y-120005000D01*
X216989698Y-119908327D01*
X217168327Y-119729699D01*
X217265000Y-119496310D01*
X217265000Y-119030750D01*
X217106250Y-118872000D01*
X216007000Y-118872000D01*
X215753000Y-118872000D01*
X215733000Y-118872000D01*
X215733000Y-118618000D01*
X215753000Y-118618000D01*
X215753000Y-117643750D01*
X216007000Y-117643750D01*
X216007000Y-118618000D01*
X217106250Y-118618000D01*
X217265000Y-118459250D01*
X217265000Y-117993690D01*
X217168327Y-117760301D01*
X216989698Y-117581673D01*
X216756309Y-117485000D01*
X216165750Y-117485000D01*
X216007000Y-117643750D01*
X215753000Y-117643750D01*
X215594250Y-117485000D01*
X215003691Y-117485000D01*
X214770302Y-117581673D01*
X214591673Y-117760301D01*
X214495000Y-117993690D01*
X214495000Y-117995301D01*
X214491897Y-117978810D01*
X214408454Y-117849135D01*
X214281134Y-117762141D01*
X214130000Y-117731536D01*
X214015000Y-117731536D01*
X214015000Y-116577745D01*
X215071861Y-116577745D01*
X215145995Y-116823864D01*
X215683223Y-117016965D01*
X216253454Y-116989778D01*
X216654005Y-116823864D01*
X216728139Y-116577745D01*
X215900000Y-115749605D01*
X215071861Y-116577745D01*
X214015000Y-116577745D01*
X214015000Y-115353223D01*
X214453035Y-115353223D01*
X214480222Y-115923454D01*
X214646136Y-116324005D01*
X214892255Y-116398139D01*
X215720395Y-115570000D01*
X216079605Y-115570000D01*
X216907745Y-116398139D01*
X217153864Y-116324005D01*
X217346965Y-115786777D01*
X217319778Y-115216546D01*
X217153864Y-114815995D01*
X216907745Y-114741861D01*
X216079605Y-115570000D01*
X215720395Y-115570000D01*
X214892255Y-114741861D01*
X214646136Y-114815995D01*
X214453035Y-115353223D01*
X214015000Y-115353223D01*
X214015000Y-114955000D01*
X214011022Y-114935000D01*
X213966664Y-114711995D01*
X213866610Y-114562255D01*
X215071861Y-114562255D01*
X215900000Y-115390395D01*
X216728139Y-114562255D01*
X216654005Y-114316136D01*
X216116777Y-114123035D01*
X215546546Y-114150222D01*
X215145995Y-114316136D01*
X215071861Y-114562255D01*
X213866610Y-114562255D01*
X213829013Y-114505987D01*
X213829010Y-114505985D01*
X212725000Y-113401974D01*
X212725000Y-108585005D01*
X212725001Y-108585000D01*
X212676664Y-108341996D01*
X212539013Y-108135987D01*
X210513876Y-106110850D01*
X210526974Y-106045000D01*
X210437076Y-105593051D01*
X210181067Y-105209907D01*
X209797923Y-104953898D01*
X209557772Y-104906129D01*
X209981483Y-104782166D01*
X210419500Y-104429896D01*
X210689367Y-103936819D01*
X210706904Y-103854039D01*
X210584915Y-103632000D01*
X209042000Y-103632000D01*
X209042000Y-103652000D01*
X208788000Y-103652000D01*
X208788000Y-103632000D01*
X207245085Y-103632000D01*
X207123096Y-103854039D01*
X202837546Y-103854039D01*
X202906974Y-103505000D01*
X202837547Y-103155961D01*
X207123096Y-103155961D01*
X207245085Y-103378000D01*
X208788000Y-103378000D01*
X208788000Y-103358000D01*
X209042000Y-103358000D01*
X209042000Y-103378000D01*
X210584915Y-103378000D01*
X210706904Y-103155961D01*
X210689367Y-103073181D01*
X210419500Y-102580104D01*
X209981483Y-102227834D01*
X209557772Y-102103871D01*
X209797923Y-102056102D01*
X210145699Y-101823725D01*
X211455000Y-103133026D01*
X211455000Y-104775000D01*
X211503336Y-105018004D01*
X211640987Y-105224013D01*
X214815987Y-108399013D01*
X215021996Y-108536664D01*
X215265000Y-108585000D01*
X219075000Y-108585000D01*
X219318004Y-108536664D01*
X219524013Y-108399013D01*
X221345969Y-106577056D01*
X221379054Y-106590794D01*
X221848885Y-106591204D01*
X222283109Y-106411787D01*
X222615619Y-106079856D01*
X222630092Y-106045000D01*
X226345749Y-106045000D01*
X226494907Y-106268230D01*
X226878051Y-106524239D01*
X227330000Y-106614137D01*
X227781949Y-106524239D01*
X228165093Y-106268230D01*
X228421102Y-105885086D01*
X228511000Y-105433137D01*
X228511000Y-105386863D01*
X228421102Y-104934914D01*
X228165093Y-104551770D01*
X227781949Y-104295761D01*
X227330000Y-104205863D01*
X226878051Y-104295761D01*
X226494907Y-104551770D01*
X226345749Y-104775000D01*
X222630467Y-104775000D01*
X222616787Y-104741891D01*
X222284856Y-104409381D01*
X221850946Y-104229206D01*
X221381115Y-104228796D01*
X220946891Y-104408213D01*
X220614381Y-104740144D01*
X220434206Y-105174054D01*
X220433796Y-105643885D01*
X220448209Y-105678766D01*
X218811974Y-107315000D01*
X215528026Y-107315000D01*
X212725000Y-104511974D01*
X212725000Y-102870000D01*
X212676664Y-102626996D01*
X212539013Y-102420987D01*
X210634013Y-100515987D01*
X210428004Y-100378336D01*
X210334655Y-100359768D01*
X210181067Y-100129907D01*
X209797923Y-99873898D01*
X209345974Y-99784000D01*
X208484026Y-99784000D01*
X208032077Y-99873898D01*
X207648933Y-100129907D01*
X207392924Y-100513051D01*
X207303026Y-100965000D01*
X207392924Y-101416949D01*
X207648933Y-101800093D01*
X208032077Y-102056102D01*
X208272228Y-102103871D01*
X207848517Y-102227834D01*
X207410500Y-102580104D01*
X207140633Y-103073181D01*
X207123096Y-103155961D01*
X202837547Y-103155961D01*
X202817076Y-103053051D01*
X202561067Y-102669907D01*
X202177923Y-102413898D01*
X201725974Y-102324000D01*
X200864026Y-102324000D01*
X200412077Y-102413898D01*
X200028933Y-102669907D01*
X199772924Y-103053051D01*
X199683026Y-103505000D01*
X194945000Y-103505000D01*
X194945000Y-102591928D01*
X195145093Y-102458230D01*
X195401102Y-102075086D01*
X195491000Y-101623137D01*
X195491000Y-101576863D01*
X195447890Y-101360136D01*
X195843026Y-100965000D01*
X199683026Y-100965000D01*
X199772924Y-101416949D01*
X200028933Y-101800093D01*
X200412077Y-102056102D01*
X200864026Y-102146000D01*
X201725974Y-102146000D01*
X202177923Y-102056102D01*
X202561067Y-101800093D01*
X202817076Y-101416949D01*
X202906974Y-100965000D01*
X202817076Y-100513051D01*
X202561067Y-100129907D01*
X202177923Y-99873898D01*
X201725974Y-99784000D01*
X200864026Y-99784000D01*
X200412077Y-99873898D01*
X200028933Y-100129907D01*
X199772924Y-100513051D01*
X199683026Y-100965000D01*
X195843026Y-100965000D01*
X197748026Y-99060000D01*
X199895235Y-99060000D01*
X200028933Y-99260093D01*
X200412077Y-99516102D01*
X200864026Y-99606000D01*
X201725974Y-99606000D01*
X202177923Y-99516102D01*
X202561067Y-99260093D01*
X202817076Y-98876949D01*
X202906974Y-98425000D01*
X207303026Y-98425000D01*
X207392924Y-98876949D01*
X207648933Y-99260093D01*
X208032077Y-99516102D01*
X208484026Y-99606000D01*
X209345974Y-99606000D01*
X209797923Y-99516102D01*
X210181067Y-99260093D01*
X210314765Y-99060000D01*
X211826974Y-99060000D01*
X212725000Y-99958026D01*
X212725000Y-102870000D01*
X212773336Y-103113004D01*
X212910987Y-103319013D01*
X214762110Y-105170135D01*
X214719000Y-105386863D01*
X214719000Y-105433137D01*
X214808898Y-105885086D01*
X215064907Y-106268230D01*
X215448051Y-106524239D01*
X215900000Y-106614137D01*
X216351949Y-106524239D01*
X216735093Y-106268230D01*
X216991102Y-105885086D01*
X217081000Y-105433137D01*
X217081000Y-105386863D01*
X216991102Y-104934914D01*
X216735093Y-104551770D01*
X216351949Y-104295761D01*
X215900000Y-104205863D01*
X215644675Y-104256650D01*
X213995000Y-102606974D01*
X213995000Y-99695000D01*
X213946664Y-99451996D01*
X213809013Y-99245987D01*
X212539013Y-97975987D01*
X212333004Y-97838336D01*
X212090000Y-97790000D01*
X210314765Y-97790000D01*
X210181067Y-97589907D01*
X209797923Y-97333898D01*
X209345974Y-97244000D01*
X208484026Y-97244000D01*
X208032077Y-97333898D01*
X207648933Y-97589907D01*
X207392924Y-97973051D01*
X207303026Y-98425000D01*
X202906974Y-98425000D01*
X202817076Y-97973051D01*
X202561067Y-97589907D01*
X202177923Y-97333898D01*
X201725974Y-97244000D01*
X200864026Y-97244000D01*
X200412077Y-97333898D01*
X200028933Y-97589907D01*
X199895235Y-97790000D01*
X197485000Y-97790000D01*
X197241996Y-97838336D01*
X197035987Y-97975987D01*
X194565324Y-100446650D01*
X194310000Y-100395863D01*
X194054676Y-100446650D01*
X191135000Y-97526974D01*
X191135000Y-91673885D01*
X193128796Y-91673885D01*
X193308213Y-92108109D01*
X193640144Y-92440619D01*
X194074054Y-92620794D01*
X194543885Y-92621204D01*
X194578766Y-92606792D01*
X198305987Y-96334013D01*
X198511995Y-96471664D01*
X198755000Y-96520000D01*
X199895235Y-96520000D01*
X200028933Y-96720093D01*
X200412077Y-96976102D01*
X200864026Y-97066000D01*
X201725974Y-97066000D01*
X202177923Y-96976102D01*
X202561067Y-96720093D01*
X202817076Y-96336949D01*
X202906974Y-95885000D01*
X207303026Y-95885000D01*
X207392924Y-96336949D01*
X207648933Y-96720093D01*
X208032077Y-96976102D01*
X208484026Y-97066000D01*
X209345974Y-97066000D01*
X209797923Y-96976102D01*
X210181067Y-96720093D01*
X210314765Y-96520000D01*
X213096974Y-96520000D01*
X215265000Y-98688025D01*
X215265000Y-100330000D01*
X215021996Y-100378336D01*
X214815987Y-100515987D01*
X214678336Y-100721996D01*
X214630000Y-100965000D01*
X214678336Y-101208004D01*
X214766211Y-101339518D01*
X214719000Y-101576863D01*
X214719000Y-101623137D01*
X214808898Y-102075086D01*
X215064907Y-102458230D01*
X215448051Y-102714239D01*
X215900000Y-102804137D01*
X216351949Y-102714239D01*
X216735093Y-102458230D01*
X216884251Y-102235000D01*
X220599533Y-102235000D01*
X220613213Y-102268109D01*
X220945144Y-102600619D01*
X221379054Y-102780794D01*
X221848885Y-102781204D01*
X222283109Y-102601787D01*
X222615619Y-102269856D01*
X222630092Y-102235000D01*
X226345749Y-102235000D01*
X226494907Y-102458230D01*
X226878051Y-102714239D01*
X227330000Y-102804137D01*
X227781949Y-102714239D01*
X228165093Y-102458230D01*
X228421102Y-102075086D01*
X228511000Y-101623137D01*
X228511000Y-101576863D01*
X228421102Y-101124914D01*
X228165093Y-100741770D01*
X227781949Y-100485761D01*
X227330000Y-100395863D01*
X226878051Y-100485761D01*
X226494907Y-100741770D01*
X226345749Y-100965000D01*
X222630467Y-100965000D01*
X222616787Y-100931891D01*
X222284856Y-100599381D01*
X221850946Y-100419206D01*
X221381115Y-100418796D01*
X220946891Y-100598213D01*
X220614381Y-100930144D01*
X220599908Y-100965000D01*
X216884251Y-100965000D01*
X216735093Y-100741770D01*
X216535000Y-100608072D01*
X216535000Y-98425000D01*
X216486664Y-98181995D01*
X216404157Y-98058516D01*
X216349013Y-97975987D01*
X216349010Y-97975985D01*
X213809013Y-95435987D01*
X213603004Y-95298336D01*
X213360000Y-95250000D01*
X210314765Y-95250000D01*
X210181067Y-95049907D01*
X209797923Y-94793898D01*
X209345974Y-94704000D01*
X208484026Y-94704000D01*
X208032077Y-94793898D01*
X207648933Y-95049907D01*
X207392924Y-95433051D01*
X207303026Y-95885000D01*
X202906974Y-95885000D01*
X202817076Y-95433051D01*
X202561067Y-95049907D01*
X202177923Y-94793898D01*
X201725974Y-94704000D01*
X200864026Y-94704000D01*
X200412077Y-94793898D01*
X200028933Y-95049907D01*
X199895235Y-95250000D01*
X199018026Y-95250000D01*
X196313026Y-92545000D01*
X199706536Y-92545000D01*
X199706536Y-94145000D01*
X199733103Y-94286190D01*
X199816546Y-94415865D01*
X199943866Y-94502859D01*
X200095000Y-94533464D01*
X202495000Y-94533464D01*
X202636190Y-94506897D01*
X202765865Y-94423454D01*
X202852859Y-94296134D01*
X202883464Y-94145000D01*
X202883464Y-93345000D01*
X207303026Y-93345000D01*
X207392924Y-93796949D01*
X207648933Y-94180093D01*
X208032077Y-94436102D01*
X208484026Y-94526000D01*
X209345974Y-94526000D01*
X209797923Y-94436102D01*
X210181067Y-94180093D01*
X210437076Y-93796949D01*
X210526974Y-93345000D01*
X210437076Y-92893051D01*
X210181067Y-92509907D01*
X209797923Y-92253898D01*
X209550000Y-92204583D01*
X209550000Y-88528026D01*
X210479562Y-87598464D01*
X211296454Y-87598464D01*
X211455000Y-87630001D01*
X211613546Y-87598464D01*
X211670000Y-87598464D01*
X211811190Y-87571897D01*
X211940865Y-87488454D01*
X212027859Y-87361134D01*
X212058464Y-87210000D01*
X212058464Y-87153546D01*
X212090001Y-86995000D01*
X212058464Y-86836454D01*
X212058464Y-86335883D01*
X212129000Y-86335883D01*
X212129000Y-86384117D01*
X212222704Y-86855200D01*
X212489552Y-87254565D01*
X212725000Y-87411887D01*
X212725000Y-88900000D01*
X212773336Y-89143004D01*
X212910987Y-89349013D01*
X214732944Y-91170969D01*
X214719206Y-91204054D01*
X214718796Y-91673885D01*
X214898213Y-92108109D01*
X215230144Y-92440619D01*
X215664054Y-92620794D01*
X216133885Y-92621204D01*
X216568109Y-92441787D01*
X216900619Y-92109856D01*
X217080794Y-91675946D01*
X217081204Y-91206115D01*
X216901787Y-90771891D01*
X216569856Y-90439381D01*
X216135946Y-90259206D01*
X215666115Y-90258796D01*
X215631234Y-90273209D01*
X213995000Y-88636974D01*
X213995000Y-87411887D01*
X214230448Y-87254565D01*
X214497296Y-86855200D01*
X214591000Y-86384117D01*
X214591000Y-86335883D01*
X214669000Y-86335883D01*
X214669000Y-86384117D01*
X214762704Y-86855200D01*
X215029552Y-87254565D01*
X215428917Y-87521413D01*
X215900000Y-87615117D01*
X216371083Y-87521413D01*
X216770448Y-87254565D01*
X217037296Y-86855200D01*
X217131000Y-86384117D01*
X217131000Y-86335883D01*
X220384000Y-86335883D01*
X220384000Y-86384117D01*
X220477704Y-86855200D01*
X220744552Y-87254565D01*
X220980000Y-87411887D01*
X220980000Y-90448072D01*
X220779907Y-90581770D01*
X220523898Y-90964914D01*
X220434000Y-91416863D01*
X220434000Y-91463137D01*
X220523898Y-91915086D01*
X220779907Y-92298230D01*
X221163051Y-92554239D01*
X221615000Y-92644137D01*
X222066949Y-92554239D01*
X222450093Y-92298230D01*
X222706102Y-91915086D01*
X222754079Y-91673885D01*
X226148796Y-91673885D01*
X226328213Y-92108109D01*
X226660144Y-92440619D01*
X227094054Y-92620794D01*
X227563885Y-92621204D01*
X227998109Y-92441787D01*
X228330619Y-92109856D01*
X228345092Y-92075000D01*
X229215000Y-92075000D01*
X229458004Y-92026664D01*
X229664013Y-91889013D01*
X230264562Y-91288464D01*
X231130000Y-91288464D01*
X231271190Y-91261897D01*
X231400865Y-91178454D01*
X231487859Y-91051134D01*
X231518464Y-90900000D01*
X231518464Y-89400000D01*
X231491897Y-89258810D01*
X231408454Y-89129135D01*
X231281134Y-89042141D01*
X231245870Y-89035000D01*
X231256310Y-89035000D01*
X231489699Y-88938327D01*
X231668327Y-88759698D01*
X231765000Y-88526309D01*
X231765000Y-87935750D01*
X231606250Y-87777000D01*
X230632000Y-87777000D01*
X230632000Y-87797000D01*
X230378000Y-87797000D01*
X230378000Y-87777000D01*
X229403750Y-87777000D01*
X229245000Y-87935750D01*
X229245000Y-88526309D01*
X229341673Y-88759698D01*
X229520301Y-88938327D01*
X229753690Y-89035000D01*
X229755301Y-89035000D01*
X229738810Y-89038103D01*
X229609135Y-89121546D01*
X229522141Y-89248866D01*
X229491536Y-89400000D01*
X229491536Y-90265439D01*
X228951974Y-90805000D01*
X228345467Y-90805000D01*
X228331787Y-90771891D01*
X227999856Y-90439381D01*
X227565946Y-90259206D01*
X227096115Y-90258796D01*
X226661891Y-90438213D01*
X226329381Y-90770144D01*
X226149206Y-91204054D01*
X226148796Y-91673885D01*
X222754079Y-91673885D01*
X222796000Y-91463137D01*
X222796000Y-91416863D01*
X222706102Y-90964914D01*
X222450093Y-90581770D01*
X222250000Y-90448072D01*
X222250000Y-87411887D01*
X222485448Y-87254565D01*
X222752296Y-86855200D01*
X222846000Y-86384117D01*
X222846000Y-86335883D01*
X222924000Y-86335883D01*
X222924000Y-86384117D01*
X223017704Y-86855200D01*
X223284552Y-87254565D01*
X223683917Y-87521413D01*
X224155000Y-87615117D01*
X224626083Y-87521413D01*
X225025448Y-87254565D01*
X225210000Y-86978364D01*
X225210000Y-87336309D01*
X225306673Y-87569698D01*
X225485301Y-87748327D01*
X225718690Y-87845000D01*
X226409250Y-87845000D01*
X226568000Y-87686250D01*
X226568000Y-86487000D01*
X226822000Y-86487000D01*
X226822000Y-87686250D01*
X226980750Y-87845000D01*
X227671310Y-87845000D01*
X227904699Y-87748327D01*
X228083327Y-87569698D01*
X228180000Y-87336309D01*
X228180000Y-86773691D01*
X229245000Y-86773691D01*
X229245000Y-87364250D01*
X229403750Y-87523000D01*
X230378000Y-87523000D01*
X230378000Y-86423750D01*
X230632000Y-86423750D01*
X230632000Y-87523000D01*
X231606250Y-87523000D01*
X231765000Y-87364250D01*
X231765000Y-86773691D01*
X231668327Y-86540302D01*
X231489699Y-86361673D01*
X231256310Y-86265000D01*
X230790750Y-86265000D01*
X230632000Y-86423750D01*
X230378000Y-86423750D01*
X230219250Y-86265000D01*
X229753690Y-86265000D01*
X229520301Y-86361673D01*
X229341673Y-86540302D01*
X229245000Y-86773691D01*
X228180000Y-86773691D01*
X228180000Y-86645750D01*
X228021250Y-86487000D01*
X226822000Y-86487000D01*
X226568000Y-86487000D01*
X226548000Y-86487000D01*
X226548000Y-86233000D01*
X226568000Y-86233000D01*
X226568000Y-85033750D01*
X226822000Y-85033750D01*
X226822000Y-86233000D01*
X228021250Y-86233000D01*
X228180000Y-86074250D01*
X228180000Y-85383691D01*
X228083327Y-85150302D01*
X227904699Y-84971673D01*
X227671310Y-84875000D01*
X226980750Y-84875000D01*
X226822000Y-85033750D01*
X226568000Y-85033750D01*
X226409250Y-84875000D01*
X225718690Y-84875000D01*
X225485301Y-84971673D01*
X225306673Y-85150302D01*
X225210000Y-85383691D01*
X225210000Y-85741636D01*
X225025448Y-85465435D01*
X224626083Y-85198587D01*
X224155000Y-85104883D01*
X223683917Y-85198587D01*
X223284552Y-85465435D01*
X223017704Y-85864800D01*
X222924000Y-86335883D01*
X222846000Y-86335883D01*
X222752296Y-85864800D01*
X222485448Y-85465435D01*
X222086083Y-85198587D01*
X221615000Y-85104883D01*
X221143917Y-85198587D01*
X220744552Y-85465435D01*
X220477704Y-85864800D01*
X220384000Y-86335883D01*
X217131000Y-86335883D01*
X217037296Y-85864800D01*
X216770448Y-85465435D01*
X216371083Y-85198587D01*
X215900000Y-85104883D01*
X215428917Y-85198587D01*
X215029552Y-85465435D01*
X214762704Y-85864800D01*
X214669000Y-86335883D01*
X214591000Y-86335883D01*
X214497296Y-85864800D01*
X214230448Y-85465435D01*
X213831083Y-85198587D01*
X213360000Y-85104883D01*
X212888917Y-85198587D01*
X212489552Y-85465435D01*
X212222704Y-85864800D01*
X212129000Y-86335883D01*
X212058464Y-86335883D01*
X212058464Y-85510000D01*
X212031897Y-85368810D01*
X211948454Y-85239135D01*
X211821134Y-85152141D01*
X211683713Y-85124313D01*
X212353026Y-84455000D01*
X230876974Y-84455000D01*
X231775000Y-85353026D01*
X231775000Y-91176974D01*
X230876974Y-92075000D01*
X229870000Y-92075000D01*
X229626995Y-92123336D01*
X229566138Y-92164000D01*
X229420987Y-92260987D01*
X229420985Y-92260990D01*
X226880987Y-94800987D01*
X226743336Y-95006996D01*
X226695000Y-95250000D01*
X226695000Y-98425000D01*
X226743336Y-98668004D01*
X226880987Y-98874013D01*
X232410000Y-104403025D01*
X232410000Y-126736974D01*
X230876974Y-128270000D01*
X226958026Y-128270000D01*
X225023464Y-126335438D01*
X225023464Y-125380750D01*
X226500000Y-125380750D01*
X226500000Y-126971310D01*
X226596673Y-127204699D01*
X226775302Y-127383327D01*
X227008691Y-127480000D01*
X228599250Y-127480000D01*
X228758000Y-127321250D01*
X228758000Y-125222000D01*
X229012000Y-125222000D01*
X229012000Y-127321250D01*
X229170750Y-127480000D01*
X230761309Y-127480000D01*
X230994698Y-127383327D01*
X231173327Y-127204699D01*
X231270000Y-126971310D01*
X231270000Y-125380750D01*
X231111250Y-125222000D01*
X229012000Y-125222000D01*
X228758000Y-125222000D01*
X226658750Y-125222000D01*
X226500000Y-125380750D01*
X225023464Y-125380750D01*
X225023464Y-123345000D01*
X224999697Y-123218690D01*
X226500000Y-123218690D01*
X226500000Y-124809250D01*
X226658750Y-124968000D01*
X228758000Y-124968000D01*
X228758000Y-122868750D01*
X229012000Y-122868750D01*
X229012000Y-124968000D01*
X231111250Y-124968000D01*
X231270000Y-124809250D01*
X231270000Y-123218690D01*
X231173327Y-122985301D01*
X230994698Y-122806673D01*
X230761309Y-122710000D01*
X229170750Y-122710000D01*
X229012000Y-122868750D01*
X228758000Y-122868750D01*
X228599250Y-122710000D01*
X227008691Y-122710000D01*
X226775302Y-122806673D01*
X226596673Y-122985301D01*
X226500000Y-123218690D01*
X224999697Y-123218690D01*
X224996897Y-123203810D01*
X224913454Y-123074135D01*
X224786134Y-122987141D01*
X224635000Y-122956536D01*
X221644562Y-122956536D01*
X219710000Y-121021974D01*
X219710000Y-118645000D01*
X223746536Y-118645000D01*
X223746536Y-122145000D01*
X223773103Y-122286190D01*
X223856546Y-122415865D01*
X223983866Y-122502859D01*
X224135000Y-122533464D01*
X227635000Y-122533464D01*
X227776190Y-122506897D01*
X227905865Y-122423454D01*
X227992859Y-122296134D01*
X228023464Y-122145000D01*
X228023464Y-118645000D01*
X227996897Y-118503810D01*
X227913454Y-118374135D01*
X227786134Y-118287141D01*
X227635000Y-118256536D01*
X224135000Y-118256536D01*
X223993810Y-118283103D01*
X223864135Y-118366546D01*
X223777141Y-118493866D01*
X223746536Y-118645000D01*
X219710000Y-118645000D01*
X219710000Y-117738026D01*
X220923710Y-116524316D01*
X221163051Y-116684239D01*
X221615000Y-116774137D01*
X222066949Y-116684239D01*
X222226328Y-116577745D01*
X226501861Y-116577745D01*
X226575995Y-116823864D01*
X227113223Y-117016965D01*
X227683454Y-116989778D01*
X228084005Y-116823864D01*
X228158139Y-116577745D01*
X227330000Y-115749605D01*
X226501861Y-116577745D01*
X222226328Y-116577745D01*
X222450093Y-116428230D01*
X222706102Y-116045086D01*
X222796000Y-115593137D01*
X222796000Y-115546863D01*
X222757483Y-115353223D01*
X225883035Y-115353223D01*
X225910222Y-115923454D01*
X226076136Y-116324005D01*
X226322255Y-116398139D01*
X227150395Y-115570000D01*
X227509605Y-115570000D01*
X228337745Y-116398139D01*
X228583864Y-116324005D01*
X228776965Y-115786777D01*
X228749778Y-115216546D01*
X228583864Y-114815995D01*
X228337745Y-114741861D01*
X227509605Y-115570000D01*
X227150395Y-115570000D01*
X226322255Y-114741861D01*
X226076136Y-114815995D01*
X225883035Y-115353223D01*
X222757483Y-115353223D01*
X222706102Y-115094914D01*
X222450093Y-114711770D01*
X222226329Y-114562255D01*
X226501861Y-114562255D01*
X227330000Y-115390395D01*
X228158139Y-114562255D01*
X228084005Y-114316136D01*
X227546777Y-114123035D01*
X226976546Y-114150222D01*
X226575995Y-114316136D01*
X226501861Y-114562255D01*
X222226329Y-114562255D01*
X222066949Y-114455761D01*
X221615000Y-114365863D01*
X221163051Y-114455761D01*
X220779907Y-114711770D01*
X220523898Y-115094914D01*
X220515664Y-115136310D01*
X218625987Y-117025987D01*
X218488336Y-117231996D01*
X218440000Y-117475000D01*
X218440000Y-121285000D01*
X218488336Y-121528004D01*
X218625987Y-121734013D01*
X220746536Y-123854562D01*
X220746536Y-126335438D01*
X220081974Y-127000000D01*
X210314765Y-127000000D01*
X210181067Y-126799907D01*
X209797923Y-126543898D01*
X209345974Y-126454000D01*
X208484026Y-126454000D01*
X208032077Y-126543898D01*
X207648933Y-126799907D01*
X207392924Y-127183051D01*
X207303026Y-127635000D01*
X207392924Y-128086949D01*
X207648933Y-128470093D01*
X208032077Y-128726102D01*
X208484026Y-128816000D01*
X209345974Y-128816000D01*
X209797923Y-128726102D01*
X210181067Y-128470093D01*
X210314765Y-128270000D01*
X220345000Y-128270000D01*
X220588004Y-128221664D01*
X220794013Y-128084013D01*
X221644562Y-127233464D01*
X224125438Y-127233464D01*
X226245987Y-129354013D01*
X226451996Y-129491664D01*
X226695000Y-129540001D01*
X226695005Y-129540000D01*
X231140000Y-129540000D01*
X231383004Y-129491664D01*
X231589013Y-129354013D01*
X233494013Y-127449013D01*
X233631664Y-127243004D01*
X233680000Y-127000000D01*
X233680000Y-104140005D01*
X233680001Y-104140000D01*
X233631664Y-103896996D01*
X233602961Y-103854039D01*
X233494013Y-103690987D01*
X233494010Y-103690985D01*
X227965000Y-98161974D01*
X227965000Y-97155000D01*
X230049000Y-97155000D01*
X230228720Y-98058516D01*
X230740521Y-98824479D01*
X231506484Y-99336280D01*
X232410000Y-99516000D01*
X233313516Y-99336280D01*
X234079479Y-98824479D01*
X234591280Y-98058516D01*
X234771000Y-97155000D01*
X234591280Y-96251484D01*
X234079479Y-95485521D01*
X233313516Y-94973720D01*
X232410000Y-94794000D01*
X231506484Y-94973720D01*
X230740521Y-95485521D01*
X230228720Y-96251484D01*
X230049000Y-97155000D01*
X227965000Y-97155000D01*
X227965000Y-95513026D01*
X230133025Y-93345000D01*
X231140000Y-93345000D01*
X231383004Y-93296664D01*
X231589013Y-93159013D01*
X232859013Y-91889013D01*
X232996664Y-91683004D01*
X233045000Y-91440000D01*
X233045000Y-85090000D01*
X232996664Y-84846996D01*
X232859013Y-84640987D01*
X231589013Y-83370987D01*
X231383004Y-83233336D01*
X231140000Y-83185000D01*
X212090000Y-83185000D01*
X211846996Y-83233336D01*
X211640987Y-83370987D01*
X210370987Y-84640987D01*
X210233336Y-84846996D01*
X210185000Y-85090000D01*
X210185000Y-85121536D01*
X209970000Y-85121536D01*
X209828810Y-85148103D01*
X209699135Y-85231546D01*
X209612141Y-85358866D01*
X209581536Y-85510000D01*
X209581536Y-86700438D01*
X208465987Y-87815987D01*
X208328336Y-88021996D01*
X208280000Y-88265000D01*
X208280000Y-92204583D01*
X208032077Y-92253898D01*
X207648933Y-92509907D01*
X207392924Y-92893051D01*
X207303026Y-93345000D01*
X202883464Y-93345000D01*
X202883464Y-92545000D01*
X202856897Y-92403810D01*
X202773454Y-92274135D01*
X202646134Y-92187141D01*
X202495000Y-92156536D01*
X201930000Y-92156536D01*
X201930000Y-90433026D01*
X202960136Y-89402890D01*
X203176863Y-89446000D01*
X203223137Y-89446000D01*
X203675086Y-89356102D01*
X204058230Y-89100093D01*
X204314239Y-88716949D01*
X204404137Y-88265000D01*
X204314239Y-87813051D01*
X204058230Y-87429907D01*
X203675086Y-87173898D01*
X203223137Y-87084000D01*
X203176863Y-87084000D01*
X202724914Y-87173898D01*
X202341770Y-87429907D01*
X202085761Y-87813051D01*
X201995863Y-88265000D01*
X202046650Y-88520324D01*
X200845987Y-89720987D01*
X200708336Y-89926996D01*
X200660000Y-90170000D01*
X200660000Y-92156536D01*
X200095000Y-92156536D01*
X199953810Y-92183103D01*
X199824135Y-92266546D01*
X199737141Y-92393866D01*
X199706536Y-92545000D01*
X196313026Y-92545000D01*
X195477056Y-91709030D01*
X195490794Y-91675946D01*
X195491204Y-91206115D01*
X195311787Y-90771891D01*
X194979856Y-90439381D01*
X194545946Y-90259206D01*
X194076115Y-90258796D01*
X193641891Y-90438213D01*
X193309381Y-90770144D01*
X193129206Y-91204054D01*
X193128796Y-91673885D01*
X191135000Y-91673885D01*
X191135000Y-88498885D01*
X191858796Y-88498885D01*
X192038213Y-88933109D01*
X192370144Y-89265619D01*
X192804054Y-89445794D01*
X193273885Y-89446204D01*
X193708109Y-89266787D01*
X194040619Y-88934856D01*
X194055092Y-88900000D01*
X196850000Y-88900000D01*
X197093004Y-88851664D01*
X197299013Y-88714013D01*
X199204013Y-86809013D01*
X199341664Y-86603004D01*
X199390000Y-86360000D01*
X199390000Y-85058464D01*
X199605000Y-85058464D01*
X199746190Y-85031897D01*
X199875865Y-84948454D01*
X199962859Y-84821134D01*
X199993464Y-84670000D01*
X199993464Y-82970000D01*
X199966897Y-82828810D01*
X199883454Y-82699135D01*
X199756134Y-82612141D01*
X199605000Y-82581536D01*
X197905000Y-82581536D01*
X197763810Y-82608103D01*
X197634135Y-82691546D01*
X197547141Y-82818866D01*
X197516536Y-82970000D01*
X197516536Y-84670000D01*
X197543103Y-84811190D01*
X197626546Y-84940865D01*
X197753866Y-85027859D01*
X197905000Y-85058464D01*
X198120000Y-85058464D01*
X198120000Y-86096974D01*
X196586974Y-87630000D01*
X194055467Y-87630000D01*
X194041787Y-87596891D01*
X193709856Y-87264381D01*
X193275946Y-87084206D01*
X192806115Y-87083796D01*
X192371891Y-87263213D01*
X192039381Y-87595144D01*
X191859206Y-88029054D01*
X191858796Y-88498885D01*
X191135000Y-88498885D01*
X191135000Y-85353026D01*
X192033026Y-84455000D01*
X192631116Y-84455000D01*
X192804552Y-84714565D01*
X193203917Y-84981413D01*
X193675000Y-85075117D01*
X194146083Y-84981413D01*
X194545448Y-84714565D01*
X194718884Y-84455000D01*
X195171116Y-84455000D01*
X195344552Y-84714565D01*
X195743917Y-84981413D01*
X196215000Y-85075117D01*
X196686083Y-84981413D01*
X197085448Y-84714565D01*
X197352296Y-84315200D01*
X197446000Y-83844117D01*
X197446000Y-83795883D01*
X197352296Y-83324800D01*
X197085448Y-82925435D01*
X196686083Y-82658587D01*
X196215000Y-82564883D01*
X195743917Y-82658587D01*
X195344552Y-82925435D01*
X195171116Y-83185000D01*
X194718884Y-83185000D01*
X194545448Y-82925435D01*
X194146083Y-82658587D01*
X193675000Y-82564883D01*
X193203917Y-82658587D01*
X192804552Y-82925435D01*
X192631116Y-83185000D01*
X191770000Y-83185000D01*
X191526996Y-83233336D01*
X191320987Y-83370987D01*
X190050987Y-84640987D01*
X189913336Y-84846996D01*
X189865000Y-85090000D01*
X189051000Y-85090000D01*
X189051000Y-81736000D01*
X235764000Y-81736000D01*
X235764000Y-144959000D01*
X235764000Y-144959000D01*
G37*
X235764000Y-144959000D02*
X189051000Y-144959000D01*
X189051000Y-141605000D01*
X190044000Y-141605000D01*
X190223720Y-142508516D01*
X190735521Y-143274479D01*
X191501484Y-143786280D01*
X192405000Y-143966000D01*
X193308516Y-143786280D01*
X194074479Y-143274479D01*
X194586280Y-142508516D01*
X194766000Y-141605000D01*
X194586280Y-140701484D01*
X194074479Y-139935521D01*
X193308516Y-139423720D01*
X192405000Y-139244000D01*
X191501484Y-139423720D01*
X190735521Y-139935521D01*
X190223720Y-140701484D01*
X190044000Y-141605000D01*
X189051000Y-141605000D01*
X189051000Y-118674714D01*
X190034000Y-118674714D01*
X190034000Y-137865286D01*
X195896000Y-137865286D01*
X195896000Y-118674714D01*
X190034000Y-118674714D01*
X189051000Y-118674714D01*
X189051000Y-115546863D01*
X193129000Y-115546863D01*
X193129000Y-115593137D01*
X193218898Y-116045086D01*
X193474907Y-116428230D01*
X193858051Y-116684239D01*
X194310000Y-116774137D01*
X194565324Y-116723350D01*
X198120000Y-120278026D01*
X198120000Y-141605000D01*
X198168336Y-141848004D01*
X198305987Y-142054013D01*
X200210987Y-143959013D01*
X200416996Y-144096664D01*
X200660000Y-144145000D01*
X208280000Y-144145000D01*
X208523004Y-144096664D01*
X208729013Y-143959013D01*
X211083025Y-141605000D01*
X213539000Y-141605000D01*
X213718720Y-142508516D01*
X214230521Y-143274479D01*
X214996484Y-143786280D01*
X215900000Y-143966000D01*
X216803516Y-143786280D01*
X217569479Y-143274479D01*
X218081280Y-142508516D01*
X218261000Y-141605000D01*
X218081280Y-140701484D01*
X217603042Y-139985750D01*
X220500000Y-139985750D01*
X220500000Y-141576310D01*
X220596673Y-141809699D01*
X220775302Y-141988327D01*
X221008691Y-142085000D01*
X222599250Y-142085000D01*
X222758000Y-141926250D01*
X222758000Y-139827000D01*
X223012000Y-139827000D01*
X223012000Y-141926250D01*
X223170750Y-142085000D01*
X224761309Y-142085000D01*
X224994698Y-141988327D01*
X225173327Y-141809699D01*
X225270000Y-141576310D01*
X225270000Y-139985750D01*
X225111250Y-139827000D01*
X223012000Y-139827000D01*
X222758000Y-139827000D01*
X220658750Y-139827000D01*
X220500000Y-139985750D01*
X217603042Y-139985750D01*
X217569479Y-139935521D01*
X216803516Y-139423720D01*
X215900000Y-139244000D01*
X214996484Y-139423720D01*
X214230521Y-139935521D01*
X213718720Y-140701484D01*
X213539000Y-141605000D01*
X211083025Y-141605000D01*
X211269010Y-141419015D01*
X211269013Y-141419013D01*
X211351528Y-141295520D01*
X211406664Y-141213005D01*
X211455000Y-140970000D01*
X211455000Y-137823690D01*
X220500000Y-137823690D01*
X220500000Y-139414250D01*
X220658750Y-139573000D01*
X222758000Y-139573000D01*
X222758000Y-137473750D01*
X223012000Y-137473750D01*
X223012000Y-139573000D01*
X225111250Y-139573000D01*
X225270000Y-139414250D01*
X225270000Y-137950000D01*
X226746536Y-137950000D01*
X226746536Y-141450000D01*
X226773103Y-141591190D01*
X226856546Y-141720865D01*
X226983866Y-141807859D01*
X227135000Y-141838464D01*
X230635000Y-141838464D01*
X230776190Y-141811897D01*
X230905865Y-141728454D01*
X230992859Y-141601134D01*
X231023464Y-141450000D01*
X231023464Y-137950000D01*
X230996897Y-137808810D01*
X230913454Y-137679135D01*
X230786134Y-137592141D01*
X230635000Y-137561536D01*
X227135000Y-137561536D01*
X226993810Y-137588103D01*
X226864135Y-137671546D01*
X226777141Y-137798866D01*
X226746536Y-137950000D01*
X225270000Y-137950000D01*
X225270000Y-137823690D01*
X225173327Y-137590301D01*
X224994698Y-137411673D01*
X224761309Y-137315000D01*
X223170750Y-137315000D01*
X223012000Y-137473750D01*
X222758000Y-137473750D01*
X222599250Y-137315000D01*
X221008691Y-137315000D01*
X220775302Y-137411673D01*
X220596673Y-137590301D01*
X220500000Y-137823690D01*
X211455000Y-137823690D01*
X211455000Y-136788026D01*
X212353026Y-135890000D01*
X223746536Y-135890000D01*
X223746536Y-136750000D01*
X223773103Y-136891190D01*
X223856546Y-137020865D01*
X223983866Y-137107859D01*
X224135000Y-137138464D01*
X227635000Y-137138464D01*
X227776190Y-137111897D01*
X227905865Y-137028454D01*
X227992859Y-136901134D01*
X228023464Y-136750000D01*
X228023464Y-133250000D01*
X227996897Y-133108810D01*
X227913454Y-132979135D01*
X227786134Y-132892141D01*
X227635000Y-132861536D01*
X224135000Y-132861536D01*
X223993810Y-132888103D01*
X223864135Y-132971546D01*
X223777141Y-133098866D01*
X223746536Y-133250000D01*
X223746536Y-134620000D01*
X212090000Y-134620000D01*
X211846996Y-134668336D01*
X211640987Y-134805987D01*
X210370987Y-136075987D01*
X210233336Y-136281996D01*
X210185000Y-136525000D01*
X210185000Y-140706975D01*
X208016974Y-142875000D01*
X200923026Y-142875000D01*
X199390000Y-141341974D01*
X199390000Y-139675883D01*
X201334000Y-139675883D01*
X201334000Y-139724117D01*
X201427704Y-140195200D01*
X201694552Y-140594565D01*
X202093917Y-140861413D01*
X202565000Y-140955117D01*
X203036083Y-140861413D01*
X203435448Y-140594565D01*
X203702296Y-140195200D01*
X203796000Y-139724117D01*
X203796000Y-139675883D01*
X203874000Y-139675883D01*
X203874000Y-139724117D01*
X203967704Y-140195200D01*
X204234552Y-140594565D01*
X204633917Y-140861413D01*
X205105000Y-140955117D01*
X205576083Y-140861413D01*
X205975448Y-140594565D01*
X206160000Y-140318364D01*
X206160000Y-140676309D01*
X206256673Y-140909698D01*
X206435301Y-141088327D01*
X206668690Y-141185000D01*
X207359250Y-141185000D01*
X207518000Y-141026250D01*
X207518000Y-139827000D01*
X207772000Y-139827000D01*
X207772000Y-141026250D01*
X207930750Y-141185000D01*
X208621310Y-141185000D01*
X208854699Y-141088327D01*
X209033327Y-140909698D01*
X209130000Y-140676309D01*
X209130000Y-139985750D01*
X208971250Y-139827000D01*
X207772000Y-139827000D01*
X207518000Y-139827000D01*
X207498000Y-139827000D01*
X207498000Y-139573000D01*
X207518000Y-139573000D01*
X207518000Y-138373750D01*
X207772000Y-138373750D01*
X207772000Y-139573000D01*
X208971250Y-139573000D01*
X209130000Y-139414250D01*
X209130000Y-138723691D01*
X209033327Y-138490302D01*
X208854699Y-138311673D01*
X208621310Y-138215000D01*
X207930750Y-138215000D01*
X207772000Y-138373750D01*
X207518000Y-138373750D01*
X207359250Y-138215000D01*
X206668690Y-138215000D01*
X206435301Y-138311673D01*
X206256673Y-138490302D01*
X206160000Y-138723691D01*
X206160000Y-139081636D01*
X205975448Y-138805435D01*
X205576083Y-138538587D01*
X205105000Y-138444883D01*
X204633917Y-138538587D01*
X204234552Y-138805435D01*
X203967704Y-139204800D01*
X203874000Y-139675883D01*
X203796000Y-139675883D01*
X203702296Y-139204800D01*
X203550461Y-138977564D01*
X205554010Y-136974015D01*
X205554013Y-136974013D01*
X205636528Y-136850520D01*
X205691664Y-136768005D01*
X205740000Y-136525000D01*
X205740000Y-135036887D01*
X205975448Y-134879565D01*
X206242296Y-134480200D01*
X206336000Y-134009117D01*
X206336000Y-133960883D01*
X206242296Y-133489800D01*
X205975448Y-133090435D01*
X205576083Y-132823587D01*
X205105000Y-132729883D01*
X204633917Y-132823587D01*
X204234552Y-133090435D01*
X203967704Y-133489800D01*
X203874000Y-133960883D01*
X203874000Y-134009117D01*
X203967704Y-134480200D01*
X204234552Y-134879565D01*
X204470000Y-135036887D01*
X204470000Y-136261975D01*
X202218086Y-138513888D01*
X202093917Y-138538587D01*
X201694552Y-138805435D01*
X201427704Y-139204800D01*
X201334000Y-139675883D01*
X199390000Y-139675883D01*
X199390000Y-125095000D01*
X199683026Y-125095000D01*
X199772924Y-125546949D01*
X200028933Y-125930093D01*
X200412077Y-126186102D01*
X200660000Y-126235417D01*
X200660000Y-126446536D01*
X200095000Y-126446536D01*
X199953810Y-126473103D01*
X199824135Y-126556546D01*
X199737141Y-126683866D01*
X199706536Y-126835000D01*
X199706536Y-128435000D01*
X199733103Y-128576190D01*
X199816546Y-128705865D01*
X199943866Y-128792859D01*
X200095000Y-128823464D01*
X201585438Y-128823464D01*
X201930000Y-129168026D01*
X201930000Y-132746536D01*
X201715000Y-132746536D01*
X201573810Y-132773103D01*
X201444135Y-132856546D01*
X201357141Y-132983866D01*
X201326536Y-133135000D01*
X201326536Y-134835000D01*
X201353103Y-134976190D01*
X201436546Y-135105865D01*
X201563866Y-135192859D01*
X201715000Y-135223464D01*
X203415000Y-135223464D01*
X203556190Y-135196897D01*
X203685865Y-135113454D01*
X203772859Y-134986134D01*
X203803464Y-134835000D01*
X203803464Y-133135000D01*
X203776897Y-132993810D01*
X203693454Y-132864135D01*
X203566134Y-132777141D01*
X203415000Y-132746536D01*
X203200000Y-132746536D01*
X203200000Y-128905000D01*
X203151664Y-128661996D01*
X203014013Y-128455987D01*
X202883464Y-128325438D01*
X202883464Y-126835000D01*
X202856897Y-126693810D01*
X202773454Y-126564135D01*
X202646134Y-126477141D01*
X202495000Y-126446536D01*
X201930000Y-126446536D01*
X201930000Y-126365000D01*
X205105000Y-126365000D01*
X205105000Y-130810000D01*
X205153336Y-131053004D01*
X205290987Y-131259013D01*
X206983077Y-132951103D01*
X206774552Y-133090435D01*
X206507704Y-133489800D01*
X206414000Y-133960883D01*
X206414000Y-134009117D01*
X206507704Y-134480200D01*
X206774552Y-134879565D01*
X207173917Y-135146413D01*
X207645000Y-135240117D01*
X208116083Y-135146413D01*
X208515448Y-134879565D01*
X208782296Y-134480200D01*
X208876000Y-134009117D01*
X208876000Y-133960883D01*
X208782296Y-133489800D01*
X208515448Y-133090435D01*
X208280000Y-132933113D01*
X208280000Y-132715000D01*
X208231664Y-132471996D01*
X208094013Y-132265987D01*
X206375000Y-130546974D01*
X206375000Y-126628026D01*
X207273026Y-125730000D01*
X207515235Y-125730000D01*
X207648933Y-125930093D01*
X208032077Y-126186102D01*
X208484026Y-126276000D01*
X209345974Y-126276000D01*
X209797923Y-126186102D01*
X210181067Y-125930093D01*
X210437076Y-125546949D01*
X210526974Y-125095000D01*
X210437076Y-124643051D01*
X210181067Y-124259907D01*
X209797923Y-124003898D01*
X209550000Y-123954583D01*
X209550000Y-123695417D01*
X209797923Y-123646102D01*
X210181067Y-123390093D01*
X210437076Y-123006949D01*
X210526974Y-122555000D01*
X210437076Y-122103051D01*
X210181067Y-121719907D01*
X209797923Y-121463898D01*
X209345974Y-121374000D01*
X208484026Y-121374000D01*
X208032077Y-121463898D01*
X207648933Y-121719907D01*
X207392924Y-122103051D01*
X207303026Y-122555000D01*
X207392924Y-123006949D01*
X207648933Y-123390093D01*
X208032077Y-123646102D01*
X208280000Y-123695417D01*
X208280000Y-123954583D01*
X208032077Y-124003898D01*
X207648933Y-124259907D01*
X207515235Y-124460000D01*
X207010000Y-124460000D01*
X206766996Y-124508336D01*
X206560987Y-124645987D01*
X205290987Y-125915987D01*
X205153336Y-126121996D01*
X205105000Y-126365000D01*
X201930000Y-126365000D01*
X201930000Y-126235417D01*
X202177923Y-126186102D01*
X202561067Y-125930093D01*
X202817076Y-125546949D01*
X202906974Y-125095000D01*
X202817076Y-124643051D01*
X202561067Y-124259907D01*
X202177923Y-124003898D01*
X201725974Y-123914000D01*
X200864026Y-123914000D01*
X200412077Y-124003898D01*
X200028933Y-124259907D01*
X199772924Y-124643051D01*
X199683026Y-125095000D01*
X199390000Y-125095000D01*
X199390000Y-120650000D01*
X199895235Y-120650000D01*
X200028933Y-120850093D01*
X200412077Y-121106102D01*
X200864026Y-121196000D01*
X201725974Y-121196000D01*
X202177923Y-121106102D01*
X202561067Y-120850093D01*
X202817076Y-120466949D01*
X202906974Y-120015000D01*
X202817076Y-119563051D01*
X202561067Y-119179907D01*
X202177923Y-118923898D01*
X201725974Y-118834000D01*
X200864026Y-118834000D01*
X200412077Y-118923898D01*
X200028933Y-119179907D01*
X199895235Y-119380000D01*
X199018026Y-119380000D01*
X195447890Y-115809864D01*
X195491000Y-115593137D01*
X195491000Y-115546863D01*
X195401102Y-115094914D01*
X195145093Y-114711770D01*
X194761949Y-114455761D01*
X194310000Y-114365863D01*
X193858051Y-114455761D01*
X193474907Y-114711770D01*
X193218898Y-115094914D01*
X193129000Y-115546863D01*
X189051000Y-115546863D01*
X189051000Y-111125000D01*
X199683026Y-111125000D01*
X199772924Y-111576949D01*
X200028933Y-111960093D01*
X200412077Y-112216102D01*
X200864026Y-112306000D01*
X201725974Y-112306000D01*
X202177923Y-112216102D01*
X202561067Y-111960093D01*
X202694765Y-111760000D01*
X203571974Y-111760000D01*
X203835000Y-112023026D01*
X203835000Y-121021974D01*
X202936974Y-121920000D01*
X202694765Y-121920000D01*
X202561067Y-121719907D01*
X202177923Y-121463898D01*
X201725974Y-121374000D01*
X200864026Y-121374000D01*
X200412077Y-121463898D01*
X200028933Y-121719907D01*
X199772924Y-122103051D01*
X199683026Y-122555000D01*
X199772924Y-123006949D01*
X200028933Y-123390093D01*
X200412077Y-123646102D01*
X200864026Y-123736000D01*
X201725974Y-123736000D01*
X202177923Y-123646102D01*
X202561067Y-123390093D01*
X202694765Y-123190000D01*
X203200000Y-123190000D01*
X203443004Y-123141664D01*
X203649013Y-123004013D01*
X204919013Y-121734013D01*
X205056664Y-121528004D01*
X205105000Y-121285000D01*
X205105000Y-111760005D01*
X205105001Y-111760000D01*
X205056664Y-111516996D01*
X204919013Y-111310987D01*
X204284013Y-110675987D01*
X204078004Y-110538336D01*
X203835000Y-110490000D01*
X202694765Y-110490000D01*
X202561067Y-110289907D01*
X202177923Y-110033898D01*
X201725974Y-109944000D01*
X200864026Y-109944000D01*
X200412077Y-110033898D01*
X200028933Y-110289907D01*
X199772924Y-110673051D01*
X199683026Y-111125000D01*
X189051000Y-111125000D01*
X189051000Y-109855000D01*
X205740000Y-109855000D01*
X205740000Y-115570000D01*
X205788336Y-115813004D01*
X205925987Y-116019013D01*
X208280000Y-118373025D01*
X208280000Y-118874583D01*
X208032077Y-118923898D01*
X207648933Y-119179907D01*
X207392924Y-119563051D01*
X207303026Y-120015000D01*
X207392924Y-120466949D01*
X207648933Y-120850093D01*
X208032077Y-121106102D01*
X208484026Y-121196000D01*
X209345974Y-121196000D01*
X209797923Y-121106102D01*
X210181067Y-120850093D01*
X210437076Y-120466949D01*
X210526974Y-120015000D01*
X210437076Y-119563051D01*
X210181067Y-119179907D01*
X209797923Y-118923898D01*
X209550000Y-118874583D01*
X209550000Y-118110000D01*
X209501664Y-117866995D01*
X209431602Y-117762141D01*
X209364013Y-117660987D01*
X209364010Y-117660985D01*
X207010000Y-115306974D01*
X207010000Y-111125000D01*
X207303026Y-111125000D01*
X207392924Y-111576949D01*
X207648933Y-111960093D01*
X208032077Y-112216102D01*
X208484026Y-112306000D01*
X209345974Y-112306000D01*
X209797923Y-112216102D01*
X210181067Y-111960093D01*
X210437076Y-111576949D01*
X210526974Y-111125000D01*
X210437076Y-110673051D01*
X210181067Y-110289907D01*
X209797923Y-110033898D01*
X209345974Y-109944000D01*
X208484026Y-109944000D01*
X208032077Y-110033898D01*
X207648933Y-110289907D01*
X207392924Y-110673051D01*
X207303026Y-111125000D01*
X207010000Y-111125000D01*
X207010000Y-110118026D01*
X207684301Y-109443725D01*
X208032077Y-109676102D01*
X208484026Y-109766000D01*
X209345974Y-109766000D01*
X209797923Y-109676102D01*
X210181067Y-109420093D01*
X210437076Y-109036949D01*
X210526974Y-108585000D01*
X210437076Y-108133051D01*
X210181067Y-107749907D01*
X209797923Y-107493898D01*
X209345974Y-107404000D01*
X208484026Y-107404000D01*
X208032077Y-107493898D01*
X207648933Y-107749907D01*
X207495345Y-107979768D01*
X207401996Y-107998336D01*
X207195987Y-108135987D01*
X205925987Y-109405987D01*
X205788336Y-109611996D01*
X205740000Y-109855000D01*
X189051000Y-109855000D01*
X189051000Y-108585000D01*
X199683026Y-108585000D01*
X199772924Y-109036949D01*
X200028933Y-109420093D01*
X200412077Y-109676102D01*
X200864026Y-109766000D01*
X201725974Y-109766000D01*
X202177923Y-109676102D01*
X202561067Y-109420093D01*
X202817076Y-109036949D01*
X202906974Y-108585000D01*
X202817076Y-108133051D01*
X202561067Y-107749907D01*
X202177923Y-107493898D01*
X201725974Y-107404000D01*
X200864026Y-107404000D01*
X200412077Y-107493898D01*
X200028933Y-107749907D01*
X199772924Y-108133051D01*
X199683026Y-108585000D01*
X189051000Y-108585000D01*
X189051000Y-85090000D01*
X189865000Y-85090000D01*
X189865000Y-97790000D01*
X189913336Y-98033004D01*
X190050987Y-98239013D01*
X193172110Y-101360136D01*
X193129000Y-101576863D01*
X193129000Y-101623137D01*
X193218898Y-102075086D01*
X193474907Y-102458230D01*
X193675000Y-102591928D01*
X193675000Y-104394533D01*
X193641891Y-104408213D01*
X193309381Y-104740144D01*
X193129206Y-105174054D01*
X193128796Y-105643885D01*
X193308213Y-106078109D01*
X193640144Y-106410619D01*
X194074054Y-106590794D01*
X194543885Y-106591204D01*
X194978109Y-106411787D01*
X195310619Y-106079856D01*
X195325092Y-106045000D01*
X199683026Y-106045000D01*
X199772924Y-106496949D01*
X200028933Y-106880093D01*
X200412077Y-107136102D01*
X200864026Y-107226000D01*
X201725974Y-107226000D01*
X202177923Y-107136102D01*
X202561067Y-106880093D01*
X202817076Y-106496949D01*
X202906974Y-106045000D01*
X202817076Y-105593051D01*
X202561067Y-105209907D01*
X202177923Y-104953898D01*
X201725974Y-104864000D01*
X200864026Y-104864000D01*
X200412077Y-104953898D01*
X200028933Y-105209907D01*
X199772924Y-105593051D01*
X199683026Y-106045000D01*
X195325092Y-106045000D01*
X195490794Y-105645946D01*
X195491204Y-105176115D01*
X195311787Y-104741891D01*
X194979856Y-104409381D01*
X194945000Y-104394908D01*
X194945000Y-103505000D01*
X199683026Y-103505000D01*
X199772924Y-103956949D01*
X200028933Y-104340093D01*
X200412077Y-104596102D01*
X200864026Y-104686000D01*
X201725974Y-104686000D01*
X202177923Y-104596102D01*
X202561067Y-104340093D01*
X202817076Y-103956949D01*
X202837546Y-103854039D01*
X207123096Y-103854039D01*
X207140633Y-103936819D01*
X207410500Y-104429896D01*
X207848517Y-104782166D01*
X208272228Y-104906129D01*
X208032077Y-104953898D01*
X207648933Y-105209907D01*
X207392924Y-105593051D01*
X207303026Y-106045000D01*
X207392924Y-106496949D01*
X207648933Y-106880093D01*
X208032077Y-107136102D01*
X208484026Y-107226000D01*
X209345974Y-107226000D01*
X209752176Y-107145202D01*
X211455000Y-108848026D01*
X211455000Y-113665000D01*
X211503336Y-113908004D01*
X211640987Y-114114013D01*
X212745000Y-115218025D01*
X212745000Y-117731536D01*
X212630000Y-117731536D01*
X212488810Y-117758103D01*
X212359135Y-117841546D01*
X212272141Y-117968866D01*
X212241536Y-118120000D01*
X212241536Y-119370000D01*
X212268103Y-119511190D01*
X212351546Y-119640865D01*
X212478866Y-119727859D01*
X212630000Y-119758464D01*
X214130000Y-119758464D01*
X214271190Y-119731897D01*
X214400865Y-119648454D01*
X214487859Y-119521134D01*
X214495000Y-119485870D01*
X214495000Y-119496310D01*
X214591673Y-119729699D01*
X214770302Y-119908327D01*
X215003691Y-120005000D01*
X215594250Y-120005000D01*
X215753000Y-119846250D01*
X215753000Y-118872000D01*
X216007000Y-118872000D01*
X216007000Y-119846250D01*
X216165750Y-120005000D01*
X216756309Y-120005000D01*
X216989698Y-119908327D01*
X217168327Y-119729699D01*
X217265000Y-119496310D01*
X217265000Y-119030750D01*
X217106250Y-118872000D01*
X216007000Y-118872000D01*
X215753000Y-118872000D01*
X215733000Y-118872000D01*
X215733000Y-118618000D01*
X215753000Y-118618000D01*
X215753000Y-117643750D01*
X216007000Y-117643750D01*
X216007000Y-118618000D01*
X217106250Y-118618000D01*
X217265000Y-118459250D01*
X217265000Y-117993690D01*
X217168327Y-117760301D01*
X216989698Y-117581673D01*
X216756309Y-117485000D01*
X216165750Y-117485000D01*
X216007000Y-117643750D01*
X215753000Y-117643750D01*
X215594250Y-117485000D01*
X215003691Y-117485000D01*
X214770302Y-117581673D01*
X214591673Y-117760301D01*
X214495000Y-117993690D01*
X214495000Y-117995301D01*
X214491897Y-117978810D01*
X214408454Y-117849135D01*
X214281134Y-117762141D01*
X214130000Y-117731536D01*
X214015000Y-117731536D01*
X214015000Y-116577745D01*
X215071861Y-116577745D01*
X215145995Y-116823864D01*
X215683223Y-117016965D01*
X216253454Y-116989778D01*
X216654005Y-116823864D01*
X216728139Y-116577745D01*
X215900000Y-115749605D01*
X215071861Y-116577745D01*
X214015000Y-116577745D01*
X214015000Y-115353223D01*
X214453035Y-115353223D01*
X214480222Y-115923454D01*
X214646136Y-116324005D01*
X214892255Y-116398139D01*
X215720395Y-115570000D01*
X216079605Y-115570000D01*
X216907745Y-116398139D01*
X217153864Y-116324005D01*
X217346965Y-115786777D01*
X217319778Y-115216546D01*
X217153864Y-114815995D01*
X216907745Y-114741861D01*
X216079605Y-115570000D01*
X215720395Y-115570000D01*
X214892255Y-114741861D01*
X214646136Y-114815995D01*
X214453035Y-115353223D01*
X214015000Y-115353223D01*
X214015000Y-114955000D01*
X214011022Y-114935000D01*
X213966664Y-114711995D01*
X213866610Y-114562255D01*
X215071861Y-114562255D01*
X215900000Y-115390395D01*
X216728139Y-114562255D01*
X216654005Y-114316136D01*
X216116777Y-114123035D01*
X215546546Y-114150222D01*
X215145995Y-114316136D01*
X215071861Y-114562255D01*
X213866610Y-114562255D01*
X213829013Y-114505987D01*
X213829010Y-114505985D01*
X212725000Y-113401974D01*
X212725000Y-108585005D01*
X212725001Y-108585000D01*
X212676664Y-108341996D01*
X212539013Y-108135987D01*
X210513876Y-106110850D01*
X210526974Y-106045000D01*
X210437076Y-105593051D01*
X210181067Y-105209907D01*
X209797923Y-104953898D01*
X209557772Y-104906129D01*
X209981483Y-104782166D01*
X210419500Y-104429896D01*
X210689367Y-103936819D01*
X210706904Y-103854039D01*
X210584915Y-103632000D01*
X209042000Y-103632000D01*
X209042000Y-103652000D01*
X208788000Y-103652000D01*
X208788000Y-103632000D01*
X207245085Y-103632000D01*
X207123096Y-103854039D01*
X202837546Y-103854039D01*
X202906974Y-103505000D01*
X202837547Y-103155961D01*
X207123096Y-103155961D01*
X207245085Y-103378000D01*
X208788000Y-103378000D01*
X208788000Y-103358000D01*
X209042000Y-103358000D01*
X209042000Y-103378000D01*
X210584915Y-103378000D01*
X210706904Y-103155961D01*
X210689367Y-103073181D01*
X210419500Y-102580104D01*
X209981483Y-102227834D01*
X209557772Y-102103871D01*
X209797923Y-102056102D01*
X210145699Y-101823725D01*
X211455000Y-103133026D01*
X211455000Y-104775000D01*
X211503336Y-105018004D01*
X211640987Y-105224013D01*
X214815987Y-108399013D01*
X215021996Y-108536664D01*
X215265000Y-108585000D01*
X219075000Y-108585000D01*
X219318004Y-108536664D01*
X219524013Y-108399013D01*
X221345969Y-106577056D01*
X221379054Y-106590794D01*
X221848885Y-106591204D01*
X222283109Y-106411787D01*
X222615619Y-106079856D01*
X222630092Y-106045000D01*
X226345749Y-106045000D01*
X226494907Y-106268230D01*
X226878051Y-106524239D01*
X227330000Y-106614137D01*
X227781949Y-106524239D01*
X228165093Y-106268230D01*
X228421102Y-105885086D01*
X228511000Y-105433137D01*
X228511000Y-105386863D01*
X228421102Y-104934914D01*
X228165093Y-104551770D01*
X227781949Y-104295761D01*
X227330000Y-104205863D01*
X226878051Y-104295761D01*
X226494907Y-104551770D01*
X226345749Y-104775000D01*
X222630467Y-104775000D01*
X222616787Y-104741891D01*
X222284856Y-104409381D01*
X221850946Y-104229206D01*
X221381115Y-104228796D01*
X220946891Y-104408213D01*
X220614381Y-104740144D01*
X220434206Y-105174054D01*
X220433796Y-105643885D01*
X220448209Y-105678766D01*
X218811974Y-107315000D01*
X215528026Y-107315000D01*
X212725000Y-104511974D01*
X212725000Y-102870000D01*
X212676664Y-102626996D01*
X212539013Y-102420987D01*
X210634013Y-100515987D01*
X210428004Y-100378336D01*
X210334655Y-100359768D01*
X210181067Y-100129907D01*
X209797923Y-99873898D01*
X209345974Y-99784000D01*
X208484026Y-99784000D01*
X208032077Y-99873898D01*
X207648933Y-100129907D01*
X207392924Y-100513051D01*
X207303026Y-100965000D01*
X207392924Y-101416949D01*
X207648933Y-101800093D01*
X208032077Y-102056102D01*
X208272228Y-102103871D01*
X207848517Y-102227834D01*
X207410500Y-102580104D01*
X207140633Y-103073181D01*
X207123096Y-103155961D01*
X202837547Y-103155961D01*
X202817076Y-103053051D01*
X202561067Y-102669907D01*
X202177923Y-102413898D01*
X201725974Y-102324000D01*
X200864026Y-102324000D01*
X200412077Y-102413898D01*
X200028933Y-102669907D01*
X199772924Y-103053051D01*
X199683026Y-103505000D01*
X194945000Y-103505000D01*
X194945000Y-102591928D01*
X195145093Y-102458230D01*
X195401102Y-102075086D01*
X195491000Y-101623137D01*
X195491000Y-101576863D01*
X195447890Y-101360136D01*
X195843026Y-100965000D01*
X199683026Y-100965000D01*
X199772924Y-101416949D01*
X200028933Y-101800093D01*
X200412077Y-102056102D01*
X200864026Y-102146000D01*
X201725974Y-102146000D01*
X202177923Y-102056102D01*
X202561067Y-101800093D01*
X202817076Y-101416949D01*
X202906974Y-100965000D01*
X202817076Y-100513051D01*
X202561067Y-100129907D01*
X202177923Y-99873898D01*
X201725974Y-99784000D01*
X200864026Y-99784000D01*
X200412077Y-99873898D01*
X200028933Y-100129907D01*
X199772924Y-100513051D01*
X199683026Y-100965000D01*
X195843026Y-100965000D01*
X197748026Y-99060000D01*
X199895235Y-99060000D01*
X200028933Y-99260093D01*
X200412077Y-99516102D01*
X200864026Y-99606000D01*
X201725974Y-99606000D01*
X202177923Y-99516102D01*
X202561067Y-99260093D01*
X202817076Y-98876949D01*
X202906974Y-98425000D01*
X207303026Y-98425000D01*
X207392924Y-98876949D01*
X207648933Y-99260093D01*
X208032077Y-99516102D01*
X208484026Y-99606000D01*
X209345974Y-99606000D01*
X209797923Y-99516102D01*
X210181067Y-99260093D01*
X210314765Y-99060000D01*
X211826974Y-99060000D01*
X212725000Y-99958026D01*
X212725000Y-102870000D01*
X212773336Y-103113004D01*
X212910987Y-103319013D01*
X214762110Y-105170135D01*
X214719000Y-105386863D01*
X214719000Y-105433137D01*
X214808898Y-105885086D01*
X215064907Y-106268230D01*
X215448051Y-106524239D01*
X215900000Y-106614137D01*
X216351949Y-106524239D01*
X216735093Y-106268230D01*
X216991102Y-105885086D01*
X217081000Y-105433137D01*
X217081000Y-105386863D01*
X216991102Y-104934914D01*
X216735093Y-104551770D01*
X216351949Y-104295761D01*
X215900000Y-104205863D01*
X215644675Y-104256650D01*
X213995000Y-102606974D01*
X213995000Y-99695000D01*
X213946664Y-99451996D01*
X213809013Y-99245987D01*
X212539013Y-97975987D01*
X212333004Y-97838336D01*
X212090000Y-97790000D01*
X210314765Y-97790000D01*
X210181067Y-97589907D01*
X209797923Y-97333898D01*
X209345974Y-97244000D01*
X208484026Y-97244000D01*
X208032077Y-97333898D01*
X207648933Y-97589907D01*
X207392924Y-97973051D01*
X207303026Y-98425000D01*
X202906974Y-98425000D01*
X202817076Y-97973051D01*
X202561067Y-97589907D01*
X202177923Y-97333898D01*
X201725974Y-97244000D01*
X200864026Y-97244000D01*
X200412077Y-97333898D01*
X200028933Y-97589907D01*
X199895235Y-97790000D01*
X197485000Y-97790000D01*
X197241996Y-97838336D01*
X197035987Y-97975987D01*
X194565324Y-100446650D01*
X194310000Y-100395863D01*
X194054676Y-100446650D01*
X191135000Y-97526974D01*
X191135000Y-91673885D01*
X193128796Y-91673885D01*
X193308213Y-92108109D01*
X193640144Y-92440619D01*
X194074054Y-92620794D01*
X194543885Y-92621204D01*
X194578766Y-92606792D01*
X198305987Y-96334013D01*
X198511995Y-96471664D01*
X198755000Y-96520000D01*
X199895235Y-96520000D01*
X200028933Y-96720093D01*
X200412077Y-96976102D01*
X200864026Y-97066000D01*
X201725974Y-97066000D01*
X202177923Y-96976102D01*
X202561067Y-96720093D01*
X202817076Y-96336949D01*
X202906974Y-95885000D01*
X207303026Y-95885000D01*
X207392924Y-96336949D01*
X207648933Y-96720093D01*
X208032077Y-96976102D01*
X208484026Y-97066000D01*
X209345974Y-97066000D01*
X209797923Y-96976102D01*
X210181067Y-96720093D01*
X210314765Y-96520000D01*
X213096974Y-96520000D01*
X215265000Y-98688025D01*
X215265000Y-100330000D01*
X215021996Y-100378336D01*
X214815987Y-100515987D01*
X214678336Y-100721996D01*
X214630000Y-100965000D01*
X214678336Y-101208004D01*
X214766211Y-101339518D01*
X214719000Y-101576863D01*
X214719000Y-101623137D01*
X214808898Y-102075086D01*
X215064907Y-102458230D01*
X215448051Y-102714239D01*
X215900000Y-102804137D01*
X216351949Y-102714239D01*
X216735093Y-102458230D01*
X216884251Y-102235000D01*
X220599533Y-102235000D01*
X220613213Y-102268109D01*
X220945144Y-102600619D01*
X221379054Y-102780794D01*
X221848885Y-102781204D01*
X222283109Y-102601787D01*
X222615619Y-102269856D01*
X222630092Y-102235000D01*
X226345749Y-102235000D01*
X226494907Y-102458230D01*
X226878051Y-102714239D01*
X227330000Y-102804137D01*
X227781949Y-102714239D01*
X228165093Y-102458230D01*
X228421102Y-102075086D01*
X228511000Y-101623137D01*
X228511000Y-101576863D01*
X228421102Y-101124914D01*
X228165093Y-100741770D01*
X227781949Y-100485761D01*
X227330000Y-100395863D01*
X226878051Y-100485761D01*
X226494907Y-100741770D01*
X226345749Y-100965000D01*
X222630467Y-100965000D01*
X222616787Y-100931891D01*
X222284856Y-100599381D01*
X221850946Y-100419206D01*
X221381115Y-100418796D01*
X220946891Y-100598213D01*
X220614381Y-100930144D01*
X220599908Y-100965000D01*
X216884251Y-100965000D01*
X216735093Y-100741770D01*
X216535000Y-100608072D01*
X216535000Y-98425000D01*
X216486664Y-98181995D01*
X216404157Y-98058516D01*
X216349013Y-97975987D01*
X216349010Y-97975985D01*
X213809013Y-95435987D01*
X213603004Y-95298336D01*
X213360000Y-95250000D01*
X210314765Y-95250000D01*
X210181067Y-95049907D01*
X209797923Y-94793898D01*
X209345974Y-94704000D01*
X208484026Y-94704000D01*
X208032077Y-94793898D01*
X207648933Y-95049907D01*
X207392924Y-95433051D01*
X207303026Y-95885000D01*
X202906974Y-95885000D01*
X202817076Y-95433051D01*
X202561067Y-95049907D01*
X202177923Y-94793898D01*
X201725974Y-94704000D01*
X200864026Y-94704000D01*
X200412077Y-94793898D01*
X200028933Y-95049907D01*
X199895235Y-95250000D01*
X199018026Y-95250000D01*
X196313026Y-92545000D01*
X199706536Y-92545000D01*
X199706536Y-94145000D01*
X199733103Y-94286190D01*
X199816546Y-94415865D01*
X199943866Y-94502859D01*
X200095000Y-94533464D01*
X202495000Y-94533464D01*
X202636190Y-94506897D01*
X202765865Y-94423454D01*
X202852859Y-94296134D01*
X202883464Y-94145000D01*
X202883464Y-93345000D01*
X207303026Y-93345000D01*
X207392924Y-93796949D01*
X207648933Y-94180093D01*
X208032077Y-94436102D01*
X208484026Y-94526000D01*
X209345974Y-94526000D01*
X209797923Y-94436102D01*
X210181067Y-94180093D01*
X210437076Y-93796949D01*
X210526974Y-93345000D01*
X210437076Y-92893051D01*
X210181067Y-92509907D01*
X209797923Y-92253898D01*
X209550000Y-92204583D01*
X209550000Y-88528026D01*
X210479562Y-87598464D01*
X211296454Y-87598464D01*
X211455000Y-87630001D01*
X211613546Y-87598464D01*
X211670000Y-87598464D01*
X211811190Y-87571897D01*
X211940865Y-87488454D01*
X212027859Y-87361134D01*
X212058464Y-87210000D01*
X212058464Y-87153546D01*
X212090001Y-86995000D01*
X212058464Y-86836454D01*
X212058464Y-86335883D01*
X212129000Y-86335883D01*
X212129000Y-86384117D01*
X212222704Y-86855200D01*
X212489552Y-87254565D01*
X212725000Y-87411887D01*
X212725000Y-88900000D01*
X212773336Y-89143004D01*
X212910987Y-89349013D01*
X214732944Y-91170969D01*
X214719206Y-91204054D01*
X214718796Y-91673885D01*
X214898213Y-92108109D01*
X215230144Y-92440619D01*
X215664054Y-92620794D01*
X216133885Y-92621204D01*
X216568109Y-92441787D01*
X216900619Y-92109856D01*
X217080794Y-91675946D01*
X217081204Y-91206115D01*
X216901787Y-90771891D01*
X216569856Y-90439381D01*
X216135946Y-90259206D01*
X215666115Y-90258796D01*
X215631234Y-90273209D01*
X213995000Y-88636974D01*
X213995000Y-87411887D01*
X214230448Y-87254565D01*
X214497296Y-86855200D01*
X214591000Y-86384117D01*
X214591000Y-86335883D01*
X214669000Y-86335883D01*
X214669000Y-86384117D01*
X214762704Y-86855200D01*
X215029552Y-87254565D01*
X215428917Y-87521413D01*
X215900000Y-87615117D01*
X216371083Y-87521413D01*
X216770448Y-87254565D01*
X217037296Y-86855200D01*
X217131000Y-86384117D01*
X217131000Y-86335883D01*
X220384000Y-86335883D01*
X220384000Y-86384117D01*
X220477704Y-86855200D01*
X220744552Y-87254565D01*
X220980000Y-87411887D01*
X220980000Y-90448072D01*
X220779907Y-90581770D01*
X220523898Y-90964914D01*
X220434000Y-91416863D01*
X220434000Y-91463137D01*
X220523898Y-91915086D01*
X220779907Y-92298230D01*
X221163051Y-92554239D01*
X221615000Y-92644137D01*
X222066949Y-92554239D01*
X222450093Y-92298230D01*
X222706102Y-91915086D01*
X222754079Y-91673885D01*
X226148796Y-91673885D01*
X226328213Y-92108109D01*
X226660144Y-92440619D01*
X227094054Y-92620794D01*
X227563885Y-92621204D01*
X227998109Y-92441787D01*
X228330619Y-92109856D01*
X228345092Y-92075000D01*
X229215000Y-92075000D01*
X229458004Y-92026664D01*
X229664013Y-91889013D01*
X230264562Y-91288464D01*
X231130000Y-91288464D01*
X231271190Y-91261897D01*
X231400865Y-91178454D01*
X231487859Y-91051134D01*
X231518464Y-90900000D01*
X231518464Y-89400000D01*
X231491897Y-89258810D01*
X231408454Y-89129135D01*
X231281134Y-89042141D01*
X231245870Y-89035000D01*
X231256310Y-89035000D01*
X231489699Y-88938327D01*
X231668327Y-88759698D01*
X231765000Y-88526309D01*
X231765000Y-87935750D01*
X231606250Y-87777000D01*
X230632000Y-87777000D01*
X230632000Y-87797000D01*
X230378000Y-87797000D01*
X230378000Y-87777000D01*
X229403750Y-87777000D01*
X229245000Y-87935750D01*
X229245000Y-88526309D01*
X229341673Y-88759698D01*
X229520301Y-88938327D01*
X229753690Y-89035000D01*
X229755301Y-89035000D01*
X229738810Y-89038103D01*
X229609135Y-89121546D01*
X229522141Y-89248866D01*
X229491536Y-89400000D01*
X229491536Y-90265439D01*
X228951974Y-90805000D01*
X228345467Y-90805000D01*
X228331787Y-90771891D01*
X227999856Y-90439381D01*
X227565946Y-90259206D01*
X227096115Y-90258796D01*
X226661891Y-90438213D01*
X226329381Y-90770144D01*
X226149206Y-91204054D01*
X226148796Y-91673885D01*
X222754079Y-91673885D01*
X222796000Y-91463137D01*
X222796000Y-91416863D01*
X222706102Y-90964914D01*
X222450093Y-90581770D01*
X222250000Y-90448072D01*
X222250000Y-87411887D01*
X222485448Y-87254565D01*
X222752296Y-86855200D01*
X222846000Y-86384117D01*
X222846000Y-86335883D01*
X222924000Y-86335883D01*
X222924000Y-86384117D01*
X223017704Y-86855200D01*
X223284552Y-87254565D01*
X223683917Y-87521413D01*
X224155000Y-87615117D01*
X224626083Y-87521413D01*
X225025448Y-87254565D01*
X225210000Y-86978364D01*
X225210000Y-87336309D01*
X225306673Y-87569698D01*
X225485301Y-87748327D01*
X225718690Y-87845000D01*
X226409250Y-87845000D01*
X226568000Y-87686250D01*
X226568000Y-86487000D01*
X226822000Y-86487000D01*
X226822000Y-87686250D01*
X226980750Y-87845000D01*
X227671310Y-87845000D01*
X227904699Y-87748327D01*
X228083327Y-87569698D01*
X228180000Y-87336309D01*
X228180000Y-86773691D01*
X229245000Y-86773691D01*
X229245000Y-87364250D01*
X229403750Y-87523000D01*
X230378000Y-87523000D01*
X230378000Y-86423750D01*
X230632000Y-86423750D01*
X230632000Y-87523000D01*
X231606250Y-87523000D01*
X231765000Y-87364250D01*
X231765000Y-86773691D01*
X231668327Y-86540302D01*
X231489699Y-86361673D01*
X231256310Y-86265000D01*
X230790750Y-86265000D01*
X230632000Y-86423750D01*
X230378000Y-86423750D01*
X230219250Y-86265000D01*
X229753690Y-86265000D01*
X229520301Y-86361673D01*
X229341673Y-86540302D01*
X229245000Y-86773691D01*
X228180000Y-86773691D01*
X228180000Y-86645750D01*
X228021250Y-86487000D01*
X226822000Y-86487000D01*
X226568000Y-86487000D01*
X226548000Y-86487000D01*
X226548000Y-86233000D01*
X226568000Y-86233000D01*
X226568000Y-85033750D01*
X226822000Y-85033750D01*
X226822000Y-86233000D01*
X228021250Y-86233000D01*
X228180000Y-86074250D01*
X228180000Y-85383691D01*
X228083327Y-85150302D01*
X227904699Y-84971673D01*
X227671310Y-84875000D01*
X226980750Y-84875000D01*
X226822000Y-85033750D01*
X226568000Y-85033750D01*
X226409250Y-84875000D01*
X225718690Y-84875000D01*
X225485301Y-84971673D01*
X225306673Y-85150302D01*
X225210000Y-85383691D01*
X225210000Y-85741636D01*
X225025448Y-85465435D01*
X224626083Y-85198587D01*
X224155000Y-85104883D01*
X223683917Y-85198587D01*
X223284552Y-85465435D01*
X223017704Y-85864800D01*
X222924000Y-86335883D01*
X222846000Y-86335883D01*
X222752296Y-85864800D01*
X222485448Y-85465435D01*
X222086083Y-85198587D01*
X221615000Y-85104883D01*
X221143917Y-85198587D01*
X220744552Y-85465435D01*
X220477704Y-85864800D01*
X220384000Y-86335883D01*
X217131000Y-86335883D01*
X217037296Y-85864800D01*
X216770448Y-85465435D01*
X216371083Y-85198587D01*
X215900000Y-85104883D01*
X215428917Y-85198587D01*
X215029552Y-85465435D01*
X214762704Y-85864800D01*
X214669000Y-86335883D01*
X214591000Y-86335883D01*
X214497296Y-85864800D01*
X214230448Y-85465435D01*
X213831083Y-85198587D01*
X213360000Y-85104883D01*
X212888917Y-85198587D01*
X212489552Y-85465435D01*
X212222704Y-85864800D01*
X212129000Y-86335883D01*
X212058464Y-86335883D01*
X212058464Y-85510000D01*
X212031897Y-85368810D01*
X211948454Y-85239135D01*
X211821134Y-85152141D01*
X211683713Y-85124313D01*
X212353026Y-84455000D01*
X230876974Y-84455000D01*
X231775000Y-85353026D01*
X231775000Y-91176974D01*
X230876974Y-92075000D01*
X229870000Y-92075000D01*
X229626995Y-92123336D01*
X229566138Y-92164000D01*
X229420987Y-92260987D01*
X229420985Y-92260990D01*
X226880987Y-94800987D01*
X226743336Y-95006996D01*
X226695000Y-95250000D01*
X226695000Y-98425000D01*
X226743336Y-98668004D01*
X226880987Y-98874013D01*
X232410000Y-104403025D01*
X232410000Y-126736974D01*
X230876974Y-128270000D01*
X226958026Y-128270000D01*
X225023464Y-126335438D01*
X225023464Y-125380750D01*
X226500000Y-125380750D01*
X226500000Y-126971310D01*
X226596673Y-127204699D01*
X226775302Y-127383327D01*
X227008691Y-127480000D01*
X228599250Y-127480000D01*
X228758000Y-127321250D01*
X228758000Y-125222000D01*
X229012000Y-125222000D01*
X229012000Y-127321250D01*
X229170750Y-127480000D01*
X230761309Y-127480000D01*
X230994698Y-127383327D01*
X231173327Y-127204699D01*
X231270000Y-126971310D01*
X231270000Y-125380750D01*
X231111250Y-125222000D01*
X229012000Y-125222000D01*
X228758000Y-125222000D01*
X226658750Y-125222000D01*
X226500000Y-125380750D01*
X225023464Y-125380750D01*
X225023464Y-123345000D01*
X224999697Y-123218690D01*
X226500000Y-123218690D01*
X226500000Y-124809250D01*
X226658750Y-124968000D01*
X228758000Y-124968000D01*
X228758000Y-122868750D01*
X229012000Y-122868750D01*
X229012000Y-124968000D01*
X231111250Y-124968000D01*
X231270000Y-124809250D01*
X231270000Y-123218690D01*
X231173327Y-122985301D01*
X230994698Y-122806673D01*
X230761309Y-122710000D01*
X229170750Y-122710000D01*
X229012000Y-122868750D01*
X228758000Y-122868750D01*
X228599250Y-122710000D01*
X227008691Y-122710000D01*
X226775302Y-122806673D01*
X226596673Y-122985301D01*
X226500000Y-123218690D01*
X224999697Y-123218690D01*
X224996897Y-123203810D01*
X224913454Y-123074135D01*
X224786134Y-122987141D01*
X224635000Y-122956536D01*
X221644562Y-122956536D01*
X219710000Y-121021974D01*
X219710000Y-118645000D01*
X223746536Y-118645000D01*
X223746536Y-122145000D01*
X223773103Y-122286190D01*
X223856546Y-122415865D01*
X223983866Y-122502859D01*
X224135000Y-122533464D01*
X227635000Y-122533464D01*
X227776190Y-122506897D01*
X227905865Y-122423454D01*
X227992859Y-122296134D01*
X228023464Y-122145000D01*
X228023464Y-118645000D01*
X227996897Y-118503810D01*
X227913454Y-118374135D01*
X227786134Y-118287141D01*
X227635000Y-118256536D01*
X224135000Y-118256536D01*
X223993810Y-118283103D01*
X223864135Y-118366546D01*
X223777141Y-118493866D01*
X223746536Y-118645000D01*
X219710000Y-118645000D01*
X219710000Y-117738026D01*
X220923710Y-116524316D01*
X221163051Y-116684239D01*
X221615000Y-116774137D01*
X222066949Y-116684239D01*
X222226328Y-116577745D01*
X226501861Y-116577745D01*
X226575995Y-116823864D01*
X227113223Y-117016965D01*
X227683454Y-116989778D01*
X228084005Y-116823864D01*
X228158139Y-116577745D01*
X227330000Y-115749605D01*
X226501861Y-116577745D01*
X222226328Y-116577745D01*
X222450093Y-116428230D01*
X222706102Y-116045086D01*
X222796000Y-115593137D01*
X222796000Y-115546863D01*
X222757483Y-115353223D01*
X225883035Y-115353223D01*
X225910222Y-115923454D01*
X226076136Y-116324005D01*
X226322255Y-116398139D01*
X227150395Y-115570000D01*
X227509605Y-115570000D01*
X228337745Y-116398139D01*
X228583864Y-116324005D01*
X228776965Y-115786777D01*
X228749778Y-115216546D01*
X228583864Y-114815995D01*
X228337745Y-114741861D01*
X227509605Y-115570000D01*
X227150395Y-115570000D01*
X226322255Y-114741861D01*
X226076136Y-114815995D01*
X225883035Y-115353223D01*
X222757483Y-115353223D01*
X222706102Y-115094914D01*
X222450093Y-114711770D01*
X222226329Y-114562255D01*
X226501861Y-114562255D01*
X227330000Y-115390395D01*
X228158139Y-114562255D01*
X228084005Y-114316136D01*
X227546777Y-114123035D01*
X226976546Y-114150222D01*
X226575995Y-114316136D01*
X226501861Y-114562255D01*
X222226329Y-114562255D01*
X222066949Y-114455761D01*
X221615000Y-114365863D01*
X221163051Y-114455761D01*
X220779907Y-114711770D01*
X220523898Y-115094914D01*
X220515664Y-115136310D01*
X218625987Y-117025987D01*
X218488336Y-117231996D01*
X218440000Y-117475000D01*
X218440000Y-121285000D01*
X218488336Y-121528004D01*
X218625987Y-121734013D01*
X220746536Y-123854562D01*
X220746536Y-126335438D01*
X220081974Y-127000000D01*
X210314765Y-127000000D01*
X210181067Y-126799907D01*
X209797923Y-126543898D01*
X209345974Y-126454000D01*
X208484026Y-126454000D01*
X208032077Y-126543898D01*
X207648933Y-126799907D01*
X207392924Y-127183051D01*
X207303026Y-127635000D01*
X207392924Y-128086949D01*
X207648933Y-128470093D01*
X208032077Y-128726102D01*
X208484026Y-128816000D01*
X209345974Y-128816000D01*
X209797923Y-128726102D01*
X210181067Y-128470093D01*
X210314765Y-128270000D01*
X220345000Y-128270000D01*
X220588004Y-128221664D01*
X220794013Y-128084013D01*
X221644562Y-127233464D01*
X224125438Y-127233464D01*
X226245987Y-129354013D01*
X226451996Y-129491664D01*
X226695000Y-129540001D01*
X226695005Y-129540000D01*
X231140000Y-129540000D01*
X231383004Y-129491664D01*
X231589013Y-129354013D01*
X233494013Y-127449013D01*
X233631664Y-127243004D01*
X233680000Y-127000000D01*
X233680000Y-104140005D01*
X233680001Y-104140000D01*
X233631664Y-103896996D01*
X233602961Y-103854039D01*
X233494013Y-103690987D01*
X233494010Y-103690985D01*
X227965000Y-98161974D01*
X227965000Y-97155000D01*
X230049000Y-97155000D01*
X230228720Y-98058516D01*
X230740521Y-98824479D01*
X231506484Y-99336280D01*
X232410000Y-99516000D01*
X233313516Y-99336280D01*
X234079479Y-98824479D01*
X234591280Y-98058516D01*
X234771000Y-97155000D01*
X234591280Y-96251484D01*
X234079479Y-95485521D01*
X233313516Y-94973720D01*
X232410000Y-94794000D01*
X231506484Y-94973720D01*
X230740521Y-95485521D01*
X230228720Y-96251484D01*
X230049000Y-97155000D01*
X227965000Y-97155000D01*
X227965000Y-95513026D01*
X230133025Y-93345000D01*
X231140000Y-93345000D01*
X231383004Y-93296664D01*
X231589013Y-93159013D01*
X232859013Y-91889013D01*
X232996664Y-91683004D01*
X233045000Y-91440000D01*
X233045000Y-85090000D01*
X232996664Y-84846996D01*
X232859013Y-84640987D01*
X231589013Y-83370987D01*
X231383004Y-83233336D01*
X231140000Y-83185000D01*
X212090000Y-83185000D01*
X211846996Y-83233336D01*
X211640987Y-83370987D01*
X210370987Y-84640987D01*
X210233336Y-84846996D01*
X210185000Y-85090000D01*
X210185000Y-85121536D01*
X209970000Y-85121536D01*
X209828810Y-85148103D01*
X209699135Y-85231546D01*
X209612141Y-85358866D01*
X209581536Y-85510000D01*
X209581536Y-86700438D01*
X208465987Y-87815987D01*
X208328336Y-88021996D01*
X208280000Y-88265000D01*
X208280000Y-92204583D01*
X208032077Y-92253898D01*
X207648933Y-92509907D01*
X207392924Y-92893051D01*
X207303026Y-93345000D01*
X202883464Y-93345000D01*
X202883464Y-92545000D01*
X202856897Y-92403810D01*
X202773454Y-92274135D01*
X202646134Y-92187141D01*
X202495000Y-92156536D01*
X201930000Y-92156536D01*
X201930000Y-90433026D01*
X202960136Y-89402890D01*
X203176863Y-89446000D01*
X203223137Y-89446000D01*
X203675086Y-89356102D01*
X204058230Y-89100093D01*
X204314239Y-88716949D01*
X204404137Y-88265000D01*
X204314239Y-87813051D01*
X204058230Y-87429907D01*
X203675086Y-87173898D01*
X203223137Y-87084000D01*
X203176863Y-87084000D01*
X202724914Y-87173898D01*
X202341770Y-87429907D01*
X202085761Y-87813051D01*
X201995863Y-88265000D01*
X202046650Y-88520324D01*
X200845987Y-89720987D01*
X200708336Y-89926996D01*
X200660000Y-90170000D01*
X200660000Y-92156536D01*
X200095000Y-92156536D01*
X199953810Y-92183103D01*
X199824135Y-92266546D01*
X199737141Y-92393866D01*
X199706536Y-92545000D01*
X196313026Y-92545000D01*
X195477056Y-91709030D01*
X195490794Y-91675946D01*
X195491204Y-91206115D01*
X195311787Y-90771891D01*
X194979856Y-90439381D01*
X194545946Y-90259206D01*
X194076115Y-90258796D01*
X193641891Y-90438213D01*
X193309381Y-90770144D01*
X193129206Y-91204054D01*
X193128796Y-91673885D01*
X191135000Y-91673885D01*
X191135000Y-88498885D01*
X191858796Y-88498885D01*
X192038213Y-88933109D01*
X192370144Y-89265619D01*
X192804054Y-89445794D01*
X193273885Y-89446204D01*
X193708109Y-89266787D01*
X194040619Y-88934856D01*
X194055092Y-88900000D01*
X196850000Y-88900000D01*
X197093004Y-88851664D01*
X197299013Y-88714013D01*
X199204013Y-86809013D01*
X199341664Y-86603004D01*
X199390000Y-86360000D01*
X199390000Y-85058464D01*
X199605000Y-85058464D01*
X199746190Y-85031897D01*
X199875865Y-84948454D01*
X199962859Y-84821134D01*
X199993464Y-84670000D01*
X199993464Y-82970000D01*
X199966897Y-82828810D01*
X199883454Y-82699135D01*
X199756134Y-82612141D01*
X199605000Y-82581536D01*
X197905000Y-82581536D01*
X197763810Y-82608103D01*
X197634135Y-82691546D01*
X197547141Y-82818866D01*
X197516536Y-82970000D01*
X197516536Y-84670000D01*
X197543103Y-84811190D01*
X197626546Y-84940865D01*
X197753866Y-85027859D01*
X197905000Y-85058464D01*
X198120000Y-85058464D01*
X198120000Y-86096974D01*
X196586974Y-87630000D01*
X194055467Y-87630000D01*
X194041787Y-87596891D01*
X193709856Y-87264381D01*
X193275946Y-87084206D01*
X192806115Y-87083796D01*
X192371891Y-87263213D01*
X192039381Y-87595144D01*
X191859206Y-88029054D01*
X191858796Y-88498885D01*
X191135000Y-88498885D01*
X191135000Y-85353026D01*
X192033026Y-84455000D01*
X192631116Y-84455000D01*
X192804552Y-84714565D01*
X193203917Y-84981413D01*
X193675000Y-85075117D01*
X194146083Y-84981413D01*
X194545448Y-84714565D01*
X194718884Y-84455000D01*
X195171116Y-84455000D01*
X195344552Y-84714565D01*
X195743917Y-84981413D01*
X196215000Y-85075117D01*
X196686083Y-84981413D01*
X197085448Y-84714565D01*
X197352296Y-84315200D01*
X197446000Y-83844117D01*
X197446000Y-83795883D01*
X197352296Y-83324800D01*
X197085448Y-82925435D01*
X196686083Y-82658587D01*
X196215000Y-82564883D01*
X195743917Y-82658587D01*
X195344552Y-82925435D01*
X195171116Y-83185000D01*
X194718884Y-83185000D01*
X194545448Y-82925435D01*
X194146083Y-82658587D01*
X193675000Y-82564883D01*
X193203917Y-82658587D01*
X192804552Y-82925435D01*
X192631116Y-83185000D01*
X191770000Y-83185000D01*
X191526996Y-83233336D01*
X191320987Y-83370987D01*
X190050987Y-84640987D01*
X189913336Y-84846996D01*
X189865000Y-85090000D01*
X189051000Y-85090000D01*
X189051000Y-81736000D01*
X235764000Y-81736000D01*
X235764000Y-144959000D01*
M02*
