M48
;DRILL file {KiCad 4.0.5} date Monday, October 01, 2018 'PMt' 09:08:49 PM
;FORMAT={-:-/ absolute / inch / decimal}
FMAT,2
INCH,TZ
T1C0.031
T2C0.039
T3C0.040
%
G90
G05
M72
T1
X7.6Y-3.475
X7.65Y-3.6
X7.65Y-4.
X7.65Y-4.15
X7.65Y-4.55
X7.925Y-3.675
X7.925Y-3.775
X7.925Y-3.875
X7.925Y-3.975
X7.925Y-4.075
X7.925Y-4.175
X7.925Y-4.275
X7.925Y-4.375
X7.925Y-4.725
X7.925Y-4.825
X7.925Y-4.925
X7.925Y-5.025
X8.Y-3.475
X8.225Y-3.675
X8.225Y-3.775
X8.225Y-3.875
X8.225Y-3.975
X8.225Y-4.075
X8.225Y-4.175
X8.225Y-4.275
X8.225Y-4.375
X8.225Y-4.725
X8.225Y-4.825
X8.225Y-4.925
X8.225Y-5.025
X8.5Y-3.6
X8.5Y-4.
X8.5Y-4.15
X8.5Y-4.55
X8.725Y-3.6
X8.725Y-4.
X8.725Y-4.15
X8.725Y-4.55
X8.95Y-3.6
X8.95Y-4.
X8.95Y-4.15
X8.95Y-4.55
T2
X7.625Y-3.3
X7.725Y-3.3
X7.825Y-3.3
X7.975Y-5.275
X7.975Y-5.5
X8.075Y-5.275
X8.075Y-5.5
X8.175Y-5.275
X8.175Y-5.5
X8.3Y-3.4
X8.4Y-3.4
X8.5Y-3.4
X8.725Y-3.4
X8.775Y-4.925
X8.775Y-5.5
X8.825Y-3.4
X8.925Y-3.4
X9.0112Y-4.925
X9.0112Y-5.5
T3
X8.8931Y-4.74
X8.8931Y-5.315
T0
M30
